<?xml version="1.0" encoding="utf-8"?>
<!-- Generator: Adobe Illustrator 21.1.0, SVG Export Plug-In . SVG Version: 6.00 Build 0)  -->
<svg version="1.1" id="Layer_1" xmlns="http://www.w3.org/2000/svg" xmlns:xlink="http://www.w3.org/1999/xlink" x="0px" y="0px"
	 viewBox="0 0 365 360" style="enable-background:new 0 0 365 360;" xml:space="preserve">
<style type="text/css">
	.st0{fill:#FF9200;}
	.st1{fill:#FF4E00;}
</style>
<g>
	<polygon class="st0" points="130.3,344.2 98.2,108.6 266.8,108.6 234.7,344.2 	"/>
	<path class="st1" d="M265.3,109.8L233.6,343H131.4L99.7,109.8H265.3 M268.2,107.3H96.8l32.4,238.2h106.6L268.2,107.3z"/>
	<path class="st0" d="M189.6,346.5L189.6,346.5c-9.9-2-19.5-4.7-28.8-8c-10.5,2.3-21.3,3.5-32.2,3.7l-0.9,0l-0.8-5.8l1.1,0
		c7.6-0.1,15.1-0.8,22.5-1.9c-8.6-3.6-17.1-7.9-25.3-12.7l-0.4-0.2l-1-7.4l-0.6-4.7l1-0.1c5.9-0.7,11.9-1.6,17.8-2.8
		c-6.8-2.7-13.5-5.7-20-9.1l-0.5-0.2l-1-7l1.7,0.9c9.6,5.1,19.7,9.5,29.9,13.1c7.6-1.9,15.1-4.2,22.3-6.9c4.1-1.5,8.3-3.2,12.4-5
		c-11.1-2.8-22.1-6.4-32.7-10.7c-10.9,2.2-22.1,3.4-33.4,3.6l-0.9,0l-0.8-5.8l1.1,0c8.2-0.1,16.3-0.8,24.3-2
		c-9.4-4.3-18.6-9.3-27.3-14.8l-0.4-0.2l-1-7.5l1.8,1.2c11.2,7.2,23,13.5,35.1,18.7c0.5,0.2,0.9,0.4,1.4,0.6
		c0.2,0.1,0.4,0.2,0.7,0.3c4.6-1,9.2-2.1,13.6-3.5c6.1-1.8,12.1-4,18-6.5c-13.5-2.9-26.5-7.4-38.7-13.3c-0.2-0.1-0.7-0.3-0.7-0.3
		c-8,1-16,1.5-23.9,1.5c-2.3,0-4.5,0-6.8-0.1l-0.8,0l-0.8-5.8l1.2,0c2.4,0.1,4.8,0.1,7.2,0.1c4.9,0,9.8-0.2,14.8-0.6
		c-8.6-5-16.8-10.7-24.4-17.1l-1.2,0l-1.4-10l2,1.8c0.8,0.8,1.7,1.5,2.6,2.3c10.4-0.4,20.9-1.6,31.3-3.7
		c-10.8-5.3-21.2-11.5-31-18.6c-2.1,0.1-4.3,0.2-6.4,0.3l-0.9,0l-0.8-5.8l0.9,0c-0.2-0.2-1.1-0.8-1.1-0.8l-1.1-8.4l2,1.6
		c3.1,2.6,6.1,4.9,9.1,7.2c9-0.7,18-2,26.8-3.9c-0.1,0-0.2-0.1-0.3-0.1c-12.7-5.3-24.9-12.2-36.3-20.4c-0.9,0-1.7,0-2.6-0.1l-0.8,0
		l-1.5-11l1.9,1.5c1.7,1.3,3.3,2.6,4.9,3.7l0.8,0c13,0,26.1-1.3,38.9-4c-2.4-0.9-4.5-1.8-6.6-2.7c-10-4.2-19.8-9.2-29.2-14.8l-0.4,0
		c-0.4,0-0.7,0-1,0c-3.5,0-7-0.1-10.6-0.3l-0.8,0l-0.8-5.8l1.2,0.1c1.1,0.1,2.1,0.1,3.1,0.1c-1.4-0.9-2.9-1.9-4.3-2.9l-0.4-0.3
		l-1.1-7.8l1.9,1.3c4.9,3.5,9.9,6.8,14.9,9.8c14.2-0.2,28.3-1.9,42-5c2.5-0.6,5-1.2,7.6-1.9c-12.5-6.6-24.3-14.5-35.3-23.5l-2.1-1.8
		h9.1l0.3,0.2c11.2,8.8,23.4,16.5,36.1,22.7c9-2.8,17.9-6.3,26.5-10.4c-7-3-13.8-6.5-20.3-10.2l-0.9-0.5l1-1.7h7.7l0.2,0.1
		c6.1,3.3,12.5,6.3,19,9c5.2-2.7,10.4-5.7,15.4-8.9l0.2-0.2h10.4l-2.7,1.8c-5.3,3.6-10.8,6.9-16.3,10c5.7,2.1,11.5,3.9,17.3,5.4
		c6.5-5.2,12.7-10.9,18.5-16.9l0.3-0.3h7.9l-1.6,1.7c-5.6,6.1-11.7,11.9-18.1,17.3c0.9,0.2,1.9,0.4,2.8,0.6c3.2,0.7,6.5,1.3,9.9,1.8
		c5.4-6.6,10.4-13.6,14.8-20.9l0.3-0.5h3.8l-0.8,6.1l-0.1,0.2c-3.5,5.5-7.3,10.9-11.4,16.1c2.6,0.3,5.3,0.6,8.1,0.8l1,0.1l-0.8,5.7
		l-0.9-0.1c-3.9-0.3-7.9-0.8-11.7-1.3c-4.2,5-8.7,9.8-13.3,14.3c6.3,0.7,12.7,1,19,1.1c1.3-1.7,2.5-3.5,4-5.7l2.4-3.5l-2,15l-1.4,0
		c-4.6,6.1-9.7,12-15.1,17.5c4.3-0.1,8.7-0.3,13-0.7l1.2-0.1l-0.8,5.8l-0.8,0.1c-6.4,0.5-12.4,0.7-18.6,0.7
		c-6,5.6-12.3,10.9-18.9,15.6c-2.7,2-5.6,3.9-8.6,5.8c0.6,0,1.1,0,1.7,0c10,0,20.1-0.8,30.2-2.4c4.6-5.1,8.8-10.5,12.6-16.1l2.4-3.6
		l-1.7,12.7l-0.2,0.2c-1.4,1.8-2.7,3.6-4.1,5.3c0.8-0.2,1.5-0.3,2.2-0.5l1.4-0.3l-0.8,6.1l-0.7,0.1c-2.8,0.6-5.5,1.1-8.2,1.5
		c-5.8,6.3-12.3,12.1-19.2,17.3c-6.4,4.8-13.3,9.2-20.6,13.1c8.8,1.3,17.7,2.1,26.6,2.3c6.3-5.5,12.4-11.5,17.9-17.8l2.2-2.5
		l-1.4,10.2l-0.2,0.2c-3.2,3.4-6.5,6.7-9.8,9.8c2.5,0,5-0.1,7.5-0.3l1.2-0.1l-0.8,5.8l-0.8,0c-3.8,0.2-7.5,0.3-11.1,0.3
		c-0.8,0-1.6,0-2.4,0l-0.1,0c-9.7,8.2-20.1,15.4-31,21.4c5.9,0.6,11.8,0.9,17.7,0.9c3.6,0,7.2-0.1,11-0.3c4.7-3.8,9.2-7.7,13.5-11.9
		l2.1-2l-1.2,9.1l-0.3,0.2c-1.3,1.2-2.7,2.4-4,3.6c0.8-0.1,1.6-0.2,2.5-0.3l1.3-0.2l-0.8,5.9l-0.8,0.1c-3.3,0.4-6.7,0.8-10.1,1
		c-10.1,8-20.9,15.1-32.1,21.2c9.6,1.7,19.4,2.9,29.1,3.5c3.4-3.2,6.8-6.7,9.9-10.2l2.2-2.5l-1.4,10.2l-0.2,0.2
		c-0.8,0.9-1.7,1.8-2.6,2.7c0.4,0,2.4,0.1,2.4,0.1l-0.8,5.8l-0.9,0c-2.1-0.1-4.3-0.1-6.5-0.2c-7.1,6.5-14.8,12.4-22.9,17.5
		c5.7,0.4,11.5,0.6,17.1,0.6c2,0,4.1,0,6.3-0.1c1.1-1.3,2.1-2.7,3.2-4.1l2.3-3.2l-1.8,13l-0.9,0c-4.9,5.8-10.3,11-16.2,15.6
		c-2.6,2-5.4,4-8.2,5.8l0,0.4l0,0.1l-0.1,0.1l0,1.2H189.6z M171.2,335.9c11.2,3.4,22.7,5.9,34.4,7.4c4.8-2.6,9.3-5.6,13.5-8.9
		c4.2-3.3,8.2-6.9,11.9-10.8c-0.4,0-0.8,0-1.2,0c-8.5,0-17.1-0.5-25.6-1.4c-5.7,3.1-11.6,6-17.6,8.4
		C181.7,332.6,176.5,334.4,171.2,335.9z M125.7,315.3c9.4,5.8,19.4,10.8,29.5,14.9c1.8,0.7,3.8,1.5,6,2.3c7.9-1.8,15.8-4.3,23.3-7.3
		c3.3-1.3,6.5-2.8,9.7-4.3c-0.5-0.1-1-0.2-1.5-0.2c-13.8-2.2-27.5-5.7-40.8-10.3c-8.7,2.1-17.7,3.7-26.6,4.8L125.7,315.3z
		 M162.2,307.6c10.3,3.2,20.9,5.6,31.5,7.3c3.1,0.5,6.3,0.9,9.4,1.3c8.6-4.9,16.8-10.7,24.4-17.1c-10.6-0.9-21.1-2.4-31.5-4.6
		c-6.4,3.1-12.9,5.9-19.5,8.4C171.9,304.6,167.1,306.2,162.2,307.6z M164.2,279.3c10.1,3.7,20.5,6.8,31.1,9.1
		c10.8-5.4,21.3-11.8,31.1-18.9c-1,0-2.1,0-3.1,0c-9,0-18-0.7-26.8-2c-8.5,4.1-17.4,7.5-26.4,10.2
		C168.2,278.3,166.2,278.8,164.2,279.3z M157.5,250.4c12.1,5.2,24.9,8.9,38.1,11.1c11.3-5.6,22.1-12.4,32.2-20.4
		c-9.6-0.5-19.3-1.7-28.8-3.5C186.1,243.5,172.2,247.8,157.5,250.4z M122.3,229.6c8.1,6.3,16.8,11.8,25.9,16.5
		c14.4-1.9,28.1-5.4,40.9-10.5c-10.2-2.4-20.2-5.7-29.8-9.6c-1.1-0.4-2.1-0.9-3.2-1.4l-0.5-0.2C144.7,227,133.5,228.8,122.3,229.6z
		 M164.8,221.9c10.8,4.2,22.1,7.5,33.5,9.8c9.5-4.5,18.5-9.8,26.7-16c4.6-3.5,9.1-7.3,13.2-11.3c-7.9,0.9-15.9,1.4-23.7,1.4
		c-3.5,0-7.1-0.1-10.8-0.3C191.5,212.3,178.4,217.8,164.8,221.9z M125,201c9.9,6.7,20.3,12.4,31.1,17.2c12.8-3.3,25.2-7.9,36.9-13.8
		c-13.4-1.5-26.5-4.5-38.9-8.8C144.6,198.2,134.8,200,125,201z M164.1,192.8c12.3,3.6,25.1,5.9,38.2,6.7c5.4-3.1,10.7-6.5,15.7-10.1
		c4.7-3.4,9.4-7.1,13.8-11c-9.7-0.3-19.5-1.2-29-2.6C190.6,182.9,177.7,188.6,164.1,192.8z M118,171.4c9.1,6,18.6,11,28.5,15.1
		c2.5,1.1,5.1,2.1,7.9,3.1c13.7-3.7,26.9-8.8,39.2-15.3c-11.5-2.1-23-5.1-34-8.9C145.9,168.9,132,170.9,118,171.4z M210.6,171.1
		c9,1,18.2,1.6,27.3,1.7c5.7-5.5,11.1-11.5,16.1-17.7c-6.7-0.2-13.5-0.8-20.2-1.6c-3.6,3.2-7.3,6.3-11.1,9.2
		C218.8,165.5,214.8,168.4,210.6,171.1z M169.6,162.6c10.5,3.1,21.2,5.6,32,7.2c6.1-3.6,12-7.6,17.6-11.9c2.4-1.8,4.8-3.7,7.1-5.7
		c-7.1-1.2-14.3-2.8-21.2-4.7c-7.1,3.9-14.6,7.4-22.1,10.3C178.6,159.6,174.1,161.2,169.6,162.6z M124.8,144
		c6.7,3.6,13.5,6.9,20.4,9.9c4.7,2,9.4,3.8,14.6,5.6c7.2-1.9,14.3-4.2,21.1-6.9c5.5-2.2,11-4.6,16.3-7.3c-4.1-1.3-8.1-2.7-12-4.3
		c-4.2-1.6-8.3-3.4-12.7-5.5c-4.7,1.4-9.3,2.7-13.9,3.7C147.5,141.7,136.2,143.3,124.8,144z M212.2,143.5c6.5,1.6,13.1,2.9,19.7,3.8
		c4.9-4.5,9.7-9.4,14.1-14.4c-2.5-0.4-4.7-0.8-6.8-1.3c-2.3-0.5-4.7-1-7.3-1.7C225.7,134.8,219,139.4,212.2,143.5z M180.6,132.8
		c2.3,1,4.5,1.9,6.6,2.8c5.5,2.1,11.2,4.1,17.1,5.8c7.1-4,14-8.5,20.6-13.4c-6.2-1.8-12.4-3.9-18.4-6.2
		C198.1,126,189.4,129.7,180.6,132.8z"/>
	<path class="st1" d="M268.2,107.3l-0.6,4.8c-3.5,5.5-7.6,11.4-12.4,17.4c3.4,0.5,6.7,0.8,9.9,1.1l-0.5,3.8c-3.9-0.3-8-0.8-12.2-1.4
		c-4.5,5.3-9.5,10.8-15.2,16.1c7.8,0.9,15.1,1.3,21.7,1.3c1.5-2.1,2.9-4.1,4.3-6.1l-1.3,9.9c-0.4,0-0.7,0-1.1,0
		c-4.9,6.5-10.5,13.1-17,19.6c5.5-0.1,10.7-0.3,15.5-0.7l-0.5,3.8c-5.8,0.4-12.1,0.7-18.9,0.7c-5.7,5.4-12,10.7-19.1,15.8
		c-3.8,2.7-7.6,5.2-11.4,7.6c1.7,0,3.4,0.1,5,0.1c11.3,0,21.7-1,30.7-2.4c5.1-5.6,9.4-11.2,12.9-16.5l-1.1,8.1
		c-1.8,2.4-3.7,4.9-5.9,7.4c1.7-0.3,3.4-0.7,5-1l-0.5,4c-2.7,0.6-5.5,1.1-8.5,1.6c-5.4,5.9-11.8,11.8-19.3,17.4
		c-7.6,5.7-15.3,10.4-23.1,14.4c10.7,1.8,20.9,2.6,30.1,2.8c7.6-6.6,13.7-12.9,18.3-18.1l-0.9,6.6c-3.3,3.6-7.2,7.5-11.7,11.5
		c3.5,0,6.9-0.1,10.2-0.3l-0.5,3.8c-3.5,0.2-7.2,0.3-11.1,0.3c-0.9,0-1.9,0-2.9,0c-9.2,7.8-20.5,15.9-33.9,23.1
		c7.4,0.9,14.5,1.3,21,1.3c4,0,7.8-0.1,11.4-0.4c5.3-4.3,9.9-8.4,13.8-12.1l-0.8,5.9c-2,1.8-4.1,3.7-6.4,5.7c2-0.2,3.9-0.4,5.7-0.7
		l-0.5,3.9c-3.2,0.4-6.6,0.8-10.4,1c-9.4,7.5-20.9,15.4-34.7,22.6c11.6,2.2,22.5,3.5,32.5,4c4-3.8,7.4-7.4,10.3-10.6l-0.9,6.6
		c-1.3,1.4-2.7,2.8-4.2,4.3c1.2,0,2.4,0.1,3.6,0.1l-0.5,3.8c-2.2-0.1-4.5-0.1-6.9-0.3c-6.9,6.3-15.4,13.1-25.6,19.3
		c7,0.6,13.8,0.9,20.2,0.9c2.3,0,4.5,0,6.7-0.1c1.2-1.5,2.4-3.1,3.5-4.5l-1.1,8.2c-0.2,0-0.3,0-0.5,0c-4.4,5.2-9.8,10.7-16.3,15.8
		c-3.3,2.5-6.6,4.8-9.9,6.8c2.5,0.2-0.1,0.4,2.2,0.5h-24.7c-9.2-1.9-18.9-4.4-28.8-8c-11.6,2.6-22.5,3.6-32.3,3.8l-0.5-3.8
		c8-0.1,16.8-0.8,26.2-2.5c-0.3-0.1-0.5-0.2-0.8-0.3c-10.3-4.2-19.5-8.9-27.6-13.7l-0.7-4.8c8.6,5.2,18.4,10.4,29.7,15
		c2.1,0.9,4.2,1.6,6.3,2.4c7.7-1.7,15.6-4.2,23.8-7.5c4.4-1.8,8.6-3.7,12.6-5.8c-1.5-0.2-3.1-0.4-4.7-0.7
		c-15.1-2.4-28.7-6.1-40.9-10.3c-9.6,2.3-18.7,3.9-27.1,4.8l-0.5-3.7c6.7-0.8,13.7-1.9,21.1-3.5c-8.5-3.3-16.2-6.8-23-10.2l-0.6-4.6
		c8.6,4.5,18.7,9.1,30.3,13.3c7.3-1.8,14.9-4.1,22.7-7c5.3-2,10.3-4.1,15.1-6.3c-11.4-2.7-23.4-6.5-35.6-11.5
		c-12.2,2.5-23.5,3.5-33.5,3.6l-0.5-3.8c8.4-0.1,17.7-0.8,27.7-2.5c-11.3-5-21.3-10.5-30.2-16.1l-0.7-4.9
		c10.1,6.5,21.8,13,35.2,18.7c0.8,0.3,1.6,0.6,2.3,1c4.6-1,9.2-2.1,14-3.6c7.5-2.2,14.5-4.9,21.1-7.8c-13.2-2.6-27.3-6.9-41.5-13.9
		c-0.3-0.2-0.6-0.3-0.9-0.5c-9.4,1.2-17.6,1.5-24.1,1.5c-2.5,0-4.8-0.1-6.8-0.1l-0.5-3.8c2.1,0.1,4.5,0.1,7.3,0.1h0
		c5,0,11.2-0.2,18.1-0.9c-10.7-5.9-19.8-12.4-27.4-18.9c-0.2,0-0.4,0-0.7,0l-0.9-6.4c0.9,0.8,1.9,1.7,2.9,2.5c9-0.3,21-1.4,34.7-4.4
		c-13-6.1-24.3-13.1-33.8-20c-2.4,0.2-4.7,0.3-6.8,0.3l-0.5-3.8c0.8,0,1.7-0.1,2.6-0.1c-1-0.8-1.9-1.5-2.9-2.3l-0.7-5.5
		c2.9,2.4,6.1,4.9,9.5,7.4c8.5-0.6,18.9-2,30.5-4.6c-1.1-0.4-2.2-0.9-3.3-1.3c-14.3-5.9-26.3-13.2-36.3-20.4c-1,0-1.9,0-2.9-0.1
		l-1-7.7c1.7,1.3,3.4,2.6,5.2,4c0.4,0,0.7,0,1.1,0c11.8,0,26.3-1.1,42.4-4.7c-3.2-1.2-6.5-2.5-9.7-3.9c-10.8-4.6-20.5-9.7-29.3-14.9
		c-0.6,0-1.2,0-1.8,0c-3.7,0-7.2-0.1-10.6-0.3l-0.5-3.8c2.2,0.1,4.4,0.2,6.7,0.3c-2.5-1.6-5-3.2-7.3-4.9l-0.7-5.1
		c4.7,3.3,9.7,6.7,15.2,10c12.6-0.2,26.9-1.5,42.5-5c3.4-0.8,6.8-1.7,10.1-2.6c-15.4-7.9-27.9-16.7-37.4-24.6h6
		c9.6,7.5,21.8,15.8,36.7,23c10.6-3.3,20.3-7.3,29-11.6c-8.7-3.7-16.1-7.6-22.2-11l0.2-0.4h6.9c5.6,3,12.1,6.2,19.5,9.2
		c5.8-3,11.1-6.1,15.9-9.2h6.9c-5.4,3.6-11.4,7.4-18.1,11c6.1,2.3,12.7,4.5,19.9,6.4c7.6-6.1,13.9-12,19-17.3h5.2
		c-5.1,5.5-11.6,11.9-19.6,18.5c1.6,0.4,3.2,0.7,4.8,1.1c3.6,0.8,7.1,1.4,10.5,1.9c6.1-7.5,11.2-14.8,15.3-21.5H268.2 M204.4,142.4
		c8.5-4.7,16-9.8,22.7-14.9c-7.5-2.1-14.3-4.4-20.6-6.9c-8.5,4.4-18.1,8.5-28.6,12c2.9,1.3,5.9,2.6,9,3.8
		C192.9,138.8,198.7,140.8,204.4,142.4 M232.2,148.4c5.9-5.3,11.1-10.8,15.7-16.2c-2.8-0.5-5.6-1-8.5-1.6c-2.6-0.6-5.2-1.2-7.7-1.8
		c-6.5,5.1-13.8,10.2-22.1,15C217.4,145.9,225,147.4,232.2,148.4 M159.7,160.5c6.9-1.8,14.1-4.1,21.5-7c6.6-2.6,12.8-5.5,18.6-8.5
		c-4.7-1.4-9.4-3.1-14.2-5c-4.5-1.8-8.8-3.7-12.9-5.6c-4.6,1.4-9.3,2.7-14.2,3.8c-13.4,3-25.8,4.5-37.1,5c7.2,4.1,15.1,8,23.6,11.6
		C149.8,156.9,154.8,158.8,159.7,160.5 M201.8,170.9c6-3.6,12-7.6,18-12.1c3.1-2.3,6-4.7,8.8-7.1c-7.5-1.2-15.5-2.8-23.6-5.1
		c-6.9,3.8-14.3,7.3-22.4,10.5c-5.6,2.2-11.1,4-16.4,5.6C178.5,166.5,190.5,169.1,201.8,170.9 M238.3,173.7
		c6.8-6.5,12.6-13.2,17.7-19.7c-7-0.1-14.5-0.7-22.6-1.7c-3.6,3.2-7.4,6.3-11.4,9.4c-4.8,3.6-9.6,6.9-14.4,9.9
		C218.6,173.1,228.9,173.7,238.3,173.7 M154.3,190.7c13.2-3.5,27.6-8.9,42.2-16.9c-11.8-2-24.2-5.1-37-9.4
		c-16.8,4.3-32.1,5.9-44.8,6.1c8.9,6.1,19.3,12,31.3,17C148.8,188.7,151.6,189.7,154.3,190.7 M202.5,200.6c5.3-3.1,10.7-6.5,16-10.3
		c5.7-4.1,10.9-8.4,15.8-12.8c-9.8-0.2-20.5-1-31.8-2.7c-14.4,8.3-28.6,14.1-41.8,18C175.3,197.4,189.4,199.7,202.5,200.6
		 M156,219.3c12.6-3.2,26.4-8.1,40.5-15.5c-13.4-1.3-27.7-4.1-42.3-9.2c-11.9,3.1-22.8,4.8-32,5.7C131.8,207,143.1,213.6,156,219.3
		 M240.9,203c-8,1.1-16.9,1.8-26.5,1.8c-3.6,0-7.3-0.1-11-0.3c-14.4,8.2-28.6,13.6-41.7,17.3c12.6,5.1,25,8.6,36.7,11
		c9.1-4.2,18.3-9.6,27.1-16.3C231.3,212.1,236.4,207.5,240.9,203 M148,247.1c13.2-1.7,28.6-5.2,44.4-11.8
		c-10.5-2.4-21.5-5.7-32.7-10.3c-1.4-0.6-2.7-1.1-4-1.7c-14,3.5-26.4,4.9-36.1,5.4C127.6,235.1,137,241.5,148,247.1 M195.8,262.5
		c13.7-6.7,25.2-14.6,34.7-22.3c-9.8-0.4-20.4-1.5-31.6-3.6c-15.7,7.2-31.1,11.2-44.8,13.4C168.5,256.6,182.6,260.4,195.8,262.5
		 M195.5,289.5c13.3-6.6,24.7-14,34-21.1c-2,0.1-4.1,0.1-6.2,0.1c-8.3,0-17.3-0.6-26.9-2c-8.1,3.9-16.9,7.4-26.5,10.3
		c-3,0.9-6,1.7-8.9,2.4C172.8,283.7,184.4,287.1,195.5,289.5 M203.3,317.3c10.6-6,19.5-12.6,26.7-19c-10.5-0.8-21.9-2.2-34-4.8
		c-6.2,3-12.7,5.9-19.7,8.5c-6,2.2-11.8,4.1-17.5,5.7c10.5,3.4,22.2,6.3,34.8,8.3C196.8,316.4,200.1,316.9,203.3,317.3 M205.8,344.3
		c4.7-2.5,9.4-5.5,14-9.1c5.3-4.1,9.8-8.4,13.5-12.7c-1.1,0-2.3,0-3.5,0h0c-8.1,0-16.7-0.4-25.7-1.4c-5.5,3-11.4,5.9-17.7,8.5
		c-6.3,2.6-12.6,4.6-18.6,6.2C181.2,340.2,194,342.8,205.8,344.3 M270.5,105.3h-2.3h-2.1h-1.1l-0.6,1c-4.4,7.1-9.2,14-14.4,20.4
		c-3.2-0.5-6.3-1.1-9.3-1.7c-0.3-0.1-0.6-0.1-0.9-0.2c5.9-5,11.5-10.4,16.7-16.1l3.1-3.4H255h-5.2h-0.9l-0.6,0.6
		c-5.6,5.9-11.7,11.4-18,16.5c-4.9-1.3-9.8-2.8-14.6-4.5c4.9-2.8,9.7-5.8,14.4-9l5.4-3.7H229h-6.9h-0.6l-0.5,0.3
		c-4.9,3.1-9.9,6-14.9,8.7c-6.3-2.6-12.5-5.5-18.5-8.7l-0.4-0.2h-0.5h-6.9h-1.2l-0.6,1l-0.2,0.4l-1,1.7l1.7,1
		c5.9,3.4,12.1,6.6,18.4,9.4c-7.8,3.6-15.9,6.8-24,9.3c-12.6-6.2-24.5-13.7-35.6-22.4l-0.5-0.4h-0.7h-6h-5.6l4.3,3.5
		c10.3,8.5,21.5,16.1,33.2,22.4c-1.7,0.4-3.4,0.8-5.1,1.2c-13.5,3.1-27.5,4.8-41.5,5c-4.9-3-9.8-6.2-14.6-9.6l-3.8-2.7l0.6,4.6
		l0.7,5.1l0.1,0.9l0.7,0.5c0.5,0.3,0.9,0.6,1.4,1l-1.9-0.1l0.3,2.4l0.5,3.8l0.2,1.6l1.7,0.1c3.7,0.2,7.2,0.3,10.7,0.3
		c0.3,0,0.7,0,1.1,0l0.2,0c9.4,5.6,19.1,10.5,29.1,14.7c1.1,0.5,2.3,0.9,3.5,1.4c-11.7,2.2-23.5,3.3-35.4,3.3c-0.2,0-0.3,0-0.4,0
		c-1.5-1.1-3-2.3-4.6-3.5l-3.9-3.1l0.7,4.9l1,7.7l0.2,1.7l1.7,0c0.7,0,1.5,0,2.3,0c10.5,7.6,21.8,14,33.6,19.2
		c-7.6,1.5-15.4,2.6-23.1,3.2c-2.9-2.2-5.8-4.4-8.8-6.9l-3.9-3.3l0.7,5.1l0.7,5.5l0.1,0.7l0.2,1.7l0.5,3.8l0.2,1.8l1.8-0.1
		c2-0.1,4.1-0.2,6.1-0.3c8.9,6.4,18.4,12.2,28.2,17.1c-9.2,1.7-18.6,2.8-27.8,3.1c-0.7-0.6-1.4-1.3-2.3-2l-4.1-3.7l0.7,5.4l0.9,6.4
		l0.2,1.8l1.7,0c6.7,5.7,14,10.8,21.5,15.4c-3.9,0.2-7.7,0.4-11.5,0.4c-2.5,0-4.9,0-7.2-0.1l-2.4-0.1l0.3,2.4l0.5,3.8l0,0.3l0.6,4.3
		l0.7,4.9l0.1,0.9l0.8,0.5c7.9,4.9,16,9.4,24.4,13.4c-6.9,0.9-13.8,1.4-20.8,1.5l-2.3,0l0.3,2.2l0.5,3.8l0.2,1.8l1.8,0
		c11.2-0.2,22.4-1.4,33.3-3.5c9.7,3.9,19.6,7.3,29.7,9.9c-3.2,1.4-6.4,2.7-9.7,3.9c-7.1,2.6-14.4,4.9-21.9,6.8
		c-10.1-3.6-20-8-29.5-13l-3.4-1.8l0.5,3.8l0.6,4.6l0.1,1l0.9,0.5c5.5,2.8,11.2,5.4,16.9,7.8c-4.8,0.9-9.6,1.6-14.4,2.1l-2,0.2
		l0.3,2l0.5,3.7l0.3,1.9l0,0.1l0.7,4.8l0.1,1l0.8,0.5c7.2,4.2,14.6,8.1,22.1,11.4c-6.2,0.8-12.6,1.3-18.9,1.4l-2.3,0l0.3,2.2
		l0.5,3.8l0.2,1.8l1.8,0c10.9-0.2,21.7-1.4,32.1-3.7c9.2,3.3,18.9,5.9,28.6,7.9l0.2,0h0.2h24.7l0-1.6c0.3-0.2,0.6-0.4,0.9-0.5
		c0,0.3-0.1,0.6-0.2,0.9c0.2-0.3,0.3-0.6,0.3-0.9c2.7-1.8,5.4-3.6,7.9-5.6c5.8-4.5,11.2-9.7,16.1-15.4l1.3-0.1l0.2-1.7l1.1-8.2
		l1.1-7.9l-4.7,6.4c-1,1.3-1.9,2.5-2.8,3.7c-1.9,0-3.9,0.1-5.8,0.1c-4.6,0-9.3-0.1-14-0.4c7.1-4.7,13.9-10,20.2-15.7
		c2,0.1,4.1,0.2,6.1,0.2l1.8,0l0.2-1.8l0.5-3.8l0.3-2.2l-1.2,0c0.3-0.3,0.7-0.7,1-1l0.4-0.5l0.1-0.6l0.9-6.6l0.9-6.5l-4.4,4.9
		c-3,3.4-6.2,6.7-9.5,9.9c-8.6-0.5-17.2-1.5-25.8-3c10.3-5.8,20.2-12.4,29.5-19.7c3.3-0.2,6.6-0.6,9.9-1l1.5-0.2l0.2-1.5l0.5-3.9
		l0.4-2.6l-1.9,0.2c0.5-0.5,1-0.9,1.6-1.4l0.5-0.5l0.1-0.7l0.8-5.9l0.8-5.7l-4.1,4c-4.2,4-8.6,7.9-13.2,11.6
		c-3.6,0.2-7.2,0.3-10.7,0.3c-4.8,0-9.7-0.2-14.5-0.6c9.9-5.7,19.3-12.3,28.1-19.7c0.7,0,1.4,0,2.1,0c3.7,0,7.4-0.1,11.2-0.3
		l1.7-0.1l0.2-1.6l0.5-3.8l0.3-2.4l-2.4,0.1c-1.6,0.1-3.3,0.2-4.9,0.2c2.7-2.6,5.3-5.3,8-8.1l0.4-0.5l0.1-0.6l0.9-6.6l0.9-6.6
		l-4.4,5c-5.4,6.2-11.3,12-17.5,17.4c-7.7-0.2-15.5-0.8-23.1-1.8c6.3-3.5,12.4-7.4,18-11.7c6.8-5.2,13.3-10.9,19.1-17.1
		c2.6-0.4,5.2-0.9,7.9-1.5l1.4-0.3l0.2-1.4l0.5-4l0.4-2.8l-2.3,0.5c0.8-1,1.6-2,2.4-3.1l0.3-0.4l0.1-0.5l1.1-8.1l1.2-8.6l0.1-0.4
		l0.3-2.4l-2.5,0.2c-3.5,0.3-7,0.5-10.5,0.6c4.7-4.9,9.1-10.1,13.2-15.5l0.1,0l1.7,0l0.2-1.7l1.3-9.9l1.1-8.1l0.3-1.9l0.5-3.8
		l0.3-2.1l-2.1-0.2c-2.2-0.2-4.3-0.4-6.3-0.6c3.6-4.7,7.1-9.7,10.3-14.7l0.2-0.4l0.1-0.4l0.6-4.8L270.5,105.3z M183.4,132.9
		c7.9-2.9,15.7-6.2,23.2-10c5.3,2.1,10.6,3.9,16.1,5.5c-5.9,4.3-12.1,8.3-18.5,11.9c-5.7-1.7-11.3-3.6-16.6-5.7
		C186.2,134.1,184.8,133.5,183.4,132.9z M214.8,143.1c6-3.7,11.8-7.8,17.4-12.1c2.5,0.6,4.7,1.1,6.9,1.6c1.6,0.3,3.3,0.7,5.1,1
		c-4,4.4-8.2,8.7-12.5,12.7C226,145.4,220.3,144.4,214.8,143.1z M241.6,147.4c4-4,7.9-8.1,11.5-12.4c3.7,0.5,7.4,0.9,11.2,1.2
		l1.7,0.1l-4.5,6.7c-1.3,2-2.5,3.6-3.7,5.2C252.5,148.2,247,147.9,241.6,147.4z M128.3,144.7c10.3-0.8,20.5-2.3,30.5-4.6
		c4.5-1,9.1-2.2,13.6-3.6c4.2,2,8.3,3.8,12.4,5.4c3.2,1.3,6.4,2.4,9.7,3.5c-4.6,2.3-9.3,4.3-14.1,6.2c-6.7,2.6-13.6,4.9-20.7,6.8
		c-5-1.7-9.6-3.5-14.2-5.5C139.8,150.4,134,147.7,128.3,144.7z M173,162.6c3.5-1.2,6.9-2.4,10.3-3.7c7.5-2.9,14.8-6.4,21.9-10.2
		c6.2,1.7,12.5,3.1,18.8,4.2c-1.8,1.5-3.6,2.9-5.4,4.3c-5.5,4.2-11.2,8.1-17.2,11.6C191.8,167.3,182.3,165.2,173,162.6z
		 M213.5,170.4c3.4-2.3,6.7-4.6,9.8-7c3.7-2.8,7.3-5.8,10.8-8.9c5.9,0.7,11.9,1.2,17.9,1.5c-4.5,5.5-9.3,10.8-14.5,15.8
		C229.5,171.6,221.4,171.2,213.5,170.4z M121.1,172.3c12.9-0.7,25.8-2.6,38.3-5.8c10.1,3.4,20.5,6.2,31.1,8.3
		c-11.4,5.8-23.5,10.4-36.1,13.8c-2.7-1-5.2-1.9-7.6-2.9C138,182,129.4,177.5,121.1,172.3z M167.6,192.8
		c12.3-4.1,24.2-9.5,35.4-15.9c8.7,1.3,17.5,2.1,26.3,2.4c-3.8,3.3-7.8,6.4-11.8,9.3c-4.9,3.5-10.1,6.9-15.3,9.9
		C190.3,197.7,178.8,195.8,167.6,192.8z M240.6,179.5c5.7,0,11.3-0.2,17.1-0.6l-1.3,2c-3.7,5.5-7.8,10.8-12.2,15.8
		c-9.3,1.4-18.7,2.2-28,2.3c2-1.3,3.9-2.7,5.8-4C228.4,190.2,234.7,185.1,240.6,179.5z M127.8,201.7c8.8-1.1,17.7-2.8,26.3-5
		c11.4,3.9,23.3,6.8,35.5,8.4c-10.6,5.1-21.8,9.1-33.4,12.1C146.4,212.8,136.9,207.6,127.8,201.7z M214.5,206.7
		c6.9,0,13.9-0.4,20.8-1.1c-3.5,3.2-7.2,6.3-11,9.2c-8,6.1-16.8,11.4-26.2,15.8c-10.3-2.1-20.4-5-30.2-8.6c12.6-4,24.7-9.2,36-15.5
		C207.5,206.6,211,206.7,214.5,206.7z M125,230.4c10.3-0.8,20.5-2.5,30.6-5l0.2,0.1c1.1,0.5,2.1,0.9,3.2,1.4
		c8.7,3.6,17.7,6.5,26.8,8.9c-11.8,4.4-24.3,7.5-37.4,9.2C140.2,240.8,132.3,235.9,125,230.4z M161,250.8
		c13.4-2.7,26.2-6.7,38.1-12.1c8.5,1.6,17.3,2.7,26,3.3c-9.3,7.1-19.3,13.3-29.6,18.5C183.6,258.5,172,255.3,161,250.8z
		 M123.3,254.5c7.9,0,15.8-0.5,23.7-1.5c0.1,0.1,0.3,0.1,0.4,0.2c11.3,5.6,23.3,9.8,35.8,12.7c-4.9,2-10,3.7-15,5.3
		c-4.3,1.3-8.8,2.4-13.2,3.4c-0.1-0.1-0.3-0.1-0.4-0.2c-0.4-0.2-0.9-0.4-1.3-0.6c-12.1-5.2-23.8-11.4-34.9-18.6l-1.5-0.9
		C118.9,254.4,121.1,254.5,123.3,254.5z M167.6,279.5c0.9-0.3,1.9-0.5,2.8-0.8c9-2.7,17.8-6.1,26.3-10.1c8.7,1.3,17.7,2,26.6,2
		c-8.9,6.3-18.3,12-28,16.9C185.8,285.3,176.6,282.7,167.6,279.5z M165.7,307.6c3.8-1.2,7.6-2.5,11.3-3.8c6.5-2.4,13-5.2,19.3-8.2
		c9.5,2,19.1,3.4,28.8,4.3c-7,5.8-14.4,10.9-22.1,15.3c-3-0.4-6.1-0.8-9.1-1.3C184.4,312.4,174.9,310.3,165.7,307.6z M128.3,315.8
		c7.9-1,15.9-2.5,23.6-4.4c12.7,4.4,25.8,7.8,39,9.9c-2.2,1-4.5,2-6.7,2.9c-7.4,3-15.1,5.4-22.9,7.2c-2.1-0.8-4-1.5-5.7-2.2
		C146.3,325.5,137.1,321,128.3,315.8z M174.7,335.9c4.2-1.3,8.4-2.8,12.4-4.4c5.9-2.4,11.8-5.2,17.4-8.3c8.1,0.9,16.2,1.3,24.2,1.4
		c-3.2,3.3-6.6,6.3-10.1,9.1c-4.1,3.2-8.5,6.1-13.1,8.6C195.1,340.9,184.8,338.8,174.7,335.9z"/>
	<path class="st0" d="M99.3,116.5c-3,0-5.6-2.3-6-5.2l-9.9-72.6c-0.2-1.7,0.3-3.5,1.4-4.8c1.2-1.3,2.8-2.1,4.6-2.1h186.2
		c1.8,0,3.4,0.8,4.6,2.1c1.2,1.3,1.7,3.1,1.4,4.8l-9.9,72.6c-0.4,3-3,5.2-6,5.2H99.3z"/>
	<path class="st1" d="M275.6,33c1.4,0,2.7,0.6,3.6,1.7c0.9,1,1.3,2.4,1.1,3.8l-9.9,72.6c-0.3,2.4-2.4,4.2-4.8,4.2H99.3
		c-2.4,0-4.4-1.8-4.8-4.2l-9.9-72.6c-0.2-1.4,0.2-2.8,1.1-3.8c0.9-1,2.2-1.7,3.6-1.7H275.6 M275.6,30.5H89.4c-4.4,0-7.9,3.9-7.3,8.3
		l9.9,72.6c0.5,3.6,3.6,6.3,7.3,6.3h166.3c3.7,0,6.8-2.7,7.2-6.3l9.9-72.6C283.5,34.4,280,30.5,275.6,30.5z"/>
	<path class="st0" d="M95.2,105.5c-15,0-27.7-10.8-30.1-25.6L54.5,15.8h256.1l-10.6,64.2c-2.4,14.8-15.1,25.6-30.1,25.6H95.2z"/>
	<path class="st1" d="M309.1,17l-10.4,62.7c-2.3,14.2-14.5,24.5-28.9,24.5H95.2c-14.4,0-26.6-10.3-28.9-24.5L55.9,17H309.1
		 M312,14.5H53l10.8,65.6c2.5,15.4,15.8,26.6,31.4,26.6h174.6c15.6,0,28.8-11.3,31.4-26.6L312,14.5z"/>
</g>
</svg>
