<?xml version="1.0" encoding="utf-8"?>
<!-- Generator: Adobe Illustrator 21.1.0, SVG Export Plug-In . SVG Version: 6.00 Build 0)  -->
<svg version="1.1" id="Layer_1" xmlns="http://www.w3.org/2000/svg" xmlns:xlink="http://www.w3.org/1999/xlink" x="0px" y="0px"
	 viewBox="0 0 275 349" style="enable-background:new 0 0 275 349;" xml:space="preserve">
<style type="text/css">
	.st0{fill:#FE9000;}
	.st1{fill:#FC4700;}
</style>
<g>
	<polygon class="st0" points="85.1,338.6 53,102.5 222,102.5 189.9,338.6 	"/>
	<path class="st1" d="M220.9,103.5l-31.8,234.2H85.9L54.1,103.5H220.9 M223.2,101.5H51.8l32.4,238.2h106.6L223.2,101.5z"/>
	<path class="st0" d="M215.8,148.2c0.4,0,0.7,0,1.1,0l1.3-9.9c-1.4,2-2.8,4-4.3,6.1c-6.7-0.1-14-0.4-21.7-1.3
		c5.7-5.3,10.7-10.8,15.2-16.1c4.2,0.6,8.3,1.1,12.2,1.4l0.5-3.8c-3.2-0.3-6.5-0.6-9.9-1.1c4.8-6,8.9-11.8,12.4-17.4l0.6-4.8h-2.1
		c-4.1,6.7-9.1,14-15.3,21.5c-3.4-0.5-7-1.2-10.5-1.9c-1.6-0.3-3.2-0.7-4.8-1.1c8-6.6,14.5-13,19.6-18.5h-5.2
		c-5.1,5.3-11.4,11.3-19,17.3c-7.2-1.9-13.8-4-19.9-6.4c6.7-3.6,12.7-7.4,18.1-11h-6.9c-4.8,3.1-10.1,6.2-15.9,9.2
		c-7.4-3-13.9-6.2-19.5-9.2h-6.9l-0.2,0.4c6,3.5,13.5,7.3,22.2,11c-8.7,4.3-18.3,8.2-29,11.6c-14.9-7.2-27.1-15.4-36.7-23h-6
		c9.5,7.8,21.9,16.7,37.4,24.6c-3.3,0.9-6.6,1.8-10.1,2.6c-15.5,3.5-29.9,4.9-42.5,5c-5.5-3.3-10.5-6.7-15.2-10l0.7,5.1
		c2.4,1.6,4.8,3.3,7.3,4.9c-2.3,0-4.5-0.1-6.7-0.3l0.5,3.8c3.4,0.2,6.9,0.3,10.6,0.3c0.6,0,1.2,0,1.8,0c8.8,5.2,18.5,10.3,29.3,14.9
		c3.3,1.4,6.5,2.6,9.7,3.9c-16.1,3.6-30.7,4.7-42.4,4.7c-0.4,0-0.7,0-1.1,0c-1.8-1.3-3.5-2.6-5.2-4l1,7.7c0.9,0,1.9,0,2.9,0.1
		c10,7.3,22.1,14.5,36.3,20.4c1.1,0.5,2.2,0.9,3.3,1.3c-11.5,2.7-21.9,4-30.5,4.6c-3.4-2.5-6.5-5-9.5-7.4l0.7,5.5
		c0.9,0.8,1.9,1.5,2.9,2.3c-0.9,0-1.7,0.1-2.6,0.1l0.5,3.8c2.1-0.1,4.3-0.2,6.8-0.3c9.5,6.9,20.7,13.8,33.8,19.9
		c-13.7,3-25.8,4.1-34.7,4.4c-1-0.9-1.9-1.7-2.9-2.5l0.9,6.4c0.2,0,0.4,0,0.7,0c7.6,6.5,16.7,13,27.4,18.9
		c-6.9,0.7-13.1,0.9-18.1,0.9c-2.8,0-5.2-0.1-7.3-0.1l0.5,3.8c2,0.1,4.2,0.1,6.8,0.1c6.5,0,14.7-0.3,24.1-1.5
		c0.3,0.2,0.6,0.3,0.9,0.5c14.3,7,28.3,11.3,41.5,13.9c-6.6,2.9-13.6,5.6-21.1,7.8c-4.8,1.4-9.5,2.6-14,3.6c-0.8-0.3-1.6-0.6-2.3-1
		c-13.4-5.7-25.1-12.2-35.2-18.7l0.7,4.9c8.9,5.6,19,11.1,30.2,16.1c-10,1.7-19.4,2.4-27.7,2.5l0.5,3.8c10-0.2,21.3-1.1,33.5-3.6
		c12.2,5,24.2,8.8,35.6,11.5c-4.8,2.2-9.8,4.3-15.1,6.3c-7.8,2.9-15.4,5.2-22.7,7c-11.6-4.1-21.7-8.8-30.3-13.3l0.6,4.6
		c6.8,3.5,14.5,7,23,10.2c-7.4,1.6-14.5,2.7-21.1,3.5l0.5,3.7c8.5-1,17.6-2.5,27.1-4.8c12.1,4.2,25.8,7.9,40.9,10.3
		c1.6,0.2,3.1,0.5,4.7,0.7c-4,2-8.2,4-12.6,5.8c-8.1,3.3-16.1,5.7-23.8,7.5c-2.1-0.8-4.2-1.6-6.3-2.4c-11.2-4.5-21.1-9.7-29.7-15
		l0.7,4.8c8.1,4.8,17.3,9.5,27.6,13.7c0.3,0.1,0.5,0.2,0.8,0.3c-9.4,1.7-18.2,2.4-26.2,2.5l0.5,3.8c9.8-0.2,20.7-1.2,32.3-3.8
		c10,3.6,19.6,6.2,28.8,8l24.1-0.1c-2.4-0.1,0.6,0.1-1.9-0.1c3.3-2,6.9-4.6,10.2-7.1c6.6-5.1,12-10.5,16.3-15.8c0.2,0,0.3,0,0.5,0
		l1.1-8.2c-1.1,1.5-2.2,3-3.5,4.5c-2.2,0.1-4.4,0.1-6.7,0.1c-6.4,0-13.1-0.3-20.2-0.9c10.2-6.2,18.7-13,25.6-19.3
		c2.3,0.1,4.6,0.2,6.9,0.3l0.5-3.8c-1.2,0-2.4-0.1-3.6-0.1c1.5-1.5,2.9-2.9,4.2-4.3l0.9-6.6c-2.9,3.2-6.3,6.8-10.3,10.6
		c-9.9-0.6-20.9-1.8-32.5-4c13.8-7.2,25.3-15.2,34.7-22.6c3.7-0.3,7.2-0.6,10.4-1l0.5-3.9c-1.8,0.2-3.7,0.5-5.7,0.7
		c2.3-1.9,4.4-3.8,6.4-5.7l0.8-5.9c-3.9,3.7-8.5,7.8-13.8,12.1c-3.6,0.2-7.4,0.4-11.4,0.4c-6.5,0-13.6-0.4-21-1.3
		c13.5-7.1,24.8-15.2,33.9-23.1c1,0,1.9,0,2.9,0c3.9,0,7.6-0.1,11.1-0.3l0.5-3.8c-3.2,0.2-6.6,0.3-10.2,0.3c4.5-4.1,8.4-8,11.7-11.5
		l0.9-6.6c-4.6,5.2-10.7,11.5-18.3,18.1c-9.3-0.2-19.4-1-30.1-2.8c7.8-3.9,15.5-8.7,23.1-14.4c7.5-5.6,13.8-11.5,19.3-17.4
		c3-0.5,5.8-1,8.5-1.6l0.5-4c-1.6,0.3-3.3,0.7-5,1c2.1-2.5,4.1-5,5.9-7.4l1.1-8.1c-3.5,5.3-7.8,10.9-12.9,16.5
		c-9,1.4-19.4,2.4-30.7,2.4c-1.7,0-3.3,0-5-0.1c3.8-2.3,7.6-4.8,11.4-7.6c7-5.1,13.3-10.4,19.1-15.8c6.8,0,13.1-0.3,18.9-0.7
		l0.5-3.8c-4.8,0.4-10,0.6-15.5,0.7C205.2,161.3,210.9,154.7,215.8,148.2z M186.7,122.9c2.5,0.6,5.1,1.2,7.7,1.8
		c2.9,0.6,5.7,1.1,8.5,1.6c-4.6,5.4-9.9,10.8-15.7,16.2c-7.2-1-14.8-2.5-22.7-4.5C172.9,133.1,180.2,128,186.7,122.9z M183.6,145.8
		c-2.8,2.4-5.7,4.8-8.8,7.1c-6,4.5-12,8.6-18,12.1c-11.3-1.7-23.3-4.4-35.6-8.3c5.4-1.6,10.8-3.4,16.4-5.6c8-3.2,15.5-6.7,22.4-10.5
		C168.1,142.9,176,144.6,183.6,145.8z M161.5,114.8c6.3,2.5,13.2,4.9,20.6,6.9c-6.7,5.1-14.2,10.1-22.7,14.9
		c-5.7-1.7-11.6-3.6-17.5-5.9c-3.1-1.2-6.1-2.5-9-3.8C143.4,123.3,152.9,119.2,161.5,114.8z M99.8,148.9
		c-8.5-3.6-16.4-7.5-23.6-11.6c11.3-0.5,23.8-1.9,37.1-5c4.9-1.1,9.7-2.4,14.2-3.8c4.1,2,8.4,3.9,12.9,5.6c4.8,1.9,9.6,3.5,14.2,5
		c-5.8,3-12,5.9-18.6,8.5c-7.4,2.9-14.5,5.2-21.5,7C109.8,152.9,104.8,151,99.8,148.9z M101.1,181.6c-12-5-22.4-10.9-31.3-17
		c12.6-0.3,27.9-1.8,44.8-6.1c12.8,4.4,25.2,7.4,37,9.4c-14.6,8-29,13.3-42.2,16.9C106.6,183.8,103.8,182.8,101.1,181.6z
		 M77.2,194.4c9.2-0.9,20.1-2.6,32-5.7c14.7,5.1,28.9,7.9,42.3,9.2c-14.1,7.4-27.9,12.3-40.5,15.5C98.1,207.7,86.8,201.1,77.2,194.4
		z M103,241.2c-11-5.6-20.4-11.9-28.4-18.3c9.7-0.5,22.1-2,36.1-5.4c1.3,0.6,2.6,1.2,4,1.7c11.2,4.6,22.2,7.9,32.7,10.3
		C131.7,236,116.3,239.4,103,241.2z M184.9,316.7c1.2,0,2.3,0,3.5,0c-3.8,4.2-8.3,8.6-13.5,12.7c-4.6,3.6-9.3,6.6-14,9.1
		c-11.8-1.5-24.6-4.1-38.1-8.5c6.1-1.6,12.3-3.6,18.6-6.2c6.4-2.6,12.3-5.4,17.7-8.5C168.2,316.3,176.8,316.7,184.9,316.7z
		 M185,292.4c-7.2,6.4-16.1,13-26.7,19c-3.2-0.4-6.5-0.8-9.8-1.3c-12.6-2-24.3-4.9-34.8-8.3c5.7-1.6,11.6-3.5,17.5-5.7
		c7-2.6,13.5-5.5,19.7-8.5C163.1,290.1,174.5,291.6,185,292.4z M178.3,262.6c2.1,0,4.2,0,6.2-0.1c-9.4,7.1-20.7,14.5-34,21.1
		c-11.1-2.4-22.6-5.8-34.6-10.3c2.9-0.7,5.9-1.5,8.9-2.4c9.6-2.9,18.4-6.4,26.5-10.3C160.9,262.1,170,262.6,178.3,262.6z
		 M185.5,234.4c-9.5,7.7-21,15.6-34.7,22.3c-13.1-2.1-27.2-6-41.6-12.5c13.6-2.2,29.1-6.2,44.8-13.4
		C165.1,232.9,175.7,234,185.5,234.4z M169.5,198.9c9.6,0,18.5-0.7,26.5-1.8c-4.5,4.6-9.6,9.1-15.4,13.5c-8.9,6.7-18,12-27.1,16.3
		c-11.7-2.3-24-5.8-36.7-11c13.1-3.7,27.3-9.2,41.7-17.3C162.2,198.7,165.9,198.9,169.5,198.9z M173.6,184.4
		c-5.3,3.9-10.7,7.3-16,10.3c-13.1-0.8-27.3-3.2-41.8-7.7c13.2-3.9,27.5-9.7,41.8-18c11.3,1.7,22,2.5,31.8,2.7
		C184.5,176,179.3,180.2,173.6,184.4z M193.3,167.8c-9.4-0.1-19.7-0.6-30.6-2c4.8-3,9.6-6.3,14.4-9.9c4-3.1,7.8-6.2,11.4-9.4
		c8,1.1,15.6,1.6,22.6,1.7C206,154.7,200.1,161.3,193.3,167.8z"/>
	<path class="st1" d="M166.8,339.7l1-0.1c3.3-2,6.7-4.3,9.9-6.8c6.6-5.2,12.1-10.6,16.5-15.9l-0.6-0.5v0.7c0.2,0,0.4,0,0.5,0h0.6
		l1.6-11.8l-1.8,2.4c-1.1,1.5-2.2,3-3.5,4.5l0.6,0.5V312c-2.2,0.1-4.4,0.1-6.7,0.1c-6.4,0-13.1-0.3-20.1-0.9l-0.1,0.7l0.4,0.6
		c10.3-6.3,18.8-13,25.7-19.4l-0.5-0.6v0.7c2.4,0.1,4.7,0.2,6.9,0.3h0.7l0.7-5.3h-0.8c-1.2,0-2.4-0.1-3.6-0.1v0.7l0.5,0.5
		c1.5-1.5,2.9-2.9,4.2-4.3l0.2-0.2l1.3-9.3l-1.6,1.8c-2.8,3.2-6.2,6.8-10.2,10.6l0.5,0.5v-0.7c-9.9-0.6-20.8-1.8-32.4-4l-0.1,0.7
		l0.3,0.7c13.8-7.2,25.4-15.2,34.8-22.7l-0.5-0.6l0.1,0.7c3.7-0.3,7.2-0.6,10.4-1l0.6-0.1l0.7-5.4l-1,0.1c-1.8,0.2-3.7,0.5-5.7,0.7
		l0.1,0.7l0.5,0.6c2.3-1.9,4.4-3.8,6.4-5.7l0.2-0.2l1.1-8.3l-1.6,1.5c-3.9,3.7-8.4,7.8-13.8,12.1l0.5,0.6v-0.7
		c-3.6,0.2-7.4,0.4-11.4,0.4c-6.5,0-13.5-0.4-20.9-1.3l-0.1,0.7l0.4,0.7c13.5-7.1,24.9-15.3,34.1-23.2l-0.5-0.6v0.7c1,0,1.9,0,2.9,0
		c3.9,0,7.6-0.1,11.1-0.3h0.6l0.7-5.3h-0.9c-3.2,0.2-6.6,0.3-10.1,0.3v0.7l0.5,0.6c4.5-4.1,8.4-8,11.8-11.6l0.2-0.2l1.3-9.3
		l-1.6,1.9c-4.6,5.2-10.6,11.5-18.2,18.1l0.5,0.6v-0.7c-9.2-0.2-19.3-1-30-2.8l-0.1,0.7l0.3,0.7c7.8-4,15.6-8.7,23.2-14.4
		c7.5-5.7,13.9-11.6,19.4-17.5l-0.6-0.5l0.1,0.7c3-0.5,5.8-1,8.5-1.6l0.5-0.1l0.8-5.6l-1,0.2c-1.6,0.3-3.3,0.7-5,1l0.1,0.7l0.6,0.5
		c2.1-2.5,4.1-5,5.9-7.4l0.1-0.2l1.6-11.5l-1.8,2.7c-3.5,5.2-7.7,10.8-12.8,16.4l0.6,0.5l-0.1-0.7c-9,1.4-19.3,2.4-30.6,2.4
		c-1.6,0-3.3,0-5-0.1v0.7l0.4,0.6c3.8-2.3,7.6-4.9,11.4-7.6c7-5.1,13.4-10.4,19.1-15.8l-0.5-0.5v0.7c6.8,0,13.2-0.3,19-0.7h0.6
		l0.7-5.3l-0.9,0.1c-4.8,0.4-10,0.6-15.5,0.7v0.7l0.5,0.5c6.5-6.5,12.2-13.2,17.1-19.7l-0.9,0.1v0.7v-0.7l-0.6-0.5
		c-4.9,6.4-10.5,13-16.9,19.5l-1.3,1.3h1.8c5.5-0.1,10.8-0.3,15.6-0.7l-0.1-0.7l-0.7-0.1l-0.5,3.8l0.7,0.1l-0.1-0.7
		c-5.8,0.4-12.1,0.7-18.9,0.7h-0.3l-0.2,0.2c-5.7,5.4-12,10.7-19,15.7c-3.8,2.7-7.5,5.2-11.3,7.5l-2.1,1.3l2.5,0.1
		c1.7,0,3.4,0.1,5.1,0.1c11.3,0,21.7-1,30.8-2.4h0.3l0.2-0.2c5.2-5.7,9.4-11.3,13-16.6l-0.6-0.4l-0.7-0.1l-1.1,8.1l0.7,0.1l-0.6-0.4
		c-1.8,2.4-3.7,4.9-5.8,7.3l-1.4,1.6l2.1-0.4c1.7-0.3,3.4-0.7,5-1l-0.2-0.7l-0.7-0.1l-0.5,4l0.7,0.1l-0.2-0.7
		c-2.7,0.6-5.5,1.1-8.5,1.6h-0.3l-0.2,0.2c-5.4,5.8-11.7,11.7-19.2,17.3c-7.5,5.7-15.3,10.4-23,14.3l-2,1l2.3,0.4
		c10.8,1.8,20.9,2.6,30.2,2.8h0.3l0.2-0.2c7.6-6.6,13.7-13,18.4-18.2l-0.6-0.5l-0.7-0.1l-0.9,6.6l0.7,0.1l-0.5-0.5
		c-3.3,3.6-7.2,7.4-11.7,11.5l-1.5,1.3h2c3.6,0,7-0.1,10.2-0.3v-0.7l-0.7-0.1l-0.5,3.8l0.7,0.1v-0.7c-3.5,0.2-7.2,0.3-11.1,0.3
		c-0.9,0-1.9,0-2.8,0H191l-0.2,0.2c-9.1,7.8-20.4,15.9-33.8,23l-2.1,1.1l2.4,0.3c7.5,0.9,14.6,1.3,21.1,1.3c4,0,7.9-0.1,11.5-0.4
		h0.2l0.2-0.1c5.3-4.3,10-8.4,13.9-12.2l-0.5-0.5l-0.7-0.1l-0.8,5.9l0.7,0.1l-0.5-0.6c-2,1.8-4.1,3.7-6.4,5.6l-1.8,1.6l2.4-0.2
		c2-0.2,3.9-0.4,5.8-0.7l-0.1-0.7l-0.7-0.1l-0.5,3.9l0.7,0.1l-0.1-0.7c-3.2,0.4-6.6,0.8-10.3,1h-0.2l-0.2,0.1
		c-9.4,7.4-20.9,15.4-34.6,22.6l-1.9,1l2.1,0.4c11.6,2.2,22.6,3.5,32.6,4.1h0.3l0.2-0.2c4-3.8,7.5-7.4,10.3-10.7l-0.6-0.5l-0.7-0.1
		l-0.9,6.6l0.7,0.1l-0.5-0.5c-1.3,1.4-2.7,2.8-4.2,4.3l-1.2,1.2l1.7,0.1c1.2,0,2.4,0.1,3.6,0.1v-0.7l-0.7-0.1l-0.5,3.8l0.7,0.1v-0.7
		c-2.2-0.1-4.5-0.1-6.9-0.3h-0.3l-0.2,0.2c-6.8,6.3-15.3,13-25.5,19.2l-2,1.2l2.3,0.2c7.1,0.6,13.8,0.9,20.2,0.9
		c2.3,0,4.6,0,6.8-0.1h0.3l0.2-0.3c1.3-1.6,2.4-3.1,3.5-4.6l-0.6-0.4l-0.7-0.1l-1.1,8.2l0.7,0.1v-0.7c-0.2,0-0.4,0-0.5,0h-0.3
		l-0.2,0.3c-4.4,5.2-9.7,10.6-16.2,15.7c-3.2,2.5-6.5,4.8-9.8,6.8l-1.9,1.2 M169.7,340.3l1-0.8H145v0.8l0.1-0.7
		c-9.2-1.8-18.8-4.4-28.7-8l-0.2-0.1H116c-11.6,2.6-22.4,3.6-32.2,3.8v0.7l0.7-0.1l-0.5-3.8l-0.7,0.1v0.7c8-0.1,16.9-0.8,26.3-2.5
		l2.6-0.5l-2.4-1c-0.3-0.1-0.6-0.2-0.8-0.3l0,0c-10.3-4.1-19.4-8.8-27.5-13.6l-0.4,0.6l0.7-0.1l-0.7-4.8l-0.7,0.1l-0.4,0.6
		c8.6,5.3,18.5,10.5,29.8,15c2.1,0.9,4.2,1.7,6.3,2.4l0.2,0.1h0.2c7.7-1.8,15.7-4.2,23.9-7.5c4.5-1.8,8.7-3.8,12.7-5.8l2.1-1.1
		l-2.4-0.3c-1.5-0.2-3.1-0.4-4.6-0.7c-15-2.4-28.7-6.1-40.7-10.3l-0.2-0.1l-0.2,0.1c-9.5,2.3-18.6,3.9-27,4.8l0.1,0.7l0.7-0.1
		l-0.5-3.7l-0.7,0.1l0.1,0.7c6.7-0.8,13.8-1.9,21.2-3.5l2.5-0.5l-2.4-0.9c-8.5-3.3-16.2-6.8-22.9-10.2l-0.3,0.7l0.7-0.1l-0.6-4.6
		l-0.7,0.1l-0.3,0.7c8.6,4.5,18.8,9.2,30.4,13.3l0.2,0.1l0.2-0.1c7.3-1.8,15-4.1,22.8-7c5.3-2,10.3-4.1,15.1-6.3l2-0.9l-2.1-0.5
		c-11.4-2.7-23.3-6.4-35.5-11.5l-0.2-0.1h-0.2c-12.2,2.5-23.4,3.5-33.4,3.6v0.7l0.7-0.1l-0.5-3.8l-0.7,0.1v0.7
		c8.4-0.1,17.8-0.8,27.8-2.5l2.4-0.4l-2.3-1c-11.2-5-21.3-10.5-30.1-16l-0.4,0.6l0.7-0.1l-0.7-4.9l-0.7,0.1l-0.4,0.6
		c10.1,6.5,21.9,13,35.3,18.8c0.8,0.3,1.6,0.6,2.4,1l0.2,0.1h0.2c4.6-1,9.3-2.1,14.1-3.6c7.5-2.2,14.6-4.9,21.2-7.8l2.2-1l-2.3-0.5
		c-13.1-2.5-27.1-6.9-41.3-13.8c-0.3-0.1-0.6-0.3-0.9-0.5l-0.2-0.1h-0.2c-9.3,1.2-17.5,1.5-24,1.5c-2.5,0-4.8-0.1-6.7-0.1v0.7
		l0.7-0.1l-0.5-3.8l-0.7,0.1v0.7c2.1,0.1,4.5,0.1,7.3,0.1l0,0l0,0c5.1,0,11.2-0.2,18.1-0.9l2.4-0.2l-2.1-1.2
		c-10.6-5.8-19.7-12.3-27.3-18.8l-0.2-0.2h-0.3c-0.2,0-0.4,0-0.7,0v0.7l0.7-0.1l-0.9-6.4l-0.7,0.1l-0.5,0.6c0.9,0.8,1.9,1.7,2.9,2.6
		l0.2,0.2h0.3c9-0.3,21.1-1.4,34.8-4.4l2.2-0.5l-2-0.9c-13-6.1-24.2-13-33.6-19.9l-0.2-0.2h-0.3c-2.4,0.2-4.7,0.3-6.7,0.3v0.7
		l0.7-0.1l-0.5-3.8l-0.7,0.1v0.7c0.8,0,1.7-0.1,2.6-0.1l2.1-0.1l-1.6-1.3c-1-0.8-1.9-1.5-2.9-2.3l-0.5,0.6l0.7-0.1l-0.7-5.5
		l-0.7,0.1L63,184c2.9,2.4,6.1,4.9,9.5,7.4l0.2,0.2H73c8.5-0.6,19-2,30.6-4.6l2.4-0.5l-2.2-0.9c-1.1-0.4-2.2-0.9-3.3-1.3
		c-14.2-5.9-26.2-13.1-36.2-20.4l-0.2-0.1h-0.2c-1,0-1.9,0-2.9-0.1v0.7l0.7-0.1l-1-7.7l-0.7,0.1l-0.5,0.6c1.7,1.3,3.4,2.6,5.2,4
		l0.2,0.1h0.2c0.4,0,0.7,0,1.1,0c11.8,0,26.4-1.1,42.6-4.7l2.5-0.6l-2.4-0.9c-3.2-1.2-6.5-2.5-9.7-3.8c-10.8-4.6-20.5-9.6-29.2-14.9
		l-0.2-0.1h-0.2c-0.6,0-1.2,0-1.7,0c-3.7,0-7.2-0.1-10.6-0.3v0.7l0.7-0.1l-0.5-3.8l-0.7,0.1v0.7c2.2,0.1,4.4,0.2,6.7,0.3l2.7,0.1
		l-2.3-1.4c-2.5-1.6-5-3.2-7.3-4.9l-0.4,0.6l0.7-0.1l-0.7-5.1l-0.7,0.1l-0.4,0.6c4.7,3.3,9.8,6.7,15.3,10l0.2,0.1h0.2
		c12.6-0.2,27-1.5,42.6-5.1c3.5-0.8,6.8-1.7,10.1-2.6l1.8-0.5l-1.7-0.9c-15.4-7.9-27.8-16.7-37.2-24.5l-0.5,0.6v0.7h6V101l-0.5,0.6
		c9.6,7.6,21.8,15.8,36.8,23.1l0.3,0.1l0.3-0.1c10.7-3.3,20.4-7.3,29.1-11.6l1.5-0.7l-1.5-0.6c-8.7-3.7-16.1-7.5-22.1-11l-0.4,0.6
		l0.6,0.4l0,0h6.4v-0.7l-0.4,0.7c5.6,3,12.2,6.2,19.6,9.2l0.3,0.1l0.3-0.2c5.8-3,11.1-6.1,15.9-9.2l-0.4-0.6v0.7h6.9v-0.7l-0.4-0.6
		c-5.3,3.6-11.4,7.3-18.1,11l-1.4,0.8l1.5,0.6c6.1,2.3,12.8,4.5,20,6.4l0.4,0.1l0.3-0.2c7.6-6.1,13.9-12.1,19.1-17.4l-0.5-0.5v0.7
		h5.2v-0.7l-0.6-0.5c-5.1,5.5-11.6,11.9-19.5,18.4l-1.2,1l1.5,0.3c1.6,0.4,3.2,0.7,4.8,1.1c3.6,0.8,7.1,1.4,10.6,1.9l0.4,0.1
		l0.3-0.3c6.2-7.5,11.2-14.8,15.3-21.6l-0.6-0.4v0.7h1.3l-0.5,3.9l0.7,0.1l-0.6-0.4c-3.5,5.5-7.6,11.3-12.4,17.3l-0.8,1l1.3,0.2
		c3.4,0.5,6.7,0.8,9.9,1.1l0.1-0.7l-0.7-0.1l-0.5,3.8l0.7,0.1l0.1-0.7c-3.9-0.3-8-0.8-12.2-1.4l-0.4-0.1l-0.3,0.3
		c-4.5,5.3-9.5,10.7-15.1,16l-1.2,1.1l1.6,0.2c7.8,0.9,15.1,1.3,21.8,1.3h0.4l0.2-0.3c1.5-2.1,3-4.1,4.3-6.1l-0.6-0.4l-0.7-0.1
		l-1.3,9.9l0.7,0.1v-0.8c-0.4,0-0.7,0-1.1,0H216l-0.2,0.3l0,0.6v0.7c0.4,0,0.7,0,1.1,0h0.7l1.9-13.7l-1.8,2.6c-1.4,2-2.8,4-4.3,6.1
		l0.6,0.4v-0.7c-6.6-0.1-13.9-0.4-21.7-1.3l-0.1,0.7l0.5,0.5c5.7-5.4,10.7-10.8,15.2-16.2l-0.6-0.5l-0.1,0.7
		c4.2,0.6,8.3,1.1,12.3,1.4l0.7,0.1l0.7-5.2l-0.8-0.1c-3.2-0.3-6.5-0.6-9.9-1.1l-0.1,0.7l0.6,0.5c4.8-6,8.9-11.9,12.5-17.4l0.1-0.1
		l0.8-5.8h-3.4l-0.2,0.4c-4.1,6.7-9.1,14-15.2,21.4l0.6,0.5l0.1-0.7c-3.4-0.5-6.9-1.2-10.5-1.9c-1.6-0.3-3.2-0.7-4.8-1.1l-0.2,0.7
		l0.5,0.6c8-6.6,14.5-13,19.7-18.6l1.2-1.3h-7.2l-0.2,0.2c-5.1,5.3-11.4,11.2-18.9,17.3l0.5,0.6l0.2-0.7c-7.1-1.9-13.7-4-19.8-6.3
		l-0.3,0.7l0.4,0.7c6.7-3.6,12.8-7.4,18.2-11l2-1.4h-9.5l-0.2,0.1c-4.8,3.1-10.1,6.2-15.8,9.1l0.3,0.7l0.3-0.7
		c-7.4-3-13.9-6.2-19.5-9.1l-0.2-0.1h-7.5l-0.4,0.8l-0.4,0.6l0.6,0.4c6.1,3.5,13.5,7.4,22.3,11.1l0.3-0.7l-0.3-0.7
		c-8.6,4.2-18.3,8.2-28.9,11.5l0.2,0.7l0.3-0.7c-14.8-7.2-27-15.4-36.5-22.9l-0.2-0.2h-8.4l1.6,1.3c9.5,7.9,22,16.7,37.5,24.7
		l0.3-0.7l-0.2-0.7c-3.3,0.9-6.6,1.8-10,2.6c-15.5,3.5-29.8,4.9-42.3,5v0.7l0.4-0.6c-5.5-3.3-10.5-6.6-15.2-10l-1.4-1l1,7.2l0.3,0.2
		c2.4,1.6,4.8,3.3,7.3,4.9l0.4-0.6v-0.7c-2.3,0-4.5-0.1-6.7-0.3h-0.9l0.7,5.3h0.6c3.4,0.2,6.9,0.3,10.6,0.3c0.6,0,1.2,0,1.8,0v-0.7
		l-0.4,0.6c8.8,5.3,18.6,10.4,29.4,15c3.3,1.4,6.5,2.7,9.8,3.9l0.3-0.7l-0.2-0.7c-16.1,3.6-30.6,4.7-42.3,4.7c-0.4,0-0.7,0-1.1,0
		v0.8l0.4-0.6c-1.8-1.3-3.5-2.6-5.1-3.9l-1.5-1.2l1.4,10.1h0.6c0.9,0,1.9,0,2.9,0.1v-0.7l-0.4,0.6c10,7.3,22.1,14.6,36.5,20.5
		c1.1,0.5,2.2,0.9,3.3,1.3l0.3-0.7l-0.2-0.7c-11.5,2.7-21.9,4-30.3,4.6l0.1,0.7l0.4-0.6c-3.4-2.5-6.5-5-9.4-7.4l-1.5-1.2l1,7.7
		l0.2,0.2c0.9,0.8,1.9,1.5,2.9,2.3l0.5-0.6v-0.7c-0.9,0-1.7,0.1-2.6,0.1h-0.8l0.7,5.3h0.7c2.1-0.1,4.4-0.2,6.8-0.3v-0.7l-0.4,0.6
		c9.5,6.9,20.8,13.9,33.9,20l0.3-0.7l-0.2-0.7c-13.7,3-25.7,4.1-34.6,4.4v0.7l0.5-0.6c-1-0.8-1.9-1.7-2.9-2.5l-1.5-1.4l1.2,9.1h0.7
		c0.2,0,0.4,0,0.7,0v-0.7l-0.5,0.6c7.7,6.5,16.8,13,27.5,18.9l0.4-0.7l-0.1-0.7c-6.9,0.7-13,0.9-18,0.9l0,0l0,0
		c-2.8,0-5.2-0.1-7.2-0.1h-0.9l0.7,5.3h0.6c2,0.1,4.2,0.1,6.8,0.1c6.5,0,14.8-0.3,24.2-1.5l-0.1-0.7l-0.3,0.7
		c0.3,0.1,0.6,0.3,0.9,0.5c14.3,7,28.5,11.4,41.7,14l0.1-0.7l-0.3-0.7c-6.5,2.9-13.5,5.5-21,7.8c-4.8,1.4-9.4,2.6-13.9,3.5l0.2,0.7
		l0.3-0.7c-0.8-0.3-1.6-0.6-2.3-1c-13.3-5.7-25-12.2-35.1-18.7l-1.4-0.9l0.9,6.9l0.3,0.2c8.9,5.6,19,11.1,30.3,16.1l0.3-0.7
		l-0.1-0.7c-10,1.7-19.3,2.4-27.6,2.5h-0.8l0.7,5.3h0.7c10-0.2,21.4-1.1,33.6-3.6l-0.1-0.7l-0.3,0.7c12.3,5,24.3,8.8,35.7,11.5
		l0.2-0.7l-0.3-0.7c-4.8,2.2-9.8,4.3-15,6.2c-7.8,2.9-15.3,5.2-22.6,7l0.2,0.7l0.3-0.7c-11.6-4.1-21.7-8.7-30.2-13.2l-1.3-0.7
		l0.9,6.4l0.3,0.2c6.8,3.5,14.5,7,23.1,10.3l0.3-0.7l-0.2-0.7c-7.4,1.6-14.4,2.7-21.1,3.5l-0.8,0.1l0.7,5.2L80,309
		c8.5-1,17.6-2.5,27.2-4.9l-0.2-0.7l-0.2,0.7c12.2,4.3,25.9,8,41,10.4c1.6,0.3,3.1,0.5,4.7,0.7l0.1-0.7l-0.3-0.7
		c-4,2-8.2,4-12.6,5.7c-8.1,3.3-16,5.7-23.7,7.4l0.2,0.7l0.3-0.7c-2.1-0.8-4.2-1.6-6.3-2.4c-11.2-4.5-21-9.7-29.5-14.9l-1.3-0.8
		l0.9,6.7l0.3,0.2c8.1,4.8,17.3,9.5,27.7,13.7l0,0c0.3,0.1,0.6,0.2,0.8,0.3l0.3-0.7l-0.1-0.7c-9.3,1.7-18.1,2.4-26,2.5h-0.8l0.7,5.3
		h0.7c9.8-0.2,20.8-1.2,32.5-3.8l-0.2-0.7l-0.3,0.7c10,3.6,19.7,6.2,28.9,8h0.1H169.7l1-1.5 M186.7,122.9l-0.2,0.7
		c2.5,0.6,5.1,1.3,7.8,1.8c2.9,0.6,5.7,1.1,8.5,1.6l0.1-0.7l-0.6-0.5c-4.6,5.4-9.8,10.8-15.6,16.1l0.5,0.6l0.1-0.7
		c-7.2-1-14.7-2.5-22.6-4.5l-0.2,0.7l0.4,0.6c8.3-4.9,15.7-10,22.2-15.1L186.7,122.9l-0.2,0.7L186.7,122.9l-0.5-0.6
		c-6.5,5.1-13.8,10.2-22,15l-1.6,0.9l1.8,0.5c7.9,2,15.5,3.5,22.7,4.5h0.3l0.3-0.2c5.9-5.4,11.1-10.8,15.8-16.2l0.9-1l-1.3-0.2
		c-2.8-0.5-5.6-1-8.5-1.6c-2.6-0.6-5.2-1.2-7.7-1.8l-0.4-0.1l-0.3,0.2L186.7,122.9z M183.6,145.8l-0.5-0.6c-2.8,2.4-5.7,4.8-8.7,7.1
		c-5.9,4.5-11.9,8.5-17.9,12.1l0.4,0.6l0.1-0.7c-11.3-1.7-23.2-4.4-35.5-8.3l-0.2,0.7l0.2,0.7c5.4-1.6,10.9-3.4,16.5-5.6
		c8.1-3.2,15.6-6.7,22.4-10.5l-0.4-0.7l-0.2,0.7c8.2,2.3,16.2,4,23.7,5.1L183.6,145.8l-0.5-0.6L183.6,145.8l0.1-0.7
		c-7.5-1.2-15.4-2.8-23.6-5.1l-0.3-0.1l-0.3,0.1c-6.8,3.7-14.3,7.3-22.3,10.4c-5.6,2.2-11,4-16.3,5.6l-2.4,0.7l2.4,0.7
		c12.4,3.9,24.4,6.6,35.7,8.3h0.3l0.2-0.1c6-3.6,12.1-7.6,18.1-12.2c3.1-2.3,6-4.7,8.8-7.2l1.2-1.1l-1.6-0.2L183.6,145.8z
		 M161.5,114.8l-0.3,0.7c6.3,2.5,13.2,4.9,20.7,6.9l0.2-0.7l-0.5-0.6c-6.6,5-14.1,10.1-22.6,14.8l0.4,0.7l0.2-0.7
		c-5.7-1.6-11.5-3.6-17.5-5.9c-3.1-1.2-6.1-2.5-9-3.8l-0.3,0.7l0.2,0.7c10.5-3.5,20.1-7.7,28.7-12.1L161.5,114.8l-0.3,0.7
		L161.5,114.8l-0.3-0.7c-8.5,4.3-18,8.5-28.5,12l-1.8,0.6l1.7,0.8c2.9,1.3,5.9,2.6,9,3.8c6,2.4,11.9,4.3,17.6,6l0.3,0.1l0.3-0.2
		c8.5-4.8,16.1-9.8,22.8-14.9l1.2-0.9l-1.5-0.4c-7.4-2.1-14.3-4.4-20.5-6.9l-0.3-0.1l-0.3,0.2L161.5,114.8z M99.8,148.9l0.3-0.7
		c-8.5-3.6-16.3-7.5-23.5-11.6l-0.4,0.7v0.7c11.3-0.5,23.8-1.9,37.3-5c4.9-1.1,9.7-2.4,14.3-3.8l-0.2-0.7l-0.3,0.7
		c4.1,2,8.4,3.9,13,5.7c4.8,1.9,9.6,3.5,14.3,5l0.2-0.7l-0.3-0.7c-5.8,3-11.9,5.9-18.5,8.4c-7.3,2.9-14.5,5.2-21.4,7l0.2,0.7
		l0.2-0.7c-4.9-1.7-9.9-3.6-14.9-5.7L99.8,148.9l-0.3,0.7c5,2.1,10,4,15,5.7l0.2,0.1l0.2-0.1c7-1.8,14.2-4.1,21.6-7
		c6.6-2.6,12.8-5.5,18.6-8.5l1.6-0.8l-1.7-0.5c-4.7-1.4-9.4-3.1-14.2-5c-4.5-1.8-8.8-3.7-12.9-5.6l-0.3-0.1l-0.3,0.1
		c-4.6,1.4-9.3,2.7-14.2,3.8c-13.3,3-25.8,4.5-37,4.9l-2.6,0.1l2.3,1.3c7.2,4.1,15.1,8,23.7,11.7L99.8,148.9z M101.1,181.6l0.3-0.7
		c-11.9-5-22.3-10.9-31.1-16.9l-0.4,0.6v0.7c12.7-0.3,28-1.8,44.9-6.1l-0.2-0.7l-0.2,0.7c12.8,4.4,25.3,7.4,37.1,9.5l0.1-0.7
		l-0.4-0.7c-14.6,8-28.9,13.3-42.1,16.8l0.2,0.7l0.3-0.7c-2.7-1-5.5-2-8.3-3.2L101.1,181.6l-0.3,0.7c2.8,1.2,5.6,2.2,8.3,3.2
		l0.2,0.1l0.2-0.1c13.2-3.5,27.7-8.9,42.4-16.9l1.9-1l-2.1-0.4c-11.8-2-24.2-5.1-36.9-9.4l-0.2-0.1l-0.2,0.1
		c-16.8,4.3-32,5.8-44.6,6.1h-2.3l1.9,1.3c8.9,6.1,19.4,12,31.4,17.1L101.1,181.6z M77.2,194.4l0.1,0.7c9.2-0.9,20.1-2.6,32.1-5.7
		l-0.2-0.7l-0.2,0.7c14.7,5.2,29.1,8,42.5,9.3l0.1-0.7l-0.3-0.7c-14,7.4-27.8,12.2-40.3,15.4l0.2,0.7l0.3-0.7
		c-12.9-5.7-24.2-12.3-33.7-18.9L77.2,194.4l0.1,0.7L77.2,194.4l-0.4,0.6c9.6,6.7,21,13.3,34,19.1l0.2,0.1l0.3-0.1
		c12.6-3.2,26.5-8.1,40.6-15.5l2.2-1.2l-2.5-0.2c-13.3-1.3-27.6-4.1-42.2-9.2l-0.2-0.1L109,188c-11.9,3.1-22.7,4.8-31.9,5.6l-2,0.2
		l1.7,1.2L77.2,194.4z M103,241.2l0.3-0.7c-11-5.6-20.4-11.9-28.3-18.2l-0.5,0.6v0.7c9.7-0.5,22.2-2,36.2-5.4l-0.2-0.7l-0.3,0.7
		c1.3,0.6,2.6,1.2,4,1.7c11.3,4.6,22.3,7.9,32.8,10.3l0.2-0.7l-0.3-0.7c-15.7,6.5-31,10-44.2,11.7L103,241.2l0.3-0.7L103,241.2
		l0.1,0.7c13.3-1.7,28.7-5.2,44.6-11.8l2.2-0.9l-2.3-0.5c-10.5-2.4-21.4-5.7-32.6-10.2c-1.3-0.5-2.7-1.1-4-1.7l-0.2-0.1l-0.2,0.1
		c-13.9,3.4-26.3,4.9-36,5.4l-2,0.1l1.5,1.2c8,6.4,17.5,12.8,28.5,18.4l0.2,0.1h0.2L103,241.2z M184.9,316.7v0.8c1.2,0,2.3,0,3.5,0
		v-0.7l-0.6-0.5c-3.8,4.2-8.2,8.5-13.4,12.6c-4.6,3.5-9.2,6.5-13.9,9l0.4,0.7l0.1-0.7c-11.7-1.4-24.6-4.1-37.9-8.4l-0.2,0.7l0.2,0.7
		c6.1-1.6,12.3-3.7,18.7-6.2c6.4-2.6,12.3-5.5,17.8-8.5l-0.4-0.7L159,316c9.1,1,17.7,1.4,25.8,1.4l0,0V317v0.5l0,0V317v0.5l0,0l0,0
		L184.9,316.7l-0.1-0.7l0,0c-8,0-16.6-0.4-25.7-1.4h-0.2l-0.2,0.1c-5.4,3-11.3,5.9-17.7,8.4c-6.3,2.5-12.5,4.6-18.5,6.2l-2.4,0.7
		l2.4,0.8c13.5,4.4,26.4,7,38.2,8.5h0.2l0.2-0.1c4.7-2.6,9.4-5.6,14.1-9.2c5.3-4.1,9.8-8.5,13.6-12.7l1.1-1.3h-1.7
		c-1.1,0-2.3,0-3.4,0L184.9,316.7l-0.1-0.7L184.9,316.7z M185,292.4l-0.5-0.6c-7.2,6.3-16,12.9-26.6,18.9l0.4,0.7l0.1-0.7
		c-3.2-0.4-6.5-0.8-9.8-1.3c-12.6-2-24.2-4.9-34.7-8.3l-0.2,0.7l0.2,0.7c5.7-1.6,11.6-3.5,17.6-5.7c7-2.6,13.6-5.5,19.8-8.5
		l-0.3-0.7l-0.2,0.7c12.2,2.6,23.6,4.1,34.2,4.8V292.4l-0.5-0.6L185,292.4l0.1-0.7c-10.4-0.8-21.9-2.2-33.9-4.8l-0.3-0.1l-0.2,0.1
		c-6.1,3-12.7,5.8-19.6,8.4c-5.9,2.2-11.8,4.1-17.5,5.6l-2.4,0.7l2.4,0.8c10.6,3.4,22.2,6.3,34.9,8.4c3.3,0.5,6.6,1,9.8,1.3h0.2
		l0.2-0.1c10.7-6,19.6-12.7,26.8-19.1l1.3-1.2l-1.8-0.1V292.4z M178.3,262.6v0.8c2.1,0,4.2,0,6.3-0.1v-0.7l-0.5-0.6
		c-9.4,7.1-20.7,14.4-33.9,21l0.3,0.7l0.2-0.7c-11-2.4-22.6-5.7-34.5-10.3l-0.3,0.7l0.2,0.7c2.9-0.7,5.9-1.5,9-2.4
		c9.6-2.9,18.5-6.4,26.6-10.3l-0.3-0.7l-0.1,0.7c9.6,1.5,18.8,2.1,27.1,2.1v-0.9v-0.8c-8.2,0-17.3-0.6-26.8-2h-0.2l-0.2,0.1
		c-8.1,3.9-16.9,7.4-26.4,10.2c-3,0.9-6,1.7-8.9,2.4l-2.3,0.6l2.2,0.9c12,4.6,23.6,7.9,34.7,10.4l0.3,0.1l0.2-0.1
		c13.4-6.6,24.7-14,34.2-21.1l1.9-1.4l-2.4,0.1c-2,0.1-4.1,0.1-6.2,0.1v0.5H178.3z M185.5,234.4l-0.5-0.6
		c-9.4,7.7-20.9,15.5-34.6,22.2l0.3,0.7l0.1-0.7c-13.1-2.1-27.1-6-41.5-12.5l-0.3,0.7l0.1,0.7c13.7-2.2,29.2-6.2,44.9-13.4l-0.3-0.7
		l-0.1,0.7c11.2,2.2,21.9,3.3,31.7,3.7L185.5,234.4l-0.5-0.6L185.5,234.4v-0.7c-9.7-0.4-20.3-1.5-31.5-3.6h-0.2l-0.2,0.1
		c-15.6,7.1-31,11.1-44.6,13.3l-2.4,0.4l2.3,1c14.5,6.6,28.7,10.5,41.8,12.6h0.2l0.2-0.1c13.8-6.7,25.3-14.6,34.8-22.4l1.5-1.3
		l-2-0.1L185.5,234.4z M169.5,198.9v0.7c9.6,0,18.5-0.7,26.6-1.8l-0.1-0.7l-0.5-0.5c-4.5,4.5-9.6,9.1-15.4,13.4
		c-8.8,6.7-17.9,11.9-27,16.2l0.3,0.7l0.1-0.7c-11.7-2.3-23.9-5.8-36.5-10.9l-0.3,0.7l0.2,0.7c13.1-3.7,27.4-9.2,41.9-17.4l-0.4-0.7
		v0.7c3.8,0.2,7.5,0.3,11.1,0.3L169.5,198.9l0-0.8c-3.6,0-7.2-0.1-11-0.3h-0.2l-0.2,0.1c-14.4,8.1-28.5,13.6-41.6,17.3l-2.1,0.6
		l2,0.8c12.7,5.1,25.1,8.7,36.8,11h0.2l0.2-0.1c9.2-4.3,18.4-9.6,27.3-16.3c5.8-4.4,11-9,15.5-13.6l1.5-1.6l-2.2,0.3
		c-8,1.1-16.9,1.8-26.4,1.8v0.8H169.5z M173.6,184.4l-0.4-0.6c-5.3,3.8-10.6,7.2-16,10.3l0.4,0.7v-0.7c-13.1-0.8-27.1-3.1-41.6-7.7
		l-0.2,0.7l0.2,0.7c13.3-3.9,27.6-9.7,42-18.1l-0.4-0.6l-0.1,0.7c11.3,1.7,22,2.5,31.9,2.7v-0.7l-0.5-0.6c-4.8,4.4-10,8.6-15.7,12.7
		L173.6,184.4l0.4,0.6c5.7-4.1,11-8.4,15.8-12.8l1.4-1.3h-1.9c-9.8-0.2-20.4-1-31.7-2.7h-0.3l-0.2,0.1c-14.3,8.3-28.5,14-41.7,18
		L113,187l2.3,0.7c14.6,4.6,28.8,6.9,42,7.8h0.2l0.2-0.1c5.4-3.1,10.7-6.5,16.1-10.4L173.6,184.4z M193.3,167.8V167
		c-9.4-0.1-19.7-0.6-30.5-2l-0.1,0.7l0.4,0.6c4.8-3,9.7-6.3,14.4-10c4.1-3.1,7.9-6.3,11.4-9.5l-0.5-0.6l-0.1,0.7
		c8.1,1.1,15.7,1.6,22.6,1.7v-0.7l-0.6-0.5c-5,6.5-10.9,13.1-17.6,19.6L193.3,167.8V167V167.8l0.5,0.5c6.8-6.5,12.7-13.2,17.8-19.7
		l0.9-1.2H211c-6.9-0.1-14.5-0.7-22.5-1.7h-0.3l-0.3,0.2c-3.6,3.2-7.3,6.3-11.4,9.4c-4.8,3.6-9.5,6.9-14.3,9.9l-1.8,1.1l2.1,0.3
		c11,1.4,21.3,2,30.7,2h0.3l0.2-0.2L193.3,167.8z"/>
	<path class="st0" d="M54.3,110.8c-3.1,0-5.8-2.3-6.3-5.5l-9.9-72.6c-0.2-1.8,0.3-3.6,1.5-5s2.9-2.2,4.8-2.2h186.2
		c1.8,0,3.6,0.8,4.8,2.2c1.2,1.4,1.7,3.2,1.5,5l-9.9,72.6c-0.4,3.1-3.1,5.5-6.3,5.5H54.3z"/>
	<path class="st1" d="M230.6,26.6c1.5,0,3,0.7,4,1.8c1,1.2,1.5,2.7,1.3,4.2l-9.9,72.6c-0.4,2.6-2.6,4.6-5.3,4.6H54.3
		c-2.6,0-4.9-2-5.3-4.6l-9.9-72.6c-0.2-1.5,0.3-3.1,1.3-4.2c1-1.2,2.5-1.8,4-1.8L230.6,26.6 M230.6,24.6H44.4
		c-4.4,0-7.9,3.9-7.3,8.3l9.9,72.6c0.5,3.6,3.6,6.3,7.3,6.3h166.3c3.7,0,6.8-2.7,7.3-6.3l9.9-72.6C238.5,28.5,235,24.6,230.6,24.6z"
		/>
	<path class="st0" d="M50.2,99.8C35.1,99.8,22.3,89,19.8,74L9.2,9.6h256.6l-10.7,64.5c-2.5,14.9-15.2,25.8-30.4,25.8L50.2,99.8
		L50.2,99.8z"/>
	<path class="st1" d="M264.6,10.6l-10.5,63.3c-2.4,14.4-14.8,24.9-29.4,24.9H50.2c-14.6,0-27-10.5-29.4-24.9L10.4,10.6H264.6
		 M267,8.6H8l10.8,65.6c2.5,15.4,15.8,26.6,31.4,26.6h174.6c15.6,0,28.8-11.3,31.4-26.6L267,8.6z"/>
</g>
</svg>
