<?xml version="1.0" encoding="utf-8"?>
<!-- Generator: Adobe Illustrator 21.1.0, SVG Export Plug-In . SVG Version: 6.00 Build 0)  -->
<svg version="1.1" id="Layer_1" xmlns="http://www.w3.org/2000/svg" xmlns:xlink="http://www.w3.org/1999/xlink" x="0px" y="0px"
	 viewBox="0 0 365 310" style="enable-background:new 0 0 365 310;" xml:space="preserve">
<style type="text/css">
	.st0{fill:#502012;}
	.st1{fill:#823F19;}
	.st2{fill:#CBBE7A;}
	.st3{fill:#B26000;}
	.st4{fill:#375271;}
	.st5{fill:#0C1A32;}
	.st6{fill:#628AB0;}
	.st7{fill:#944000;}
	.st8{fill:#E8CFB2;}
	.st9{fill:#491A0D;}
	.st10{fill:#863400;}
	.st11{fill:#7B2D00;}
	.st12{fill:#FF4E00;}
	.st13{fill:#FF1800;}
	.st14{fill:#FF8400;}
	.st15{fill:#190401;}
	.st16{fill:#873C23;}
	.st17{fill:#BFB067;}
	.st18{fill:#4B1E0F;}
	.st19{fill:#A24E00;}
	.st20{fill:#431A0D;}
	.st21{fill:#793612;}
	.st22{fill:#D4B399;}
	.st23{fill:#661F00;}
</style>
<g>
	<path class="st0" d="M177.4,72.1l0.2-40l-17.6-9.4l-0.3-4l-7.1-4L5.6,73.9c4.2,11.8,5.9,21.6,6.7,28.2c1.2,10.6,0.5,16.8,3.4,26.8
		c2.3,8.1,5.7,14.2,8,18c3,1.3,6.1,2.6,9.1,3.8L33,148l21.5,2.2L177.4,72.1"/>
	<path class="st1" d="M173.6,35.7l-66,31.4l-33,15.7c-11,5.2-22,10.5-32.9,15.9l-1.2,0.6l0.8,1c2.6,3,4.8,6.3,6.3,9.9
		c0.7,1.8,1.3,3.7,1.6,5.6c0.3,1.9,0.4,3.9,0.4,5.9c-0.1,4-0.1,8.1,0.3,12.1c0.4,4,1,8,2,12l0.2,0c-0.7-4-1.1-8-1.3-12
		c-0.1-2-0.1-4-0.1-6c0-2,0.2-4,0.3-6c0.1-2,0.1-4.1-0.2-6.2c-0.3-2-0.9-4.1-1.6-6c-1.3-3.5-3.3-6.7-5.5-9.6
		c10.6-5.1,21.2-10.3,31.7-15.5l32.8-16.2l65.5-32.4L173.6,35.7"/>
	<path class="st1" d="M155.1,24c-11.7,4.5-23.1,9.4-34.5,14.4c-5.7,2.6-11.3,5.3-16.9,8C98,49.1,92.3,51.6,86.5,54
		c-5.7,2.5-11.5,4.8-17.3,7.2c-5.8,2.4-11.5,4.9-17.2,7.4c-11.5,4.9-22.8,10.1-34.1,15.4l-3.5,1.6l3.8-0.2c0.2,0,0.3,0,0.5,0
		c1.3,0,2.7,0.3,4,0.6c1.5,0.4,2.9,1.1,4.2,1.9c1.4,0.8,2.8,1.5,4.3,2.2c1.4,0.7,2.9,1.3,4.4,1.9l0.1-0.2c-2.8-1.4-5.6-3-8.2-4.8
		c-1.3-0.9-2.8-1.7-4.3-2.3c-0.7-0.2-1.3-0.4-2-0.6c10.6-4.5,21.3-9,31.8-13.8c5.7-2.6,11.4-5.1,17-7.8c5.7-2.6,11.3-5.3,16.9-7.9
		c5.7-2.6,11.4-5.1,17.2-7.5c5.8-2.4,11.6-4.7,17.3-7.2c11.4-5,22.8-10.2,33.9-15.9L155.1,24"/>
	<path class="st1" d="M149.4,23.6l-32.2,13L85.1,49.7C74.4,54,63.6,58.3,53,62.8c-10.6,4.6-21.2,9.2-31.7,14.2l0.1,0.2
		C32.3,73.3,43,69,53.8,64.7c10.7-4.3,21.3-9,31.9-13.6l31.9-13.7l31.9-13.7L149.4,23.6"/>
	<path class="st2" d="M25.4,139.4c1.9,0.8,4,1.6,6.4,2.2c5,1.3,9.5,1.6,13,1.6c-0.2-2.7-0.6-6.6-1.1-11.2
		c-0.9-8.1-1.4-12.2-2.2-15.6c-1-4-3-9.8-7.3-16.3c-1.9-1.5-4.3-3.1-7.4-4.6c-4.5-2.2-8.7-3.1-11.7-3.5c1,2.6,2.2,6.7,3.4,11.7
		c1.8,7.6,0.5,11.6,1.7,19.3C20.7,126.9,22,132.6,25.4,139.4z"/>
	<path class="st3" d="M30,101.8c3.2,5.2,4.6,9.8,5.3,13c1.7,8.1,0,13.2,0.5,19.7c0,0.4,0.1,0.8-0.1,0.9c-0.5,0.2-3.9-4.9-3.8-10.3
		c0.1-2.5,0.8-4,1.3-5.3C34.4,116.2,34.6,110.6,30,101.8z"/>
	<path class="st3" d="M24.2,99.4c0,0,1.6,5.5,0.7,10c-0.9,4.5,1.8,28.1,3.5,28.8c1.7,0.7-0.3-11.3-1.5-17.3
		C25.5,114.4,22.2,98.2,24.2,99.4z"/>
	<path class="st4" d="M316.8,229.8c0,12.7-14.3,23.1-31.9,23.1c-17.6,0-31.9-10.3-31.9-23.1s14.3-23.1,31.9-23.1
		C302.5,206.8,316.8,217.1,316.8,229.8"/>
	<path class="st4" d="M284.8,252.9C284.8,252.9,284.9,252.9,284.8,252.9C284.9,252.9,284.8,252.9,284.8,252.9 M284.9,252.9
		C284.9,252.9,284.9,252.9,284.9,252.9C284.9,252.9,284.9,252.9,284.9,252.9 M284.8,252.9C284.8,252.9,284.8,252.9,284.8,252.9
		C284.8,252.9,284.8,252.9,284.8,252.9 M285,252.9C285,252.9,285,252.9,285,252.9C285,252.9,285,252.9,285,252.9 M285,252.9
		C285,252.9,285,252.9,285,252.9C285,252.9,285,252.9,285,252.9 M284.7,252.9C284.7,252.9,284.7,252.9,284.7,252.9
		C284.7,252.9,284.7,252.9,284.7,252.9 M284.7,252.9C284.7,252.9,284.7,252.9,284.7,252.9C284.7,252.9,284.7,252.9,284.7,252.9
		 M285.1,252.9C285.1,252.9,285.1,252.9,285.1,252.9C285.1,252.9,285.1,252.9,285.1,252.9 M284.6,252.9
		C284.6,252.9,284.6,252.9,284.6,252.9C284.6,252.9,284.6,252.9,284.6,252.9 M285.1,252.9C285.1,252.9,285.1,252.9,285.1,252.9
		C285.1,252.9,285.1,252.9,285.1,252.9 M284.6,252.9C284.6,252.9,284.6,252.9,284.6,252.9C284.6,252.9,284.6,252.9,284.6,252.9
		 M285.2,252.9C285.2,252.9,285.2,252.9,285.2,252.9C285.2,252.9,285.2,252.9,285.2,252.9 M284.5,252.9
		C284.5,252.9,284.5,252.9,284.5,252.9C284.5,252.9,284.5,252.9,284.5,252.9 M285.2,252.9C285.2,252.9,285.2,252.9,285.2,252.9
		C285.2,252.9,285.2,252.9,285.2,252.9 M284.5,252.9C284.5,252.9,284.5,252.9,284.5,252.9C284.5,252.9,284.5,252.9,284.5,252.9
		 M285.3,252.9C285.3,252.9,285.3,252.9,285.3,252.9C285.3,252.9,285.3,252.9,285.3,252.9 M284.4,252.9
		C284.4,252.9,284.4,252.9,284.4,252.9C284.4,252.9,284.4,252.9,284.4,252.9 M285.3,252.9C285.3,252.9,285.3,252.9,285.3,252.9
		C285.3,252.9,285.3,252.9,285.3,252.9 M284.4,252.9C284.4,252.9,284.4,252.9,284.4,252.9C284.4,252.9,284.4,252.9,284.4,252.9
		 M285.4,252.9C285.4,252.9,285.4,252.9,285.4,252.9C285.4,252.9,285.4,252.9,285.4,252.9 M284.3,252.9
		C284.3,252.9,284.3,252.9,284.3,252.9C284.3,252.9,284.3,252.9,284.3,252.9 M285.4,252.9C285.4,252.9,285.4,252.9,285.4,252.9
		C285.4,252.9,285.4,252.9,285.4,252.9 M284.3,252.9C284.3,252.9,284.3,252.9,284.3,252.9C284.3,252.9,284.3,252.9,284.3,252.9
		 M285.5,252.9C285.5,252.9,285.5,252.9,285.5,252.9C285.5,252.9,285.5,252.9,285.5,252.9 M284.2,252.9
		C284.2,252.9,284.2,252.9,284.2,252.9C284.2,252.9,284.2,252.9,284.2,252.9 M285.5,252.9C285.5,252.9,285.5,252.9,285.5,252.9
		C285.5,252.9,285.5,252.9,285.5,252.9 M284.2,252.9C284.2,252.9,284.2,252.9,284.2,252.9C284.2,252.9,284.2,252.9,284.2,252.9
		 M285.6,252.9C285.6,252.9,285.6,252.9,285.6,252.9C285.6,252.9,285.6,252.9,285.6,252.9 M284.1,252.9
		C284.1,252.9,284.1,252.9,284.1,252.9C284.1,252.9,284.1,252.9,284.1,252.9 M285.6,252.9C285.6,252.9,285.6,252.9,285.6,252.9
		C285.6,252.9,285.6,252.9,285.6,252.9 M284.1,252.9C284.1,252.9,284.1,252.9,284.1,252.9C284.1,252.9,284.1,252.9,284.1,252.9
		 M285.7,252.9C285.7,252.9,285.7,252.9,285.7,252.9C285.7,252.9,285.7,252.9,285.7,252.9 M284,252.9C284,252.9,284,252.9,284,252.9
		C284,252.9,284,252.9,284,252.9 M285.7,252.9C285.7,252.9,285.7,252.9,285.7,252.9C285.7,252.9,285.7,252.9,285.7,252.9 M284,252.9
		C284,252.9,284,252.9,284,252.9C284,252.9,284,252.9,284,252.9 M285.8,252.9C285.8,252.9,285.8,252.9,285.8,252.9
		C285.8,252.9,285.8,252.9,285.8,252.9 M283.9,252.9C283.9,252.9,283.9,252.9,283.9,252.9C283.9,252.9,283.9,252.9,283.9,252.9
		 M285.8,252.9C285.8,252.9,285.8,252.9,285.8,252.9C285.8,252.9,285.8,252.9,285.8,252.9 M283.9,252.9
		C283.9,252.9,283.9,252.9,283.9,252.9C283.9,252.9,283.9,252.9,283.9,252.9 M285.9,252.9C285.9,252.9,285.9,252.9,285.9,252.9
		C285.9,252.9,285.9,252.9,285.9,252.9 M283.8,252.9C283.8,252.9,283.8,252.9,283.8,252.9C283.8,252.9,283.8,252.9,283.8,252.9
		 M285.9,252.9C285.9,252.9,285.9,252.9,285.9,252.9C285.9,252.9,285.9,252.9,285.9,252.9 M283.8,252.9
		C283.8,252.9,283.8,252.9,283.8,252.9C283.8,252.9,283.8,252.9,283.8,252.9 M286,252.9C286,252.9,286,252.9,286,252.9
		C286,252.9,286,252.9,286,252.9 M283.7,252.9C283.7,252.9,283.7,252.9,283.7,252.9C283.7,252.9,283.7,252.9,283.7,252.9 M286,252.9
		C286,252.9,286,252.9,286,252.9C286,252.9,286,252.9,286,252.9 M283.7,252.9C283.7,252.9,283.7,252.9,283.7,252.9
		C283.7,252.9,283.7,252.9,283.7,252.9 M286.1,252.9C286.1,252.9,286.1,252.9,286.1,252.9C286.1,252.9,286.1,252.9,286.1,252.9
		 M283.6,252.9C283.6,252.9,283.6,252.9,283.6,252.9C283.6,252.9,283.6,252.9,283.6,252.9 M286.1,252.9
		C286.1,252.9,286.1,252.9,286.1,252.9C286.1,252.9,286.1,252.9,286.1,252.9 M283.6,252.9C283.6,252.9,283.6,252.9,283.6,252.9
		C283.6,252.9,283.6,252.9,283.6,252.9 M286.2,252.9C286.2,252.9,286.2,252.9,286.2,252.9C286.2,252.9,286.2,252.9,286.2,252.9
		 M283.5,252.9C283.5,252.9,283.5,252.9,283.5,252.9C283.5,252.9,283.5,252.9,283.5,252.9 M286.2,252.9
		C286.2,252.9,286.2,252.9,286.2,252.9C286.2,252.9,286.2,252.9,286.2,252.9 M283.5,252.9C283.5,252.9,283.5,252.9,283.5,252.9
		C283.5,252.9,283.5,252.9,283.5,252.9 M286.3,252.9C286.3,252.9,286.3,252.9,286.3,252.9C286.3,252.9,286.3,252.9,286.3,252.9
		 M283.4,252.9C283.4,252.9,283.4,252.9,283.4,252.9C283.4,252.9,283.4,252.9,283.4,252.9 M286.4,252.9
		C286.3,252.9,286.3,252.9,286.4,252.9C286.3,252.9,286.3,252.9,286.4,252.9 M283.3,252.9C283.4,252.9,283.4,252.9,283.3,252.9
		C283.4,252.9,283.4,252.9,283.3,252.9 M286.4,252.9C286.4,252.9,286.4,252.9,286.4,252.9C286.4,252.9,286.4,252.9,286.4,252.9
		 M283.1,252.9c0.1,0,0.1,0,0.2,0C283.3,252.9,283.2,252.9,283.1,252.9 M286.6,252.9c-0.1,0-0.1,0-0.2,0
		C286.5,252.9,286.6,252.9,286.6,252.9 M283.1,252.9C283.1,252.9,283.1,252.9,283.1,252.9C283.1,252.9,283.1,252.9,283.1,252.9
		 M286.7,252.9C286.7,252.9,286.6,252.9,286.7,252.9C286.6,252.9,286.7,252.9,286.7,252.9 M283,252.9
		C283,252.9,283.1,252.9,283,252.9C283.1,252.9,283,252.9,283,252.9 M286.7,252.9C286.7,252.9,286.7,252.9,286.7,252.9
		C286.7,252.9,286.7,252.9,286.7,252.9 M283,252.9C283,252.9,283,252.9,283,252.9C283,252.9,283,252.9,283,252.9 M286.8,252.9
		C286.8,252.9,286.7,252.9,286.8,252.9C286.7,252.9,286.8,252.9,286.8,252.9 M282.9,252.9C282.9,252.9,283,252.9,282.9,252.9
		C283,252.9,282.9,252.9,282.9,252.9 M286.8,252.9C286.8,252.9,286.8,252.9,286.8,252.9C286.8,252.9,286.8,252.9,286.8,252.9
		 M282.9,252.9C282.9,252.9,282.9,252.9,282.9,252.9C282.9,252.9,282.9,252.9,282.9,252.9 M286.9,252.9
		C286.9,252.9,286.8,252.9,286.9,252.9C286.8,252.9,286.9,252.9,286.9,252.9 M282.8,252.9C282.8,252.9,282.9,252.9,282.8,252.9
		C282.9,252.9,282.8,252.9,282.8,252.9 M286.9,252.9C286.9,252.9,286.9,252.9,286.9,252.9C286.9,252.9,286.9,252.9,286.9,252.9
		 M282.8,252.9C282.8,252.9,282.8,252.9,282.8,252.9C282.8,252.9,282.8,252.9,282.8,252.9 M287,252.9
		C287,252.9,286.9,252.9,287,252.9C286.9,252.9,287,252.9,287,252.9 M282.7,252.9C282.7,252.9,282.8,252.9,282.7,252.9
		C282.8,252.9,282.7,252.9,282.7,252.9 M287,252.9C287,252.9,287,252.9,287,252.9C287,252.9,287,252.9,287,252.9 M282.7,252.9
		C282.7,252.9,282.7,252.9,282.7,252.9C282.7,252.9,282.7,252.9,282.7,252.9 M287.1,252.9C287.1,252.9,287.1,252.9,287.1,252.9
		C287.1,252.9,287.1,252.9,287.1,252.9 M282.6,252.8C282.6,252.8,282.7,252.9,282.6,252.8C282.7,252.9,282.6,252.8,282.6,252.8
		 M287.1,252.8C287.1,252.8,287.1,252.9,287.1,252.8C287.1,252.9,287.1,252.8,287.1,252.8 M282.6,252.8
		C282.6,252.8,282.6,252.8,282.6,252.8C282.6,252.8,282.6,252.8,282.6,252.8 M287.2,252.8C287.2,252.8,287.2,252.8,287.2,252.8
		C287.2,252.8,287.2,252.8,287.2,252.8 M282.5,252.8C282.5,252.8,282.6,252.8,282.5,252.8C282.6,252.8,282.5,252.8,282.5,252.8
		 M287.2,252.8C287.2,252.8,287.2,252.8,287.2,252.8C287.2,252.8,287.2,252.8,287.2,252.8 M282.5,252.8
		C282.5,252.8,282.5,252.8,282.5,252.8C282.5,252.8,282.5,252.8,282.5,252.8 M287.3,252.8C287.3,252.8,287.3,252.8,287.3,252.8
		C287.3,252.8,287.3,252.8,287.3,252.8 M282.4,252.8C282.4,252.8,282.5,252.8,282.4,252.8C282.5,252.8,282.4,252.8,282.4,252.8
		 M287.3,252.8C287.3,252.8,287.3,252.8,287.3,252.8C287.3,252.8,287.3,252.8,287.3,252.8 M282.4,252.8
		C282.4,252.8,282.4,252.8,282.4,252.8C282.4,252.8,282.4,252.8,282.4,252.8 M287.4,252.8C287.4,252.8,287.4,252.8,287.4,252.8
		C287.4,252.8,287.4,252.8,287.4,252.8 M282.3,252.8C282.3,252.8,282.4,252.8,282.3,252.8C282.4,252.8,282.3,252.8,282.3,252.8
		 M287.4,252.8C287.4,252.8,287.4,252.8,287.4,252.8C287.4,252.8,287.4,252.8,287.4,252.8 M282.3,252.8
		C282.3,252.8,282.3,252.8,282.3,252.8C282.3,252.8,282.3,252.8,282.3,252.8 M287.5,252.8C287.5,252.8,287.5,252.8,287.5,252.8
		C287.5,252.8,287.5,252.8,287.5,252.8 M282.2,252.8C282.2,252.8,282.3,252.8,282.2,252.8C282.3,252.8,282.2,252.8,282.2,252.8
		 M287.5,252.8C287.5,252.8,287.5,252.8,287.5,252.8C287.5,252.8,287.5,252.8,287.5,252.8 M282.2,252.8
		C282.2,252.8,282.2,252.8,282.2,252.8C282.2,252.8,282.2,252.8,282.2,252.8 M287.6,252.8C287.6,252.8,287.6,252.8,287.6,252.8
		C287.6,252.8,287.6,252.8,287.6,252.8 M282.1,252.8C282.1,252.8,282.2,252.8,282.1,252.8C282.2,252.8,282.1,252.8,282.1,252.8
		 M287.6,252.8C287.6,252.8,287.6,252.8,287.6,252.8C287.6,252.8,287.6,252.8,287.6,252.8 M282.1,252.8
		C282.1,252.8,282.1,252.8,282.1,252.8C282.1,252.8,282.1,252.8,282.1,252.8 M287.7,252.8C287.7,252.8,287.7,252.8,287.7,252.8
		C287.7,252.8,287.7,252.8,287.7,252.8 M282,252.8C282,252.8,282.1,252.8,282,252.8C282.1,252.8,282,252.8,282,252.8 M287.7,252.8
		C287.7,252.8,287.7,252.8,287.7,252.8C287.7,252.8,287.7,252.8,287.7,252.8 M282,252.8C282,252.8,282,252.8,282,252.8
		C282,252.8,282,252.8,282,252.8 M287.8,252.8C287.8,252.8,287.8,252.8,287.8,252.8C287.8,252.8,287.8,252.8,287.8,252.8
		 M281.9,252.8C281.9,252.8,282,252.8,281.9,252.8C282,252.8,281.9,252.8,281.9,252.8 M287.8,252.8
		C287.8,252.8,287.8,252.8,287.8,252.8C287.8,252.8,287.8,252.8,287.8,252.8 M281.9,252.8C281.9,252.8,281.9,252.8,281.9,252.8
		C281.9,252.8,281.9,252.8,281.9,252.8 M287.9,252.8C287.9,252.8,287.9,252.8,287.9,252.8C287.9,252.8,287.9,252.8,287.9,252.8
		 M281.8,252.8C281.8,252.8,281.9,252.8,281.8,252.8C281.9,252.8,281.8,252.8,281.8,252.8 M287.9,252.8
		C287.9,252.8,287.9,252.8,287.9,252.8C287.9,252.8,287.9,252.8,287.9,252.8 M281.8,252.8C281.8,252.8,281.8,252.8,281.8,252.8
		C281.8,252.8,281.8,252.8,281.8,252.8 M288,252.8C288,252.8,288,252.8,288,252.8C288,252.8,288,252.8,288,252.8 M281.4,252.8
		c0.1,0,0.2,0,0.4,0C281.6,252.8,281.5,252.8,281.4,252.8 M281.4,252.8C281.4,252.8,281.4,252.8,281.4,252.8
		C281.4,252.8,281.4,252.8,281.4,252.8 M288.4,252.8c-0.1,0-0.3,0-0.4,0C288.1,252.8,288.3,252.8,288.4,252.8 M281.3,252.8
		C281.3,252.8,281.3,252.8,281.3,252.8C281.3,252.8,281.3,252.8,281.3,252.8 M288.4,252.8C288.4,252.8,288.4,252.8,288.4,252.8
		C288.4,252.8,288.4,252.8,288.4,252.8 M281.3,252.8C281.3,252.8,281.3,252.8,281.3,252.8C281.3,252.8,281.3,252.8,281.3,252.8
		 M288.5,252.8C288.5,252.8,288.5,252.8,288.5,252.8C288.5,252.8,288.5,252.8,288.5,252.8 M281.2,252.8
		C281.2,252.8,281.2,252.8,281.2,252.8C281.2,252.8,281.2,252.8,281.2,252.8 M288.5,252.8C288.5,252.8,288.5,252.8,288.5,252.8
		C288.5,252.8,288.5,252.8,288.5,252.8 M281.2,252.8C281.2,252.8,281.2,252.8,281.2,252.8C281.2,252.8,281.2,252.8,281.2,252.8
		 M288.6,252.8C288.6,252.8,288.6,252.8,288.6,252.8C288.6,252.8,288.6,252.8,288.6,252.8 M281.1,252.7
		C281.1,252.7,281.1,252.7,281.1,252.7C281.1,252.7,281.1,252.7,281.1,252.7 M288.6,252.7C288.6,252.7,288.6,252.7,288.6,252.7
		C288.6,252.7,288.6,252.7,288.6,252.7 M281.1,252.7C281.1,252.7,281.1,252.7,281.1,252.7C281.1,252.7,281.1,252.7,281.1,252.7
		 M288.7,252.7C288.7,252.7,288.7,252.7,288.7,252.7C288.7,252.7,288.7,252.7,288.7,252.7 M281,252.7C281,252.7,281,252.7,281,252.7
		C281,252.7,281,252.7,281,252.7 M288.7,252.7C288.7,252.7,288.7,252.7,288.7,252.7C288.7,252.7,288.7,252.7,288.7,252.7 M281,252.7
		C281,252.7,281,252.7,281,252.7C281,252.7,281,252.7,281,252.7 M288.8,252.7C288.8,252.7,288.8,252.7,288.8,252.7
		C288.8,252.7,288.8,252.7,288.8,252.7 M280.9,252.7C280.9,252.7,280.9,252.7,280.9,252.7C280.9,252.7,280.9,252.7,280.9,252.7
		 M288.8,252.7C288.8,252.7,288.8,252.7,288.8,252.7C288.8,252.7,288.8,252.7,288.8,252.7 M280.9,252.7
		C280.9,252.7,280.9,252.7,280.9,252.7C280.9,252.7,280.9,252.7,280.9,252.7 M288.9,252.7C288.9,252.7,288.9,252.7,288.9,252.7
		C288.9,252.7,288.9,252.7,288.9,252.7 M280.8,252.7C280.8,252.7,280.8,252.7,280.8,252.7C280.8,252.7,280.8,252.7,280.8,252.7
		 M288.9,252.7C288.9,252.7,288.9,252.7,288.9,252.7C288.9,252.7,288.9,252.7,288.9,252.7 M280.8,252.7
		C280.8,252.7,280.8,252.7,280.8,252.7C280.8,252.7,280.8,252.7,280.8,252.7 M289,252.7C289,252.7,289,252.7,289,252.7
		C289,252.7,289,252.7,289,252.7 M280.7,252.7C280.7,252.7,280.7,252.7,280.7,252.7C280.7,252.7,280.7,252.7,280.7,252.7 M289,252.7
		C289,252.7,289,252.7,289,252.7C289,252.7,289,252.7,289,252.7 M280.7,252.7C280.7,252.7,280.7,252.7,280.7,252.7
		C280.7,252.7,280.7,252.7,280.7,252.7 M289.1,252.7C289.1,252.7,289.1,252.7,289.1,252.7C289.1,252.7,289.1,252.7,289.1,252.7
		 M280.6,252.7C280.6,252.7,280.6,252.7,280.6,252.7C280.6,252.7,280.6,252.7,280.6,252.7 M289.1,252.7
		C289.1,252.7,289.1,252.7,289.1,252.7C289.1,252.7,289.1,252.7,289.1,252.7 M280.6,252.7C280.6,252.7,280.6,252.7,280.6,252.7
		C280.6,252.7,280.6,252.7,280.6,252.7 M289.2,252.7C289.2,252.7,289.2,252.7,289.2,252.7C289.2,252.7,289.2,252.7,289.2,252.7
		 M280.5,252.7C280.5,252.7,280.5,252.7,280.5,252.7C280.5,252.7,280.5,252.7,280.5,252.7 M289.2,252.7
		C289.2,252.7,289.2,252.7,289.2,252.7C289.2,252.7,289.2,252.7,289.2,252.7 M280.5,252.7C280.5,252.7,280.5,252.7,280.5,252.7
		C280.5,252.7,280.5,252.7,280.5,252.7 M289.3,252.7C289.3,252.7,289.3,252.7,289.3,252.7C289.3,252.7,289.3,252.7,289.3,252.7
		 M280.4,252.7C280.4,252.7,280.5,252.7,280.4,252.7C280.4,252.7,280.4,252.7,280.4,252.7 M289.3,252.7
		C289.3,252.7,289.3,252.7,289.3,252.7C289.3,252.7,289.3,252.7,289.3,252.7 M280.4,252.7C280.4,252.7,280.4,252.7,280.4,252.7
		C280.4,252.7,280.4,252.7,280.4,252.7 M289.4,252.7C289.4,252.7,289.4,252.7,289.4,252.7C289.4,252.7,289.4,252.7,289.4,252.7
		 M280.3,252.7C280.3,252.7,280.3,252.7,280.3,252.7C280.4,252.7,280.3,252.7,280.3,252.7 M280.3,252.7
		C280.3,252.7,280.3,252.7,280.3,252.7C280.3,252.7,280.3,252.7,280.3,252.7 M279.8,252.6c0.2,0,0.3,0,0.5,0.1
		C280.1,252.6,279.9,252.6,279.8,252.6 M290,252.6c-0.2,0-0.4,0-0.6,0.1C289.6,252.7,289.8,252.6,290,252.6 M279.7,252.6
		C279.7,252.6,279.8,252.6,279.7,252.6C279.8,252.6,279.7,252.6,279.7,252.6 M290,252.6C290,252.6,290,252.6,290,252.6
		C290,252.6,290,252.6,290,252.6 M279.7,252.6C279.7,252.6,279.7,252.6,279.7,252.6C279.7,252.6,279.7,252.6,279.7,252.6
		 M290.1,252.6C290.1,252.6,290,252.6,290.1,252.6C290,252.6,290.1,252.6,290.1,252.6 M279.6,252.6
		C279.6,252.6,279.7,252.6,279.6,252.6C279.7,252.6,279.6,252.6,279.6,252.6 M290.1,252.6C290.1,252.6,290.1,252.6,290.1,252.6
		C290.1,252.6,290.1,252.6,290.1,252.6 M279.6,252.6C279.6,252.6,279.6,252.6,279.6,252.6C279.6,252.6,279.6,252.6,279.6,252.6
		 M290.2,252.6C290.2,252.6,290.1,252.6,290.2,252.6C290.1,252.6,290.2,252.6,290.2,252.6 M279.5,252.6
		C279.5,252.6,279.6,252.6,279.5,252.6C279.6,252.6,279.5,252.6,279.5,252.6 M290.2,252.6C290.2,252.6,290.2,252.6,290.2,252.6
		C290.2,252.6,290.2,252.6,290.2,252.6 M279.5,252.6C279.5,252.6,279.5,252.6,279.5,252.6C279.5,252.6,279.5,252.6,279.5,252.6
		 M290.3,252.6C290.3,252.6,290.2,252.6,290.3,252.6C290.2,252.6,290.3,252.6,290.3,252.6 M279.4,252.6
		C279.4,252.6,279.5,252.6,279.4,252.6C279.5,252.6,279.4,252.6,279.4,252.6 M290.3,252.6C290.3,252.6,290.3,252.6,290.3,252.6
		C290.3,252.6,290.3,252.6,290.3,252.6 M279.4,252.6C279.4,252.6,279.4,252.6,279.4,252.6C279.4,252.6,279.4,252.6,279.4,252.6
		 M290.4,252.6C290.4,252.6,290.3,252.6,290.4,252.6C290.3,252.6,290.4,252.6,290.4,252.6 M279.3,252.6
		C279.3,252.6,279.4,252.6,279.3,252.6C279.4,252.6,279.3,252.6,279.3,252.6 M290.4,252.6C290.4,252.6,290.4,252.6,290.4,252.6
		C290.4,252.6,290.4,252.6,290.4,252.6 M279.3,252.6C279.3,252.6,279.3,252.6,279.3,252.6C279.3,252.6,279.3,252.6,279.3,252.6
		 M290.5,252.6C290.5,252.6,290.4,252.6,290.5,252.6C290.4,252.6,290.5,252.6,290.5,252.6 M279.2,252.5
		C279.2,252.5,279.3,252.5,279.2,252.5C279.3,252.5,279.2,252.5,279.2,252.5 M290.5,252.5C290.5,252.5,290.5,252.5,290.5,252.5
		C290.5,252.5,290.5,252.5,290.5,252.5 M279.2,252.5C279.2,252.5,279.2,252.5,279.2,252.5C279.2,252.5,279.2,252.5,279.2,252.5
		 M290.6,252.5C290.6,252.5,290.5,252.5,290.6,252.5C290.5,252.5,290.6,252.5,290.6,252.5 M279.1,252.5
		C279.2,252.5,279.2,252.5,279.1,252.5C279.2,252.5,279.2,252.5,279.1,252.5 M290.6,252.5C290.6,252.5,290.6,252.5,290.6,252.5
		C290.6,252.5,290.6,252.5,290.6,252.5 M279.1,252.5C279.1,252.5,279.1,252.5,279.1,252.5C279.1,252.5,279.1,252.5,279.1,252.5
		 M290.7,252.5C290.7,252.5,290.6,252.5,290.7,252.5C290.6,252.5,290.7,252.5,290.7,252.5 M279,252.5
		C279.1,252.5,279.1,252.5,279,252.5C279.1,252.5,279.1,252.5,279,252.5 M290.7,252.5C290.7,252.5,290.7,252.5,290.7,252.5
		C290.7,252.5,290.7,252.5,290.7,252.5 M279,252.5C279,252.5,279,252.5,279,252.5C279,252.5,279,252.5,279,252.5 M290.8,252.5
		C290.7,252.5,290.7,252.5,290.8,252.5C290.7,252.5,290.7,252.5,290.8,252.5 M278.9,252.5C279,252.5,279,252.5,278.9,252.5
		C279,252.5,279,252.5,278.9,252.5 M290.8,252.5C290.8,252.5,290.8,252.5,290.8,252.5C290.8,252.5,290.8,252.5,290.8,252.5
		 M278.9,252.5C278.9,252.5,278.9,252.5,278.9,252.5C278.9,252.5,278.9,252.5,278.9,252.5 M290.9,252.5
		C290.8,252.5,290.8,252.5,290.9,252.5C290.8,252.5,290.8,252.5,290.9,252.5 M278.8,252.5C278.9,252.5,278.9,252.5,278.8,252.5
		C278.9,252.5,278.9,252.5,278.8,252.5 M290.9,252.5C290.9,252.5,290.9,252.5,290.9,252.5C290.9,252.5,290.9,252.5,290.9,252.5
		 M278.8,252.5C278.8,252.5,278.8,252.5,278.8,252.5C278.8,252.5,278.8,252.5,278.8,252.5 M291,252.5
		C290.9,252.5,290.9,252.5,291,252.5C290.9,252.5,290.9,252.5,291,252.5 M278.8,252.5C278.8,252.5,278.8,252.5,278.8,252.5
		C278.8,252.5,278.8,252.5,278.8,252.5 M291,252.5C291,252.5,291,252.5,291,252.5C291,252.5,291,252.5,291,252.5 M278.7,252.5
		C278.7,252.5,278.7,252.5,278.7,252.5C278.7,252.5,278.7,252.5,278.7,252.5 M291.1,252.5C291,252.5,291,252.5,291.1,252.5
		C291,252.5,291,252.5,291.1,252.5 M278.7,252.5C278.7,252.5,278.7,252.5,278.7,252.5C278.7,252.5,278.7,252.5,278.7,252.5
		 M278.3,252.4c0.1,0,0.2,0,0.3,0.1C278.5,252.4,278.4,252.4,278.3,252.4 M278.3,252.4C278.3,252.4,278.3,252.4,278.3,252.4
		C278.3,252.4,278.3,252.4,278.3,252.4 M291.5,252.4c-0.1,0-0.3,0-0.4,0.1C291.2,252.5,291.4,252.4,291.5,252.4 M278.2,252.4
		C278.2,252.4,278.2,252.4,278.2,252.4C278.2,252.4,278.2,252.4,278.2,252.4 M291.5,252.4C291.5,252.4,291.5,252.4,291.5,252.4
		C291.5,252.4,291.5,252.4,291.5,252.4 M278.2,252.4C278.2,252.4,278.2,252.4,278.2,252.4C278.2,252.4,278.2,252.4,278.2,252.4
		 M291.6,252.4C291.6,252.4,291.6,252.4,291.6,252.4C291.6,252.4,291.6,252.4,291.6,252.4 M278.1,252.4
		C278.1,252.4,278.1,252.4,278.1,252.4C278.1,252.4,278.1,252.4,278.1,252.4 M291.6,252.4C291.6,252.4,291.6,252.4,291.6,252.4
		C291.6,252.4,291.6,252.4,291.6,252.4 M278.1,252.4C278.1,252.4,278.1,252.4,278.1,252.4C278.1,252.4,278.1,252.4,278.1,252.4
		 M291.7,252.4C291.7,252.4,291.7,252.4,291.7,252.4C291.7,252.4,291.7,252.4,291.7,252.4 M278,252.4C278,252.4,278,252.4,278,252.4
		C278,252.4,278,252.4,278,252.4 M291.7,252.4C291.7,252.4,291.7,252.4,291.7,252.4C291.7,252.4,291.7,252.4,291.7,252.4 M278,252.4
		C278,252.4,278,252.4,278,252.4C278,252.4,278,252.4,278,252.4 M291.8,252.4C291.8,252.4,291.8,252.4,291.8,252.4
		C291.8,252.4,291.8,252.4,291.8,252.4 M277.9,252.4C277.9,252.4,277.9,252.4,277.9,252.4C277.9,252.4,277.9,252.4,277.9,252.4
		 M291.8,252.4C291.8,252.4,291.8,252.4,291.8,252.4C291.8,252.4,291.8,252.4,291.8,252.4 M277.9,252.3
		C277.9,252.3,277.9,252.4,277.9,252.3C277.9,252.4,277.9,252.3,277.9,252.3 M291.9,252.3C291.9,252.3,291.9,252.4,291.9,252.3
		C291.9,252.4,291.9,252.3,291.9,252.3 M277.8,252.3C277.8,252.3,277.8,252.3,277.8,252.3C277.8,252.3,277.8,252.3,277.8,252.3
		 M291.9,252.3C291.9,252.3,291.9,252.3,291.9,252.3C291.9,252.3,291.9,252.3,291.9,252.3 M277.8,252.3
		C277.8,252.3,277.8,252.3,277.8,252.3C277.8,252.3,277.8,252.3,277.8,252.3 M292,252.3C292,252.3,292,252.3,292,252.3
		C292,252.3,292,252.3,292,252.3 M277.7,252.3C277.7,252.3,277.8,252.3,277.7,252.3C277.8,252.3,277.7,252.3,277.7,252.3 M292,252.3
		C292,252.3,292,252.3,292,252.3C292,252.3,292,252.3,292,252.3 M277.7,252.3C277.7,252.3,277.7,252.3,277.7,252.3
		C277.7,252.3,277.7,252.3,277.7,252.3 M292.1,252.3C292.1,252.3,292.1,252.3,292.1,252.3C292.1,252.3,292.1,252.3,292.1,252.3
		 M277.6,252.3C277.6,252.3,277.7,252.3,277.6,252.3C277.7,252.3,277.6,252.3,277.6,252.3 M292.1,252.3
		C292.1,252.3,292.1,252.3,292.1,252.3C292.1,252.3,292.1,252.3,292.1,252.3 M277.6,252.3C277.6,252.3,277.6,252.3,277.6,252.3
		C277.6,252.3,277.6,252.3,277.6,252.3 M292.2,252.3C292.2,252.3,292.1,252.3,292.2,252.3C292.1,252.3,292.2,252.3,292.2,252.3
		 M277.5,252.3C277.6,252.3,277.6,252.3,277.5,252.3C277.6,252.3,277.6,252.3,277.5,252.3 M292.2,252.3
		C292.2,252.3,292.2,252.3,292.2,252.3C292.2,252.3,292.2,252.3,292.2,252.3 M277.5,252.3C277.5,252.3,277.5,252.3,277.5,252.3
		C277.5,252.3,277.5,252.3,277.5,252.3 M292.3,252.3C292.3,252.3,292.2,252.3,292.3,252.3C292.2,252.3,292.3,252.3,292.3,252.3
		 M277.4,252.3C277.5,252.3,277.5,252.3,277.4,252.3C277.5,252.3,277.5,252.3,277.4,252.3 M292.3,252.3
		C292.3,252.3,292.3,252.3,292.3,252.3C292.3,252.3,292.3,252.3,292.3,252.3 M277.4,252.3C277.4,252.3,277.4,252.3,277.4,252.3
		C277.4,252.3,277.4,252.3,277.4,252.3 M292.4,252.3C292.3,252.3,292.3,252.3,292.4,252.3C292.3,252.3,292.3,252.3,292.4,252.3
		 M277.4,252.3C277.4,252.3,277.4,252.3,277.4,252.3C277.4,252.3,277.4,252.3,277.4,252.3 M292.4,252.3
		C292.4,252.3,292.4,252.3,292.4,252.3C292.4,252.3,292.4,252.3,292.4,252.3 M277.3,252.3C277.3,252.3,277.3,252.3,277.3,252.3
		C277.3,252.3,277.3,252.3,277.3,252.3 M292.5,252.3C292.4,252.3,292.4,252.3,292.5,252.3C292.4,252.3,292.4,252.3,292.5,252.3
		 M277.3,252.2C277.3,252.2,277.3,252.2,277.3,252.2C277.3,252.2,277.3,252.2,277.3,252.2 M292.5,252.2
		C292.5,252.2,292.5,252.2,292.5,252.2C292.5,252.2,292.5,252.2,292.5,252.2 M277.2,252.2C277.2,252.2,277.2,252.2,277.2,252.2
		C277.2,252.2,277.2,252.2,277.2,252.2 M292.5,252.2C292.5,252.2,292.5,252.2,292.5,252.2C292.5,252.2,292.5,252.2,292.5,252.2
		 M277.2,252.2C277.2,252.2,277.2,252.2,277.2,252.2C277.2,252.2,277.2,252.2,277.2,252.2 M292.6,252.2
		C292.6,252.2,292.6,252.2,292.6,252.2C292.6,252.2,292.6,252.2,292.6,252.2 M277.1,252.2C277.1,252.2,277.1,252.2,277.1,252.2
		C277.1,252.2,277.1,252.2,277.1,252.2 M292.6,252.2C292.6,252.2,292.6,252.2,292.6,252.2C292.6,252.2,292.6,252.2,292.6,252.2
		 M277.1,252.2C277.1,252.2,277.1,252.2,277.1,252.2C277.1,252.2,277.1,252.2,277.1,252.2 M292.7,252.2
		C292.7,252.2,292.7,252.2,292.7,252.2C292.7,252.2,292.7,252.2,292.7,252.2 M277,252.2C277,252.2,277,252.2,277,252.2
		C277,252.2,277,252.2,277,252.2 M292.7,252.2C292.7,252.2,292.7,252.2,292.7,252.2C292.7,252.2,292.7,252.2,292.7,252.2 M277,252.2
		C277,252.2,277,252.2,277,252.2C277,252.2,277,252.2,277,252.2 M292.8,252.2C292.8,252.2,292.8,252.2,292.8,252.2
		C292.8,252.2,292.8,252.2,292.8,252.2 M276.9,252.2C276.9,252.2,276.9,252.2,276.9,252.2C276.9,252.2,276.9,252.2,276.9,252.2
		 M276.9,252.2C276.9,252.2,276.9,252.2,276.9,252.2C276.9,252.2,276.9,252.2,276.9,252.2 M292.9,252.2
		C292.9,252.2,292.8,252.2,292.9,252.2C292.8,252.2,292.9,252.2,292.9,252.2 M276.8,252.2C276.8,252.2,276.8,252.2,276.8,252.2
		C276.8,252.2,276.8,252.2,276.8,252.2 M292.9,252.2C292.9,252.2,292.9,252.2,292.9,252.2C292.9,252.2,292.9,252.2,292.9,252.2
		 M276.8,252.2C276.8,252.2,276.8,252.2,276.8,252.2C276.8,252.2,276.8,252.2,276.8,252.2 M293,252.2C293,252.2,293,252.2,293,252.2
		C293,252.2,293,252.2,293,252.2 M276.7,252.1C276.7,252.1,276.7,252.1,276.7,252.1C276.7,252.1,276.7,252.1,276.7,252.1 M293,252.1
		C293,252.1,293,252.1,293,252.1C293,252.1,293,252.1,293,252.1 M276.7,252.1C276.7,252.1,276.7,252.1,276.7,252.1
		C276.7,252.1,276.7,252.1,276.7,252.1 M293.1,252.1C293.1,252.1,293.1,252.1,293.1,252.1C293.1,252.1,293.1,252.1,293.1,252.1
		 M276.6,252.1C276.6,252.1,276.6,252.1,276.6,252.1C276.6,252.1,276.6,252.1,276.6,252.1 M293.1,252.1
		C293.1,252.1,293.1,252.1,293.1,252.1C293.1,252.1,293.1,252.1,293.1,252.1 M276.6,252.1C276.6,252.1,276.6,252.1,276.6,252.1
		C276.6,252.1,276.6,252.1,276.6,252.1 M293.2,252.1C293.2,252.1,293.2,252.1,293.2,252.1C293.2,252.1,293.2,252.1,293.2,252.1
		 M276.5,252.1C276.5,252.1,276.5,252.1,276.5,252.1C276.5,252.1,276.5,252.1,276.5,252.1 M293.2,252.1
		C293.2,252.1,293.2,252.1,293.2,252.1C293.2,252.1,293.2,252.1,293.2,252.1 M276.5,252.1C276.5,252.1,276.5,252.1,276.5,252.1
		C276.5,252.1,276.5,252.1,276.5,252.1 M293.3,252.1C293.3,252.1,293.3,252.1,293.3,252.1C293.3,252.1,293.3,252.1,293.3,252.1
		 M276.4,252.1C276.4,252.1,276.4,252.1,276.4,252.1C276.5,252.1,276.4,252.1,276.4,252.1 M293.3,252.1
		C293.3,252.1,293.3,252.1,293.3,252.1C293.3,252.1,293.3,252.1,293.3,252.1 M276.4,252.1C276.4,252.1,276.4,252.1,276.4,252.1
		C276.4,252.1,276.4,252.1,276.4,252.1 M293.4,252.1C293.4,252.1,293.4,252.1,293.4,252.1C293.3,252.1,293.4,252.1,293.4,252.1
		 M276.3,252.1C276.4,252.1,276.4,252.1,276.3,252.1C276.4,252.1,276.4,252.1,276.3,252.1 M293.4,252.1
		C293.4,252.1,293.4,252.1,293.4,252.1C293.4,252.1,293.4,252.1,293.4,252.1 M276.3,252.1C276.3,252.1,276.3,252.1,276.3,252.1
		C276.3,252.1,276.3,252.1,276.3,252.1 M293.5,252.1C293.4,252.1,293.4,252.1,293.5,252.1C293.4,252.1,293.4,252.1,293.5,252.1
		 M276.3,252.1C276.3,252.1,276.3,252.1,276.3,252.1C276.3,252.1,276.3,252.1,276.3,252.1 M293.5,252.1
		C293.5,252.1,293.5,252.1,293.5,252.1C293.5,252.1,293.5,252.1,293.5,252.1 M276.2,252C276.2,252,276.2,252,276.2,252
		C276.2,252,276.2,252,276.2,252 M293.5,252C293.5,252,293.5,252,293.5,252C293.5,252,293.5,252,293.5,252 M276.2,252
		C276.2,252,276.2,252,276.2,252C276.2,252,276.2,252,276.2,252 M293.6,252C293.6,252,293.6,252,293.6,252
		C293.6,252,293.6,252,293.6,252 M276.1,252C276.1,252,276.1,252,276.1,252C276.1,252,276.1,252,276.1,252 M293.6,252
		C293.6,252,293.6,252,293.6,252C293.6,252,293.6,252,293.6,252 M276.1,252C276.1,252,276.1,252,276.1,252
		C276.1,252,276.1,252,276.1,252 M293.7,252C293.7,252,293.7,252,293.7,252C293.7,252,293.7,252,293.7,252 M276,252
		C276,252,276,252,276,252C276,252,276,252,276,252 M293.7,252C293.7,252,293.7,252,293.7,252C293.7,252,293.7,252,293.7,252
		 M276,252C276,252,276,252,276,252C276,252,276,252,276,252 M293.8,252C293.8,252,293.8,252,293.8,252
		C293.8,252,293.8,252,293.8,252 M275.9,252C275.9,252,275.9,252,275.9,252C275.9,252,275.9,252,275.9,252 M293.8,252
		C293.8,252,293.8,252,293.8,252C293.8,252,293.8,252,293.8,252 M275.9,252C275.9,252,275.9,252,275.9,252
		C275.9,252,275.9,252,275.9,252 M293.9,252C293.9,252,293.9,252,293.9,252C293.9,252,293.9,252,293.9,252 M275.8,252
		C275.8,252,275.8,252,275.8,252C275.8,252,275.8,252,275.8,252 M293.9,252C293.9,252,293.9,252,293.9,252
		C293.9,252,293.9,252,293.9,252 M275.8,252C275.8,252,275.8,252,275.8,252C275.8,252,275.8,252,275.8,252 M294,252
		C294,252,294,252,294,252C294,252,294,252,294,252 M275.8,251.9L275.8,251.9C275.8,251.9,275.8,251.9,275.8,251.9 M294,251.9
		C294,251.9,294,251.9,294,251.9C294,251.9,294,251.9,294,251.9 M294,251.9C294,251.9,294,251.9,294,251.9
		C294,251.9,294,251.9,294,251.9"/>
	<path class="st5" d="M316.7,231c-5.7,7.7-17.8,13.1-31.9,13.1c-14,0-26.2-5.3-31.9-13.1c0.7,9.9,10.1,18.2,22.7,21c0,0,0,0,0,0
		c0,0,0,0,0,0c0,0,0,0,0,0c0,0,0,0,0,0c0,0,0,0,0,0c0,0,0,0,0,0c0,0,0,0,0,0c0,0,0,0,0,0c0,0,0,0,0,0c0,0,0,0,0,0c0,0,0,0,0,0
		c0,0,0,0,0,0c0,0,0,0,0,0c0,0,0,0,0,0c0,0,0,0,0,0c0,0,0,0,0,0c0,0,0,0,0,0c0,0,0,0,0,0c0,0,0,0,0,0c0,0,0,0,0,0c0,0,0,0,0,0
		c0,0,0,0,0,0c0,0,0,0,0,0c0,0,0,0,0,0c0,0,0,0,0,0c0,0,0,0,0,0c0,0,0,0,0,0c0,0,0,0,0,0c0,0,0,0,0,0c0,0,0,0,0,0c0,0,0,0,0,0
		c0,0,0,0,0,0c0,0,0,0,0,0c0,0,0,0,0,0c0,0,0,0,0,0c0,0,0,0,0,0c0,0,0,0,0,0c0,0,0,0,0,0c0,0,0,0,0,0c0,0,0,0,0,0c0,0,0,0,0,0
		c0,0,0,0,0,0c0,0,0,0,0,0c0,0,0,0,0,0c0,0,0,0,0,0c0,0,0,0,0,0c0,0,0,0,0,0c0,0,0,0,0,0c0,0,0,0,0,0c0,0,0,0,0,0c0,0,0,0,0,0
		c0,0,0,0,0,0c0,0,0,0,0,0c0,0,0,0,0,0c0,0,0,0,0,0c0,0,0,0,0,0c0,0,0,0,0,0c0,0,0,0,0,0c0,0,0,0,0,0c0,0,0,0,0,0c0,0,0,0,0,0
		c0,0,0,0,0,0c0,0,0,0,0,0c0,0,0,0,0,0c0,0,0,0,0,0c0,0,0,0,0,0c0,0,0,0,0,0c0,0,0,0,0,0c0,0,0,0,0,0c0,0,0,0,0,0c0,0,0,0,0,0
		c0,0,0,0,0,0c0,0,0,0,0,0c0,0,0,0,0,0c0,0,0,0,0,0c0,0,0,0,0,0c0,0,0,0,0,0c0,0,0,0,0,0c0,0,0,0,0,0c0,0,0,0,0,0c0,0,0,0,0,0
		c0,0,0,0,0,0c0,0,0,0,0,0c0,0,0,0,0,0c0,0,0,0,0,0c0,0,0,0,0,0c0,0,0,0,0,0c0,0,0,0,0,0c0,0,0,0,0,0c0,0,0,0,0,0c0,0,0,0,0,0
		c0,0,0,0,0,0c0,0,0,0,0,0c0,0,0,0,0,0c0,0,0,0,0,0c0,0,0,0,0,0c0,0,0,0,0,0c0,0,0,0,0,0c0,0,0,0,0,0c0,0,0,0,0,0c0,0,0,0,0,0
		c0,0,0,0,0,0c0,0,0,0,0,0c0,0,0,0,0,0c0,0,0,0,0,0c0,0,0,0,0,0c0,0,0,0,0,0c0,0,0,0,0,0c0.1,0,0.2,0,0.3,0.1c0,0,0,0,0,0
		c0,0,0,0,0,0c0,0,0,0,0,0c0,0,0,0,0,0c0,0,0,0,0,0c0,0,0,0,0,0c0,0,0,0,0,0c0,0,0,0,0,0c0,0,0,0,0,0c0,0,0,0,0,0c0,0,0,0,0,0
		c0,0,0,0,0,0c0,0,0,0,0,0c0,0,0,0,0,0c0,0,0,0,0,0c0,0,0,0,0,0c0,0,0,0,0,0c0,0,0,0,0,0c0,0,0,0,0,0c0,0,0,0,0,0c0,0,0,0,0,0
		c0,0,0,0,0,0c0,0,0,0,0,0c0,0,0,0,0,0c0,0,0,0,0,0c0,0,0,0,0,0c0,0,0,0,0,0c0,0,0,0,0,0c0,0,0,0,0,0c0,0,0,0,0,0c0,0,0,0,0,0
		c0,0,0,0,0,0c0,0,0,0,0,0c0,0,0,0,0,0c0,0,0,0,0,0c0,0,0,0,0,0c0,0,0,0,0,0c0,0,0,0,0,0c0,0,0,0,0,0c0,0,0,0,0,0c0,0,0,0,0,0
		c0,0,0,0,0,0c0,0,0,0,0,0c0,0,0,0,0,0c0,0,0,0,0,0c0,0,0,0,0,0c0,0,0,0,0,0c0.2,0,0.3,0,0.5,0.1c0,0,0,0,0,0c0,0,0,0,0,0
		c0,0,0,0,0,0c0,0,0,0,0,0c0,0,0,0,0,0c0,0,0,0,0,0c0,0,0,0,0,0c0,0,0,0,0,0c0,0,0,0,0,0c0,0,0,0,0,0c0,0,0,0,0,0c0,0,0,0,0,0
		c0,0,0,0,0,0c0,0,0,0,0,0c0,0,0,0,0,0c0,0,0,0,0,0c0,0,0,0,0,0c0,0,0,0,0,0c0,0,0,0,0,0c0,0,0,0,0,0c0,0,0,0,0,0c0,0,0,0,0,0
		c0,0,0,0,0,0c0,0,0,0,0,0c0,0,0,0,0,0c0,0,0,0,0,0c0,0,0,0,0,0c0,0,0,0,0,0c0,0,0,0,0,0c0,0,0,0,0,0c0,0,0,0,0,0c0,0,0,0,0,0
		c0,0,0,0,0,0c0,0,0,0,0,0c0,0,0,0,0,0c0,0,0,0,0,0c0,0,0,0,0,0c0,0,0,0,0,0c0,0,0,0,0,0c0,0,0,0,0,0c0,0,0,0,0,0c0,0,0,0,0,0
		c0,0,0,0,0,0c0,0,0,0,0,0c0,0,0,0,0,0c0,0,0,0,0,0l0,0c0.1,0,0.2,0,0.4,0c0,0,0,0,0,0c0,0,0,0,0,0c0,0,0,0,0,0c0,0,0,0,0,0
		c0,0,0,0,0,0c0,0,0,0,0,0c0,0,0,0,0,0c0,0,0,0,0,0c0,0,0,0,0,0c0,0,0,0,0,0c0,0,0,0,0,0c0,0,0,0,0,0c0,0,0,0,0,0c0,0,0,0,0,0
		c0,0,0,0,0,0c0,0,0,0,0,0c0,0,0,0,0,0c0,0,0,0,0,0c0,0,0,0,0,0c0,0,0,0,0,0c0,0,0,0,0,0c0,0,0,0,0,0c0,0,0,0,0,0c0,0,0,0,0,0
		c0,0,0,0,0,0c0,0,0,0,0,0c0,0,0,0,0,0c0,0,0,0,0,0c0,0,0,0,0,0c0,0,0,0,0,0c0,0,0,0,0,0c0,0,0,0,0,0c0,0,0,0,0,0c0,0,0,0,0,0
		c0,0,0,0,0,0c0,0,0,0,0,0c0,0,0,0,0,0c0,0,0,0,0,0c0,0,0,0,0,0c0,0,0,0,0,0c0,0,0,0,0,0c0,0,0,0,0,0c0,0,0,0,0,0c0,0,0,0,0,0
		c0,0,0,0,0,0c0,0,0,0,0,0c0,0,0,0,0,0c0,0,0,0,0,0c0,0,0,0,0,0c0,0,0,0,0,0c0,0,0,0,0,0c0,0,0,0,0,0c0,0,0,0,0,0c0,0,0,0,0,0
		c0,0,0,0,0,0c0.1,0,0.1,0,0.2,0c0,0,0,0,0,0c0,0,0,0,0,0c0,0,0,0,0,0c0,0,0,0,0,0c0,0,0,0,0,0c0,0,0,0,0,0c0,0,0,0,0,0c0,0,0,0,0,0
		c0,0,0,0,0,0c0,0,0,0,0,0c0,0,0,0,0,0c0,0,0,0,0,0c0,0,0,0,0,0c0,0,0,0,0,0c0,0,0,0,0,0c0,0,0,0,0,0c0,0,0,0,0,0c0,0,0,0,0,0
		c0,0,0,0,0,0c0,0,0,0,0,0c0,0,0,0,0,0c0,0,0,0,0,0c0,0,0,0,0,0c0,0,0,0,0,0c0,0,0,0,0,0c0,0,0,0,0,0c0,0,0,0,0,0c0,0,0,0,0,0
		c0,0,0,0,0,0c0,0,0,0,0,0c0,0,0,0,0,0c0,0,0,0,0,0c0,0,0,0,0,0c0,0,0,0,0,0c0,0,0,0,0,0c0,0,0,0,0,0c0,0,0,0,0,0c0,0,0,0,0,0
		c0,0,0,0,0,0c0,0,0,0,0,0c0,0,0,0,0,0c0,0,0,0,0,0c0,0,0,0,0,0c0,0,0,0,0,0c0,0,0,0,0,0c0,0,0,0,0,0c0,0,0,0,0,0c0,0,0,0,0,0
		c0,0,0,0,0,0c0,0,0,0,0,0c0,0,0,0,0,0c0,0,0,0,0,0c0,0,0,0,0,0c0,0,0,0,0,0c0,0,0,0,0,0c0,0,0,0,0,0c0,0,0,0,0,0c0,0,0,0,0,0
		c0,0,0,0,0,0c0,0,0,0,0.1,0l0,0l0,0c0,0,0,0,0.1,0c0,0,0,0,0,0c0,0,0,0,0,0c0,0,0,0,0,0c0,0,0,0,0,0c0,0,0,0,0,0c0,0,0,0,0,0
		c0,0,0,0,0,0c0,0,0,0,0,0c0,0,0,0,0,0c0,0,0,0,0,0c0,0,0,0,0,0c0,0,0,0,0,0c0,0,0,0,0,0c0,0,0,0,0,0c0,0,0,0,0,0c0,0,0,0,0,0
		c0,0,0,0,0,0c0,0,0,0,0,0c0,0,0,0,0,0c0,0,0,0,0,0c0,0,0,0,0,0c0,0,0,0,0,0c0,0,0,0,0,0c0,0,0,0,0,0c0,0,0,0,0,0c0,0,0,0,0,0
		c0,0,0,0,0,0c0,0,0,0,0,0c0,0,0,0,0,0c0,0,0,0,0,0c0,0,0,0,0,0c0,0,0,0,0,0c0,0,0,0,0,0c0,0,0,0,0,0c0,0,0,0,0,0c0,0,0,0,0,0
		c0,0,0,0,0,0c0,0,0,0,0,0c0,0,0,0,0,0c0,0,0,0,0,0c0,0,0,0,0,0c0,0,0,0,0,0c0,0,0,0,0,0c0,0,0,0,0,0c0,0,0,0,0,0c0,0,0,0,0,0
		c0,0,0,0,0,0c0,0,0,0,0,0c0,0,0,0,0,0c0,0,0,0,0,0c0,0,0,0,0,0c0,0,0,0,0,0c0,0,0,0,0,0c0,0,0,0,0,0c0,0,0,0,0,0c0,0,0,0,0,0
		c0,0,0,0,0,0c0,0,0,0,0,0c0,0,0,0,0,0c0.1,0,0.1,0,0.2,0c0,0,0,0,0,0c0,0,0,0,0,0c0,0,0,0,0,0c0,0,0,0,0,0c0,0,0,0,0,0c0,0,0,0,0,0
		c0,0,0,0,0,0c0,0,0,0,0,0c0,0,0,0,0,0c0,0,0,0,0,0c0,0,0,0,0,0c0,0,0,0,0,0c0,0,0,0,0,0c0,0,0,0,0,0c0,0,0,0,0,0c0,0,0,0,0,0
		c0,0,0,0,0,0c0,0,0,0,0,0c0,0,0,0,0,0c0,0,0,0,0,0c0,0,0,0,0,0c0,0,0,0,0,0c0,0,0,0,0,0c0,0,0,0,0,0c0,0,0,0,0,0c0,0,0,0,0,0
		c0,0,0,0,0,0c0,0,0,0,0,0c0,0,0,0,0,0c0,0,0,0,0,0c0,0,0,0,0,0c0,0,0,0,0,0c0,0,0,0,0,0c0,0,0,0,0,0c0,0,0,0,0,0c0,0,0,0,0,0
		c0,0,0,0,0,0c0,0,0,0,0,0c0,0,0,0,0,0c0,0,0,0,0,0c0,0,0,0,0,0c0,0,0,0,0,0c0,0,0,0,0,0c0,0,0,0,0,0c0,0,0,0,0,0c0,0,0,0,0,0
		c0,0,0,0,0,0c0,0,0,0,0,0c0,0,0,0,0,0c0,0,0,0,0,0c0,0,0,0,0,0c0,0,0,0,0,0c0,0,0,0,0,0c0,0,0,0,0,0c0,0,0,0,0,0c0.1,0,0.3,0,0.4,0
		c0,0,0,0,0,0c0,0,0,0,0,0c0,0,0,0,0,0c0,0,0,0,0,0c0,0,0,0,0,0c0,0,0,0,0,0c0,0,0,0,0,0c0,0,0,0,0,0c0,0,0,0,0,0c0,0,0,0,0,0
		c0,0,0,0,0,0c0,0,0,0,0,0c0,0,0,0,0,0c0,0,0,0,0,0c0,0,0,0,0,0c0,0,0,0,0,0c0,0,0,0,0,0c0,0,0,0,0,0c0,0,0,0,0,0c0,0,0,0,0,0
		c0,0,0,0,0,0c0,0,0,0,0,0c0,0,0,0,0,0c0,0,0,0,0,0c0,0,0,0,0,0c0,0,0,0,0,0c0,0,0,0,0,0c0,0,0,0,0,0c0,0,0,0,0,0c0,0,0,0,0,0
		c0,0,0,0,0,0c0,0,0,0,0,0c0,0,0,0,0,0c0,0,0,0,0,0c0,0,0,0,0,0c0,0,0,0,0,0c0,0,0,0,0,0c0,0,0,0,0,0c0,0,0,0,0,0c0,0,0,0,0,0
		c0,0,0,0,0,0c0.2,0,0.4,0,0.6-0.1c0,0,0,0,0,0c0,0,0,0,0,0c0,0,0,0,0,0c0,0,0,0,0,0c0,0,0,0,0,0c0,0,0,0,0,0c0,0,0,0,0,0
		c0,0,0,0,0,0c0,0,0,0,0,0c0,0,0,0,0,0c0,0,0,0,0,0c0,0,0,0,0,0c0,0,0,0,0,0c0,0,0,0,0,0c0,0,0,0,0,0c0,0,0,0,0,0c0,0,0,0,0,0
		c0,0,0,0,0,0c0,0,0,0,0,0c0,0,0,0,0,0c0,0,0,0,0,0c0,0,0,0,0,0c0,0,0,0,0,0c0,0,0,0,0,0c0,0,0,0,0,0c0,0,0,0,0,0c0,0,0,0,0,0
		c0,0,0,0,0,0c0,0,0,0,0,0c0,0,0,0,0,0c0,0,0,0,0,0c0,0,0,0,0,0c0,0,0,0,0,0c0,0,0,0,0,0c0,0,0,0,0,0c0,0,0,0,0,0c0,0,0,0,0,0
		c0,0,0,0,0,0c0,0,0,0,0,0c0,0,0,0,0,0c0,0,0,0,0,0c0,0,0,0,0,0c0,0,0,0,0,0c0,0,0,0,0,0c0,0,0,0,0,0c0.1,0,0.3,0,0.4-0.1l0,0
		c0,0,0,0,0,0l0,0c0,0,0,0,0,0c0,0,0,0,0,0c0,0,0,0,0,0c0,0,0,0,0,0c0,0,0,0,0,0c0,0,0,0,0,0c0,0,0,0,0,0c0,0,0,0,0,0c0,0,0,0,0,0
		c0,0,0,0,0,0c0,0,0,0,0,0c0,0,0,0,0,0c0,0,0,0,0,0c0,0,0,0,0,0c0,0,0,0,0,0c0,0,0,0,0,0c0,0,0,0,0,0c0,0,0,0,0,0c0,0,0,0,0,0
		c0,0,0,0,0,0c0,0,0,0,0,0c0,0,0,0,0,0c0,0,0,0,0,0c0,0,0,0,0,0c0,0,0,0,0,0c0,0,0,0,0,0c0,0,0,0,0,0c0,0,0,0,0,0c0,0,0,0,0,0
		c0,0,0,0,0,0c0,0,0,0,0,0c0,0,0,0,0,0c0,0,0,0,0,0c0,0,0,0,0,0c0,0,0,0,0,0c0,0,0,0,0,0c0,0,0,0,0,0c0,0,0,0,0,0c0,0,0,0,0,0
		c0,0,0,0,0,0c0,0,0,0,0,0c0,0,0,0,0,0c0,0,0,0,0,0c0,0,0,0,0,0c0,0,0,0,0,0c0,0,0,0,0,0c0,0,0,0,0,0c0,0,0,0,0,0c0,0,0,0,0,0
		c0,0,0,0,0,0c0,0,0,0,0,0l0,0c0,0,0.1,0,0.1,0c0,0,0,0,0,0c0,0,0,0,0,0c0,0,0,0,0,0c0,0,0,0,0,0c0,0,0,0,0,0c0,0,0,0,0,0
		c0,0,0,0,0,0c0,0,0,0,0,0c0,0,0,0,0,0c0,0,0,0,0,0c0,0,0,0,0,0c0,0,0,0,0,0c0,0,0,0,0,0c0,0,0,0,0,0c0,0,0,0,0,0c0,0,0,0,0,0
		c0,0,0,0,0,0c0,0,0,0,0,0c0,0,0,0,0,0c0,0,0,0,0,0c0,0,0,0,0,0c0,0,0,0,0,0c0,0,0,0,0,0c0,0,0,0,0,0c0,0,0,0,0,0c0,0,0,0,0,0
		c0,0,0,0,0,0c0,0,0,0,0,0c0,0,0,0,0,0c0,0,0,0,0,0c0,0,0,0,0,0c0,0,0,0,0,0c0,0,0,0,0,0c0,0,0,0,0,0c0,0,0,0,0,0c0,0,0,0,0,0
		c0,0,0,0,0,0c0,0,0,0,0,0c0,0,0,0,0,0c0,0,0,0,0,0c0,0,0,0,0,0c0,0,0,0,0,0c0,0,0,0,0,0c0,0,0,0,0,0c0,0,0,0,0,0c0,0,0,0,0,0
		c0,0,0,0,0,0c0,0,0,0,0,0c0,0,0,0,0,0c0,0,0,0,0,0C306.7,249.2,316.1,240.9,316.7,231"/>
	<path class="st6" d="M286.8,210.1c-0.9,0-1.7,0-2.6,0.1c-1,0.1-1.9,0.1-2.9,0.3l-1.4,0.2l-1.4,0.3c-1.9,0.4-3.7,1-5.5,1.7
		c-3.5,1.4-6.9,3.4-9.7,5.8l0.2,0.2c3.1-2,6.5-3.6,10.1-4.6c1.8-0.5,3.6-0.9,5.4-1.2l1.4-0.2l1.4-0.1c0.5,0,1-0.1,1.5-0.1
		c0.2,0,0.3,0,0.5,0c0.2,0,0.3,0,0.5,0c0.1,0,0.1,0,0.2,0c0.9,0,1.8,0.1,2.7,0.2c0.9,0.1,1.8,0.2,2.7,0.4c1.8,0.3,3.5,0.7,5.3,1.2
		c3.5,0.8,6.9,2,10.5,3.4l0.2-0.3c-1.3-1.4-2.9-2.5-4.6-3.5c-1.7-1-3.4-1.8-5.3-2.5C292.9,210.4,289.8,210.1,286.8,210.1"/>
	<path class="st7" d="M110.2,95.2l20.5-22.6c0,0,31.5,1,38.6-6.5c7.1-7.5,26.2-13.2,35.2-14.9c9-1.7,23.9-5.3,23.9-5.3l20.7,13.9
		c0,0-27.7,31.7-46.4,31.8C184.2,91.7,118.4,104,110.2,95.2"/>
	<path class="st8" d="M208.2,50.5c-1.3,0.3-2.5,0.5-3.6,0.7c-6.5,1.2-18.4,4.5-27.1,9.1v0c8.7-4.6,20.5-7.9,27.1-9.1
		C205.7,51,206.9,50.8,208.2,50.5C208.2,50.5,208.2,50.5,208.2,50.5"/>
	<path class="st9" d="M110.3,95.3C110.3,95.3,110.3,95.3,110.3,95.3C110.3,95.3,110.3,95.3,110.3,95.3 M110.2,95.3
		C110.2,95.3,110.2,95.3,110.2,95.3C110.2,95.3,110.2,95.3,110.2,95.3 M110.2,95.2C110.2,95.2,110.2,95.2,110.2,95.2
		C110.2,95.2,110.2,95.2,110.2,95.2 M134.4,72.7L134.4,72.7L134.4,72.7L134.4,72.7 M169.1,66.3c-5.9,5.8-26.4,6.4-34.8,6.4
		C142.8,72.7,163.3,72.1,169.1,66.3 M169.2,66.2C169.2,66.2,169.2,66.3,169.2,66.2C169.2,66.3,169.2,66.2,169.2,66.2 M169.3,66.2
		C169.3,66.2,169.3,66.2,169.3,66.2C169.3,66.2,169.3,66.2,169.3,66.2 M177.5,60.4c-3.3,1.8-6.2,3.7-8.2,5.8l0,0l0,0
		C171.3,64.1,174.2,62.1,177.5,60.4L177.5,60.4"/>
	<path class="st10" d="M110.3,95.3C110.3,95.3,110.3,95.3,110.3,95.3C110.3,95.3,110.3,95.3,110.3,95.3
		C110.3,95.3,110.3,95.3,110.3,95.3C110.3,95.3,110.3,95.3,110.3,95.3 M110.2,95.3L110.2,95.3C110.2,95.3,110.2,95.3,110.2,95.3
		C110.2,95.3,110.2,95.3,110.2,95.3C110.2,95.3,110.2,95.3,110.2,95.3 M110.2,95.2C110.2,95.2,110.2,95.2,110.2,95.2
		C110.2,95.2,110.2,95.2,110.2,95.2L110.2,95.2C110.2,95.2,110.2,95.2,110.2,95.2 M208.2,50.5c-1.3,0.3-2.5,0.5-3.6,0.7
		c-6.5,1.2-18.4,4.5-27.1,9.1c-3.3,1.8-6.2,3.7-8.2,5.8l0,0c0,0,0,0,0,0c0,0,0,0-0.1,0.1c0,0,0,0,0,0c0,0,0,0-0.1,0.1c0,0,0,0,0,0
		c-5.9,5.8-26.4,6.4-34.8,6.4h0l0,0l0,0h0c-2.3,0-3.6,0-3.6,0l0,0l-20.5,22.6l2.6-2.9c0.5-0.2,0.9-0.3,1-0.3c1-0.4,3.9-1.4,7.7-2.8
		c3.2-4.6,7.5-10.5,9-10.5c0,0,0,0,0,0c0.2,0,0.4,0,0.7,0c4.5,0,23.9-1.3,26.2-2.6c1.1-0.6,5.1-2.8,9.9-5.3
		C184.1,58.2,199.9,54.1,208.2,50.5"/>
	<path class="st3" d="M118,94.7c0,0,10.2-16.2,12.7-15.9c2.4,0.2,24.4-1.2,26.9-2.6c2.5-1.4,19.5-10.5,27.9-13.9
		c8.4-3.4,30.9-11.2,35.7-10.8c1.7,0.1,2.9-0.1,3.9-0.3c1.8-0.4,3-0.7,4.9,1c3,2.7,14.9,8.1,14.3,13.3
		C243.7,70.7,155.1,105.8,118,94.7"/>
	<path class="st7" d="M249.2,59.8l-2.4-1.6c-0.2,0.2-0.4,0.3-0.5,0.3c-7.1,3.1-46.8,20.6-56,20.5c-10.1-0.1-33.6,1.1-41.5,2
		c-7.3,0.8-31.5,9.7-34.9,11c-0.1,0-0.5,0.2-1,0.3l-2.6,2.9c8.2,8.8,74-3.6,92.6-3.6C221.4,91.5,249.2,59.8,249.2,59.8"/>
	<path class="st7" d="M110,95.6l-7.3,9.8c-0.7,0.9-0.1,2.2,1,2.3l9.1,0.8c1,0.1,1.6,1.1,1.2,2l-4.2,9.8c-0.4,1,0.4,2.2,1.5,2
		l8.7-1.4c0.9-0.2,1.7,0.6,1.7,1.5L121,131c-0.1,1.1,1,1.9,2,1.4l9.9-4.2c1-0.4,2.1,0.4,2,1.4l-0.8,9.9c-0.1,1,0.9,1.8,1.9,1.5
		l8.1-2.7c0.8-0.3,1.7,0.2,1.9,1l2.2,9.6c0.2,1,1.3,1.4,2.2,0.9l8.2-5.3c0.7-0.4,1.5-0.2,2,0.4l6.2,9.3c0.5,0.8,1.6,0.9,2.2,0.2
		l8-7.9c0.7-0.7,1.8-0.5,2.2,0.3l5.1,8.5c0.5,0.9,1.8,0.9,2.4,0.1l6.8-9.1c0.5-0.7,1.6-0.8,2.2-0.1l7.1,7.7c0.7,0.7,1.9,0.6,2.3-0.3
		l4.3-8.5c0.4-0.7,1.2-1,1.9-0.6l8.9,4.4c0.8,0.4,1.7,0,2-0.9l3.5-11.4c0.2-0.7,0.9-1.1,1.6-1l12.4,2.3c1.1,0.2,1.9-0.8,1.6-1.8
		l-2.7-8.8c-0.2-0.8,0.2-1.6,1-1.8l10.9-2.9c0.9-0.2,1.3-1.2,0.9-2.1l-4.6-8.6c-0.4-0.8,0-1.8,0.9-2.1l8.8-2.1
		c0.9-0.2,1.4-1.3,0.9-2.1l-5.4-9.7c-0.4-0.7-0.1-1.6,0.7-2l9.9-4.6c1-0.4,1.1-1.8,0.3-2.4l-8.1-6.4c-0.7-0.6-0.7-1.7,0.1-2.3
		l7.9-5.6c0.8-0.6,0.8-1.8-0.1-2.4l-11-7.1c-0.2-0.1-0.3-0.3-0.4-0.4l-1.3-2.1c-0.4-0.6-1.1-0.8-1.8-0.6
		c-7.4,3.3-48.6,21.3-58.2,21.3c-10.5-0.1-34.9,1.1-43.1,2.1c-7.6,0.9-32.7,10.1-36.2,11.4C110.4,95.2,110.1,95.3,110,95.6"/>
	<path class="st11" d="M248.6,60.2c-0.2,0-0.4,0-0.6,0.1c-7.4,3.3-48.5,21.3-58.1,21.3c0,0,0,0,0,0c-0.3,0-0.5,0-0.8,0
		c-10.9,0-34.3,1.2-42.2,2.1c-7.6,0.9-32.7,10.1-36.2,11.4c-0.3,0.1-0.5,0.3-0.6,0.5l-7.3,9.8c-0.2,0.3-0.3,0.6-0.3,0.9
		c0,0.7,0.5,1.4,1.3,1.4l9.1,0.8c0.8,0.1,1.3,0.7,1.3,1.4c0,0.2,0,0.4-0.1,0.6l-4.2,9.8c-0.1,0.2-0.1,0.4-0.1,0.6
		c0,0.8,0.6,1.4,1.4,1.4c0.1,0,0.2,0,0.2,0l8.7-1.4c0.1,0,0.2,0,0.2,0c0.3,0,0.6,0.1,0.9,0.3c0.7,0,1.5-0.1,2.2-0.1
		c9.3,0,17.7,3.1,23.1,8.1l17.2-9.8l1.3-3.5l12.6-5.5l36.6,34c1.2-6.9,4.3-13.7,8.2-18.6c1.8-2.2,3.8-4.8,7.2-6.7
		c2-1.6,5.4-3.9,10.9-7.6c2.4-1.6,4.5-3.1,6.6-4.4c3.1-2.1,0.9-2,0.9-2.4c0-0.4,1-0.7,1.1-0.7c1.4-0.4,3.1-1.7,5.3-3.1l-2.5-4.5
		c-0.1-0.2-0.2-0.5-0.2-0.7c0-0.5,0.3-1.1,0.8-1.3l9.9-4.6c0.5-0.3,0.8-0.8,0.8-1.3c0-0.4-0.2-0.8-0.5-1.1l-8.1-6.4
		c-0.4-0.3-0.5-0.7-0.5-1.1c0-0.4,0.2-0.9,0.6-1.2l7.9-5.6c0.4-0.3,0.6-0.7,0.6-1.2c0-0.5-0.2-0.9-0.7-1.2l-11-7.1
		c-0.2-0.1-0.3-0.3-0.4-0.4l-1.3-2.1C249.6,60.4,249.1,60.2,248.6,60.2"/>
	<path class="st12" d="M152.9,142.3c0,11.8-13.2,21.3-29.4,21.3c-16.3,0-29.4-9.5-29.4-21.3c0-11.8,13.2-21.3,29.4-21.3
		C139.7,121,152.9,130.6,152.9,142.3"/>
	<path class="st12" d="M123.4,163.6C123.4,163.6,123.4,163.6,123.4,163.6C123.4,163.6,123.4,163.6,123.4,163.6 M123.5,163.6
		C123.5,163.6,123.5,163.6,123.5,163.6C123.5,163.6,123.5,163.6,123.5,163.6 M123.3,163.6C123.4,163.6,123.4,163.6,123.3,163.6
		C123.4,163.6,123.4,163.6,123.3,163.6 M123.5,163.6C123.5,163.6,123.5,163.6,123.5,163.6C123.5,163.6,123.5,163.6,123.5,163.6
		 M123.3,163.6C123.3,163.6,123.3,163.6,123.3,163.6C123.3,163.6,123.3,163.6,123.3,163.6 M123.6,163.6
		C123.6,163.6,123.6,163.6,123.6,163.6C123.6,163.6,123.6,163.6,123.6,163.6 M123.2,163.6C123.3,163.6,123.3,163.6,123.2,163.6
		C123.3,163.6,123.3,163.6,123.2,163.6 M123.6,163.6C123.6,163.6,123.6,163.6,123.6,163.6C123.6,163.6,123.6,163.6,123.6,163.6
		 M123.2,163.6C123.2,163.6,123.2,163.6,123.2,163.6C123.2,163.6,123.2,163.6,123.2,163.6 M123.7,163.6
		C123.7,163.6,123.7,163.6,123.7,163.6C123.7,163.6,123.7,163.6,123.7,163.6 M123.2,163.6C123.2,163.6,123.2,163.6,123.2,163.6
		C123.2,163.6,123.2,163.6,123.2,163.6 M123.7,163.6C123.7,163.6,123.7,163.6,123.7,163.6C123.7,163.6,123.7,163.6,123.7,163.6
		 M123.1,163.6C123.1,163.6,123.1,163.6,123.1,163.6C123.1,163.6,123.1,163.6,123.1,163.6 M123.8,163.6
		C123.8,163.6,123.7,163.6,123.8,163.6C123.7,163.6,123.8,163.6,123.8,163.6 M123.1,163.6C123.1,163.6,123.1,163.6,123.1,163.6
		C123.1,163.6,123.1,163.6,123.1,163.6 M123.8,163.6C123.8,163.6,123.8,163.6,123.8,163.6C123.8,163.6,123.8,163.6,123.8,163.6
		 M123,163.6C123,163.6,123,163.6,123,163.6C123,163.6,123,163.6,123,163.6 M123.9,163.6C123.8,163.6,123.8,163.6,123.9,163.6
		C123.8,163.6,123.8,163.6,123.9,163.6 M123,163.6C123,163.6,123,163.6,123,163.6C123,163.6,123,163.6,123,163.6 M123.9,163.6
		C123.9,163.6,123.9,163.6,123.9,163.6C123.9,163.6,123.9,163.6,123.9,163.6 M122.9,163.6C122.9,163.6,122.9,163.6,122.9,163.6
		C122.9,163.6,122.9,163.6,122.9,163.6 M124,163.6C123.9,163.6,123.9,163.6,124,163.6C123.9,163.6,123.9,163.6,124,163.6
		 M122.9,163.6C122.9,163.6,122.9,163.6,122.9,163.6C122.9,163.6,122.9,163.6,122.9,163.6 M124,163.6C124,163.6,124,163.6,124,163.6
		C124,163.6,124,163.6,124,163.6 M122.8,163.6C122.8,163.6,122.8,163.6,122.8,163.6C122.8,163.6,122.8,163.6,122.8,163.6 M124,163.6
		C124,163.6,124,163.6,124,163.6C124,163.6,124,163.6,124,163.6 M122.8,163.6C122.8,163.6,122.8,163.6,122.8,163.6
		C122.8,163.6,122.8,163.6,122.8,163.6 M124.1,163.6C124.1,163.6,124.1,163.6,124.1,163.6C124.1,163.6,124.1,163.6,124.1,163.6
		 M122.7,163.6C122.7,163.6,122.7,163.6,122.7,163.6C122.7,163.6,122.7,163.6,122.7,163.6 M124.1,163.6
		C124.1,163.6,124.1,163.6,124.1,163.6C124.1,163.6,124.1,163.6,124.1,163.6 M122.7,163.6C122.7,163.6,122.7,163.6,122.7,163.6
		C122.7,163.6,122.7,163.6,122.7,163.6 M124.2,163.6C124.2,163.6,124.2,163.6,124.2,163.6C124.2,163.6,124.2,163.6,124.2,163.6
		 M122.6,163.6C122.6,163.6,122.7,163.6,122.6,163.6C122.7,163.6,122.6,163.6,122.6,163.6 M124.2,163.6
		C124.2,163.6,124.2,163.6,124.2,163.6C124.2,163.6,124.2,163.6,124.2,163.6 M122.6,163.6C122.6,163.6,122.6,163.6,122.6,163.6
		C122.6,163.6,122.6,163.6,122.6,163.6 M124.3,163.6C124.3,163.6,124.3,163.6,124.3,163.6C124.3,163.6,124.3,163.6,124.3,163.6
		 M122.5,163.6C122.6,163.6,122.6,163.6,122.5,163.6C122.6,163.6,122.6,163.6,122.5,163.6 M124.3,163.6
		C124.3,163.6,124.3,163.6,124.3,163.6C124.3,163.6,124.3,163.6,124.3,163.6 M122.5,163.6C122.5,163.6,122.5,163.6,122.5,163.6
		C122.5,163.6,122.5,163.6,122.5,163.6 M124.4,163.6C124.4,163.6,124.4,163.6,124.4,163.6C124.4,163.6,124.4,163.6,124.4,163.6
		 M122.5,163.6C122.5,163.6,122.5,163.6,122.5,163.6C122.5,163.6,122.5,163.6,122.5,163.6 M124.4,163.6
		C124.4,163.6,124.4,163.6,124.4,163.6C124.4,163.6,124.4,163.6,124.4,163.6 M122.4,163.6C122.4,163.6,122.4,163.6,122.4,163.6
		C122.4,163.6,122.4,163.6,122.4,163.6 M124.5,163.6C124.5,163.6,124.4,163.6,124.5,163.6C124.4,163.6,124.5,163.6,124.5,163.6
		 M122.4,163.6C122.4,163.6,122.4,163.6,122.4,163.6C122.4,163.6,122.4,163.6,122.4,163.6 M124.5,163.6
		C124.5,163.6,124.5,163.6,124.5,163.6C124.5,163.6,124.5,163.6,124.5,163.6 M122.3,163.6C122.3,163.6,122.3,163.6,122.3,163.6
		C122.3,163.6,122.3,163.6,122.3,163.6 M124.6,163.6C124.5,163.6,124.5,163.6,124.6,163.6C124.5,163.6,124.5,163.6,124.6,163.6
		 M122.3,163.6C122.3,163.6,122.3,163.6,122.3,163.6C122.3,163.6,122.3,163.6,122.3,163.6 M124.6,163.6
		C124.6,163.6,124.6,163.6,124.6,163.6C124.6,163.6,124.6,163.6,124.6,163.6 M122.2,163.6C122.2,163.6,122.2,163.6,122.2,163.6
		C122.2,163.6,122.2,163.6,122.2,163.6 M124.7,163.6C124.6,163.6,124.6,163.6,124.7,163.6C124.6,163.6,124.6,163.6,124.7,163.6
		 M122.2,163.6C122.2,163.6,122.2,163.6,122.2,163.6C122.2,163.6,122.2,163.6,122.2,163.6 M124.7,163.6
		C124.7,163.6,124.7,163.6,124.7,163.6C124.7,163.6,124.7,163.6,124.7,163.6 M122.1,163.6C122.1,163.6,122.1,163.6,122.1,163.6
		C122.1,163.6,122.1,163.6,122.1,163.6 M124.7,163.6C124.7,163.6,124.7,163.6,124.7,163.6C124.7,163.6,124.7,163.6,124.7,163.6
		 M122.1,163.6C122.1,163.6,122.1,163.6,122.1,163.6C122.1,163.6,122.1,163.6,122.1,163.6 M124.8,163.6
		C124.8,163.6,124.8,163.6,124.8,163.6C124.8,163.6,124.8,163.6,124.8,163.6 M124.8,163.6C124.8,163.6,124.8,163.6,124.8,163.6
		C124.8,163.6,124.8,163.6,124.8,163.6 M124.9,163.6C124.9,163.6,124.9,163.6,124.9,163.6C124.9,163.6,124.9,163.6,124.9,163.6
		 M125,163.6C125,163.6,125,163.6,125,163.6C125,163.6,125,163.6,125,163.6 M125,163.6C125,163.6,125,163.6,125,163.6
		C125,163.6,125,163.6,125,163.6 M125.1,163.6C125.1,163.6,125.1,163.6,125.1,163.6C125.1,163.6,125.1,163.6,125.1,163.6
		 M121.7,163.6C121.7,163.6,121.7,163.6,121.7,163.6C121.7,163.6,121.7,163.6,121.7,163.6 M125.1,163.6
		C125.1,163.6,125.1,163.6,125.1,163.6C125.1,163.6,125.1,163.6,125.1,163.6 M121.7,163.6C121.7,163.6,121.7,163.6,121.7,163.6
		C121.7,163.6,121.7,163.6,121.7,163.6 M125.2,163.6C125.2,163.6,125.2,163.6,125.2,163.6C125.2,163.6,125.2,163.6,125.2,163.6
		 M121.6,163.6C121.6,163.6,121.7,163.6,121.6,163.6C121.7,163.6,121.6,163.6,121.6,163.6 M125.2,163.6
		C125.2,163.6,125.2,163.6,125.2,163.6C125.2,163.6,125.2,163.6,125.2,163.6 M121.6,163.6C121.6,163.6,121.6,163.6,121.6,163.6
		C121.6,163.6,121.6,163.6,121.6,163.6 M125.3,163.6C125.3,163.6,125.3,163.6,125.3,163.6C125.3,163.6,125.3,163.6,125.3,163.6
		 M121.6,163.6C121.6,163.6,121.6,163.6,121.6,163.6C121.6,163.6,121.6,163.6,121.6,163.6 M125.3,163.6
		C125.3,163.6,125.3,163.6,125.3,163.6C125.3,163.6,125.3,163.6,125.3,163.6 M121.5,163.6C121.5,163.6,121.5,163.6,121.5,163.6
		C121.5,163.6,121.5,163.6,121.5,163.6 M125.4,163.6C125.4,163.6,125.4,163.6,125.4,163.6C125.4,163.6,125.4,163.6,125.4,163.6
		 M121.5,163.5C121.5,163.5,121.5,163.5,121.5,163.5C121.5,163.5,121.5,163.5,121.5,163.5 M125.4,163.5
		C125.4,163.5,125.4,163.6,125.4,163.5C125.4,163.6,125.4,163.5,125.4,163.5 M121.4,163.5C121.4,163.5,121.4,163.5,121.4,163.5
		C121.4,163.5,121.4,163.5,121.4,163.5 M125.5,163.5C125.5,163.5,125.4,163.5,125.5,163.5C125.4,163.5,125.5,163.5,125.5,163.5
		 M121.4,163.5C121.4,163.5,121.4,163.5,121.4,163.5C121.4,163.5,121.4,163.5,121.4,163.5 M125.5,163.5
		C125.5,163.5,125.5,163.5,125.5,163.5C125.5,163.5,125.5,163.5,125.5,163.5 M121.3,163.5C121.3,163.5,121.3,163.5,121.3,163.5
		C121.3,163.5,121.3,163.5,121.3,163.5 M125.5,163.5C125.5,163.5,125.5,163.5,125.5,163.5C125.5,163.5,125.5,163.5,125.5,163.5
		 M121.3,163.5C121.3,163.5,121.3,163.5,121.3,163.5C121.3,163.5,121.3,163.5,121.3,163.5 M125.6,163.5
		C125.6,163.5,125.6,163.5,125.6,163.5C125.6,163.5,125.6,163.5,125.6,163.5 M121.2,163.5C121.2,163.5,121.2,163.5,121.2,163.5
		C121.2,163.5,121.2,163.5,121.2,163.5 M125.6,163.5C125.6,163.5,125.6,163.5,125.6,163.5C125.6,163.5,125.6,163.5,125.6,163.5
		 M121.2,163.5C121.2,163.5,121.2,163.5,121.2,163.5C121.2,163.5,121.2,163.5,121.2,163.5 M125.7,163.5
		C125.7,163.5,125.7,163.5,125.7,163.5C125.7,163.5,125.7,163.5,125.7,163.5 M121.1,163.5C121.1,163.5,121.1,163.5,121.1,163.5
		C121.1,163.5,121.1,163.5,121.1,163.5 M125.7,163.5C125.7,163.5,125.7,163.5,125.7,163.5C125.7,163.5,125.7,163.5,125.7,163.5
		 M121.1,163.5C121.1,163.5,121.1,163.5,121.1,163.5C121.1,163.5,121.1,163.5,121.1,163.5 M125.8,163.5
		C125.8,163.5,125.8,163.5,125.8,163.5C125.8,163.5,125.8,163.5,125.8,163.5 M121.1,163.5L121.1,163.5L121.1,163.5 M125.8,163.5
		C125.8,163.5,125.8,163.5,125.8,163.5C125.8,163.5,125.8,163.5,125.8,163.5 M121,163.5L121,163.5L121,163.5 M125.9,163.5
		C125.9,163.5,125.9,163.5,125.9,163.5C125.9,163.5,125.9,163.5,125.9,163.5 M121,163.5L121,163.5L121,163.5 M125.9,163.5
		C125.9,163.5,125.9,163.5,125.9,163.5C125.9,163.5,125.9,163.5,125.9,163.5 M126,163.5C126,163.5,125.9,163.5,126,163.5
		C125.9,163.5,126,163.5,126,163.5 M126,163.5C126,163.5,126,163.5,126,163.5C126,163.5,126,163.5,126,163.5 M126.1,163.5
		C126,163.5,126,163.5,126.1,163.5C126,163.5,126,163.5,126.1,163.5 M126.1,163.5C126.1,163.5,126.1,163.5,126.1,163.5
		C126.1,163.5,126.1,163.5,126.1,163.5 M126.1,163.5C126.1,163.5,126.1,163.5,126.1,163.5C126.1,163.5,126.1,163.5,126.1,163.5
		 M126.2,163.5C126.2,163.5,126.2,163.5,126.2,163.5C126.2,163.5,126.2,163.5,126.2,163.5 M126.2,163.5
		C126.2,163.5,126.2,163.5,126.2,163.5C126.2,163.5,126.2,163.5,126.2,163.5 M126.3,163.5C126.3,163.5,126.3,163.5,126.3,163.5
		C126.3,163.5,126.3,163.5,126.3,163.5 M126.6,163.5C126.6,163.5,126.6,163.5,126.6,163.5C126.6,163.5,126.6,163.5,126.6,163.5
		 M126.7,163.5C126.7,163.5,126.7,163.5,126.7,163.5C126.7,163.5,126.7,163.5,126.7,163.5 M126.7,163.5
		C126.7,163.5,126.7,163.5,126.7,163.5C126.7,163.5,126.7,163.5,126.7,163.5 M126.8,163.5C126.8,163.5,126.8,163.5,126.8,163.5
		C126.8,163.5,126.8,163.5,126.8,163.5 M126.8,163.5C126.8,163.5,126.8,163.5,126.8,163.5C126.8,163.5,126.8,163.5,126.8,163.5
		 M126.9,163.5C126.8,163.5,126.8,163.5,126.9,163.5C126.8,163.5,126.8,163.5,126.9,163.5 M126.9,163.5
		C126.9,163.5,126.9,163.5,126.9,163.5C126.9,163.5,126.9,163.5,126.9,163.5 M126.9,163.4C126.9,163.4,126.9,163.4,126.9,163.4
		C126.9,163.4,126.9,163.4,126.9,163.4 M127,163.4C127,163.4,127,163.4,127,163.4C127,163.4,127,163.4,127,163.4 M127,163.4
		C127,163.4,127,163.4,127,163.4C127,163.4,127,163.4,127,163.4 M127.1,163.4C127.1,163.4,127.1,163.4,127.1,163.4
		C127.1,163.4,127.1,163.4,127.1,163.4 M127.1,163.4C127.1,163.4,127.1,163.4,127.1,163.4C127.1,163.4,127.1,163.4,127.1,163.4
		 M127.2,163.4C127.2,163.4,127.2,163.4,127.2,163.4C127.2,163.4,127.2,163.4,127.2,163.4 M127.2,163.4
		C127.2,163.4,127.2,163.4,127.2,163.4C127.2,163.4,127.2,163.4,127.2,163.4 M127.3,163.4C127.3,163.4,127.3,163.4,127.3,163.4
		C127.3,163.4,127.3,163.4,127.3,163.4 M127.3,163.4C127.3,163.4,127.3,163.4,127.3,163.4C127.3,163.4,127.3,163.4,127.3,163.4
		 M127.3,163.4C127.3,163.4,127.3,163.4,127.3,163.4C127.3,163.4,127.3,163.4,127.3,163.4 M127.4,163.4
		C127.4,163.4,127.4,163.4,127.4,163.4C127.4,163.4,127.4,163.4,127.4,163.4 M127.4,163.4C127.4,163.4,127.4,163.4,127.4,163.4
		C127.4,163.4,127.4,163.4,127.4,163.4 M127.5,163.4C127.5,163.4,127.5,163.4,127.5,163.4C127.5,163.4,127.5,163.4,127.5,163.4
		 M127.5,163.4C127.5,163.4,127.5,163.4,127.5,163.4C127.5,163.4,127.5,163.4,127.5,163.4 M127.6,163.4
		C127.6,163.4,127.6,163.4,127.6,163.4C127.6,163.4,127.6,163.4,127.6,163.4"/>
	<path class="st13" d="M94,143.4c0.7,10.7,12.3,19.3,26.9,20.2l0,0c0,0,0,0,0,0l0,0c0,0,0,0,0,0l0,0c0,0,0,0,0,0c0,0,0,0,0,0
		c0,0,0,0,0,0c0,0,0,0,0,0c0,0,0,0,0,0c0,0,0,0,0,0c0,0,0,0,0,0c0,0,0,0,0,0c0,0,0,0,0,0c0,0,0,0,0,0c0,0,0,0,0,0c0,0,0,0,0,0
		c0,0,0,0,0,0c0,0,0,0,0,0c0,0,0,0,0,0c0,0,0,0,0,0c0,0,0,0,0,0c0,0,0,0,0,0c0,0,0,0,0,0c0,0,0,0,0,0c0,0,0,0,0,0c0,0,0,0,0,0
		c0,0,0,0,0,0c0,0,0,0,0,0c0,0,0,0,0,0c0,0,0,0,0,0c0,0,0,0,0,0c0,0,0,0,0,0c0,0,0,0,0,0c0,0,0,0,0,0c0.1,0,0.2,0,0.3,0c0,0,0,0,0,0
		c0,0,0,0,0,0c0,0,0,0,0,0c0,0,0,0,0,0c0,0,0,0,0,0c0,0,0,0,0,0c0,0,0,0,0,0c0,0,0,0,0,0c0,0,0,0,0,0c0,0,0,0,0,0c0,0,0,0,0,0
		c0,0,0,0,0,0c0,0,0,0,0,0c0,0,0,0,0,0c0,0,0,0,0,0c0,0,0,0,0,0c0,0,0,0,0,0c0,0,0,0,0,0c0,0,0,0,0,0c0,0,0,0,0,0c0,0,0,0,0,0
		c0,0,0,0,0,0c0,0,0,0,0,0c0,0,0,0,0,0c0,0,0,0,0,0c0,0,0,0,0,0c0,0,0,0,0,0c0,0,0,0,0,0c0,0,0,0,0,0c0,0,0,0,0,0c0,0,0,0,0,0
		c0,0,0,0,0,0c0,0,0,0,0,0c0,0,0,0,0,0c0,0,0,0,0,0c0,0,0,0,0,0c0,0,0,0,0,0c0,0,0,0,0,0c0,0,0,0,0,0c0,0,0,0,0,0c0,0,0,0,0,0
		c0,0,0,0,0,0c0,0,0,0,0,0c0,0,0,0,0,0c0,0,0,0,0,0c0,0,0,0,0,0c0,0,0,0,0,0c0,0,0,0,0,0c0,0,0,0,0,0c0,0,0,0,0,0c0,0,0,0,0,0
		c0,0,0,0,0,0c0,0,0,0,0,0c0,0,0,0,0,0c0,0,0,0,0,0c0,0,0,0,0,0c0,0,0,0,0,0l0,0l0,0c0,0,0,0,0,0c0,0,0,0,0,0c0,0,0,0,0,0
		c0,0,0,0,0,0c0,0,0,0,0,0c0,0,0,0,0,0c0,0,0,0,0,0c0,0,0,0,0,0c0,0,0,0,0,0c0,0,0,0,0,0c0,0,0,0,0,0c0,0,0,0,0,0c0,0,0,0,0,0
		c0,0,0,0,0,0c0,0,0,0,0,0c0,0,0,0,0,0c0,0,0,0,0,0c0,0,0,0,0,0c0,0,0,0,0,0c0,0,0,0,0,0c0,0,0,0,0,0c0,0,0,0,0,0c0,0,0,0,0,0
		c0,0,0,0,0,0c0,0,0,0,0,0c0,0,0,0,0,0c0,0,0,0,0,0c0,0,0,0,0,0c0,0,0,0,0,0c0,0,0,0,0,0c0,0,0,0,0,0c0,0,0,0,0,0c0,0,0,0,0,0
		c0,0,0,0,0,0c0,0,0,0,0,0c0,0,0,0,0,0c0,0,0,0,0,0c0,0,0,0,0,0c0,0,0,0,0,0c0,0,0,0,0,0c0,0,0,0,0,0c0,0,0,0,0,0c0,0,0,0,0,0
		c0,0,0,0,0,0c0,0,0,0,0,0c0,0,0,0,0,0c0,0,0,0,0,0c0,0,0,0,0,0c0,0,0,0,0,0c0,0,0,0,0,0c0,0,0,0,0,0c0,0,0,0,0,0c0,0,0,0,0,0
		c0,0,0,0,0,0c0,0,0,0,0,0c0,0,0,0,0,0c0,0,0,0,0,0c0,0,0,0,0,0c0,0,0,0,0,0c0,0,0,0,0,0c0,0,0,0,0,0c0,0,0.1,0,0.1,0c0,0,0,0,0,0
		c0,0,0,0,0,0c0,0,0,0,0,0c0,0,0,0,0,0c0,0,0,0,0,0c0,0,0,0,0,0c0,0,0,0,0,0c0,0,0,0,0,0c0,0,0,0,0,0c0,0,0,0,0,0c0,0,0,0,0,0
		c0,0,0,0,0,0c0,0,0,0,0,0c0,0,0,0,0,0c0,0,0,0,0,0c0,0,0,0,0,0c0,0,0,0,0,0c0,0,0,0,0,0c0,0,0,0,0,0c0,0,0,0,0,0c0,0,0,0,0,0
		c0,0,0,0,0,0c0,0,0,0,0,0c0,0,0,0,0,0c0,0,0,0,0,0c0,0,0,0,0,0c0,0,0,0,0,0c0,0,0,0,0,0c0,0,0,0,0,0c0,0,0,0,0,0c0,0,0,0,0,0
		c0,0,0,0,0,0c0,0,0,0,0,0c0,0,0,0,0,0c0,0,0,0,0,0c0,0,0,0,0,0c0,0,0,0,0,0c0,0,0,0,0,0c0,0,0,0,0,0c0,0,0,0,0,0c0,0,0,0,0,0
		c0,0,0,0,0,0c0,0,0,0,0,0c0,0,0,0,0,0c0,0,0,0,0,0c0,0,0,0,0,0c0,0,0,0,0,0c0,0,0,0,0,0c0,0,0,0,0,0c0,0,0,0,0,0c0,0,0,0,0,0
		c0,0,0,0,0,0c0,0,0,0,0,0c0,0,0,0,0,0c0,0,0,0,0,0c0,0,0,0,0,0c0,0,0,0,0,0c0.1,0,0.2,0,0.3,0c0,0,0,0,0,0c0,0,0,0,0,0c0,0,0,0,0,0
		c0,0,0,0,0,0c0,0,0,0,0,0c0,0,0,0,0,0c0,0,0,0,0,0c0,0,0,0,0,0c0,0,0,0,0,0c0,0,0,0,0,0c0,0,0,0,0,0c0,0,0,0,0,0c0,0,0,0,0,0
		c0,0,0,0,0,0c0,0,0,0,0,0c0,0,0,0,0,0c0,0,0,0,0,0c0,0,0,0,0,0c0,0,0,0,0,0c0,0,0,0,0,0c0,0,0,0,0,0c0,0,0,0,0,0c0,0,0,0,0,0
		c0,0,0,0,0,0c0,0,0,0,0,0c0,0,0,0,0,0c0,0,0,0,0,0c0,0,0,0,0,0c0,0,0,0,0,0c0,0,0,0,0,0c0,0,0,0,0,0c0,0,0,0,0,0c0,0,0,0,0,0
		c0,0,0,0,0,0c0,0,0,0,0,0c0,0,0,0,0,0c0,0,0,0,0,0c0,0,0,0,0,0c0,0,0,0,0,0c0,0,0,0,0,0c0,0,0,0,0,0c0,0,0,0,0,0c0,0,0,0,0,0
		c4.6-0.5,8.9-1.7,12.6-3.6l0-7.4c-4.9,1.9-10.6,3-16.8,3C110.5,155.4,99.3,150.5,94,143.4"/>
	<path class="st14" d="M125.3,124c-0.9,0-1.7,0-2.5,0.1c-3.6,0.2-7.1,1-10.4,2.3c-3.3,1.4-6.3,3.2-9,5.4l0.2,0.2
		c2.9-1.8,6-3.3,9.3-4.2c3-0.9,6.1-1.3,9.2-1.3c0.3,0,0.5,0,0.8,0c0.8,0,1.7,0.1,2.5,0.2c0.8,0.1,1.6,0.2,2.5,0.4
		c1.6,0.3,3.2,0.7,4.8,1.1c3.2,0.8,6.4,1.8,9.7,3l0.2-0.3c-1.2-1.3-2.7-2.4-4.2-3.3c-1.5-0.9-3.2-1.7-4.9-2.3
		C130.9,124.3,128.1,124,125.3,124"/>
	<path class="st0" d="M258.1,278.1c-2.8,13.1-21.6,20.2-41.8,15.8c-20.3-4.4-34.4-18.6-31.5-31.7c2.9-13.1,21.6-20.2,41.8-15.8
		C246.8,250.8,260.9,265,258.1,278.1"/>
	<path class="st0" d="M228,295.2c0.1,0,0.1,0,0.2,0h0C228.1,295.2,228,295.2,228,295.2 M228.4,295.2L228.4,295.2
		C228.4,295.2,228.4,295.2,228.4,295.2 M216.2,293.9c0,0,0.1,0,0.1,0C216.3,294,216.3,293.9,216.2,293.9 M216.2,293.9
		C216.2,293.9,216.2,293.9,216.2,293.9C216.2,293.9,216.2,293.9,216.2,293.9 M216.1,293.9C216.1,293.9,216.1,293.9,216.1,293.9
		C216.1,293.9,216.1,293.9,216.1,293.9 M216.1,293.9C216.1,293.9,216.1,293.9,216.1,293.9C216.1,293.9,216.1,293.9,216.1,293.9
		 M216,293.9C216,293.9,216,293.9,216,293.9C216,293.9,216,293.9,216,293.9 M216,293.9C216,293.9,216,293.9,216,293.9
		C216,293.9,216,293.9,216,293.9 M215.9,293.9C215.9,293.9,215.9,293.9,215.9,293.9C215.9,293.9,215.9,293.9,215.9,293.9
		 M215.9,293.9C215.9,293.9,215.9,293.9,215.9,293.9C215.9,293.9,215.9,293.9,215.9,293.9 M215.8,293.9
		C215.8,293.9,215.9,293.9,215.8,293.9C215.9,293.9,215.8,293.9,215.8,293.9 M215.7,293.8c0.1,0,0.1,0,0.2,0
		C215.8,293.8,215.7,293.8,215.7,293.8 M214.8,293.6c0.3,0.1,0.5,0.1,0.8,0.2C215.4,293.7,215.1,293.7,214.8,293.6 M214.7,293.6
		C214.8,293.6,214.8,293.6,214.7,293.6C214.8,293.6,214.8,293.6,214.7,293.6 M214.7,293.6C214.7,293.6,214.7,293.6,214.7,293.6
		C214.7,293.6,214.7,293.6,214.7,293.6 M214.6,293.6C214.6,293.6,214.6,293.6,214.6,293.6C214.6,293.6,214.6,293.6,214.6,293.6
		 M214.5,293.5C214.5,293.5,214.6,293.6,214.5,293.5C214.6,293.6,214.5,293.5,214.5,293.5 M214.5,293.5
		C214.5,293.5,214.5,293.5,214.5,293.5C214.5,293.5,214.5,293.5,214.5,293.5 M214.4,293.5C214.4,293.5,214.5,293.5,214.4,293.5
		C214.5,293.5,214.4,293.5,214.4,293.5 M214.4,293.5C214.4,293.5,214.4,293.5,214.4,293.5C214.4,293.5,214.4,293.5,214.4,293.5
		 M214.3,293.5C214.4,293.5,214.4,293.5,214.3,293.5C214.4,293.5,214.4,293.5,214.3,293.5 M214.3,293.5
		C214.3,293.5,214.3,293.5,214.3,293.5C214.3,293.5,214.3,293.5,214.3,293.5 M214.3,293.5C214.3,293.5,214.3,293.5,214.3,293.5
		C214.3,293.5,214.3,293.5,214.3,293.5 M214.2,293.5C214.2,293.5,214.2,293.5,214.2,293.5C214.2,293.5,214.2,293.5,214.2,293.5
		 M214.2,293.5C214.2,293.5,214.2,293.5,214.2,293.5C214.2,293.5,214.2,293.5,214.2,293.5 M214.1,293.4
		C214.1,293.4,214.1,293.4,214.1,293.4C214.1,293.4,214.1,293.4,214.1,293.4 M214.1,293.4C214.1,293.4,214.1,293.4,214.1,293.4
		C214.1,293.4,214.1,293.4,214.1,293.4 M214,293.4L214,293.4L214,293.4 M258.2,277.3c0,0.3-0.1,0.5-0.1,0.8
		c-2.3,10.4-14.5,17-29.5,17.1c15-0.1,27.3-6.7,29.5-17.1C258.1,277.8,258.2,277.6,258.2,277.3"/>
	<path class="st15" d="M185.3,271.3c3.2,9.6,14.2,18.3,28.7,22.1l0,0c0,0,0.1,0,0.1,0c0,0,0,0,0,0c0,0,0,0,0,0c0,0,0,0,0,0
		c0,0,0,0,0,0c0,0,0,0,0,0c0,0,0,0,0,0c0,0,0,0,0,0c0,0,0,0,0,0c0,0,0,0,0,0c0,0,0,0,0,0c0,0,0,0,0,0c0,0,0,0,0,0c0,0,0,0,0,0
		c0,0,0,0,0,0c0,0,0,0,0,0c0,0,0,0,0,0c0,0,0,0,0,0c0,0,0,0,0,0c0,0,0,0,0,0c0,0,0,0,0,0c0,0,0,0,0,0c0,0,0,0,0,0c0,0,0.1,0,0.1,0
		c0,0,0,0,0,0c0,0,0.1,0,0.1,0c0,0,0,0,0,0c0,0,0.1,0,0.1,0l0,0c0.3,0.1,0.5,0.1,0.8,0.2c0,0,0,0,0,0c0.1,0,0.1,0,0.2,0c0,0,0,0,0,0
		c0,0,0,0,0,0c0,0,0,0,0,0c0,0,0,0,0,0c0,0,0,0,0,0c0,0,0,0,0,0c0,0,0,0,0,0c0,0,0,0,0,0c0,0,0,0,0,0c0,0,0,0,0,0c0,0,0,0,0,0
		c0,0,0,0,0,0c0,0,0,0,0,0c0,0,0,0,0,0c0,0,0,0,0,0c0,0,0,0,0,0c0,0,0,0,0,0l0,0c0,0,0.1,0,0.1,0c4,0.9,7.9,1.3,11.6,1.3
		c0.1,0,0.1,0,0.2,0c0.1,0,0.2,0,0.3,0l0,0c0,0,0.1,0,0.1,0c15-0.1,27.3-6.7,29.5-17.1c0.1-0.3,0.1-0.5,0.1-0.8
		c0.1-0.5,0.2-1.1,0.2-1.6c-5.6,6.7-17.1,10.8-30.6,10.8c-3.7,0-7.6-0.3-11.5-1C203.2,283.4,192.1,278,185.3,271.3"/>
	<path class="st16" d="M217,249.9c-0.7,0-1.5,0-2.2,0.1c-1.5,0.1-3,0.3-4.5,0.5c-1.5,0.3-2.9,0.7-4.3,1.3c-1.4,0.6-2.7,1.4-3.9,2.3
		c-1.2,0.9-2.3,1.9-3.3,3.1l0.2,0.2c2.8-1,5.4-2,8.1-2.8c2.6-0.8,5.2-1.8,8-2.3c1.8-0.3,3.6-0.4,5.4-0.4c1,0,2,0,3,0.1
		c2.8,0.2,5.6,0.8,8.3,1.8l0.1-0.3c-2.5-1.4-5.3-2.4-8.2-3C221.4,250.2,219.2,249.9,217,249.9"/>
	<path class="st0" d="M305.2,80.2c8.6,0,14.9,2.1,19.9,3.7c8.8,2.9,17.3,5.7,23.7,13.7c4.2,5.3,5.6,10.6,7.5,17.4
		c1.1,3.9,4.4,13.9,2.5,21.2c-0.2,0.7-1.5,3.5-3.8,6.8c-0.3,0.5-1.6,2.3-3.9,4.9c-2.2,2.4-8.9,9.4-11.3,11.5c-0.3,0.3-0.8,0.7-1,1.4
		c-0.3,1.3,0.8,2.1-1.4,2.8c-2.5,0.7-5.6,2-7.9,2.9c-6.9,2.9-7,6.4-10.8,9.8c0,0-18.8,16.7-26.1,17.2c-1.2,0.1-2.3,0-2.3,0
		c-8.8-1-10-7.3-29.9-28.6c-23.6-25.3-36.7-32.3-34.2-41.7c0.6-2.4,1.9-3.4,14.3-11.8c2.4-1.6,4.5-3.1,6.6-4.4
		c3.1-2.1,0.9-2,0.9-2.4c0-0.4,1-0.7,1.1-0.7c3.3-1.1,8.4-6.5,17.7-8.8c2.2-0.5,2.5-0.4,3.9-1c4.2-1.7,6.3-5.1,7.2-6.3
		C283.5,80.1,299.1,80.1,305.2,80.2"/>
	<path class="st0" d="M216.2,160.5c-5.5-10.9-0.8-26,6.2-34.9c2-2.6,4.4-5.6,8.7-7.5c9.2-4,18.9,0.8,29.9,6.2
		c10.5,5.2,18,8.9,23.7,17.4c3.9,5.8,5.1,12.2,7.5,24.9c2.8,14.8,4.2,22.2,1.2,24.9c-4.6,4.3-13.8-2.3-44.2-14.3
		C225,167.7,219.7,167.5,216.2,160.5"/>
	<path class="st2" d="M220.2,159.9c-4.9-9.7-0.7-23.3,5.6-31.2c1.8-2.3,4-5,7.8-6.7c8.2-3.6,17,0.7,26.8,5.6
		c9.4,4.7,16.1,8,21.2,15.6c3.5,5.2,4.5,10.9,6.7,22.3c2.5,13.3,3.7,19.9,1.1,22.3c-4.2,3.8-12.4-2-39.6-12.8
		C228.1,166.4,223.4,166.2,220.2,159.9"/>
	<path class="st17" d="M225.8,128.7C225.8,128.7,225.7,128.7,225.8,128.7C225.7,128.7,225.8,128.7,225.8,128.7"/>
	<path class="st17" d="M225.7,128.7C225.7,128.7,225.7,128.7,225.7,128.7C225.7,128.7,225.7,128.7,225.7,128.7"/>
	<path class="st18" d="M249.7,175c2,0.8,3.9,1.6,5.7,2.3C253.7,176.5,251.8,175.8,249.7,175"/>
	<path class="st17" d="M228.2,157.5c-1.2,2-2.4,4.4-3.5,7.3c4,2.5,10.9,4.5,25.1,10.1l0,0c2,0.8,3.9,1.6,5.7,2.3
		c17.6,7.2,26,11.7,30.6,11.7c1.2,0,2.1-0.3,2.9-0.9c-7.1-5.3-19.5-11.2-28.6-14.5C251.6,170.4,237.8,166.5,228.2,157.5
		 M225.7,128.7c-3.9,4.9-7,12.1-7.6,19.1l7.1,6.6c-1.7-2.1-3.2-4.8-2.8-7.6c0.4-2.7,2.2-4.3,4.1-5.8c-2.4-0.8-4.7-1.5-6.4-2.1l0,0
		l0,0C221.5,135.1,223.5,131.6,225.7,128.7"/>
	<path class="st3" d="M225.8,128.7c-2.2,2.8-4.2,6.4-5.6,10.2c4.6,1.4,12.3,3.9,18.5,6.7c5.5,2.4,11.8,5.6,11.8,5.6
		c2.1,1,2,1,2.5,1.3c6,2.7,11.6,2.4,13.7,2.5c11.8,0.3,18.5,12.7,21.6,10.6c-2.1-11.4-3.2-17.1-6.7-22.3l0,0
		c-2.4-3.5-5.1-6.2-8.2-8.4c-3.7-2.6-7.9-4.7-13-7.2c-2.5-1.2-4.8-2.4-7.2-3.4c-7-3.1-13.4-4.9-19.6-2.2c-0.5,0.2-0.9,0.4-1.4,0.7
		C229.2,124.3,227.4,126.7,225.8,128.7"/>
	<path class="st19" d="M240,120.7c-2.2,0-4.4,0.4-6.5,1.3l0,0c-0.5,0.2-0.9,0.4-1.4,0.7c-3,1.7-4.8,4-6.4,6
		c-2.2,2.8-4.2,6.4-5.6,10.2c4.6,1.4,12.3,3.9,18.5,6.7c5.5,2.4,11.8,5.6,11.8,5.6c2.1,1,2,1,2.5,1.3c6,2.7,11.6,2.4,13.7,2.5
		c10.9,0.3,17.4,10.8,20.8,10.8c0.3,0,0.6-0.1,0.8-0.2l0,0c-0.1-0.6-0.2-1.2-0.3-1.8c-0.6-0.2-1.2-0.4-2-0.7
		c-6.5-2.5-7.2-6.2-12.5-10c-7.2-5.1-9.6-0.7-21.2-6.2c-5.5-2.7-5.6-4.1-11.2-6.2c-4-1.5-6.7-1.9-8.1-4.4c-1.8-3.1-0.2-7,0-7.5
		c1.3-3,4-4.4,5-5c2.1-1.1,4.4-1.5,6.6-1.5c2.1,0,4.2,0.4,6.1,0.8C247,121.6,243.5,120.7,240,120.7"/>
	<path class="st20" d="M266.1,121.7c4.4,1.7,8.7,3.5,12.9,5.8c2.1,1.2,4.1,2.5,6,4c1.9,1.5,3.6,3.3,5.2,5.2c1.5,1.9,3,4,4.2,6.2
		c1.1,2.3,1.9,4.6,2.3,7c0.5,2.4,0.7,4.7,0.8,7.1c0.1,2.4,0.1,4.7-0.2,7.2l-0.5,0.1c-1.1-2.2-2-4.4-2.8-6.6
		c-0.8-2.2-1.5-4.4-2.2-6.6c-1.5-4.3-2.3-8.4-4.9-12.1c-2.4-3.7-5.6-6.8-9.4-9.5c-3.7-2.7-7.8-5-11.8-7.4L266.1,121.7z"/>
	<path class="st20" d="M297.4,127.1c-5.2,0-9.3-2.3-16.2-6.2c-3.6-2.1-5.4-3.1-5.8-3.4c-3.2-1.9-3.4-2.3-5.4-2.8
		c-5.5-1.6-6.9,0-14.9-1.2c-1.6-0.3-12.3-2-12.5-5c-0.1-1.3,1.7-2.3,3.1-3.1c4.8-2.8,9.8-2.7,12.5-2.5c10.6,0.8,18.5,5.4,19.9,6.2
		c5.8,3.5,6.9,5.8,10.2,8.3c1.6,1.2,2.9,1.9,4.8,2.9c6.9,3.6,11.3,3.9,11.2,5C304.2,126.2,300.8,127.2,297.4,127.1z"/>
	<path class="st20" d="M271.6,95.1c-0.1,0.3,2.4,1.1,6.2,3.7c1.4,1,2.1,1.5,3.1,2.3c2.3,1.9,3.5,3.5,5.6,5.2c1,0.8,2.7,1.9,13.7,5
		c16.8,4.6,20.1,3.9,22.4,2.5c0.4-0.3,3.9-2.4,3.7-5c-0.2-3.8-7.7-6.5-12.5-7.5c-8.9-1.8-10.5,1.9-19.9,0c-0.2,0-0.4-0.1-0.5-0.1
		c-1.1-0.3-1.9-0.6-2.1-0.7c-1-0.4-3.9-1.2-9.8-3C276.8,96.2,271.8,94.7,271.6,95.1z"/>
	<path class="st20" d="M312.2,123.5c-0.4,1.1,5.4,2.7,10.9,9.2c2.1,2.4,4.8,5.8,6.2,10.8c1.9,6.5-0.9,10,1.9,15.3
		c1.8,3.3,4,4.2,4.5,4.3c0.8,0.3,1.7,0.6,2.5,0.3c3.3-1.3,4.1-14.6-2.1-24.1c-1.5-2.3-2.2-2.6-3.9-4.2c-0.4-0.4-0.7-0.7-1-1
		c-1.5-1.6-2.5-2.9-2.8-3.3c-1.7-2.1-4-4-5-4.8C319,122.7,312.6,122.4,312.2,123.5z"/>
	<path class="st20" d="M315.2,140c4.1,5,3.9,11.7,3.7,16.2c-0.2,4.7-1.1,4.5-1.2,10c-0.1,2.9,0.2,5.2-1.2,6.2c-1,0.7-2.6,0.6-3.7,0
		c-1-0.5-2.7-2.2-2.5-11.2c0.2-9.5,2.2-10.3,1.2-14.9c-1.5-6.9-7.1-10.1-6.2-11.2C306.1,134,311.7,135.7,315.2,140z"/>
	<path class="st20" d="M287.8,87.6c-0.3,1.2,6.7,4.5,13.7,6.2c7.3,1.8,9.2-0.5,19.9,2.5c5.7,1.6,9.7,2.7,12.5,6.2
		c3.7,4.6,0.7,7.7,3.7,19.9c2.4,9.8,5.6,13.3,7.5,14.9c0.4,0.4,4.7,4.7,6.2,3.7c0.8-0.5,0.6-2.4,0-5c-1.5-6.5-3.7-10.8-5-13.7
		c-4.4-10.1-1.4-13.1-6.2-19.9c-2.1-3-4.4-4.7-6.2-6.2c-2-1.6-7.4-5.8-15.2-7.4c-4.1-0.8-4.3,0-12.2-0.1
		C294.3,88.7,288.1,86.6,287.8,87.6z"/>
	<path class="st0" d="M165,115.8l12.6-5.5l50.7,47c-2.5,4.3-5.6,10.9-6.2,19.3c-0.3,4.7,0.3,8.1,0.6,10.2c0.9,7,0.6,17.6-5.7,32.9
		c-4.2,1.8-8.4,3.7-12.6,5.5l-1-1.9l-30.1,5.5l-33.3-54.7l0.2-41.5l23.4-13.4L165,115.8"/>
	<path class="st21" d="M166.7,117.4l-0.1,0.1l11.7,11.8l11.8,11.8c3.9,3.9,7.8,7.9,11.8,11.7c2,1.9,4.1,3.7,6.2,5.6l3.2,2.7
		c1.1,0.9,2.1,1.8,3.2,2.6l0.1-0.1c-0.9-1.1-1.8-2.1-2.8-3.1l-2.8-3.1c-1.9-2-3.8-4-5.8-6c-3.9-3.9-8.1-7.6-12.1-11.4L179,128.6
		L166.7,117.4"/>
	<path class="st21" d="M144.7,138.2l-0.2,0.1l16,22.5l16,22.3c1,3.1,1.8,6.3,2,9.5c0.2,1.6,0.2,3.2-0.1,4.8
		c-0.3,1.4-0.9,3.1-1.3,4.7c-0.9,3.3-1.8,6.5-2.4,9.9c-0.3,1.7-0.6,3.3-0.8,5c-0.1,0.8-0.2,1.7-0.2,2.6c0,0.9,0,1.7,0.4,2.6l0.2-0.1
		c-0.3-1.6,0.1-3.3,0.4-4.9c0.4-1.6,0.8-3.3,1.2-4.9c0.9-3.2,1.9-6.4,3-9.6l0.8-2.4c0.3-0.7,0.6-1.7,0.7-2.6
		c0.3-1.8,0.3-3.6,0.2-5.3c-0.4-3.5-1.2-6.8-2.4-10.1l0-0.1l-0.1-0.1l-16.7-22L144.7,138.2"/>
	<path class="st21" d="M166.2,121.8l-0.1,0.1c1.7,2,3.5,4,5.3,5.9c1.8,1.9,3.6,3.9,5.4,5.7c3.6,3.8,7.4,7.5,11.2,11.1
		c3.8,3.6,7.6,7.3,11.5,10.7c3.8,3.4,7.5,6.8,11,10.5c-2.4,0.9-4.8,1.7-7.3,2.4l-3.9,1.1c-1.3,0.4-2.7,0.9-4,1.5
		c-2.6,1.2-5,2.6-7.3,4.1c-2.3,1.5-4.5,3.2-6.6,5l0.1,0.2c2.4-1.4,4.8-2.7,7.2-4.1c2.4-1.3,4.8-2.6,7.3-3.6c1.2-0.6,2.5-1,3.8-1.3
		c1.3-0.4,2.7-0.8,4-1.3c2.6-1,5.1-2.2,7.6-3.4l0.5-0.3l-0.4-0.4c-3.9-3.5-7.5-7.3-11.1-11.2c-3.6-3.9-7.3-7.6-11-11.3
		c-3.7-3.7-7.5-7.4-11.3-11c-1.9-1.8-3.9-3.6-5.8-5.3C170.2,125.2,168.2,123.5,166.2,121.8"/>
	<path class="st2" d="M218.2,172.7c0,0-12.2,0.3-18,4c-3.4,2.1-11.8,6.1-12.4,10s-6.2,29.6-4.7,30.6c1.5,1,18.1,0.3,22.7,0.4
		c3.2,0.1,11.3-2.1,9.9-9.6C214.2,200.6,218.2,172.7,218.2,172.7z"/>
	<path class="st3" d="M195.7,184.9c0,0,1.2,6.6-0.4,12.6c-1.6,6-4,15.1-4,15.1s7.3-11.9,7.4-15.4
		C198.7,193.8,195.7,184.9,195.7,184.9z"/>
	<path class="st3" d="M208.3,179.8c0,0-4.8,11.1-3.5,14.2s1.1,13.6,0.8,15.8c-0.3,2.2-3.9,1.1-3.8-2.4S209.1,183.8,208.3,179.8z"/>
	<path class="st7" d="M38.1,262.7c0,0,31.4-7.9,42.2-8.8c5.4-0.5,10.1,0.7,14,2c3.9,1.2,7.1,2.5,9.6,2c2.5-0.5,6.6,0.7,10.6,2
		c3.9,1.2,7.6,2.5,9.1,2c2.9-1,8.8-16.7,3.9-26.5c-3.2-6.5,9-24.7,11.3-33.9c1.2-4.7-7.4-4.4-7.4-4.4s0-8.8-2.9-7.9
		c-2.9,1-8.3,0.5-8.3,0.5l-2-10.8l-8.8,1l-4.9-5.9l-8.8,4.9l-2.9-6.9l-8.8,3.9l-10.8-3.9l-4.9,6.9l-7.9-2l-2,5.9l-9.8-2.9l-0.5,8.3
		l-8.3-0.5l-1.5,9.3l-5.4,1.5l-2.5,6.4l2.5,11.3C32.7,216.1,30.2,253.9,38.1,262.7"/>
	<path class="st11" d="M123.4,261.7C123.4,261.7,123.4,261.7,123.4,261.7C123.4,261.7,123.4,261.7,123.4,261.7 M123.5,261.7
		C123.5,261.7,123.5,261.7,123.5,261.7C123.5,261.7,123.5,261.7,123.5,261.7 M123.5,261.7C123.5,261.7,123.5,261.7,123.5,261.7
		C123.5,261.7,123.5,261.7,123.5,261.7 M123.5,261.7C123.5,261.7,123.5,261.7,123.5,261.7C123.5,261.7,123.5,261.7,123.5,261.7
		 M123.5,261.7C123.5,261.7,123.5,261.7,123.5,261.7C123.5,261.7,123.5,261.7,123.5,261.7 M92.5,171.9l-8.8,3.9l-10.8-3.9l-4.9,6.9
		l-7.9-2l-2,5.9l-9.8-2.9l-0.5,8.3l-8.3-0.5l-1.5,9.3l-5.4,1.5l-2.5,6.4l2.5,11.3l0,0c0,0-0.4,5.6-0.4,13c0,11.8,0.9,28.2,5.8,33.6
		c0,0,31.4-7.9,42.2-8.8c0.8-0.1,1.7-0.1,2.5-0.1c4.4,0,8.2,1,11.5,2.1c3.3,1,6.1,2.1,8.4,2.1c0.4,0,0.8,0,1.2-0.1
		c0.4-0.1,0.8-0.1,1.3-0.1c2.5,0,6,1,9.3,2.1c3.3,1,6.5,2.1,8.2,2.1c0.3,0,0.6,0,0.8-0.1l0,0l0,0c-0.2,0.1-0.5,0.1-0.8,0.1
		c-1.8,0-4.9-1-8.2-2.1c-3.3-1-6.8-2.1-9.3-2.1c-0.5,0-0.9,0-1.3,0.1c-0.4,0.1-0.8,0.1-1.2,0.1c-2.3,0-5.1-1-8.4-2.1
		c-3.3-1-7.2-2.1-11.5-2.1c-0.8,0-1.6,0-2.5,0.1c-10.8,1-42.2,8.8-42.2,8.8c-0.1-0.1-0.2-0.2-0.3-0.3c0.6-6.4,2.2-14.8,6.6-19.8
		c8.8-9.8,22.5-17.7,33.4-17.7c14.7,0,29.4,0,47.1,19.6c1.4,1.5,2.7,3.1,3.9,4.6c-1,6.4-3.6,11.9-5.4,12.6c2.1-0.8,5.8-9.2,5.8-17.5
		c0-3.2-0.5-6.3-1.9-9c-0.4-0.7-0.5-1.6-0.5-2.7c0-7.9,9.8-23.1,11.8-31.2c0.1-0.3,0.1-0.6,0.1-0.8c0-3.4-5.7-3.6-7.1-3.6
		c-0.2,0-0.3,0-0.3,0s0-7.9-2.5-7.9c-0.1,0-0.3,0-0.4,0.1c-1.5,0.5-3.6,0.6-5.3,0.6c-1.7,0-3.1-0.1-3.1-0.1l-2-10.8l-8.8,1l-4.9-5.9
		l-8.8,4.9L92.5,171.9"/>
	<path class="st22" d="M123.4,261.7C123.4,261.7,123.4,261.7,123.4,261.7C123.4,261.7,123.4,261.7,123.4,261.7 M123.5,261.7
		C123.4,261.7,123.4,261.7,123.5,261.7C123.4,261.7,123.4,261.7,123.5,261.7 M123.5,261.7C123.5,261.7,123.5,261.7,123.5,261.7
		C123.5,261.7,123.5,261.7,123.5,261.7 M123.5,261.7C123.5,261.7,123.5,261.7,123.5,261.7C123.5,261.7,123.5,261.7,123.5,261.7
		 M123.5,261.7C123.5,261.7,123.5,261.7,123.5,261.7C123.5,261.7,123.5,261.7,123.5,261.7 M123.5,261.7
		C123.5,261.7,123.5,261.7,123.5,261.7L123.5,261.7"/>
	<path class="st23" d="M77.8,224.9c-10.8,0-24.5,7.9-33.4,17.7c-4.5,5-6.1,13.4-6.6,19.8c0.1,0.1,0.2,0.2,0.3,0.3
		c0,0,31.4-7.9,42.2-8.8c0.8-0.1,1.7-0.1,2.5-0.1c4.4,0,8.2,1,11.5,2.1c3.3,1,6.1,2.1,8.4,2.1c0.4,0,0.8,0,1.2-0.1
		c0.4-0.1,0.8-0.1,1.3-0.1c2.5,0,6,1,9.3,2.1c3.3,1,6.5,2.1,8.2,2.1c0.3,0,0.6,0,0.8-0.1l0,0c0,0,0,0,0,0c0,0,0,0,0,0c0,0,0,0,0,0
		c0,0,0,0,0,0c0,0,0,0,0,0c0,0,0,0,0,0c0,0,0,0,0,0c0,0,0,0,0,0c0,0,0,0,0,0c0,0,0,0,0,0c0,0,0,0,0,0c1.7-0.7,4.4-6.2,5.4-12.6
		c-1.2-1.5-2.5-3.1-3.9-4.6C107.2,224.9,92.5,224.9,77.8,224.9"/>
	<path class="st7" d="M65.1,182.7c0.6,3.3,0.9,6.7,1.1,10.1c0.2,3.4,0.3,6.8,0.2,10.1c-0.1,3.4-0.4,6.7-0.3,10.1
		c0,1.7,0.2,3.4,0.6,5c0.2,0.8,0.5,1.6,1,2.2c0.5,0.6,1.1,0.9,1.9,0.9c0.3,0,0.8-0.1,1-0.2c0.2-0.1,0.4-0.3,0.5-0.6
		c0.2-0.6,0.3-1.4,0.3-2.2c0-1.6-0.1-3.3-0.3-5c-0.3-3.3-0.6-6.7-0.8-10.1c-0.3-6.8-0.2-13.6,0.5-20.3l0.2,0
		c0.5,6.8,1,13.5,1.4,20.2c0.2,3.4,0.4,6.7,0.5,10.1c0.1,1.7,0.1,3.4,0,5.2c-0.1,0.9-0.2,1.8-0.7,2.7c-0.2,0.5-0.7,0.9-1.3,1.1
		c-0.3,0.1-0.5,0.1-0.8,0.1c-0.2,0-0.5,0-0.7,0c-0.5,0-1-0.2-1.4-0.4c-0.4-0.2-0.8-0.6-1.1-1c-0.5-0.8-0.8-1.6-1-2.5
		c-0.4-1.7-0.5-3.4-0.6-5.1c-0.3-3.4-0.5-6.8-0.7-10.1c-0.1-3.4-0.1-6.7-0.1-10.1c0-3.4,0.1-6.7,0.2-10.1L65.1,182.7z"/>
	<path class="st7" d="M79.9,186.7c0.3,3.1,0.2,6.2,0.1,9.3c-0.1,3.1-0.4,6.2-0.9,9.3l-0.8,4.6c-0.3,1.5-0.6,3-0.7,4.6
		c-0.1,0.8-0.1,1.5,0,2.3c0.1,0.7,0.2,1.5,0.6,2c0.4,0.5,1.1,0.8,1.8,1c0.7,0.1,1.2,0,1.6-0.5c0.4-0.5,0.6-1.2,0.7-1.9
		c0.1-0.7,0.2-1.5,0.3-2.2c0.1-1.5,0.2-3,0.3-4.6c0.1-3.1,0.1-6.2,0.3-9.3c0.4-6.2,1.1-12.4,2.5-18.4l0.2,0
		c-0.1,6.2-0.3,12.4-0.5,18.5c-0.1,3.1-0.3,6.2-0.6,9.3c-0.1,1.5-0.3,3.1-0.5,4.7c-0.1,0.8-0.3,1.6-0.6,2.3
		c-0.3,0.8-0.6,1.6-1.2,2.3c-0.3,0.3-0.8,0.6-1.3,0.7c-0.5,0.1-1,0-1.4-0.1c-0.8-0.2-1.6-0.7-2.1-1.4c-0.5-0.7-0.6-1.6-0.7-2.4
		c0-0.8,0-1.6,0-2.4c0.2-3.1,0.3-6.2,0.5-9.3c0.2-3.1,0.6-6.1,1-9.2c0.4-3.1,0.7-6.1,1.2-9.2L79.9,186.7z"/>
	<path class="st7" d="M92.6,182.7c-0.1,3-0.4,6-0.7,9c-0.4,3-0.8,5.9-1.4,8.8c-0.6,2.9-1.4,5.8-1.9,8.7c-0.2,1.5-0.4,2.9-0.4,4.4
		c0,1.5,0,3,0.5,4.2c0.3,0.6,0.7,0.9,1.2,0.9c0.2,0,0.6,0,0.9-0.1c0.3-0.1,0.6-0.2,0.8-0.3c0.8-0.5,1-2,1.2-3.4
		c0.3-2.9,0.3-5.9,0.7-8.9c0.7-6,2-11.9,4-17.5l0.2,0c-0.8,5.9-1.5,11.8-2,17.7c-0.3,3-0.5,5.9-0.9,8.9c-0.1,0.8-0.3,1.5-0.6,2.3
		c-0.1,0.4-0.3,0.8-0.6,1.2c-0.3,0.4-0.7,0.7-1.1,1c-0.4,0.2-0.9,0.4-1.3,0.4c-0.5,0-0.8,0-1.3,0c-0.5-0.1-1-0.3-1.3-0.7
		c-0.3-0.4-0.6-0.8-0.7-1.2c-0.5-1.6-0.3-3.1-0.2-4.6c0.1-1.5,0.3-3,0.5-4.5c0.3-3,0.5-6,0.9-8.9c0.4-3,1-5.9,1.6-8.8
		c0.6-2.9,1.3-5.8,2.1-8.7L92.6,182.7z"/>
	<path class="st7" d="M106.4,182.8c-0.4,3.1-0.9,6.1-1.6,9.1c-0.7,3-1.4,6-2.2,9l-1.4,4.4c-0.5,1.5-0.9,2.9-1.3,4.4
		c-0.8,3-1.4,6-1.5,9c0,0.4,0,0.7,0.1,1c0.1,0.3,0.2,0.6,0.3,0.6c0.3,0.1,0.6,0,1-0.5c0.7-1,1.2-2.6,1.7-4c0.9-2.9,1.6-5.9,2.5-8.9
		c1.8-5.9,3.7-11.8,6.3-17.5l0.2,0.1c-1.3,6.1-2.8,12-4.4,18c-0.8,3-1.7,5.9-2.8,8.9c-0.6,1.5-1.1,3-2.2,4.4
		c-0.3,0.3-0.7,0.7-1.3,0.9c-0.3,0.1-0.6,0.1-0.9,0.1c-0.3-0.1-0.5-0.1-0.9-0.4c-0.6-0.5-0.6-1.1-0.7-1.5c0-0.4,0-0.9,0-1.3
		c0.2-1.6,0.6-3.1,0.9-4.6l1.1-4.5c0.3-1.5,0.6-3,0.9-4.5l0.9-4.6c0.6-3,1.5-6,2.3-9c0.9-3,1.8-5.9,2.9-8.8L106.4,182.8z"/>
	<path class="st7" d="M117.2,190.6c-0.4,2.9-1.1,5.8-1.9,8.7c-0.8,2.9-1.7,5.7-2.7,8.4c-1.1,2.7-2.3,5.4-3.3,8.2
		c-0.5,1.4-0.9,2.8-1.1,4.2c-0.1,0.7-0.2,1.4-0.1,2.1c0.1,0.7,0.3,1.3,0.7,1.7c0.2,0.2,0.5,0.3,0.7,0.4c0.2,0.1,0.4,0,0.6-0.1
		c0.4-0.2,0.8-0.8,1.1-1.4c0.7-1.2,1.2-2.6,1.7-3.9c1-2.7,1.9-5.5,2.9-8.3c2-5.5,4.3-11,7-16.3l0.2,0.1c-1.6,5.7-3.3,11.3-5.2,16.9
		c-1,2.8-2,5.6-3.2,8.3c-0.6,1.4-1.2,2.7-2.1,4.1c-0.5,0.6-1,1.3-1.9,1.7c-0.5,0.2-1.1,0.2-1.6-0.1c-0.4-0.2-0.8-0.5-1.1-0.8
		c-0.6-0.7-0.8-1.6-0.8-2.4c0-0.8,0.1-1.5,0.3-2.3c0.3-1.5,0.7-2.9,1.1-4.3l2.4-8.6c0.9-2.8,1.8-5.6,2.8-8.4c1-2.8,2-5.5,3.2-8.3
		L117.2,190.6z"/>
	<path class="st7" d="M127.9,200.4c-0.6,2.8-1.5,5.6-2.5,8.3c-1,2.7-2.1,5.4-3.4,8c-1.3,2.6-2.8,5-4.1,7.6c-0.6,1.3-1.1,2.6-1.4,4
		c-0.1,0.7-0.2,1.4,0,2c0.2,0.6,0.5,1.1,1,1.5c0.1,0.1,0.2,0.2,0.4,0.3c0.1,0.1,0.3,0.2,0.3,0.2c0.1,0,0.2,0,0.4-0.2
		c0.4-0.4,0.7-1,1.1-1.6c0.6-1.2,1.2-2.5,1.8-3.8l3.3-7.9c2.3-5.3,4.8-10.5,7.7-15.5l0.2,0.1c-1.8,5.5-3.8,10.9-5.9,16.2
		c-1.1,2.7-2.3,5.3-3.6,7.9c-0.6,1.3-1.3,2.6-2.1,3.9c-0.4,0.6-0.9,1.2-1.6,1.8c-0.2,0.1-0.4,0.3-0.7,0.3c-0.3,0.1-0.6,0.1-0.9-0.1
		c-0.3-0.1-0.4-0.3-0.6-0.4c-0.2-0.1-0.3-0.3-0.5-0.4c-0.6-0.6-1-1.4-1.1-2.1c-0.1-0.8,0-1.6,0.2-2.3c0.3-1.4,0.9-2.8,1.4-4.1
		c1-2.7,2.1-5.4,3.1-8.1c1.1-2.6,2.3-5.2,3.5-7.8c1.2-2.6,2.4-5.2,3.7-7.8L127.9,200.4z"/>
	<path class="st7" d="M58.3,187.6c0.6,3.1,1,6.1,1.4,9.2c0.4,3.1,0.7,6.1,0.9,9.2l0.2,4.6c0,1.5,0.1,3.1,0.2,4.6
		c0.1,1.5,0.2,3.1,0.2,4.7c0,0.8,0,1.6-0.2,2.4c-0.1,0.4-0.2,0.8-0.5,1.2c-0.2,0.4-0.6,0.8-1.1,1c-0.2,0.1-0.5,0.2-0.8,0.1
		c-0.3,0-0.6-0.1-0.8-0.3c-0.5-0.3-0.7-0.8-0.9-1.1c-0.4-0.8-0.6-1.5-0.9-2.3c-0.4-1.5-0.7-3.1-0.9-4.6c-0.5-3.1-0.9-6.1-1.2-9.2
		c-0.6-6.1-1.2-12.3-1.5-18.5l0.2,0c1.6,6,2.6,12.1,3.4,18.2c0.4,3.1,0.7,6.1,1,9.2c0.2,1.5,0.4,3,0.6,4.5c0.1,0.7,0.3,1.5,0.5,2.1
		c0.1,0.3,0.3,0.6,0.4,0.7c0.1,0.1,0.2,0.2,0.5,0.1c0.5-0.1,0.9-0.7,1.1-1.4c0.2-0.7,0.3-1.4,0.4-2.2c0.1-1.5,0-3.1-0.1-4.6
		c-0.1-1.5-0.4-3.1-0.6-4.6l-0.7-4.6c-0.4-3.1-0.6-6.1-0.8-9.2c-0.1-3.1-0.2-6.2,0-9.3L58.3,187.6z"/>
	<path class="st7" d="M47.5,193.5c0.7,3.2,1.4,6.3,2,9.5c0.6,3.2,1.2,6.3,1.6,9.5c0.4,3.2,0.7,6.4,1,9.7c0.1,1.6,0.3,3.2,0.1,4.9
		c-0.1,0.8-0.3,1.7-0.9,2.5c-0.1,0.2-0.3,0.4-0.6,0.5c-0.3,0.2-0.8,0.2-1,0c-0.6-0.3-0.7-0.8-1-1.2c-0.8-1.6-1.2-3.1-1.6-4.7
		c-0.4-1.6-0.7-3.2-1-4.8c-0.6-3.2-1.1-6.4-1.6-9.5c-0.9-6.4-1.6-12.8-2.2-19.2l0.2,0c1.8,6.2,3,12.6,4.1,18.9
		c0.5,3.2,0.9,6.4,1.3,9.6l0.7,4.8c0.3,1.6,0.5,3.2,1,4.6c0.1,0.3,0.3,0.7,0.5,0.8l0.1,0c0.1,0,0.2-0.1,0.3-0.2
		c0.5-0.5,0.7-1.2,0.9-2c0.2-1.5,0.1-3.2-0.1-4.7c-0.2-1.6-0.5-3.2-0.9-4.7l-1.1-4.7c-0.7-3.2-1.1-6.4-1.5-9.6
		c-0.4-3.2-0.6-6.4-0.6-9.7L47.5,193.5z"/>
	<path class="st7" d="M40.6,204.3c0.8,2.6,1.4,5.2,2,7.7c0.6,2.6,1.2,5.2,1.6,7.8c0.4,2.6,0.7,5.3,1.1,7.9c0.2,1.3,0.4,2.6,0.5,4
		c0,0.7,0,1.4-0.2,2.1c-0.2,0.7-0.7,1.4-1.4,1.8c-0.2,0.1-0.7,0.2-0.9,0.1c-0.3-0.1-0.5-0.3-0.6-0.4c-0.3-0.3-0.5-0.6-0.7-0.9
		c-0.4-0.6-0.6-1.3-0.9-1.9c-0.5-1.3-0.9-2.5-1.3-3.8c-0.8-2.6-1.5-5.1-2.2-7.7c-1.2-5.2-2.3-10.4-3-15.7l0.2-0.1
		c2,5,3.5,10.1,4.9,15.2c0.7,2.6,1.2,5.2,1.9,7.7c0.3,1.3,0.7,2.6,1,3.8c0.2,0.6,0.4,1.2,0.6,1.8c0.1,0.3,0.2,0.5,0.4,0.7
		c0.1,0.1,0.1,0.2,0.2,0.2l0,0c1-0.4,1.4-1.7,1.4-3c0-1.3-0.2-2.6-0.4-3.9c-0.5-2.6-1.4-5.1-2.1-7.7c-0.7-2.6-1.1-5.2-1.5-7.8
		c-0.4-2.6-0.7-5.3-0.7-8L40.6,204.3z"/>
	<path class="st7" d="M35.7,228.8c0.7,0.5,1.2,1.1,1.6,1.8c0.2,0.3,0.4,0.7,0.5,1c0.1,0.4,0.2,0.7,0.2,1.1c0,0.4,0.1,0.8,0.2,1.2
		c0.1,0.4,0.3,0.7,0.5,1c0.4,0.6,1,1.2,1.4,1.9c0.4,0.7,0.8,1.4,1,2.4c0,0.3,0,0.5,0,0.9c0,0.2-0.1,0.4-0.2,0.5l-0.2,0.3
		c-0.2,0.4-0.5,0.8-0.9,1.1c-0.2,0.2-0.5,0.4-0.8,0.5c-0.3,0.1-0.7,0.1-1,0c-0.6-0.2-0.9-0.5-1.2-0.9c-0.5-0.6-0.9-1.3-1.4-1.9
		l0.1-0.2c0.8,0.3,1.4,0.8,2,1.2c0.3,0.2,0.6,0.3,0.7,0.3c0.1,0,0.1-0.1,0.2-0.3c0.1-0.2,0.3-0.5,0.4-0.8l0.1-0.2l0,0l0-0.3
		c-0.1-0.5-0.3-1.3-0.5-2c-0.2-0.7-0.2-1.5-0.4-2.3c-0.1-0.4-0.3-0.7-0.5-1c-0.2-0.3-0.5-0.6-0.8-0.9c-0.3-0.3-0.5-0.6-0.7-0.9
		c-0.2-0.3-0.3-0.7-0.4-1.1c-0.2-0.7-0.4-1.5-0.3-2.4L35.7,228.8z"/>
</g>
</svg>
