<?xml version="1.0" encoding="utf-8"?>
<!-- Generator: Adobe Illustrator 21.1.0, SVG Export Plug-In . SVG Version: 6.00 Build 0)  -->
<svg version="1.1" id="Layer_1" xmlns="http://www.w3.org/2000/svg" xmlns:xlink="http://www.w3.org/1999/xlink" x="0px" y="0px"
	 viewBox="0 0 363 290" style="enable-background:new 0 0 363 290;" xml:space="preserve">
<style type="text/css">
	.st0{fill:#502012;}
	.st1{fill:#823F19;}
	.st2{fill:#CBBE7A;}
	.st3{fill:#B26000;}
	.st4{fill:#375271;}
	.st5{fill:#0C1A32;}
	.st6{fill:#628AB0;}
	.st7{fill:#944000;}
	.st8{fill:#E8CFB2;}
	.st9{fill:#491A0D;}
	.st10{fill:#863400;}
	.st11{fill:#7B2D00;}
	.st12{fill:#FF4E00;}
	.st13{fill:#FF1800;}
	.st14{fill:#FF8400;}
	.st15{fill:#190401;}
	.st16{fill:#873C23;}
	.st17{fill:#BFB067;}
	.st18{fill:#4B1E0F;}
	.st19{fill:#A24E00;}
	.st20{fill:#431A0D;}
	.st21{fill:#793612;}
	.st22{fill:#D4B399;}
	.st23{fill:#661F00;}
</style>
<g>
	<path class="st0" d="M176.4,62.1l0.2-40l-17.6-9.4l-0.3-4l-7.1-4L4.6,63.9c4.2,11.8,5.9,21.6,6.7,28.2c1.2,10.6,0.5,16.8,3.4,26.8
		c2.3,8.1,5.7,14.2,8,18c3,1.3,6.1,2.6,9.1,3.8L32,138l21.5,2.2L176.4,62.1"/>
	<path class="st1" d="M172.6,25.7l-66,31.4l-33,15.7c-11,5.2-22,10.5-32.9,15.9l-1.2,0.6l0.8,1c2.6,3,4.8,6.3,6.3,9.9
		c0.7,1.8,1.3,3.7,1.6,5.6c0.3,1.9,0.4,3.9,0.4,5.9c-0.1,4-0.1,8.1,0.3,12.1c0.4,4,1,8,2,12l0.2,0c-0.7-4-1.1-8-1.3-12
		c-0.1-2-0.1-4-0.1-6c0-2,0.2-4,0.3-6c0.1-2,0.1-4.1-0.2-6.2c-0.3-2-0.9-4.1-1.6-6C47,96.1,45,92.9,42.8,90
		c10.6-5.1,21.2-10.3,31.7-15.5l32.8-16.2l65.5-32.4L172.6,25.7"/>
	<path class="st1" d="M154.1,14c-11.7,4.5-23.1,9.4-34.5,14.4c-5.7,2.6-11.3,5.3-16.9,8C97,39.1,91.3,41.6,85.5,44
		c-5.7,2.5-11.5,4.8-17.3,7.2c-5.8,2.4-11.5,4.9-17.2,7.4c-11.5,4.9-22.8,10.1-34.1,15.4l-3.5,1.6l3.8-0.2c0.2,0,0.3,0,0.5,0
		c1.3,0,2.7,0.3,4,0.6c1.5,0.4,2.9,1.1,4.2,1.9c1.4,0.8,2.8,1.5,4.3,2.2c1.4,0.7,2.9,1.3,4.4,1.9l0.1-0.2c-2.8-1.4-5.6-3-8.2-4.8
		c-1.3-0.9-2.8-1.7-4.3-2.3c-0.7-0.2-1.3-0.4-2-0.6c10.6-4.5,21.3-9,31.8-13.8c5.7-2.6,11.4-5.1,17-7.8c5.7-2.6,11.3-5.3,16.9-7.9
		c5.7-2.6,11.4-5.1,17.2-7.5c5.8-2.4,11.6-4.7,17.3-7.2c11.4-5,22.8-10.2,33.9-15.9L154.1,14"/>
	<path class="st1" d="M148.4,13.6l-32.2,13L84.1,39.7C73.4,44,62.6,48.3,52,52.8c-10.6,4.6-21.2,9.2-31.7,14.2l0.1,0.2
		C31.3,63.3,42,59,52.8,54.7c10.7-4.3,21.3-9,31.9-13.6l31.9-13.7l31.9-13.7L148.4,13.6"/>
	<path class="st2" d="M24.4,129.4c1.9,0.8,4,1.6,6.4,2.2c5,1.3,9.5,1.6,13,1.6c-0.2-2.7-0.6-6.6-1.1-11.2
		c-0.9-8.1-1.4-12.2-2.2-15.6c-1-4-3-9.8-7.3-16.3c-1.9-1.5-4.3-3.1-7.4-4.6c-4.5-2.2-8.7-3.1-11.7-3.5c1,2.6,2.2,6.7,3.4,11.7
		c1.8,7.6,0.5,11.6,1.7,19.3C19.7,116.9,21,122.6,24.4,129.4z"/>
	<path class="st3" d="M29,91.8c3.2,5.2,4.6,9.8,5.3,13c1.7,8.1,0,13.2,0.5,19.7c0,0.4,0.1,0.8-0.1,0.9c-0.5,0.2-3.9-4.9-3.8-10.3
		c0.1-2.5,0.8-4,1.3-5.3C33.4,106.2,33.6,100.6,29,91.8z"/>
	<path class="st3" d="M23.2,89.4c0,0,1.6,5.5,0.7,10c-0.9,4.5,1.8,28.1,3.5,28.8c1.7,0.7-0.3-11.3-1.5-17.3
		C24.5,104.4,21.2,88.2,23.2,89.4z"/>
	<path class="st4" d="M315.8,219.8c0,12.7-14.3,23.1-31.9,23.1c-17.6,0-31.9-10.3-31.9-23.1c0-12.7,14.3-23.1,31.9-23.1
		C301.5,196.8,315.8,207.1,315.8,219.8"/>
	<path class="st4" d="M283.8,242.9C283.8,242.9,283.9,242.9,283.8,242.9C283.9,242.9,283.8,242.9,283.8,242.9 M283.9,242.9
		C283.9,242.9,283.9,242.9,283.9,242.9C283.9,242.9,283.9,242.9,283.9,242.9 M283.8,242.9C283.8,242.9,283.8,242.9,283.8,242.9
		C283.8,242.9,283.8,242.9,283.8,242.9 M284,242.9C284,242.9,284,242.9,284,242.9C284,242.9,284,242.9,284,242.9 M283.7,242.9
		C283.7,242.9,283.7,242.9,283.7,242.9C283.7,242.9,283.7,242.9,283.7,242.9 M284,242.9C284,242.9,284,242.9,284,242.9
		C284,242.9,284,242.9,284,242.9 M283.7,242.9C283.7,242.9,283.7,242.9,283.7,242.9C283.7,242.9,283.7,242.9,283.7,242.9
		 M284.1,242.9C284.1,242.9,284.1,242.9,284.1,242.9C284.1,242.9,284.1,242.9,284.1,242.9 M283.6,242.9
		C283.6,242.9,283.6,242.9,283.6,242.9C283.6,242.9,283.6,242.9,283.6,242.9 M284.1,242.9C284.1,242.9,284.1,242.9,284.1,242.9
		C284.1,242.9,284.1,242.9,284.1,242.9 M283.6,242.9C283.6,242.9,283.6,242.9,283.6,242.9C283.6,242.9,283.6,242.9,283.6,242.9
		 M284.2,242.9C284.2,242.9,284.2,242.9,284.2,242.9C284.2,242.9,284.2,242.9,284.2,242.9 M283.5,242.9
		C283.5,242.9,283.5,242.9,283.5,242.9C283.5,242.9,283.5,242.9,283.5,242.9 M284.2,242.9C284.2,242.9,284.2,242.9,284.2,242.9
		C284.2,242.9,284.2,242.9,284.2,242.9 M283.5,242.9C283.5,242.9,283.5,242.9,283.5,242.9C283.5,242.9,283.5,242.9,283.5,242.9
		 M284.3,242.9C284.3,242.9,284.3,242.9,284.3,242.9C284.3,242.9,284.3,242.9,284.3,242.9 M283.4,242.9
		C283.4,242.9,283.4,242.9,283.4,242.9C283.4,242.9,283.4,242.9,283.4,242.9 M284.3,242.9C284.3,242.9,284.3,242.9,284.3,242.9
		C284.3,242.9,284.3,242.9,284.3,242.9 M283.4,242.9C283.4,242.9,283.4,242.9,283.4,242.9C283.4,242.9,283.4,242.9,283.4,242.9
		 M284.4,242.9C284.4,242.9,284.4,242.9,284.4,242.9C284.4,242.9,284.4,242.9,284.4,242.9 M283.3,242.9
		C283.3,242.9,283.3,242.9,283.3,242.9C283.3,242.9,283.3,242.9,283.3,242.9 M284.4,242.9C284.4,242.9,284.4,242.9,284.4,242.9
		C284.4,242.9,284.4,242.9,284.4,242.9 M284.5,242.9C284.5,242.9,284.5,242.9,284.5,242.9C284.5,242.9,284.5,242.9,284.5,242.9
		 M283.3,242.9C283.3,242.9,283.3,242.9,283.3,242.9C283.3,242.9,283.3,242.9,283.3,242.9 M284.5,242.9
		C284.5,242.9,284.5,242.9,284.5,242.9C284.5,242.9,284.5,242.9,284.5,242.9 M283.2,242.9C283.2,242.9,283.2,242.9,283.2,242.9
		C283.2,242.9,283.2,242.9,283.2,242.9 M283.2,242.9C283.2,242.9,283.2,242.9,283.2,242.9C283.2,242.9,283.2,242.9,283.2,242.9
		 M284.6,242.9C284.6,242.9,284.6,242.9,284.6,242.9C284.6,242.9,284.6,242.9,284.6,242.9 M283.1,242.9
		C283.1,242.9,283.1,242.9,283.1,242.9C283.1,242.9,283.1,242.9,283.1,242.9 M284.6,242.9C284.6,242.9,284.6,242.9,284.6,242.9
		C284.6,242.9,284.6,242.9,284.6,242.9 M283.1,242.9C283.1,242.9,283.1,242.9,283.1,242.9C283.1,242.9,283.1,242.9,283.1,242.9
		 M284.7,242.9C284.7,242.9,284.7,242.9,284.7,242.9C284.7,242.9,284.7,242.9,284.7,242.9 M283,242.9C283,242.9,283,242.9,283,242.9
		C283,242.9,283,242.9,283,242.9 M284.7,242.9C284.7,242.9,284.7,242.9,284.7,242.9C284.7,242.9,284.7,242.9,284.7,242.9 M283,242.9
		C283,242.9,283,242.9,283,242.9C283,242.9,283,242.9,283,242.9 M284.8,242.9C284.8,242.9,284.8,242.9,284.8,242.9
		C284.8,242.9,284.8,242.9,284.8,242.9 M282.9,242.9C282.9,242.9,282.9,242.9,282.9,242.9C282.9,242.9,282.9,242.9,282.9,242.9
		 M284.8,242.9C284.8,242.9,284.8,242.9,284.8,242.9C284.8,242.9,284.8,242.9,284.8,242.9 M282.9,242.9
		C282.9,242.9,282.9,242.9,282.9,242.9C282.9,242.9,282.9,242.9,282.9,242.9 M284.9,242.9C284.9,242.9,284.9,242.9,284.9,242.9
		C284.9,242.9,284.9,242.9,284.9,242.9 M282.8,242.9C282.8,242.9,282.8,242.9,282.8,242.9C282.8,242.9,282.8,242.9,282.8,242.9
		 M284.9,242.9C284.9,242.9,284.9,242.9,284.9,242.9C284.9,242.9,284.9,242.9,284.9,242.9 M282.8,242.9
		C282.8,242.9,282.8,242.9,282.8,242.9C282.8,242.9,282.8,242.9,282.8,242.9 M285,242.9C285,242.9,285,242.9,285,242.9
		C285,242.9,285,242.9,285,242.9 M282.7,242.9C282.7,242.9,282.7,242.9,282.7,242.9C282.7,242.9,282.7,242.9,282.7,242.9 M285,242.9
		C285,242.9,285,242.9,285,242.9C285,242.9,285,242.9,285,242.9 M282.7,242.9C282.7,242.9,282.7,242.9,282.7,242.9
		C282.7,242.9,282.7,242.9,282.7,242.9 M285.1,242.9C285.1,242.9,285.1,242.9,285.1,242.9C285.1,242.9,285.1,242.9,285.1,242.9
		 M282.6,242.9C282.6,242.9,282.6,242.9,282.6,242.9C282.6,242.9,282.6,242.9,282.6,242.9 M285.1,242.9
		C285.1,242.9,285.1,242.9,285.1,242.9C285.1,242.9,285.1,242.9,285.1,242.9 M282.6,242.9C282.6,242.9,282.6,242.9,282.6,242.9
		C282.6,242.9,282.6,242.9,282.6,242.9 M285.2,242.9C285.2,242.9,285.2,242.9,285.2,242.9C285.2,242.9,285.2,242.9,285.2,242.9
		 M282.5,242.9C282.5,242.9,282.5,242.9,282.5,242.9C282.5,242.9,282.5,242.9,282.5,242.9 M285.3,242.9
		C285.2,242.9,285.2,242.9,285.3,242.9C285.2,242.9,285.2,242.9,285.3,242.9 M282.5,242.9C282.5,242.9,282.5,242.9,282.5,242.9
		C282.5,242.9,282.5,242.9,282.5,242.9 M285.3,242.9C285.3,242.9,285.3,242.9,285.3,242.9C285.3,242.9,285.3,242.9,285.3,242.9
		 M282.4,242.9C282.4,242.9,282.4,242.9,282.4,242.9C282.4,242.9,282.4,242.9,282.4,242.9 M285.4,242.9
		C285.3,242.9,285.3,242.9,285.4,242.9C285.3,242.9,285.3,242.9,285.4,242.9 M282.3,242.9C282.4,242.9,282.4,242.9,282.3,242.9
		C282.4,242.9,282.4,242.9,282.3,242.9 M285.4,242.9C285.4,242.9,285.4,242.9,285.4,242.9C285.4,242.9,285.4,242.9,285.4,242.9
		 M282.3,242.9C282.3,242.9,282.3,242.9,282.3,242.9C282.3,242.9,282.3,242.9,282.3,242.9 M285.5,242.9
		C285.4,242.9,285.4,242.9,285.5,242.9C285.4,242.9,285.4,242.9,285.5,242.9 M282.1,242.9c0.1,0,0.1,0,0.2,0
		C282.2,242.9,282.2,242.9,282.1,242.9 M285.6,242.9c-0.1,0-0.1,0-0.2,0C285.5,242.9,285.6,242.9,285.6,242.9 M282.1,242.9
		C282.1,242.9,282.1,242.9,282.1,242.9C282.1,242.9,282.1,242.9,282.1,242.9 M285.7,242.9C285.7,242.9,285.6,242.9,285.7,242.9
		C285.6,242.9,285.7,242.9,285.7,242.9 M282,242.9C282,242.9,282.1,242.9,282,242.9C282.1,242.9,282,242.9,282,242.9 M285.7,242.9
		C285.7,242.9,285.7,242.9,285.7,242.9C285.7,242.9,285.7,242.9,285.7,242.9 M282,242.9C282,242.9,282,242.9,282,242.9
		C282,242.9,282,242.9,282,242.9 M285.8,242.9C285.8,242.9,285.7,242.9,285.8,242.9C285.7,242.9,285.8,242.9,285.8,242.9
		 M281.9,242.9C281.9,242.9,282,242.9,281.9,242.9C282,242.9,281.9,242.9,281.9,242.9 M285.8,242.9
		C285.8,242.9,285.8,242.9,285.8,242.9C285.8,242.9,285.8,242.9,285.8,242.9 M281.9,242.9C281.9,242.9,281.9,242.9,281.9,242.9
		C281.9,242.9,281.9,242.9,281.9,242.9 M285.9,242.9C285.9,242.9,285.8,242.9,285.9,242.9C285.9,242.9,285.9,242.9,285.9,242.9
		 M281.8,242.9C281.8,242.9,281.9,242.9,281.8,242.9C281.9,242.9,281.8,242.9,281.8,242.9 M285.9,242.9
		C285.9,242.9,285.9,242.9,285.9,242.9C285.9,242.9,285.9,242.9,285.9,242.9 M281.8,242.9C281.8,242.9,281.8,242.9,281.8,242.9
		C281.8,242.9,281.8,242.9,281.8,242.9 M286,242.9C286,242.9,285.9,242.9,286,242.9C285.9,242.9,286,242.9,286,242.9 M281.7,242.9
		C281.7,242.9,281.8,242.9,281.7,242.9C281.8,242.9,281.7,242.9,281.7,242.9 M286,242.9C286,242.9,286,242.9,286,242.9
		C286,242.9,286,242.9,286,242.9 M281.7,242.9C281.7,242.9,281.7,242.9,281.7,242.9C281.7,242.9,281.7,242.9,281.7,242.9
		 M286.1,242.9C286.1,242.9,286.1,242.9,286.1,242.9C286.1,242.9,286.1,242.9,286.1,242.9 M281.6,242.8
		C281.6,242.8,281.7,242.9,281.6,242.8C281.7,242.9,281.6,242.8,281.6,242.8 M286.1,242.8C286.1,242.8,286.1,242.9,286.1,242.8
		C286.1,242.9,286.1,242.8,286.1,242.8 M281.6,242.8C281.6,242.8,281.6,242.8,281.6,242.8C281.6,242.8,281.6,242.8,281.6,242.8
		 M286.2,242.8C286.2,242.8,286.1,242.8,286.2,242.8C286.2,242.8,286.2,242.8,286.2,242.8 M281.5,242.8
		C281.5,242.8,281.6,242.8,281.5,242.8C281.6,242.8,281.5,242.8,281.5,242.8 M286.2,242.8C286.2,242.8,286.2,242.8,286.2,242.8
		C286.2,242.8,286.2,242.8,286.2,242.8 M281.5,242.8C281.5,242.8,281.5,242.8,281.5,242.8C281.5,242.8,281.5,242.8,281.5,242.8
		 M286.3,242.8C286.3,242.8,286.3,242.8,286.3,242.8C286.3,242.8,286.3,242.8,286.3,242.8 M281.4,242.8
		C281.4,242.8,281.5,242.8,281.4,242.8C281.5,242.8,281.4,242.8,281.4,242.8 M286.3,242.8C286.3,242.8,286.3,242.8,286.3,242.8
		C286.3,242.8,286.3,242.8,286.3,242.8 M281.4,242.8C281.4,242.8,281.4,242.8,281.4,242.8C281.4,242.8,281.4,242.8,281.4,242.8
		 M286.4,242.8C286.4,242.8,286.4,242.8,286.4,242.8C286.4,242.8,286.4,242.8,286.4,242.8 M281.3,242.8
		C281.3,242.8,281.4,242.8,281.3,242.8C281.4,242.8,281.3,242.8,281.3,242.8 M286.4,242.8C286.4,242.8,286.4,242.8,286.4,242.8
		C286.4,242.8,286.4,242.8,286.4,242.8 M281.3,242.8C281.3,242.8,281.3,242.8,281.3,242.8C281.3,242.8,281.3,242.8,281.3,242.8
		 M286.5,242.8C286.5,242.8,286.4,242.8,286.5,242.8C286.5,242.8,286.5,242.8,286.5,242.8 M281.2,242.8
		C281.2,242.8,281.3,242.8,281.2,242.8C281.3,242.8,281.2,242.8,281.2,242.8 M286.5,242.8C286.5,242.8,286.5,242.8,286.5,242.8
		C286.5,242.8,286.5,242.8,286.5,242.8 M281.2,242.8C281.2,242.8,281.2,242.8,281.2,242.8C281.2,242.8,281.2,242.8,281.2,242.8
		 M286.6,242.8C286.6,242.8,286.6,242.8,286.6,242.8C286.6,242.8,286.6,242.8,286.6,242.8 M281.1,242.8
		C281.1,242.8,281.2,242.8,281.1,242.8C281.2,242.8,281.1,242.8,281.1,242.8 M286.6,242.8C286.6,242.8,286.6,242.8,286.6,242.8
		C286.6,242.8,286.6,242.8,286.6,242.8 M281.1,242.8C281.1,242.8,281.1,242.8,281.1,242.8C281.1,242.8,281.1,242.8,281.1,242.8
		 M286.7,242.8C286.7,242.8,286.7,242.8,286.7,242.8C286.7,242.8,286.7,242.8,286.7,242.8 M281,242.8
		C281,242.8,281.1,242.8,281,242.8C281.1,242.8,281,242.8,281,242.8 M286.7,242.8C286.7,242.8,286.7,242.8,286.7,242.8
		C286.7,242.8,286.7,242.8,286.7,242.8 M281,242.8C281,242.8,281,242.8,281,242.8C281,242.8,281,242.8,281,242.8 M286.8,242.8
		C286.8,242.8,286.7,242.8,286.8,242.8C286.8,242.8,286.8,242.8,286.8,242.8 M280.9,242.8C280.9,242.8,281,242.8,280.9,242.8
		C281,242.8,280.9,242.8,280.9,242.8 M286.8,242.8C286.8,242.8,286.8,242.8,286.8,242.8C286.8,242.8,286.8,242.8,286.8,242.8
		 M280.9,242.8C280.9,242.8,280.9,242.8,280.9,242.8C280.9,242.8,280.9,242.8,280.9,242.8 M286.9,242.8
		C286.9,242.8,286.9,242.8,286.9,242.8C286.9,242.8,286.9,242.8,286.9,242.8 M280.8,242.8C280.8,242.8,280.9,242.8,280.8,242.8
		C280.9,242.8,280.8,242.8,280.8,242.8 M286.9,242.8C286.9,242.8,286.9,242.8,286.9,242.8C286.9,242.8,286.9,242.8,286.9,242.8
		 M280.8,242.8C280.8,242.8,280.8,242.8,280.8,242.8C280.8,242.8,280.8,242.8,280.8,242.8 M287,242.8C287,242.8,287,242.8,287,242.8
		C287,242.8,287,242.8,287,242.8 M280.7,242.8C280.7,242.8,280.8,242.8,280.7,242.8C280.8,242.8,280.7,242.8,280.7,242.8 M287,242.8
		C287,242.8,287,242.8,287,242.8C287,242.8,287,242.8,287,242.8 M280.7,242.8C280.7,242.8,280.7,242.8,280.7,242.8
		C280.7,242.8,280.7,242.8,280.7,242.8 M280.5,242.8c0.1,0,0.1,0,0.2,0C280.6,242.8,280.5,242.8,280.5,242.8 M280.4,242.8
		C280.4,242.8,280.4,242.8,280.4,242.8C280.4,242.8,280.4,242.8,280.4,242.8 M287.3,242.8c-0.1,0-0.2,0-0.3,0
		C287.1,242.8,287.2,242.8,287.3,242.8 M280.4,242.8C280.4,242.8,280.4,242.8,280.4,242.8C280.4,242.8,280.4,242.8,280.4,242.8
		 M287.4,242.8C287.4,242.8,287.4,242.8,287.4,242.8C287.4,242.8,287.4,242.8,287.4,242.8 M280.3,242.8
		C280.3,242.8,280.3,242.8,280.3,242.8C280.3,242.8,280.3,242.8,280.3,242.8 M287.4,242.8C287.4,242.8,287.4,242.8,287.4,242.8
		C287.4,242.8,287.4,242.8,287.4,242.8 M280.3,242.8C280.3,242.8,280.3,242.8,280.3,242.8C280.3,242.8,280.3,242.8,280.3,242.8
		 M287.5,242.8C287.5,242.8,287.5,242.8,287.5,242.8C287.5,242.8,287.5,242.8,287.5,242.8 M280.2,242.8
		C280.2,242.8,280.2,242.8,280.2,242.8C280.2,242.8,280.2,242.8,280.2,242.8 M287.5,242.8C287.5,242.8,287.5,242.8,287.5,242.8
		C287.5,242.8,287.5,242.8,287.5,242.8 M280.2,242.8C280.2,242.8,280.2,242.8,280.2,242.8C280.2,242.8,280.2,242.8,280.2,242.8
		 M287.6,242.8C287.6,242.8,287.6,242.8,287.6,242.8C287.6,242.8,287.6,242.8,287.6,242.8 M280.1,242.7
		C280.1,242.7,280.1,242.7,280.1,242.7C280.1,242.7,280.1,242.7,280.1,242.7 M287.6,242.7C287.6,242.7,287.6,242.7,287.6,242.7
		C287.6,242.7,287.6,242.7,287.6,242.7 M280.1,242.7C280.1,242.7,280.1,242.7,280.1,242.7C280.1,242.7,280.1,242.7,280.1,242.7
		 M287.7,242.7C287.7,242.7,287.7,242.7,287.7,242.7C287.7,242.7,287.7,242.7,287.7,242.7 M280,242.7C280,242.7,280,242.7,280,242.7
		C280,242.7,280,242.7,280,242.7 M287.7,242.7C287.7,242.7,287.7,242.7,287.7,242.7C287.7,242.7,287.7,242.7,287.7,242.7 M280,242.7
		C280,242.7,280,242.7,280,242.7C280,242.7,280,242.7,280,242.7 M287.8,242.7C287.8,242.7,287.8,242.7,287.8,242.7
		C287.8,242.7,287.8,242.7,287.8,242.7 M279.9,242.7C279.9,242.7,279.9,242.7,279.9,242.7C279.9,242.7,279.9,242.7,279.9,242.7
		 M287.8,242.7C287.8,242.7,287.8,242.7,287.8,242.7C287.8,242.7,287.8,242.7,287.8,242.7 M279.9,242.7
		C279.9,242.7,279.9,242.7,279.9,242.7C279.9,242.7,279.9,242.7,279.9,242.7 M287.9,242.7C287.9,242.7,287.9,242.7,287.9,242.7
		C287.9,242.7,287.9,242.7,287.9,242.7 M279.8,242.7C279.8,242.7,279.8,242.7,279.8,242.7C279.8,242.7,279.8,242.7,279.8,242.7
		 M287.9,242.7C287.9,242.7,287.9,242.7,287.9,242.7C287.9,242.7,287.9,242.7,287.9,242.7 M279.8,242.7
		C279.8,242.7,279.8,242.7,279.8,242.7C279.8,242.7,279.8,242.7,279.8,242.7 M288,242.7C288,242.7,288,242.7,288,242.7
		C288,242.7,288,242.7,288,242.7 M279.7,242.7C279.7,242.7,279.7,242.7,279.7,242.7C279.7,242.7,279.7,242.7,279.7,242.7 M288,242.7
		C288,242.7,288,242.7,288,242.7C288,242.7,288,242.7,288,242.7 M279.7,242.7C279.7,242.7,279.7,242.7,279.7,242.7
		C279.7,242.7,279.7,242.7,279.7,242.7 M288.1,242.7C288.1,242.7,288.1,242.7,288.1,242.7C288.1,242.7,288.1,242.7,288.1,242.7
		 M279.6,242.7C279.6,242.7,279.6,242.7,279.6,242.7C279.6,242.7,279.6,242.7,279.6,242.7 M288.1,242.7
		C288.1,242.7,288.1,242.7,288.1,242.7C288.1,242.7,288.1,242.7,288.1,242.7 M279.6,242.7C279.6,242.7,279.6,242.7,279.6,242.7
		C279.6,242.7,279.6,242.7,279.6,242.7 M288.2,242.7C288.2,242.7,288.2,242.7,288.2,242.7C288.2,242.7,288.2,242.7,288.2,242.7
		 M279.5,242.7C279.5,242.7,279.5,242.7,279.5,242.7C279.5,242.7,279.5,242.7,279.5,242.7 M288.2,242.7
		C288.2,242.7,288.2,242.7,288.2,242.7C288.2,242.7,288.2,242.7,288.2,242.7 M279.5,242.7C279.5,242.7,279.5,242.7,279.5,242.7
		C279.5,242.7,279.5,242.7,279.5,242.7 M288.3,242.7C288.3,242.7,288.3,242.7,288.3,242.7C288.3,242.7,288.3,242.7,288.3,242.7
		 M279.4,242.7C279.4,242.7,279.4,242.7,279.4,242.7C279.5,242.7,279.4,242.7,279.4,242.7 M288.3,242.7
		C288.3,242.7,288.3,242.7,288.3,242.7C288.3,242.7,288.3,242.7,288.3,242.7 M279.4,242.7C279.4,242.7,279.4,242.7,279.4,242.7
		C279.4,242.7,279.4,242.7,279.4,242.7 M288.4,242.7C288.4,242.7,288.4,242.7,288.4,242.7C288.4,242.7,288.4,242.7,288.4,242.7
		 M279.3,242.7C279.3,242.7,279.4,242.7,279.3,242.7C279.4,242.7,279.3,242.7,279.3,242.7 M288.4,242.7
		C288.4,242.7,288.4,242.7,288.4,242.7C288.4,242.7,288.4,242.7,288.4,242.7 M279.3,242.7C279.3,242.7,279.3,242.7,279.3,242.7
		C279.3,242.7,279.3,242.7,279.3,242.7 M288.5,242.7C288.5,242.7,288.5,242.7,288.5,242.7C288.5,242.7,288.5,242.7,288.5,242.7
		 M279.2,242.7C279.2,242.7,279.3,242.7,279.2,242.7C279.3,242.7,279.2,242.7,279.2,242.7 M288.5,242.7
		C288.5,242.7,288.5,242.7,288.5,242.7C288.5,242.7,288.5,242.7,288.5,242.7 M279.2,242.7C279.2,242.7,279.2,242.7,279.2,242.7
		C279.2,242.7,279.2,242.7,279.2,242.7 M288.6,242.7C288.6,242.7,288.5,242.7,288.6,242.7C288.5,242.7,288.6,242.7,288.6,242.7
		 M279.1,242.7C279.1,242.7,279.2,242.7,279.1,242.7C279.2,242.7,279.1,242.7,279.1,242.7 M279,242.6c0,0,0.1,0,0.1,0
		C279.1,242.6,279,242.6,279,242.6 M278.9,242.6C278.9,242.6,278.9,242.6,278.9,242.6C278.9,242.6,278.9,242.6,278.9,242.6
		 M288.9,242.6c-0.1,0-0.2,0-0.3,0C288.7,242.6,288.8,242.6,288.9,242.6 M278.8,242.6C278.8,242.6,278.8,242.6,278.8,242.6
		C278.8,242.6,278.8,242.6,278.8,242.6 M288.9,242.6C288.9,242.6,288.9,242.6,288.9,242.6C288.9,242.6,288.9,242.6,288.9,242.6
		 M278.8,242.6C278.8,242.6,278.8,242.6,278.8,242.6C278.8,242.6,278.8,242.6,278.8,242.6 M289,242.6C289,242.6,289,242.6,289,242.6
		C289,242.6,289,242.6,289,242.6 M278.7,242.6C278.7,242.6,278.7,242.6,278.7,242.6C278.7,242.6,278.7,242.6,278.7,242.6 M289,242.6
		C289,242.6,289,242.6,289,242.6C289,242.6,289,242.6,289,242.6 M278.7,242.6C278.7,242.6,278.7,242.6,278.7,242.6
		C278.7,242.6,278.7,242.6,278.7,242.6 M289.1,242.6C289.1,242.6,289.1,242.6,289.1,242.6C289.1,242.6,289.1,242.6,289.1,242.6
		 M278.6,242.6C278.6,242.6,278.6,242.6,278.6,242.6C278.6,242.6,278.6,242.6,278.6,242.6 M289.1,242.6
		C289.1,242.6,289.1,242.6,289.1,242.6C289.1,242.6,289.1,242.6,289.1,242.6 M278.6,242.6C278.6,242.6,278.6,242.6,278.6,242.6
		C278.6,242.6,278.6,242.6,278.6,242.6 M289.2,242.6C289.2,242.6,289.2,242.6,289.2,242.6C289.2,242.6,289.2,242.6,289.2,242.6
		 M278.5,242.6C278.5,242.6,278.6,242.6,278.5,242.6C278.6,242.6,278.5,242.6,278.5,242.6 M289.2,242.6
		C289.2,242.6,289.2,242.6,289.2,242.6C289.2,242.6,289.2,242.6,289.2,242.6 M278.5,242.6C278.5,242.6,278.5,242.6,278.5,242.6
		C278.5,242.6,278.5,242.6,278.5,242.6 M289.3,242.6C289.3,242.6,289.3,242.6,289.3,242.6C289.3,242.6,289.3,242.6,289.3,242.6
		 M278.4,242.6C278.4,242.6,278.5,242.6,278.4,242.6C278.5,242.6,278.4,242.6,278.4,242.6 M289.3,242.6
		C289.3,242.6,289.3,242.6,289.3,242.6C289.3,242.6,289.3,242.6,289.3,242.6 M278.4,242.6C278.4,242.6,278.4,242.6,278.4,242.6
		C278.4,242.6,278.4,242.6,278.4,242.6 M289.4,242.6C289.4,242.6,289.3,242.6,289.4,242.6C289.3,242.6,289.4,242.6,289.4,242.6
		 M278.3,242.6C278.3,242.6,278.4,242.6,278.3,242.6C278.4,242.6,278.3,242.6,278.3,242.6 M289.4,242.6
		C289.4,242.6,289.4,242.6,289.4,242.6C289.4,242.6,289.4,242.6,289.4,242.6 M278.3,242.6C278.3,242.6,278.3,242.6,278.3,242.6
		C278.3,242.6,278.3,242.6,278.3,242.6 M289.5,242.6C289.5,242.6,289.4,242.6,289.5,242.6C289.4,242.6,289.5,242.6,289.5,242.6
		 M278.2,242.5C278.3,242.5,278.3,242.5,278.2,242.5C278.3,242.5,278.3,242.5,278.2,242.5 M289.5,242.5
		C289.5,242.5,289.5,242.5,289.5,242.5C289.5,242.5,289.5,242.5,289.5,242.5 M278.2,242.5C278.2,242.5,278.2,242.5,278.2,242.5
		C278.2,242.5,278.2,242.5,278.2,242.5 M289.6,242.5C289.6,242.5,289.5,242.5,289.6,242.5C289.5,242.5,289.6,242.5,289.6,242.5
		 M278.1,242.5C278.2,242.5,278.2,242.5,278.1,242.5C278.2,242.5,278.2,242.5,278.1,242.5 M289.6,242.5
		C289.6,242.5,289.6,242.5,289.6,242.5C289.6,242.5,289.6,242.5,289.6,242.5 M278.1,242.5C278.1,242.5,278.1,242.5,278.1,242.5
		C278.1,242.5,278.1,242.5,278.1,242.5 M289.7,242.5C289.6,242.5,289.6,242.5,289.7,242.5C289.6,242.5,289.6,242.5,289.7,242.5
		 M278,242.5C278.1,242.5,278.1,242.5,278,242.5C278.1,242.5,278.1,242.5,278,242.5 M289.7,242.5
		C289.7,242.5,289.7,242.5,289.7,242.5C289.7,242.5,289.7,242.5,289.7,242.5 M278,242.5C278,242.5,278,242.5,278,242.5
		C278,242.5,278,242.5,278,242.5 M289.8,242.5C289.7,242.5,289.7,242.5,289.8,242.5C289.7,242.5,289.7,242.5,289.8,242.5 M278,242.5
		C278,242.5,278,242.5,278,242.5C278,242.5,278,242.5,278,242.5 M289.8,242.5C289.8,242.5,289.8,242.5,289.8,242.5
		C289.8,242.5,289.8,242.5,289.8,242.5 M277.9,242.5C277.9,242.5,277.9,242.5,277.9,242.5C277.9,242.5,277.9,242.5,277.9,242.5
		 M289.9,242.5C289.8,242.5,289.8,242.5,289.9,242.5C289.8,242.5,289.8,242.5,289.9,242.5 M277.9,242.5
		C277.9,242.5,277.9,242.5,277.9,242.5C277.9,242.5,277.9,242.5,277.9,242.5 M289.9,242.5C289.9,242.5,289.9,242.5,289.9,242.5
		C289.9,242.5,289.9,242.5,289.9,242.5 M277.8,242.5C277.8,242.5,277.8,242.5,277.8,242.5C277.8,242.5,277.8,242.5,277.8,242.5
		 M289.9,242.5C289.9,242.5,289.9,242.5,289.9,242.5C289.9,242.5,289.9,242.5,289.9,242.5 M277.8,242.5
		C277.8,242.5,277.8,242.5,277.8,242.5C277.8,242.5,277.8,242.5,277.8,242.5 M290,242.5C290,242.5,290,242.5,290,242.5
		C290,242.5,290,242.5,290,242.5 M277.7,242.5C277.7,242.5,277.7,242.5,277.7,242.5C277.7,242.5,277.7,242.5,277.7,242.5 M290,242.5
		C290,242.5,290,242.5,290,242.5C290,242.5,290,242.5,290,242.5 M277.7,242.5C277.7,242.5,277.7,242.5,277.7,242.5
		C277.7,242.5,277.7,242.5,277.7,242.5 M290.1,242.5C290.1,242.5,290.1,242.5,290.1,242.5C290.1,242.5,290.1,242.5,290.1,242.5
		 M277.6,242.5C277.6,242.5,277.6,242.5,277.6,242.5C277.6,242.5,277.6,242.5,277.6,242.5 M290.1,242.5
		C290.1,242.5,290.1,242.5,290.1,242.5C290.1,242.5,290.1,242.5,290.1,242.5 M277.6,242.5C277.6,242.5,277.6,242.5,277.6,242.5
		C277.6,242.5,277.6,242.5,277.6,242.5 M290.2,242.5C290.2,242.5,290.2,242.5,290.2,242.5C290.2,242.5,290.2,242.5,290.2,242.5
		 M290.2,242.4C290.2,242.4,290.2,242.4,290.2,242.4C290.2,242.4,290.2,242.4,290.2,242.4 M277.4,242.4
		C277.5,242.4,277.5,242.4,277.4,242.4C277.5,242.4,277.5,242.4,277.4,242.4 M277.4,242.4C277.4,242.4,277.4,242.4,277.4,242.4
		C277.4,242.4,277.4,242.4,277.4,242.4 M290.4,242.4C290.3,242.4,290.3,242.4,290.4,242.4C290.3,242.4,290.3,242.4,290.4,242.4
		 M277.4,242.4C277.4,242.4,277.4,242.4,277.4,242.4C277.4,242.4,277.4,242.4,277.4,242.4 M290.4,242.4
		C290.4,242.4,290.4,242.4,290.4,242.4C290.4,242.4,290.4,242.4,290.4,242.4 M277.3,242.4C277.3,242.4,277.3,242.4,277.3,242.4
		C277.3,242.4,277.3,242.4,277.3,242.4 M290.4,242.4C290.4,242.4,290.4,242.4,290.4,242.4C290.4,242.4,290.4,242.4,290.4,242.4
		 M277.3,242.4C277.3,242.4,277.3,242.4,277.3,242.4C277.3,242.4,277.3,242.4,277.3,242.4 M290.5,242.4
		C290.5,242.4,290.5,242.4,290.5,242.4C290.5,242.4,290.5,242.4,290.5,242.4 M277.2,242.4C277.2,242.4,277.2,242.4,277.2,242.4
		C277.2,242.4,277.2,242.4,277.2,242.4 M290.5,242.4C290.5,242.4,290.5,242.4,290.5,242.4C290.5,242.4,290.5,242.4,290.5,242.4
		 M277.2,242.4C277.2,242.4,277.2,242.4,277.2,242.4C277.2,242.4,277.2,242.4,277.2,242.4 M290.6,242.4
		C290.6,242.4,290.6,242.4,290.6,242.4C290.6,242.4,290.6,242.4,290.6,242.4 M277.1,242.4C277.1,242.4,277.1,242.4,277.1,242.4
		C277.1,242.4,277.1,242.4,277.1,242.4 M290.6,242.4C290.6,242.4,290.6,242.4,290.6,242.4C290.6,242.4,290.6,242.4,290.6,242.4
		 M277.1,242.4C277.1,242.4,277.1,242.4,277.1,242.4C277.1,242.4,277.1,242.4,277.1,242.4 M290.7,242.4
		C290.7,242.4,290.7,242.4,290.7,242.4C290.7,242.4,290.7,242.4,290.7,242.4 M277,242.4C277,242.4,277,242.4,277,242.4
		C277,242.4,277,242.4,277,242.4 M290.7,242.4C290.7,242.4,290.7,242.4,290.7,242.4C290.7,242.4,290.7,242.4,290.7,242.4 M277,242.4
		C277,242.4,277,242.4,277,242.4C277,242.4,277,242.4,277,242.4 M290.8,242.4C290.8,242.4,290.8,242.4,290.8,242.4
		C290.8,242.4,290.8,242.4,290.8,242.4 M276.9,242.4C276.9,242.4,276.9,242.4,276.9,242.4C276.9,242.4,276.9,242.4,276.9,242.4
		 M290.8,242.4C290.8,242.4,290.8,242.4,290.8,242.4C290.8,242.4,290.8,242.4,290.8,242.4 M276.9,242.3
		C276.9,242.3,276.9,242.4,276.9,242.3C276.9,242.4,276.9,242.3,276.9,242.3 M290.9,242.3C290.9,242.3,290.9,242.4,290.9,242.3
		C290.9,242.4,290.9,242.3,290.9,242.3 M276.8,242.3C276.8,242.3,276.8,242.3,276.8,242.3C276.8,242.3,276.8,242.3,276.8,242.3
		 M290.9,242.3C290.9,242.3,290.9,242.3,290.9,242.3C290.9,242.3,290.9,242.3,290.9,242.3 M276.8,242.3
		C276.8,242.3,276.8,242.3,276.8,242.3C276.8,242.3,276.8,242.3,276.8,242.3 M291,242.3C291,242.3,291,242.3,291,242.3
		C291,242.3,291,242.3,291,242.3 M276.7,242.3C276.7,242.3,276.7,242.3,276.7,242.3C276.7,242.3,276.7,242.3,276.7,242.3 M291,242.3
		C291,242.3,291,242.3,291,242.3C291,242.3,291,242.3,291,242.3 M276.7,242.3C276.7,242.3,276.7,242.3,276.7,242.3
		C276.7,242.3,276.7,242.3,276.7,242.3 M291.1,242.3C291.1,242.3,291.1,242.3,291.1,242.3C291.1,242.3,291.1,242.3,291.1,242.3
		 M276.6,242.3C276.6,242.3,276.7,242.3,276.6,242.3C276.7,242.3,276.6,242.3,276.6,242.3 M291.1,242.3
		C291.1,242.3,291.1,242.3,291.1,242.3C291.1,242.3,291.1,242.3,291.1,242.3 M276.6,242.3C276.6,242.3,276.6,242.3,276.6,242.3
		C276.6,242.3,276.6,242.3,276.6,242.3 M291.2,242.3C291.2,242.3,291.1,242.3,291.2,242.3C291.1,242.3,291.2,242.3,291.2,242.3
		 M276.6,242.3C276.6,242.3,276.6,242.3,276.6,242.3C276.6,242.3,276.6,242.3,276.6,242.3 M291.2,242.3
		C291.2,242.3,291.2,242.3,291.2,242.3C291.2,242.3,291.2,242.3,291.2,242.3 M276.5,242.3C276.5,242.3,276.5,242.3,276.5,242.3
		C276.5,242.3,276.5,242.3,276.5,242.3 M291.3,242.3C291.2,242.3,291.2,242.3,291.3,242.3C291.2,242.3,291.2,242.3,291.3,242.3
		 M276.5,242.3C276.5,242.3,276.5,242.3,276.5,242.3C276.5,242.3,276.5,242.3,276.5,242.3 M291.3,242.3
		C291.3,242.3,291.3,242.3,291.3,242.3C291.3,242.3,291.3,242.3,291.3,242.3 M276.4,242.3C276.4,242.3,276.4,242.3,276.4,242.3
		C276.4,242.3,276.4,242.3,276.4,242.3 M291.3,242.3C291.3,242.3,291.3,242.3,291.3,242.3C291.3,242.3,291.3,242.3,291.3,242.3
		 M276.4,242.3L276.4,242.3L276.4,242.3 M291.4,242.3C291.4,242.3,291.4,242.3,291.4,242.3C291.4,242.3,291.4,242.3,291.4,242.3
		 M291.4,242.3C291.4,242.3,291.4,242.3,291.4,242.3C291.4,242.3,291.4,242.3,291.4,242.3 M291.5,242.2
		C291.5,242.2,291.5,242.2,291.5,242.2C291.5,242.2,291.5,242.2,291.5,242.2"/>
	<path class="st5" d="M315.7,221c-5.7,7.7-17.8,13.1-31.9,13.1c-14,0-26.2-5.3-31.9-13.1c0.7,10.4,10.9,18.9,24.3,21.3l0,0
		c0,0,0,0,0,0c0,0,0,0,0,0c0,0,0,0,0,0c0,0,0,0,0,0c0,0,0,0,0,0c0,0,0,0,0,0c0,0,0,0,0,0c0,0,0,0,0,0c0,0,0,0,0,0c0,0,0,0,0,0
		c0,0,0,0,0,0c0,0,0,0,0,0c0,0,0,0,0,0c0,0,0,0,0,0c0,0,0,0,0,0c0,0,0,0,0,0c0,0,0,0,0,0c0,0,0,0,0,0c0,0,0,0,0,0c0,0,0,0,0,0
		c0,0,0,0,0,0c0,0,0,0,0,0c0,0,0,0,0,0c0,0,0,0,0,0c0,0,0,0,0,0c0,0,0,0,0,0c0,0,0,0,0,0c0,0,0,0,0,0c0,0,0,0,0,0c0,0,0,0,0,0
		c0,0,0,0,0,0c0,0,0,0,0,0c0,0,0,0,0,0c0,0,0,0,0,0c0,0,0,0,0,0c0,0,0,0,0,0c0,0,0,0,0,0c0,0,0,0,0,0c0,0,0,0,0,0c0,0,0,0,0,0
		c0,0,0,0,0,0c0,0,0,0,0,0c0,0,0,0,0,0c0,0,0,0,0,0c0,0,0,0,0,0c0,0,0,0,0,0c0,0,0.1,0,0.1,0c0,0,0,0,0,0c0,0,0,0,0,0c0,0,0,0,0,0
		c0,0,0,0,0,0c0,0,0,0,0,0c0,0,0,0,0,0c0,0,0,0,0,0c0,0,0,0,0,0c0,0,0,0,0,0c0,0,0,0,0,0c0,0,0,0,0,0c0,0,0,0,0,0c0,0,0,0,0,0
		c0,0,0,0,0,0c0,0,0,0,0,0c0,0,0,0,0,0c0,0,0,0,0,0c0,0,0,0,0,0c0,0,0,0,0,0c0,0,0,0,0,0c0,0,0,0,0,0c0,0,0,0,0,0c0,0,0,0,0,0
		c0,0,0,0,0,0c0,0,0,0,0,0c0,0,0,0,0,0c0,0,0,0,0,0c0,0,0,0,0,0c0,0,0,0,0,0c0,0,0,0,0,0c0,0,0,0,0,0c0,0,0,0,0,0c0,0,0,0,0,0
		c0,0,0,0,0,0c0,0,0,0,0,0c0,0,0,0,0,0c0,0,0,0,0,0c0,0,0,0,0,0c0,0,0,0,0,0c0,0,0,0,0,0c0,0,0,0,0,0c0,0,0,0,0,0c0,0,0,0,0,0
		c0,0,0,0,0,0c0,0,0,0,0,0c0,0,0,0,0,0c0,0,0,0,0,0c0,0,0,0,0,0c0,0,0,0,0,0c0,0,0,0,0,0c0,0,0,0,0,0c0,0,0,0,0,0c0,0,0,0,0,0
		c0,0,0,0,0,0c0,0,0.1,0,0.1,0l0,0c0,0,0.1,0,0.1,0c0,0,0,0,0,0c0,0,0,0,0,0c0,0,0,0,0,0c0,0,0,0,0,0c0,0,0,0,0,0c0,0,0,0,0,0
		c0,0,0,0,0,0c0,0,0,0,0,0c0,0,0,0,0,0c0,0,0,0,0,0c0,0,0,0,0,0c0,0,0,0,0,0c0,0,0,0,0,0c0,0,0,0,0,0c0,0,0,0,0,0c0,0,0,0,0,0
		c0,0,0,0,0,0c0,0,0,0,0,0c0,0,0,0,0,0c0,0,0,0,0,0c0,0,0,0,0,0c0,0,0,0,0,0c0,0,0,0,0,0c0,0,0,0,0,0c0,0,0,0,0,0c0,0,0,0,0,0
		c0,0,0,0,0,0c0,0,0,0,0,0c0,0,0,0,0,0c0,0,0,0,0,0c0,0,0,0,0,0c0,0,0,0,0,0c0,0,0,0,0,0c0,0,0,0,0,0c0,0,0,0,0,0c0,0,0,0,0,0
		c0,0,0,0,0,0c0,0,0,0,0,0c0,0,0,0,0,0c0,0,0,0,0,0c0,0,0,0,0,0c0,0,0,0,0,0c0,0,0,0,0,0c0,0,0,0,0,0c0,0,0,0,0,0c0,0,0,0,0,0
		c0,0,0,0,0,0c0,0,0,0,0,0c0,0,0,0,0,0c0,0,0,0,0,0c0,0,0,0,0,0c0,0,0,0,0,0c0,0,0,0,0,0c0,0,0,0,0,0l0,0c0.1,0,0.1,0,0.2,0
		c0,0,0,0,0,0c0,0,0,0,0,0c0,0,0,0,0,0c0,0,0,0,0,0c0,0,0,0,0,0c0,0,0,0,0,0c0,0,0,0,0,0c0,0,0,0,0,0c0,0,0,0,0,0c0,0,0,0,0,0
		c0,0,0,0,0,0c0,0,0,0,0,0c0,0,0,0,0,0c0,0,0,0,0,0c0,0,0,0,0,0c0,0,0,0,0,0c0,0,0,0,0,0c0,0,0,0,0,0c0,0,0,0,0,0c0,0,0,0,0,0
		c0,0,0,0,0,0c0,0,0,0,0,0c0,0,0,0,0,0c0,0,0,0,0,0c0,0,0,0,0,0c0,0,0,0,0,0c0,0,0,0,0,0c0,0,0,0,0,0c0,0,0,0,0,0c0,0,0,0,0,0
		c0,0,0,0,0,0c0,0,0,0,0,0c0,0,0,0,0,0c0,0,0,0,0,0c0,0,0,0,0,0c0,0,0,0,0,0c0,0,0,0,0,0c0,0,0,0,0,0c0,0,0,0,0,0c0,0,0,0,0,0
		c0,0,0,0,0,0c0,0,0,0,0,0c0,0,0,0,0,0c0,0,0,0,0,0c0,0,0,0,0,0c0,0,0,0,0,0c0,0,0,0,0,0c0,0,0,0,0,0c0,0,0,0,0,0c0,0,0,0,0,0
		c0,0,0,0,0,0c0,0,0,0,0,0c0,0,0,0,0,0c0,0,0,0,0,0c0,0,0,0,0,0c0,0,0,0,0,0c0,0,0,0,0,0c0,0,0,0,0,0c0,0,0,0,0,0c0.1,0,0.1,0,0.2,0
		c0,0,0,0,0,0c0,0,0,0,0,0c0,0,0,0,0,0c0,0,0,0,0,0c0,0,0,0,0,0c0,0,0,0,0,0c0,0,0,0,0,0c0,0,0,0,0,0c0,0,0,0,0,0c0,0,0,0,0,0
		c0,0,0,0,0,0c0,0,0,0,0,0c0,0,0,0,0,0c0,0,0,0,0,0c0,0,0,0,0,0c0,0,0,0,0,0c0,0,0,0,0,0c0,0,0,0,0,0c0,0,0,0,0,0c0,0,0,0,0,0
		c0,0,0,0,0,0c0,0,0,0,0,0c0,0,0,0,0,0c0,0,0,0,0,0c0,0,0,0,0,0c0,0,0,0,0,0c0,0,0,0,0,0c0,0,0,0,0,0c0,0,0,0,0,0c0,0,0,0,0,0
		c0,0,0,0,0,0c0,0,0,0,0,0c0,0,0,0,0,0c0,0,0,0,0,0c0,0,0,0,0,0c0,0,0,0,0,0c0,0,0,0,0,0c0,0,0,0,0,0c0,0,0,0,0,0c0,0,0,0,0,0
		c0,0,0,0,0,0c0,0,0,0,0,0c0,0,0,0,0,0c0,0,0,0,0,0c0,0,0,0,0,0c0,0,0,0,0,0c0,0,0,0,0,0c0,0,0,0,0,0c0,0,0,0,0,0c0,0,0,0,0,0
		c0,0,0,0,0,0c0,0,0,0,0,0c0,0,0,0,0,0c0,0,0,0,0,0c0,0,0,0,0,0c0,0,0,0,0,0c0,0,0,0,0,0c0,0,0,0,0,0c0,0,0,0,0,0c0,0,0,0,0,0
		c0,0,0,0,0,0c0,0,0,0,0.1,0l0,0l0,0c0,0,0,0,0.1,0c0,0,0,0,0,0c0,0,0,0,0,0c0,0,0,0,0,0c0,0,0,0,0,0c0,0,0,0,0,0c0,0,0,0,0,0
		c0,0,0,0,0,0c0,0,0,0,0,0c0,0,0,0,0,0c0,0,0,0,0,0c0,0,0,0,0,0c0,0,0,0,0,0c0,0,0,0,0,0c0,0,0,0,0,0c0,0,0,0,0,0c0,0,0,0,0,0
		c0,0,0,0,0,0c0,0,0,0,0,0c0,0,0,0,0,0c0,0,0,0,0,0c0,0,0,0,0,0c0,0,0,0,0,0c0,0,0,0,0,0c0,0,0,0,0,0c0,0,0,0,0,0c0,0,0,0,0,0
		c0,0,0,0,0,0c0,0,0,0,0,0c0,0,0,0,0,0c0,0,0,0,0,0c0,0,0,0,0,0c0,0,0,0,0,0c0,0,0,0,0,0c0,0,0,0,0,0c0,0,0,0,0,0c0,0,0,0,0,0
		c0,0,0,0,0,0c0,0,0,0,0,0c0,0,0,0,0,0c0,0,0,0,0,0c0,0,0,0,0,0c0,0,0,0,0,0c0,0,0,0,0,0c0,0,0,0,0,0c0,0,0,0,0,0c0,0,0,0,0,0
		c0,0,0,0,0,0c0,0,0,0,0,0c0,0,0,0,0,0c0,0,0,0,0,0c0,0,0,0,0,0c0,0,0,0,0,0c0,0,0,0,0,0c0,0,0,0,0,0c0,0,0,0,0,0c0,0,0,0,0,0
		c0,0,0,0,0,0c0,0,0,0,0,0c0,0,0,0,0,0c0,0,0,0,0,0c0,0,0,0,0,0c0.1,0,0.1,0,0.2,0c0,0,0,0,0,0c0,0,0,0,0,0c0,0,0,0,0,0c0,0,0,0,0,0
		c0,0,0,0,0,0c0,0,0,0,0,0c0,0,0,0,0,0c0,0,0,0,0,0c0,0,0,0,0,0c0,0,0,0,0,0c0,0,0,0,0,0c0,0,0,0,0,0c0,0,0,0,0,0c0,0,0,0,0,0
		c0,0,0,0,0,0c0,0,0,0,0,0c0,0,0,0,0,0c0,0,0,0,0,0c0,0,0,0,0,0c0,0,0,0,0,0c0,0,0,0,0,0c0,0,0,0,0,0c0,0,0,0,0,0c0,0,0,0,0,0
		c0,0,0,0,0,0c0,0,0,0,0,0c0,0,0,0,0,0c0,0,0,0,0,0c0,0,0,0,0,0c0,0,0,0,0,0c0,0,0,0,0,0c0,0,0,0,0,0c0,0,0,0,0,0c0,0,0,0,0,0
		c0,0,0,0,0,0c0,0,0,0,0,0c0,0,0,0,0,0c0,0,0,0,0,0c0,0,0,0,0,0c0,0,0,0,0,0c0,0,0,0,0,0c0,0,0,0,0,0c0,0,0,0,0,0c0,0,0,0,0,0
		c0,0,0,0,0,0c0,0,0,0,0,0c0,0,0,0,0,0c0,0,0,0,0,0c0,0,0,0,0,0c0,0,0,0,0,0c0,0,0,0,0,0c0,0,0,0,0,0c0,0,0,0,0,0c0,0,0,0,0,0
		c0,0,0,0,0,0c0,0,0,0,0,0c0,0,0,0,0,0c0.1,0,0.2,0,0.3,0c0,0,0,0,0,0c0,0,0,0,0,0c0,0,0,0,0,0c0,0,0,0,0,0c0,0,0,0,0,0c0,0,0,0,0,0
		c0,0,0,0,0,0c0,0,0,0,0,0c0,0,0,0,0,0c0,0,0,0,0,0c0,0,0,0,0,0c0,0,0,0,0,0c0,0,0,0,0,0c0,0,0,0,0,0c0,0,0,0,0,0c0,0,0,0,0,0
		c0,0,0,0,0,0c0,0,0,0,0,0c0,0,0,0,0,0c0,0,0,0,0,0c0,0,0,0,0,0c0,0,0,0,0,0c0,0,0,0,0,0c0,0,0,0,0,0c0,0,0,0,0,0c0,0,0,0,0,0
		c0,0,0,0,0,0c0,0,0,0,0,0c0,0,0,0,0,0c0,0,0,0,0,0c0,0,0,0,0,0c0,0,0,0,0,0c0,0,0,0,0,0c0,0,0,0,0,0c0,0,0,0,0,0c0,0,0,0,0,0
		c0,0,0,0,0,0c0,0,0,0,0,0c0,0,0,0,0,0c0,0,0,0,0,0c0,0,0,0,0,0c0,0,0,0,0,0c0,0,0,0,0,0c0,0,0,0,0,0c0,0,0,0,0,0c0,0,0,0,0,0
		c0,0,0,0,0,0c0,0,0,0,0,0c0,0,0,0,0,0c0,0,0,0,0,0c0,0,0,0,0,0c0.1,0,0.2,0,0.3,0c0,0,0,0,0,0c0,0,0,0,0,0c0,0,0,0,0,0c0,0,0,0,0,0
		c0,0,0,0,0,0c0,0,0,0,0,0c0,0,0,0,0,0c0,0,0,0,0,0c0,0,0,0,0,0c0,0,0,0,0,0c0,0,0,0,0,0c0,0,0,0,0,0c0,0,0,0,0,0c0,0,0,0,0,0
		c0,0,0,0,0,0c0,0,0,0,0,0c0,0,0,0,0,0c0,0,0,0,0,0c0,0,0,0,0,0c0,0,0,0,0,0c0,0,0,0,0,0c0,0,0,0,0,0c0,0,0,0,0,0c0,0,0,0,0,0
		c0,0,0,0,0,0c0,0,0,0,0,0c0,0,0,0,0,0c0,0,0,0,0,0c0,0,0,0,0,0c0,0,0,0,0,0c0,0,0,0,0,0c0,0,0,0,0,0c0,0,0,0,0,0c0,0,0,0,0,0
		c0,0,0,0,0,0c0,0,0,0,0,0c0,0,0,0,0,0c0,0,0,0,0,0c0,0,0,0,0,0c0,0,0,0,0,0c0,0,0,0,0,0c0,0,0,0,0,0c0,0,0,0,0,0c0,0,0,0,0,0
		c0,0,0,0,0,0c0,0,0,0,0,0c0,0,0,0,0,0c0,0,0,0,0,0c0,0,0,0,0,0c0,0,0,0,0,0c0,0,0,0,0,0c0,0,0,0,0,0c0,0,0,0,0,0c0,0,0,0,0,0
		c0,0,0,0,0,0c0,0,0,0,0,0c0,0,0,0,0,0c0,0,0.1,0,0.1,0l0,0c0,0,0,0,0,0c0,0,0,0,0,0c0,0,0,0,0,0c0,0,0,0,0,0c0,0,0,0,0,0
		c0,0,0,0,0,0c0,0,0,0,0,0c0,0,0,0,0,0c0,0,0,0,0,0c0,0,0,0,0,0c0,0,0,0,0,0c0,0,0,0,0,0c0,0,0,0,0,0c0,0,0,0,0,0c0,0,0,0,0,0
		c0,0,0,0,0,0c0,0,0,0,0,0c0,0,0,0,0,0c0,0,0,0,0,0c0,0,0,0,0,0c0,0,0,0,0,0c0,0,0,0,0,0c0,0,0,0,0,0c0,0,0,0,0,0c0,0,0,0,0,0
		c0,0,0,0,0,0c0,0,0,0,0,0c0,0,0,0,0,0c0,0,0,0,0,0c0,0,0,0,0,0c0,0,0,0,0,0c0,0,0,0,0,0c0,0,0,0,0,0c0,0,0,0,0,0c0,0,0,0,0,0
		c0,0,0,0,0,0c0,0,0,0,0,0c0,0,0,0,0,0c0,0,0,0,0,0c0,0,0,0,0,0c0,0,0,0,0,0c0,0,0,0,0,0c0,0,0,0,0,0c0,0,0,0,0,0c0,0,0,0,0,0
		c0,0,0,0,0,0c0,0,0,0,0,0C304.9,239.9,315,231.3,315.7,221"/>
	<path class="st6" d="M285.8,200.1c-0.9,0-1.7,0-2.6,0.1c-1,0.1-1.9,0.1-2.9,0.3l-1.4,0.2l-1.4,0.3c-1.9,0.4-3.7,1-5.5,1.7
		c-3.5,1.4-6.9,3.4-9.7,5.8l0.2,0.2c3.1-2,6.5-3.6,10.1-4.6c1.8-0.5,3.6-0.9,5.4-1.2l1.4-0.2l1.4-0.1c0.5,0,1-0.1,1.5-0.1
		c0.2,0,0.4,0,0.5,0c0.2,0,0.3,0,0.5,0c0.1,0,0.1,0,0.2,0c0.9,0,1.8,0.1,2.7,0.2c0.9,0.1,1.8,0.2,2.7,0.4c1.8,0.3,3.5,0.7,5.3,1.2
		c3.5,0.8,6.9,2,10.5,3.4l0.2-0.3c-1.3-1.4-2.9-2.5-4.6-3.5c-1.7-1-3.4-1.8-5.3-2.5C291.9,200.4,288.8,200.1,285.8,200.1"/>
	<path class="st7" d="M109.2,85.2l20.5-22.6c0,0,31.5,1,38.6-6.5c7.1-7.5,26.2-13.2,35.2-14.9c9-1.7,23.9-5.3,23.9-5.3l20.7,13.9
		c0,0-27.7,31.7-46.4,31.8C183.2,81.7,117.4,94,109.2,85.2"/>
	<path class="st8" d="M207.2,40.5c-1.3,0.3-2.5,0.5-3.6,0.7c-6.5,1.2-18.4,4.5-27.1,9.1v0c8.7-4.6,20.5-7.9,27.1-9.1
		C204.7,41,205.9,40.8,207.2,40.5C207.2,40.5,207.2,40.5,207.2,40.5"/>
	<path class="st9" d="M109.3,85.3C109.3,85.3,109.3,85.3,109.3,85.3L109.3,85.3C109.3,85.3,109.3,85.3,109.3,85.3 M109.3,85.3
		C109.3,85.3,109.3,85.3,109.3,85.3C109.3,85.3,109.3,85.3,109.3,85.3 M109.2,85.2C109.2,85.2,109.2,85.3,109.2,85.2
		C109.2,85.3,109.2,85.2,109.2,85.2 M109.2,85.2C109.2,85.2,109.2,85.2,109.2,85.2C109.2,85.2,109.2,85.2,109.2,85.2 M133.4,62.7
		C133.4,62.7,133.4,62.7,133.4,62.7L133.4,62.7C133.4,62.7,133.4,62.7,133.4,62.7 M134.3,62.7c0,0-0.1,0-0.1,0
		C134.2,62.7,134.3,62.7,134.3,62.7 M168.1,56.3c-5.7,5.5-24.8,6.3-33.7,6.3C143.3,62.6,162.4,61.9,168.1,56.3 M168.2,56.3
		C168.2,56.3,168.1,56.3,168.2,56.3C168.1,56.3,168.2,56.3,168.2,56.3 M168.2,56.2C168.2,56.2,168.2,56.2,168.2,56.2
		C168.2,56.2,168.2,56.2,168.2,56.2 M176.5,50.4c-3.3,1.8-6.2,3.7-8.2,5.8c0,0,0,0,0,0c0,0,0,0,0,0
		C170.3,54.1,173.2,52.1,176.5,50.4L176.5,50.4"/>
	<path class="st10" d="M109.3,85.3C109.3,85.3,109.3,85.3,109.3,85.3C109.3,85.3,109.3,85.3,109.3,85.3L109.3,85.3
		C109.3,85.3,109.3,85.3,109.3,85.3 M109.2,85.3C109.2,85.3,109.2,85.3,109.2,85.3C109.3,85.3,109.3,85.3,109.2,85.3L109.2,85.3
		C109.3,85.3,109.3,85.3,109.2,85.3 M109.2,85.2C109.2,85.2,109.2,85.2,109.2,85.2C109.2,85.2,109.2,85.3,109.2,85.2
		C109.2,85.3,109.2,85.3,109.2,85.2C109.2,85.3,109.2,85.2,109.2,85.2 M109.2,85.2L109.2,85.2L109.2,85.2
		C109.2,85.2,109.2,85.2,109.2,85.2L109.2,85.2C109.2,85.2,109.2,85.2,109.2,85.2 M207.2,40.5c-1.3,0.3-2.5,0.5-3.6,0.7
		c-6.5,1.2-18.4,4.5-27.1,9.1c-3.3,1.8-6.2,3.7-8.2,5.8c0,0,0,0,0,0c0,0,0,0,0,0c0,0,0,0,0,0c0,0,0,0,0,0c0,0,0,0-0.1,0.1
		c0,0,0,0,0,0c-5.7,5.5-24.8,6.3-33.7,6.3c0,0,0,0-0.1,0c0,0-0.1,0-0.1,0c-0.3,0-0.5,0-0.8,0l0,0l0,0c0,0,0,0,0,0
		c-2.3,0-3.6,0-3.6,0l0,0l-20.5,22.6l2.6-2.9c0.5-0.2,0.9-0.3,1-0.3c1-0.4,3.9-1.4,7.7-2.8c3.2-4.6,7.5-10.5,9-10.5c0,0,0,0,0,0
		c0.2,0,0.4,0,0.7,0c4.5,0,23.9-1.3,26.2-2.6c1.1-0.6,5.1-2.8,9.9-5.3C183.1,48.2,198.9,44.1,207.2,40.5"/>
	<path class="st3" d="M117,84.7c0,0,10.2-16.2,12.7-15.9c2.4,0.2,24.4-1.2,26.9-2.6c2.5-1.4,19.5-10.5,27.9-13.9
		c8.4-3.4,30.9-11.2,35.7-10.8c1.7,0.1,2.9-0.1,3.9-0.3c1.8-0.4,3-0.7,4.9,1c3,2.7,14.9,8.1,14.3,13.3
		C242.7,60.7,154.1,95.8,117,84.7"/>
	<path class="st7" d="M248.2,49.8l-2.4-1.6c-0.2,0.2-0.4,0.3-0.5,0.3c-7.1,3.1-46.8,20.6-56,20.5c-10.1-0.1-33.6,1.1-41.5,2
		c-7.3,0.8-31.5,9.7-34.9,11c-0.1,0-0.5,0.2-1,0.3l-2.6,2.9c8.2,8.8,74-3.6,92.6-3.6C220.4,81.5,248.2,49.8,248.2,49.8"/>
	<path class="st7" d="M109,85.6l-7.3,9.8c-0.7,0.9-0.1,2.2,1,2.3l9.1,0.8c1,0.1,1.6,1.1,1.2,2l-4.2,9.8c-0.4,1,0.4,2.2,1.5,2
		l8.7-1.4c0.9-0.2,1.7,0.6,1.7,1.5L120,121c-0.1,1.1,1,1.9,2,1.4l9.9-4.2c1-0.4,2.1,0.4,2,1.4l-0.8,9.9c-0.1,1,0.9,1.8,1.9,1.5
		l8.1-2.7c0.8-0.3,1.7,0.2,1.9,1l2.2,9.6c0.2,1,1.3,1.4,2.2,0.9l8.2-5.3c0.7-0.4,1.5-0.2,2,0.4l6.2,9.3c0.5,0.8,1.6,0.9,2.2,0.2
		l8-7.9c0.7-0.7,1.8-0.5,2.2,0.3l5.1,8.5c0.5,0.9,1.8,0.9,2.4,0.1l6.8-9.1c0.5-0.7,1.6-0.8,2.2-0.1l7.1,7.7c0.7,0.7,1.9,0.6,2.3-0.3
		l4.3-8.5c0.4-0.7,1.2-1,1.9-0.6l8.9,4.4c0.8,0.4,1.7,0,2-0.9l3.5-11.4c0.2-0.7,0.9-1.1,1.6-1l12.4,2.3c1.1,0.2,1.9-0.8,1.6-1.8
		l-2.7-8.8c-0.2-0.8,0.2-1.6,1-1.8l10.9-2.9c0.9-0.2,1.3-1.2,0.9-2.1l-4.6-8.6c-0.4-0.8,0-1.8,0.9-2.1l8.8-2.1
		c0.9-0.2,1.4-1.3,0.9-2.1l-5.4-9.7c-0.4-0.7-0.1-1.6,0.7-2l9.9-4.6c1-0.4,1.1-1.8,0.3-2.4l-8.1-6.4c-0.7-0.6-0.7-1.7,0.1-2.3
		l7.9-5.6c0.8-0.6,0.8-1.8-0.1-2.4l-11-7.1c-0.2-0.1-0.3-0.3-0.4-0.4l-1.3-2.1c-0.4-0.6-1.1-0.8-1.8-0.6
		c-7.4,3.3-48.6,21.3-58.2,21.3c-10.5-0.1-34.9,1.1-43.1,2.1c-7.6,0.9-32.7,10.1-36.2,11.4C109.4,85.2,109.1,85.3,109,85.6"/>
	<path class="st11" d="M247.6,50.2c-0.2,0-0.4,0-0.6,0.1c-7.4,3.3-48.5,21.3-58.1,21.3c0,0,0,0,0,0c-0.3,0-0.5,0-0.8,0
		c-10.9,0-34.3,1.2-42.2,2.1c-7.6,0.9-32.7,10.1-36.2,11.4c-0.3,0.1-0.5,0.3-0.6,0.5l-7.3,9.8c-0.2,0.3-0.3,0.6-0.3,0.9
		c0,0.7,0.5,1.4,1.3,1.4l9.1,0.8c0.8,0.1,1.3,0.7,1.3,1.4c0,0.2,0,0.4-0.1,0.6l-4.2,9.8c-0.1,0.2-0.1,0.4-0.1,0.6
		c0,0.8,0.6,1.4,1.4,1.4c0.1,0,0.2,0,0.2,0l8.7-1.4c0.1,0,0.2,0,0.2,0c0.3,0,0.6,0.1,0.9,0.3c0.7,0,1.5-0.1,2.2-0.1
		c9.3,0,17.7,3.1,23.1,8.1l17.2-9.8l1.3-3.5l12.6-5.5l36.6,34c1.2-6.9,4.3-13.7,8.2-18.6c1.8-2.2,3.8-4.8,7.2-6.7
		c2-1.6,5.4-3.9,10.9-7.6c2.4-1.6,4.5-3.1,6.6-4.4c3.1-2.1,0.9-2,0.9-2.4c0-0.4,1-0.7,1.1-0.7c1.4-0.4,3.1-1.7,5.3-3.1l-2.5-4.5
		c-0.1-0.2-0.2-0.5-0.2-0.7c0-0.5,0.3-1.1,0.8-1.3l9.9-4.6c0.5-0.3,0.8-0.8,0.8-1.3c0-0.4-0.2-0.8-0.5-1.1l-8.1-6.4
		c-0.4-0.3-0.5-0.7-0.5-1.1c0-0.4,0.2-0.9,0.6-1.2l7.9-5.6c0.4-0.3,0.6-0.7,0.6-1.2c0-0.5-0.2-0.9-0.7-1.2l-11-7.1
		c-0.2-0.1-0.3-0.3-0.4-0.4l-1.3-2.1C248.6,50.4,248.1,50.2,247.6,50.2"/>
	<path class="st12" d="M151.9,132.3c0,11.8-13.2,21.3-29.4,21.3c-16.3,0-29.4-9.5-29.4-21.3c0-11.8,13.2-21.3,29.4-21.3
		C138.7,111,151.9,120.6,151.9,132.3"/>
	<path class="st12" d="M122.4,153.6C122.4,153.6,122.4,153.6,122.4,153.6C122.4,153.6,122.4,153.6,122.4,153.6 M122.5,153.6
		C122.5,153.6,122.5,153.6,122.5,153.6C122.5,153.6,122.5,153.6,122.5,153.6 M122.3,153.6C122.3,153.6,122.4,153.6,122.3,153.6
		C122.4,153.6,122.4,153.6,122.3,153.6 M122.5,153.6C122.5,153.6,122.5,153.6,122.5,153.6C122.5,153.6,122.5,153.6,122.5,153.6
		 M122.3,153.6C122.3,153.6,122.3,153.6,122.3,153.6C122.3,153.6,122.3,153.6,122.3,153.6 M122.6,153.6
		C122.6,153.6,122.6,153.6,122.6,153.6C122.6,153.6,122.6,153.6,122.6,153.6 M122.2,153.6C122.3,153.6,122.3,153.6,122.2,153.6
		C122.3,153.6,122.3,153.6,122.2,153.6 M122.6,153.6C122.6,153.6,122.6,153.6,122.6,153.6C122.6,153.6,122.6,153.6,122.6,153.6
		 M122.2,153.6C122.2,153.6,122.2,153.6,122.2,153.6C122.2,153.6,122.2,153.6,122.2,153.6 M122.7,153.6
		C122.7,153.6,122.7,153.6,122.7,153.6C122.7,153.6,122.7,153.6,122.7,153.6 M122.2,153.6C122.2,153.6,122.2,153.6,122.2,153.6
		C122.2,153.6,122.2,153.6,122.2,153.6 M122.7,153.6C122.7,153.6,122.7,153.6,122.7,153.6C122.7,153.6,122.7,153.6,122.7,153.6
		 M122.1,153.6C122.1,153.6,122.1,153.6,122.1,153.6C122.1,153.6,122.1,153.6,122.1,153.6 M122.8,153.6
		C122.8,153.6,122.7,153.6,122.8,153.6C122.7,153.6,122.8,153.6,122.8,153.6 M122.1,153.6C122.1,153.6,122.1,153.6,122.1,153.6
		C122.1,153.6,122.1,153.6,122.1,153.6 M122.8,153.6C122.8,153.6,122.8,153.6,122.8,153.6C122.8,153.6,122.8,153.6,122.8,153.6
		 M122,153.6C122,153.6,122,153.6,122,153.6C122,153.6,122,153.6,122,153.6 M122.9,153.6C122.8,153.6,122.8,153.6,122.9,153.6
		C122.8,153.6,122.8,153.6,122.9,153.6 M122,153.6C122,153.6,122,153.6,122,153.6C122,153.6,122,153.6,122,153.6 M122.9,153.6
		C122.9,153.6,122.9,153.6,122.9,153.6C122.9,153.6,122.9,153.6,122.9,153.6 M121.9,153.6C121.9,153.6,121.9,153.6,121.9,153.6
		C121.9,153.6,121.9,153.6,121.9,153.6 M123,153.6C122.9,153.6,122.9,153.6,123,153.6C122.9,153.6,122.9,153.6,123,153.6
		 M121.9,153.6C121.9,153.6,121.9,153.6,121.9,153.6C121.9,153.6,121.9,153.6,121.9,153.6 M123,153.6C123,153.6,123,153.6,123,153.6
		C123,153.6,123,153.6,123,153.6 M121.8,153.6C121.8,153.6,121.8,153.6,121.8,153.6C121.8,153.6,121.8,153.6,121.8,153.6 M123,153.6
		C123,153.6,123,153.6,123,153.6C123,153.6,123,153.6,123,153.6 M121.8,153.6C121.8,153.6,121.8,153.6,121.8,153.6
		C121.8,153.6,121.8,153.6,121.8,153.6 M123.1,153.6C123.1,153.6,123.1,153.6,123.1,153.6C123.1,153.6,123.1,153.6,123.1,153.6
		 M121.7,153.6C121.7,153.6,121.7,153.6,121.7,153.6C121.7,153.6,121.7,153.6,121.7,153.6 M123.1,153.6
		C123.1,153.6,123.1,153.6,123.1,153.6C123.1,153.6,123.1,153.6,123.1,153.6 M121.7,153.6C121.7,153.6,121.7,153.6,121.7,153.6
		C121.7,153.6,121.7,153.6,121.7,153.6 M123.2,153.6C123.2,153.6,123.2,153.6,123.2,153.6C123.2,153.6,123.2,153.6,123.2,153.6
		 M121.6,153.6C121.6,153.6,121.7,153.6,121.6,153.6C121.7,153.6,121.6,153.6,121.6,153.6 M123.2,153.6
		C123.2,153.6,123.2,153.6,123.2,153.6C123.2,153.6,123.2,153.6,123.2,153.6 M121.6,153.6C121.6,153.6,121.6,153.6,121.6,153.6
		C121.6,153.6,121.6,153.6,121.6,153.6 M123.3,153.6C123.3,153.6,123.3,153.6,123.3,153.6C123.3,153.6,123.3,153.6,123.3,153.6
		 M121.5,153.6C121.6,153.6,121.6,153.6,121.5,153.6C121.6,153.6,121.6,153.6,121.5,153.6 M123.3,153.6
		C123.3,153.6,123.3,153.6,123.3,153.6C123.3,153.6,123.3,153.6,123.3,153.6 M121.5,153.6C121.5,153.6,121.5,153.6,121.5,153.6
		C121.5,153.6,121.5,153.6,121.5,153.6 M123.4,153.6C123.4,153.6,123.4,153.6,123.4,153.6C123.4,153.6,123.4,153.6,123.4,153.6
		 M121.5,153.6C121.5,153.6,121.5,153.6,121.5,153.6C121.5,153.6,121.5,153.6,121.5,153.6 M123.4,153.6
		C123.4,153.6,123.4,153.6,123.4,153.6C123.4,153.6,123.4,153.6,123.4,153.6 M121.4,153.6C121.4,153.6,121.4,153.6,121.4,153.6
		C121.4,153.6,121.4,153.6,121.4,153.6 M123.5,153.6C123.5,153.6,123.4,153.6,123.5,153.6C123.4,153.6,123.5,153.6,123.5,153.6
		 M121.4,153.6C121.4,153.6,121.4,153.6,121.4,153.6C121.4,153.6,121.4,153.6,121.4,153.6 M123.5,153.6
		C123.5,153.6,123.5,153.6,123.5,153.6C123.5,153.6,123.5,153.6,123.5,153.6 M121.3,153.6C121.3,153.6,121.3,153.6,121.3,153.6
		C121.3,153.6,121.3,153.6,121.3,153.6 M123.6,153.6C123.5,153.6,123.5,153.6,123.6,153.6C123.5,153.6,123.5,153.6,123.6,153.6
		 M121.3,153.6C121.3,153.6,121.3,153.6,121.3,153.6C121.3,153.6,121.3,153.6,121.3,153.6 M123.6,153.6
		C123.6,153.6,123.6,153.6,123.6,153.6C123.6,153.6,123.6,153.6,123.6,153.6 M121.2,153.6C121.2,153.6,121.2,153.6,121.2,153.6
		C121.2,153.6,121.2,153.6,121.2,153.6 M123.6,153.6C123.6,153.6,123.6,153.6,123.6,153.6C123.6,153.6,123.6,153.6,123.6,153.6
		 M121.2,153.6C121.2,153.6,121.2,153.6,121.2,153.6C121.2,153.6,121.2,153.6,121.2,153.6 M123.7,153.6
		C123.7,153.6,123.7,153.6,123.7,153.6C123.7,153.6,123.7,153.6,123.7,153.6 M121.1,153.6C121.1,153.6,121.1,153.6,121.1,153.6
		C121.1,153.6,121.1,153.6,121.1,153.6 M123.7,153.6C123.7,153.6,123.7,153.6,123.7,153.6C123.7,153.6,123.7,153.6,123.7,153.6
		 M121.1,153.6C121.1,153.6,121.1,153.6,121.1,153.6C121.1,153.6,121.1,153.6,121.1,153.6 M123.8,153.6
		C123.8,153.6,123.8,153.6,123.8,153.6C123.8,153.6,123.8,153.6,123.8,153.6 M123.8,153.6C123.8,153.6,123.8,153.6,123.8,153.6
		C123.8,153.6,123.8,153.6,123.8,153.6 M123.9,153.6C123.9,153.6,123.9,153.6,123.9,153.6C123.9,153.6,123.9,153.6,123.9,153.6
		 M124,153.6C124,153.6,124,153.6,124,153.6C124,153.6,124,153.6,124,153.6 M120.8,153.6C120.8,153.6,120.8,153.6,120.8,153.6
		C120.8,153.6,120.8,153.6,120.8,153.6 M124,153.6C124,153.6,124,153.6,124,153.6C124,153.6,124,153.6,124,153.6 M120.8,153.6
		L120.8,153.6C120.8,153.6,120.8,153.6,120.8,153.6 M124.1,153.6C124.1,153.6,124.1,153.6,124.1,153.6
		C124.1,153.6,124.1,153.6,124.1,153.6 M120.7,153.6C120.7,153.6,120.7,153.6,120.7,153.6C120.7,153.6,120.7,153.6,120.7,153.6
		 M124.1,153.6C124.1,153.6,124.1,153.6,124.1,153.6C124.1,153.6,124.1,153.6,124.1,153.6 M120.7,153.6
		C120.7,153.6,120.7,153.6,120.7,153.6C120.7,153.6,120.7,153.6,120.7,153.6 M124.2,153.6C124.2,153.6,124.2,153.6,124.2,153.6
		C124.2,153.6,124.2,153.6,124.2,153.6 M120.6,153.6C120.6,153.6,120.7,153.6,120.6,153.6C120.7,153.6,120.6,153.6,120.6,153.6
		 M124.2,153.6C124.2,153.6,124.2,153.6,124.2,153.6C124.2,153.6,124.2,153.6,124.2,153.6 M120.6,153.6
		C120.6,153.6,120.6,153.6,120.6,153.6C120.6,153.6,120.6,153.6,120.6,153.6 M124.3,153.6C124.3,153.6,124.3,153.6,124.3,153.6
		C124.3,153.6,124.3,153.6,124.3,153.6 M120.6,153.6C120.6,153.6,120.6,153.6,120.6,153.6C120.6,153.6,120.6,153.6,120.6,153.6
		 M124.3,153.6C124.3,153.6,124.3,153.6,124.3,153.6C124.3,153.6,124.3,153.6,124.3,153.6 M120.5,153.6
		C120.5,153.6,120.5,153.6,120.5,153.6C120.5,153.6,120.5,153.6,120.5,153.6 M124.4,153.6C124.4,153.6,124.4,153.6,124.4,153.6
		C124.4,153.6,124.4,153.6,124.4,153.6 M120.5,153.5C120.5,153.5,120.5,153.5,120.5,153.5C120.5,153.5,120.5,153.5,120.5,153.5
		 M124.4,153.5C124.4,153.5,124.4,153.6,124.4,153.5C124.4,153.6,124.4,153.5,124.4,153.5 M120.4,153.5
		C120.4,153.5,120.4,153.5,120.4,153.5C120.4,153.5,120.4,153.5,120.4,153.5 M124.5,153.5C124.4,153.5,124.4,153.5,124.5,153.5
		C124.4,153.5,124.5,153.5,124.5,153.5 M120.4,153.5C120.4,153.5,120.4,153.5,120.4,153.5C120.4,153.5,120.4,153.5,120.4,153.5
		 M124.5,153.5C124.5,153.5,124.5,153.5,124.5,153.5C124.5,153.5,124.5,153.5,124.5,153.5 M120.3,153.5
		C120.3,153.5,120.3,153.5,120.3,153.5C120.3,153.5,120.3,153.5,120.3,153.5 M124.5,153.5C124.5,153.5,124.5,153.5,124.5,153.5
		C124.5,153.5,124.5,153.5,124.5,153.5 M120.3,153.5C120.3,153.5,120.3,153.5,120.3,153.5C120.3,153.5,120.3,153.5,120.3,153.5
		 M124.6,153.5C124.6,153.5,124.6,153.5,124.6,153.5C124.6,153.5,124.6,153.5,124.6,153.5 M120.2,153.5
		C120.2,153.5,120.2,153.5,120.2,153.5C120.2,153.5,120.2,153.5,120.2,153.5 M124.6,153.5C124.6,153.5,124.6,153.5,124.6,153.5
		C124.6,153.5,124.6,153.5,124.6,153.5 M120.2,153.5C120.2,153.5,120.2,153.5,120.2,153.5C120.2,153.5,120.2,153.5,120.2,153.5
		 M124.7,153.5C124.7,153.5,124.7,153.5,124.7,153.5C124.7,153.5,124.7,153.5,124.7,153.5 M120.1,153.5
		C120.1,153.5,120.1,153.5,120.1,153.5C120.1,153.5,120.1,153.5,120.1,153.5 M124.7,153.5C124.7,153.5,124.7,153.5,124.7,153.5
		C124.7,153.5,124.7,153.5,124.7,153.5 M120.1,153.5C120.1,153.5,120.1,153.5,120.1,153.5C120.1,153.5,120.1,153.5,120.1,153.5
		 M124.8,153.5C124.8,153.5,124.8,153.5,124.8,153.5C124.8,153.5,124.8,153.5,124.8,153.5 M120.1,153.5
		C120.1,153.5,120.1,153.5,120.1,153.5C120.1,153.5,120.1,153.5,120.1,153.5 M124.8,153.5C124.8,153.5,124.8,153.5,124.8,153.5
		C124.8,153.5,124.8,153.5,124.8,153.5 M120,153.5C120,153.5,120,153.5,120,153.5C120,153.5,120,153.5,120,153.5 M124.9,153.5
		C124.9,153.5,124.9,153.5,124.9,153.5C124.9,153.5,124.9,153.5,124.9,153.5 M120,153.5C120,153.5,120,153.5,120,153.5
		C120,153.5,120,153.5,120,153.5 M124.9,153.5C124.9,153.5,124.9,153.5,124.9,153.5C124.9,153.5,124.9,153.5,124.9,153.5
		 M119.9,153.5L119.9,153.5C119.9,153.5,119.9,153.5,119.9,153.5 M125,153.5C125,153.5,124.9,153.5,125,153.5
		C124.9,153.5,125,153.5,125,153.5 M125,153.5C125,153.5,125,153.5,125,153.5C125,153.5,125,153.5,125,153.5 M125.1,153.5
		C125,153.5,125,153.5,125.1,153.5C125,153.5,125,153.5,125.1,153.5 M125.1,153.5C125.1,153.5,125.1,153.5,125.1,153.5
		C125.1,153.5,125.1,153.5,125.1,153.5 M125.1,153.5C125.1,153.5,125.1,153.5,125.1,153.5C125.1,153.5,125.1,153.5,125.1,153.5
		 M125.2,153.5C125.2,153.5,125.2,153.5,125.2,153.5C125.2,153.5,125.2,153.5,125.2,153.5 M125.2,153.5
		C125.2,153.5,125.2,153.5,125.2,153.5C125.2,153.5,125.2,153.5,125.2,153.5 M125.3,153.5C125.3,153.5,125.3,153.5,125.3,153.5
		C125.3,153.5,125.3,153.5,125.3,153.5 M125.6,153.5C125.6,153.5,125.6,153.5,125.6,153.5C125.6,153.5,125.6,153.5,125.6,153.5
		 M125.7,153.5C125.7,153.5,125.7,153.5,125.7,153.5C125.7,153.5,125.7,153.5,125.7,153.5 M125.7,153.5
		C125.7,153.5,125.7,153.5,125.7,153.5C125.7,153.5,125.7,153.5,125.7,153.5 M125.8,153.5C125.8,153.5,125.8,153.5,125.8,153.5
		C125.8,153.5,125.8,153.5,125.8,153.5 M125.8,153.5C125.8,153.5,125.8,153.5,125.8,153.5C125.8,153.5,125.8,153.5,125.8,153.5
		 M125.9,153.5C125.8,153.5,125.8,153.5,125.9,153.5C125.8,153.5,125.8,153.5,125.9,153.5 M125.9,153.5
		C125.9,153.5,125.9,153.5,125.9,153.5C125.9,153.5,125.9,153.5,125.9,153.5 M125.9,153.4C125.9,153.4,125.9,153.4,125.9,153.4
		C125.9,153.4,125.9,153.4,125.9,153.4 M126,153.4C126,153.4,126,153.4,126,153.4C126,153.4,126,153.4,126,153.4 M126,153.4
		C126,153.4,126,153.4,126,153.4C126,153.4,126,153.4,126,153.4 M126.1,153.4C126.1,153.4,126.1,153.4,126.1,153.4
		C126.1,153.4,126.1,153.4,126.1,153.4 M126.1,153.4C126.1,153.4,126.1,153.4,126.1,153.4C126.1,153.4,126.1,153.4,126.1,153.4
		 M126.2,153.4C126.2,153.4,126.2,153.4,126.2,153.4C126.2,153.4,126.2,153.4,126.2,153.4 M126.2,153.4
		C126.2,153.4,126.2,153.4,126.2,153.4C126.2,153.4,126.2,153.4,126.2,153.4 M126.3,153.4C126.3,153.4,126.3,153.4,126.3,153.4
		C126.3,153.4,126.3,153.4,126.3,153.4 M126.3,153.4C126.3,153.4,126.3,153.4,126.3,153.4C126.3,153.4,126.3,153.4,126.3,153.4
		 M126.3,153.4C126.3,153.4,126.3,153.4,126.3,153.4C126.3,153.4,126.3,153.4,126.3,153.4 M126.4,153.4
		C126.4,153.4,126.4,153.4,126.4,153.4C126.4,153.4,126.4,153.4,126.4,153.4 M126.4,153.4C126.4,153.4,126.4,153.4,126.4,153.4
		C126.4,153.4,126.4,153.4,126.4,153.4 M126.5,153.4C126.5,153.4,126.5,153.4,126.5,153.4C126.5,153.4,126.5,153.4,126.5,153.4
		 M126.5,153.4C126.5,153.4,126.5,153.4,126.5,153.4C126.5,153.4,126.5,153.4,126.5,153.4 M126.6,153.4
		C126.6,153.4,126.6,153.4,126.6,153.4C126.6,153.4,126.6,153.4,126.6,153.4"/>
	<path class="st13" d="M93,133.4c0.7,10.7,12.3,19.3,26.9,20.1c0,0,0,0,0,0c0,0,0,0,0,0c0,0,0,0,0,0c0,0,0,0,0,0c0,0,0,0,0,0
		c0,0,0,0,0,0c0,0,0,0,0,0c0,0,0,0,0,0c0,0,0,0,0,0c0,0,0,0,0,0c0,0,0,0,0,0c0,0,0,0,0,0c0,0,0,0,0,0c0,0,0,0,0,0c0,0,0,0,0,0
		c0,0,0,0,0,0c0,0,0,0,0,0c0,0,0,0,0,0c0,0,0,0,0,0c0,0,0,0,0,0c0,0,0,0,0,0c0,0,0,0,0,0c0,0,0,0,0,0c0,0,0,0,0,0c0,0,0,0,0,0
		c0,0,0,0,0,0c0,0,0,0,0,0c0,0,0,0,0,0c0,0,0,0,0,0c0,0,0,0,0,0c0,0,0,0,0,0c0,0,0,0,0,0c0,0,0,0,0,0c0,0,0,0,0,0c0,0,0,0,0,0
		c0,0,0,0,0,0c0,0,0,0,0,0c0,0,0,0,0,0c0,0,0,0,0,0c0,0,0,0,0,0c0,0,0,0,0,0c0.1,0,0.2,0,0.3,0c0,0,0,0,0,0c0,0,0,0,0,0c0,0,0,0,0,0
		c0,0,0,0,0,0c0,0,0,0,0,0c0,0,0,0,0,0c0,0,0,0,0,0c0,0,0,0,0,0c0,0,0,0,0,0c0,0,0,0,0,0c0,0,0,0,0,0c0,0,0,0,0,0c0,0,0,0,0,0
		c0,0,0,0,0,0c0,0,0,0,0,0c0,0,0,0,0,0c0,0,0,0,0,0c0,0,0,0,0,0c0,0,0,0,0,0c0,0,0,0,0,0c0,0,0,0,0,0c0,0,0,0,0,0c0,0,0,0,0,0
		c0,0,0,0,0,0c0,0,0,0,0,0c0,0,0,0,0,0c0,0,0,0,0,0c0,0,0,0,0,0c0,0,0,0,0,0c0,0,0,0,0,0c0,0,0,0,0,0c0,0,0,0,0,0c0,0,0,0,0,0
		c0,0,0,0,0,0c0,0,0,0,0,0c0,0,0,0,0,0c0,0,0,0,0,0c0,0,0,0,0,0c0,0,0,0,0,0c0,0,0,0,0,0c0,0,0,0,0,0c0,0,0,0,0,0c0,0,0,0,0,0
		c0,0,0,0,0,0c0,0,0,0,0,0c0,0,0,0,0,0c0,0,0,0,0,0c0,0,0,0,0,0c0,0,0,0,0,0c0,0,0,0,0,0c0,0,0,0,0,0c0,0,0,0,0,0c0,0,0,0,0,0
		c0,0,0,0,0,0c0,0,0,0,0,0c0,0,0,0,0,0c0,0,0,0,0,0l0,0l0,0c0,0,0,0,0,0c0,0,0,0,0,0c0,0,0,0,0,0c0,0,0,0,0,0c0,0,0,0,0,0
		c0,0,0,0,0,0c0,0,0,0,0,0c0,0,0,0,0,0c0,0,0,0,0,0c0,0,0,0,0,0c0,0,0,0,0,0c0,0,0,0,0,0c0,0,0,0,0,0c0,0,0,0,0,0c0,0,0,0,0,0
		c0,0,0,0,0,0c0,0,0,0,0,0c0,0,0,0,0,0c0,0,0,0,0,0c0,0,0,0,0,0c0,0,0,0,0,0c0,0,0,0,0,0c0,0,0,0,0,0c0,0,0,0,0,0c0,0,0,0,0,0
		c0,0,0,0,0,0c0,0,0,0,0,0c0,0,0,0,0,0c0,0,0,0,0,0c0,0,0,0,0,0c0,0,0,0,0,0c0,0,0,0,0,0c0,0,0,0,0,0c0,0,0,0,0,0c0,0,0,0,0,0
		c0,0,0,0,0,0c0,0,0,0,0,0c0,0,0,0,0,0c0,0,0,0,0,0c0,0,0,0,0,0c0,0,0,0,0,0c0,0,0,0,0,0c0,0,0,0,0,0c0,0,0,0,0,0c0,0,0,0,0,0
		c0,0,0,0,0,0c0,0,0,0,0,0c0,0,0,0,0,0c0,0,0,0,0,0c0,0,0,0,0,0c0,0,0,0,0,0c0,0,0,0,0,0c0,0,0,0,0,0c0,0,0,0,0,0c0,0,0,0,0,0
		c0,0,0,0,0,0c0,0,0,0,0,0c0,0,0,0,0,0c0,0,0,0,0,0c0,0,0,0,0,0c0,0,0,0,0,0c0,0,0,0,0.1,0c0,0,0,0,0.1,0c0,0,0,0,0,0c0,0,0,0,0,0
		c0,0,0,0,0,0c0,0,0,0,0,0c0,0,0,0,0,0c0,0,0,0,0,0c0,0,0,0,0,0c0,0,0,0,0,0c0,0,0,0,0,0c0,0,0,0,0,0c0,0,0,0,0,0c0,0,0,0,0,0
		c0,0,0,0,0,0c0,0,0,0,0,0c0,0,0,0,0,0c0,0,0,0,0,0c0,0,0,0,0,0c0,0,0,0,0,0c0,0,0,0,0,0c0,0,0,0,0,0c0,0,0,0,0,0c0,0,0,0,0,0
		c0,0,0,0,0,0c0,0,0,0,0,0c0,0,0,0,0,0c0,0,0,0,0,0c0,0,0,0,0,0c0,0,0,0,0,0c0,0,0,0,0,0c0,0,0,0,0,0c0,0,0,0,0,0c0,0,0,0,0,0
		c0,0,0,0,0,0c0,0,0,0,0,0c0,0,0,0,0,0c0,0,0,0,0,0c0,0,0,0,0,0c0,0,0,0,0,0c0,0,0,0,0,0c0,0,0,0,0,0c0,0,0,0,0,0c0,0,0,0,0,0
		c0,0,0,0,0,0c0,0,0,0,0,0c0,0,0,0,0,0c0,0,0,0,0,0c0,0,0,0,0,0c0,0,0,0,0,0c0,0,0,0,0,0c0,0,0,0,0,0c0,0,0,0,0,0c0,0,0,0,0,0
		c0,0,0,0,0,0c0,0,0,0,0,0c0,0,0,0,0,0c0,0,0,0,0,0c0.1,0,0.2,0,0.4,0c0,0,0,0,0,0c0,0,0,0,0,0c0,0,0,0,0,0c0,0,0,0,0,0c0,0,0,0,0,0
		c0,0,0,0,0,0c0,0,0,0,0,0c0,0,0,0,0,0c0,0,0,0,0,0c0,0,0,0,0,0c0,0,0,0,0,0c0,0,0,0,0,0c0,0,0,0,0,0c0,0,0,0,0,0c0,0,0,0,0,0
		c0,0,0,0,0,0c0,0,0,0,0,0c0,0,0,0,0,0c0,0,0,0,0,0c0,0,0,0,0,0c0,0,0,0,0,0c0,0,0,0,0,0c0,0,0,0,0,0c0,0,0,0,0,0c0,0,0,0,0,0
		c0,0,0,0,0,0c0,0,0,0,0,0c0,0,0,0,0,0c0,0,0,0,0,0c0,0,0,0,0,0c0,0,0,0,0,0c0,0,0,0,0,0c0,0,0,0,0,0c0,0,0,0,0,0c0,0,0,0,0,0
		c0,0,0,0,0,0c0,0,0,0,0,0c0,0,0,0,0,0c0,0,0,0,0,0c0,0,0,0,0,0c0,0,0,0,0,0c0,0,0,0,0,0c0,0,0,0,0,0c4.6-0.5,8.9-1.7,12.6-3.6
		l0-7.4c-4.9,1.9-10.6,3-16.8,3C109.5,145.4,98.3,140.5,93,133.4"/>
	<path class="st14" d="M124.3,114c-0.9,0-1.7,0-2.5,0.1c-3.6,0.2-7.1,1-10.4,2.3c-3.3,1.4-6.3,3.2-9,5.4l0.2,0.2
		c2.9-1.8,6-3.3,9.3-4.2c3-0.9,6.1-1.3,9.2-1.3c0.3,0,0.5,0,0.8,0c0.8,0,1.7,0.1,2.5,0.2c0.8,0.1,1.6,0.2,2.5,0.4
		c1.6,0.3,3.2,0.7,4.8,1.1c3.2,0.8,6.4,1.8,9.7,3l0.2-0.3c-1.2-1.3-2.7-2.4-4.2-3.3c-1.5-0.9-3.2-1.7-4.9-2.3
		C129.9,114.3,127.1,114,124.3,114"/>
	<path class="st0" d="M257.1,268.1c-2.8,13.1-21.6,20.2-41.8,15.8c-20.3-4.4-34.4-18.6-31.5-31.7c2.9-13.1,21.6-20.2,41.8-15.8
		C245.8,240.8,259.9,255,257.1,268.1"/>
	<path class="st0" d="M227.1,285.2C227.1,285.2,227.1,285.2,227.1,285.2L227.1,285.2C227.1,285.2,227.1,285.2,227.1,285.2
		 M215.2,283.9C215.2,283.9,215.3,284,215.2,283.9C215.3,284,215.2,283.9,215.2,283.9 M215.2,283.9
		C215.2,283.9,215.2,283.9,215.2,283.9C215.2,283.9,215.2,283.9,215.2,283.9 M215.1,283.9C215.1,283.9,215.1,283.9,215.1,283.9
		C215.1,283.9,215.1,283.9,215.1,283.9 M215,283.9C215.1,283.9,215.1,283.9,215,283.9C215.1,283.9,215.1,283.9,215,283.9
		 M214.9,283.9c0,0,0.1,0,0.1,0C215,283.9,215,283.9,214.9,283.9 M214.9,283.9C214.9,283.9,214.9,283.9,214.9,283.9
		C214.9,283.9,214.9,283.9,214.9,283.9 M214.7,283.8c0.1,0,0.1,0,0.2,0C214.8,283.8,214.7,283.8,214.7,283.8 M214.6,283.8
		c0,0,0.1,0,0.1,0C214.6,283.8,214.6,283.8,214.6,283.8 M214.5,283.8C214.5,283.8,214.5,283.8,214.5,283.8
		C214.5,283.8,214.5,283.8,214.5,283.8 M214.2,283.7c0.1,0,0.2,0.1,0.4,0.1C214.4,283.8,214.3,283.7,214.2,283.7 M214.1,283.7
		C214.1,283.7,214.1,283.7,214.1,283.7C214.1,283.7,214.1,283.7,214.1,283.7 M213.9,283.6c0.1,0,0.1,0,0.2,0
		C214,283.7,214,283.7,213.9,283.6 M213.8,283.6c0.1,0,0.1,0,0.2,0C213.9,283.6,213.8,283.6,213.8,283.6 M213.7,283.6
		C213.7,283.6,213.7,283.6,213.7,283.6C213.7,283.6,213.7,283.6,213.7,283.6 M213.6,283.6c0,0,0.1,0,0.1,0
		C213.6,283.6,213.6,283.6,213.6,283.6 M213.5,283.5C213.5,283.5,213.5,283.6,213.5,283.5C213.5,283.6,213.5,283.5,213.5,283.5
		 M213.4,283.5c0,0,0.1,0,0.1,0C213.5,283.5,213.4,283.5,213.4,283.5 M213.3,283.5C213.4,283.5,213.4,283.5,213.3,283.5
		C213.4,283.5,213.4,283.5,213.3,283.5 M213.3,283.5C213.3,283.5,213.3,283.5,213.3,283.5C213.3,283.5,213.3,283.5,213.3,283.5
		 M213.2,283.5C213.2,283.5,213.3,283.5,213.2,283.5C213.3,283.5,213.2,283.5,213.2,283.5 M213.2,283.5
		C213.2,283.5,213.2,283.5,213.2,283.5C213.2,283.5,213.2,283.5,213.2,283.5 M213.1,283.4C213.1,283.4,213.1,283.4,213.1,283.4
		C213.1,283.4,213.1,283.4,213.1,283.4 M213.1,283.4C213.1,283.4,213.1,283.4,213.1,283.4C213.1,283.4,213.1,283.4,213.1,283.4
		 M213,283.4C213,283.4,213,283.4,213,283.4C213,283.4,213,283.4,213,283.4 M213,283.4C213,283.4,213,283.4,213,283.4
		C213,283.4,213,283.4,213,283.4 M212.9,283.4C212.9,283.4,212.9,283.4,212.9,283.4C212.9,283.4,212.9,283.4,212.9,283.4
		 M257.2,267.3c0,0.3-0.1,0.5-0.1,0.8c-2.2,10.3-14.3,16.9-29.1,17.1c14.9-0.2,26.9-6.8,29.1-17.1
		C257.1,267.8,257.2,267.6,257.2,267.3"/>
	<path class="st15" d="M184.3,261.3c3.2,9.5,14.2,18.3,28.6,22.1c0,0,0,0,0,0c0,0,0,0,0,0c0,0,0,0,0,0c0,0,0,0,0,0c0,0,0,0,0,0
		c0,0,0,0,0.1,0c0,0,0,0,0,0c0,0,0,0,0,0c0,0,0,0,0,0c0,0,0,0,0,0c0,0,0,0,0,0c0,0,0,0,0,0c0,0,0,0,0.1,0c0,0,0,0,0,0c0,0,0,0,0.1,0
		c0,0,0,0,0,0c0,0,0,0,0,0c0,0,0,0,0,0c0,0,0.1,0,0.1,0c0,0,0,0,0,0c0,0,0,0,0,0c0,0,0,0,0,0c0,0,0.1,0,0.1,0l0,0c0,0,0,0,0.1,0
		c0,0,0,0,0,0c0.1,0,0.1,0,0.2,0c0,0,0,0,0,0c0.1,0,0.1,0,0.2,0c0,0,0,0,0,0c0,0,0,0,0.1,0c0,0,0,0,0,0c0.1,0,0.2,0.1,0.4,0.1
		c0,0,0,0,0,0c0,0,0,0,0.1,0l0,0c0,0,0.1,0,0.1,0c0,0,0,0,0,0c0.1,0,0.1,0,0.2,0l0,0c0,0,0,0,0.1,0c0,0,0,0,0,0c0,0,0.1,0,0.1,0
		c0,0,0,0,0,0c0,0,0,0,0.1,0c0,0,0,0,0,0c0,0,0,0,0,0c0,0,0,0,0,0c0,0,0,0,0.1,0l0,0l0,0c0,0,0.1,0,0.1,0c4,0.9,8,1.3,11.8,1.3
		c0,0,0,0,0,0c0.3,0,0.5,0,0.8,0c14.9-0.2,26.9-6.8,29.1-17.1c0.1-0.3,0.1-0.5,0.1-0.8c0.1-0.5,0.2-1.1,0.2-1.6
		c-5.6,6.7-17.1,10.8-30.6,10.8c-3.7,0-7.6-0.3-11.5-1C202.2,273.4,191.1,268,184.3,261.3"/>
	<path class="st16" d="M216,239.9c-0.7,0-1.5,0-2.2,0.1c-1.5,0.1-3,0.3-4.5,0.5c-1.5,0.3-2.9,0.7-4.3,1.3c-1.4,0.6-2.7,1.4-3.9,2.3
		c-1.2,0.9-2.3,1.9-3.3,3.1l0.2,0.2c2.8-1,5.4-2,8.1-2.8c2.6-0.8,5.2-1.8,8-2.3c1.8-0.3,3.6-0.4,5.4-0.4c1,0,2,0,3,0.1
		c2.8,0.2,5.6,0.8,8.3,1.8l0.1-0.3c-2.5-1.4-5.3-2.4-8.2-3C220.4,240.2,218.2,239.9,216,239.9"/>
	<path class="st0" d="M304.2,70.2c8.6,0,14.9,2.1,19.9,3.7c8.8,2.9,17.3,5.7,23.7,13.7c4.2,5.3,5.6,10.6,7.5,17.4
		c1.1,3.9,4.4,13.9,2.5,21.2c-0.2,0.7-1.5,3.5-3.8,6.8c-0.3,0.5-1.6,2.3-3.9,4.9c-2.2,2.4-8.9,9.4-11.3,11.5c-0.3,0.3-0.8,0.7-1,1.4
		c-0.3,1.3,0.8,2.1-1.4,2.8c-2.5,0.7-5.6,2-7.9,2.9c-6.9,2.9-7,6.4-10.8,9.8c0,0-18.8,16.7-26.1,17.2c-1.2,0.1-2.3,0-2.3,0
		c-8.8-1-10-7.3-29.9-28.6c-23.6-25.3-36.7-32.3-34.2-41.7c0.6-2.4,1.9-3.4,14.3-11.8c2.4-1.6,4.5-3.1,6.6-4.4
		c3.1-2.1,0.9-2,0.9-2.4c0-0.4,1-0.7,1.1-0.7c3.3-1.1,8.4-6.5,17.7-8.8c2.2-0.5,2.5-0.4,3.9-1c4.2-1.7,6.3-5.1,7.2-6.3
		C282.5,70.1,298.1,70.1,304.2,70.2"/>
	<path class="st0" d="M215.2,150.5c-5.5-10.9-0.8-26,6.2-34.9c2-2.6,4.4-5.6,8.7-7.5c9.2-4,18.9,0.8,29.9,6.2
		c10.5,5.2,18,8.9,23.7,17.4c3.9,5.8,5.1,12.2,7.5,24.9c2.8,14.8,4.2,22.2,1.2,24.9c-4.6,4.3-13.8-2.3-44.2-14.3
		C224,157.7,218.7,157.5,215.2,150.5"/>
	<path class="st2" d="M219.2,149.9c-4.9-9.7-0.7-23.3,5.6-31.2c1.8-2.3,4-5,7.8-6.7c8.2-3.6,17,0.7,26.8,5.6
		c9.4,4.7,16.1,8,21.2,15.6c3.5,5.2,4.5,10.9,6.7,22.3c2.5,13.3,3.7,19.9,1.1,22.3c-4.2,3.8-12.4-2-39.6-12.8
		C227.1,156.4,222.4,156.2,219.2,149.9"/>
	<path class="st17" d="M224.8,118.7C224.7,118.7,224.7,118.7,224.8,118.7C224.7,118.7,224.7,118.7,224.8,118.7"/>
	<path class="st18" d="M248.7,165c1.6,0.6,3.1,1.2,4.6,1.8C251.9,166.2,250.3,165.6,248.7,165"/>
	<path class="st17" d="M227.2,147.5c-1.2,2-2.4,4.4-3.5,7.3c4,2.5,10.9,4.5,25.1,10.1l0,0c1.6,0.6,3.1,1.2,4.6,1.8
		c18.4,7.5,27,12.2,31.8,12.2c1.2,0,2.1-0.3,2.9-0.9c-7.1-5.3-19.5-11.2-28.6-14.5C250.6,160.4,236.8,156.5,227.2,147.5
		 M224.7,118.7c-3.9,4.9-7,12.1-7.6,19.1l7.1,6.6c-1.7-2.1-3.2-4.8-2.8-7.6c0.4-2.7,2.2-4.3,4.1-5.8c-2.4-0.8-4.7-1.5-6.4-2.1l0,0
		l0,0C220.5,125.1,222.5,121.5,224.7,118.7"/>
	<path class="st3" d="M224.8,118.7c-2.2,2.8-4.2,6.4-5.6,10.2c4.6,1.4,12.3,3.9,18.5,6.7c5.5,2.4,11.8,5.6,11.8,5.6
		c2.1,1,2,1,2.5,1.3c6,2.7,11.6,2.4,13.7,2.5c11.8,0.3,18.5,12.7,21.6,10.6c-2.1-11.4-3.2-17.1-6.7-22.3l0,0
		c-2.4-3.5-5.1-6.2-8.2-8.4c-3.7-2.6-7.9-4.7-13-7.2c-2.5-1.2-4.8-2.4-7.2-3.4c-7-3.1-13.4-4.9-19.6-2.2c-0.5,0.2-0.9,0.4-1.4,0.7
		C228.2,114.3,226.4,116.7,224.8,118.7"/>
	<path class="st19" d="M239,110.7c-2.2,0-4.4,0.4-6.5,1.3l0,0c-0.5,0.2-0.9,0.4-1.4,0.7c-3,1.7-4.8,4-6.4,6
		c-2.2,2.8-4.2,6.4-5.6,10.2c4.6,1.4,12.3,3.9,18.5,6.7c5.5,2.4,11.8,5.6,11.8,5.6c2.1,1,2,1,2.5,1.3c6,2.7,11.6,2.4,13.7,2.5
		c10.9,0.3,17.4,10.8,20.8,10.8c0.3,0,0.6-0.1,0.8-0.2l0,0c-0.1-0.6-0.2-1.2-0.3-1.8c-0.6-0.2-1.2-0.4-2-0.7
		c-6.5-2.5-7.2-6.2-12.5-10c-7.2-5.1-9.6-0.7-21.2-6.2c-5.5-2.7-5.6-4.1-11.2-6.2c-4-1.5-6.7-1.9-8.1-4.4c-1.8-3.1-0.2-7,0-7.5
		c1.3-3,4-4.4,5-5c2.1-1.1,4.4-1.5,6.6-1.5c2.1,0,4.2,0.4,6.1,0.8C246,111.6,242.5,110.7,239,110.7"/>
	<path class="st20" d="M265.1,111.7c4.4,1.7,8.7,3.5,12.9,5.8c2.1,1.2,4.1,2.5,6,4c1.9,1.5,3.6,3.3,5.2,5.2c1.5,1.9,3,4,4.2,6.2
		c1.1,2.3,1.9,4.6,2.3,7c0.5,2.4,0.7,4.7,0.8,7.1c0.1,2.4,0.1,4.7-0.2,7.2l-0.5,0.1c-1.1-2.2-2-4.4-2.8-6.6
		c-0.8-2.2-1.5-4.4-2.2-6.6c-1.5-4.3-2.3-8.4-4.9-12.1c-2.4-3.7-5.6-6.8-9.4-9.5c-3.7-2.7-7.8-5-11.8-7.4L265.1,111.7z"/>
	<path class="st20" d="M296.4,117.1c-5.2,0-9.3-2.3-16.2-6.2c-3.6-2.1-5.4-3.1-5.8-3.4c-3.2-1.9-3.4-2.3-5.4-2.8
		c-5.5-1.6-6.9,0-14.9-1.2c-1.6-0.3-12.3-2-12.5-5c-0.1-1.3,1.7-2.3,3.1-3.1c4.8-2.8,9.8-2.7,12.5-2.5c10.6,0.8,18.5,5.4,19.9,6.2
		c5.8,3.5,6.9,5.8,10.2,8.3c1.6,1.2,2.9,1.9,4.8,2.9c6.9,3.6,11.3,3.9,11.2,5C303.2,116.2,299.8,117.2,296.4,117.1z"/>
	<path class="st20" d="M270.6,85.1c-0.1,0.3,2.4,1.1,6.2,3.7c1.4,1,2.1,1.5,3.1,2.3c2.3,1.9,3.5,3.5,5.6,5.2c1,0.8,2.7,1.9,13.7,5
		c16.8,4.6,20.1,3.9,22.4,2.5c0.4-0.3,3.9-2.4,3.7-5c-0.2-3.8-7.7-6.5-12.5-7.5c-8.9-1.8-10.5,1.9-19.9,0c-0.2,0-0.4-0.1-0.5-0.1
		c-1.1-0.3-1.9-0.6-2.1-0.7c-1-0.4-3.9-1.2-9.8-3C275.8,86.2,270.8,84.7,270.6,85.1z"/>
	<path class="st20" d="M311.2,113.5c-0.4,1.1,5.4,2.7,10.9,9.2c2.1,2.4,4.8,5.8,6.2,10.8c1.9,6.5-0.9,10,1.9,15.3
		c1.8,3.3,4,4.2,4.5,4.3c0.8,0.3,1.7,0.6,2.5,0.3c3.3-1.3,4.1-14.6-2.1-24.1c-1.5-2.3-2.2-2.6-3.9-4.2c-0.4-0.4-0.7-0.7-1-1
		c-1.5-1.6-2.5-2.9-2.8-3.3c-1.7-2.1-4-4-5-4.8C318,112.7,311.6,112.4,311.2,113.5z"/>
	<path class="st20" d="M314.2,130c4.1,5,3.9,11.7,3.7,16.2c-0.2,4.7-1.1,4.5-1.2,10c-0.1,2.9,0.2,5.2-1.2,6.2c-1,0.7-2.6,0.6-3.7,0
		c-1-0.5-2.7-2.2-2.5-11.2c0.2-9.5,2.2-10.3,1.2-14.9c-1.5-6.9-7.1-10.1-6.2-11.2C305.1,124,310.7,125.7,314.2,130z"/>
	<path class="st20" d="M286.8,77.6c-0.3,1.2,6.7,4.5,13.7,6.2c7.3,1.8,9.2-0.5,19.9,2.5c5.7,1.6,9.7,2.7,12.5,6.2
		c3.7,4.6,0.7,7.7,3.7,19.9c2.4,9.8,5.6,13.3,7.5,14.9c0.4,0.4,4.7,4.7,6.2,3.7c0.8-0.5,0.6-2.4,0-5c-1.5-6.5-3.7-10.8-5-13.7
		c-4.4-10.1-1.4-13.1-6.2-19.9c-2.1-3-4.4-4.7-6.2-6.2c-2-1.6-7.4-5.8-15.2-7.4c-4.1-0.8-4.3,0-12.2-0.1
		C293.3,78.7,287.1,76.6,286.8,77.6z"/>
	<path class="st0" d="M164,105.8l12.6-5.5l50.7,47c-2.5,4.3-5.6,10.9-6.2,19.3c-0.3,4.7,0.3,8.1,0.6,10.2c0.9,7,0.6,17.6-5.7,32.9
		c-4.2,1.8-8.4,3.7-12.6,5.5l-1-1.9l-30.1,5.5l-33.3-54.7l0.2-41.5l23.4-13.4L164,105.8"/>
	<path class="st21" d="M165.7,107.4l-0.1,0.1l11.7,11.8l11.8,11.8c3.9,3.9,7.8,7.9,11.8,11.7c2,1.9,4.1,3.7,6.2,5.6l3.2,2.7
		c1.1,0.9,2.1,1.8,3.2,2.6l0.1-0.1c-0.9-1.1-1.8-2.1-2.8-3.1l-2.8-3.1c-1.9-2-3.8-4-5.8-6c-3.9-3.9-8.1-7.6-12.1-11.4L178,118.6
		L165.7,107.4"/>
	<path class="st21" d="M143.7,128.2l-0.2,0.1l16,22.5l16,22.3c1,3.1,1.8,6.3,2,9.5c0.2,1.6,0.2,3.2-0.1,4.8
		c-0.3,1.4-0.9,3.1-1.3,4.7c-0.9,3.3-1.8,6.5-2.4,9.9c-0.3,1.7-0.6,3.3-0.8,5c-0.1,0.8-0.2,1.7-0.2,2.6c0,0.9,0,1.7,0.4,2.6l0.2-0.1
		c-0.3-1.6,0.1-3.3,0.4-4.9c0.4-1.6,0.8-3.3,1.2-4.9c0.9-3.2,1.9-6.4,3-9.6l0.8-2.4c0.3-0.7,0.6-1.7,0.7-2.6
		c0.3-1.8,0.3-3.6,0.2-5.3c-0.4-3.5-1.2-6.8-2.4-10.1l0-0.1l-0.1-0.1l-16.7-22L143.7,128.2"/>
	<path class="st21" d="M165.2,111.8l-0.1,0.1c1.7,2,3.5,4,5.3,5.9c1.8,1.9,3.6,3.9,5.4,5.7c3.6,3.8,7.4,7.5,11.2,11.1
		c3.8,3.6,7.6,7.3,11.5,10.7c3.8,3.4,7.5,6.8,11,10.5c-2.4,0.9-4.8,1.7-7.3,2.4l-3.9,1.1c-1.3,0.4-2.7,0.9-4,1.5
		c-2.6,1.2-5,2.6-7.3,4.1c-2.3,1.5-4.5,3.2-6.6,5l0.1,0.2c2.4-1.4,4.8-2.7,7.2-4.1c2.4-1.3,4.8-2.6,7.3-3.6c1.2-0.6,2.5-1,3.8-1.3
		c1.3-0.4,2.7-0.8,4-1.3c2.6-1,5.1-2.2,7.6-3.4l0.5-0.3l-0.4-0.4c-3.9-3.5-7.5-7.3-11.1-11.2c-3.6-3.9-7.3-7.6-11-11.3
		c-3.7-3.7-7.5-7.4-11.3-11c-1.9-1.8-3.9-3.6-5.8-5.3C169.2,115.2,167.2,113.5,165.2,111.8"/>
	<path class="st2" d="M217.2,162.7c0,0-12.2,0.3-18,4c-3.4,2.1-11.8,6.1-12.4,10s-6.2,29.6-4.7,30.6c1.5,1,18.1,0.3,22.7,0.4
		c3.2,0.1,11.3-2.1,9.9-9.6C213.2,190.6,217.2,162.7,217.2,162.7z"/>
	<path class="st3" d="M194.7,174.9c0,0,1.2,6.6-0.4,12.6c-1.6,6-4,15.1-4,15.1s7.3-11.9,7.4-15.4
		C197.7,183.8,194.7,174.9,194.7,174.9z"/>
	<path class="st3" d="M207.3,169.8c0,0-4.8,11.1-3.5,14.2s1.1,13.6,0.8,15.8c-0.3,2.2-3.9,1.1-3.8-2.4S208.1,173.8,207.3,169.8z"/>
	<path class="st7" d="M37.1,252.7c0,0,31.4-7.9,42.2-8.8c5.4-0.5,10.1,0.7,14,2s7.1,2.5,9.6,2c2.5-0.5,6.6,0.7,10.6,2
		c3.9,1.2,7.6,2.5,9.1,2c2.9-1,8.8-16.7,3.9-26.5c-3.2-6.5,9-24.7,11.3-33.9c1.2-4.7-7.4-4.4-7.4-4.4s0-8.8-2.9-7.9
		c-2.9,1-8.3,0.5-8.3,0.5l-2-10.8l-8.8,1l-4.9-5.9l-8.8,4.9l-2.9-6.9l-8.8,3.9l-10.8-3.9l-4.9,6.9l-7.9-2l-2,5.9l-9.8-2.9l-0.5,8.3
		l-8.3-0.5l-1.5,9.3l-5.4,1.5l-2.5,6.4l2.5,11.3C31.7,206.1,29.2,243.9,37.1,252.7"/>
	<path class="st11" d="M122.5,251.7C122.5,251.7,122.4,251.7,122.5,251.7C122.4,251.7,122.5,251.7,122.5,251.7 M122.5,251.7
		C122.5,251.7,122.5,251.7,122.5,251.7C122.5,251.7,122.5,251.7,122.5,251.7 M122.5,251.7C122.5,251.7,122.5,251.7,122.5,251.7
		C122.5,251.7,122.5,251.7,122.5,251.7 M122.5,251.7C122.5,251.7,122.5,251.7,122.5,251.7C122.5,251.7,122.5,251.7,122.5,251.7
		 M122.5,251.7C122.5,251.7,122.5,251.7,122.5,251.7C122.5,251.7,122.5,251.7,122.5,251.7 M122.5,251.7
		C122.5,251.7,122.5,251.7,122.5,251.7C122.5,251.7,122.5,251.7,122.5,251.7 M91.5,161.9l-8.8,3.9l-10.8-3.9l-4.9,6.9l-7.9-2l-2,5.9
		l-9.8-2.9l-0.5,8.3l-8.3-0.5l-1.5,9.3l-5.4,1.5l-2.5,6.4l2.5,11.3l0,0c0,0-0.4,5.6-0.4,13c0,11.8,0.9,28.2,5.8,33.7
		c0,0,31.4-7.9,42.2-8.8c0.8-0.1,1.7-0.1,2.5-0.1c4.4,0,8.2,1,11.5,2.1c3.3,1,6.1,2.1,8.4,2.1c0.4,0,0.8,0,1.2-0.1
		c0.4-0.1,0.8-0.1,1.3-0.1c2.5,0,6,1,9.3,2.1c3.3,1,6.5,2.1,8.2,2.1c0.3,0,0.6,0,0.8-0.1c0,0,0,0,0,0c0,0,0,0,0,0
		c-0.2,0.1-0.5,0.1-0.8,0.1c-1.8,0-4.9-1-8.2-2.1c-3.3-1-6.8-2.1-9.3-2.1c-0.5,0-0.9,0-1.3,0.1c-0.4,0.1-0.8,0.1-1.2,0.1
		c-2.3,0-5.1-1-8.4-2.1c-3.3-1-7.2-2.1-11.5-2.1c-0.8,0-1.6,0-2.5,0.1c-10.8,1-42.2,8.8-42.2,8.8c-0.1-0.1-0.2-0.2-0.3-0.3
		c0.6-6.4,2.2-14.8,6.6-19.8c8.8-9.8,22.5-17.7,33.4-17.7c14.7,0,29.4,0,47.1,19.6c1.4,1.5,2.7,3.1,3.9,4.6
		c-1,6.3-3.6,11.8-5.3,12.5c2.1-0.9,5.7-9.2,5.7-17.4c0-3.2-0.5-6.3-1.9-9c-0.4-0.7-0.5-1.6-0.5-2.7c0-7.9,9.8-23.1,11.8-31.2
		c0.1-0.3,0.1-0.6,0.1-0.8c0-3.4-5.7-3.6-7.1-3.6c-0.2,0-0.3,0-0.3,0s0-7.9-2.5-7.9c-0.1,0-0.3,0-0.4,0.1c-1.5,0.5-3.6,0.6-5.3,0.6
		c-1.7,0-3.1-0.1-3.1-0.1l-2-10.8l-8.8,1l-4.9-5.9l-8.8,4.9L91.5,161.9"/>
	<path class="st22" d="M122.4,251.7C122.4,251.7,122.4,251.7,122.4,251.7C122.4,251.7,122.4,251.7,122.4,251.7 M122.5,251.7
		C122.5,251.7,122.5,251.7,122.5,251.7C122.5,251.7,122.5,251.7,122.5,251.7 M122.5,251.7C122.5,251.7,122.5,251.7,122.5,251.7
		C122.5,251.7,122.5,251.7,122.5,251.7 M122.5,251.7C122.5,251.7,122.5,251.7,122.5,251.7C122.5,251.7,122.5,251.7,122.5,251.7
		 M122.5,251.7C122.5,251.7,122.5,251.7,122.5,251.7C122.5,251.7,122.5,251.7,122.5,251.7 M122.5,251.7L122.5,251.7L122.5,251.7
		 M122.5,251.7C122.5,251.7,122.5,251.7,122.5,251.7C122.5,251.7,122.5,251.7,122.5,251.7"/>
	<path class="st23" d="M76.8,214.9c-10.8,0-24.5,7.9-33.4,17.7c-4.5,5-6.1,13.4-6.6,19.8c0.1,0.1,0.2,0.2,0.3,0.3
		c0,0,31.4-7.9,42.2-8.8c0.8-0.1,1.7-0.1,2.5-0.1c4.4,0,8.2,1,11.5,2.1c3.3,1,6.1,2.1,8.4,2.1c0.4,0,0.8,0,1.2-0.1
		c0.4-0.1,0.8-0.1,1.3-0.1c2.5,0,6,1,9.3,2.1c3.3,1,6.5,2.1,8.2,2.1c0.3,0,0.6,0,0.8-0.1c0,0,0,0,0,0c0,0,0,0,0,0c0,0,0,0,0,0
		c0,0,0,0,0,0c0,0,0,0,0,0c0,0,0,0,0,0c0,0,0,0,0,0c0,0,0,0,0,0c0,0,0,0,0,0c0,0,0,0,0,0c0,0,0,0,0,0l0,0c0,0,0,0,0,0c0,0,0,0,0,0
		c1.7-0.7,4.3-6.2,5.3-12.5c-1.2-1.5-2.5-3.1-3.9-4.6C106.2,214.9,91.5,214.9,76.8,214.9"/>
	<path class="st7" d="M64.1,172.7c0.6,3.3,0.9,6.7,1.1,10.1c0.2,3.4,0.3,6.8,0.2,10.1c-0.1,3.4-0.4,6.7-0.3,10.1
		c0,1.7,0.2,3.4,0.6,5c0.2,0.8,0.5,1.6,1,2.2c0.5,0.6,1.1,0.9,1.9,0.9c0.3,0,0.8-0.1,1-0.2c0.2-0.1,0.4-0.3,0.5-0.6
		c0.2-0.6,0.3-1.4,0.3-2.2c0-1.6-0.1-3.3-0.3-5c-0.3-3.3-0.6-6.7-0.8-10.1c-0.3-6.8-0.2-13.6,0.5-20.3l0.2,0
		c0.5,6.8,1,13.5,1.4,20.2c0.2,3.4,0.4,6.7,0.5,10.1c0.1,1.7,0.1,3.4,0,5.2c-0.1,0.9-0.2,1.8-0.7,2.7c-0.2,0.5-0.7,0.9-1.3,1.1
		c-0.3,0.1-0.5,0.1-0.8,0.1c-0.2,0-0.5,0-0.7,0c-0.5,0-1-0.2-1.4-0.4c-0.4-0.2-0.8-0.6-1.1-1c-0.5-0.8-0.8-1.6-1-2.5
		c-0.4-1.7-0.5-3.4-0.6-5.1c-0.3-3.4-0.5-6.8-0.7-10.1c-0.1-3.4-0.1-6.7-0.1-10.1c0-3.4,0.1-6.7,0.2-10.1L64.1,172.7z"/>
	<path class="st7" d="M78.9,176.7c0.3,3.1,0.2,6.2,0.1,9.3c-0.1,3.1-0.4,6.2-0.9,9.3l-0.8,4.6c-0.3,1.5-0.6,3-0.7,4.6
		c-0.1,0.8-0.1,1.5,0,2.3c0.1,0.7,0.2,1.5,0.6,2c0.4,0.5,1.1,0.8,1.8,1c0.7,0.1,1.2,0,1.6-0.5c0.4-0.5,0.6-1.2,0.7-1.9
		c0.1-0.7,0.2-1.5,0.3-2.2c0.1-1.5,0.2-3,0.3-4.6c0.1-3.1,0.1-6.2,0.3-9.3c0.4-6.2,1.1-12.4,2.5-18.4l0.2,0
		c-0.1,6.2-0.3,12.4-0.5,18.5c-0.1,3.1-0.3,6.2-0.6,9.3c-0.1,1.5-0.3,3.1-0.5,4.7c-0.1,0.8-0.3,1.6-0.6,2.3
		c-0.3,0.8-0.6,1.6-1.2,2.3c-0.3,0.3-0.8,0.6-1.3,0.7c-0.5,0.1-1,0-1.4-0.1c-0.8-0.2-1.6-0.7-2.1-1.4c-0.5-0.7-0.6-1.6-0.7-2.4
		c0-0.8,0-1.6,0-2.4c0.2-3.1,0.3-6.2,0.5-9.3c0.2-3.1,0.6-6.1,1-9.2c0.4-3.1,0.7-6.1,1.2-9.2L78.9,176.7z"/>
	<path class="st7" d="M91.6,172.7c-0.1,3-0.4,6-0.7,9c-0.4,3-0.8,5.9-1.4,8.8c-0.6,2.9-1.4,5.8-1.9,8.7c-0.2,1.5-0.4,2.9-0.4,4.4
		c0,1.5,0,3,0.5,4.2c0.3,0.6,0.7,0.9,1.2,0.9c0.2,0,0.6,0,0.9-0.1c0.3-0.1,0.6-0.2,0.8-0.3c0.8-0.5,1-2,1.2-3.4
		c0.3-2.9,0.3-5.9,0.7-8.9c0.7-6,2-11.9,4-17.5l0.2,0c-0.8,5.9-1.5,11.8-2,17.7c-0.3,3-0.5,5.9-0.9,8.9c-0.1,0.8-0.3,1.5-0.6,2.3
		c-0.1,0.4-0.3,0.8-0.6,1.2c-0.3,0.4-0.7,0.7-1.1,1c-0.4,0.2-0.9,0.4-1.3,0.4c-0.5,0-0.8,0-1.3,0c-0.5-0.1-1-0.3-1.3-0.7
		c-0.3-0.4-0.6-0.8-0.7-1.2c-0.5-1.6-0.3-3.1-0.2-4.6c0.1-1.5,0.3-3,0.5-4.5c0.3-3,0.5-6,0.9-8.9c0.4-3,1-5.9,1.6-8.8
		c0.6-2.9,1.3-5.8,2.1-8.7L91.6,172.7z"/>
	<path class="st7" d="M105.4,172.8c-0.4,3.1-0.9,6.1-1.6,9.1c-0.7,3-1.4,6-2.2,9l-1.4,4.4c-0.5,1.5-0.9,2.9-1.3,4.4
		c-0.8,3-1.4,6-1.5,9c0,0.4,0,0.7,0.1,1c0.1,0.3,0.2,0.6,0.3,0.6c0.3,0.1,0.6,0,1-0.5c0.7-1,1.2-2.6,1.7-4c0.9-2.9,1.6-5.9,2.5-8.9
		c1.8-5.9,3.7-11.8,6.3-17.5l0.2,0.1c-1.3,6.1-2.8,12-4.4,18c-0.8,3-1.7,5.9-2.8,8.9c-0.6,1.5-1.1,3-2.2,4.4
		c-0.3,0.3-0.7,0.7-1.3,0.9c-0.3,0.1-0.6,0.1-0.9,0.1c-0.3-0.1-0.5-0.1-0.9-0.4c-0.6-0.5-0.6-1.1-0.7-1.5c0-0.4,0-0.9,0-1.3
		c0.2-1.6,0.6-3.1,0.9-4.6l1.1-4.5c0.3-1.5,0.6-3,0.9-4.5l0.9-4.6c0.6-3,1.5-6,2.3-9c0.9-3,1.8-5.9,2.9-8.8L105.4,172.8z"/>
	<path class="st7" d="M116.2,180.6c-0.4,2.9-1.1,5.8-1.9,8.7c-0.8,2.9-1.7,5.7-2.7,8.4c-1.1,2.7-2.3,5.4-3.3,8.2
		c-0.5,1.4-0.9,2.8-1.1,4.2c-0.1,0.7-0.2,1.4-0.1,2.1c0.1,0.7,0.3,1.3,0.7,1.7c0.2,0.2,0.5,0.3,0.7,0.4c0.2,0.1,0.4,0,0.6-0.1
		c0.4-0.2,0.8-0.8,1.1-1.4c0.7-1.2,1.2-2.6,1.7-3.9c1-2.7,1.9-5.5,2.9-8.3c2-5.5,4.3-11,7-16.3l0.2,0.1c-1.6,5.7-3.3,11.3-5.2,16.9
		c-1,2.8-2,5.6-3.2,8.3c-0.6,1.4-1.2,2.7-2.1,4.1c-0.5,0.6-1,1.3-1.9,1.7c-0.5,0.2-1.1,0.2-1.6-0.1c-0.4-0.2-0.8-0.5-1.1-0.8
		c-0.6-0.7-0.8-1.6-0.8-2.4c0-0.8,0.1-1.5,0.3-2.3c0.3-1.5,0.7-2.9,1.1-4.3l2.4-8.6c0.9-2.8,1.8-5.6,2.8-8.4c1-2.8,2-5.5,3.2-8.3
		L116.2,180.6z"/>
	<path class="st7" d="M126.9,190.4c-0.6,2.8-1.5,5.6-2.5,8.3c-1,2.7-2.1,5.4-3.4,8c-1.3,2.6-2.8,5-4.1,7.6c-0.6,1.3-1.1,2.6-1.4,4
		c-0.1,0.7-0.2,1.4,0,2c0.2,0.6,0.5,1.1,1,1.5c0.1,0.1,0.2,0.2,0.4,0.3c0.1,0.1,0.3,0.2,0.3,0.2c0.1,0,0.2,0,0.4-0.2
		c0.4-0.4,0.7-1,1.1-1.6c0.6-1.2,1.2-2.5,1.8-3.8l3.3-7.9c2.3-5.3,4.8-10.5,7.7-15.5l0.2,0.1c-1.8,5.5-3.8,10.9-5.9,16.2
		c-1.1,2.7-2.3,5.3-3.6,7.9c-0.6,1.3-1.3,2.6-2.1,3.9c-0.4,0.6-0.9,1.2-1.6,1.8c-0.2,0.1-0.4,0.3-0.7,0.3c-0.3,0.1-0.6,0.1-0.9-0.1
		c-0.3-0.1-0.4-0.3-0.6-0.4c-0.2-0.1-0.3-0.3-0.5-0.4c-0.6-0.6-1-1.4-1.1-2.1c-0.1-0.8,0-1.6,0.2-2.3c0.3-1.4,0.9-2.8,1.4-4.1
		c1-2.7,2.1-5.4,3.1-8.1c1.1-2.6,2.3-5.2,3.5-7.8c1.2-2.6,2.4-5.2,3.7-7.8L126.9,190.4z"/>
	<path class="st7" d="M57.3,177.6c0.6,3.1,1,6.1,1.4,9.2c0.4,3.1,0.7,6.1,0.9,9.2l0.2,4.6c0,1.5,0.1,3.1,0.2,4.6
		c0.1,1.5,0.2,3.1,0.2,4.7c0,0.8,0,1.6-0.2,2.4c-0.1,0.4-0.2,0.8-0.5,1.2c-0.2,0.4-0.6,0.8-1.1,1c-0.2,0.1-0.5,0.2-0.8,0.1
		c-0.3,0-0.6-0.1-0.8-0.3c-0.5-0.3-0.7-0.8-0.9-1.1c-0.4-0.8-0.6-1.5-0.9-2.3c-0.4-1.5-0.7-3.1-0.9-4.6c-0.5-3.1-0.9-6.1-1.2-9.2
		c-0.6-6.1-1.2-12.3-1.5-18.5l0.2,0c1.6,6,2.6,12.1,3.4,18.2c0.4,3.1,0.7,6.1,1,9.2c0.2,1.5,0.4,3,0.6,4.5c0.1,0.7,0.3,1.5,0.5,2.1
		c0.1,0.3,0.3,0.6,0.4,0.7c0.1,0.1,0.2,0.2,0.5,0.1c0.5-0.1,0.9-0.7,1.1-1.4c0.2-0.7,0.3-1.4,0.4-2.2c0.1-1.5,0-3.1-0.1-4.6
		c-0.1-1.5-0.4-3.1-0.6-4.6l-0.7-4.6c-0.4-3.1-0.6-6.1-0.8-9.2c-0.1-3.1-0.2-6.2,0-9.3L57.3,177.6z"/>
	<path class="st7" d="M46.5,183.5c0.7,3.2,1.4,6.3,2,9.5c0.6,3.2,1.2,6.3,1.6,9.5c0.4,3.2,0.7,6.4,1,9.7c0.1,1.6,0.3,3.2,0.1,4.9
		c-0.1,0.8-0.3,1.7-0.9,2.5c-0.1,0.2-0.3,0.4-0.6,0.5c-0.3,0.2-0.8,0.2-1,0c-0.6-0.3-0.7-0.8-1-1.2c-0.8-1.6-1.2-3.1-1.6-4.7
		c-0.4-1.6-0.7-3.2-1-4.8c-0.6-3.2-1.1-6.4-1.6-9.5c-0.9-6.4-1.6-12.8-2.2-19.2l0.2,0c1.8,6.2,3,12.6,4.1,18.9
		c0.5,3.2,0.9,6.4,1.3,9.6l0.7,4.8c0.3,1.6,0.5,3.2,1,4.6c0.1,0.3,0.3,0.7,0.5,0.8l0.1,0c0.1,0,0.2-0.1,0.3-0.2
		c0.5-0.5,0.7-1.2,0.9-2c0.2-1.5,0.1-3.2-0.1-4.7c-0.2-1.6-0.5-3.2-0.9-4.7l-1.1-4.7c-0.7-3.2-1.1-6.4-1.5-9.6
		c-0.4-3.2-0.6-6.4-0.6-9.7L46.5,183.5z"/>
	<path class="st7" d="M39.6,194.3c0.8,2.6,1.4,5.2,2,7.7c0.6,2.6,1.2,5.2,1.6,7.8c0.4,2.6,0.7,5.3,1.1,7.9c0.2,1.3,0.4,2.6,0.5,4
		c0,0.7,0,1.4-0.2,2.1c-0.2,0.7-0.7,1.4-1.4,1.8c-0.2,0.1-0.7,0.2-0.9,0.1c-0.3-0.1-0.5-0.3-0.6-0.4c-0.3-0.3-0.5-0.6-0.7-0.9
		c-0.4-0.6-0.6-1.3-0.9-1.9c-0.5-1.3-0.9-2.5-1.3-3.8c-0.8-2.6-1.5-5.1-2.2-7.7c-1.2-5.2-2.3-10.4-3-15.7l0.2-0.1
		c2,5,3.5,10.1,4.9,15.2c0.7,2.6,1.2,5.2,1.9,7.7c0.3,1.3,0.7,2.6,1,3.8c0.2,0.6,0.4,1.2,0.6,1.8c0.1,0.3,0.2,0.5,0.4,0.7
		c0.1,0.1,0.1,0.2,0.2,0.2l0,0c1-0.4,1.4-1.7,1.4-3c0-1.3-0.2-2.6-0.4-3.9c-0.5-2.6-1.4-5.1-2.1-7.7c-0.7-2.6-1.1-5.2-1.5-7.8
		c-0.4-2.6-0.7-5.3-0.7-8L39.6,194.3z"/>
	<path class="st7" d="M34.7,218.8c0.7,0.5,1.2,1.1,1.6,1.8c0.2,0.3,0.4,0.7,0.5,1c0.1,0.4,0.2,0.7,0.2,1.1c0,0.4,0.1,0.8,0.2,1.2
		c0.1,0.4,0.3,0.7,0.5,1c0.4,0.6,1,1.2,1.4,1.9c0.4,0.7,0.8,1.4,1,2.4c0,0.3,0,0.5,0,0.9c0,0.2-0.1,0.4-0.2,0.5l-0.2,0.3
		c-0.2,0.4-0.5,0.8-0.9,1.1c-0.2,0.2-0.5,0.4-0.8,0.5c-0.3,0.1-0.7,0.1-1,0c-0.6-0.2-0.9-0.5-1.2-0.9c-0.5-0.6-0.9-1.3-1.4-1.9
		l0.1-0.2c0.8,0.3,1.4,0.8,2,1.2c0.3,0.2,0.6,0.3,0.7,0.3c0.1,0,0.1-0.1,0.2-0.3c0.1-0.2,0.3-0.5,0.4-0.8l0.1-0.2l0,0l0-0.3
		c-0.1-0.5-0.3-1.3-0.5-2c-0.2-0.7-0.2-1.5-0.4-2.3c-0.1-0.4-0.3-0.7-0.5-1c-0.2-0.3-0.5-0.6-0.8-0.9c-0.3-0.3-0.5-0.6-0.7-0.9
		c-0.2-0.3-0.3-0.7-0.4-1.1c-0.2-0.7-0.4-1.5-0.3-2.4L34.7,218.8z"/>
</g>
</svg>
