<?xml version="1.0" encoding="utf-8"?>
<!-- Generator: Adobe Illustrator 21.1.0, SVG Export Plug-In . SVG Version: 6.00 Build 0)  -->
<svg version="1.1" id="Layer_1" xmlns="http://www.w3.org/2000/svg" xmlns:xlink="http://www.w3.org/1999/xlink" x="0px" y="0px"
	 viewBox="0 0 337 316" style="enable-background:new 0 0 337 316;" xml:space="preserve">
<style type="text/css">
	.st0{fill:#502419;}
	.st1{fill:#441F15;}
	.st2{fill:#30150F;}
</style>
<g>
	<path class="st0" d="M69.6,267.8c-35.7-28.2-69.6-81.2-59.1-138C25.2,49.8,121.1-1.8,202.3,15.3c61.9,13,121.5,67.2,125.9,136.5
		c3.8,60.2-36.2,101.5-41.7,106.9c-22.1,22.1-57.9,1-88.9,6.4C151.3,273.2,107.3,297.5,69.6,267.8z"/>
	<path class="st1" d="M299.9,220.7c-20-1.9-25.3,3.4-50,4c-12.8,0.3-28.9,0.8-48-5c-20.7-6.3-27.1-14.4-53-20
		c-8.1-1.7-14.1-2.4-20-3c-39.9-4.2-52.2,5.1-67-1c-26.5-10.9-29.9-58-30-60C29.3,93.8,57,53.7,92.2,30.4
		c-41.1,20.1-73.6,55.5-81.7,99.3C0,186.6,33.9,239.6,69.6,267.8c37.7,29.7,81.6,5.5,128-2.7c31-5.4,66.7,15.6,88.9-6.4
		c2.9-2.9,15.5-15.9,26.2-36.4C307.5,221.4,302.9,221,299.9,220.7z"/>
	<path class="st2" d="M162.6,247.7c0,0,51-16,48-19s-24-38-30-36s-38.7,26.9-34.4,27.5C150.6,220.7,155.6,249.7,162.6,247.7z"/>
	<path class="st0" d="M23.4,269.9c-0.2-17,33.3-33.4,51.8-39.8c3.1-1.1,5.4-1.6,7.3-2.2c10.4-2.8,50.6-13.4,91.3,0.7
		c14.1,4.9,26.4,12,47,13c1.2,0.1,5.3,0.5,11,0c15.2-1.2,27.7-4.2,40.4-7.4c0,0,36.9-9,45.3-3.3c0.5,0.3,0.9,0.7,1.2,1
		c3,3,4.6,5.7,5.1,8.5c1.3,6.9-4.2,15.4-5,16.5c-8,11.4-47.5,47.1-95.1,37.6c-16.8-3.3-23.8-10.2-48-12c-14.8-1.1-26.4,0.3-31,1
		c-32.4,4.7-38.2,17.7-59,20C57.2,306.8,23.7,286.8,23.4,269.9z"/>
	<path class="st1" d="M319,257.1c0.5-0.7,2.6-3.9,4-7.9c-10,6.5-30.4,27.6-65.1,34.6c-10.5,2.1-33.7,6.7-54-5
		c-13.4-7.8-12-14.9-25-21c-24.2-11.5-52.8,2-57,4c-17.1,8.1-15.5,14.8-38,27c-12.6,6.8-21.7,9.4-26.4,11.6c9.1,3,19,4.5,28.4,3.4
		c20.8-2.3,26.6-15.3,59-20c4.6-0.7,16.2-2.1,31-1c24.2,1.8,31.2,8.7,48,12C271.5,304.1,310.9,268.4,319,257.1z"/>
	<g>
		<path class="st2" d="M132.6,105.7c0,0-23-32-29-31s-54,19-51,31s38,44,40,39S128.6,115.7,132.6,105.7z"/>
		<path class="st2" d="M226.6,12.7c0,0-48,4-51,10s14,51,22,52s52-16,48-23S236.6,11.7,226.6,12.7z"/>
		<path class="st2" d="M285.6,180.7c0,0-44,5-48,0s5-40,8-43s42-4,47,0S291.6,175.7,285.6,180.7z"/>
		<path class="st2" d="M93.6,234.7c0,0,45,23,45,28s-12,9.3-15,16.6c-3,7.4-58-10.6-56-16.6S87.6,237.7,93.6,234.7z"/>
	</g>
</g>
</svg>
