<?xml version="1.0" encoding="utf-8"?>
<!-- Generator: Adobe Illustrator 21.1.0, SVG Export Plug-In . SVG Version: 6.00 Build 0)  -->
<svg version="1.1" id="Layer_1" xmlns="http://www.w3.org/2000/svg" xmlns:xlink="http://www.w3.org/1999/xlink" x="0px" y="0px"
	 viewBox="0 0 365 325" style="enable-background:new 0 0 365 325;" xml:space="preserve">
<style type="text/css">
	.st0{fill:#502012;}
	.st1{fill:#441B0F;}
</style>
<g>
	<path class="st0" d="M83.6,265.4c-35.7-28.2-69.6-81.2-59.1-138C39.2,47.5,135.1-4.1,216.3,13c61.9,13,121.5,67.2,125.9,136.5
		c3.8,60.2-36.2,101.5-41.7,106.9c-14.6,14.6-35.2,14.2-56.4,13.9c-10.9-0.2-21.9-0.3-32.4,1.5C165.3,279.9,121.3,295.2,83.6,265.4"
		/>
	<path class="st1" d="M116.8,23.3c-22.9,9.5-43.6,23.5-59.8,41l0,0c0,0,0,0,0,0l0,0c0,0,0,0,0,0c0,0,0,0,0,0c0,0,0,0,0,0
		c0,0,0,0,0,0l0,0c-16.3,17.7-27.9,39.1-32.3,62.9c-1.3,7.1-1.9,14.2-1.9,21.2c0,31.6,12.7,61.2,30.1,84.7
		c13.7-9.6,40.9-9.6,59.6-9.6c0,0,0,0,0.1,0c10.6,0,29.7,5.7,49,11.5c19.2,5.7,38.5,11.5,49.2,11.5c1.3,0,2.4-0.1,3.4-0.2
		c18.2-0.7,31.9-4.4,40.9-7.6c18.7-6.5,26.1-13.9,38.7-13.9c1.2,0,2.5,0.1,3.8,0.2c2,0.2,13.5,1.5,21.2,8.8c2-3,4-6.2,5.9-9.7l0,0
		c0,0,0,0,0,0c0,0,0,0,0,0c0,0,0,0,0,0c0,0,0,0,0,0c0,0,0,0,0,0c0,0,0,0,0,0c0,0,0,0,0,0c0,0,0,0,0,0c0,0,0,0,0,0
		c0.1-0.2,0.2-0.4,0.3-0.6c-13-5.3-29.9-7.9-42-8.3c-1.5-0.1-2.9-0.1-4.3-0.1c-19.8,0-34.2,5.3-39.4,6.8c-6.7,2-14.4,2.9-22.7,2.9
		c-60.1,0-153.8-48.3-157.5-103.4c-1.3-20,9.2-40.6,13-48c11.9-23.2,28.8-37.5,37-44C110.4,28.1,113.2,26,116.8,23.3"/>
	<path class="st0" d="M213.8,246.5c-9.6,1.6-31.1-4.8-52.6-11.2c-19.2-5.8-38.5-11.5-49-11.5c-23.1,0-59.3,0.1-66.7,18.2
		c-6.7,16.3,13.3,39.5,25.8,50c28.2,23.8,73.2,30.4,106.1,15.2c20.6-9.5,21.8-20.8,44-25.8c9.8-2.2,15.6-1.3,23.6-0.4
		c6.6,0.7,14.7,1.5,28,0.4c21.3-1.6,40.4-3.3,48.5-16.7c4.2-6.9,5.2-16.5,1.5-24.3c-6.2-13.1-23.3-14.9-25.8-15.2
		c-15-1.6-22,6.5-42.5,13.6C245.8,242,232.1,245.7,213.8,246.5"/>
	<path class="st1" d="M325.2,249.3c-6.1,8.8-12.4,12.9-16.3,15c-8.5,4.5-16.4,5.7-28,5.7c-12.6,0-29.5-1.5-56-1.7
		c-2.2,0-4.2,0-6.1,0c-2.4,0-4.5,0-5.9,0c-1.1,0-3,0.2-5,1c-6.1,2.4-7.4,7.8-12.3,12.2c-1.5,1.3-4.1,2.5-12.7,5.8
		c-19.9,7.6-39.3,9.7-55.2,9.7c-13.4,0-24.3-1.6-30.8-2.7c-13.8-2.5-24.9-6.5-33.9-10.3c2.9,3,5.7,5.7,8.2,7.8c0,0,0,0,0,0
		c0,0,0,0,0,0c0,0,0,0,0,0c0,0,0,0,0,0c17.9,15.2,42.7,23.4,66.9,23.4c13.8,0,27.3-2.7,39.3-8.2c20.6-9.5,21.8-20.8,44-25.8
		c4.6-1,8.3-1.4,11.7-1.4c3.9,0,7.6,0.5,11.8,0.9c4.3,0.5,9.2,0.9,15.7,0.9c3.6,0,7.6-0.1,12.3-0.5c21.3-1.6,40.4-3.3,48.5-16.7
		c0,0,0,0,0,0c0,0,0,0,0,0C324.2,260.2,325.5,254.7,325.2,249.3"/>
</g>
</svg>
