<?xml version="1.0" encoding="utf-8"?>
<!-- Generator: Adobe Illustrator 21.1.0, SVG Export Plug-In . SVG Version: 6.00 Build 0)  -->
<svg version="1.1" id="Layer_1" xmlns="http://www.w3.org/2000/svg" xmlns:xlink="http://www.w3.org/1999/xlink" x="0px" y="0px"
	 viewBox="0 0 337 316" style="enable-background:new 0 0 337 316;" xml:space="preserve">
<style type="text/css">
	.st0{fill:#502419;}
	.st1{opacity:0.15;}
</style>
<g>
	<path class="st0" d="M69.6,260.9C33.9,232.8,0,179.8,10.5,123C25.2,43,121.1-8.6,202.3,8.5c61.9,13,121.5,67.2,125.9,136.5
		c3.8,60.2-36.2,101.5-41.7,106.9c-22.1,22.1-57.9,10-88.9,15.4C151.3,275.4,107.3,290.7,69.6,260.9z"/>
	<g class="st1">
		<path class="st0" d="M268.8,210.6c-22.1-0.8-38.1,5.1-43.6,6.7c-55.1,16.2-176.1-37.8-180.2-100.5c-1.3-20,9.2-40.6,13-48
			c11.9-23.2,28.8-37.5,37-44c1.5-1.2,4.3-3.4,7.9-6c-46,19-83.5,56.6-92.3,104.1C0,179.8,33.9,232.8,69.6,260.9
			c37.7,29.7,81.6,14.5,128,6.3c31-5.4,66.7,6.6,88.9-15.4c2.7-2.7,14.1-14.4,24.3-32.9C297.8,213.7,280.8,211.1,268.8,210.6z"/>
	</g>
	<path class="st0" d="M199.8,242c-18.2,3-79.3-22.8-101.6-22.7c-23.1,0-59.3,0.1-66.7,18.2c-6.7,16.3,13.3,39.5,25.8,50
		c28.2,23.8,73.2,30.4,106.1,15.2c20.6-9.5,21.8-20.8,44-25.8c18-4,22.2,2.2,51.6,0c21.3-1.6,40.4-3.3,48.5-16.7
		c4.2-6.9,5.2-16.5,1.5-24.3c-6.2-13.1-23.3-14.9-25.8-15.2c-15-1.6-22,6.5-42.5,13.6C231.8,237.5,218.1,241.2,199.8,242z"/>
	<g class="st1">
		<path class="st0" d="M259,276.8c21.3-1.6,40.4-3.3,48.5-16.7c2.7-4.4,4-9.9,3.7-15.3c-6.1,8.8-12.4,12.9-16.3,15
			c-17.7,9.3-33.3,4.4-84,4c-5.2,0-9.4,0-12,0c-1.1,0-3,0.2-5,1c-6.1,2.4-7.4,7.8-12.3,12.2c-1.5,1.3-4.1,2.5-12.7,5.8
			c-36.7,14-71.9,9.6-86,7c-13.8-2.5-24.9-6.5-33.9-10.3c2.9,3,5.7,5.7,8.3,7.8c28.2,23.8,73.2,30.4,106.1,15.2
			c20.6-9.5,21.8-20.8,44-25.8C225.4,272.8,229.6,279.1,259,276.8z"/>
	</g>
</g>
</svg>
