<?xml version="1.0" encoding="utf-8"?>
<!-- Generator: Adobe Illustrator 21.1.0, SVG Export Plug-In . SVG Version: 6.00 Build 0)  -->
<svg version="1.1" id="Layer_1" xmlns="http://www.w3.org/2000/svg" xmlns:xlink="http://www.w3.org/1999/xlink" x="0px" y="0px"
	 viewBox="0 0 365 325" style="enable-background:new 0 0 365 325;" xml:space="preserve">
<style type="text/css">
	.st0{fill:#FFFFFF;}
	.st1{fill:#F9F4DF;}
	.st2{fill:#EFDFA3;}
	.st3{fill:#502012;}
</style>
<g>
	<path class="st0" d="M281.4,266.9c35.7-28.2,69.6-81.2,59.1-138C325.8,49,229.9-2.7,148.7,14.4C86.8,27.4,27.1,81.6,22.8,150.9
		C19,211.1,59.1,252.3,64.5,257.8c14.6,14.6,35.2,14.2,56.4,13.9c10.9-0.2,21.9-0.3,32.4,1.5C199.7,281.3,243.7,296.6,281.4,266.9"
		/>
	<path class="st1" d="M22.8,150.8C22.8,150.8,22.8,150.8,22.8,150.8c-0.2,2.8-0.3,5.5-0.3,8.1C22.6,156.2,22.6,153.6,22.8,150.8
		C22.8,150.8,22.8,150.8,22.8,150.8 M22.8,150.7C22.8,150.7,22.8,150.7,22.8,150.7C22.8,150.7,22.8,150.7,22.8,150.7 M22.8,150.6
		C22.8,150.6,22.8,150.6,22.8,150.6C22.8,150.6,22.8,150.6,22.8,150.6 M22.8,150.5C22.8,150.5,22.8,150.5,22.8,150.5
		C22.8,150.5,22.8,150.5,22.8,150.5 M22.8,150.4C22.8,150.4,22.8,150.4,22.8,150.4C22.8,150.4,22.8,150.4,22.8,150.4 M22.9,150.3
		C22.9,150.3,22.9,150.3,22.9,150.3C22.9,150.3,22.9,150.3,22.9,150.3 M22.9,150.2C22.9,150.2,22.9,150.2,22.9,150.2
		C22.9,150.2,22.9,150.2,22.9,150.2 M22.9,150.1C22.9,150.1,22.9,150.1,22.9,150.1C22.9,150.1,22.9,150.1,22.9,150.1 M22.9,150
		C22.9,150,22.9,150,22.9,150C22.9,150,22.9,150,22.9,150 M22.9,149.9C22.9,149.9,22.9,149.9,22.9,149.9
		C22.9,149.9,22.9,149.9,22.9,149.9 M22.9,149.8C22.9,149.8,22.9,149.8,22.9,149.8C22.9,149.8,22.9,149.8,22.9,149.8 M22.9,149.7
		C22.9,149.7,22.9,149.7,22.9,149.7C22.9,149.7,22.9,149.7,22.9,149.7 M22.9,149.6C22.9,149.6,22.9,149.6,22.9,149.6
		C22.9,149.6,22.9,149.6,22.9,149.6 M22.9,149.5C22.9,149.5,22.9,149.5,22.9,149.5C22.9,149.5,22.9,149.5,22.9,149.5 M22.9,149.4
		C22.9,149.4,22.9,149.4,22.9,149.4C22.9,149.4,22.9,149.4,22.9,149.4 M22.9,149.3C22.9,149.3,22.9,149.3,22.9,149.3
		C22.9,149.3,22.9,149.3,22.9,149.3 M22.9,149.2C22.9,149.2,22.9,149.2,22.9,149.2C22.9,149.2,22.9,149.2,22.9,149.2 M22.9,149.1
		C22.9,149.1,22.9,149.1,22.9,149.1C22.9,149.1,22.9,149.1,22.9,149.1 M22.9,149C22.9,149,22.9,149,22.9,149
		C22.9,149,22.9,149,22.9,149 M23,148.9C23,148.9,23,148.9,23,148.9C23,148.9,23,148.9,23,148.9 M23,148.8
		C23,148.8,23,148.8,23,148.8C23,148.8,23,148.8,23,148.8 M23,148.7C23,148.7,23,148.7,23,148.7C23,148.7,23,148.7,23,148.7
		 M23,148.6C23,148.6,23,148.6,23,148.6C23,148.6,23,148.6,23,148.6 M23,148.5C23,148.5,23,148.5,23,148.5
		C23,148.5,23,148.5,23,148.5 M23,148.4C23,148.4,23,148.4,23,148.4C23,148.4,23,148.4,23,148.4 M23,148.3
		C23,148.3,23,148.3,23,148.3C23,148.3,23,148.3,23,148.3 M23,148.2C23,148.2,23,148.2,23,148.2C23,148.2,23,148.2,23,148.2 M23,148
		C23,148,23,148,23,148C23,148,23,148,23,148 M23,147.9C23,147.9,23,147.9,23,147.9C23,147.9,23,147.9,23,147.9 M23,147.8
		C23,147.8,23,147.8,23,147.8C23,147.8,23,147.8,23,147.8 M23.1,147.5C23.1,147.5,23.1,147.5,23.1,147.5
		C23.1,147.5,23.1,147.5,23.1,147.5 M23.1,147.4L23.1,147.4C23.1,147.4,23.1,147.4,23.1,147.4"/>
	<path class="st1" d="M115.7,25.3C68.1,47,28,92.2,23.1,147.4c0,0,0,0,0,0c0,0,0,0,0,0.1c0,0,0,0,0,0c0,0.1,0,0.2,0,0.3c0,0,0,0,0,0
		c0,0,0,0,0,0.1c0,0,0,0,0,0c0,0,0,0,0,0.1c0,0,0,0,0,0c0,0.1,0,0.1,0,0.2c0,0,0,0,0,0c0,0,0,0,0,0.1c0,0,0,0,0,0c0,0,0,0,0,0.1
		c0,0,0,0,0,0c0,0,0,0,0,0.1c0,0,0,0,0,0c0,0,0,0.1,0,0.1c0,0,0,0,0,0c0,0,0,0,0,0c0,0,0,0,0,0c0,0,0,0,0,0c0,0,0,0,0,0c0,0,0,0,0,0
		c0,0,0,0,0,0c0,0,0,0,0,0c0,0,0,0.1,0,0.1c0,0,0,0,0,0c0,0,0,0,0,0.1c0,0,0,0,0,0c0,0,0,0,0,0.1c0,0,0,0,0,0c0,0,0,0,0,0.1
		c0,0,0,0,0,0c0,0,0,0,0,0.1c0,0,0,0,0,0c0,0,0,0.1,0,0.1c0,0,0,0,0,0c0,0,0,0,0,0.1c0,0,0,0,0,0c0,0,0,0,0,0.1c0,0,0,0,0,0
		c0,0,0,0,0,0.1c0,0,0,0,0,0c0,0,0,0.1,0,0.1c0,0,0,0,0,0c0,0,0,0.1,0,0.1c0,0,0,0,0,0c0,0,0,0,0,0.1c0,0,0,0,0,0c0,0,0,0,0,0.1
		c0,0,0,0,0,0c0,0,0,0,0,0.1c0,0,0,0,0,0c0,0,0,0.1,0,0.1c0,0,0,0,0,0c0,0,0,0,0,0.1c0,0,0,0,0,0c0,0,0,0,0,0.1c0,0,0,0,0,0
		c0,0,0,0,0,0.1c0,0,0,0,0,0c0,0,0,0.1,0,0.1c-0.2,2.7-0.3,5.4-0.2,8c0,30.6,11,55.8,21.9,73.2c7.8-6.1,18.2-7.2,20.2-7.4
		c1.4-0.1,2.6-0.2,3.9-0.2c12.9,0,20.6,7.3,39.8,13.9c9.3,3.2,23.4,6.9,42.1,7.6c1,0.2,2.2,0.2,3.5,0.2c11,0,30.8-5.7,50.6-11.5
		c19.8-5.7,39.5-11.5,50.4-11.5c0,0,0,0,0.1,0c18.4,0,45,0.1,59.5,8.5c0.7-1.1,1.5-2.1,2.2-3.2c-18.7-9.8-35.1-13.8-48.3-15.4
		c-5.3-0.6-10.3-0.9-15.1-0.9c-17.8,0-32.8,3.8-47.3,7.6c-14.5,3.8-28.5,7.6-44.2,7.6c-9,0-18.6-1.2-29.1-4.4
		c-8.5-2.6-35.4-11.1-54.6-36.4c-24.3-31.9-25.6-76-12.1-107.7C78,50.9,100.1,35.5,115.7,25.3"/>
	<path class="st2" d="M203.9,201.9c-11.4,3.7-21.8,15-21,26c1.5,21.3,43.8,28,46,24c1.6-2.9-17-11-16-23c1-11.6,19.4-15.6,18-22
		C229.8,201.5,215.4,198.1,203.9,201.9z"/>
	<path class="st2" d="M90.9,45.3c2.3,8.6,18.7,14.3,30.2,9.6c15.9-6.5,20.7-31.9,13.8-38c-5.3-4.7-18.2,1.3-26,5
		c-10.5,4.9-13.9,10.1-15,12C92.4,36.4,89.7,40.9,90.9,45.3z"/>
	<path class="st2" d="M238.9,46.4c-15.8-8.5-39.4,1.1-41,11.5c-1.4,9.1,13.9,19.8,27.1,22.9c1,0.2,22.1,4.9,28-5.2
		C257.9,67.1,249.8,52.2,238.9,46.4z"/>
	<path class="st2" d="M252.9,166.9c0.2,8,31.5,22.4,47,9c11.5-10,10.9-32.3,4-36c-3.2-1.7-6.4,1.3-22,10
		C258.7,162.8,252.8,163.4,252.9,166.9z"/>
	<path class="st2" d="M53.9,136.9c-9.6,7.2-8.5,26,0,37c9.9,12.8,31.2,17.2,40,8c7.5-7.9,3.8-23.7-3-33
		C82.4,137.3,64,129.2,53.9,136.9z"/>
	<path class="st0" d="M150.4,245.9c9.9,1.6,32-4.8,54.1-11.2c19.8-5.8,39.6-11.5,50.5-11.5c23.8,0,61,0.1,68.7,18.2
		c6.9,16.3-13.7,39.5-26.5,50c-29,23.8-75.4,22.4-109.3,7.2c-21.2-9.5-22.5-12.8-45.3-17.8c-10.1-2.2-16-1.3-24.3-0.4
		c-6.8,0.7-15.2,1.5-28.8,0.4c-22-1.6-41.6-3.3-50-16.7c-4.3-6.9-5.4-16.5-1.6-24.3c6.4-13.1,24-14.9,26.5-15.2
		c15.5-1.6,22.6,6.5,43.7,13.6C117.6,241.5,131.7,245.2,150.4,245.9"/>
	<path class="st1" d="M240.1,309.7L240.1,309.7L240.1,309.7L240.1,309.7 M187.9,298.5c0.1,0,0.2,0.1,0.2,0.1
		C188.1,298.6,188,298.6,187.9,298.5 M297.2,291.4c-15.6,12.8-36.2,18.3-57.1,18.3C261,309.7,281.6,304.2,297.2,291.4 M297.2,291.3
		C297.2,291.4,297.2,291.4,297.2,291.3C297.2,291.4,297.2,291.4,297.2,291.3 M297.2,291.3C297.2,291.3,297.2,291.3,297.2,291.3
		C297.2,291.3,297.2,291.3,297.2,291.3 M297.3,291.3C297.3,291.3,297.3,291.3,297.3,291.3C297.3,291.3,297.3,291.3,297.3,291.3
		 M297.3,291.3C297.3,291.3,297.3,291.3,297.3,291.3C297.3,291.3,297.3,291.3,297.3,291.3 M297.4,291.2L297.4,291.2L297.4,291.2
		 M102.2,281.3C102.2,281.3,102.2,281.3,102.2,281.3L102.2,281.3C102.2,281.3,102.2,281.3,102.2,281.3 M90,280.8
		C90.1,280.8,90.1,280.8,90,280.8C90.1,280.8,90.1,280.8,90,280.8 M89.7,280.8c0.1,0,0.2,0,0.2,0C89.9,280.8,89.8,280.8,89.7,280.8
		 M89.7,280.8C89.7,280.8,89.7,280.8,89.7,280.8C89.7,280.8,89.7,280.8,89.7,280.8 M142.6,280.7
		C142.6,280.8,142.6,280.8,142.6,280.7C142.6,280.8,142.6,280.8,142.6,280.7 M142.3,280.7c0.1,0,0.1,0,0.2,0
		C142.5,280.7,142.4,280.7,142.3,280.7 M118.1,280.3c-4.3,0.5-9.3,0.9-15.9,0.9C108.8,281.3,113.8,280.8,118.1,280.3 M118.2,280.3
		c0,0-0.1,0-0.1,0C118.2,280.3,118.2,280.3,118.2,280.3 M130.6,279.4c-4.1,0-7.8,0.5-12.2,0.9C122.8,279.8,126.5,279.4,130.6,279.4
		 M130.6,279.4L130.6,279.4C130.6,279.4,130.6,279.4,130.6,279.4C130.6,279.4,130.6,279.4,130.6,279.4 M38,239.8L38,239.8
		c-1.6,3.2-2.3,6.8-2.3,10.4C35.7,246.6,36.5,243.1,38,239.8L38,239.8"/>
	<path class="st1" d="M38.4,239.1c-0.1,0.2-0.3,0.5-0.4,0.7l0,0c-1.6,3.2-2.3,6.8-2.3,10.4c0,4.9,1.4,9.9,3.9,13.9
		c8.3,13.3,28,15.1,50,16.7c0,0,0.1,0,0.1,0c0,0,0,0,0,0c0,0,0,0,0.1,0c0.1,0,0.2,0,0.2,0c0,0,0,0,0,0c0,0,0.1,0,0.1,0
		c4.6,0.3,8.5,0.5,12.1,0.5c0,0,0,0,0,0c0,0,0,0,0,0c6.6,0,11.6-0.5,15.9-0.9c0,0,0,0,0,0c0,0,0.1,0,0.1,0c0,0,0.1,0,0.1,0l0,0
		c4.4-0.5,8.1-0.9,12.2-0.9c0,0,0,0,0,0l0,0l0,0c0,0,0,0,0,0c3.5,0,7.2,0.3,11.8,1.3c0.1,0,0.1,0,0.2,0c0,0,0,0,0,0c0,0,0,0,0.1,0
		l0,0c22.8,5,24.1,8.3,45.3,17.8l0,0c0.1,0,0.2,0.1,0.2,0.1c15.6,7,33.9,11,51.9,11h0h0c21,0,41.6-5.5,57.1-18.3l0,0c0,0,0,0,0,0
		c0,0,0,0,0,0c0,0,0,0,0,0c0,0,0,0,0,0c0,0,0,0,0,0c0,0,0,0,0,0c0,0,0,0,0,0c0,0,0,0,0,0c0,0,0,0,0.1,0l0,0
		c5-4.2,11.2-10.2,16.5-17.1c-17.3,10-32,13.7-32,13.7c-10.7,2.7-24.6,6.3-42.4,6.3c-2.8,0-5.6-0.1-8.6-0.3
		c-17.4-1.1-38.1-2.4-58-15c-8.4-5.3-17.4-13.1-29.6-13.1c-0.8,0-1.6,0-2.4,0.1c-5.6,0.5-8.8,2.3-13,4c-8.6,3.5-17.6,4.9-26.4,4.9
		c-18.9,0-36.7-6.5-46.6-12.9c-3.9-2.5-11.5-7.6-15-17C39,242.5,38.6,240.4,38.4,239.1"/>
	<path class="st2" d="M230.9,269.9c-9.8-9.4-34.3-5.9-38,4c-2.5,6.8,5.1,15.4,11,22c5.1,5.8,15.5,17.4,31,18
		c11.9,0.5,24.1-5.5,24-10c-0.1-4-10.2-3.1-18-12C233.2,283.2,237.2,275.9,230.9,269.9z"/>
	<path class="st2" d="M77.8,232c-4.3,3.7-6.4,11.6-3.3,16.7c4.2,7,15.6,5.4,18.4,5c8.1-1.1,18.6-6.3,18.4-11.7
		C110.9,234.1,87.6,223.5,77.8,232z"/>
	<path class="st3" d="M62.7,154.9c-4.4,0.9-7,5.8-6.8,10c0.3,4.8,4.3,9.8,9.4,9.5c5.1-0.3,8.7-5.8,8.1-10.8
		C72.9,158.5,67.7,153.9,62.7,154.9z"/>
	<path class="st3" d="M157.1,104.8c-6.4-2.6-15,1.6-15.7,6.7c-0.6,4.3,4.6,8.6,8.9,10.1c4.3,1.5,11.3,1.6,13.7-2.5
		C166.5,114.7,162.8,107.1,157.1,104.8z"/>
	<path class="st3" d="M301.2,100.2c-1.7,2.8-0.8,6.5,0.8,8.7c3.5,4.8,12.4,5.4,15.1,1.6c2.4-3.4,0.2-10.4-4.8-12.7
		C308.8,96.1,303.4,96.6,301.2,100.2z"/>
	<path class="st3" d="M250.4,253c-0.5,5,5.4,10,11.2,10.5c6.7,0.7,14.1-4.5,13.8-9.8c-0.2-4.5-6.1-7.9-10.8-8.5
		C258.6,244.5,250.9,247.7,250.4,253z"/>
	<path class="st3" d="M227.9,72.9c2.4,3.7,8.4,5.7,13,3c4.2-2.5,5.4-7.8,4-12c-1.5-4.4-6-7.5-10-7C228.7,57.7,224.2,67.2,227.9,72.9
		z"/>
</g>
</svg>
