<?xml version="1.0" encoding="utf-8"?>
<!-- Generator: Adobe Illustrator 21.1.0, SVG Export Plug-In . SVG Version: 6.00 Build 0)  -->
<svg version="1.1" id="Layer_1" xmlns="http://www.w3.org/2000/svg" xmlns:xlink="http://www.w3.org/1999/xlink" x="0px" y="0px"
	 viewBox="0 0 365 210" style="enable-background:new 0 0 365 210;" xml:space="preserve">
<style type="text/css">
	.st0{fill:#CBBE7A;}
	.st1{fill:#502012;}
	.st2{fill:#EFEBD7;}
	.st3{fill:#BFB067;}
	.st4{fill:#4B1E0F;}
	.st5{fill:#EFDFA3;}
	.st6{fill:#FAF5E3;}
	.st7{fill:#EAD791;}
	.st8{fill:#2D0E06;}
	.st9{fill:#080100;}
	.st10{fill:#010000;}
	.st11{fill:#AB9F9B;}
	.st12{fill:#1E0904;}
	.st13{fill:#050100;}
	.st14{fill:#E0CE89;}
	.st15{fill:#050000;}
	.st16{fill:#FFFFFF;}
	.st17{fill:#D8CA88;}
	.st18{fill:#F9F4DF;}
</style>
<g>
	<path class="st0" d="M178.9,15.9c-2.4-0.2-9-0.7-15.4,2.6c-8.8,4.5-11.9,13.2-15.4,23.1c-3.4,9.4-6.2,17.5-2.6,25.7
		c0.7,1.6,3.9,8.8,10.3,10.3c9.4,2.2,21.8-9,23.1-10.3c2.5-2.3,4.3-4.6,7.7-5.1c4-0.6,5.9,1.8,10.3,2.6c7.6,1.3,14.4-4.3,15.4-5.1
		C219,54.1,223,44,220,36.4c-1.5-3.8-9.6-7.7-25.7-15.4C187.3,17.6,183.8,16.2,178.9,15.9"/>
	<path class="st1" d="M198.2,40.3c-8.5,0-13.9,9.4-15.4,15.4c-0.6,2.5-1.3,5.2,0,7.7c2.8,5.4,13.6,7.3,20.6,2.6
		c6.5-4.4,9.4-14.4,5.1-20.6C206.1,41.9,201.8,40.3,198.2,40.3"/>
	<path class="st2" d="M212.4,59.5C212.3,59.5,212.3,59.5,212.4,59.5C212.3,59.5,212.3,59.5,212.4,59.5 M212.4,59.5
		C212.4,59.5,212.4,59.5,212.4,59.5C212.4,59.5,212.4,59.5,212.4,59.5 M212.4,59.5C212.4,59.5,212.4,59.5,212.4,59.5
		C212.4,59.5,212.4,59.5,212.4,59.5 M213.1,58.9c-0.2,0.2-0.5,0.4-0.7,0.6C212.6,59.3,212.9,59.1,213.1,58.9 M213.1,58.9
		C213.1,58.9,213.1,58.9,213.1,58.9C213.1,58.9,213.1,58.9,213.1,58.9 M213.1,58.9C213.1,58.9,213.1,58.9,213.1,58.9
		C213.1,58.9,213.1,58.9,213.1,58.9 M213.2,58.8C213.2,58.8,213.1,58.8,213.2,58.8C213.1,58.8,213.2,58.8,213.2,58.8 M213.2,58.8
		C213.2,58.8,213.2,58.8,213.2,58.8C213.2,58.8,213.2,58.8,213.2,58.8"/>
	<path class="st3" d="M199.3,29.2c-5.8,0-10.7,1.5-12.7,2.1c-2.7,0.8-6.5,2-10.3,5.1c-3.1,2.5-5.1,5.4-10.3,18
		c-1.6,3.9-2.8,6.9-3.7,9.4c3.8,1.3,6.9,2.2,8.8,6c0.4,0.8,0.8,1.7,1,2.7c3.5-2.4,6.1-4.7,6.7-5.3c1.4-1.3,2.6-2.6,4-3.6
		c0-0.1-0.1-0.2-0.1-0.3c-1.3-2.5-0.6-5.2,0-7.7c1.5-6.1,6.9-15.4,15.4-15.4c0,0,0,0,0.1,0c3.6,0,7.8,1.7,10.2,5.1
		c3.5,5.1,2.2,12.8-2.1,17.8c3.2-1.4,5.4-3.3,6-3.7l0,0c0,0,0,0,0,0c0,0,0,0,0,0c0,0,0,0,0,0c0,0,0,0,0,0c0,0,0,0,0,0l0,0
		c0.2-0.2,0.5-0.4,0.7-0.6c0,0,0,0,0,0c0,0,0,0,0,0c0,0,0,0,0,0c0,0,0,0,0,0c0,0,0,0,0,0c0,0,0,0,0,0c0,0,0,0,0,0c0,0,0,0,0,0
		c5.4-4.9,8.8-12.9,7.6-19.7c-2.4-2.8-5-4.6-5.9-5.3C209.8,30.2,204.2,29.2,199.3,29.2"/>
	<path class="st4" d="M198.3,40.3C198.2,40.3,198.2,40.3,198.3,40.3c-8.6,0-13.9,9.4-15.5,15.4c-0.6,2.5-1.3,5.2,0,7.7
		c0,0.1,0.1,0.2,0.1,0.3c1.1-0.7,2.2-1.3,3.7-1.5c0.5-0.1,0.9-0.1,1.3-0.1c3.2,0,5.1,2,9,2.7c0.8,0.1,1.5,0.2,2.3,0.2
		c2.6,0,5.1-0.7,7.2-1.6c4.3-5,5.7-12.7,2.1-17.8C206.1,42,201.9,40.3,198.3,40.3"/>
	<path class="st0" d="M83.8,154.7c-2.3,0.3-3,2.3-7.7,5.1c-3,1.8-3.1,1.3-5.1,2.6c-0.5,0.3-7.5,5.1-7.7,12.9c0,1.4-0.1,6.1,2.6,7.7
		c2.8,1.7,5.5-1.8,12.9-2.6c6.3-0.7,7.5,1.5,10.3,0c5.2-2.8,7.1-13.8,2.6-20.6C91.2,159.3,87.7,154.2,83.8,154.7z"/>
	<path class="st5" d="M15.2,122.6c0.6,6.3,10.8,9.3,12.2,9.7c2.1,0.6,6.3,1.8,11.5,0.5c6.9-1.8,14.3-7.9,14.5-15.5
		c0-0.9,0.1-4.1-2-7c-5-7-16.9-4.5-18.2-4.2c-7.1,1.5-11.4,5.8-13,7.5C17.5,116.4,14.8,119.2,15.2,122.6"/>
	<path class="st6" d="M26.4,132c0.1,0,0.3,0.1,0.4,0.1C26.7,132.1,26.6,132.1,26.4,132 M53.4,117.2
		C53.4,117.3,53.4,117.3,53.4,117.2C53.4,117.3,53.4,117.3,53.4,117.2"/>
	<path class="st7" d="M52.4,112.1c-1.3,1.8-3.3,4.4-6,7.2c-5.5,5.7-8,8.7-10.7,8.7c0,0,0,0,0,0c-4.3,0-5-5.4-11.2-6.2
		c-0.5-0.1-1.1-0.1-1.7-0.1c-2,0-4.5,0.5-5.3,2.1c-0.6,1.2-0.1,2.5,0.2,3.4c2.1,1.7,5,3.6,8.8,4.8c0.1,0,0.3,0.1,0.4,0.1
		c0,0,0.1,0,0.1,0c0.2,0.1,0.4,0.1,0.5,0.1c1.4,0.4,3.8,1.1,6.7,1.1c1.5,0,3.1-0.2,4.7-0.6c6.9-1.8,14.3-7.9,14.5-15.5l0,0
		c0,0,0-0.1,0-0.1C53.4,116.4,53.4,114.3,52.4,112.1"/>
	<path class="st5" d="M127.5,18.4c-4-2.1-9.1-1.8-12.9,0c-4.8,2.3-5.2,6.1-10.3,15.4c-7.1,13-16.7,24.2-18,25.7
		c-5.8,6.7-7.6,7.4-7.7,10.3c-0.4,6.4,7.6,11.3,23.1,20.6c15.4,9.2,23.2,13.8,33.4,12.9c3.9-0.4,8.7-1.5,12.9-2.6
		c8.4-2.1,12.7-3.1,15.4-5.1c7.4-5.4,11.8-17.9,7.7-25.7c-3.7-7.1-11-3.9-20.6-12.9c-5.8-5.4-8.8-11.9-12.9-20.6
		C132.9,26,132.7,21.1,127.5,18.4"/>
	<path class="st7" d="M172,71.6c-1.9,1.5-4.4,3.7-8.5,5.9c-9.2,4.9-17.9,5.1-23.1,5.1c-0.3,0-0.6,0-0.9,0c-1.6,0-3.4-0.1-5.1-0.2
		c-0.1,0.6-0.3,1.1-0.4,1.5c-1.1,3.7-1.5,7.6-1.5,11.6c0,2.6,0.2,5.2,0.4,7.8c0.8,0,1.5,0,2.3-0.1c3.9-0.4,8.7-1.5,12.9-2.6
		c8.4-2.1,12.7-3.1,15.4-5.1C170.4,90.5,174.6,79.5,172,71.6 M115.5,18.1c-0.3,0.1-0.5,0.2-0.8,0.3l0,0c-4.8,2.3-5.2,6.1-10.3,15.4
		c-7.1,13-16.7,24.2-18,25.7c-5.8,6.7-7.6,7.4-7.7,10.3c0,0.1,0,0.3,0,0.4c0,3.3,2.2,6.2,6.6,9.6c1.4-1.5,3-2.8,5-3.5
		c1.3-0.5,2.4-0.7,3.4-0.7c1.4,0,2.7,0.3,4.1,0.7c1.3,0.3,2.7,0.7,4.2,0.7c1.1,0,2.3-0.2,3.7-0.7c1-0.3,1.7-0.8,2.4-1.2
		c-4.6-2.7-7.9-6.2-8.8-10.4c-1.4-6.3,4.2-7.5,10.3-23.1C113.9,30.2,113.9,23.5,115.5,18.1"/>
	<path class="st8" d="M164.1,158.6c5.5,8.4,13.6,6.7,25.1,15.1c8.9,6.4,6,8.8,13.7,14c15.6,10.5,34.3,5.6,37.7,4.7
		c5.6-1.5,15.3-4,15.9-8.9c0.9-7.9-22.8-16.5-29.4-19c-20.7-7.6-24-3.1-42.8-11c-12-5.1-19.5-10.6-22.3-7.9
		C159.6,147.8,161.3,154.2,164.1,158.6"/>
	<path class="st9" d="M235.1,175.5c-0.7,0-1.5,0-2.2,0.1c-1.1,0.1-2.2,0.2-3.2,0.5c-1.1,0.3-2.1,0.5-3.2,0.7
		c-2.2,0.3-4.4,0.6-6.6,0.8c-1.2,0.1-2.4,0.2-3.6,0.3c0.4,0.5,0.8,0.9,1.2,1.4c0.8,0.1,1.6,0.2,2.4,0.3c2.2,0.3,4.3,0.4,6.5,0.4
		c0.1,0,0.2,0,0.3,0l3.5,0c0.2,0,0.5,0,0.7,0c0-0.3-0.1-0.6-0.1-0.9l0.3-0.3c0.1,0,0.3,0,0.4,0c0.6,0,1.2,0.2,1.7,0.4
		c0.2,0.1,0.4,0.2,0.6,0.3c1.1-0.3,2.1-0.7,3.1-1.2c0.5-0.2,1-0.5,1.4-0.8c-0.6-0.3-1.3-0.6-1.9-0.9l0-0.4c0.2,0,0.4,0,0.7,0
		c0.9,0,1.7,0.1,2.6,0.3c0.1-0.1,0.1-0.1,0.2-0.2l-0.1-0.4c-1.2-0.3-2.4-0.4-3.5-0.4C235.8,175.6,235.4,175.5,235.1,175.5"/>
	<path class="st9" d="M239.6,176.5c-0.4,0.4-0.9,0.7-1.4,1c0.6,0.3,1.2,0.7,1.8,1.1c1.1,0.8,2,1.7,2.7,2.8c0.2,0.3,0.3,0.5,0.4,0.8
		c0.1,0.3,0.2,0.6,0.3,0.9c0.2,0.6,0.4,1.1,0.7,1.6c0.6,1.1,1.1,2.2,2.1,3.7l0.4,0c1.3-1.3,1.6-3.2,1.4-4.9c-0.1-0.9-0.5-1.7-1-2.4
		c-0.5-0.7-1.2-1.3-1.8-1.9c-0.6-0.6-1.3-1.1-2-1.5c-0.7-0.4-1.5-0.7-2.2-1C240.5,176.7,240.1,176.6,239.6,176.5"/>
	<path class="st10" d="M237.1,176.2c-0.2,0-0.4,0-0.7,0l0,0.4c0.7,0.3,1.3,0.5,1.9,0.9c0.5-0.3,0.9-0.6,1.4-1
		C238.8,176.4,237.9,176.2,237.1,176.2"/>
	<path class="st9" d="M233.7,179.5c-0.1,0-0.1,0-0.2,0.1c-0.9,0.2-1.8,0.4-2.7,0.5c0.1,0.4,0.1,0.7,0.2,1c0.1,0.5,0.2,1,0.4,1.5
		c0.1,0.4,0.3,0.8,0.6,1.2c0.3,0.4,0.6,0.7,0.8,1.2c0.2,0.4,0.4,0.9,0.5,1.4c0.1,0.5,0.3,1,0.3,1.5c0.2,1,0.2,2.1,0.1,3.2l0.4,0.1
		c0.7-0.9,1.2-2,1.5-3.2c0.3-1.2,0.4-2.5,0.3-3.7c-0.1-0.6-0.1-1.3-0.3-2c-0.1-0.7-0.5-1.3-0.9-1.8
		C234.4,180,234.1,179.7,233.7,179.5"/>
	<path class="st10" d="M231.4,178.8c-0.1,0-0.3,0-0.4,0l-0.3,0.3c0,0.3,0.1,0.6,0.1,0.9c0.9-0.1,1.8-0.2,2.7-0.5
		c0.1,0,0.1,0,0.2-0.1c-0.2-0.1-0.4-0.2-0.6-0.3C232.6,178.9,232,178.8,231.4,178.8"/>
	<path class="st9" d="M220.1,180h-0.4c-0.4,0.3-0.7,0.7-1,1c1.1,1.5,2,3,2.7,4.6c0,0,0-0.1,0-0.1c0.2-0.9,0.7-1.8,0.4-2.8
		c-0.1-0.5-0.3-0.9-0.6-1.4C221,180.9,220.6,180.4,220.1,180"/>
	<path class="st11" d="M202.9,187.7C202.9,187.7,202.9,187.7,202.9,187.7L202.9,187.7 M161.9,145.6
		C161.9,145.6,161.9,145.6,161.9,145.6c-0.8,0.7-1.1,1.9-1.1,3.2C160.8,147.5,161.1,146.3,161.9,145.6
		C161.9,145.6,161.9,145.6,161.9,145.6 M161.9,145.6C161.9,145.6,161.9,145.6,161.9,145.6C161.9,145.6,161.9,145.6,161.9,145.6"/>
	<path class="st12" d="M163.9,144.9c-0.8,0-1.5,0.2-2,0.7c0,0,0,0,0,0c0,0,0,0,0,0c0,0,0,0,0,0c-0.7,0.7-1.1,1.9-1.1,3.2
		c0,2.9,1.4,6.8,3.3,9.7c5.5,8.4,13.6,6.7,25.1,15.1c8.9,6.4,6,8.8,13.7,14c0,0,0,0,0,0l0,0c6.9,4.6,14.3,6.3,20.8,6.6
		c0-2.5-0.8-5.6-2.3-8.7c-0.2,0.9-0.4,1.8-0.6,2.7c-0.2,0.9-0.5,1.8-0.8,2.7h-0.4c-0.3-0.9-0.6-1.8-0.8-2.7
		c-0.2-0.9-0.4-1.8-0.6-2.7c-0.2-0.9-0.7-1.8-0.4-2.8c0.1-0.5,0.3-0.9,0.6-1.4c0.1-0.1,0.2-0.2,0.2-0.4c-0.4-0.6-0.8-1.1-1.3-1.7
		c-1.5-0.2-2.9-0.5-4.4-0.9l0-0.4c1.1,0,2.1-0.1,3.1-0.1c-1.9-2.1-4.1-3.9-6.4-5.2c-5.5-3.2-7.2-1.2-18-5.1c-8-3-13.7-5.1-18-10.3
		c-3.1-3.7-4.2-7.6-4.9-10.8C166.9,145.5,165.2,144.9,163.9,144.9"/>
	<path class="st13" d="M216.2,177.9c-1,0.1-2.1,0.1-3.1,0.1l0,0.4c1.4,0.4,2.9,0.6,4.4,0.9C217,178.8,216.6,178.4,216.2,177.9"/>
	<path class="st13" d="M218.7,181c-0.1,0.1-0.2,0.2-0.2,0.4c-0.3,0.5-0.5,0.9-0.6,1.4c-0.3,0.9,0.2,1.8,0.4,2.8
		c0.2,0.9,0.4,1.8,0.6,2.7c0.2,0.9,0.5,1.8,0.8,2.7h0.4c0.3-0.9,0.6-1.8,0.8-2.7c0.2-0.9,0.4-1.8,0.6-2.7
		C220.7,184,219.8,182.5,218.7,181"/>
	<path class="st0" d="M115.9,68.5c-5.2,1.7-4.7,5.7-10.3,7.7c-3.3,1.2-5.6,0.6-7.9,0c-2.3-0.6-4.5-1.2-7.5,0
		C84.1,78.7,81.2,86,80,89.1c-2,5.1-0.6,5.8-2.6,10.3c-3,6.8-6.9,7-10.3,12.9c-3.5,6-3,12.2-2.6,18c0.5,6.5,1.3,17.6,7.7,20.6
		c2.6,1.2,4.9,0.4,23.1-7.7c14-6.3,16.2-7.4,20.6-7.7c4.8-0.3,8.1,0.6,10.6,1.6c3.2,1.2,5.2,2.4,7.4,1c8.7-5.4-5.9-33.1,0-54
		c0.3-1.2,1.3-4.4,0-7.7C131.6,70.4,122.6,66.4,115.9,68.5"/>
	<path class="st14" d="M133.9,76.2C133.9,76.3,133.9,76.3,133.9,76.2c0.5,1.3,0.7,2.5,0.7,3.6C134.6,78.7,134.4,77.5,133.9,76.2
		C133.9,76.3,133.9,76.3,133.9,76.2"/>
	<path class="st2" d="M64.5,130.2C64.5,130.2,64.5,130.2,64.5,130.2C64.5,130.2,64.5,130.2,64.5,130.2"/>
	<path class="st3" d="M133.7,75.7c-5.4,2.5-11.2,10.3-11.3,17.2c-0.1,5,2.6,10.4,5.1,15.4c2.4,4.8,3.8,5.9,5.1,10.3
		c0.7,2.2,3.2,10.2,0,12.9c-0.7,0.6-1.6,0.8-2.6,0.8c-1.4,0-3.2-0.5-5.1-0.8c-2.9-0.6-5.5-0.8-8.3-0.8c-3.4,0-7.1,0.3-12.3,0.8
		c-5.6,0.5-13.7,1.2-23.1,5.1c-4,1.7-5.2,2.7-6.9,2.7c-0.3,0-0.5,0-0.9-0.1c-3.5-0.6-6.9-4.4-9-9.3c0,0.1,0,0.2,0,0.3c0,0,0,0,0,0.1
		l0,0c0.5,6.5,1.3,17.6,7.7,20.6c0.6,0.3,1.2,0.5,2,0.5c2.6,0,7.2-1.9,21.2-8.2c14-6.3,16.2-7.4,20.6-7.7c0.7,0,1.3-0.1,1.9-0.1
		c3.8,0,6.5,0.8,8.7,1.6c2.2,0.8,3.8,1.6,5.3,1.6c0.7,0,1.4-0.2,2.1-0.6c2.1-1.3,2.8-3.9,2.8-7.4c0-8.4-4.3-22-4.3-35
		c0-4,0.4-7.9,1.5-11.6c0.2-0.8,0.7-2.3,0.7-4.1c0-1.1-0.2-2.4-0.7-3.6c0,0,0,0,0,0C133.9,76.1,133.8,75.9,133.7,75.7"/>
	<path class="st1" d="M115.9,112.2c-0.3-3.1-2.2-6.2-5.1-7.7c-4.9-2.5-10.4,1-12.9,2.6c-2.2,1.4-8.4,5.3-7.7,10.3
		c0.6,4.8,7.4,8.1,12.9,7.7C109.8,124.6,116.5,118.5,115.9,112.2z"/>
	<path class="st0" d="M118.5,150.8c-3.8-2.1-4.4-5-7.7-5.1c-3.4-0.1-6.3,2.8-7.7,5.1c-3,5.1-0.7,11,0,12.9
		c2.8,7.1,8.9,10.6,12.9,12.9c3.1,1.8,10.6,5.9,20.6,5.1c1.1-0.1,20.9-1.7,23.1-12.9c1.2-5.9-3-12.4-7.7-15.4
		c-4-2.6-8.2-2.6-15.4-2.6C126.2,150.8,123.3,153.4,118.5,150.8"/>
	<path class="st3" d="M105,154.6c-0.2,0-0.4,0-0.6,0.1c-1,0.2-2,1-2.8,2.2c0,3,1.1,5.7,1.5,6.8c2.8,7.1,8.9,10.6,12.9,12.9
		c2.9,1.6,9.4,5.2,18.2,5.2c0.8,0,1.5,0,2.3-0.1c1.1-0.1,20.9-1.7,23.1-12.9c0.2-0.8,0.2-1.6,0.2-2.5c-0.4,1.8-1.2,3.6-2.7,5
		c-1.3,1.2-3.1,2.2-15.4,2.6c-3.8,0.1-7,0.2-9.6,0.2c-4.9,0-7.9-0.3-9.6-1.5c-4.1-2.7-3.2-5.5-10.3-12.9
		C109.1,156.7,107,154.6,105,154.6"/>
	<path class="st2" d="M119,151.1C119,151.1,119.1,151.1,119,151.1c1.4,0.7,2.6,0.9,4,0.9c1.3,0,2.8-0.2,4.5-0.5
		c-1.8,0.2-3.2,0.5-4.5,0.5C121.7,151.9,120.4,151.7,119,151.1"/>
	<path class="st3" d="M119.1,151.1c1.1,1.9,3.2,3.8,4.6,4.9c2.5,1.8,5.4,2.9,6.8,2.9c0.4,0,0.7-0.1,0.9-0.3c0.5-0.8-2.8-2.6-2.6-5.1
		c0.1-0.9,0.7-1.6,1.4-2.2c-0.9,0.1-1.8,0.2-2.6,0.3c-1.8,0.2-3.2,0.5-4.5,0.5C121.7,152,120.4,151.7,119.1,151.1"/>
	<path class="st5" d="M53.4,75.1c2.1-0.5,3.1,2.1,9.7,6.1c3.6,2.2,4.2,2,4.9,3.1c3.2,5.1-4.3,19-12.2,19.5c-2.8,0.2-3-1.5-12.3-6.4
		c-7.1-3.7-9.2-4-9.7-6.1c-0.8-3.7,4.1-9.1,8.7-9.5c1-0.1,1.8,0.1,2.4,0.3c0.9,0.3,1.6,0.5,2.7,0.2C51.2,81.1,50.6,75.8,53.4,75.1"
		/>
	<path class="st7" d="M65,86.2c-1.6,0-3.7,1.3-6,2.7c-2.3,1.3-4.9,2.7-7.5,2.7c-0.8,0-1.7-0.1-2.6-0.5c-1.6-0.6-2.9-1.7-4.8-1.7
		c-0.2,0-0.4,0-0.7,0c-1.9,0.2-4.1,1.5-4.6,3.4c-0.2,0.8-0.2,1.5,0.1,2.3c1.3,0.6,2.8,1.3,4.7,2.4c8.4,4.4,9.4,6.2,11.5,6.4
		c0.8,0,1.5-0.1,2.3-0.2c4.7-1.2,9-6.8,10.7-11.9c0.1-2.3-0.5-4.3-1.8-5.1C65.8,86.3,65.4,86.2,65,86.2"/>
	<path class="st0" d="M252.2,66c-3.9-4.1-8.4-8.7-12.9-7.7c-2.6,0.6-2.9,2.5-7.7,7.7c-6.8,7.3-9.4,7.1-10.3,10.3
		c-1.6,6,5.4,14.3,12.9,18c11.2,5.6,27.8,2.9,30.8-5.1C267.7,82.2,259.5,73.7,252.2,66"/>
	<path class="st2" d="M229.6,68.1C229.6,68.1,229.6,68.1,229.6,68.1c-5.3,5.2-7.5,5.3-8.3,8.2c-0.2,0.6-0.2,1.2-0.2,1.8
		c0-0.6,0.1-1.2,0.2-1.8C222.1,73.4,224.3,73.3,229.6,68.1"/>
	<path class="st3" d="M264.8,89.6c-2.1,0.4-5.1,0.8-8.8,0.8c-1.5,0-2.8,0-4.1,0c-1.1,0-2.2,0-3.1-0.1c0,0.1-0.1,0.2-0.1,0.3
		c2.7,1.3,5.3,3.1,6.6,5.5C259.8,95,263.3,92.7,264.8,89.6 M229.7,68.1c0,0-0.1,0-0.1,0c-5.3,5.2-7.5,5.3-8.3,8.2
		c-0.2,0.6-0.2,1.2-0.2,1.8c0,0.7,0.1,1.5,0.3,2.3c0.9,0.1,1.7,0.2,2.5,0.3c2.8,0.4,5.6,0.7,8.7,0.7c1.7,0,3.5-0.1,5.6-0.4
		c-0.2-4.1,0.5-8.5-2.7-11.2C233.7,68.3,231.4,68.1,229.7,68.1"/>
	<path class="st0" d="M253.5,113.5c-4.9-1.6-7.4-2.4-10.3-2.6c-2.3-0.1-14.9-0.9-20.6,7.7c-5.1,7.8-2.1,19.6,5.1,25.7
		c6.9,5.8,16.9,5.7,23.1,2.6c5.7-2.9,5.3-6.7,12.9-10.3c5.3-2.5,9.2-2.3,10.3-5.1c1-2.7-1.3-6-2.6-7.7
		C267.3,118.1,261,116,253.5,113.5"/>
	<path class="st2" d="M274,131.5C274,131.5,274,131.5,274,131.5C274,131.5,274,131.5,274,131.5 M274,131.5
		C274,131.5,274,131.5,274,131.5C274,131.5,274,131.5,274,131.5 M274,131.5C274,131.5,274,131.5,274,131.5
		C274,131.5,274,131.5,274,131.5 M274.2,131.1C274.2,131.1,274.2,131.1,274.2,131.1C274.2,131.1,274.2,131.1,274.2,131.1
		 M274.2,131.1C274.2,131.1,274.2,131.1,274.2,131.1C274.2,131.1,274.2,131.1,274.2,131.1 M274.2,131C274.2,131,274.2,131,274.2,131
		C274.2,131,274.2,131,274.2,131 M274.2,131C274.2,131,274.2,131,274.2,131C274.2,131,274.2,131,274.2,131 M274.2,131
		C274.2,131,274.2,131,274.2,131C274.2,131,274.2,131,274.2,131 M274.1,128.9c0.2,0.7,0.2,1.4,0,2.1
		C274.3,130.3,274.3,129.6,274.1,128.9"/>
	<path class="st3" d="M268.5,124.6c-5.3,0-9.9,1.7-9.9,1.7c-8.1,3.1-7.2,6.5-12.9,7.7c-1,0.2-2,0.3-2.9,0.3c-2.7,0-5-0.9-7-1.7
		c-0.9-0.4-1.7-0.7-2.6-1c-2.1,5.4-2.9,9.9-4.5,13.5c3.8,2.7,8.3,3.9,12.6,3.9c3.5,0,6.9-0.8,9.6-2.1c5.7-2.9,5.3-6.7,12.9-10.3
		c5.3-2.5,9.2-2.3,10.3-5.1l0,0c0,0,0,0,0,0c0,0,0,0,0,0c0,0,0,0,0,0c0,0,0,0,0,0c0,0,0,0,0,0c0-0.1,0.1-0.3,0.1-0.4c0,0,0,0,0,0
		c0,0,0,0,0,0c0,0,0,0,0,0c0,0,0,0,0,0c0,0,0,0,0,0c0,0,0,0,0,0c0,0,0,0,0,0c0,0,0,0,0,0c0,0,0,0,0,0l0,0c0.2-0.7,0.1-1.4,0-2.1
		c-0.3-1.4-1.1-2.8-1.9-3.9C271,124.7,269.7,124.6,268.5,124.6"/>
	<path class="st8" d="M298.5,100.1c-4.6,1.3-3.1,8.6-9.1,20.1c-4.2,8.2-7.6,9.7-9.6,17.6c-1.2,4.7-1.9,7.8-0.5,10.6
		c5.4,10.5,36.4,3.4,39.8,2.6c8.3-1.9,30-6.9,30.8-16.6c0.4-4.4-3.7-7.8-10.6-13.6c-11.4-9.7-15.8-6.5-32.2-17.2
		C303.2,101.1,301,99.4,298.5,100.1"/>
	<path class="st11" d="M279.8,137.8C279.8,137.8,279.8,137.9,279.8,137.8C279.8,137.9,279.8,137.8,279.8,137.8 M349.9,133.9
		c0,0.2,0,0.4,0,0.6C349.9,134.3,349.9,134.1,349.9,133.9 M286.3,125.4c-2.8,4.2-5.1,6.6-6.6,12.5
		C281.2,131.9,283.5,129.6,286.3,125.4C286.3,125.4,286.3,125.4,286.3,125.4"/>
	<path class="st12" d="M286.3,125.4c-2.8,4.2-5.1,6.6-6.6,12.5c0,0,0,0,0,0c0,0,0,0,0,0c0,0,0,0,0,0l0,0c-0.7,2.9-1.3,5.2-1.3,7.2
		c0,1.2,0.2,2.3,0.8,3.4c2.2,4.4,8.9,5.7,16.2,5.7c10.2,0,21.7-2.6,23.7-3.1c8.3-1.9,30-6.9,30.8-16.6l0,0c0-0.2,0-0.4,0-0.6
		c0-2-0.9-3.8-2.6-5.7c-2.7,1-5.7,2.7-9.2,4.5c0.8,1.2,1.9,2.3,2.4,3.8c0.5,1.5,0.8,3.1,0.5,5l-0.4,0.2c-1.7-0.9-2.8-2.1-3.7-3.3
		c-0.9-1.2-1.2-2.8-1.7-4.2c-2.4,1.1-5.1,2.2-8.1,3c0.1,0.1,0.1,0.2,0.2,0.4c0.7,1.4,1.7,2.6,1.9,4.2c0.3,1.5,0.3,3.1-0.2,4.9
		l-0.4,0.1c-1.5-1.1-2.5-2.3-3.2-3.7c-0.8-1.3-0.8-2.9-1.1-4.4c-0.1-0.2-0.1-0.5-0.2-0.7c-2.6,0.5-5.5,0.9-8.7,0.9
		c-0.4,0-0.8,0-1.3,0c-1.1,0-2.6,0-4.2-0.2c0.5,1.2,0.9,2.4,1.3,3.6c0.4,1.2,1.2,2.4,1.1,3.7c0,1.3-0.2,2.7-1,4.1l-0.4,0.1
		c-1.3-1-2-2.2-2.5-3.4c-0.5-1.2-0.3-2.6-0.4-3.9c-0.1-1.3-0.1-2.6-0.2-3.9c0-0.2,0-0.3,0-0.5c-1.8-0.2-3.7-0.5-5.7-1.1
		c-1.4,0.1-2.8,0.2-4.2,0.3c-0.7,0-1.5,0-2.2,0.1c0.5,1.1,0.9,2.2,1.4,3.4c0.5,1.2,0.9,2.4,1.3,3.7c0.4,1.2,1.2,2.4,1.1,3.7
		c0,1.3-0.2,2.7-1,4.1l-0.4,0.1c-1.3-1-2-2.2-2.5-3.4c-0.5-1.2-0.3-2.6-0.4-3.9c-0.1-1.3-0.1-2.6-0.2-3.9c0-1.2,0-2.5,0-3.7
		c-0.3,0-0.5,0-0.8,0c-2.2,0-4.4-0.1-6.6-0.3c0.2,1,0.4,1.9,0.7,2.9c0.3,1.3,0.5,2.6,0.7,3.9c0.2,1.3,0.8,2.6,0.5,3.9
		c-0.2,1.3-0.6,2.6-1.7,4l-0.4,0c-1.1-1.3-1.6-2.6-1.9-3.9c-0.3-1.3,0.2-2.6,0.3-3.9c0.1-1.3,0.3-2.6,0.5-3.9c0.2-1,0.3-2,0.5-3
		c-0.7-0.1-1.4-0.1-2.2-0.2l0-0.4c0.8,0,1.5,0,2.3-0.1c0-0.1,0-0.1,0-0.2l0.4,0c0,0.1,0,0.1,0.1,0.2c3.3-0.1,6.6-0.4,9.9-1
		c-2.6-1.2-5.1-2.8-7.3-5C288.4,128.9,287.2,127.1,286.3,125.4"/>
	<path class="st9" d="M332,125c-1.2,0.4-2.5,0.8-3.7,1.3l-6.1,2.1c-2,0.7-4,1.5-6,2.2c-2,0.8-4,1.5-6,2.1c-4.1,1.2-8.3,2.1-12.6,2.8
		c-0.1,0-0.2,0-0.3,0c1.5,0.7,3.1,1.2,4.6,1.7c1.9-0.2,3.8-0.4,5.7-0.7c0-0.5,0-1.1,0-1.6l0.4-0.1c0.2,0.5,0.4,1,0.6,1.5
		c0.8-0.1,1.5-0.3,2.3-0.4c4-0.8,8.1-1.7,11.8-3.4c-0.2-1-0.4-2-0.5-3.1l0.4-0.1c0.5,0.8,1,1.7,1.5,2.6c1.9-0.9,3.7-2,5.4-3.1
		c1-0.7,2-1.4,2.9-2.1C332.4,126.1,332.2,125.6,332,125 M334.6,124.2c-0.7,0.2-1.5,0.4-2.2,0.7c0.3,0.4,0.6,0.7,0.9,1.1
		c0.5-0.5,1-0.9,1.5-1.4L334.6,124.2"/>
	<path class="st15" d="M287.1,136.6c-0.8,0-1.5,0.1-2.3,0.1l0,0.4c0.7,0.1,1.4,0.2,2.2,0.2C287,137.1,287,136.9,287.1,136.6
		 M297.5,135.6c-3.3,0.5-6.6,0.8-9.9,1c0.1,0.3,0.1,0.5,0.2,0.8c2.2,0.2,4.4,0.3,6.6,0.3c0.3,0,0.5,0,0.8,0c0-0.1,0-0.1,0-0.2
		l0.4-0.1c0,0.1,0.1,0.2,0.1,0.3c0.7,0,1.5,0,2.2-0.1c1.4-0.1,2.8-0.2,4.2-0.3C300.6,136.9,299,136.3,297.5,135.6"/>
	<path class="st15" d="M287.5,136.4l-0.4,0c0,0.1,0,0.1,0,0.2c0,0.2-0.1,0.5-0.1,0.7c-0.2,1-0.3,2-0.5,3c-0.2,1.3-0.4,2.6-0.5,3.9
		c-0.1,1.3-0.6,2.6-0.3,3.9c0.3,1.3,0.8,2.6,1.9,3.9l0.4,0c1.1-1.3,1.5-2.7,1.7-4c0.3-1.3-0.3-2.6-0.5-3.9c-0.2-1.3-0.4-2.6-0.7-3.9
		c-0.2-1-0.4-1.9-0.7-2.9c-0.1-0.3-0.1-0.5-0.2-0.8C287.6,136.5,287.5,136.5,287.5,136.4"/>
	<path class="st15" d="M295.6,137.4l-0.4,0.1c0,0.1,0,0.1,0,0.2c-0.1,1.3,0,2.5,0,3.7c0,1.3,0.1,2.6,0.2,3.9
		c0.1,1.3-0.2,2.7,0.4,3.9c0.5,1.2,1.2,2.4,2.5,3.4l0.4-0.1c0.8-1.5,1-2.8,1-4.1c0-1.3-0.7-2.5-1.1-3.7c-0.4-1.2-0.9-2.5-1.3-3.7
		c-0.5-1.1-0.9-2.2-1.4-3.4C295.7,137.6,295.6,137.5,295.6,137.4"/>
	<path class="st9" d="M308.2,134.9l-0.4,0.1c0,0.5,0,1.1,0,1.6c0,0.6,0,1.2,0,1.8c0.7,0.1,1.4,0.1,2,0.2c0,0,0,0,0-0.1
		c-0.3-0.7-0.6-1.4-0.9-2.1C308.6,135.9,308.4,135.4,308.2,134.9"/>
	<path class="st15" d="M307.8,138.4c0,0.2,0,0.3,0,0.5c0,1.3,0.1,2.6,0.2,3.9c0.1,1.3-0.2,2.7,0.4,3.9c0.5,1.2,1.2,2.4,2.5,3.4
		l0.4-0.1c0.8-1.5,1-2.8,1-4.1c0-1.3-0.7-2.5-1.1-3.7c-0.4-1.2-0.8-2.4-1.3-3.6C309.1,138.5,308.5,138.5,307.8,138.4"/>
	<path class="st9" d="M332.4,124.8L332,125c0,0,0,0,0,0c0.2,0.6,0.3,1.1,0.5,1.6c0.3,1,0.6,1.9,0.9,2.8c0.5,1.5,1,3,1.6,4.4
		c0,0,0,0.1,0.1,0.1c1-0.5,2-0.9,2.9-1.4c0-0.1-0.1-0.1-0.1-0.2c-0.9-1.3-1.7-2.6-2.7-3.9c-0.6-0.9-1.3-1.7-1.9-2.6
		C333,125.6,332.8,125.3,332.4,124.8C332.4,124.9,332.4,124.8,332.4,124.8"/>
	<path class="st15" d="M338,132.7c-0.9,0.5-1.9,0.9-2.9,1.4c0.5,1.4,0.8,3,1.7,4.2c0.9,1.3,2,2.5,3.7,3.3l0.4-0.2
		c0.3-1.9-0.1-3.5-0.5-5C340,135,338.9,133.9,338,132.7"/>
	<path class="st15" d="M327,137.1c-1,0.3-2,0.5-3,0.7c0.1,0.2,0.1,0.5,0.2,0.7c0.3,1.5,0.3,3.1,1.1,4.4c0.7,1.3,1.7,2.6,3.2,3.7
		l0.4-0.1c0.5-1.8,0.5-3.4,0.2-4.9c-0.2-1.5-1.2-2.8-1.9-4.2C327.1,137.3,327,137.2,327,137.1"/>
	<path class="st9" d="M322.8,129.3l-0.4,0.1c0.1,1,0.3,2.1,0.5,3.1c0.1,0.5,0.2,1,0.3,1.5c0.2,1.3,0.5,2.5,0.8,3.8
		c1-0.2,2-0.5,3-0.7c-0.6-1.3-1.2-2.5-1.9-3.7c-0.3-0.5-0.5-1-0.8-1.4C323.8,131.1,323.3,130.2,322.8,129.3"/>
	<path class="st16" d="M181.5,103.2c-3.8,0.6-13.3,1.9-15.4,7.7c-0.7,1.9-0.3,3.6,0,5.1c2.9,13,4.4,19.5,10.3,25.7
		c6.3,6.7,13.7,9,18,10.3c6,1.8,18.6,5.7,28.3,0c10.4-6.2,5.3-16.3,18-33.4c8.6-11.5,16.6-14.6,15.4-20.6
		c-1.3-6.7-12.8-9.6-15.4-10.3C219.7,82.5,211.6,98.4,181.5,103.2"/>
	<path class="st8" d="M194.3,144.4c6.5,4.3,22.6-6.4,33.4-18c16.2-17.3,25.8-42.2,20.6-46.3c-1.3-1-3-0.5-5.1,0
		c-8.7,2-13.8,1.3-19.3,0.5c-4-0.5-8.2-1-14.2-0.5c-13.6,1.1-34,7.4-36,18c-0.9,5,3,6.6,2.6,15.4c-0.4,8.8-4.7,11.7-2.6,15.4
		c2.5,4.5,9.3,1.7,15.4,7.7C192.9,140.3,191.9,142.7,194.3,144.4"/>
	<polyline class="st11" points="173.8,98.1 173.8,98.1 173.8,98.1 	"/>
	<path class="st11" d="M195,144.8C195,144.8,195,144.8,195,144.8C195,144.8,195,144.8,195,144.8 M195,144.7
		C195,144.8,195,144.8,195,144.7C195,144.8,195,144.8,195,144.7 M194.3,144.4c0.2,0.1,0.4,0.3,0.7,0.4
		C194.8,144.6,194.6,144.5,194.3,144.4"/>
	<path class="st12" d="M185.3,86.6c-6,2.9-10.6,6.8-11.5,11.5l0,0c0,0,0,0,0,0l0,0c-0.1,0.5-0.1,1-0.1,1.5c0,3.7,2.8,5.8,2.8,12.6
		c0,0.4,0,0.9,0,1.4c-0.4,7.1-3.1,10.3-3.1,13.3c0,0.7,0.2,1.4,0.6,2.1c2.5,4.5,9.3,1.7,15.4,7.7c3.6,3.6,2.7,6.1,5.1,7.7l0,0
		c0.2,0.1,0.4,0.3,0.7,0.4c0,0,0,0,0,0c0,0,0,0,0,0c0,0,0,0,0,0c0,0,0,0,0,0c0.9,0.4,1.8,0.6,2.9,0.6c7.3,0,19.3-8.2,28.3-17.4
		c-3.8,1.6-8.8,3.6-15.2,4.9c-0.4,0.1-0.7,0.1-1.1,0.2c0.1,0.5,0.2,1,0.2,1.5c0,0.6,0,1.3-0.3,2l-0.3,0.2c-0.8-0.2-1.3-0.5-1.9-0.9
		c-0.5-0.3-0.9-0.7-1.3-1.2c-0.4-0.4-0.6-0.9-0.8-1.5c-0.7-0.1-1.5-0.2-2.3-0.4c-1.5-0.4-2.5-1.1-7.2-5.1c-0.1,0-0.3,0.1-0.4,0.1
		l-0.1-0.4c0.1,0,0.1,0,0.2-0.1c-0.8-0.7-1.7-1.4-2.7-2.3c-4.3-3.7-4.7-4.2-5.1-5.1c-1.7-3.6,0.8-5.5,0-10.3
		c-1.1-6.6-4.5-7.4-5.1-12.9C182.2,91.9,184.5,88.9,185.3,86.6"/>
	<path class="st9" d="M231.4,91.6c-1.3,1.9-2.4,3.7-3.6,5.5c-1.2,1.8-2.4,3.6-3.6,5.3c-2.5,3.4-4.7,7-7.6,10.2
		c-2.9,3.1-6.1,6-9.7,8.5c-3.5,2.5-7.2,4.6-11.1,6.4c0.1,0.1,0.3,0.2,0.4,0.3c4.1-1.2,8-2.9,11.8-5c1.7-1,3.4-2,5-3.2
		c-0.2-0.4-0.4-0.8-0.6-1.2l0.3-0.3c0.4,0.3,0.8,0.6,1.2,0.8c1.5-1.1,2.9-2.2,4.2-3.5c-0.4-0.6-0.8-1.1-1.1-1.7l0.3-0.3
		c0.7,0.3,1.3,0.7,1.9,1.1c1.5-1.4,3-2.9,4.4-4.4c0.4-0.5,0.8-1,1.2-1.5c-0.4-0.4-0.7-0.9-1-1.3l0.2-0.3c0.5,0.2,1,0.4,1.6,0.6
		c0.7-1,1.4-2,2-3c0.6-1,1.1-2,1.5-3.1c-0.9-0.6-1.8-1.2-2.7-1.9l0.1-0.4c1.1,0.1,2.2,0.3,3.3,0.5c1-2.6,1.7-5.2,2-8L231.4,91.6"/>
	<path class="st15" d="M195.7,127.4c-0.1,0-0.1,0-0.2,0.1l0.1,0.4c0.1,0,0.3-0.1,0.4-0.1C196,127.6,195.9,127.5,195.7,127.4"/>
	<path class="st9" d="M203.5,125l-0.3,0.2c0.3,1.1,0.6,2.2,0.9,3.3c0.3,1.1,0.7,2.1,1.1,3.2c0.2,0.5,0.3,1.1,0.5,1.6
		c0.4,0,0.8,0.1,1.2,0.1c1.1,0,2.1-0.1,3.1-0.3c0-0.1,0-0.1-0.1-0.2c-0.3-1.1-1.3-1.8-2-2.7c-0.7-0.9-1.4-1.8-2.1-2.6
		C205.1,126.7,204.3,125.8,203.5,125"/>
	<path class="st15" d="M210,133c-1,0.2-2,0.3-3.1,0.3c-0.4,0-0.8,0-1.2-0.1c0.2,0.6,0.4,1.1,0.8,1.5c0.4,0.4,0.8,0.8,1.3,1.2
		c0.5,0.3,1.1,0.7,1.9,0.9l0.3-0.2c0.2-0.8,0.3-1.4,0.3-2C210.2,134,210.1,133.5,210,133"/>
	<path class="st9" d="M212.7,118l-0.3,0.3c0.2,0.4,0.4,0.8,0.6,1.2c0.3,0.6,0.6,1.2,1,1.8c0.5,1,1.1,2,1.7,2.9
		c0.6,0.9,0.9,2.1,1.9,2.8c0.5,0.3,1,0.6,1.5,0.9c0.6,0.2,1.2,0.4,2,0.5l0.3-0.3c0.1-0.8,0-1.4-0.2-2c-0.1-0.6-0.4-1.1-0.6-1.6
		c-0.5-1-1.6-1.5-2.5-2.2c-0.8-0.7-1.7-1.4-2.6-2.1c-0.5-0.4-1-0.8-1.5-1.1C213.5,118.6,213.1,118.3,212.7,118"/>
	<path class="st9" d="M217.3,113.4l-0.3,0.3c0.4,0.6,0.7,1.2,1.1,1.7c0.2,0.4,0.5,0.7,0.8,1.1c0.6,0.9,1.3,1.8,2,2.7
		c0.7,0.9,1.1,2,2.2,2.5c0.5,0.3,1,0.5,1.6,0.7c0.5,0.1,1,0.3,1.7,0.3c0.1,0,0.2,0,0.3,0l0.3-0.3c0-0.8-0.2-1.4-0.4-2
		c-0.2-0.6-0.5-1.1-0.8-1.6c-0.6-1-1.8-1.3-2.7-2c-0.9-0.6-1.9-1.2-2.8-1.8c-0.3-0.2-0.7-0.4-1-0.6
		C218.6,114.1,217.9,113.7,217.3,113.4"/>
	<path class="st9" d="M224,106.9l-0.2,0.3c0.3,0.5,0.7,0.9,1,1.3c0.3,0.4,0.7,0.8,1.1,1.3c0.7,0.8,1.5,1.6,2.2,2.4
		c0.8,0.8,1.3,1.8,2.3,2.2c0.5,0.2,1,0.4,1.6,0.5c0.3,0.1,0.7,0.1,1,0.1c0.3,0,0.6,0,1-0.1l0.2-0.3c-0.1-0.8-0.3-1.4-0.6-1.9
		c-0.3-0.6-0.6-1-0.9-1.4c-0.7-0.9-1.9-1.1-2.8-1.6c-1-0.5-1.9-1-2.9-1.4c-0.5-0.2-1-0.4-1.5-0.7C225.1,107.4,224.6,107.1,224,106.9
		"/>
	<path class="st9" d="M226.5,99.2l-0.1,0.4c0.9,0.7,1.8,1.3,2.7,1.9c0.1,0.1,0.2,0.1,0.2,0.2c1,0.6,2,1.3,3,1.8
		c1,0.6,1.9,1.5,3.1,1.7c0.4,0.1,0.8,0.1,1.3,0.1c0.2,0,0.4,0,0.6,0c0.6,0,1.3-0.2,2.1-0.5l0.1-0.4c-0.3-0.7-0.7-1.3-1.2-1.8
		c-0.4-0.5-0.9-0.9-1.4-1.2c-1-0.7-2.2-0.6-3.4-0.9c-1.1-0.3-2.3-0.5-3.4-0.7c-0.1,0-0.2,0-0.2,0C228.7,99.5,227.7,99.3,226.5,99.2"
		/>
	<path class="st17" d="M240.7,118.5C240.7,118.5,240.7,118.5,240.7,118.5c-0.1,0.1-0.1,0.1-0.1,0.2L240.7,118.5"/>
	<path class="st18" d="M169.4,107c-1.5,1-2.7,2.3-3.3,3.9l0,0c-0.3,0.8-0.4,1.6-0.4,2.3c0,1,0.2,1.9,0.4,2.8
		c2.9,13,4.4,19.5,10.3,25.7c6.3,6.7,13.7,9,18,10.3c3.7,1.1,9.8,3,16.2,3c4.1,0,8.3-0.8,12.1-3c10.4-6.2,5.3-16.3,18-33.4l0,0
		c0-0.1,0.1-0.1,0.1-0.2c-1.6,1.5-3.5,3.4-5.3,5.3c-9.1,9.7-8.7,15.4-15.4,20.6c-6.4,4.9-13.8,5.1-17.3,5.1c-0.3,0-0.5,0-0.7,0
		c-11.1-0.1-22.2-5.9-28.3-15.4c-5.4-8.4-5.2-17.1-5.1-20.6C168.7,111.1,169,108.9,169.4,107"/>
</g>
</svg>
