<?xml version="1.0" encoding="utf-8"?>
<!-- Generator: Adobe Illustrator 21.1.0, SVG Export Plug-In . SVG Version: 6.00 Build 0)  -->
<svg version="1.1" id="Layer_1" xmlns="http://www.w3.org/2000/svg" xmlns:xlink="http://www.w3.org/1999/xlink" x="0px" y="0px"
	 viewBox="0 0 337 316" style="enable-background:new 0 0 337 316;" xml:space="preserve">
<style type="text/css">
	.st0{fill:#FFFFFF;}
	.st1{opacity:0.35;}
	.st2{fill:#EFE0A3;}
	.st3{fill:#502419;}
</style>
<g>
	<g>
		<path class="st0" d="M267.4,262.4c35.7-28.2,69.6-81.2,59.1-138C311.8,44.5,215.9-7.2,134.7,9.9C72.8,22.9,13.1,77.1,8.8,146.4
			C5,206.6,45.1,247.8,50.5,253.3c22.1,22.1,57.9,10,88.9,15.4C185.7,276.8,229.7,292.1,267.4,262.4z"/>
	</g>
	<g class="st1">
		<path class="st2" d="M8.8,146.4C12.4,89.6,53.1,43,101.7,20.8C86.1,31,64,46.4,52,74.3C38.5,106,39.9,150.1,64.2,182
			c19.2,25.3,46.1,33.8,54.6,36.4c52.5,15.9,80.5-16.5,135.7-9.9c13.2,1.6,29.6,5.6,48.3,15.4c-10.3,15.3-22.7,28.4-35.4,38.4
			c-34.5,27.2-79.9,8.3-122.8,3.7c-35.4-3.7-69.1,12-94-12.8C45.1,247.8,5,206.6,8.8,146.4z"/>
	</g>
	<path class="st2" d="M189.9,197.4c-11.4,3.7-21.8,15-21,26c1.5,21.3,43.8,28,46,24c1.6-2.9-17-11-16-23c1-11.6,19.4-15.6,18-22
		C215.8,197,201.4,193.6,189.9,197.4z"/>
	<path class="st2" d="M76.9,40.8c2.3,8.6,18.7,14.3,30.2,9.6c15.9-6.5,20.7-31.9,13.8-38c-5.3-4.7-18.2,1.3-26,5
		c-10.5,4.9-13.9,10.1-15,12C78.4,31.9,75.7,36.4,76.9,40.8z"/>
	<path class="st2" d="M224.9,41.9c-15.8-8.5-39.4,1.1-41,11.5c-1.4,9.1,13.9,19.8,27.1,22.9c1,0.2,22.1,4.9,28-5.2
		C243.9,62.6,235.8,47.7,224.9,41.9z"/>
	<path class="st2" d="M238.9,162.4c0.2,8,31.5,22.4,47,9c11.5-10,10.9-32.3,4-36c-3.2-1.7-6.4,1.3-22,10
		C244.7,158.3,238.8,158.9,238.9,162.4z"/>
	<path class="st2" d="M39.9,132.4c-9.6,7.2-8.5,26,0,37c9.9,12.8,31.2,17.2,40,8c7.5-7.9,3.8-23.7-3-33
		C68.4,132.8,50,124.7,39.9,132.4z"/>
	<g>
		<path class="st0" d="M136.4,241.4c18.7,3,81.6-22.8,104.6-22.7c23.8,0,61,0.1,68.7,18.2c6.9,16.3-13.7,39.5-26.5,50
			c-29,23.8-75.4,22.4-109.3,7.2c-21.2-9.5-22.5-12.8-45.3-17.8c-18.5-4-22.9,2.2-53.1,0c-22-1.6-41.6-3.3-50-16.7
			c-4.3-6.9-5.4-16.5-1.6-24.3c6.4-13.1,24-14.9,26.5-15.2c15.5-1.6,22.6,6.5,43.7,13.6C103.6,237,117.7,240.7,136.4,241.4z"/>
	</g>
	<g class="st1">
		<path class="st2" d="M299.9,269.7c-17.3,10-32,13.7-32,13.7c-12.4,3.2-28.9,7.4-51,6c-17.4-1.1-38.1-2.4-58-15
			c-9-5.7-18.5-14.1-32-13c-5.6,0.5-8.8,2.3-13,4c-27.1,11-58.6,1.3-73-8c-3.9-2.5-11.5-7.6-15-17c-0.9-2.4-1.3-4.5-1.5-5.8
			c-0.1,0.2-0.3,0.5-0.4,0.7c-3.8,7.7-2.7,17.4,1.6,24.3c8.3,13.3,28,15.1,50,16.7c30.2,2.2,34.6-4,53.1,0
			c22.8,5,24.1,8.3,45.3,17.8c33.9,15.2,80.3,16.7,109.3-7.2C288.3,282.7,294.5,276.6,299.9,269.7z"/>
	</g>
	<path class="st2" d="M216.9,265.4c-9.8-9.4-34.3-5.9-38,4c-2.5,6.8,5.1,15.4,11,22c5.1,5.8,15.5,17.4,31,18
		c11.9,0.5,24.1-5.5,24-10c-0.1-4-10.2-3.1-18-12C219.2,278.7,223.2,271.4,216.9,265.4z"/>
	<path class="st2" d="M63.8,227.5c-4.3,3.7-6.4,11.6-3.3,16.7c4.2,7,15.6,5.4,18.4,5c8.1-1.1,18.6-6.3,18.4-11.7
		C96.9,229.6,73.6,219,63.8,227.5z"/>
	<g>
		<g>
			<path class="st3" d="M48.7,150.4c-4.4,0.9-7,5.8-6.8,10c0.3,4.8,4.3,9.8,9.4,9.5c5.1-0.3,8.7-5.8,8.1-10.8
				C58.9,154,53.7,149.4,48.7,150.4z"/>
		</g>
		<g>
			<path class="st3" d="M143.1,100.3c-6.4-2.6-15,1.6-15.7,6.7c-0.6,4.3,4.6,8.6,8.9,10.1c4.3,1.5,11.3,1.6,13.7-2.5
				C152.5,110.2,148.8,102.6,143.1,100.3z"/>
		</g>
		<g>
			<path class="st3" d="M287.2,95.7c-1.7,2.8-0.8,6.5,0.8,8.7c3.5,4.8,12.4,5.4,15.1,1.6c2.4-3.4,0.2-10.4-4.8-12.7
				C294.8,91.6,289.4,92.1,287.2,95.7z"/>
		</g>
		<g>
			<path class="st3" d="M236.4,248.5c-0.5,5,5.4,10,11.2,10.5c6.7,0.7,14.1-4.5,13.8-9.8c-0.2-4.5-6.1-7.9-10.8-8.5
				C244.6,240,236.9,243.2,236.4,248.5z"/>
		</g>
		<g>
			<path class="st3" d="M213.9,68.4c2.4,3.7,8.4,5.7,13,3c4.2-2.5,5.4-7.8,4-12c-1.5-4.4-6-7.5-10-7
				C214.7,53.2,210.2,62.7,213.9,68.4z"/>
		</g>
	</g>
</g>
</svg>
