<?xml version="1.0" encoding="utf-8"?>
<!-- Generator: Adobe Illustrator 21.1.0, SVG Export Plug-In . SVG Version: 6.00 Build 0)  -->
<svg version="1.1" id="Layer_1" xmlns="http://www.w3.org/2000/svg" xmlns:xlink="http://www.w3.org/1999/xlink" x="0px" y="0px"
	 viewBox="0 0 349 199.2" style="enable-background:new 0 0 349 199.2;" xml:space="preserve">
<style type="text/css">
	.st0{fill:#CBBE7A;}
	.st1{fill:#502012;}
	.st2{fill:#EFEBD7;}
	.st3{fill:#BFB067;}
	.st4{fill:#4B1E0F;}
	.st5{fill:#EFDFA3;}
	.st6{fill:#FAF5E3;}
	.st7{fill:#EAD791;}
	.st8{fill:#2D0E06;}
	.st9{fill:#080100;}
	.st10{fill:#010000;}
	.st11{fill:#AB9F9B;}
	.st12{fill:#1E0904;}
	.st13{fill:#050100;}
	.st14{fill:#E0CE89;}
	.st15{fill:#050000;}
	.st16{fill:#FFFFFF;}
	.st17{fill:#D8CA88;}
	.st18{fill:#F9F4DF;}
</style>
<g>
	<path class="st0" d="M170.9,10.5c-2.4-0.2-9-0.7-15.4,2.6c-8.8,4.5-11.9,13.2-15.4,23.1c-3.4,9.4-6.2,17.5-2.6,25.7
		c0.7,1.6,3.9,8.8,10.3,10.3c9.4,2.2,21.8-9,23.1-10.3c2.5-2.3,4.3-4.6,7.7-5.1c4-0.6,5.9,1.8,10.3,2.6c7.6,1.3,14.4-4.3,15.4-5.1
		C211,48.7,215,38.6,212,31c-1.5-3.8-9.6-7.7-25.7-15.4C179.3,12.2,175.8,10.8,170.9,10.5"/>
	<path class="st1" d="M190.2,34.9c-8.5,0-13.9,9.4-15.4,15.4c-0.6,2.5-1.3,5.2,0,7.7c2.8,5.4,13.6,7.3,20.6,2.6
		c6.5-4.4,9.4-14.4,5.1-20.6C198.1,36.5,193.8,34.9,190.2,34.9"/>
	<path class="st2" d="M204.4,54.1C204.3,54.1,204.3,54.1,204.4,54.1C204.3,54.1,204.3,54.1,204.4,54.1 M204.4,54.1
		C204.4,54.1,204.4,54.1,204.4,54.1C204.4,54.1,204.4,54.1,204.4,54.1 M204.4,54.1C204.4,54.1,204.4,54.1,204.4,54.1
		C204.4,54.1,204.4,54.1,204.4,54.1 M205.1,53.5c-0.2,0.2-0.5,0.4-0.7,0.6C204.6,53.9,204.9,53.7,205.1,53.5 M205.1,53.5
		C205.1,53.5,205.1,53.5,205.1,53.5C205.1,53.5,205.1,53.5,205.1,53.5 M205.1,53.5C205.1,53.5,205.1,53.5,205.1,53.5
		C205.1,53.5,205.1,53.5,205.1,53.5 M205.2,53.4C205.2,53.4,205.1,53.4,205.2,53.4C205.1,53.4,205.2,53.4,205.2,53.4 M205.2,53.4
		C205.2,53.4,205.2,53.4,205.2,53.4C205.2,53.4,205.2,53.4,205.2,53.4"/>
	<path class="st3" d="M191.3,23.8c-5.8,0-10.7,1.5-12.7,2.1c-2.7,0.8-6.5,2-10.3,5.1c-3.1,2.5-5.1,5.4-10.3,18
		c-1.6,3.9-2.8,6.9-3.7,9.4c3.8,1.3,6.9,2.2,8.8,6c0.4,0.8,0.8,1.7,1,2.7c3.5-2.4,6.1-4.7,6.7-5.3c1.4-1.3,2.6-2.6,4-3.6
		c0-0.1-0.1-0.2-0.1-0.3c-1.3-2.5-0.6-5.2,0-7.7c1.5-6.1,6.9-15.4,15.4-15.4c0,0,0,0,0.1,0c3.6,0,7.8,1.7,10.2,5.1
		c3.5,5.1,2.2,12.8-2.1,17.8c3.2-1.4,5.4-3.3,6-3.7l0,0c0,0,0,0,0,0c0,0,0,0,0,0c0,0,0,0,0,0c0,0,0,0,0,0c0,0,0,0,0,0l0,0
		c0.2-0.2,0.5-0.4,0.7-0.6c0,0,0,0,0,0c0,0,0,0,0,0c0,0,0,0,0,0c0,0,0,0,0,0c0,0,0,0,0,0c0,0,0,0,0,0c0,0,0,0,0,0c0,0,0,0,0,0
		c5.4-4.9,8.8-12.9,7.6-19.7c-2.4-2.8-5-4.6-5.9-5.3C201.8,24.8,196.2,23.8,191.3,23.8"/>
	<path class="st4" d="M190.3,34.9C190.2,34.9,190.2,34.9,190.3,34.9c-8.6,0-13.9,9.4-15.5,15.4c-0.6,2.5-1.3,5.2,0,7.7
		c0,0.1,0.1,0.2,0.1,0.3c1.1-0.7,2.2-1.3,3.7-1.5c0.5-0.1,0.9-0.1,1.3-0.1c3.2,0,5.1,2,9,2.7c0.8,0.1,1.5,0.2,2.3,0.2
		c2.6,0,5.1-0.7,7.2-1.6c4.3-5,5.7-12.7,2.1-17.8C198.1,36.6,193.9,34.9,190.3,34.9"/>
	<path class="st0" d="M75.8,149.3c-2.3,0.3-3,2.3-7.7,5.1c-3,1.8-3.1,1.3-5.1,2.6c-0.5,0.3-7.5,5.1-7.7,12.9c0,1.4-0.1,6.1,2.6,7.7
		c2.8,1.7,5.5-1.8,12.9-2.6c6.3-0.7,7.5,1.5,10.3,0c5.2-2.8,7.1-13.8,2.6-20.6C83.2,153.9,79.7,148.8,75.8,149.3z"/>
	<path class="st5" d="M7.2,117.2c0.6,6.3,10.8,9.3,12.2,9.7c2.1,0.6,6.3,1.8,11.5,0.5c6.9-1.8,14.3-7.9,14.5-15.5c0-0.9,0.1-4.1-2-7
		c-5-7-16.9-4.5-18.2-4.2c-7.1,1.5-11.4,5.8-13,7.5C9.5,111,6.8,113.8,7.2,117.2"/>
	<path class="st6" d="M18.4,126.6c0.1,0,0.3,0.1,0.4,0.1C18.7,126.7,18.6,126.7,18.4,126.6 M45.4,111.8
		C45.4,111.9,45.4,111.9,45.4,111.8C45.4,111.9,45.4,111.9,45.4,111.8"/>
	<path class="st7" d="M44.4,106.7c-1.3,1.8-3.3,4.4-6,7.2c-5.5,5.7-8,8.7-10.7,8.7c0,0,0,0,0,0c-4.3,0-5-5.4-11.2-6.2
		c-0.5-0.1-1.1-0.1-1.7-0.1c-2,0-4.5,0.5-5.3,2.1c-0.6,1.2-0.1,2.5,0.2,3.4c2.1,1.7,5,3.6,8.8,4.8c0.1,0,0.3,0.1,0.4,0.1
		c0,0,0.1,0,0.1,0c0.2,0.1,0.4,0.1,0.5,0.1c1.4,0.4,3.8,1.1,6.7,1.1c1.5,0,3.1-0.2,4.7-0.6c6.9-1.8,14.3-7.9,14.5-15.5l0,0
		c0,0,0-0.1,0-0.1C45.4,111,45.4,108.9,44.4,106.7"/>
	<path class="st5" d="M119.5,13c-4-2.1-9.1-1.8-12.9,0c-4.8,2.3-5.2,6.1-10.3,15.4c-7.1,13-16.7,24.2-18,25.7
		c-5.8,6.7-7.6,7.4-7.7,10.3c-0.4,6.4,7.6,11.3,23.1,20.6c15.4,9.2,23.2,13.8,33.4,12.9c3.9-0.4,8.7-1.5,12.9-2.6
		c8.4-2.1,12.7-3.1,15.4-5.1c7.4-5.4,11.8-17.9,7.7-25.7c-3.7-7.1-11-3.9-20.6-12.9c-5.8-5.4-8.8-11.9-12.9-20.6
		C124.9,20.6,124.7,15.7,119.5,13"/>
	<path class="st7" d="M164,66.2c-1.9,1.5-4.4,3.7-8.5,5.9c-9.2,4.9-17.9,5.1-23.1,5.1c-0.3,0-0.6,0-0.9,0c-1.6,0-3.4-0.1-5.1-0.2
		c-0.1,0.6-0.3,1.1-0.4,1.5c-1.1,3.7-1.5,7.6-1.5,11.6c0,2.6,0.2,5.2,0.4,7.8c0.8,0,1.5,0,2.3-0.1c3.9-0.4,8.7-1.5,12.9-2.6
		c8.4-2.1,12.7-3.1,15.4-5.1C162.4,85.1,166.6,74.1,164,66.2 M107.5,12.7c-0.3,0.1-0.5,0.2-0.8,0.3l0,0c-4.8,2.3-5.2,6.1-10.3,15.4
		c-7.1,13-16.7,24.2-18,25.7c-5.8,6.7-7.6,7.4-7.7,10.3c0,0.1,0,0.3,0,0.4c0,3.3,2.2,6.2,6.6,9.6c1.4-1.5,3-2.8,5-3.5
		c1.3-0.5,2.4-0.7,3.4-0.7c1.4,0,2.7,0.3,4.1,0.7c1.3,0.3,2.7,0.7,4.2,0.7c1.1,0,2.3-0.2,3.7-0.7c1-0.3,1.7-0.8,2.4-1.2
		c-4.6-2.7-7.9-6.2-8.8-10.4c-1.4-6.3,4.2-7.5,10.3-23.1C105.9,24.8,105.9,18.1,107.5,12.7"/>
	<path class="st8" d="M156.1,153.2c5.5,8.4,13.6,6.7,25.1,15.1c8.9,6.4,6,8.8,13.7,14c15.6,10.5,34.3,5.6,37.7,4.7
		c5.6-1.5,15.3-4,15.9-8.9c0.9-7.9-22.8-16.5-29.4-19c-20.7-7.6-24-3.1-42.8-11c-12-5.1-19.5-10.6-22.3-7.9
		C151.6,142.4,153.3,148.8,156.1,153.2"/>
	<path class="st9" d="M227.1,170.1c-0.7,0-1.5,0-2.2,0.1c-1.1,0.1-2.2,0.2-3.2,0.5c-1.1,0.3-2.1,0.5-3.2,0.7
		c-2.2,0.3-4.4,0.6-6.6,0.8c-1.2,0.1-2.4,0.2-3.6,0.3c0.4,0.5,0.8,0.9,1.2,1.4c0.8,0.1,1.6,0.2,2.4,0.3c2.2,0.3,4.3,0.4,6.5,0.4
		c0.1,0,0.2,0,0.3,0l3.5,0c0.2,0,0.5,0,0.7,0c0-0.3-0.1-0.6-0.1-0.9l0.3-0.3c0.1,0,0.3,0,0.4,0c0.6,0,1.2,0.2,1.7,0.4
		c0.2,0.1,0.4,0.2,0.6,0.3c1.1-0.3,2.1-0.7,3.1-1.2c0.5-0.2,1-0.5,1.4-0.8c-0.6-0.3-1.3-0.6-1.9-0.9l0-0.4c0.2,0,0.4,0,0.7,0
		c0.9,0,1.7,0.1,2.6,0.3c0.1-0.1,0.1-0.1,0.2-0.2l-0.1-0.4c-1.2-0.3-2.4-0.4-3.5-0.4C227.8,170.2,227.4,170.1,227.1,170.1"/>
	<path class="st9" d="M231.6,171.1c-0.4,0.4-0.9,0.7-1.4,1c0.6,0.3,1.2,0.7,1.8,1.1c1.1,0.8,2,1.7,2.7,2.8c0.2,0.3,0.3,0.5,0.4,0.8
		c0.1,0.3,0.2,0.6,0.3,0.9c0.2,0.6,0.4,1.1,0.7,1.6c0.6,1.1,1.1,2.2,2.1,3.7l0.4,0c1.3-1.3,1.6-3.2,1.4-4.9c-0.1-0.9-0.5-1.7-1-2.4
		c-0.5-0.7-1.2-1.3-1.8-1.9c-0.6-0.6-1.3-1.1-2-1.5c-0.7-0.4-1.5-0.7-2.2-1C232.5,171.3,232.1,171.2,231.6,171.1"/>
	<path class="st10" d="M229.1,170.8c-0.2,0-0.4,0-0.7,0l0,0.4c0.7,0.3,1.3,0.5,1.9,0.9c0.5-0.3,0.9-0.6,1.4-1
		C230.8,171,229.9,170.8,229.1,170.8"/>
	<path class="st9" d="M225.7,174.1c-0.1,0-0.1,0-0.2,0.1c-0.9,0.2-1.8,0.4-2.7,0.5c0.1,0.4,0.1,0.7,0.2,1c0.1,0.5,0.2,1,0.4,1.5
		c0.1,0.4,0.3,0.8,0.6,1.2c0.3,0.4,0.6,0.7,0.8,1.2c0.2,0.4,0.4,0.9,0.5,1.4c0.1,0.5,0.3,1,0.3,1.5c0.2,1,0.2,2.1,0.1,3.2l0.4,0.1
		c0.7-0.9,1.2-2,1.5-3.2c0.3-1.2,0.4-2.5,0.3-3.7c-0.1-0.6-0.1-1.3-0.3-2c-0.1-0.7-0.5-1.3-0.9-1.8
		C226.4,174.6,226.1,174.3,225.7,174.1"/>
	<path class="st10" d="M223.4,173.4c-0.1,0-0.3,0-0.4,0l-0.3,0.3c0,0.3,0.1,0.6,0.1,0.9c0.9-0.1,1.8-0.2,2.7-0.5
		c0.1,0,0.1,0,0.2-0.1c-0.2-0.1-0.4-0.2-0.6-0.3C224.6,173.5,224,173.4,223.4,173.4"/>
	<path class="st9" d="M212.1,174.6h-0.4c-0.4,0.3-0.7,0.7-1,1c1.1,1.5,2,3,2.7,4.6c0,0,0-0.1,0-0.1c0.2-0.9,0.7-1.8,0.4-2.8
		c-0.1-0.5-0.3-0.9-0.6-1.4C213,175.5,212.6,175,212.1,174.6"/>
	<path class="st11" d="M194.9,182.3C194.9,182.3,194.9,182.3,194.9,182.3L194.9,182.3 M153.9,140.2
		C153.9,140.2,153.9,140.2,153.9,140.2c-0.8,0.7-1.1,1.9-1.1,3.2C152.8,142.1,153.1,140.9,153.9,140.2
		C153.9,140.2,153.9,140.2,153.9,140.2 M153.9,140.2C153.9,140.2,153.9,140.2,153.9,140.2C153.9,140.2,153.9,140.2,153.9,140.2"/>
	<path class="st12" d="M155.9,139.5c-0.8,0-1.5,0.2-2,0.7c0,0,0,0,0,0c0,0,0,0,0,0c0,0,0,0,0,0c-0.7,0.7-1.1,1.9-1.1,3.2
		c0,2.9,1.4,6.8,3.3,9.7c5.5,8.4,13.6,6.7,25.1,15.1c8.9,6.4,6,8.8,13.7,14c0,0,0,0,0,0l0,0c6.9,4.6,14.3,6.3,20.8,6.6
		c0-2.5-0.8-5.6-2.3-8.7c-0.2,0.9-0.4,1.8-0.6,2.7c-0.2,0.9-0.5,1.8-0.8,2.7h-0.4c-0.3-0.9-0.6-1.8-0.8-2.7
		c-0.2-0.9-0.4-1.8-0.6-2.7c-0.2-0.9-0.7-1.8-0.4-2.8c0.1-0.5,0.3-0.9,0.6-1.4c0.1-0.1,0.2-0.2,0.2-0.4c-0.4-0.6-0.8-1.1-1.3-1.7
		c-1.5-0.2-2.9-0.5-4.4-0.9l0-0.4c1.1,0,2.1-0.1,3.1-0.1c-1.9-2.1-4.1-3.9-6.4-5.2c-5.5-3.2-7.2-1.2-18-5.1c-8-3-13.7-5.1-18-10.3
		c-3.1-3.7-4.2-7.6-4.9-10.8C158.9,140.1,157.2,139.5,155.9,139.5"/>
	<path class="st13" d="M208.2,172.5c-1,0.1-2.1,0.1-3.1,0.1l0,0.4c1.4,0.4,2.9,0.6,4.4,0.9C209,173.4,208.6,173,208.2,172.5"/>
	<path class="st13" d="M210.7,175.6c-0.1,0.1-0.2,0.2-0.2,0.4c-0.3,0.5-0.5,0.9-0.6,1.4c-0.3,0.9,0.2,1.8,0.4,2.8
		c0.2,0.9,0.4,1.8,0.6,2.7c0.2,0.9,0.5,1.8,0.8,2.7h0.4c0.3-0.9,0.6-1.8,0.8-2.7c0.2-0.9,0.4-1.8,0.6-2.7
		C212.7,178.6,211.8,177.1,210.7,175.6"/>
	<path class="st0" d="M107.9,63.1c-5.2,1.7-4.7,5.7-10.3,7.7c-3.3,1.2-5.6,0.6-7.9,0c-2.3-0.6-4.5-1.2-7.5,0
		c-6.2,2.4-9.1,9.7-10.3,12.9c-2,5.1-0.6,5.8-2.6,10.3c-3,6.8-6.9,7-10.3,12.9c-3.5,6-3,12.2-2.6,18c0.5,6.5,1.3,17.6,7.7,20.6
		c2.6,1.2,4.9,0.4,23.1-7.7c14-6.3,16.2-7.4,20.6-7.7c4.8-0.3,8.1,0.6,10.6,1.6c3.2,1.2,5.2,2.4,7.4,1c8.7-5.4-5.9-33.1,0-54
		c0.3-1.2,1.3-4.4,0-7.7C123.6,65,114.6,61,107.9,63.1"/>
	<path class="st14" d="M125.9,70.8C125.9,70.9,125.9,70.9,125.9,70.8c0.5,1.3,0.7,2.5,0.7,3.6C126.6,73.3,126.4,72.1,125.9,70.8
		C125.9,70.9,125.9,70.9,125.9,70.8"/>
	<path class="st2" d="M56.5,124.8C56.5,124.8,56.5,124.8,56.5,124.8C56.5,124.8,56.5,124.8,56.5,124.8"/>
	<path class="st3" d="M125.7,70.3c-5.4,2.5-11.2,10.3-11.3,17.2c-0.1,5,2.6,10.4,5.1,15.4c2.4,4.8,3.8,5.9,5.1,10.3
		c0.7,2.2,3.2,10.2,0,12.9c-0.7,0.6-1.6,0.8-2.6,0.8c-1.4,0-3.2-0.5-5.1-0.8c-2.9-0.6-5.5-0.8-8.3-0.8c-3.4,0-7.1,0.3-12.3,0.8
		c-5.6,0.5-13.7,1.2-23.1,5.1c-4,1.7-5.2,2.7-6.9,2.7c-0.3,0-0.5,0-0.9-0.1c-3.5-0.6-6.9-4.4-9-9.3c0,0.1,0,0.2,0,0.3c0,0,0,0,0,0.1
		l0,0c0.5,6.5,1.3,17.6,7.7,20.6c0.6,0.3,1.2,0.5,2,0.5c2.6,0,7.2-1.9,21.2-8.2c14-6.3,16.2-7.4,20.6-7.7c0.7,0,1.3-0.1,1.9-0.1
		c3.8,0,6.5,0.8,8.7,1.6c2.2,0.8,3.8,1.6,5.3,1.6c0.7,0,1.4-0.2,2.1-0.6c2.1-1.3,2.8-3.9,2.8-7.4c0-8.4-4.3-22-4.3-35
		c0-4,0.4-7.9,1.5-11.6c0.2-0.8,0.7-2.3,0.7-4.1c0-1.1-0.2-2.4-0.7-3.6c0,0,0,0,0,0C125.9,70.7,125.8,70.5,125.7,70.3"/>
	<path class="st1" d="M107.9,106.8c-0.3-3.1-2.2-6.2-5.1-7.7c-4.9-2.5-10.4,1-12.9,2.6c-2.2,1.4-8.4,5.3-7.7,10.3
		c0.6,4.8,7.4,8.1,12.9,7.7C101.8,119.2,108.5,113.1,107.9,106.8z"/>
	<path class="st0" d="M110.5,145.4c-3.8-2.1-4.4-5-7.7-5.1c-3.4-0.1-6.3,2.8-7.7,5.1c-3,5.1-0.7,11,0,12.9
		c2.8,7.1,8.9,10.6,12.9,12.9c3.1,1.8,10.6,5.9,20.6,5.1c1.1-0.1,20.9-1.7,23.1-12.9c1.2-5.9-3-12.4-7.7-15.4
		c-4-2.6-8.2-2.6-15.4-2.6C118.2,145.4,115.3,148,110.5,145.4"/>
	<path class="st3" d="M97,149.2c-0.2,0-0.4,0-0.6,0.1c-1,0.2-2,1-2.8,2.2c0,3,1.1,5.7,1.5,6.8c2.8,7.1,8.9,10.6,12.9,12.9
		c2.9,1.6,9.4,5.2,18.2,5.2c0.8,0,1.5,0,2.3-0.1c1.1-0.1,20.9-1.7,23.1-12.9c0.2-0.8,0.2-1.6,0.2-2.5c-0.4,1.8-1.2,3.6-2.7,5
		c-1.3,1.2-3.1,2.2-15.4,2.6c-3.8,0.1-7,0.2-9.6,0.2c-4.9,0-7.9-0.3-9.6-1.5c-4.1-2.7-3.2-5.5-10.3-12.9
		C101.1,151.3,99,149.2,97,149.2"/>
	<path class="st2" d="M111,145.7C111,145.7,111.1,145.7,111,145.7c1.4,0.7,2.6,0.9,4,0.9c1.3,0,2.8-0.2,4.5-0.5
		c-1.8,0.2-3.2,0.5-4.5,0.5C113.7,146.5,112.4,146.3,111,145.7"/>
	<path class="st3" d="M111.1,145.7c1.1,1.9,3.2,3.8,4.6,4.9c2.5,1.8,5.4,2.9,6.8,2.9c0.4,0,0.7-0.1,0.9-0.3c0.5-0.8-2.8-2.6-2.6-5.1
		c0.1-0.9,0.7-1.6,1.4-2.2c-0.9,0.1-1.8,0.2-2.6,0.3c-1.8,0.2-3.2,0.5-4.5,0.5C113.7,146.6,112.4,146.3,111.1,145.7"/>
	<path class="st5" d="M45.4,69.7c2.1-0.5,3.1,2.1,9.7,6.1c3.6,2.2,4.2,2,4.9,3.1c3.2,5.1-4.3,19-12.2,19.5c-2.8,0.2-3-1.5-12.3-6.4
		c-7.1-3.7-9.2-4-9.7-6.1c-0.8-3.7,4.1-9.1,8.7-9.5c1-0.1,1.8,0.1,2.4,0.3c0.9,0.3,1.6,0.5,2.7,0.2C43.2,75.7,42.6,70.4,45.4,69.7"
		/>
	<path class="st7" d="M57,80.8c-1.6,0-3.7,1.3-6,2.7c-2.3,1.3-4.9,2.7-7.5,2.7c-0.8,0-1.7-0.1-2.6-0.5c-1.6-0.6-2.9-1.7-4.8-1.7
		c-0.2,0-0.4,0-0.7,0c-1.9,0.2-4.1,1.5-4.6,3.4c-0.2,0.8-0.2,1.5,0.1,2.3c1.3,0.6,2.8,1.3,4.7,2.4c8.4,4.4,9.4,6.2,11.5,6.4
		c0.8,0,1.5-0.1,2.3-0.2c4.7-1.2,9-6.8,10.7-11.9c0.1-2.3-0.5-4.3-1.8-5.1C57.8,80.9,57.4,80.8,57,80.8"/>
	<path class="st0" d="M244.2,60.6c-3.9-4.1-8.4-8.7-12.9-7.7c-2.6,0.6-2.9,2.5-7.7,7.7c-6.8,7.3-9.4,7.1-10.3,10.3
		c-1.6,6,5.4,14.3,12.9,18c11.2,5.6,27.8,2.9,30.8-5.1C259.7,76.8,251.5,68.3,244.2,60.6"/>
	<path class="st2" d="M221.6,62.7C221.6,62.7,221.6,62.7,221.6,62.7c-5.3,5.2-7.5,5.3-8.3,8.2c-0.2,0.6-0.2,1.2-0.2,1.8
		c0-0.6,0.1-1.2,0.2-1.8C214.1,68,216.3,67.9,221.6,62.7"/>
	<path class="st3" d="M256.8,84.2c-2.1,0.4-5.1,0.8-8.8,0.8c-1.5,0-2.8,0-4.1,0c-1.1,0-2.2,0-3.1-0.1c0,0.1-0.1,0.2-0.1,0.3
		c2.7,1.3,5.3,3.1,6.6,5.5C251.8,89.6,255.3,87.3,256.8,84.2 M221.7,62.7c0,0-0.1,0-0.1,0c-5.3,5.2-7.5,5.3-8.3,8.2
		c-0.2,0.6-0.2,1.2-0.2,1.8c0,0.7,0.1,1.5,0.3,2.3c0.9,0.1,1.7,0.2,2.5,0.3c2.8,0.4,5.6,0.7,8.7,0.7c1.7,0,3.5-0.1,5.6-0.4
		c-0.2-4.1,0.5-8.5-2.7-11.2C225.7,62.9,223.4,62.7,221.7,62.7"/>
	<path class="st0" d="M245.5,108.1c-4.9-1.6-7.4-2.4-10.3-2.6c-2.3-0.1-14.9-0.9-20.6,7.7c-5.1,7.8-2.1,19.6,5.1,25.7
		c6.9,5.8,16.9,5.7,23.1,2.6c5.7-2.9,5.3-6.7,12.9-10.3c5.3-2.5,9.2-2.3,10.3-5.1c1-2.7-1.3-6-2.6-7.7
		C259.3,112.7,253,110.6,245.5,108.1"/>
	<path class="st2" d="M266,126.1C266,126.1,266,126.1,266,126.1C266,126.1,266,126.1,266,126.1 M266,126.1
		C266,126.1,266,126.1,266,126.1C266,126.1,266,126.1,266,126.1 M266,126.1C266,126.1,266,126.1,266,126.1
		C266,126.1,266,126.1,266,126.1 M266.2,125.7C266.2,125.7,266.2,125.7,266.2,125.7C266.2,125.7,266.2,125.7,266.2,125.7
		 M266.2,125.7C266.2,125.7,266.2,125.7,266.2,125.7C266.2,125.7,266.2,125.7,266.2,125.7 M266.2,125.6
		C266.2,125.6,266.2,125.6,266.2,125.6C266.2,125.6,266.2,125.6,266.2,125.6 M266.2,125.6C266.2,125.6,266.2,125.6,266.2,125.6
		C266.2,125.6,266.2,125.6,266.2,125.6 M266.2,125.6C266.2,125.6,266.2,125.6,266.2,125.6C266.2,125.6,266.2,125.6,266.2,125.6
		 M266.1,123.5c0.2,0.7,0.2,1.4,0,2.1C266.3,124.9,266.3,124.2,266.1,123.5"/>
	<path class="st3" d="M260.5,119.2c-5.3,0-9.9,1.7-9.9,1.7c-8.1,3.1-7.2,6.5-12.9,7.7c-1,0.2-2,0.3-2.9,0.3c-2.7,0-5-0.9-7-1.7
		c-0.9-0.4-1.7-0.7-2.6-1c-2.1,5.4-2.9,9.9-4.5,13.5c3.8,2.7,8.3,3.9,12.6,3.9c3.5,0,6.9-0.8,9.6-2.1c5.7-2.9,5.3-6.7,12.9-10.3
		c5.3-2.5,9.2-2.3,10.3-5.1l0,0c0,0,0,0,0,0c0,0,0,0,0,0c0,0,0,0,0,0c0,0,0,0,0,0c0,0,0,0,0,0c0-0.1,0.1-0.3,0.1-0.4c0,0,0,0,0,0
		c0,0,0,0,0,0c0,0,0,0,0,0c0,0,0,0,0,0c0,0,0,0,0,0c0,0,0,0,0,0c0,0,0,0,0,0c0,0,0,0,0,0c0,0,0,0,0,0l0,0c0.2-0.7,0.1-1.4,0-2.1
		c-0.3-1.4-1.1-2.8-1.9-3.9C263,119.3,261.7,119.2,260.5,119.2"/>
	<path class="st8" d="M290.5,94.7c-4.6,1.3-3.1,8.6-9.1,20.1c-4.2,8.2-7.6,9.7-9.6,17.6c-1.2,4.7-1.9,7.8-0.5,10.6
		c5.4,10.5,36.4,3.4,39.8,2.6c8.3-1.9,30-6.9,30.8-16.6c0.4-4.4-3.7-7.8-10.6-13.6c-11.4-9.7-15.8-6.5-32.2-17.2
		C295.2,95.7,293,94,290.5,94.7"/>
	<path class="st11" d="M271.8,132.4C271.8,132.4,271.8,132.5,271.8,132.4C271.8,132.5,271.8,132.4,271.8,132.4 M341.9,128.5
		c0,0.2,0,0.4,0,0.6C341.9,128.9,341.9,128.7,341.9,128.5 M278.3,120c-2.8,4.2-5.1,6.6-6.6,12.5C273.2,126.5,275.5,124.2,278.3,120
		C278.3,120,278.3,120,278.3,120"/>
	<path class="st12" d="M278.3,120c-2.8,4.2-5.1,6.6-6.6,12.5c0,0,0,0,0,0c0,0,0,0,0,0c0,0,0,0,0,0l0,0c-0.7,2.9-1.3,5.2-1.3,7.2
		c0,1.2,0.2,2.3,0.8,3.4c2.2,4.4,8.9,5.7,16.2,5.7c10.2,0,21.7-2.6,23.7-3.1c8.3-1.9,30-6.9,30.8-16.6l0,0c0-0.2,0-0.4,0-0.6
		c0-2-0.9-3.8-2.6-5.7c-2.7,1-5.7,2.7-9.2,4.5c0.8,1.2,1.9,2.3,2.4,3.8c0.5,1.5,0.8,3.1,0.5,5l-0.4,0.2c-1.7-0.9-2.8-2.1-3.7-3.3
		c-0.9-1.2-1.2-2.8-1.7-4.2c-2.4,1.1-5.1,2.2-8.1,3c0.1,0.1,0.1,0.2,0.2,0.4c0.7,1.4,1.7,2.6,1.9,4.2c0.3,1.5,0.3,3.1-0.2,4.9
		l-0.4,0.1c-1.5-1.1-2.5-2.3-3.2-3.7c-0.8-1.3-0.8-2.9-1.1-4.4c-0.1-0.2-0.1-0.5-0.2-0.7c-2.6,0.5-5.5,0.9-8.7,0.9
		c-0.4,0-0.8,0-1.3,0c-1.1,0-2.6,0-4.2-0.2c0.5,1.2,0.9,2.4,1.3,3.6c0.4,1.2,1.2,2.4,1.1,3.7c0,1.3-0.2,2.7-1,4.1l-0.4,0.1
		c-1.3-1-2-2.2-2.5-3.4c-0.5-1.2-0.3-2.6-0.4-3.9c-0.1-1.3-0.1-2.6-0.2-3.9c0-0.2,0-0.3,0-0.5c-1.8-0.2-3.7-0.5-5.7-1.1
		c-1.4,0.1-2.8,0.2-4.2,0.3c-0.7,0-1.5,0-2.2,0.1c0.5,1.1,0.9,2.2,1.4,3.4c0.5,1.2,0.9,2.4,1.3,3.7c0.4,1.2,1.2,2.4,1.1,3.7
		c0,1.3-0.2,2.7-1,4.1l-0.4,0.1c-1.3-1-2-2.2-2.5-3.4c-0.5-1.2-0.3-2.6-0.4-3.9c-0.1-1.3-0.1-2.6-0.2-3.9c0-1.2,0-2.5,0-3.7
		c-0.3,0-0.5,0-0.8,0c-2.2,0-4.4-0.1-6.6-0.3c0.2,1,0.4,1.9,0.7,2.9c0.3,1.3,0.5,2.6,0.7,3.9c0.2,1.3,0.8,2.6,0.5,3.9
		c-0.2,1.3-0.6,2.6-1.7,4l-0.4,0c-1.1-1.3-1.6-2.6-1.9-3.9c-0.3-1.3,0.2-2.6,0.3-3.9c0.1-1.3,0.3-2.6,0.5-3.9c0.2-1,0.3-2,0.5-3
		c-0.7-0.1-1.4-0.1-2.2-0.2l0-0.4c0.8,0,1.5,0,2.3-0.1c0-0.1,0-0.1,0-0.2l0.4,0c0,0.1,0,0.1,0.1,0.2c3.3-0.1,6.6-0.4,9.9-1
		c-2.6-1.2-5.1-2.8-7.3-5C280.4,123.5,279.2,121.7,278.3,120"/>
	<path class="st9" d="M324,119.6c-1.2,0.4-2.5,0.8-3.7,1.3l-6.1,2.1c-2,0.7-4,1.5-6,2.2c-2,0.8-4,1.5-6,2.1
		c-4.1,1.2-8.3,2.1-12.6,2.8c-0.1,0-0.2,0-0.3,0c1.5,0.7,3.1,1.2,4.6,1.7c1.9-0.2,3.8-0.4,5.7-0.7c0-0.5,0-1.1,0-1.6l0.4-0.1
		c0.2,0.5,0.4,1,0.6,1.5c0.8-0.1,1.5-0.3,2.3-0.4c4-0.8,8.1-1.7,11.8-3.4c-0.2-1-0.4-2-0.5-3.1l0.4-0.1c0.5,0.8,1,1.7,1.5,2.6
		c1.9-0.9,3.7-2,5.4-3.1c1-0.7,2-1.4,2.9-2.1C324.4,120.7,324.2,120.2,324,119.6 M326.6,118.8c-0.7,0.2-1.5,0.4-2.2,0.7
		c0.3,0.4,0.6,0.7,0.9,1.1c0.5-0.5,1-0.9,1.5-1.4L326.6,118.8"/>
	<path class="st15" d="M279.1,131.2c-0.8,0-1.5,0.1-2.3,0.1l0,0.4c0.7,0.1,1.4,0.2,2.2,0.2C279,131.7,279,131.5,279.1,131.2
		 M289.5,130.2c-3.3,0.5-6.6,0.8-9.9,1c0.1,0.3,0.1,0.5,0.2,0.8c2.2,0.2,4.4,0.3,6.6,0.3c0.3,0,0.5,0,0.8,0c0-0.1,0-0.1,0-0.2
		l0.4-0.1c0,0.1,0.1,0.2,0.1,0.3c0.7,0,1.5,0,2.2-0.1c1.4-0.1,2.8-0.2,4.2-0.3C292.6,131.5,291,130.9,289.5,130.2"/>
	<path class="st15" d="M279.5,131l-0.4,0c0,0.1,0,0.1,0,0.2c0,0.2-0.1,0.5-0.1,0.7c-0.2,1-0.3,2-0.5,3c-0.2,1.3-0.4,2.6-0.5,3.9
		c-0.1,1.3-0.6,2.6-0.3,3.9c0.3,1.3,0.8,2.6,1.9,3.9l0.4,0c1.1-1.3,1.5-2.7,1.7-4c0.3-1.3-0.3-2.6-0.5-3.9c-0.2-1.3-0.4-2.6-0.7-3.9
		c-0.2-1-0.4-1.9-0.7-2.9c-0.1-0.3-0.1-0.5-0.2-0.8C279.6,131.1,279.5,131.1,279.5,131"/>
	<path class="st15" d="M287.6,132l-0.4,0.1c0,0.1,0,0.1,0,0.2c-0.1,1.3,0,2.5,0,3.7c0,1.3,0.1,2.6,0.2,3.9c0.1,1.3-0.2,2.7,0.4,3.9
		c0.5,1.2,1.2,2.4,2.5,3.4l0.4-0.1c0.8-1.5,1-2.8,1-4.1c0-1.3-0.7-2.5-1.1-3.7c-0.4-1.2-0.9-2.5-1.3-3.7c-0.5-1.1-0.9-2.2-1.4-3.4
		C287.7,132.2,287.6,132.1,287.6,132"/>
	<path class="st9" d="M300.2,129.5l-0.4,0.1c0,0.5,0,1.1,0,1.6c0,0.6,0,1.2,0,1.8c0.7,0.1,1.4,0.1,2,0.2c0,0,0,0,0-0.1
		c-0.3-0.7-0.6-1.4-0.9-2.1C300.6,130.5,300.4,130,300.2,129.5"/>
	<path class="st15" d="M299.8,133c0,0.2,0,0.3,0,0.5c0,1.3,0.1,2.6,0.2,3.9c0.1,1.3-0.2,2.7,0.4,3.9c0.5,1.2,1.2,2.4,2.5,3.4
		l0.4-0.1c0.8-1.5,1-2.8,1-4.1c0-1.3-0.7-2.5-1.1-3.7c-0.4-1.2-0.8-2.4-1.3-3.6C301.1,133.1,300.5,133.1,299.8,133"/>
	<path class="st9" d="M324.4,119.4l-0.4,0.2c0,0,0,0,0,0c0.2,0.6,0.3,1.1,0.5,1.6c0.3,1,0.6,1.9,0.9,2.8c0.5,1.5,1,3,1.6,4.4
		c0,0,0,0.1,0.1,0.1c1-0.5,2-0.9,2.9-1.4c0-0.1-0.1-0.1-0.1-0.2c-0.9-1.3-1.7-2.6-2.7-3.9c-0.6-0.9-1.3-1.7-1.9-2.6
		C325,120.2,324.8,119.9,324.4,119.4C324.4,119.5,324.4,119.4,324.4,119.4"/>
	<path class="st15" d="M330,127.3c-0.9,0.5-1.9,0.9-2.9,1.4c0.5,1.4,0.8,3,1.7,4.2c0.9,1.3,2,2.5,3.7,3.3l0.4-0.2
		c0.3-1.9-0.1-3.5-0.5-5C332,129.6,330.9,128.5,330,127.3"/>
	<path class="st15" d="M319,131.7c-1,0.3-2,0.5-3,0.7c0.1,0.2,0.1,0.5,0.2,0.7c0.3,1.5,0.3,3.1,1.1,4.4c0.7,1.3,1.7,2.6,3.2,3.7
		l0.4-0.1c0.5-1.8,0.5-3.4,0.2-4.9c-0.2-1.5-1.2-2.8-1.9-4.2C319.1,131.9,319,131.8,319,131.7"/>
	<path class="st9" d="M314.8,123.9l-0.4,0.1c0.1,1,0.3,2.1,0.5,3.1c0.1,0.5,0.2,1,0.3,1.5c0.2,1.3,0.5,2.5,0.8,3.8
		c1-0.2,2-0.5,3-0.7c-0.6-1.3-1.2-2.5-1.9-3.7c-0.3-0.5-0.5-1-0.8-1.4C315.8,125.7,315.3,124.8,314.8,123.9"/>
	<path class="st16" d="M173.5,97.8c-3.8,0.6-13.3,1.9-15.4,7.7c-0.7,1.9-0.3,3.6,0,5.1c2.9,13,4.4,19.5,10.3,25.7
		c6.3,6.7,13.7,9,18,10.3c6,1.8,18.6,5.7,28.3,0c10.4-6.2,5.3-16.3,18-33.4c8.6-11.5,16.6-14.6,15.4-20.6
		c-1.3-6.7-12.8-9.6-15.4-10.3C211.7,77.1,203.6,93,173.5,97.8"/>
	<path class="st8" d="M186.3,139c6.5,4.3,22.6-6.4,33.4-18c16.2-17.3,25.8-42.2,20.6-46.3c-1.3-1-3-0.5-5.1,0
		c-8.7,2-13.8,1.3-19.3,0.5c-4-0.5-8.2-1-14.2-0.5c-13.6,1.1-34,7.4-36,18c-0.9,5,3,6.6,2.6,15.4c-0.4,8.8-4.7,11.7-2.6,15.4
		c2.5,4.5,9.3,1.7,15.4,7.7C184.9,134.9,183.9,137.3,186.3,139"/>
	<polyline class="st11" points="165.8,92.7 165.8,92.7 165.8,92.7 	"/>
	<path class="st11" d="M187,139.4C187,139.4,187,139.4,187,139.4C187,139.4,187,139.4,187,139.4 M187,139.3
		C187,139.4,187,139.4,187,139.3C187,139.4,187,139.4,187,139.3 M186.3,139c0.2,0.1,0.4,0.3,0.7,0.4
		C186.8,139.2,186.6,139.1,186.3,139"/>
	<path class="st12" d="M177.3,81.2c-6,2.9-10.6,6.8-11.5,11.5l0,0c0,0,0,0,0,0l0,0c-0.1,0.5-0.1,1-0.1,1.5c0,3.7,2.8,5.8,2.8,12.6
		c0,0.4,0,0.9,0,1.4c-0.4,7.1-3.1,10.3-3.1,13.3c0,0.7,0.2,1.4,0.6,2.1c2.5,4.5,9.3,1.7,15.4,7.7c3.6,3.6,2.7,6.1,5.1,7.7l0,0
		c0.2,0.1,0.4,0.3,0.7,0.4c0,0,0,0,0,0c0,0,0,0,0,0c0,0,0,0,0,0c0,0,0,0,0,0c0.9,0.4,1.8,0.6,2.9,0.6c7.3,0,19.3-8.2,28.3-17.4
		c-3.8,1.6-8.8,3.6-15.2,4.9c-0.4,0.1-0.7,0.1-1.1,0.2c0.1,0.5,0.2,1,0.2,1.5c0,0.6,0,1.3-0.3,2l-0.3,0.2c-0.8-0.2-1.3-0.5-1.9-0.9
		c-0.5-0.3-0.9-0.7-1.3-1.2c-0.4-0.4-0.6-0.9-0.8-1.5c-0.7-0.1-1.5-0.2-2.3-0.4c-1.5-0.4-2.5-1.1-7.2-5.1c-0.1,0-0.3,0.1-0.4,0.1
		l-0.1-0.4c0.1,0,0.1,0,0.2-0.1c-0.8-0.7-1.7-1.4-2.7-2.3c-4.3-3.7-4.7-4.2-5.1-5.1c-1.7-3.6,0.8-5.5,0-10.3
		c-1.1-6.6-4.5-7.4-5.1-12.9C174.2,86.5,176.5,83.5,177.3,81.2"/>
	<path class="st9" d="M223.4,86.2c-1.3,1.9-2.4,3.7-3.6,5.5c-1.2,1.8-2.4,3.6-3.6,5.3c-2.5,3.4-4.7,7-7.6,10.2
		c-2.9,3.1-6.1,6-9.7,8.5c-3.5,2.5-7.2,4.6-11.1,6.4c0.1,0.1,0.3,0.2,0.4,0.3c4.1-1.2,8-2.9,11.8-5c1.7-1,3.4-2,5-3.2
		c-0.2-0.4-0.4-0.8-0.6-1.2l0.3-0.3c0.4,0.3,0.8,0.6,1.2,0.8c1.5-1.1,2.9-2.2,4.2-3.5c-0.4-0.6-0.8-1.1-1.1-1.7l0.3-0.3
		c0.7,0.3,1.3,0.7,1.9,1.1c1.5-1.4,3-2.9,4.4-4.4c0.4-0.5,0.8-1,1.2-1.5c-0.4-0.4-0.7-0.9-1-1.3l0.2-0.3c0.5,0.2,1,0.4,1.6,0.6
		c0.7-1,1.4-2,2-3c0.6-1,1.1-2,1.5-3.1c-0.9-0.6-1.8-1.2-2.7-1.9l0.1-0.4c1.1,0.1,2.2,0.3,3.3,0.5c1-2.6,1.7-5.2,2-8L223.4,86.2"/>
	<path class="st15" d="M187.7,122c-0.1,0-0.1,0-0.2,0.1l0.1,0.4c0.1,0,0.3-0.1,0.4-0.1C188,122.2,187.9,122.1,187.7,122"/>
	<path class="st9" d="M195.5,119.6l-0.3,0.2c0.3,1.1,0.6,2.2,0.9,3.3c0.3,1.1,0.7,2.1,1.1,3.2c0.2,0.5,0.3,1.1,0.5,1.6
		c0.4,0,0.8,0.1,1.2,0.1c1.1,0,2.1-0.1,3.1-0.3c0-0.1,0-0.1-0.1-0.2c-0.3-1.1-1.3-1.8-2-2.7c-0.7-0.9-1.4-1.8-2.1-2.6
		C197.1,121.3,196.3,120.4,195.5,119.6"/>
	<path class="st15" d="M202,127.6c-1,0.2-2,0.3-3.1,0.3c-0.4,0-0.8,0-1.2-0.1c0.2,0.6,0.4,1.1,0.8,1.5c0.4,0.4,0.8,0.8,1.3,1.2
		c0.5,0.3,1.1,0.7,1.9,0.9l0.3-0.2c0.2-0.8,0.3-1.4,0.3-2C202.2,128.6,202.1,128.1,202,127.6"/>
	<path class="st9" d="M204.7,112.6l-0.3,0.3c0.2,0.4,0.4,0.8,0.6,1.2c0.3,0.6,0.6,1.2,1,1.8c0.5,1,1.1,2,1.7,2.9
		c0.6,0.9,0.9,2.1,1.9,2.8c0.5,0.3,1,0.6,1.5,0.9c0.6,0.2,1.2,0.4,2,0.5l0.3-0.3c0.1-0.8,0-1.4-0.2-2c-0.1-0.6-0.4-1.1-0.6-1.6
		c-0.5-1-1.6-1.5-2.5-2.2c-0.8-0.7-1.7-1.4-2.6-2.1c-0.5-0.4-1-0.8-1.5-1.1C205.5,113.2,205.1,112.9,204.7,112.6"/>
	<path class="st9" d="M209.3,108l-0.3,0.3c0.4,0.6,0.7,1.2,1.1,1.7c0.2,0.4,0.5,0.7,0.8,1.1c0.6,0.9,1.3,1.8,2,2.7
		c0.7,0.9,1.1,2,2.2,2.5c0.5,0.3,1,0.5,1.6,0.7c0.5,0.1,1,0.3,1.7,0.3c0.1,0,0.2,0,0.3,0l0.3-0.3c0-0.8-0.2-1.4-0.4-2
		c-0.2-0.6-0.5-1.1-0.8-1.6c-0.6-1-1.8-1.3-2.7-2c-0.9-0.6-1.9-1.2-2.8-1.8c-0.3-0.2-0.7-0.4-1-0.6
		C210.6,108.7,209.9,108.3,209.3,108"/>
	<path class="st9" d="M216,101.5l-0.2,0.3c0.3,0.5,0.7,0.9,1,1.3c0.3,0.4,0.7,0.8,1.1,1.3c0.7,0.8,1.5,1.6,2.2,2.4
		c0.8,0.8,1.3,1.8,2.3,2.2c0.5,0.2,1,0.4,1.6,0.5c0.3,0.1,0.7,0.1,1,0.1c0.3,0,0.6,0,1-0.1l0.2-0.3c-0.1-0.8-0.3-1.4-0.6-1.9
		c-0.3-0.6-0.6-1-0.9-1.4c-0.7-0.9-1.9-1.1-2.8-1.6c-1-0.5-1.9-1-2.9-1.4c-0.5-0.2-1-0.4-1.5-0.7C217.1,102,216.6,101.7,216,101.5"
		/>
	<path class="st9" d="M218.5,93.8l-0.1,0.4c0.9,0.7,1.8,1.3,2.7,1.9c0.1,0.1,0.2,0.1,0.2,0.2c1,0.6,2,1.3,3,1.8
		c1,0.6,1.9,1.5,3.1,1.7c0.4,0.1,0.8,0.1,1.3,0.1c0.2,0,0.4,0,0.6,0c0.6,0,1.3-0.2,2.1-0.5l0.1-0.4c-0.3-0.7-0.7-1.3-1.2-1.8
		c-0.4-0.5-0.9-0.9-1.4-1.2c-1-0.7-2.2-0.6-3.4-0.9c-1.1-0.3-2.3-0.5-3.4-0.7c-0.1,0-0.2,0-0.2,0C220.7,94.1,219.7,93.9,218.5,93.8"
		/>
	<path class="st17" d="M232.7,113.1C232.7,113.1,232.7,113.1,232.7,113.1c-0.1,0.1-0.1,0.1-0.1,0.2L232.7,113.1"/>
	<path class="st18" d="M161.4,101.6c-1.5,1-2.7,2.3-3.3,3.9l0,0c-0.3,0.8-0.4,1.6-0.4,2.3c0,1,0.2,1.9,0.4,2.8
		c2.9,13,4.4,19.5,10.3,25.7c6.3,6.7,13.7,9,18,10.3c3.7,1.1,9.8,3,16.2,3c4.1,0,8.3-0.8,12.1-3c10.4-6.2,5.3-16.3,18-33.4l0,0
		c0-0.1,0.1-0.1,0.1-0.2c-1.6,1.5-3.5,3.4-5.3,5.3c-9.1,9.7-8.7,15.4-15.4,20.6c-6.4,4.9-13.8,5.1-17.3,5.1c-0.3,0-0.5,0-0.7,0
		c-11.1-0.1-22.2-5.9-28.3-15.4c-5.4-8.4-5.2-17.1-5.1-20.6C160.7,105.7,161,103.5,161.4,101.6"/>
</g>
</svg>
