<?xml version="1.0" encoding="utf-8"?>
<!-- Generator: Adobe Illustrator 21.1.0, SVG Export Plug-In . SVG Version: 6.00 Build 0)  -->
<svg version="1.1" id="Layer_1" xmlns="http://www.w3.org/2000/svg" xmlns:xlink="http://www.w3.org/1999/xlink" x="0px" y="0px"
	 viewBox="0 0 365 235" style="enable-background:new 0 0 365 235;" xml:space="preserve">
<style type="text/css">
	.st0{fill:#FF9200;}
	.st1{fill:#FF9566;}
	.st2{fill:#FF6900;}
	.st3{fill:#FFE4BF;}
	.st4{fill:#FF8200;}
	.st5{fill:#CBBE7A;}
	.st6{fill:#D6C886;}
	.st7{fill:#EFDFA3;}
	.st8{fill:#EFEBD7;}
	.st9{fill:#D3C582;}
	.st10{fill:#E4D597;}
	.st11{fill:#FF4E00;}
	.st12{fill:#E14500;}
	.st13{fill:#A63000;}
	.st14{fill:#D24000;}
	.st15{fill:#375271;}
	.st16{fill:#25405F;}
	.st17{fill:#D3C7C4;}
	.st18{fill:#2F4A69;}
</style>
<g>
	<path class="st0" d="M326.2,56.1c-4.9-13.7-36.3-9.2-87.3-4.1c-2.8,0.3-5.3,1.8-6.9,4.1c-2.5,3.5-5.7,6.7-7.5,8.5
		c-5.8,5.6-13,9.7-24.3,12.6c-3.1,0.8-55.1,13.7-69.8-10.6c-0.2-0.4-0.6-0.9-0.9-1.6c-1.7-3.2-5.1-5.2-8.7-5
		c-47.9,1.8-67.2,2.2-70,14.9c-4.3,19.8,35.2,49.3,59,61.6c46.9,24.3,90.8,11.9,118.5,4.2c37.5-10.5,58.3-28,67.8-37
		C304.8,95.3,331.2,70.2,326.2,56.1"/>
	<path class="st1" d="M130.8,65.2c-0.3,0.1-0.6,0.1-0.9,0.2c0.1,0.2,0.3,0.5,0.4,0.7c0.2-0.2,0.5-0.4,0.7-0.6L130.8,65.2"/>
	<path class="st2" d="M129.9,65.4c-0.5,0.1-1.1,0.2-1.6,0.3c-0.8,0.1-1.7,0.3-2.5,0.4c-0.2,0-0.3,0-0.5,0c-0.1,0-0.3,0-0.4,0
		c-0.1,0-0.3,0-0.4,0c-0.4,0-0.7,0-1.1,0.2c-0.8,0.3-1.5,0.6-2.4,1.5l0,0.3c0.4,0.4,0.9,0.6,1.4,0.8c0.5,0.2,0.9,0.3,1.4,0.3
		c0.1,0,0.1,0,0.2,0c0.9,0,1.6-0.5,2.4-0.9c0.8-0.4,1.6-0.8,2.4-1.3c0.5-0.3,1-0.7,1.4-1.1C130.1,65.9,130,65.7,129.9,65.4"/>
	<path class="st1" d="M184.6,79.7l-0.3,0c0,0.1,0,0.2,0,0.3c0.1,0,0.3,0,0.4-0.1C184.6,79.8,184.6,79.7,184.6,79.7"/>
	<path class="st2" d="M184.7,79.9c-0.1,0-0.3,0-0.4,0.1c-0.1,1.2-0.1,2.3,0,3.5c0.1,1.3,0.4,2.5,0.8,3.8c0.4,1.2,0.7,2.6,1.7,3.5
		c0.9,1,2,1.8,3.5,2.1l0.2-0.2c-0.1-0.7-0.3-1.3-0.5-1.9c-0.2-0.6-0.4-1.1-0.7-1.6c-0.5-1-1.3-1.8-1.9-2.8c-0.6-1-1.1-2-1.6-3.1
		C185.3,82.1,185,81,184.7,79.9"/>
	<path class="st2" d="M138.6,77.8c-0.8,0.3-1.5,0.6-2.2,1c-0.7,0.4-1.4,0.8-2.1,1.3c-0.7,0.5-1.5,0.8-1.9,1.5
		c-0.2,0.4-0.4,0.8-0.4,1.2c-0.1,0.4-0.1,0.9,0,1.5l0.2,0.2c0.6,0,1-0.2,1.4-0.3c0.4-0.1,0.7-0.3,1.1-0.6c0.7-0.4,0.9-1.2,1.3-1.8
		l1.4-1.8c0.4-0.6,0.9-1.2,1.4-1.9L138.6,77.8"/>
	<path class="st2" d="M147.8,81.2c-0.7,0.3-1.2,0.8-1.8,1.2c-0.6,0.5-1.1,1-1.5,1.7c-0.4,0.6-1.1,1.2-1.1,2c0,0.8,0.1,1.6,0.9,2.4
		l0.3,0c0.5-0.3,0.8-0.5,1.1-0.8c0.3-0.3,0.5-0.5,0.7-0.8c0.4-0.5,0.2-1.2,0.4-1.8c0.2-0.6,0.4-1.2,0.6-1.9c0.2-0.6,0.5-1.3,0.8-1.9
		L147.8,81.2"/>
	<path class="st2" d="M160.2,82.5l-0.3,0c-0.2,0.7-0.3,1.4-0.5,2c-0.1,0.7-0.2,1.4-0.3,2c-0.1,0.7-0.4,1.4-0.2,2
		c0.1,0.3,0.3,0.7,0.5,1c0.2,0.3,0.5,0.6,1,0.9l0.3,0c0.4-0.4,0.7-0.7,0.8-1.1c0.2-0.3,0.3-0.7,0.4-1c0.2-0.7-0.3-1.3-0.4-2
		c-0.2-0.7-0.4-1.3-0.6-2C160.6,83.8,160.4,83.2,160.2,82.5"/>
	<path class="st2" d="M173.3,83.7l-0.3,0.1c0,0.8,0.1,1.5,0.1,2.3c0,0.8,0,1.5,0,2.2c0,0.7-0.3,1.5,0,2.2c0.1,0.3,0.3,0.7,0.5,1.1
		c0.2,0.4,0.5,0.7,0.9,1.1l0.3,0c0.8-0.7,1.1-1.6,1.3-2.4c0.2-0.8-0.3-1.6-0.6-2.4c-0.3-0.8-0.6-1.5-1-2.2
		C174.2,85,173.8,84.3,173.3,83.7"/>
	<path class="st2" d="M196,79.2l-0.2,0.2c0.6,0.8,1.2,1.6,1.7,2.4c0.5,0.8,1,1.6,1.4,2.5c0.4,0.8,0.5,1.8,1.1,2.5
		c0.3,0.4,0.6,0.7,1,1.1c0.4,0.4,0.8,0.7,1.3,1l0.3-0.1c0.5-1.2,0.4-2.3,0.1-3.4c-0.3-1.1-1.2-1.8-1.9-2.6c-0.7-0.8-1.5-1.5-2.3-2.1
		C197.8,80.2,196.9,79.6,196,79.2"/>
	<path class="st2" d="M208.7,75.3l-0.2,0.3c0.5,0.6,0.9,1.1,1.3,1.8c0.4,0.6,0.8,1.2,1.1,1.8c0.3,0.6,0.4,1.4,0.9,1.8
		c0.2,0.2,0.5,0.5,0.9,0.7c0.3,0.2,0.7,0.4,1.2,0.6l0.3-0.1c0.5-1,0.5-1.9,0.2-2.7c-0.2-0.8-1-1.3-1.6-1.8c-0.6-0.5-1.3-1-1.9-1.4
		C210.2,75.8,209.5,75.5,208.7,75.3"/>
	<path class="st2" d="M225.7,71.3c-0.1,0-0.2,0-0.3,0c-0.1,0-0.2,0-0.3,0c0,0-0.1,0-0.1,0c-0.3,0-0.5,0-0.8,0c-0.1,0-0.3,0-0.4,0
		c-0.4,0-0.8,0-1.3,0.1l-0.1,0.3c0.2,0.4,0.5,0.7,0.8,1c0.3,0.3,0.6,0.6,0.9,0.9c0.3,0.2,0.5,0.7,0.8,0.7c0,0,0,0,0.1,0
		c0.2,0,0.4-0.1,0.7-0.2c0.3-0.1,0.5-0.3,0.9-0.6l0.1-0.3c0-0.5-0.1-0.8-0.2-1.1c-0.1-0.3-0.2-0.5-0.3-0.6
		C226,71.3,225.8,71.3,225.7,71.3"/>
	<path class="st2" d="M235.1,59.9c-0.4,0-0.8,0.2-1.1,0.2c-0.5,0.1-1,0.2-1.6,0.3c-0.5,0.1-1,0.3-1.6,0.4l0,0.3
		c0.5,0.3,1,0.5,1.5,0.8c0.5,0.2,1,0.4,1.5,0.6c0.4,0.1,0.8,0.5,1.2,0.5c0.1,0,0.2,0,0.2,0c0.3-0.1,0.5-0.2,0.8-0.4
		c0.3-0.2,0.6-0.4,0.8-0.8l0-0.3c-0.2-0.5-0.4-0.7-0.7-1c-0.2-0.2-0.5-0.4-0.7-0.5C235.4,59.9,235.2,59.9,235.1,59.9"/>
	<path class="st2" d="M243.8,56.7c-0.7,0-1.4,0.3-2.1,0.3c-0.9,0.1-1.8,0.1-2.7,0.1c-0.2,0-0.3,0-0.5,0c-0.8,0-1.5-0.1-2.3-0.1
		l-0.1,0.3c0.8,0.5,1.7,0.9,2.6,1.3c0.9,0.4,1.8,0.6,2.8,0.8c0.7,0.1,1.5,0.4,2.2,0.4c0.2,0,0.5,0,0.7-0.1c0.5-0.1,1-0.3,1.4-0.6
		c0.5-0.3,0.9-0.6,1.3-1.1l-0.1-0.3c-1.1-0.7-1.9-0.9-2.8-1C244.1,56.7,244,56.7,243.8,56.7"/>
	<path class="st2" d="M182.6,83.4l-0.3,0c-0.1,1.3-0.2,2.6-0.5,3.9c-0.2,1.3-0.6,2.5-1,3.7c-0.4,1.2-1.2,2.2-1.5,3.4
		c-0.2,0.6-0.3,1.2-0.4,1.9c-0.1,0.6-0.2,1.3-0.2,2.1l0.2,0.2c1.4-0.6,2.4-1.7,3.1-2.9c0.8-1.2,0.9-2.7,1-4.1
		c0.2-1.4,0.3-2.8,0.1-4.1C183.2,86,183,84.6,182.6,83.4"/>
	<path class="st2" d="M230.6,71.9l-0.1,0.3c0.6,0.6,1.3,1.1,1.9,1.7l1.8,1.6c0.6,0.5,1,1.3,1.8,1.6c0.4,0.2,0.8,0.3,1.2,0.4
		c0.3,0.1,0.7,0.1,1.1,0.1c0.1,0,0.3,0,0.4,0l0.2-0.2c0-0.6-0.2-1.1-0.4-1.5c-0.2-0.4-0.4-0.8-0.7-1.1c-0.6-0.7-1.5-0.9-2.3-1.2
		c-0.8-0.4-1.6-0.7-2.4-0.9C232.2,72.3,231.4,72,230.6,71.9"/>
	<path class="st2" d="M221.5,77.4l-0.2,0.2c0.5,0.6,0.9,1.2,1.3,1.8c0.4,0.6,0.7,1.2,1,1.8c0.3,0.6,0.3,1.4,0.8,1.8
		c0.2,0.2,0.5,0.5,0.8,0.7c0.3,0.2,0.7,0.5,1.2,0.7l0.3-0.1c0.5-1,0.5-1.9,0.3-2.7c-0.2-0.8-1-1.3-1.6-1.9c-0.6-0.6-1.2-1.1-1.9-1.5
		C223,78,222.3,77.7,221.5,77.4"/>
	<path class="st2" d="M209,81.3l-0.3,0c-0.1,0.7-0.2,1.5-0.3,2.2c-0.1,0.7-0.1,1.5-0.2,2.2c0,0.7-0.3,1.5,0,2.2
		c0.1,0.3,0.3,0.7,0.6,1c0.3,0.3,0.6,0.7,1,1l0.3,0c0.4-0.4,0.6-0.8,0.8-1.2c0.2-0.4,0.3-0.8,0.3-1.1c0.1-0.7-0.4-1.4-0.6-2.1
		c-0.2-0.7-0.5-1.4-0.7-2.1C209.6,82.7,209.4,82,209,81.3"/>
	<path class="st2" d="M195.1,85.3c-0.4,0.8-0.6,1.6-0.9,2.4c-0.2,0.8-0.4,1.7-0.5,2.5c-0.1,0.9-0.4,1.8-0.1,2.6
		c0.3,0.8,0.8,1.6,1.8,2.3l0.3-0.1c0.3-0.5,0.5-0.9,0.7-1.3c0.2-0.4,0.2-0.8,0.3-1.2c0.1-0.8-0.3-1.5-0.5-2.3
		c-0.1-0.8-0.3-1.6-0.4-2.4c-0.1-0.8-0.2-1.6-0.3-2.5L195.1,85.3"/>
	<path class="st2" d="M170.2,85.2c-0.9,0.7-1.6,1.4-2.4,2.3c-0.7,0.8-1.4,1.8-1.9,2.7c-0.6,1-1.3,1.9-1.4,3.1
		c-0.1,1.1,0,2.3,0.7,3.5l0.3,0c0.5-0.5,0.8-0.9,1.1-1.4c0.3-0.5,0.6-0.9,0.8-1.4c0.5-0.9,0.4-1.9,0.7-2.9c0.3-1,0.6-1.9,1-2.9
		c0.4-1,0.9-1.9,1.4-2.9L170.2,85.2"/>
	<path class="st2" d="M155.8,83.8c-0.7,0.4-1.4,0.9-2.1,1.4c-0.6,0.6-1.2,1.2-1.7,1.9c-0.5,0.7-1.2,1.3-1.3,2.2
		c-0.1,0.9,0,1.8,0.7,2.7l0.3,0.1c0.5-0.3,0.8-0.6,1.1-0.9c0.3-0.3,0.5-0.6,0.7-0.9c0.4-0.6,0.3-1.4,0.6-2.1
		c0.2-0.7,0.5-1.4,0.8-2.1c0.3-0.7,0.7-1.4,1.1-2.1L155.8,83.8"/>
	<path class="st2" d="M140.5,82.5c-0.5,0-0.9,0.1-1.3,0.2c-0.4,0.1-0.8,0.2-1.3,0.3c-0.4,0.1-1,0-1.2,0.4c-0.1,0.2-0.2,0.4-0.3,0.7
		c0,0.3-0.1,0.6,0,1.1l0.2,0.2c0.4,0.2,0.7,0.4,1,0.4c0.2,0,0.3,0.1,0.5,0.1c0.1,0,0.2,0,0.3,0c0.5,0,0.6-0.6,0.8-0.9
		c0.3-0.3,0.5-0.7,0.7-1c0.2-0.4,0.5-0.7,0.7-1.2L140.5,82.5"/>
	<path class="st2" d="M127.5,73c-0.5,0-0.9,0-1.4,0c0,0-0.1,0-0.1,0c-0.1,0-0.3,0-0.4,0c-0.1,0-0.3,0-0.4,0c-0.3,0-0.5,0-0.7,0.2
		c-0.2,0.2-0.5,0.4-0.7,0.7c-0.2,0.3-0.4,0.6-0.5,1.1l0.1,0.3c0.4,0.3,0.7,0.5,1,0.6c0.3,0.1,0.6,0.2,0.9,0.2c0,0,0.1,0,0.1,0
		c0.5,0,0.9-0.5,1.4-0.8c0.5-0.3,1-0.6,1.4-0.9c0.5-0.4,0.9-0.7,1.4-1.1l-0.1-0.3c-0.6-0.1-1.2-0.1-1.7-0.1
		C127.7,73,127.6,73,127.5,73"/>
	<path class="st3" d="M299.5,100.2c-1.3,1.2-2.4,2.3-3.4,3.2C297,102.6,298.2,101.5,299.5,100.2"/>
	<path class="st4" d="M326.4,63.5c-0.8,0.9-1.7,1.8-2.6,2.7c-26.1,26.2-57.3,39.6-82.9,46.8c11.9,2,22.8,4.9,32,8.2
		c10.9-6.7,18.4-13.3,23.1-17.7l0,0c0.9-0.9,2.1-2,3.4-3.2C308.2,91.8,323.7,75.9,326.4,63.5"/>
	<path class="st4" d="M52.6,70.4c-0.9,1.2-1.5,2.6-1.8,4.2l0,0c-0.2,1-0.3,2-0.3,3.1c0,19.6,36.8,46.8,59.3,58.5
		c13.8,7.1,27.3,11.1,40.2,13l2.4-20.5l0,0l0.2-1.3l0,0c0.1-0.9,0.3-1.7,0.7-2.5c-14.3-0.5-29.1-3.3-44.8-10.1
		C100,111.2,70.2,98.3,52.6,70.4"/>
	<path class="st5" d="M152.6,127.4l-3.6,30.1c-1.6,13.8,30.5,28.9,71.7,33.8c41.3,4.9,76-2.3,77.7-16l3.6-30.1L152.6,127.4"/>
	<path class="st6" d="M153.5,132.5c2.7,10.5,5.7,24.1,16.2,33.9c0.2,0.2,0.3,0.3,0.5,0.5c4.4-2.3,9.4-3.5,14.4-3.5
		c4.5,0,9,1,13.2,3.3c5.3,2.9,9.3,7.4,11.9,12.6c25.2,5.5,41.9,7.3,53.2,7.3c12.8,0,18.7-2.2,22-3.7c2.7-1.2,8-3.6,13.6-8.3l0,0l0,0
		l-0.1,0.8c0,0.1,0,0.1,0,0.2l0,0c0-0.1,0-0.1,0-0.2l3.6-30.1l0,0c-0.9,7.2-10.8,12.6-25.9,15.4c-7.7,1.4-16.6,2.2-26.5,2.2
		c-8,0-16.5-0.5-25.3-1.5C188.1,156.9,159,144.7,153.5,132.5 M152.6,127.4l-0.2,1.3c0,0.1,0.1,0.3,0.1,0.4
		C152.5,128.6,152.5,128,152.6,127.4"/>
	<path class="st7" d="M302,145.2c-1.6,13.8-36.4,20.9-77.7,16c-41.3-4.9-73.4-20-71.7-33.8c1.6-13.8,36.4-20.9,77.7-16
		C271.5,116.3,303.6,131.4,302,145.2"/>
	<path class="st5" d="M228,130.8c-0.9-0.9-1.6-1.7-2.2-2.5l-0.9-1.1c-0.3-0.4-0.6-0.7-0.8-1.1c-0.4-0.8-0.9-2-1.7-2.6
		c-0.9-0.6-2-0.8-3-0.7c-0.5,0.1-1,0.3-1.2,0.4l0,0.1l0.1,0l0.1-0.1c0.1-0.1,0.2-0.2,0.3-0.3c0.1-0.1,0.1-0.2,0.1-0.2
		c0.1,0,0.2,0.3,0.5,0.7c0.2,0.3,0.5,0.8,0.7,1.2c1,1.8,2,3.7,2.5,6.2l-0.3,0.3c-1.2-0.4-2.3-1-3.2-1.7c-1-0.7-1.8-1.5-2.5-2.5
		c-0.4-0.5-0.7-1-0.9-1.7c-0.2-0.7-0.5-1.3-0.5-2.5c0-0.3,0.1-0.7,0.2-1c0.1-0.4,0.4-0.8,0.8-1c0.2-0.2,0.3-0.2,0.5-0.3
		c0.2-0.1,0.3-0.1,0.5-0.2c0.3-0.1,0.6-0.1,0.8-0.1c0.9,0,1.5,0.3,2.1,0.6c1.1,0.6,2.1,1.3,3.2,1.7c1.1,0.4,2.5,0.6,3.5,1.4
		c1.1,0.8,1.7,2,2.1,3.2c0.3,1.2,0.4,2.5-0.2,3.8L228,130.8z"/>
	<path class="st5" d="M224.3,135.7c-1.4,0.5-2.6,0.7-3.7,1c-0.6,0.1-1.1,0.3-1.6,0.4c-0.5,0.2-1,0.3-1.4,0.4c-0.5,0.1-1,0.2-1.4,0.4
		c-0.4,0.2-0.8,0.6-0.8,1.1c-0.1,1.1,0.8,2.2,1.8,2.6c0.5,0.2,1,0.3,1.4,0.3c0.4,0,0.8,0,1.3-0.1c0.9-0.2,1.8-0.7,2.7-1.1
		c1.9-0.9,3.9-2.2,6.4-3.6l0.3,0.2c-0.4,2.9-2.1,5.4-4.7,7.1c-1.3,0.8-2.9,1.2-4.6,1.2c-0.8,0-1.7-0.2-2.5-0.6
		c-0.8-0.4-1.4-1.1-1.9-1.7c-0.5-0.6-0.8-1.3-1-2c-0.3-0.7-0.5-1.4-0.6-2.1c-0.1-0.8,0-1.7,0.3-2.5c0.4-0.8,0.9-1.5,1.6-2
		c1.4-1,3-1.1,4.4-1c1.5,0.2,2.8,0.7,4,1.7L224.3,135.7z"/>
	<path class="st5" d="M232,131.8c0.9-0.9,1.9-1.6,3.1-2.1c0.6-0.3,1.2-0.4,1.9-0.6c0.7-0.1,1.3-0.2,2-0.2c0.7,0,1.4,0,2.1,0.1
		c0.7,0.1,1.4,0.4,2,0.8c0.6,0.4,1.1,1,1.4,1.6c0.4,0.6,0.6,1.3,0.6,2.2l-0.3,0.3c-0.8,0-1.4-0.1-2-0.2c-0.6-0.1-1.1-0.2-1.6-0.3
		c-0.5-0.1-0.9-0.3-1.3-0.6c-0.4-0.3-0.9-0.5-1.3-0.7c-1-0.3-2-0.4-3.1-0.4c-1.1,0-2.2,0.2-3.4,0.5L232,131.8z"/>
	<path class="st5" d="M234.7,135.7c0.6,0.3,1.2,0.5,1.8,0.5c0.3,0.1,0.6,0.1,0.8,0.1c0.3,0,0.5,0,0.8,0c0.2,0,0.5-0.2,0.7-0.3
		c0.2-0.1,0.4-0.1,0.6,0s0.5,0.2,0.8,0.5c0.3,0.2,0.7,0.5,1.2,0.9l0.2,0.4c-0.1,0.7-0.3,1.1-0.6,1.5c-0.3,0.4-0.7,0.6-1.1,0.8
		s-0.9,0.2-1.3,0c-0.4-0.2-0.8-0.4-1.2-0.6c-0.8-0.4-1.4-0.9-1.9-1.4c-0.5-0.6-0.9-1.3-1.1-2L234.7,135.7z"/>
	<path class="st8" d="M302,145.2C302,145.2,302,145.2,302,145.2C302,145.2,302,145.2,302,145.2 M302,145.2
		C302,145.2,302,145.2,302,145.2C302,145.2,302,145.2,302,145.2 M302,145.1C302,145.1,302,145.1,302,145.1
		C302,145.1,302,145.1,302,145.1"/>
	<path class="st9" d="M302,145.2c-0.9,7.2-10.8,12.6-25.9,15.4C291.2,157.8,301.1,152.4,302,145.2"/>
	<path class="st10" d="M269,119.8c5.3,3.5,17.3,8.2,16,15.4c-0.5,2.7-2.8,5-3.6,5.8c-1.1,1-5.9,5.4-19.5,8.1
		c-15.6,3.1-30.7,4.1-43.9,4.1c-17.7,0-32.1-1.8-39.9-3.1c12.4,5,28.5,9,46.3,11.1c8.8,1,17.3,1.5,25.3,1.5c9.8,0,18.8-0.8,26.5-2.2
		c15.2-2.8,25.1-8.2,25.9-15.4l0,0l0,0c0,0,0,0,0,0c0,0,0,0,0,0c0,0,0,0,0,0c0,0,0,0,0,0c0,0,0,0,0,0
		C303,136.2,289.7,126.7,269,119.8"/>
	<path class="st5" d="M284.9,182.8c-6.4,2.8-21.7,8.4-77.1-3.9c-21.8-4.9-32.8-7.5-38.2-12.5c-11.8-11-14.2-26.8-17.3-37.7
		l-3.4,28.9c-1.6,13.8,30.5,28.9,71.7,33.8c41.3,4.9,76-2.3,77.7-16l0.1-0.8C293,179.1,287.7,181.6,284.9,182.8"/>
	<circle class="st11" cx="90.8" cy="134.6" r="50"/>
	<path class="st12" d="M134.4,159c-3.6,3.8-10.8,10.3-21.7,13.6c-25.4,7.8-46.7-8.9-48-10c-22.5-18.3-19.6-47.1-19.3-49.1
		c-3,6.4-4.7,13.5-4.7,21.1c0,27.6,22.4,50,50,50C109.5,184.6,125.9,174.3,134.4,159z"/>
	<path class="st13" d="M82.8,53.1L82.8,53.1c-4.5-8.9-10.3-17.3-17.9-23.8C63,27.7,61,26.1,59,24.7c-2.1-1.4-4.2-2.8-6.3-4l0,0
		c-1.8-1-3.7-2-5.6-2.8c1.8,1.1,3.5,2.3,5.2,3.5l0,0c4,2.9,7.8,6,11.3,9.4l0,0c1.7,1.7,3.5,3.4,5.1,5.2v0l0,0l0,0l0,0
		c0.9,0.9,1.6,1.9,2.4,2.8l0,0l2.4,2.8l0,0c0.9,1,1.6,2,2.2,2.9l0,0l2.1,2.9l0,0c1.4,2.1,2.6,4.2,3.8,6.2l0,0
		c4.7,8.7,7.9,18.1,9.8,27.8l0,0l0,0l0,0C90,71.7,87.2,62.1,82.8,53.1z"/>
	<path class="st13" d="M93.4,81.2L93.4,81.2c-1.5-10-4.4-19.8-8.9-29l0,0C80,43.2,74,34.5,66.2,27.8l0,0c-2-1.6-3.9-3.2-6.1-4.7l0,0
		c-2.1-1.4-4.2-2.8-6.5-4.1l0,0l0,0c-4.4-2.5-9.1-4.5-14-6c-0.5-0.1-1,0.1-1.2,0.6l-0.2,0.4c-0.2,0.5,0,1,0.4,1.3
		c4.3,2.5,8.4,5,12.4,7.9l0,0c3.9,2.8,7.6,5.9,11.1,9.2l0,0c1.7,1.7,3.4,3.4,5,5.1l0,0c0.8,0.8,1.5,1.7,2.3,2.7l0,0l2.4,2.8l0,0
		c0.7,0.8,1.4,1.8,2.1,2.8l2.1,2.9c1.3,2,2.5,4.1,3.8,6.1c4.6,8.4,7.7,17.7,9.5,27.2c0.9,4.8,1.5,9.6,1.8,14.5
		c0.1,2,0.2,4.1,0.2,6.1c0,2.9-0.1,5.7-0.3,8.6c0,0.5,0.3,1,0.9,1.1l0.4,0c0.5,0.1,1-0.3,1.1-0.8c0.7-4.8,1-9.6,1-14.5
		C94.5,91.6,94.1,86.4,93.4,81.2z M91.4,81.5L91.4,81.5c-1.9-9.7-5.1-19.2-9.8-27.8l0,0c-1.3-2-2.5-4.2-3.8-6.2l0,0l-2.1-2.9l0,0
		c-0.7-0.9-1.3-1.9-2.2-2.9l0,0l-2.4-2.8l0,0c-0.8-0.9-1.5-1.8-2.4-2.8l0,0l0,0l0,0v0c-1.6-1.8-3.4-3.5-5.1-5.2l0,0
		c-3.5-3.4-7.3-6.5-11.3-9.4l0,0c-1.7-1.2-3.4-2.4-5.2-3.5c1.9,0.9,3.8,1.8,5.6,2.8l0,0c2.2,1.2,4.2,2.5,6.3,4c2,1.4,4,3,5.9,4.6
		c7.6,6.5,13.4,14.9,17.9,23.8l0,0C87.2,62.1,90,71.7,91.4,81.5L91.4,81.5L91.4,81.5z"/>
	<path class="st14" d="M105.4,119.9c-2.2-1.4-4.4-2.9-6.6-4.1c-2.3-1.2-4.6-2.3-6.9-2.9c-0.6-0.1-1.2-0.2-1.7-0.2
		c-0.6,0-1.1,0-1.7,0.1c-1.2,0.2-2.6,0.3-3.9,0.3c-1.3,0-2.6-0.1-4-0.2c-1.3-0.1-2.6-0.3-4-0.7l0-0.3c2.6-1,5.1-1.4,7.7-1.8
		c1.3-0.2,2.6-0.3,3.9-0.3c0.7,0,1.5,0,2.2,0.2c0.7,0.1,1.4,0.3,2.1,0.6c2.7,0.9,4.9,2.4,7.1,4c2.1,1.6,4.1,3.3,6,5.1L105.4,119.9z"
		/>
	<path class="st15" d="M154.8,183.6c-3.9,10.4-1.3,23.3,7,31c13.2,12.2,39,9.1,48-8c7-13.4,2.1-32.3-12-40
		C181.5,157.7,160.7,167.7,154.8,183.6"/>
	<path class="st16" d="M182.5,170.4c-0.8,0-1.5,0.1-2.3,0.4c-0.6,0.2-1.2,0.6-1.7,1c-0.5,0.4-0.8,0.7-1.2,1.1
		c-0.8,0.7-1.5,1.4-2.1,2.2c-1.3,1.6-2.5,3.3-3.4,5.3l0.2,0.2c1-0.4,2-1,2.8-1.6c0,0,0,0,0,0c-0.1-0.1-0.1-0.3-0.1-0.5l0.3-0.1
		c0.1,0.1,0.1,0.2,0.2,0.3c0.7-0.5,1.5-1.1,2.1-1.6c0.8-0.7,1.5-1.5,2.1-2.3c0.3-0.4,0.6-0.8,0.9-1.2c0.3-0.3,0.5-0.5,0.8-0.7
		c0.6-0.4,1.4-0.5,2.3-0.5c1,0,2,0.2,3,0.5c1.9,0.5,3.8,1.4,5.7,2.3l0.2-0.3c-1.6-1.3-3.4-2.5-5.4-3.4c-1-0.5-2-0.8-3.2-1
		C183.4,170.5,182.9,170.4,182.5,170.4"/>
	<path class="st16" d="M174.9,178.6l-0.3,0.1c0,0.2,0.1,0.3,0.1,0.5c0.5,1.3,1.5,2.4,2.6,3.2c1.3,0.9,2.9,1.4,4.5,1.6
		c0.4,0,0.9,0.1,1.3,0.1c0.4,0,0.8,0,1.2-0.1c0.8-0.1,1.6-0.4,2.3-0.9c0.7-0.5,1.3-1,1.8-1.8c0.2-0.4,0.4-0.8,0.6-1.2
		c0.1-0.5,0.1-1-0.2-1.4l-0.3,0.1c-0.2,0.3-0.4,0.5-0.7,0.6c-0.2,0.2-0.5,0.3-0.8,0.4c-0.6,0.2-1.2,0.5-1.7,0.7
		c-1.2,0.4-2.2,1-3.5,1.1c-0.2,0-0.5,0-0.8,0c-1,0-2.1-0.2-3.1-0.5c-1.1-0.4-2.2-1.1-2.9-2.1C175.1,178.8,175,178.7,174.9,178.6"/>
	<path class="st17" d="M163.6,216.1C163.6,216.1,163.6,216.1,163.6,216.1C163.6,216.1,163.6,216.1,163.6,216.1 M163.5,216.1
		C163.5,216.1,163.5,216.1,163.5,216.1C163.5,216.1,163.5,216.1,163.5,216.1 M161.8,214.6c0.6,0.5,1.1,1,1.7,1.5
		C162.9,215.6,162.3,215.2,161.8,214.6 M154.8,183.5c0,0.1,0,0.1-0.1,0.2c-1.2,3.2-1.8,6.6-1.8,10c0-3.4,0.6-6.9,1.8-10
		C154.8,183.6,154.8,183.5,154.8,183.5 M154.8,183.4C154.8,183.5,154.8,183.5,154.8,183.4C154.8,183.5,154.8,183.5,154.8,183.4"/>
	<path class="st18" d="M158.1,177.4c-1.3,1.9-2.4,3.9-3.2,6.1c0,0,0,0,0,0c0,0,0,0,0,0c0,0.1,0,0.1-0.1,0.2c-1.2,3.2-1.8,6.6-1.8,10
		c0,7.8,3,15.6,8.8,21l0,0c0.6,0.5,1.1,1,1.7,1.5c0,0,0,0,0,0c0,0,0,0,0,0c0,0,0,0,0,0c0,0,0,0,0,0c5.2,3.9,11.8,5.9,18.5,5.9
		c10.2,0,20.7-4.5,26.4-13.3c-4.6,3.5-11,4.7-17,4.7c-4.2,0-8.1-0.6-11.2-1.4c-4.1-1.1-15.8-4-21-15
		C156.3,190.9,156.1,183.7,158.1,177.4"/>
</g>
</svg>
