<?xml version="1.0" encoding="utf-8"?>
<!-- Generator: Adobe Illustrator 21.1.0, SVG Export Plug-In . SVG Version: 6.00 Build 0)  -->
<svg version="1.1" id="Layer_1" xmlns="http://www.w3.org/2000/svg" xmlns:xlink="http://www.w3.org/1999/xlink" x="0px" y="0px"
	 viewBox="0 0 337 224" style="enable-background:new 0 0 337 224;" xml:space="preserve">
<style type="text/css">
	.st0{fill:#FE9000;}
	.st1{fill:#FD9166;}
	.st2{fill:#FD6400;}
	.st3{fill:#FE8000;}
	.st4{fill:#CBBF7A;}
	.st5{fill:#D6C986;}
	.st6{fill:#EFE0A3;}
	.st7{fill:#EFECD7;}
	.st8{fill:#D3C682;}
	.st9{fill:#E4D697;}
	.st10{fill:#FC4700;}
	.st11{fill:#DF3F00;}
	.st12{fill:#A42E00;}
	.st13{fill:#D03B00;}
	.st14{fill:#3A5270;}
	.st15{fill:#2A4260;}
	.st16{fill:#D3C8C5;}
	.st17{fill:#334B69;}
</style>
<g>
	<path class="st0" d="M312.2,50.6c-4.9-13.7-36.3-9.2-87.3-4.1c-2.8,0.3-5.3,1.8-6.9,4.1c-2.5,3.5-5.7,6.7-7.5,8.5
		c-5.8,5.6-13,9.7-24.3,12.6c-3.1,0.8-55.1,13.7-69.8-10.6c-0.2-0.4-0.6-0.9-0.9-1.6c-1.7-3.2-5.1-5.2-8.7-5
		c-47.9,1.8-67.2,2.2-70,14.9c-4.3,19.8,35.2,49.3,59,61.6c46.9,24.3,90.8,11.9,118.5,4.2c37.5-10.5,58.3-28,67.8-37
		C290.8,89.8,317.2,64.7,312.2,50.6"/>
	<path class="st1" d="M116.8,59.7c-0.3,0.1-0.6,0.1-0.9,0.2c0.1,0.2,0.3,0.5,0.4,0.7c0.2-0.2,0.5-0.4,0.7-0.6L116.8,59.7"/>
	<path class="st2" d="M115.9,59.9c-0.5,0.1-1.1,0.2-1.6,0.3c-0.8,0.1-1.7,0.3-2.5,0.4c-0.2,0-0.3,0-0.5,0c-0.1,0-0.3,0-0.4,0
		c-0.1,0-0.3,0-0.4,0c-0.4,0-0.7,0-1.1,0.2c-0.8,0.3-1.5,0.6-2.4,1.5l0,0.3c0.4,0.4,0.9,0.6,1.4,0.8c0.5,0.2,0.9,0.3,1.4,0.3
		c0.1,0,0.1,0,0.2,0c0.9,0,1.6-0.5,2.4-0.9c0.8-0.4,1.6-0.8,2.4-1.3c0.5-0.3,1-0.7,1.4-1.1C116.1,60.4,116,60.2,115.9,59.9"/>
	<path class="st1" d="M170.6,74.2l-0.3,0c0,0.1,0,0.2,0,0.3c0.1,0,0.3,0,0.4-0.1C170.6,74.3,170.6,74.2,170.6,74.2"/>
	<path class="st2" d="M170.7,74.4c-0.1,0-0.3,0-0.4,0.1c-0.1,1.2-0.1,2.3,0,3.5c0.1,1.3,0.4,2.5,0.8,3.8c0.4,1.2,0.7,2.6,1.7,3.5
		c0.9,1,2,1.8,3.5,2.1l0.2-0.2c-0.1-0.7-0.3-1.3-0.5-1.9c-0.2-0.6-0.4-1.1-0.7-1.6c-0.5-1-1.3-1.8-1.9-2.8c-0.6-1-1.1-2-1.6-3.1
		C171.3,76.6,171,75.5,170.7,74.4"/>
	<path class="st2" d="M124.6,72.3c-0.8,0.3-1.5,0.6-2.2,1c-0.7,0.4-1.4,0.8-2.1,1.3c-0.7,0.5-1.5,0.8-1.9,1.5
		c-0.2,0.4-0.4,0.8-0.4,1.2c-0.1,0.4-0.1,0.9,0,1.5l0.2,0.2c0.6,0,1-0.2,1.4-0.3c0.4-0.1,0.7-0.3,1.1-0.6c0.7-0.4,0.9-1.2,1.3-1.8
		l1.4-1.8c0.4-0.6,0.9-1.2,1.4-1.9L124.6,72.3"/>
	<path class="st2" d="M133.8,75.7c-0.7,0.3-1.2,0.8-1.8,1.2c-0.6,0.5-1.1,1-1.5,1.7c-0.4,0.6-1.1,1.2-1.1,2c0,0.8,0.1,1.6,0.9,2.4
		l0.3,0c0.5-0.3,0.8-0.5,1.1-0.8c0.3-0.3,0.5-0.5,0.7-0.8c0.4-0.5,0.2-1.2,0.4-1.8c0.2-0.6,0.4-1.2,0.6-1.9c0.2-0.6,0.5-1.3,0.8-1.9
		L133.8,75.7"/>
	<path class="st2" d="M146.2,77l-0.3,0c-0.2,0.7-0.3,1.4-0.5,2c-0.1,0.7-0.2,1.4-0.3,2c-0.1,0.7-0.4,1.4-0.2,2
		c0.1,0.3,0.3,0.7,0.5,1c0.2,0.3,0.5,0.6,1,0.9l0.3,0c0.4-0.4,0.7-0.7,0.8-1.1c0.2-0.3,0.3-0.7,0.4-1c0.2-0.7-0.3-1.3-0.4-2
		c-0.2-0.7-0.4-1.3-0.6-2C146.6,78.3,146.4,77.7,146.2,77"/>
	<path class="st2" d="M159.3,78.2l-0.3,0.1c0,0.8,0.1,1.5,0.1,2.3c0,0.8,0,1.5,0,2.2c0,0.7-0.3,1.5,0,2.2c0.1,0.3,0.3,0.7,0.5,1.1
		c0.2,0.4,0.5,0.7,0.9,1.1l0.3,0c0.8-0.7,1.1-1.6,1.3-2.4c0.2-0.8-0.3-1.6-0.6-2.4c-0.3-0.8-0.6-1.5-1-2.2
		C160.2,79.5,159.8,78.8,159.3,78.2"/>
	<path class="st2" d="M182,73.7l-0.2,0.2c0.6,0.8,1.2,1.6,1.7,2.4c0.5,0.8,1,1.6,1.4,2.5c0.4,0.8,0.5,1.8,1.1,2.5
		c0.3,0.4,0.6,0.7,1,1.1c0.4,0.4,0.8,0.7,1.3,1l0.3-0.1c0.5-1.2,0.4-2.3,0.1-3.4c-0.3-1.1-1.2-1.8-1.9-2.6c-0.7-0.8-1.5-1.5-2.3-2.1
		C183.8,74.7,182.9,74.1,182,73.7"/>
	<path class="st2" d="M194.7,69.8l-0.2,0.3c0.5,0.6,0.9,1.1,1.3,1.8c0.4,0.6,0.8,1.2,1.1,1.8c0.3,0.6,0.4,1.4,0.9,1.8
		c0.2,0.2,0.5,0.5,0.9,0.7c0.3,0.2,0.7,0.4,1.2,0.6l0.3-0.1c0.5-1,0.5-1.9,0.2-2.7c-0.2-0.8-1-1.3-1.6-1.8c-0.6-0.5-1.3-1-1.9-1.4
		C196.2,70.3,195.5,70,194.7,69.8"/>
	<path class="st2" d="M211.7,65.8c-0.1,0-0.2,0-0.3,0c-0.1,0-0.2,0-0.3,0c0,0-0.1,0-0.1,0c-0.3,0-0.5,0-0.8,0c-0.1,0-0.3,0-0.4,0
		c-0.4,0-0.8,0-1.3,0.1l-0.1,0.3c0.2,0.4,0.5,0.7,0.8,1c0.3,0.3,0.6,0.6,0.9,0.9c0.3,0.2,0.5,0.7,0.8,0.7c0,0,0,0,0.1,0
		c0.2,0,0.4-0.1,0.7-0.2c0.3-0.1,0.5-0.3,0.9-0.6l0.1-0.3c0-0.5-0.1-0.8-0.2-1.1c-0.1-0.3-0.2-0.5-0.3-0.6
		C212,65.8,211.8,65.8,211.7,65.8"/>
	<path class="st2" d="M221.1,54.4c-0.4,0-0.8,0.2-1.1,0.2c-0.5,0.1-1,0.2-1.6,0.3c-0.5,0.1-1,0.3-1.6,0.4l0,0.3
		c0.5,0.3,1,0.5,1.5,0.8c0.5,0.2,1,0.4,1.5,0.6c0.4,0.1,0.8,0.5,1.2,0.5c0.1,0,0.2,0,0.2,0c0.3-0.1,0.5-0.2,0.8-0.4
		c0.3-0.2,0.6-0.4,0.8-0.8l0-0.3c-0.2-0.5-0.4-0.7-0.7-1c-0.2-0.2-0.5-0.4-0.7-0.5C221.4,54.4,221.2,54.4,221.1,54.4"/>
	<path class="st2" d="M229.8,51.2c-0.7,0-1.4,0.3-2.1,0.3c-0.9,0.1-1.8,0.1-2.7,0.1c-0.2,0-0.3,0-0.5,0c-0.8,0-1.5-0.1-2.3-0.1
		l-0.1,0.3c0.8,0.5,1.7,0.9,2.6,1.3c0.9,0.4,1.8,0.6,2.8,0.8c0.7,0.1,1.5,0.4,2.2,0.4c0.2,0,0.5,0,0.7-0.1c0.5-0.1,1-0.3,1.4-0.6
		c0.5-0.3,0.9-0.6,1.3-1.1l-0.1-0.3c-1.1-0.7-1.9-0.9-2.8-1C230.1,51.2,230,51.2,229.8,51.2"/>
	<path class="st2" d="M168.6,77.9l-0.3,0c-0.1,1.3-0.2,2.6-0.5,3.9c-0.2,1.3-0.6,2.5-1,3.7c-0.4,1.2-1.2,2.2-1.5,3.4
		c-0.2,0.6-0.3,1.2-0.4,1.9c-0.1,0.6-0.2,1.3-0.2,2.1L165,93c1.4-0.6,2.4-1.7,3.1-2.9c0.8-1.2,0.9-2.7,1-4.1
		c0.2-1.4,0.3-2.8,0.1-4.1C169.2,80.5,169,79.1,168.6,77.9"/>
	<path class="st2" d="M216.6,66.4l-0.1,0.3c0.6,0.6,1.3,1.1,1.9,1.7l1.8,1.6c0.6,0.5,1,1.3,1.8,1.6c0.4,0.2,0.8,0.3,1.2,0.4
		c0.3,0.1,0.7,0.1,1.1,0.1c0.1,0,0.3,0,0.4,0l0.2-0.2c0-0.6-0.2-1.1-0.4-1.5c-0.2-0.4-0.4-0.8-0.7-1.1c-0.6-0.7-1.5-0.9-2.3-1.2
		c-0.8-0.4-1.6-0.7-2.4-0.9C218.2,66.8,217.4,66.5,216.6,66.4"/>
	<path class="st2" d="M207.5,71.9l-0.2,0.2c0.5,0.6,0.9,1.2,1.3,1.8c0.4,0.6,0.7,1.2,1,1.8c0.3,0.6,0.3,1.4,0.8,1.8
		c0.2,0.2,0.5,0.5,0.8,0.7c0.3,0.2,0.7,0.5,1.2,0.7l0.3-0.1c0.5-1,0.5-1.9,0.3-2.7c-0.2-0.8-1-1.3-1.6-1.9c-0.6-0.6-1.2-1.1-1.9-1.5
		C209,72.5,208.3,72.2,207.5,71.9"/>
	<path class="st2" d="M195,75.8l-0.3,0c-0.1,0.7-0.2,1.5-0.3,2.2c-0.1,0.7-0.1,1.5-0.2,2.2c0,0.7-0.3,1.5,0,2.2
		c0.1,0.3,0.3,0.7,0.6,1c0.3,0.3,0.6,0.7,1,1l0.3,0c0.4-0.4,0.6-0.8,0.8-1.2c0.2-0.4,0.3-0.8,0.3-1.1c0.1-0.7-0.4-1.4-0.6-2.1
		c-0.2-0.7-0.5-1.4-0.7-2.1C195.6,77.2,195.4,76.5,195,75.8"/>
	<path class="st2" d="M181.1,79.8c-0.4,0.8-0.6,1.6-0.9,2.4c-0.2,0.8-0.4,1.7-0.5,2.5c-0.1,0.9-0.4,1.8-0.1,2.6
		c0.3,0.8,0.8,1.6,1.8,2.3l0.3-0.1c0.3-0.5,0.5-0.9,0.7-1.3c0.2-0.4,0.2-0.8,0.3-1.2c0.1-0.8-0.3-1.5-0.5-2.3
		c-0.1-0.8-0.3-1.6-0.4-2.4c-0.1-0.8-0.2-1.6-0.3-2.5L181.1,79.8"/>
	<path class="st2" d="M156.2,79.7c-0.9,0.7-1.6,1.4-2.4,2.3c-0.7,0.8-1.4,1.8-1.9,2.7c-0.6,1-1.3,1.9-1.4,3.1
		c-0.1,1.1,0,2.3,0.7,3.5l0.3,0c0.5-0.5,0.8-0.9,1.1-1.4c0.3-0.5,0.6-0.9,0.8-1.4c0.5-0.9,0.4-1.9,0.7-2.9c0.3-1,0.6-1.9,1-2.9
		c0.4-1,0.9-1.9,1.4-2.9L156.2,79.7"/>
	<path class="st2" d="M141.8,78.3c-0.7,0.4-1.4,0.9-2.1,1.4c-0.6,0.6-1.2,1.2-1.7,1.9c-0.5,0.7-1.2,1.3-1.3,2.2
		c-0.1,0.9,0,1.8,0.7,2.7l0.3,0.1c0.5-0.3,0.8-0.6,1.1-0.9c0.3-0.3,0.5-0.6,0.7-0.9c0.4-0.6,0.3-1.4,0.6-2.1
		c0.2-0.7,0.5-1.4,0.8-2.1c0.3-0.7,0.7-1.4,1.1-2.1L141.8,78.3"/>
	<path class="st2" d="M126.5,77c-0.5,0-0.9,0.1-1.3,0.2c-0.4,0.1-0.8,0.2-1.3,0.3c-0.4,0.1-1,0-1.2,0.4c-0.1,0.2-0.2,0.4-0.3,0.7
		c0,0.3-0.1,0.6,0,1.1l0.2,0.2c0.4,0.2,0.7,0.4,1,0.4c0.2,0,0.3,0.1,0.5,0.1c0.1,0,0.2,0,0.3,0c0.5,0,0.6-0.6,0.8-0.9
		c0.3-0.3,0.5-0.7,0.7-1c0.2-0.4,0.5-0.7,0.7-1.2L126.5,77"/>
	<path class="st2" d="M113.5,67.5c-0.5,0-0.9,0-1.4,0c0,0-0.1,0-0.1,0c-0.1,0-0.3,0-0.4,0c-0.1,0-0.3,0-0.4,0c-0.3,0-0.5,0-0.7,0.2
		c-0.2,0.2-0.5,0.4-0.7,0.7c-0.2,0.3-0.4,0.6-0.5,1.1l0.1,0.3c0.4,0.3,0.7,0.5,1,0.6c0.3,0.1,0.6,0.2,0.9,0.2c0,0,0.1,0,0.1,0
		c0.5,0,0.9-0.5,1.4-0.8c0.5-0.3,1-0.6,1.4-0.9c0.5-0.4,0.9-0.7,1.4-1.1l-0.1-0.3c-0.6-0.1-1.2-0.1-1.7-0.1
		C113.7,67.5,113.6,67.5,113.5,67.5"/>
	<path class="st3" d="M312.4,58c-0.8,0.9-1.7,1.8-2.6,2.7c-26.1,26.2-57.3,39.6-82.9,46.8c11.9,2,22.8,4.9,32,8.2
		c10.9-6.7,18.4-13.3,23.1-17.7C289.4,91.1,309.3,72.2,312.4,58"/>
	<path class="st3" d="M38.6,64.9c-0.9,1.2-1.5,2.6-1.8,4.2l0,0c-0.2,1-0.3,2-0.3,3.1c0,19.6,36.8,46.8,59.3,58.5
		c13.8,7.1,27.3,11.1,40.2,13l2.4-20.5l0,0l0.2-1.3l0,0c0.1-0.9,0.3-1.7,0.7-2.5c-14.3-0.5-29.1-3.3-44.8-10.1
		C86,105.7,56.2,92.8,38.6,64.9"/>
	<path class="st4" d="M138.6,121.9l-3.6,30.1c-1.6,13.8,30.5,28.9,71.7,33.8c41.3,4.9,76-2.3,77.7-16l3.6-30.1L138.6,121.9"/>
	<path class="st5" d="M139.5,127c2.7,10.5,5.7,24.1,16.2,33.9c0.2,0.2,0.3,0.3,0.5,0.5c4.4-2.3,9.4-3.5,14.4-3.5c4.5,0,9,1,13.2,3.3
		c5.3,2.9,9.3,7.4,11.9,12.6c25.2,5.5,41.9,7.3,53.2,7.3c12.8,0,18.7-2.2,22-3.7c2.7-1.2,8-3.6,13.6-8.3l3.5-29.3l0,0
		c0,0,0,0.1,0,0.1c0,0,0,0,0,0c-1.4,10.7-23.2,17.4-52.4,17.4c-7.9,0-16.5-0.5-25.3-1.5c-3.2-0.4-6.3-0.8-9.4-1.3
		C169.2,149.3,144.5,138.2,139.5,127 M138.6,121.9l-0.2,1.3c0,0.1,0.1,0.3,0.1,0.4C138.5,123.1,138.5,122.5,138.6,121.9"/>
	<path class="st6" d="M288,139.7c-1.6,13.8-36.4,20.9-77.7,16c-41.3-4.9-73.4-20-71.7-33.8c1.6-13.8,36.4-20.9,77.7-16
		C257.5,110.8,289.6,125.9,288,139.7"/>
	<path class="st4" d="M214,125.3c-0.9-0.9-1.6-1.7-2.2-2.5l-0.9-1.1c-0.3-0.3-0.6-0.7-0.8-1.1c-0.4-0.8-0.9-2-1.7-2.6
		c-0.9-0.6-2-0.8-3-0.7c-0.5,0.1-1,0.3-1.2,0.4l0,0.1l0.1,0l0.1-0.1c0.1-0.1,0.2-0.2,0.3-0.4c0.1-0.1,0.1-0.2,0.1-0.2
		c0.1,0,0.2,0.3,0.5,0.7c0.2,0.3,0.5,0.8,0.7,1.2c1,1.8,2,3.7,2.5,6.2l-0.3,0.3c-1.2-0.4-2.3-1-3.2-1.7c-1-0.7-1.8-1.5-2.5-2.5
		c-0.4-0.5-0.7-1-0.9-1.7c-0.2-0.7-0.5-1.3-0.5-2.5c0-0.3,0.1-0.7,0.2-1c0.1-0.4,0.4-0.8,0.8-1c0.2-0.2,0.3-0.2,0.5-0.3
		c0.2-0.1,0.3-0.1,0.5-0.2c0.3-0.1,0.6-0.1,0.8-0.1c0.9,0,1.5,0.3,2.1,0.6c1.1,0.6,2.1,1.3,3.2,1.7c1.1,0.4,2.5,0.6,3.5,1.4
		c1.1,0.8,1.7,2,2.1,3.2c0.3,1.2,0.4,2.5-0.2,3.8L214,125.3z"/>
	<path class="st4" d="M210.3,130.2c-1.4,0.5-2.6,0.7-3.7,1c-0.6,0.1-1.1,0.3-1.6,0.4c-0.5,0.2-1,0.3-1.4,0.4c-0.5,0.1-1,0.2-1.4,0.4
		c-0.4,0.2-0.8,0.6-0.8,1.1c-0.1,1.1,0.8,2.2,1.8,2.6c0.5,0.2,1,0.3,1.4,0.3c0.4,0,0.8,0,1.3-0.1c0.9-0.2,1.8-0.7,2.7-1.1
		c1.9-0.9,3.9-2.2,6.4-3.6l0.3,0.2c-0.4,2.9-2.1,5.4-4.7,7.1c-1.3,0.8-2.9,1.2-4.6,1.2c-0.8,0-1.7-0.2-2.5-0.6
		c-0.8-0.4-1.4-1.1-1.9-1.7c-0.5-0.6-0.8-1.3-1.1-2c-0.3-0.7-0.5-1.4-0.6-2.1c-0.1-0.8,0-1.7,0.3-2.5c0.4-0.8,0.9-1.5,1.6-2
		c1.4-1,3-1.1,4.4-1c1.5,0.2,2.8,0.7,4,1.7L210.3,130.2z"/>
	<path class="st4" d="M218,126.3c0.9-0.9,1.9-1.6,3.1-2.1c0.6-0.3,1.2-0.4,1.9-0.6c0.7-0.1,1.3-0.2,2-0.2c0.7,0,1.4,0,2.1,0.1
		c0.7,0.1,1.4,0.4,2,0.8c0.6,0.4,1.1,1,1.4,1.6c0.4,0.6,0.6,1.3,0.6,2.2l-0.3,0.3c-0.8,0-1.4-0.1-2-0.2c-0.6-0.1-1.1-0.2-1.6-0.3
		c-0.5-0.1-0.9-0.3-1.3-0.6c-0.4-0.3-0.9-0.5-1.3-0.7c-1-0.3-2-0.4-3.1-0.4c-1.1,0-2.2,0.2-3.4,0.5L218,126.3z"/>
	<path class="st4" d="M220.7,130.2c0.6,0.3,1.2,0.5,1.8,0.5c0.3,0.1,0.6,0.1,0.8,0.1c0.3,0,0.5,0,0.8,0c0.2,0,0.5-0.2,0.7-0.3
		c0.2-0.1,0.4-0.1,0.6,0c0.2,0.1,0.5,0.2,0.8,0.5c0.3,0.2,0.7,0.5,1.2,0.9l0.2,0.4c-0.1,0.7-0.3,1.1-0.6,1.5
		c-0.3,0.4-0.7,0.6-1.1,0.8c-0.4,0.2-0.9,0.2-1.3,0c-0.4-0.2-0.8-0.4-1.2-0.6c-0.8-0.4-1.4-0.9-1.9-1.4c-0.5-0.6-0.9-1.3-1.1-2
		L220.7,130.2z"/>
	<path class="st7" d="M288,139.7C288,139.7,288,139.7,288,139.7C288,139.7,288,139.7,288,139.7 M288,139.7
		C288,139.7,288,139.7,288,139.7C288,139.7,288,139.7,288,139.7 M288,139.6C288,139.6,288,139.6,288,139.6
		C288,139.6,288,139.6,288,139.6 M288,139.6C288,139.6,288,139.6,288,139.6C288,139.6,288,139.6,288,139.6 M288,139.6
		C288,139.6,288,139.6,288,139.6C288,139.6,288,139.6,288,139.6 M288,139.5C288,139.6,288,139.6,288,139.5
		C288,139.6,288,139.6,288,139.5 M288,139.2c0,0.1,0,0.2,0,0.3C288,139.4,288,139.3,288,139.2 M288,139.1
		C288,139.2,288,139.2,288,139.1C288,139.2,288,139.2,288,139.1 M288,139.1C288,139.1,288,139.1,288,139.1
		C288,139.1,288,139.1,288,139.1 M288,139.1C288,139.1,288,139.1,288,139.1C288,139.1,288,139.1,288,139.1 M288,139.1
		C288,139.1,288,139.1,288,139.1C288,139.1,288,139.1,288,139.1 M288,139C288,139.1,288,139.1,288,139C288,139.1,288,139.1,288,139
		 M288,139C288,139,288,139,288,139C288,139,288,139,288,139 M288,139C288,139,288,139,288,139C288,139,288,139,288,139 M288,139
		C288,139,288,139,288,139C288,139,288,139,288,139 M288,139C288,139,288,139,288,139C288,139,288,139,288,139 M288,139
		C288,139,288,139,288,139C288,139,288,139,288,139 M288,138.9C288,138.9,288,138.9,288,138.9C288,138.9,288,138.9,288,138.9
		 M288,138.9C288,138.9,288,138.9,288,138.9C288,138.9,288,138.9,288,138.9 M288,138.9L288,138.9L288,138.9"/>
	<path class="st8" d="M288,139.8c-1.4,10.7-23.2,17.4-52.4,17.4c-8,0-16.5-0.5-25.3-1.5c-3.2-0.4-6.3-0.8-9.4-1.3
		c3.1,0.5,6.2,0.9,9.4,1.3c8.8,1,17.3,1.5,25.3,1.5C264.8,157.3,286.5,150.6,288,139.8 M288,139.7C288,139.7,288,139.8,288,139.7
		C288,139.8,288,139.7,288,139.7"/>
	<path class="st9" d="M255,114.3c5.3,3.5,17.3,8.2,16,15.4c-0.5,2.7-2.8,5-3.6,5.8c-1.1,1-5.9,5.4-19.5,8.1
		c-15.6,3.1-30.7,4.1-43.9,4.1c-17.7,0-32.1-1.8-39.9-3.1c10.2,4.1,22.9,7.5,36.9,9.8c3.1,0.5,6.2,0.9,9.4,1.3
		c8.8,1,17.3,1.5,25.3,1.5c29.2,0,51-6.7,52.4-17.4c0,0,0,0,0,0c0,0,0-0.1,0-0.1l0,0l0,0c0,0,0,0,0,0c0,0,0,0,0,0c0,0,0,0,0,0
		c0,0,0,0,0,0c0,0,0,0,0,0c0,0,0,0,0,0c0,0,0,0,0,0v0c0,0,0,0,0,0v0c0,0,0,0,0-0.1l0,0c0-0.1,0-0.2,0-0.3c0,0,0,0,0,0c0,0,0,0,0,0
		c0,0,0,0,0,0c0,0,0,0,0,0c0,0,0,0,0,0c0,0,0,0,0,0c0,0,0,0,0,0c0,0,0,0,0,0c0,0,0,0,0,0c0,0,0,0,0,0c0,0,0,0,0,0c0,0,0,0,0,0
		c0,0,0,0,0,0c0,0,0,0,0,0c0,0,0,0,0,0c0,0,0,0,0,0c0,0,0,0,0,0c0,0,0,0,0,0c0,0,0,0,0,0c0,0,0,0,0,0c0,0,0,0,0,0c0,0,0,0,0,0
		c0,0,0,0,0,0c0,0,0,0,0,0c0,0,0,0,0,0v0C288.2,130.2,275.2,121,255,114.3"/>
	<path class="st4" d="M270.9,177.3c-6.4,2.8-21.7,8.4-77.1-3.9c-21.8-4.9-32.8-7.5-38.2-12.5c-11.8-11-14.2-26.8-17.3-37.7
		l-3.4,28.9c-1.6,13.8,30.5,28.9,71.7,33.8c41.3,4.9,76-2.3,77.7-16l0.1-0.8C279,173.6,273.7,176.1,270.9,177.3"/>
	<circle class="st10" cx="76.8" cy="129.1" r="50"/>
	<path class="st11" d="M120.4,153.5c-3.6,3.8-10.8,10.3-21.7,13.6c-25.4,7.8-46.7-8.9-48-10c-22.5-18.3-19.6-47.1-19.3-49.1
		c-3,6.4-4.7,13.5-4.7,21.1c0,27.6,22.4,50,50,50C95.5,179.1,111.9,168.8,120.4,153.5z"/>
	<path class="st12" d="M68.8,47.6L68.8,47.6c-4.5-8.9-10.3-17.3-17.9-23.8C49,22.2,47,20.6,45,19.2c-2.1-1.4-4.2-2.8-6.3-4l0,0
		c-1.8-1-3.7-2-5.6-2.8c1.8,1.1,3.5,2.3,5.2,3.5l0,0c4,2.9,7.8,6,11.3,9.4l0,0c1.7,1.7,3.5,3.4,5.1,5.2v0l0,0l0,0l0,0
		c0.9,0.9,1.6,1.9,2.4,2.8l0,0l2.4,2.8l0,0c0.9,1,1.6,2,2.2,2.9l0,0l2.1,2.9l0,0c1.4,2.1,2.6,4.2,3.8,6.2l0,0
		c4.7,8.7,7.9,18.1,9.8,27.8l0,0l0,0l0,0C76,66.2,73.2,56.6,68.8,47.6z"/>
	<path class="st12" d="M79.4,75.7L79.4,75.7c-1.5-10-4.4-19.8-8.9-29l0,0C66,37.7,60,29,52.2,22.3l0,0c-2-1.6-3.9-3.2-6.1-4.7l0,0
		c-2.1-1.4-4.2-2.8-6.5-4.1l0,0l0,0c-4.4-2.5-9.1-4.5-14-6c-0.5-0.1-1,0.1-1.2,0.6l-0.2,0.4c-0.2,0.5,0,1,0.4,1.3
		c4.3,2.5,8.4,5,12.4,7.9l0,0c3.9,2.8,7.6,5.9,11.1,9.2l0,0c1.7,1.7,3.4,3.4,5,5.1l0,0c0.8,0.8,1.5,1.7,2.3,2.7l0,0l2.4,2.8l0,0
		c0.7,0.8,1.4,1.8,2.1,2.8l2.1,2.9c1.3,2,2.5,4.1,3.8,6.1c4.6,8.4,7.7,17.7,9.5,27.2c0.9,4.8,1.5,9.6,1.8,14.5
		c0.1,2,0.2,4.1,0.2,6.1c0,2.9-0.1,5.7-0.3,8.6c0,0.5,0.3,1,0.9,1.1l0.4,0c0.5,0.1,1-0.3,1.1-0.8c0.7-4.8,1-9.6,1-14.5
		C80.5,86.1,80.1,80.9,79.4,75.7z M77.4,76L77.4,76c-1.9-9.7-5.1-19.2-9.8-27.8l0,0c-1.3-2-2.5-4.2-3.8-6.2l0,0l-2.1-2.9l0,0
		C61,38,60.3,37,59.4,36l0,0l-2.4-2.8l0,0c-0.8-0.9-1.5-1.8-2.4-2.8l0,0l0,0l0,0v0c-1.6-1.8-3.4-3.5-5.1-5.2l0,0
		c-3.5-3.4-7.3-6.5-11.3-9.4l0,0c-1.7-1.2-3.4-2.4-5.2-3.5c1.9,0.9,3.8,1.8,5.6,2.8l0,0c2.2,1.2,4.2,2.5,6.3,4c2,1.4,4,3,5.9,4.6
		c7.6,6.5,13.4,14.9,17.9,23.8l0,0C73.2,56.6,76,66.2,77.4,76L77.4,76L77.4,76z"/>
	<path class="st13" d="M91.4,114.4c-2.2-1.4-4.4-2.9-6.6-4.1c-2.3-1.2-4.6-2.3-6.9-2.9c-0.6-0.1-1.2-0.2-1.7-0.2
		c-0.6,0-1.1,0-1.7,0.1c-1.2,0.2-2.6,0.3-3.9,0.3c-1.3,0-2.6-0.1-4-0.2c-1.3-0.1-2.6-0.3-4-0.7l0-0.3c2.6-1,5.1-1.4,7.7-1.8
		c1.3-0.2,2.6-0.3,3.9-0.3c0.7,0,1.5,0,2.2,0.2c0.7,0.1,1.4,0.3,2.1,0.6c2.7,0.9,4.9,2.4,7.1,4c2.1,1.6,4.1,3.3,6,5.1L91.4,114.4z"
		/>
	<path class="st14" d="M140.8,178.1c-3.9,10.4-1.3,23.3,7,31c13.2,12.2,39,9.1,48-8c7-13.4,2.1-32.3-12-40
		C167.5,152.2,146.7,162.2,140.8,178.1"/>
	<path class="st15" d="M168.5,164.9c-0.8,0-1.5,0.1-2.3,0.4c-0.6,0.2-1.2,0.6-1.7,1c-0.5,0.4-0.8,0.7-1.2,1.1
		c-0.8,0.7-1.5,1.4-2.1,2.2c-1.3,1.6-2.5,3.3-3.4,5.3l0.2,0.2c1-0.4,2-1,2.8-1.6c0,0,0,0,0,0c-0.1-0.1-0.1-0.3-0.1-0.5l0.3-0.1
		c0.1,0.1,0.1,0.2,0.2,0.3c0.7-0.5,1.5-1.1,2.1-1.6c0.8-0.7,1.5-1.5,2.1-2.3c0.3-0.4,0.6-0.8,0.9-1.2c0.3-0.3,0.5-0.5,0.8-0.7
		c0.6-0.4,1.4-0.5,2.3-0.5c1,0,2,0.2,3,0.5c1.9,0.5,3.8,1.4,5.7,2.3l0.2-0.3c-1.6-1.3-3.4-2.5-5.4-3.4c-1-0.5-2-0.8-3.2-1
		C169.4,165,168.9,164.9,168.5,164.9"/>
	<path class="st15" d="M160.9,173.1l-0.3,0.1c0,0.2,0.1,0.3,0.1,0.5c0.5,1.3,1.5,2.4,2.6,3.2c1.3,0.9,2.9,1.4,4.5,1.6
		c0.4,0,0.9,0.1,1.3,0.1c0.4,0,0.8,0,1.2-0.1c0.8-0.1,1.6-0.4,2.3-0.9c0.7-0.5,1.3-1,1.8-1.8c0.2-0.4,0.4-0.8,0.6-1.2
		c0.1-0.5,0.1-1-0.2-1.4l-0.3,0.1c-0.2,0.3-0.4,0.5-0.7,0.6c-0.2,0.2-0.5,0.3-0.8,0.4c-0.6,0.2-1.2,0.5-1.7,0.7
		c-1.2,0.4-2.2,1-3.5,1.1c-0.2,0-0.5,0-0.8,0c-1,0-2.1-0.2-3.1-0.5c-1.1-0.4-2.2-1.1-2.9-2.1C161.1,173.3,161,173.2,160.9,173.1"/>
	<path class="st16" d="M149.1,210.3C149.1,210.3,149.1,210.3,149.1,210.3C149.1,210.3,149.1,210.3,149.1,210.3 M149.1,210.2
		C149.1,210.2,149.1,210.3,149.1,210.2C149.1,210.3,149.1,210.2,149.1,210.2 M149,210.2C149,210.2,149,210.2,149,210.2
		C149,210.2,149,210.2,149,210.2 M147.8,209.1c0.4,0.4,0.8,0.7,1.2,1.1C148.6,209.9,148.2,209.5,147.8,209.1 M140.8,178.1
		C140.8,178.1,140.8,178.1,140.8,178.1c-1.2,3.2-1.8,6.6-1.8,10.1C139,184.8,139.6,181.3,140.8,178.1
		C140.8,178.1,140.8,178.1,140.8,178.1 M140.8,178c0,0,0,0.1,0,0.1C140.8,178.1,140.8,178,140.8,178 M140.8,178
		C140.8,178,140.8,178,140.8,178C140.8,178,140.8,178,140.8,178"/>
	<path class="st17" d="M144.1,171.9c-1.3,1.9-2.4,3.9-3.2,6.1c0,0,0,0,0,0c0,0,0,0,0,0c0,0,0,0.1,0,0.1c0,0,0,0,0,0c0,0,0,0,0,0
		c-1.2,3.2-1.8,6.6-1.8,10c0,7.8,3,15.6,8.8,21l0,0c0.4,0.4,0.8,0.7,1.2,1.1c0,0,0,0,0,0c0,0,0,0,0,0c0,0,0,0,0,0c0,0,0,0,0,0
		c0,0,0,0,0,0c0,0,0,0,0,0c5.2,4.2,12.1,6.3,19,6.3c10.2,0,20.7-4.5,26.4-13.3c-4.6,3.5-11,4.7-17,4.7c-4.2,0-8.1-0.6-11.2-1.4
		c-4.1-1.1-15.8-4-21-15C142.3,185.4,142.1,178.2,144.1,171.9"/>
</g>
</svg>
