<?xml version="1.0" encoding="utf-8"?>
<!-- Generator: Adobe Illustrator 21.1.0, SVG Export Plug-In . SVG Version: 6.00 Build 0)  -->
<svg version="1.1" id="Layer_1" xmlns="http://www.w3.org/2000/svg" xmlns:xlink="http://www.w3.org/1999/xlink" x="0px" y="0px"
	 viewBox="0 0 337 368" style="enable-background:new 0 0 337 368;" xml:space="preserve">
<style type="text/css">
	.st0{fill:#D9E8E3;}
	.st1{fill:#502419;}
	.st2{fill:#FE9000;}
	.st3{fill:#FC4700;}
	.st4{fill:#B6D6CC;}
	.st5{fill:none;}
	.st6{fill:none;stroke:#FE9000;stroke-width:0;stroke-linecap:round;stroke-linejoin:round;}
</style>
<g>
	<g>
		<path class="st0" d="M257.6,74.6c-14.2-6.5-22.7-18.3-22.7-31l0,0H102.5c-0.2,0-0.3,0.1-0.3,0.3v1c0,12.2-8.7,23.3-22.5,29.5
			c-16.9,7.6-36.2,18.9-36.2,34.4v63.8v88v63.8c0,20.4,21.8,37.1,48.4,37.1h153.3c26.6,0,48.4-16.7,48.4-37.1v-63.8v-87.7v-63.8
			C293.5,93.6,274.4,82.3,257.6,74.6z"/>
	</g>
	<g>
		<path class="st0" d="M232.7,53.9H104.3c-5.6,0-10.2-4.6-10.2-10.2V27c0-5.6,4.6-10.2,10.2-10.2h128.5c5.6,0,10.2,4.6,10.2,10.2
			v16.7C242.9,49.3,238.3,53.9,232.7,53.9z"/>
	</g>
	<path class="st1" d="M254.6,78.8c-13.7-6.3-22-17.7-22-30v-5.2h-128c-0.2,5.2-0.3,5.4-0.3,5.5v1c0,11.8-8.4,22.6-21.7,28.5
		c-16.4,7.3-35,18.3-35,33.3v61.7v85.2v61.7c0,19.7,21.1,35.9,46.8,35.9h148.3c25.7,0,46.8-16.2,46.8-35.9v-61.7v-84.8v-61.7
		C289.4,97.2,270.9,86.3,254.6,78.8z"/>
	<rect x="39.7" y="120.7" class="st2" width="257.6" height="196.5"/>
	<g>
		<polygon class="st0" points="237.4,64.1 99.6,64.1 102.7,41.5 233.3,41.5 		"/>
	</g>
	<path class="st3" d="M242.5,43.6H94.5c-6.6,0-12-5.4-12-12v-13c0-6.6,5.4-12,12-12h147.9c6.6,0,12,5.4,12,12v13
		C254.5,38.2,249.1,43.6,242.5,43.6z"/>
	<g>
		<path class="st4" d="M214.8,52.8c-7.7,0.8-15.4,1.3-23.1,1.6c-3.9,0.2-7.7,0.2-11.6,0.3l-11.6,0.1l-11.6-0.1
			c-3.9-0.1-7.7-0.1-11.6-0.3c-7.7-0.3-15.4-0.7-23.1-1.6c7.7-0.8,15.4-1.3,23.1-1.6c3.9-0.2,7.7-0.2,11.6-0.3l11.6-0.1l11.6,0.1
			c3.9,0.1,7.7,0.2,11.6,0.3C199.4,51.6,207.1,52,214.8,52.8z"/>
	</g>
	<g>
		<path class="st2" d="M236,16c1.1,0.1,1.1,1.6,0,1.7c-4.4,0.3-8.9,0.5-13.3,0.7c-3.9,0.2-7.7,0.2-11.6,0.3l-11.6,0.1l-11.6-0.1
			c-3.9-0.1-7.7-0.1-11.6-0.3c-4.5-0.2-8.9-0.4-13.4-0.7c-1.1-0.1-1.1-1.6,0-1.7c4.5-0.3,8.9-0.5,13.4-0.7c3.9-0.2,7.7-0.2,11.6-0.3
			l11.6-0.1l11.6,0.1c3.9,0.1,7.7,0.2,11.6,0.3C227.1,15.4,231.5,15.7,236,16z"/>
	</g>
	<path class="st2" d="M65.5,219c0,46.1,30.2,85.1,71.9,98.2h62.1c41.7-13.2,71.9-52.2,71.9-98.2c0-46.1-30.3-85.1-72.1-98.3h-61.9
		C95.8,133.9,65.5,172.9,65.5,219z"/>
	<ellipse class="st3" cx="168.5" cy="219" rx="82" ry="81"/>
	<g>
		<path class="st5" d="M226.9,221.4c3-0.9,5.6-2.2,8.1-4.1c1.2-0.9,2.3-1.9,3-2.8c0.3-0.5,0.5-0.9,0.5-1.1c0-0.1,0-0.2,0-0.2l0-0.1
			c-0.1-0.2-0.3-0.4-0.4-0.5c-0.1,0-0.3-0.1-0.7-0.2c-0.8,0-2.1,0.3-3.4,0.9c-1.3,0.6-2.6,1.3-3.8,2.2c-0.6,0.4-1.2,0.9-1.7,1.4
			c-0.6,0.5-1.1,1-1.6,1.6c-1,1.1-1.8,2.3-2.5,3.5C225.3,221.8,226.1,221.6,226.9,221.4z"/>
		<path class="st5" d="M170.4,213c-2.1,1.2-4.6,3.1-7.3,5.7c-2.7,2.6-4.8,4.9-6.1,6.9c-1.3,2-1.9,3.7-1.9,5c0,0.6,0.1,1,0.2,1.2
			c0.1,0.2,0.1,0.2,0.1,0.2c0,0,0.1,0,0.3,0c0.2,0,0.7-0.1,1.4-0.4c0.7-0.3,1.5-0.9,2.4-1.7c1.9-1.5,4.2-3.9,6.9-7.2l0,0
			c0.4-0.5,1.5-1.9,3.2-4.1c1.4-1.9,3.3-4.4,5.7-7.5C174.1,211.3,172.4,211.9,170.4,213z"/>
		<path class="st5" d="M199.9,231.3l-0.5,0.2c-0.7,0.6-1.4,1.2-2,1.8c0.4,0.1,0.8,0.1,1.2,0.2C199.1,232.7,199.5,232,199.9,231.3z"
			/>
		<path class="st5" d="M190.2,231.6c0,0,0.1,0,0.3,0c0.5,0,1.2-0.1,2-0.5c0.8-0.4,1.7-1,2.8-1.8c2-1.6,4.5-4.2,7.2-7.7l7.9-10.9
			c-1.3,0-3.1,0.5-5.2,1.8c-2.1,1.2-4.6,3.2-7.3,5.7c-2.7,2.6-4.8,4.9-6.1,6.9c-1.3,2-1.9,3.7-1.9,4.9c0,0.6,0.1,1,0.2,1.2
			C190.2,231.6,190.2,231.6,190.2,231.6z"/>
		<path class="st5" d="M191.7,238.2c-1.6,0.5-3.2,1-4.7,1.6c-1.5,0.6-2.9,1.3-3.9,2.3c-0.5,0.5-0.9,1.1-1.2,1.7
			c-0.3,0.6-0.4,1.2-0.5,1.8c0.2,0.8,0.6,1.3,1,1.7c0.3,0.3,0.6,0.5,0.8,0.6c0.2,0.1,0.4,0.1,0.5,0.1c1.2,0,2.6-0.4,4.1-1.3
			c1.5-0.9,3.2-2.4,4.9-4.4c1.3-1.5,2.7-3.4,4.2-5.8C195,237.1,193.3,237.6,191.7,238.2z"/>
		<path class="st2" d="M115.5,211.6L115.5,211.6c2-0.4,3.5-0.7,4.6-1.1c0.5-0.2,1-0.3,1.4-0.5c0.2-0.1,0.4-0.2,0.6-0.4
			c0.1-0.1,0.2-0.3,0.3-0.5c0.1-0.2,0.2-0.5,0.2-0.8c0-0.2,0-0.4-0.1-0.7c-0.1-0.3-0.4-0.6-0.6-0.8c-0.2-0.2-0.5-0.3-0.7-0.3
			l-0.2-0.1l-0.3,0c-1.7,0.1-5.3,0.2-10.5,0.2c0.6-1.2,1.2-2.3,1.6-3.1c0.3-0.6,0.6-1.2,0.9-1.6c0.2-0.4,0.4-0.7,0.5-0.8l0,0
			c1-1.7,2.1-2.9,3.1-3.7c1-0.8,1.9-1.1,2.8-1.1c0.4,0,0.6,0.1,0.8,0.2c0.2,0.1,0.3,0.2,0.4,0.4l0,0l0,0c0.2,0.3,0.4,0.6,0.8,0.9
			c0.3,0.3,0.8,0.5,1.4,0.5c0.5,0,1-0.1,1.4-0.4c0.3-0.2,0.6-0.4,0.8-0.7c0.3-0.4,0.5-0.9,0.6-1.4c0.1-0.5,0.2-1,0.2-1.6
			c0-0.5-0.1-1-0.3-1.5c-0.2-0.5-0.5-0.9-0.8-1.3l0,0l0,0c-1-0.9-2-1.6-3-2.1c-1-0.5-2.1-0.8-3.2-0.8c-1.5,0-2.9,0.5-4.3,1.4
			c-2.1,1.3-4,3.4-6,6.4c-1.8,2.7-3.7,6.2-5.6,10.4l-6.8-0.1h0c-0.4,0-0.9,0.1-1.2,0.3c-0.4,0.2-0.7,0.4-1,0.6l0,0
			c-0.4,0.3-0.8,0.7-1,1.1c-0.3,0.5-0.4,1-0.4,1.5c0,0.4,0.1,0.9,0.4,1.2c0.4,0.6,0.9,1,1.5,1.2c0.9,0.4,1.9,0.6,3.2,0.8
			c0.7,0.1,1.6,0.2,2.5,0.2l-3.6,8.8c-3.8,8.6-6.8,14.5-8.9,17.7c-1.9,2.8-3.8,4.8-5.7,6.1c-1.9,1.3-3.9,1.9-5.9,1.9
			c-0.2,0-0.4,0-0.6-0.1c-0.2-0.1-0.5-0.3-0.8-0.6c-0.5-0.5-1-1.3-1.3-2.6c0-0.3-0.1-0.5-0.3-0.9c-0.1-0.2-0.3-0.4-0.5-0.6
			c-0.3-0.2-0.6-0.3-1-0.3c-0.3,0-0.7,0.1-1,0.3c-0.4,0.3-0.7,0.6-0.9,0.9c-0.2,0.3-0.3,0.6-0.4,1l-0.1,0.2l0,0.2
			c0.1,2,0.9,3.9,2.2,5.5c0.7,0.8,1.5,1.5,2.4,1.9c0.9,0.4,1.9,0.7,2.9,0.7c2.7,0,5.3-1,7.9-2.9c2.5-1.9,5-4.6,7.5-8.1l0,0
			c0.9-1.2,2.1-3.3,3.8-6.2c1.7-2.9,3.7-6.7,6.2-11.4l0,0l0,0c2.3-4.6,4.3-8.6,5.9-12C109.4,212.7,112.2,212.2,115.5,211.6
			L115.5,211.6z"/>
		<line class="st6" x1="169.7" y1="234.4" x2="169.7" y2="234.4"/>
		<path class="st2" d="M256.5,205.2c-0.6,6.9-2.9,13.5-7.4,18.1c-2.2,2.4-4.8,4.3-7.6,5.8c-2.8,1.5-5.8,2.7-8.9,3.3
			c-1.5,0.3-3,0.4-4.4,0.3c-1.4-0.1-2.7-0.4-3.5-0.9c-0.4-0.3-0.6-0.5-0.8-0.8c-0.2-0.3-0.3-0.8-0.5-1.4c-0.1-0.3-0.1-0.6-0.2-1
			c0-0.2,0-0.3-0.1-0.4c1.8-0.2,3.6-0.4,5.3-0.9c1.8-0.4,3.7-1,5.4-1.8c0.9-0.4,1.7-0.8,2.6-1.3l1.2-0.8c0.4-0.2,0.8-0.5,1.2-0.8
			c1.6-1.1,3.1-2.3,4.5-4.1c0.7-0.9,1.4-2,1.8-3.5c0.4-1.4,0.3-3.3-0.4-4.7c-0.6-1.4-1.6-2.6-2.8-3.5c-1.3-0.9-2.8-1.3-4.2-1.4
			c-2.6-0.1-4.7,0.6-6.6,1.4c-1.9,0.8-3.5,1.9-5.1,3c-0.8,0.6-1.5,1.2-2.3,1.9c-0.7,0.7-1.4,1.3-2,2.1c-1.3,1.5-2.4,3.1-3.4,4.9
			c-0.7,1.3-1.2,2.8-1.5,4.3c-1.8,0.2-3.5,0.5-5.3,0.7c1.1-2,2.4-4.3,3.9-6.9c0.8-1.2,1.4-2.2,1.8-2.9c0.2-0.4,0.4-0.7,0.5-0.9
			c0.1-0.1,0.1-0.2,0.2-0.4c0.1-0.1,0.1-0.2,0.1-0.5l0,0c0.1-0.4,0.1-0.7,0.1-1.1c0-0.5-0.2-0.9-0.4-1.2c-0.2-0.3-0.4-0.6-0.7-0.8
			c-0.4-0.4-0.8-0.7-1.3-0.9c-0.5-0.2-1-0.3-1.5-0.3h-0.2l-0.1,0c0-0.1-0.1-0.2-0.1-0.4l0-0.1l0,0c-0.4-0.9-1.1-1.7-2-2.1
			c-0.9-0.4-1.9-0.6-3-0.6c-2.6,0-5.3,0.8-8.1,2.3c-2.7,1.5-5.6,3.7-8.5,6.5c-2.9,2.9-5.1,5.6-6.6,8.1c-1.3,2.1-2,4.2-2.3,6.2
			c-0.6,0.5-1.2,1-1.8,1.4c-1.3,0.9-2.4,1.5-3.5,2c-1,0.4-2,0.6-2.8,0.6c-0.4,0-0.6-0.1-0.8-0.1c-0.2-0.1-0.4-0.2-0.5-0.5
			c-0.1-0.3-0.3-0.8-0.3-1.6c0-0.7,0.1-1.3,0.2-2l0,0l0,0c0.3-1.5,1.3-3.8,3-6.6c1.8-2.9,4.3-6.4,7.5-10.5l0,0
			c2.2-2.7,5.4-6.8,9.9-12.2l0.1-0.1l0.1-0.1c0.2-0.3,0.3-0.6,0.4-0.9c0.1-0.3,0.2-0.6,0.2-1c0-0.6-0.3-1.3-0.7-1.7
			c-0.4-0.4-0.9-0.7-1.4-0.9l0,0c-0.8-0.3-1.4-0.5-2.1-0.5c-0.6,0-1.1,0.1-1.6,0.4c-0.9,0.4-1.7,1-2.6,1.8c-1.3,1.2-2.8,3-4.5,5.3
			c-1.3,1.7-2.6,3.7-4.1,6.1c-0.5-0.5-1-0.9-1.7-1.1c-0.8-0.3-1.6-0.4-2.5-0.4c-2.7,0-5.4,0.8-8.1,2.3c-2.8,1.5-5.6,3.7-8.5,6.6
			c-2,2-3.7,4-5.1,5.8c-0.2,0.2-0.4,0.3-0.6,0.5l0,0c-2.6,3-5,5.4-7.3,7.3c-2.2,1.9-4.2,3.2-5.9,3.9l0,0c-0.2,0.1-0.3,0.1-0.4,0.1
			c0-0.2-0.1-0.4-0.1-0.7c0-0.5,0.1-1.1,0.5-2c0.4-0.9,0.9-1.9,1.7-3c1.6-2.3,4-5.4,7.1-9.2c1.2-1.3,2.1-2.4,2.7-3.3
			c0.3-0.4,0.6-0.8,0.8-1.2c0.1-0.2,0.2-0.4,0.3-0.6c0.1-0.2,0.1-0.4,0.1-0.8c0-0.5-0.1-1.1-0.3-1.6c-0.3-0.8-1-1.4-1.7-1.8
			c-0.7-0.3-1.6-0.5-2.5-0.5c-0.8,0-1.4,0.3-2.1,0.7c-0.9,0.6-2,1.5-3.2,2.8c-1.2,1.3-2.6,2.9-4.2,4.9c-2.1,2.6-3.9,4.8-5.3,6.5
			c-1.4,1.7-2.5,2.9-3.2,3.6l0,0c-2.2,2.3-4.1,3.9-5.6,5c-0.8,0.5-1.5,0.9-2.1,1.1c-0.3,0.1-0.6,0.2-0.9,0.3c0-0.8,0.3-2,1.1-3.6
			c0.8-1.6,2-3.7,3.6-6c3.3-4.7,6.1-8.1,8.1-10l0,0l0,0c0.3-0.3,0.5-0.6,0.7-1c0.2-0.4,0.3-0.8,0.3-1.2c0-0.4-0.1-0.9-0.3-1.3
			c-0.3-0.7-0.9-1.1-1.5-1.4c-0.6-0.2-1.2-0.3-1.9-0.3c-1,0-2,0.3-3,0.8c-0.9,0.5-1.8,1.3-2.6,2.2l0,0c-2.4,2.4-9.6,15.6-10.3,17.7
			c-0.3,1-0.5,1.9-0.5,2.9c0,0.2,0,0.4,0,0.6v0.1l0,0.1c0.1,1.6,0.5,3,1.5,4.1c0.5,0.5,1,0.9,1.7,1.2c0.6,0.3,1.3,0.4,2.1,0.4
			c1.2,0,2.3-0.3,3.6-0.8c1.8-0.8,3.7-2.1,5.8-3.9c0.9-0.8,1.8-1.6,2.7-2.6c-0.1,0.5-0.1,1.1-0.1,1.6c0,0.8,0.2,1.5,0.5,2.2
			c0.3,0.7,0.8,1.3,1.4,1.8c1.1,0.9,2.3,1.4,3.7,1.4c0.5,0,0.9,0,1.2,0c0.3,0,0.6,0,0.9-0.1l0.1,0l0,0c0.5-0.1,1-0.3,1.5-0.6
			c1.6-0.8,3.5-2.2,6-4.4c0.7-0.6,1.4-1.3,2.1-1.9c0.1,0.9,0.3,1.8,0.6,2.6c0.4,0.9,1.1,1.8,2,2.4l0,0c0,0,0,0,0,0c0,0,0,0,0,0l0,0
			c1.4,1.2,3.3,1.7,5.3,1.7c1.3,0,2.5-0.5,3.9-1.3c1.3-0.8,2.8-1.9,4.3-3.4l0,0l3.3-3.3c0,0.2,0,0.4,0,0.6c0,1.7,0.5,3.3,1.6,4.7
			c0.6,0.8,1.3,1.4,2.2,1.8c0.9,0.4,1.9,0.6,2.9,0.6c0.5,0,1,0,1.4-0.1l0,0c0,0,0,0,0,0l0,0l0,0c2.7-0.5,5.4-1.8,8.2-3.9
			c0.4,0.7,1,1.3,1.7,1.8c-2.3,1.1-4.5,2.7-6.2,4.9c-1.3,1.8-2.2,4.2-2,6.4c0.1,0.6,0.2,1.1,0.3,1.6c0,0,0,0.1,0,0.1
			c0.4,2.1,1.2,4.2,3.3,5.3c1.1,0.6,2.1,0.7,2.9,0.7c2.7,0,5.3-1,7.9-2.8c2.6-1.8,5.2-4.5,7.8-7.9l0,0c2.1-2.7,4.9-7.3,8.4-13.7
			c2.6-0.2,5.3-0.4,7.9-0.6c0,0.4,0.1,0.8,0.2,1.1c0.1,0.5,0.2,1,0.3,1.5c0.3,1.1,0.7,2.3,1.5,3.4c0.8,1.1,1.9,2.1,3,2.7
			c1.1,0.6,2.2,0.9,3.3,1.1c1.1,0.2,2.1,0.3,3.1,0.2c2,0,3.9-0.4,5.8-0.9c7.2-2,13.6-6.3,17.9-12.2c2.1-3,3.6-6.4,4.4-9.9
			C256.8,212.1,256.9,208.6,256.5,205.2z M169.7,218.8c-1.7,2.2-2.7,3.6-3.2,4.1l0,0c-2.7,3.2-5.1,5.6-6.9,7.2
			c-0.9,0.8-1.7,1.3-2.4,1.7c-0.7,0.3-1.1,0.5-1.4,0.4c-0.2,0-0.2,0-0.3,0c0,0,0,0-0.1-0.2c-0.1-0.2-0.2-0.6-0.2-1.2
			c0-1.3,0.6-3,1.9-5c1.3-2,3.3-4.3,6.1-6.9c2.7-2.6,5.2-4.5,7.3-5.7c2-1.2,3.6-1.7,4.9-1.7C173,214.4,171.1,216.9,169.7,218.8z
			 M227,218.5c0.5-0.5,1-1.1,1.6-1.6c0.5-0.5,1.1-1,1.7-1.4c1.2-0.9,2.5-1.7,3.8-2.2c1.3-0.6,2.6-0.9,3.4-0.9c0.4,0,0.5,0.1,0.7,0.2
			c0.1,0.1,0.3,0.3,0.4,0.5l0,0.1c0,0,0,0.1,0,0.2c0,0.2-0.2,0.6-0.5,1.1c-0.7,0.9-1.8,1.9-3,2.8c-2.5,1.9-5.1,3.2-8.1,4.1
			c-0.8,0.2-1.6,0.4-2.4,0.6C225.2,220.8,226,219.6,227,218.5z M199.4,231.5l0.5-0.2c-0.4,0.8-0.8,1.5-1.2,2.2
			c-0.4-0.1-0.8-0.2-1.2-0.2C198,232.7,198.7,232.1,199.4,231.5z M191.8,225.2c1.3-2,3.3-4.3,6.1-6.9c2.7-2.6,5.2-4.5,7.3-5.7
			c2.1-1.2,3.9-1.8,5.2-1.8l-7.9,10.9c-2.7,3.5-5.1,6-7.2,7.7c-1,0.8-2,1.4-2.8,1.8c-0.8,0.4-1.5,0.5-2,0.5c-0.2,0-0.2,0-0.3,0
			c0,0,0,0-0.1-0.2c-0.1-0.2-0.2-0.6-0.2-1.2C189.9,228.9,190.5,227.2,191.8,225.2z M192.6,242.4c-1.7,2-3.4,3.5-4.9,4.4
			c-1.5,0.9-2.9,1.3-4.1,1.3c-0.1,0-0.3,0-0.5-0.1c-0.2-0.1-0.5-0.3-0.8-0.6c-0.4-0.4-0.7-0.9-1-1.7c0-0.7,0.2-1.3,0.5-1.8
			c0.3-0.6,0.7-1.2,1.2-1.7c1-1,2.4-1.8,3.9-2.3c1.5-0.6,3.1-1.1,4.7-1.6c1.6-0.6,3.3-1.1,5.1-1.6
			C195.3,238.9,193.9,240.9,192.6,242.4z"/>
	</g>
	<g>
		<path class="st3" d="M199.5,316.9c10.2-3.5,19.9-8.6,28.5-15.1c8.6-6.5,16.1-14.3,22.3-23c6.2-8.7,10.9-18.4,14.1-28.5
			c3.1-10.1,4.6-20.8,4.5-31.3c-0.2-10.6-2.1-21.1-5.6-31c-3.5-9.9-8.3-19.3-14.4-27.8c-1.5-2.1-3.2-4.2-4.8-6.3
			c-1.7-2-3.5-3.9-5.2-5.9c-1.8-1.9-3.8-3.7-5.6-5.6l-6.1-5.1c-8.3-6.6-17.7-12-27.7-16.2l0.2-0.7c10.7,2.3,21,6.8,30.3,12.8
			c2.3,1.6,4.6,3.2,6.8,4.9c2.1,1.8,4.3,3.6,6.4,5.4c2,2,4,3.9,5.9,6c1.8,2.1,3.7,4.2,5.4,6.5c6.8,8.9,12,19.1,15.3,29.8
			c3.3,10.7,4.8,22,4.6,33.1c-0.2,11.2-2.1,22.3-5.7,32.7c-3.6,10.5-8.9,20.4-15.6,29.2c-13.4,17.6-32.3,30.7-53.3,36.7L199.5,316.9
			z"/>
		<path class="st3" d="M137.7,121.1c-10.2,3.5-19.9,8.6-28.5,15.1c-8.6,6.4-16.1,14.2-22.3,23c-6.2,8.7-11,18.4-14.1,28.5
			c-3.1,10.1-4.7,20.8-4.5,31.3c0.2,10.6,2.1,21.1,5.6,31c3.5,9.9,8.3,19.3,14.3,27.9c1.5,2.1,3.2,4.2,4.7,6.3
			c1.7,2,3.5,3.9,5.2,5.9c1.8,1.9,3.8,3.7,5.6,5.6l6,5.2c8.3,6.6,17.7,12,27.7,16.2l-0.2,0.7c-10.7-2.3-21-6.8-30.3-12.9
			c-2.3-1.6-4.6-3.2-6.8-4.9c-2.1-1.8-4.3-3.6-6.4-5.4l-3-3c-1-1-2-2-2.9-3c-1.8-2.2-3.7-4.2-5.4-6.5c-6.8-8.9-12-19.1-15.3-29.9
			c-3.2-10.8-4.8-22-4.6-33.1c0.2-11.2,2.1-22.2,5.8-32.7c3.6-10.5,8.9-20.4,15.6-29.2c13.4-17.5,32.4-30.7,53.4-36.6L137.7,121.1z"
			/>
	</g>
</g>
</svg>
