<?xml version="1.0" encoding="utf-8"?>
<!-- Generator: Adobe Illustrator 21.1.0, SVG Export Plug-In . SVG Version: 6.00 Build 0)  -->
<svg version="1.1" id="Layer_1" xmlns="http://www.w3.org/2000/svg" xmlns:xlink="http://www.w3.org/1999/xlink" x="0px" y="0px"
	 viewBox="0 0 365 1130" style="enable-background:new 0 0 365 1130;" xml:space="preserve">
<style type="text/css">
	.st0{fill:#B26000;}
	.st1{fill:#C7B068;}
	.st2{fill:#C09441;}
	.st3{fill:#2D0E06;}
	.st4{fill:#502012;}
	.st5{fill:#431A0D;}
	.st6{fill:#E5DEDC;}
	.st7{fill:#441B0F;}
	.st8{fill:#FFFFFF;}
	.st9{fill:#F9F4DF;}
	.st10{fill:#EFDFA3;}
	.st11{fill:#4E1F10;}
	.st12{fill:#38130A;}
	.st13{fill:#944D05;}
	.st14{fill:#FF4E00;}
	.st15{fill:#E14500;}
	.st16{fill:#D24000;}
	.st17{fill:#A63000;}
</style>
<g>
	<polyline class="st0" points="183.2,1105.8 296.2,670.3 70.1,670.3 183.2,1105.8 	"/>
	<path class="st1" d="M174.7,1063.6c-0.5,0.5-1,0.9-1.4,1.3l-0.6,0.5l10.5,40.4l7.4-28.6l-0.5-0.4c-3.3-2.6-6.2-5.1-9.1-7.6
		C178.8,1067.4,176.8,1065.5,174.7,1063.6 M187.8,1050.2c-0.2,0.2-0.4,0.4-0.6,0.7c-2.4,2.7-5,5.4-7.6,8c1.9,1.8,3.9,3.6,5.8,5.3
		c2.3,2,4.6,4,7.1,5.9l2.8-10.9l-0.7-0.8C192.2,1055.6,189.9,1052.9,187.8,1050.2 M202.4,1031.8c-3.2,4.5-6.6,8.9-10.1,13.2
		c1.7,2.1,3.4,4.2,5.1,6.2L202.4,1031.8 M165.2,1019.5c-1.1,0.7-2.2,1.4-3.5,2.2l-0.4,0.2l6.6,25.3l1.9,1.9c1.7,1.8,3.3,3.4,4.9,5
		c2.6-2.6,5.1-5.2,7.4-7.8c0.5-0.5,0.9-1,1.3-1.5c-5.8-7.5-11.5-15.2-16.7-23C166.3,1021.1,165.7,1020.3,165.2,1019.5 M157.7,1007.7
		l1.9,7.3c0.6-0.4,1.3-0.8,1.9-1.2C160.3,1011.9,159,1009.8,157.7,1007.7 M187.6,1002.9c-5.3,4.5-10.9,8.9-16.7,12.8
		c0.5,0.8,1,1.5,1.5,2.3c4.9,7.3,10.1,14.5,15.6,21.5c6-7.3,11.5-15,16.4-23.1C198.6,1012.2,192.9,1007.7,187.6,1002.9 M209.2,981.2
		c-4.2,5-8.6,9.7-13.1,14.1c-1,1-2.1,2-3.4,3.2c4.8,4.2,9.9,8.3,15.2,12.2l6.7-25.8l-0.4-0.3C212.5,983.4,210.8,982.3,209.2,981.2
		 M164.6,979.5c-3.7,2.4-7.5,4.8-11.4,7l1,1.8c4.2,7.5,8.6,14.8,13,21.8c5.3-3.7,10.5-7.6,15.4-11.8c-2.2-2.1-4.3-4.1-6.3-6.2
		C172.3,988.2,168.3,983.9,164.6,979.5 M218.7,969c-1.7,2.4-3.4,4.7-5.2,6.9c1,0.7,2,1.4,2.9,2L218.7,969 M186.4,963.5
		c-5.2,4.3-10.6,8.4-16.1,12.2c3.5,4,7.1,8,10.8,11.7c2.1,2.1,4.3,4.2,6.6,6.4c1.4-1.3,2.6-2.4,3.7-3.5c4.2-4.1,8.4-8.5,12.3-13.2
		C197.8,972.9,192,968.3,186.4,963.5 M143.5,950.7c-0.1,0.1-0.3,0.1-0.4,0.2l-0.2,0.1l7.6,29.3c3.3-1.9,6.6-3.9,9.7-5.9
		C154.2,966.8,148.6,958.9,143.5,950.7 M206.6,944.6c-4.9,5.1-9.9,10-15,14.5c5.3,4.5,10.8,8.9,16.4,12.9c4.7-5.9,9.1-12.3,13.1-19
		C216.2,950.3,211.3,947.5,206.6,944.6 M163.5,941.8c-4.4,2.2-9,4.4-13.6,6.3c4.9,7.8,10.3,15.3,16,22.4c5.2-3.6,10.4-7.5,15.3-11.5
		c-2.3-2-4.4-4-6.4-5.9C171,949.4,167.2,945.6,163.5,941.8 M184.7,929.5c-4.8,3.1-9.8,6.2-15,9c3.2,3.4,6.5,6.6,9.7,9.7
		c2.2,2.1,4.5,4.2,7,6.4c0.2-0.2,0.4-0.3,0.5-0.5c4.7-4.1,9.2-8.5,13.8-13.2C195.3,937.3,189.9,933.5,184.7,929.5 M228.9,917.2
		c-5.5,7.8-11.4,15.3-17.7,22.3c4.3,2.6,8.7,5.2,13.1,7.6l7.4-28.4l-0.3-0.2l-0.3-0.2C230.4,918,229.6,917.6,228.9,917.2 M140,913.7
		c-1.9,0.6-3.9,1.2-6.2,1.9l0,0l1.5,5.9l3.1,6.3c2.5,4.9,5.1,9.7,7.8,14.4c4.2-1.8,8.4-3.7,12.4-5.7
		C152.2,929.3,145.9,921.6,140,913.7 M234.1,909.4c-0.5,0.7-0.9,1.4-1.4,2.1l0.3,0.1l0.5,0.2L234.1,909.4 M212.4,907.9
		c-6.8,6.3-14.2,12.2-21.8,17.6c4.8,3.6,9.8,7.1,14.8,10.4c6.2-6.8,12.1-14.2,17.5-21.9C219.4,912,215.9,910,212.4,907.9
		 M158.6,906.8c-3.9,1.6-7.9,3.2-11.9,4.6c5.7,7.6,11.8,15,18.2,22c4.8-2.6,9.6-5.4,14.1-8.3C172,919.4,165.1,913.2,158.6,906.8
		 M129.2,898.1l2.9,11c1.4-0.4,2.6-0.8,3.8-1.1C133.6,904.7,131.4,901.4,129.2,898.1 M188.3,891.8c-7.4,4.5-15.1,8.5-22.9,12.1
		c6.3,6.1,12.9,11.8,19.7,17.2c7.5-5.2,14.7-10.9,21.5-16.9C200.3,900.3,194.2,896.1,188.3,891.8 M231.9,887.7
		c-4.5,5.3-9.3,10.5-14.4,15.4c3.1,1.8,6.1,3.6,9.2,5.3c3.7-5.7,7.4-11.7,10.8-17.9C235.7,889.5,233.8,888.6,231.9,887.7
		 M133.7,878.4c-2.4,0.7-4.8,1.4-7.2,2.1c5,8.7,10.4,17.1,16.1,25.2c3.6-1.3,7.3-2.6,10.9-4.1C146.5,894.4,139.9,886.6,133.7,878.4
		 M210.9,876.4c-5.2,4.1-10.8,8-16.4,11.6c5.6,4,11.3,7.8,17.1,11.5c4.9-4.7,9.6-9.7,14.1-14.9C220.7,882,215.7,879.2,210.9,876.4
		 M243.7,872.6c-2.4,3.3-4.9,6.6-7.4,9.7c1.4,0.7,2.8,1.3,4.3,2.1L243.7,872.6 M160.2,868.8c-6.5,2.7-13.1,5.2-19.7,7.5
		c5.7,7.3,11.7,14.3,18,20.8c0.6,0.6,1.1,1.2,1.7,1.8c7.6-3.4,15-7.2,22.2-11.4C174.7,881.6,167.3,875.3,160.2,868.8 M182.9,857.9
		c-5.2,2.8-10.5,5.4-15.9,7.9c6.9,6.3,14.2,12.3,21.6,17.9c5.4-3.4,10.8-7.1,16-11.1C197.2,868,189.9,863.1,182.9,857.9
		 M118.3,856.1l4.8,18.4c2.2-0.6,4.2-1.2,6.3-1.8C125.5,867.3,121.8,861.8,118.3,856.1 M239.8,849.7c-7.3,7.9-15.1,15.3-23.3,22.1
		c4.5,2.6,9,5.1,13.6,7.4c5.8-7.1,11.3-14.8,16.3-22.7l2.2-3.5C245.4,851.8,242.5,850.8,239.8,849.7 M138.6,846.9
		c-5.3,1.3-10.6,2.4-16,3.3c4.2,7,8.7,13.8,13.5,20.3c6.3-2.1,12.6-4.4,18.6-6.8c-1.5-1.5-2.9-2.8-4.2-4.1
		C146.6,855.6,142.6,851.3,138.6,846.9 M161,840.4c-5,1.7-10,3.3-15,4.6c3.2,3.4,6.2,6.7,9.3,9.8c1.9,1.9,3.9,3.9,6.2,6
		c5.1-2.3,10.2-4.7,15.3-7.4C171.5,849.3,166.2,844.9,161,840.4 M214.2,838.3c-3.3,2.4-6.4,4.6-9.6,6.7c-4.9,3.2-9.9,6.3-15.2,9.4
		c6.8,4.9,13.8,9.6,20.9,13.9c8-6.5,15.7-13.6,22.8-21.2C226.7,844.3,220.3,841.4,214.2,838.3 M254,832.7c-3.1,4.1-6.2,7.9-9.4,11.6
		c1.8,0.7,3.7,1.4,5.8,2.1L254,832.7 M193.3,826.6c-3.8,2-7,3.6-10.2,5c-4.8,2.2-9.7,4.3-14.7,6.1c4.9,4.2,9.9,8.2,15.1,12.1
		c6-3.4,11.9-6.9,17.5-10.6c2.1-1.4,4.2-2.9,6.6-4.5C202.6,832.1,197.9,829.4,193.3,826.6 M235,821.5c-4.7,4.2-9.6,8.3-14.8,12.2
		c5.8,2.8,11.7,5.5,17.7,7.9c4.4-5,8.7-10.2,12.7-15.6c-5.2-1.3-10.4-2.9-15.4-4.5L235,821.5 M215.1,813.9c-4.9,3.2-9.9,6.2-14.8,9
		c4.4,2.6,8.8,5.1,13.3,7.4c4.8-3.6,9.5-7.4,14.1-11.4C223.4,817.4,219.2,815.7,215.1,813.9 M111.8,812.7c-1.5,0.2-3,0.5-4.6,0.8
		l4.3,16.6l3,5.8c1.5,2.8,3,5.6,4.4,8.2c4.9-0.8,9.7-1.7,14.6-2.8C125.8,832,118.5,822.5,111.8,812.7 M129.9,809
		c-3.6,0.8-7.2,1.6-10.8,2.3c6.7,9.7,14.1,19.2,21.8,28c4.8-1.2,9.6-2.6,14.3-4.2c-3.2-2.9-6.2-5.8-9.2-8.8
		C140.6,820.9,135.2,815.1,129.9,809 M255.2,801.5c-4.6,5.1-9.5,10-14.5,14.7c4.7,1.4,9.4,2.8,14.1,3.9c0.4-0.6,0.8-1.2,1.2-1.7
		l0.4-0.6l2.4-3.5l2.9-11.3C259.5,802.5,257.3,802,255.2,801.5 M158.1,801c-6.8,2.3-13.8,4.3-20.8,6.2c4.4,5,9,9.8,13.6,14.4
		c3.7,3.7,7.6,7.4,11.7,11.1c6.1-2.2,12-4.6,17.7-7.2c2-0.9,4.1-1.9,6.4-3.1C176.7,815.9,167.1,808.7,158.1,801 M103.9,800.3
		l1.7,6.5l0.1,0c0.7-0.1,1.4-0.2,2-0.3C106.4,804.5,105.1,802.4,103.9,800.3 M238.4,796.6c-5.3,4.5-10.9,8.8-16.6,12.8
		c3.8,1.6,7.7,3,11.6,4.4c5-4.6,9.8-9.3,14.4-14.3C244.6,798.6,241.5,797.6,238.4,796.6 M178.1,793.5c-3.3,1.4-6.1,2.5-8.8,3.5
		c-1.2,0.5-2.4,0.9-3.8,1.4c8.9,7.3,18.3,14.2,28.1,20.4c4.8-2.6,9.5-5.3,14.1-8.2C197.3,805.6,187.4,799.9,178.1,793.5 M265.1,790
		c-1.6,2-3.2,3.9-4.8,5.8c1,0.2,2,0.4,3.1,0.7l0.1,0L265.1,790 M203.6,781.6c-5.9,3.1-11.9,6-18.1,8.8c9.1,6,18.8,11.3,29,15.9
		c5.5-3.7,11-7.9,16.5-12.2C221.5,790.5,212.3,786.3,203.6,781.6 M105.9,777.4c-2.2,0.3-4.5,0.5-6.9,0.7l1.2,2.3
		c4.5,8.5,9.5,16.8,14.8,24.8c3.3-0.6,6.7-1.3,10-2C118.3,795,111.8,786.4,105.9,777.4 M130.1,773.6c-5.5,1.1-11.2,2.1-16.7,2.9
		c5.9,8.6,12.2,17,19,25c6.6-1.6,13.2-3.5,19.8-5.6c-4.7-4.3-9.3-8.7-13.6-13.2C135.7,779.8,133,776.8,130.1,773.6 M264.8,771.1
		c-6.4,7.1-13.3,14-20.4,20.3c2.9,0.9,5.8,1.7,8.6,2.5c5-5.6,9.8-11.6,14.3-17.6l2.2-2.9l0.3-1.2
		C267.9,771.7,266.3,771.4,264.8,771.1 M148.6,769.1c-3.5,1-7.2,1.9-10.9,2.8c1.9,2.1,3.8,4.1,5.7,6.1c5.1,5.3,10.5,10.4,16.2,15.4
		c2.7-0.9,5.1-1.8,7.3-2.6c1.6-0.6,3.1-1.2,4.7-1.8C163.4,782.9,155.7,776.2,148.6,769.1 M235.3,762.5c-7.9,5.4-16.2,10.5-24.5,15.2
		c8.4,4.3,17.2,8.1,26.2,11.2c7-6.1,13.8-12.7,20.3-19.6C249.8,767.4,242.4,765.2,235.3,762.5 M272.3,762.4
		c-0.8,0.9-1.5,1.9-2.4,2.9c0.5,0.1,1,0.2,1.5,0.3l0.1,0L272.3,762.4 M172.8,761.1l-0.1,0c-1.1,0.4-2.2,0.9-3.4,1.3
		c-4.3,1.6-8.7,3.1-13.3,4.5c7.1,6.9,14.8,13.2,22.9,19c6-2.6,11.9-5.3,17.7-8.2C188.3,772.7,180.3,767.1,172.8,761.1 M92.1,754.9
		l4.3,16.7l0.3,0c1.8-0.2,3.5-0.3,5.1-0.5C98.4,765.9,95.2,760.4,92.1,754.9 M202.9,747.3c-7.4,4-15.1,7.6-22.9,10.9
		c7.4,5.8,15.4,11.1,23.7,15.8c8.2-4.4,16.2-9.2,24-14.4C219.1,756,210.8,751.9,202.9,747.3 M108.9,746.4c-4.4,0.4-8.8,0.7-13.2,1
		c4.2,7.8,8.7,15.4,13.5,22.8c5.2-0.7,10.5-1.5,15.8-2.5C119.4,760.9,114,753.8,108.9,746.4 M259.3,744.5
		c-5.6,4.6-11.4,9.1-17.2,13.3c6.6,2.3,13.4,4.2,20.3,5.8c2-2.3,3.8-4.4,5.4-6.4c2.2-2.7,4.4-5.4,6.6-8.4l0.7-1
		C269.6,746.9,264.4,745.8,259.3,744.5 M127.1,744c-3.5,0.6-7,1.1-10.5,1.6c5,7.1,10.4,14,16,20.5c3.5-0.8,7-1.6,10.6-2.6
		c-1.1-1.2-2.2-2.4-3.3-3.6C135.4,754.9,131.1,749.5,127.1,744 M149.7,739.2c-5.1,1.3-10.1,2.5-15.1,3.5c3.3,4.4,6.8,8.7,10.5,12.8
		c1.8,2,3.6,4,5.6,6c5.6-1.6,11-3.5,16.3-5.4c-3-2.6-5.9-5.3-8.6-8C155.3,745.2,152.5,742.3,149.7,739.2 M227.6,732.4
		c-5.8,3.9-11.8,7.7-17.7,11.1c7.9,4.4,16.1,8.2,24.5,11.5c5.8-4.1,11.5-8.4,17.1-12.8C243.2,739.5,235.2,736.3,227.6,732.4
		 M177.9,730.1c-3.5,1.4-6.9,2.6-10.2,3.7c-3.4,1.2-7,2.3-10.7,3.4c2,2.1,3.9,4.2,5.9,6.1c3.5,3.4,7.1,6.7,11.1,10.1
		c7.5-3,14.9-6.4,22.1-10.1c-6.3-4-12.4-8.4-18.1-13L177.9,730.1 M282.4,723.4c-5.5,5.4-11.1,10.7-16.8,15.6
		c3.9,0.9,7.9,1.7,11.9,2.3l0.1,0L282.4,723.4 M92.5,719.3c-1.9,0-3.7,0.1-5.5,0.1c-1.2,0-2.6,0-4.1,0l3.1,11.8l1.4-0.5
		c1.7,3.6,3.3,6.9,4.9,10.1c4.1-0.1,8.2-0.4,12.4-0.7C100.3,733.3,96.2,726.4,92.5,719.3 M111.1,718.2c-3.7,0.4-7.4,0.6-11.1,0.8
		c3.8,6.9,7.9,13.7,12.3,20.2c3.6-0.4,7.1-0.9,10.6-1.4C118.6,731.6,114.6,725,111.1,718.2 M204.3,718.1c-6.2,3.3-12.7,6.3-19.2,9
		c5.7,4.4,11.7,8.6,17.9,12.3c6-3.3,12-6.9,17.7-10.7c-0.5-0.3-0.9-0.5-1.4-0.8C214.2,725,209.2,721.7,204.3,718.1 M131.2,715.3
		c-4.3,0.8-8.7,1.5-13,2c3.6,6.6,7.6,13.1,11.9,19.3c4.9-0.9,9.8-2,14.6-3.1C139.9,727.7,135.4,721.6,131.2,715.3 M255.2,711.1
		c-6.8,6-14,11.6-21.3,16.9c7.7,3.6,15.6,6.7,23.8,9c6.8-5.7,13.4-11.9,19.8-18.2C269.9,716.6,262.4,714,255.2,711.1 M155.8,709.4
		c-4.5,1.3-8.6,2.5-12.6,3.4c-1.5,0.4-3.1,0.7-4.8,1.1c4.2,6.1,8.7,12.1,13.5,17.7c4.7-1.3,9.2-2.7,13.5-4.2
		c2.1-0.7,4.3-1.5,6.5-2.3C166.3,720.1,160.9,714.9,155.8,709.4 M133.7,706.6c0.2,0.4,0.5,0.8,0.7,1.2c1.6-0.3,3.2-0.7,4.7-1
		C137.4,706.8,135.5,706.7,133.7,706.6 M111.3,703.1c1.2,2.6,2.4,5.2,3.7,7.8c4-0.5,8.2-1.1,12.4-1.8c-0.7-1.1-1.3-2.2-2-3.3
		C120.6,705.2,115.9,704.3,111.3,703.1 M233.1,700.6c-7.1,5-14.6,9.6-22.2,13.9c4,2.8,7.9,5.3,11.9,7.6c1.4,0.8,2.8,1.6,4.3,2.4
		c7.2-5.1,14.3-10.6,21.2-16.4l-0.2-0.1C243.1,705.8,238.1,703.3,233.1,700.6 M183,699.5c-6.6,2.8-13.3,5.4-20,7.7
		c5,5.3,10.5,10.4,16.1,15.2c6.5-2.6,13-5.6,19.3-8.8C193,709.2,187.9,704.5,183,699.5 M87.9,694.2c2.6,6.1,5.5,12.2,8.5,18.2
		c3.7-0.1,7.5-0.4,11.3-0.7c-1.8-3.6-3.4-7.3-5-11.1C97.6,698.8,92.7,696.7,87.9,694.2 M80.2,693.2c-1.3,0-2.7,0.1-4.1,0.1l5,19.2
		l0.4,0c2.1,0.1,3.8,0.1,5.5,0.1c0.7,0,1.3,0,2,0C85.8,706.3,82.9,699.8,80.2,693.2 M277.2,689.7c-5.2,5.7-10.8,11.1-16.4,16.4
		c7.2,2.8,14.7,5.2,22.2,7.2c0.2-0.2,0.3-0.3,0.5-0.5l0.5-0.6l1.9-2l5.1-19.5c-2.7,0-5.2-0.2-7.5-0.3
		C281.5,690.2,279.5,690,277.2,689.7 M209.8,685.9c-6.5,3.8-13.3,7.4-20.2,10.6c4.8,4.8,10,9.4,15.3,13.6c7.4-4,14.7-8.5,21.7-13.2
		C220.8,693.5,215.2,689.8,209.8,685.9 M74,685.4l0.3,1.2l0.4,0c0.3,0,0.6,0,0.9,0C75.1,686.2,74.5,685.8,74,685.4 M254.3,684.2
		c-4.8,4.1-9.9,8.2-15.1,12c3.9,2.1,7.7,3.9,11.6,5.7c1,0.5,2,0.9,3,1.3c5.2-4.7,10.4-9.7,15.3-14.9
		C264.2,687.3,259.2,685.9,254.3,684.2 M230,672.7c-4.5,3.3-9.2,6.4-13.9,9.4c5.4,3.8,10.9,7.3,16.6,10.6c4.9-3.5,9.7-7.3,14.4-11.2
		C241.2,679,235.4,676,230,672.7 M283.4,672.4c-2,0.2-3.9,0.3-6,0.5c-4.2,0.3-7.9,0.5-11.2,0.5c-2,1.9-4,3.8-6.1,5.7
		c4.7,1.5,9.6,2.6,14.5,3.4C277.7,679.1,280.5,675.8,283.4,672.4 M242.1,671.7c3.5,1.8,7.2,3.4,10.8,4.8c1.3-1.1,2.5-2.3,3.8-3.4
		c-2.9-0.2-5.5-0.4-7.8-0.7C246.5,672.1,244.2,671.8,242.1,671.7 M187.9,1041.9c-5.6-7.2-11.3-14.9-16.8-23.1
		c-0.8-1.2-1.6-2.3-2.3-3.5c6.2-4.2,12.5-8.9,18.8-14.4c6.4,5.7,12.7,10.7,18.8,15.1C201.2,1024.6,195.1,1033.3,187.9,1041.9
		 M187.6,995.9c-2.6-2.4-5.1-4.8-7.7-7.4c-4.3-4.3-8.2-8.7-11.9-13.1c6.1-4.1,12.2-8.8,18.4-13.9c6.6,5.7,13.1,10.8,19.5,15.4
		c-4.1,4.9-8.6,9.8-13.5,14.5C190.8,993,189.2,994.4,187.6,995.9 M165.6,972.5c-6.9-8.5-12.9-16.9-17.9-25.1
		c5.3-2.2,10.7-4.7,16.2-7.5c3.8,4,7.8,8.1,12,12.1c2.6,2.4,5.1,4.8,7.7,7C177.5,964,171.5,968.5,165.6,972.5 M186.4,956.5
		c-2.7-2.3-5.3-4.8-8-7.3c-3.9-3.7-7.6-7.4-11.1-11.1c5.6-3,11.2-6.3,16.9-10c0.2-0.1,0.4-0.3,0.6-0.4c6.2,4.8,12.3,9.1,18.3,12.9
		c-4.7,5-9.7,9.9-15.1,14.6C187.4,955.7,186.9,956.1,186.4,956.5 M205.7,937.8c-5.7-3.7-11.7-7.8-17.6-12.4
		c8.8-6.1,16.9-12.6,24.2-19.4c4.4,2.7,8.7,5.1,12.8,7.4C219.4,921.7,212.9,929.9,205.7,937.8 M164.7,935.3
		c-7.5-8.2-14.3-16.4-20.3-24.6c4.7-1.6,9.6-3.5,14.6-5.6c7.5,7.5,15.1,14.2,22.7,20.2C175.9,929,170.3,932.3,164.7,935.3
		 M184.9,923c-7.4-5.8-14.8-12.3-22.2-19.6c8.3-3.7,16.9-8.1,25.6-13.4c7,5.1,13.9,9.8,20.6,14C201.7,910.7,193.7,917,184.9,923
		 M211.8,901.3c-6.5-4-13.2-8.5-20-13.5c6.7-4.2,13-8.7,18.9-13.3c6,3.5,11.8,6.7,17.3,9.5C223.1,890,217.7,895.7,211.8,901.3
		 M159.8,900.6c-0.8-0.8-1.6-1.7-2.4-2.5c-7.1-7.4-13.6-15-19.4-22.6c7.1-2.3,14.6-5.1,22.5-8.5c8.2,7.6,16.4,14.4,24.6,20.6
		C176.5,892.7,168,897,159.8,900.6 M188.5,885.5c-8-6-16.2-12.7-24.2-20.1c6.1-2.7,12.3-5.8,18.7-9.2c8.3,6.1,16.4,11.5,24.3,16.3
		C201.4,877,195.2,881.4,188.5,885.5 M135.6,872.3c-5.8-7.8-10.9-15.6-15.4-23.2c6-1,12.3-2.2,18.9-3.8c4,4.4,8.1,8.9,12.5,13.3
		c1.9,1.9,3.9,3.8,5.8,5.7C149.9,867.4,142.6,870.1,135.6,872.3 M161.3,862.6c-2.3-2.2-4.6-4.4-6.9-6.7c-3.9-3.9-7.5-7.7-11.1-11.6
		c5.9-1.5,11.9-3.4,18.1-5.5c6.1,5.4,12.2,10.4,18.3,15C173.4,857,167.3,859.9,161.3,862.6 M210.4,870c-7.7-4.6-15.7-9.9-23.8-15.8
		c5.7-3.2,11.4-6.6,17.2-10.5c3.5-2.3,6.9-4.7,10.3-7.2c7.5,3.8,14.7,7.1,21.6,9.9C228.3,854.5,219.9,862.4,210.4,870 M183.3,851.7
		c-5.9-4.4-11.9-9.2-17.9-14.4c5.6-2,11.2-4.4,17-7c3.7-1.7,7.4-3.5,10.9-5.4c5.7,3.5,11.4,6.7,16.9,9.7c-2.8,2-5.6,4-8.6,6
		C195.5,844.7,189.4,848.3,183.3,851.7 M238.4,843.4c-6.7-2.7-13.7-5.8-20.9-9.5c6.1-4.6,11.9-9.4,17.3-14.2c0.3,0.1,0.7,0.2,1,0.3
		c6.1,2,11.9,3.6,17.5,5C248.7,831.2,243.8,837.3,238.4,843.4 M213.7,832.1c-5.4-2.8-10.9-5.9-16.4-9.2c6.2-3.4,12.1-6.9,17.7-10.6
		c5.3,2.3,10.5,4.4,15.6,6.2C225.3,823,219.7,827.6,213.7,832.1 M140.5,841c-9-10.3-17-20.6-23.9-30.7c4.5-0.9,9.1-1.8,13.9-2.9
		c5.2,6,10.7,12.1,16.7,18c3.7,3.6,7.3,7.1,11,10.5C152.1,837.9,146.2,839.6,140.5,841 M162.2,834.4c-4.1-3.7-8.3-7.6-12.4-11.7
		c-5.4-5.4-10.5-10.9-15.3-16.3c7.7-1.9,15.7-4.2,23.9-7c10.4,8.9,20.9,16.6,31.2,23.2c-2.9,1.5-5.8,2.9-8.8,4.3
		C174.5,829.7,168.3,832.2,162.2,834.4 M233.8,815.5c-4.9-1.7-10-3.6-15.1-5.8c6.9-4.7,13.3-9.7,19.4-14.8c4.3,1.4,8.5,2.7,12.6,3.8
		C245.4,804.3,239.8,810,233.8,815.5 M193.5,820.5c-10.2-6.4-20.7-13.9-31-22.6c2.1-0.7,4.1-1.5,6.2-2.3c3.2-1.2,6.4-2.5,9.5-3.8
		c10.9,7.5,21.9,13.6,32.6,18.5C205.4,813.9,199.6,817.3,193.5,820.5 M214.6,807.9c-10.6-4.7-21.5-10.6-32.2-17.8
		c7.4-3.2,14.5-6.6,21.3-10.2c10.3,5.6,20.5,10.1,30.3,13.6C227.9,798.5,221.5,803.3,214.6,807.9 M131.8,803.1
		c-7.9-9.3-14.9-18.6-21.1-27.8c6.3-0.8,13-2,19.9-3.4c2.9,3.2,5.8,6.5,8.9,9.7c5.1,5.3,10.3,10.2,15.5,14.8
		C147.1,799.1,139.4,801.3,131.8,803.1 M159.2,795.1c-5.7-5-11.4-10.3-16.9-16.1c-2.6-2.7-5.1-5.3-7.4-8c4.6-1,9.3-2.2,14.1-3.6
		c8.3,8.3,16.9,15.6,25.6,21.9c-2.4,1-4.8,1.9-7.2,2.8C164.7,793.2,161.9,794.1,159.2,795.1 M237.3,790.7
		c-9.5-3.3-19.5-7.5-29.7-12.9c9.8-5.4,19-11,27.5-16.9c8.6,3.2,17,5.7,24.9,7.6C253.2,775.9,245.7,783.4,237.3,790.7 M178.7,787.6
		c-8.7-6.1-17.3-13.2-25.6-21.4c5.1-1.5,10.3-3.3,15.6-5.2c1.5-0.5,2.9-1.1,4.3-1.7c8.8,7.2,17.7,13.2,26.7,18.4
		C193,781.2,186,784.5,178.7,787.6 M203.6,775.6c-8.9-5-17.8-10.9-26.6-17.9c9.1-3.7,17.8-7.8,25.9-12.2c9.4,5.5,18.8,10,27.9,13.6
		C222.4,764.9,213.3,770.4,203.6,775.6 M108.5,771.8c-5.8-8.8-10.8-17.5-15.2-25.8c5.1-0.2,10.6-0.6,16.4-1.1
		c5.4,7.9,11.4,15.8,18.2,23.8C121.1,770,114.6,771,108.5,771.8 M132,767.8c-6.8-7.8-12.8-15.6-18.1-23.4c4.5-0.5,9.1-1.2,13.9-2
		c4,5.5,8.4,11.1,13.3,16.6c1.6,1.8,3.3,3.6,4.9,5.4C141.3,765.6,136.6,766.8,132,767.8 M150.1,763.2c-2.1-2.2-4.2-4.4-6.2-6.7
		c-4.4-4.9-8.3-9.9-12-14.8c5.9-1.1,12-2.5,18.3-4.2c2.8,3.2,5.8,6.4,9,9.5c3.4,3.4,6.9,6.6,10.5,9.6c-0.8,0.3-1.5,0.6-2.3,0.9
		C161.6,759.6,155.8,761.5,150.1,763.2 M234.6,756.6c-9.1-3.5-18.4-7.8-27.8-13.2c7.3-4.1,14.2-8.4,20.7-12.8
		c9.1,4.7,18.2,8.2,27.1,10.9C248.3,746.6,241.6,751.7,234.6,756.6 M173.7,755c-4-3.3-8-6.9-11.9-10.7c-2.7-2.6-5.2-5.3-7.6-7.9
		c4.2-1.2,8.5-2.5,12.9-4c3.8-1.3,7.4-2.6,11-4c0.3,0.2,0.5,0.5,0.8,0.7c6.7,5.4,13.4,10.1,20.2,14.3
		C191.2,747.5,182.7,751.5,173.7,755 M111.5,740.9c-5.3-7.9-9.9-15.7-14-23.2c4.6-0.2,9.4-0.5,14.4-1.1c3.8,7.3,8.2,14.8,13.5,22.4
		C120.6,739.8,116,740.4,111.5,740.9 M203,741.2c-7-4.2-14-9-20.8-14.5c7.9-3.2,15.3-6.7,22.3-10.4c4.8,3.6,10.1,7.1,15.7,10.4
		c1.2,0.7,2.3,1.3,3.5,1.9C217.2,733,210.3,737.2,203,741.2 M129.5,738.2c-5.2-7.5-9.7-14.9-13.5-22.1c5.2-0.6,10.5-1.4,16-2.5
		c4.4,6.8,9.6,13.8,15.5,20.7C141.3,735.9,135.3,737.2,129.5,738.2 M258,738.6c-8.9-2.5-18-5.9-27.1-10.4
		c8.7-6.2,16.7-12.5,23.9-18.9c8.8,3.6,17.3,6.4,25.5,8.6C273.7,724.7,266.3,731.7,258,738.6 M151.5,733.2
		c-5.9-6.8-11.1-13.7-15.5-20.4c2.3-0.5,4.6-1,7-1.5c4.6-1.1,9.1-2.3,13.4-3.7c5.5,6,11.6,12.1,18.5,17.9c-2.9,1.1-5.8,2.2-8.9,3.2
		C161,730.5,156.2,731.9,151.5,733.2 M227.2,726.3c-1.7-0.9-3.4-1.8-5.1-2.8c-5-2.9-9.6-5.9-13.9-9.1c9.2-5,17.5-10.3,24.9-15.5
		c4.9,2.7,10.1,5.3,15.7,7.8c0.8,0.4,1.6,0.7,2.3,1C243.8,714,235.9,720.2,227.2,726.3 M178.8,724c-6.9-5.8-13.1-11.7-18.5-17.6
		c8.2-2.6,15.9-5.6,23.1-8.8c5.1,5.4,11,10.9,17.7,16.1C194.2,717.4,186.8,720.9,178.8,724 M204.8,711.9
		c-6.7-5.2-12.6-10.5-17.7-15.8c8.4-3.8,16-7.9,22.8-12c5.8,4.3,12.4,8.6,19.5,12.7C222,701.9,213.8,707,204.8,711.9 M254.2,704.9
		c-1.3-0.6-2.6-1.1-3.9-1.7c-4.8-2.2-9.4-4.5-13.8-6.8c6.6-4.8,12.4-9.5,17.5-13.9c5.5,1.9,11.6,3.6,18.2,4.8
		C266.8,693.1,260.8,699,254.2,704.9 M236.8,671.4c-1.7,0-3.5,0.1-5.4,0.3c4.9,3,11.1,6.3,18.6,9.3c-5,4.3-10.8,8.8-17.2,13.4
		c-7.1-4-13.6-8.2-19.4-12.4c5.4-3.4,10.4-6.7,14.7-9.8c-1.1,0.2-2.2,0.4-3.3,0.6c-2.7,0.6-5.1,1.3-7.2,2c-2.4,1.6-4.8,3.1-7.5,4.7
		c-0.3-0.3-0.7-0.5-1-0.8c-1.2,0.7-2.3,1.4-3.3,2.2c0.3,0.2,0.6,0.4,0.9,0.7c-2,1.2-4.2,2.4-6.3,3.6c-5.3,4.3-10.7,9-20.3,13.4
		c-10.3,4.7-21.9,7.3-33.7,8c-1.4,0.4-2.8,0.7-4.2,1.1c-2.8,0.7-5.6,1.3-8.3,1.8c-0.6-1-1.2-2-1.9-3c-1.5-0.1-3.1-0.3-4.6-0.4
		c0.8,1.4,1.7,2.8,2.5,4.1c-5.4,1-10.6,1.8-15.7,2.3c-1.7-3.4-3.3-6.7-4.7-9.9c-1.6-0.4-3.2-0.9-4.7-1.4c1.6,3.8,3.4,7.7,5.4,11.8
		c-5,0.5-9.9,0.8-14.5,1c-3.8-7.3-7-14.3-9.8-20.9c-2.8-1.6-5.6-3.3-8.2-5.1c-1,0-1.9,0-2.9,0l0.1,0.2l0.9,3.6
		c1.8,0,3.6-0.1,5.5-0.1c2.8,7,6.2,14.5,10.2,22.4c-1.5,0-3,0.1-4.4,0.1c-1.9,0-3.7,0-5.5-0.1l1,3.8c1.5,0,3,0.1,4.5,0.1
		c2.1,0,4.2,0,6.4-0.1c4,7.6,8.6,15.5,13.9,23.5c-5.6,0.5-11,0.8-16,1c-1.9-3.7-3.7-7.4-5.3-11l4.6,17.6c4.1,7.6,8.6,15.5,13.8,23.4
		c-2.6,0.3-5.1,0.5-7.5,0.7l1,3.7c2.9-0.2,5.8-0.5,8.9-0.9c6.2,9.4,13.2,18.8,21.1,28.3c-4.6,1-9,2-13.4,2.8
		c-5.9-8.8-11-17.5-15.4-25.7l3.7,14.1c2.4,4.1,5,8.2,7.7,12.3c-1.5,0.2-2.9,0.5-4.3,0.7l0.1,0.4l0.9,3.3c1.9-0.3,3.7-0.6,5.6-0.9
		c6.9,10.2,14.8,20.6,23.8,31c-6.3,1.5-12.4,2.6-18.1,3.5c-1.8-3.1-3.4-6.1-5-9.1L117,851c4.4,7.4,9.3,14.9,14.8,22.5
		c-2.9,0.9-5.7,1.7-8.4,2.4l0.3,1.3l0.6,2.4c3.1-0.9,6.4-1.8,9.8-2.9c6.1,8,12.9,16.1,20.4,24c0.5,0.5,1,1,1.5,1.5
		c-4.8,2-9.5,3.8-14.1,5.3c-6.7-9.3-12.4-18.4-17.4-27.2l2.4,9.1l1,3.9c3.2,5.1,6.6,10.2,10.3,15.4c-2,0.6-3.9,1.2-5.8,1.8l0.9,3.6
		c2.4-0.7,4.7-1.4,7.2-2.2c6.1,8.3,12.9,16.7,20.6,25.1c-5.3,2.7-10.5,5-15.5,7.1c-3.2-5.4-6-10.6-8.6-15.6l3.9,15.2
		c0.4,0.6,0.7,1.2,1.1,1.8c-0.2,0.1-0.4,0.1-0.5,0.2l1,3.7c0.5-0.2,1-0.4,1.6-0.6c5.2,8.4,11.2,17.1,18.3,25.8
		c-3.9,2.6-7.7,4.9-11.5,7.1l0.4,1.5l0.6,2.3c4.3-2.4,8.6-5.1,13-8c3.8,4.6,8,9.1,12.4,13.6c2.5,2.5,5,4.9,7.5,7.3
		c-6.1,5.2-12.1,9.8-18.1,13.8c-5-7.8-9.7-15.5-13.9-23.2l3.5,13.7c2.3,3.9,4.7,7.7,7.2,11.6c-1.2,0.8-2.4,1.5-3.6,2.3l1,3.8
		c1.6-0.9,3.1-1.9,4.7-2.9c0.8,1.2,1.6,2.4,2.4,3.5c5.7,8.5,11.5,16.4,17.4,23.9c-0.7,0.8-1.4,1.6-2.2,2.5c-2.8,3.2-5.7,6.1-8.6,8.9
		c-2-2-4-4-6-6.1l1.7,6.4l0.2,0.9c0.5,0.5,0.9,0.9,1.4,1.4c-0.3,0.3-0.5,0.5-0.8,0.8l1.1,4.1c0.8-0.8,1.6-1.5,2.5-2.3
		c2.3,2.2,4.7,4.4,7.2,6.6c3,2.6,6,5.1,9.1,7.6l0.6-2.2l0.5-1.8c-2.6-2.1-5.1-4.2-7.6-6.4c-2.4-2.1-4.7-4.2-7-6.4
		c2.9-2.8,5.8-5.8,8.6-9c0.6-0.7,1.2-1.3,1.8-2c2.6,3.3,5.3,6.5,7.9,9.6l1.2-4.5c-2.2-2.6-4.4-5.3-6.6-8c4.9-5.8,9.2-11.6,13.1-17.3
		l3.3-12.9l0.7-2.5c-5.5-4.1-11.2-8.6-17-13.8c1.5-1.4,3-2.8,4.6-4.3c5.1-4.9,9.7-9.9,13.9-15c2,1.4,4,2.8,6,4.2l0.8-2.9l0.3-1
		c-1.5-1-3.1-2.1-4.6-3.2c3-3.8,5.8-7.6,8.4-11.4l1.4-5.3l1.7-6.4c-4.2,7-9,14-14.5,20.9c-6.2-4.5-12.6-9.5-19-15
		c0.4-0.3,0.8-0.6,1.1-1c5.7-5,11-10.1,15.9-15.4c5.8,3.6,11.4,6.8,16.7,9.7l0.4-1.6l0.5-2.1c-4.8-2.6-9.9-5.5-15-8.7
		c7.3-8,13.8-16.3,19.5-24.6c1.2,0.7,2.5,1.3,3.7,1.9l0.5-2.1l0.4-1.7c-0.8-0.4-1.7-0.9-2.5-1.3c1.7-2.5,3.3-5,4.8-7.5l3.5-13.6
		c-3.5,6.4-7.4,12.9-11.7,19.3c-4-2.2-8-4.5-12.1-7c5.9-5.7,11.4-11.6,16.4-17.5c2.7,1.3,5.2,2.6,7.8,3.7l0.1-0.2l0.9-3.5
		c-2-1-4.1-2-6.3-3c3.9-4.8,7.5-9.6,10.8-14.3l0.9-3.5l2-7.7c-5,7.9-10.7,15.9-17.1,23.8c-5.3-2.7-10.9-5.7-16.6-9.1
		c9.6-7.8,18-15.9,25.5-24.1c3.4,1.3,6.6,2.5,9.8,3.6l1-3.7c-2.6-0.9-5.3-1.9-8-3c4.7-5.4,9-10.8,12.9-16.1l2.7-10.2
		c-0.7,1.1-1.4,2.1-2.2,3.2c-5.6-1.3-11.5-3-17.6-5c6.1-5.6,11.7-11.4,16.9-17.1c2.5,0.6,5,1.2,7.4,1.7l0.9-3.6
		c-1.8-0.4-3.6-0.8-5.5-1.3c3-3.4,5.8-6.8,8.5-10.2l2.4-9.3c-4.5,6-9.5,12.2-15,18.4c-3.9-1-7.9-2.2-12-3.5
		c8.5-7.4,16.1-15,22.8-22.6c2,0.4,4,0.8,5.9,1.2l0.3-1.1l0.7-2.6c-1.3-0.3-2.7-0.5-4-0.8c1.6-1.9,3.2-3.8,4.8-5.7
		c0.5-0.6,0.9-1.1,1.3-1.7l2.4-9.2c-2.1,2.8-4.3,5.6-6.6,8.4c-1.9,2.4-4,4.7-6.1,7.1c-7.6-1.8-15.7-4.1-24-7
		c7.1-5.1,13.8-10.2,20.1-15.4c5.9,1.6,11.8,2.8,17.5,3.7l0.9-3.7c-4.9-0.8-9.8-1.8-14.9-3c7.6-6.5,14.4-12.9,20.7-19.3l0,0l1.9-7.3
		c-0.5,0.6-1.1,1.1-1.6,1.7c-8.2-2.1-16.7-4.8-25.4-8.3c6.9-6.3,13.1-12.5,18.6-18.5c2.2,0.3,4.5,0.6,6.8,0.8
		c2.6,0.2,5.2,0.3,7.8,0.3l1-3.7c-2.8,0-5.6-0.1-8.4-0.4c-1.4-0.1-2.7-0.3-4.1-0.4c4.1-4.6,7.7-8.9,11-13c-1.7,0.2-3.5,0.3-5.2,0.5
		c-3.1,3.8-6.5,7.7-10.2,11.9c-6.5-1-12.5-2.6-18-4.4c2.5-2.2,4.8-4.3,6.9-6.3c-1.9,0-3.7-0.1-5.3-0.1c-1.7,1.6-3.6,3.3-5.6,5
		c-5.6-2.1-10.6-4.5-14.8-6.8C237.9,671.4,237.4,671.4,236.8,671.4 M296,671c-1,0.1-2.1,0.3-3.1,0.4c-3.3,4.2-6.6,8.2-10,12.1
		c0.4,0,0.8,0.1,1.1,0.1c2.7,0.2,5.4,0.3,8.3,0.3l0.4,0L296,671"/>
	<path class="st2" d="M291.8,670.3c-3.5,4.5-7.5,9.3-12.1,14.4c1.3,0.2,2.7,0.3,4.1,0.4c2.9,0.2,5.7,0.3,8.4,0.4l-1,3.7
		c-2.5,0-5.1-0.1-7.8-0.3c-2.3-0.2-4.6-0.5-6.8-0.8c-5.5,6-11.7,12.2-18.6,18.5c8.7,3.5,17.3,6.2,25.4,8.3c0.5-0.6,1.1-1.1,1.6-1.7
		l-1.9,7.4c-6.3,6.3-13.1,12.8-20.7,19.3c5.1,1.3,10,2.3,14.9,3l-0.9,3.7c-5.7-0.9-11.5-2.1-17.5-3.7c-6.3,5.2-12.9,10.4-20.1,15.4
		c8.3,3,16.4,5.3,24,7c2.1-2.4,4.1-4.8,6.1-7.1c2.3-2.8,4.5-5.7,6.6-8.4l-2.4,9.2c-0.4,0.5-0.9,1.1-1.3,1.7
		c-1.5,1.9-3.1,3.8-4.8,5.7c1.4,0.3,2.7,0.5,4,0.8l-0.9,3.6c-1.9-0.4-3.9-0.8-5.9-1.2c-6.8,7.6-14.4,15.2-22.8,22.6
		c4.1,1.3,8.2,2.5,12,3.5c5.5-6.2,10.5-12.4,15-18.4l-2.4,9.3c-2.7,3.4-5.5,6.8-8.5,10.2c1.9,0.5,3.7,0.9,5.5,1.3l-0.9,3.6
		c-2.4-0.5-4.9-1.1-7.4-1.7c-5.2,5.7-10.8,11.4-16.9,17.1c6.1,2,12.1,3.6,17.6,5c0.8-1.1,1.5-2.1,2.2-3.2l-2.7,10.2
		c-3.9,5.3-8.2,10.7-12.9,16.1c2.7,1.1,5.4,2,8,3l-1,3.7c-3.2-1.1-6.4-2.3-9.8-3.6c-7.5,8.2-15.9,16.4-25.5,24.1
		c5.7,3.4,11.3,6.4,16.6,9.1c6.5-7.9,12.2-15.9,17.1-23.8l-2.9,11.2c-3.3,4.8-6.9,9.6-10.8,14.3c2.1,1.1,4.2,2.1,6.3,3l-1,3.7
		c-2.5-1.2-5.1-2.4-7.8-3.7c-5,5.9-10.5,11.8-16.4,17.5c4.1,2.5,8.2,4.8,12.1,7c4.3-6.4,8.2-12.9,11.7-19.3l-3.5,13.6
		c-1.5,2.5-3.1,5-4.8,7.5c0.8,0.4,1.7,0.9,2.5,1.3l-1,3.7c-1.2-0.6-2.4-1.3-3.7-1.9c-5.7,8.3-12.2,16.6-19.5,24.6
		c5.2,3.2,10.2,6.1,15,8.7l-1,3.8c-5.3-2.8-10.9-6-16.7-9.7c-4.9,5.3-10.2,10.4-15.9,15.4c-0.4,0.3-0.8,0.7-1.1,1
		c6.4,5.5,12.7,10.5,19,15c5.5-6.9,10.3-13.9,14.5-20.9l-3,11.7c-2.6,3.8-5.4,7.6-8.4,11.4c1.6,1.1,3.1,2.2,4.6,3.2l-1,3.9
		c-2-1.3-4-2.7-6-4.2c-4.2,5.1-8.9,10.1-13.9,15c-1.5,1.5-3,2.9-4.6,4.3c5.8,5.1,11.5,9.7,17,13.8l-4,15.4
		c-3.9,5.8-8.3,11.6-13.1,17.3c2.2,2.7,4.4,5.4,6.6,8l-1.2,4.5c-2.6-3.1-5.3-6.3-7.9-9.6c-0.6,0.7-1.2,1.3-1.8,2
		c-2.9,3.2-5.8,6.2-8.6,9c2.3,2.1,4.6,4.3,7,6.4c2.5,2.2,5.1,4.3,7.6,6.4l-1,4c-3-2.4-6.1-4.9-9.1-7.6c-2.5-2.2-4.9-4.4-7.2-6.6
		c-0.8,0.8-1.6,1.5-2.5,2.3l-1.1-4.1c0.3-0.3,0.5-0.5,0.8-0.8c-0.5-0.5-0.9-0.9-1.4-1.4l-1.9-7.3c2,2,3.9,4.1,6,6.1
		c2.9-2.8,5.7-5.8,8.6-8.9c0.7-0.8,1.5-1.6,2.2-2.5c-5.8-7.4-11.7-15.4-17.4-23.9c-0.8-1.2-1.6-2.4-2.4-3.5c-1.6,1-3.1,2-4.7,2.9
		l-1-3.8c1.2-0.7,2.4-1.5,3.6-2.3c-2.5-3.9-4.9-7.8-7.2-11.6l-3.5-13.7c4.3,7.7,8.9,15.4,13.9,23.2c5.9-4,12-8.6,18.1-13.8
		c-2.5-2.3-5-4.7-7.5-7.3c-4.4-4.5-8.6-9-12.4-13.6c-4.4,2.9-8.7,5.5-13,8l-1-3.8c3.8-2.2,7.6-4.5,11.5-7.1
		c-7.1-8.7-13.2-17.4-18.3-25.8c-0.5,0.2-1,0.4-1.6,0.6l-1-3.7c0.2-0.1,0.4-0.1,0.5-0.2c-0.4-0.6-0.7-1.2-1.1-1.8l-3.9-15.2
		c2.5,5,5.3,10.2,8.6,15.6c5-2.1,10.2-4.4,15.5-7.1c-7.6-8.3-14.5-16.8-20.6-25.1c-2.5,0.8-4.8,1.5-7.2,2.2l-0.9-3.6
		c1.9-0.6,3.9-1.2,5.8-1.8c-3.7-5.2-7.1-10.4-10.3-15.4l-3.4-13c5,8.8,10.7,17.9,17.4,27.2c4.6-1.6,9.3-3.3,14.1-5.3
		c-0.5-0.5-1-1-1.5-1.5c-7.6-7.9-14.4-15.9-20.4-24c-3.4,1.1-6.6,2-9.8,2.9l-0.9-3.7c2.7-0.7,5.5-1.5,8.4-2.4
		c-5.5-7.5-10.4-15.1-14.8-22.5l-3.8-14.6c1.6,3,3.2,6.1,5,9.1c5.8-0.9,11.8-2.1,18.1-3.5c-9-10.4-16.9-20.8-23.8-31
		c-1.9,0.3-3.8,0.6-5.6,0.9l-1-3.7c1.4-0.2,2.9-0.5,4.3-0.7c-2.7-4.2-5.3-8.3-7.7-12.3l-3.7-14.1c4.5,8.3,9.6,16.9,15.4,25.7
		c4.4-0.8,8.8-1.7,13.4-2.8c-7.9-9.4-14.9-18.9-21.1-28.3c-3,0.4-6,0.6-8.9,0.9l-1-3.7c2.4-0.2,4.9-0.4,7.5-0.7
		c-5.1-8-9.7-15.8-13.8-23.4L86,731.3c1.7,3.6,3.4,7.2,5.3,11c5-0.2,10.3-0.5,16-1c-5.3-8-9.9-15.9-13.9-23.5
		c-2.2,0.1-4.3,0.1-6.4,0.1c-1.5,0-3,0-4.5-0.1l-1-3.8c1.8,0,3.6,0.1,5.5,0.1c1.4,0,2.9,0,4.4-0.1c-4-7.9-7.4-15.4-10.2-22.4
		c-1.8,0.1-3.7,0.1-5.5,0.1l-1-3.8c1.6,0,3.3-0.1,5-0.1c-2.5-6.5-4.6-12.4-6.2-17.7h4c1.7,5.2,3.7,11.1,6.3,17.5
		c5-0.2,10.2-0.5,15.5-0.9c-2.1-6-3.7-11.6-5-16.6H98c1.3,4.9,2.9,10.4,5,16.3c4.4-0.4,8.8-0.9,13.3-1.5c-2.4-5.3-4.3-10.3-6-14.7h4
		c1.6,4.3,3.5,9.1,5.8,14.2c5.5-0.8,10.9-1.7,16.1-2.7c-2.6-4-4.9-7.8-6.9-11.4h4.3c2,3.4,4.1,6.9,6.6,10.6c8.7-1.8,17-3.9,24.8-6.1
		c-1.1-1.6-2-3.1-2.9-4.5h4.5c0.7,1.1,1.5,2.2,2.3,3.4c3.7-1.1,7.2-2.2,10.7-3.4h11.3c-6.2,2.3-12.8,4.5-19.7,6.7
		c3.6,5,8,10.5,13.2,16.2c8.1-3.7,15.6-7.6,22.3-11.5c-5.1-3.9-9.6-7.7-13.7-11.3h5.7c3.5,3,7.3,6.1,11.5,9.3
		c5.2-3.2,9.9-6.3,14.1-9.3h12.2c4.6,2.6,10.3,5.4,16.8,7.9c3.2-2.8,6-5.4,8.6-7.9h5.4c-2.9,2.8-6.2,6-9.9,9.3
		c5.5,1.8,11.5,3.4,18,4.4c4.4-4.8,8.3-9.4,11.8-13.7H291.8 M232.8,694.4c6.4-4.6,12.1-9.1,17.2-13.4c-8.2-3.2-14.9-7-20-10.2
		c-4.8,3.5-10.3,7.3-16.6,11.1C219.2,686.2,225.7,690.4,232.8,694.4 M157.5,703.4c8.2-2.6,16-5.5,23.2-8.6
		c-5.3-5.9-9.7-11.5-13.4-16.7c-7.8,2.3-16.1,4.4-24.8,6.2C146.8,690.4,151.8,696.9,157.5,703.4 M254.2,704.9
		c6.7-6,12.7-11.9,18-17.6c-6.6-1.2-12.7-2.9-18.2-4.8c-5.1,4.4-11,9.1-17.5,13.9c4.4,2.4,8.9,4.7,13.8,6.8
		C251.6,703.8,252.9,704.4,254.2,704.9 M204.8,711.9c9.1-4.9,17.3-10,24.6-15.1c-7.2-4.1-13.7-8.4-19.5-12.7
		c-6.9,4.1-14.5,8.1-22.8,12C192.2,701.4,198.1,706.7,204.8,711.9 M133.7,709.5c2.7-0.5,5.5-1.1,8.3-1.8c4-0.9,7.8-2,11.5-3.1
		c-5.8-6.6-10.7-13.2-15-19.4c-5.4,1.1-11,2-16.7,2.9C125.1,694.8,129,702,133.7,709.5 M114.1,712.6c5.1-0.6,10.3-1.4,15.7-2.3
		c-4.7-7.5-8.6-14.8-11.8-21.6c-0.3,0-0.6,0.1-0.9,0.1c-4.3,0.6-8.6,1.1-12.7,1.5C106.9,697.2,110.1,704.8,114.1,712.6 M95.6,714
		c4.6-0.2,9.5-0.5,14.5-1c-3.9-7.8-7.1-15.4-9.6-22.4c-5.2,0.4-10.3,0.8-15.3,1C88.1,698.5,91.5,706.1,95.6,714 M178.8,724
		c7.9-3.2,15.3-6.6,22.3-10.2c-6.7-5.3-12.6-10.7-17.7-16.1c-7.2,3.2-14.9,6.1-23.1,8.8C165.8,712.4,171.9,718.3,178.8,724
		 M227.2,726.3c8.7-6.1,16.7-12.3,23.9-18.6c-0.8-0.3-1.6-0.7-2.3-1c-5.5-2.5-10.7-5.1-15.7-7.8c-7.4,5.2-15.7,10.5-24.9,15.5
		c4.3,3.1,8.9,6.2,13.9,9.1C223.7,724.4,225.5,725.4,227.2,726.3 M151.5,733.2c4.8-1.3,9.6-2.8,14.5-4.4c3-1,6-2.1,8.9-3.2
		c-6.9-5.9-13.1-11.9-18.5-17.9c-4.3,1.3-8.8,2.5-13.4,3.7c-2.3,0.6-4.7,1.1-7,1.5C140.4,719.6,145.5,726.4,151.5,733.2 M258,738.6
		c8.2-6.9,15.7-13.9,22.4-20.7c-8.2-2.2-16.8-5-25.5-8.6c-7.2,6.3-15.2,12.7-23.9,18.9C240.1,732.7,249.2,736.1,258,738.6
		 M129.5,738.2c5.8-1.1,11.8-2.3,17.9-3.9c-5.9-6.9-11-13.9-15.5-20.7c-5.5,1-10.9,1.9-16,2.5C119.8,723.4,124.2,730.8,129.5,738.2
		 M203,741.2c7.3-4,14.2-8.2,20.7-12.6c-1.2-0.6-2.3-1.3-3.5-1.9c-5.7-3.3-10.9-6.8-15.7-10.4c-6.9,3.7-14.4,7.2-22.3,10.4
		C189,732.2,196,737,203,741.2 M111.5,740.9c4.5-0.5,9.1-1.1,13.9-1.9c-5.2-7.6-9.7-15.1-13.5-22.4c-5,0.5-9.8,0.9-14.4,1.1
		C101.6,725.2,106.2,732.9,111.5,740.9 M173.7,755c9-3.6,17.4-7.5,25.4-11.7c-6.8-4.2-13.5-8.9-20.2-14.3c-0.3-0.2-0.5-0.5-0.8-0.7
		c-3.6,1.4-7.2,2.7-11,4c-4.4,1.5-8.7,2.8-12.9,4c2.4,2.7,4.9,5.3,7.6,7.9C165.8,748.1,169.7,751.7,173.7,755 M234.6,756.6
		c7.1-4.9,13.7-10,20-15.1c-8.9-2.7-18-6.2-27.1-10.9c-6.5,4.4-13.4,8.7-20.7,12.8C216.1,748.8,225.5,753.2,234.6,756.6
		 M150.1,763.2c5.7-1.7,11.4-3.5,17.3-5.7c0.8-0.3,1.5-0.6,2.3-0.9c-3.5-3-7-6.2-10.5-9.6c-3.2-3.1-6.2-6.3-9-9.5
		c-6.3,1.7-12.4,3-18.3,4.2c3.6,5,7.6,9.9,12,14.8C145.9,758.8,148,761,150.1,763.2 M132,767.8c4.5-1,9.2-2.1,14-3.4
		c-1.7-1.7-3.3-3.5-4.9-5.4c-4.9-5.5-9.3-11-13.3-16.6c-4.8,0.8-9.4,1.5-13.9,2C119.3,752.1,125.3,760,132,767.8 M108.5,771.8
		c6.2-0.8,12.6-1.8,19.4-3.2c-6.8-8-12.8-15.9-18.2-23.8c-5.8,0.6-11.3,0.9-16.4,1.1C97.7,754.4,102.7,763,108.5,771.8 M203.6,775.6
		c9.7-5.2,18.7-10.7,27.2-16.4c-9.1-3.6-18.5-8.1-27.9-13.6c-8.1,4.4-16.7,8.5-25.9,12.2C185.8,764.8,194.7,770.7,203.6,775.6
		 M178.7,787.6c7.3-3.1,14.3-6.4,21-9.9c-8.9-5.1-17.9-11.2-26.7-18.4c-1.4,0.6-2.8,1.1-4.3,1.7c-5.3,2-10.5,3.7-15.6,5.2
		C161.4,774.3,170,781.4,178.7,787.6 M237.3,790.7c8.4-7.2,16-14.7,22.8-22.2c-7.9-1.9-16.3-4.4-24.9-7.6
		c-8.5,5.9-17.7,11.6-27.5,16.9C217.7,783.2,227.7,787.4,237.3,790.7 M159.2,795.1c2.7-0.9,5.4-1.9,8.2-2.9c2.4-0.9,4.8-1.9,7.2-2.8
		c-8.7-6.3-17.4-13.6-25.6-21.9c-4.8,1.4-9.5,2.5-14.1,3.6c2.4,2.7,4.9,5.4,7.4,8C147.9,784.8,153.5,790.1,159.2,795.1 M131.8,803.1
		c7.5-1.8,15.3-4,23.3-6.7c-5.2-4.6-10.4-9.6-15.5-14.8c-3.1-3.2-6.1-6.5-8.9-9.7c-6.9,1.4-13.5,2.6-19.9,3.4
		C117,784.5,124,793.9,131.8,803.1 M214.6,807.9c6.9-4.6,13.3-9.5,19.3-14.5c-9.7-3.5-19.9-7.9-30.3-13.6c-6.8,3.6-13.9,7-21.3,10.2
		C193.1,797.3,204,803.2,214.6,807.9 M193.5,820.5c6.1-3.2,11.8-6.6,17.3-10.2c-10.7-4.9-21.7-11-32.6-18.5
		c-3.1,1.3-6.3,2.6-9.5,3.8c-2.1,0.8-4.1,1.5-6.2,2.3C172.9,806.6,183.3,814.1,193.5,820.5 M233.8,815.5
		c6.1-5.5,11.7-11.2,16.8-16.8c-4.1-1.1-8.2-2.3-12.6-3.8c-6,5.1-12.5,10-19.4,14.8C223.8,811.9,228.8,813.8,233.8,815.5
		 M162.2,834.4c6.1-2.2,12.3-4.7,18.7-7.6c3-1.4,5.9-2.8,8.8-4.3c-10.3-6.6-20.9-14.3-31.2-23.2c-8.2,2.8-16.1,5.1-23.9,7
		c4.8,5.5,9.8,10.9,15.3,16.3C153.9,826.8,158.1,830.7,162.2,834.4 M140.5,841c5.7-1.5,11.6-3.2,17.7-5.2c-3.7-3.3-7.3-6.8-11-10.5
		c-6-6-11.5-12-16.7-18c-4.7,1.1-9.4,2.1-13.9,2.9C123.5,820.4,131.4,830.7,140.5,841 M213.7,832.1c6-4.5,11.6-9.1,16.9-13.7
		c-5.1-1.8-10.3-3.8-15.6-6.2c-5.6,3.7-11.5,7.3-17.7,10.6C202.8,826.2,208.3,829.3,213.7,832.1 M238.4,843.4
		c5.5-6.1,10.4-12.3,14.8-18.3c-5.6-1.4-11.4-3-17.5-5c-0.3-0.1-0.7-0.2-1-0.3c-5.4,4.8-11.1,9.6-17.3,14.2
		C224.7,837.6,231.7,840.7,238.4,843.4 M183.3,851.7c6.1-3.4,12.2-7,18.4-11.2c2.9-2,5.8-4,8.6-6c-5.6-2.9-11.2-6.1-16.9-9.7
		c-3.6,1.9-7.2,3.7-10.9,5.4c-5.7,2.6-11.4,4.9-17,7C171.4,842.5,177.4,847.3,183.3,851.7 M210.4,870c9.5-7.6,17.8-15.5,25.2-23.6
		c-6.9-2.8-14.2-6.1-21.6-9.9c-3.3,2.4-6.7,4.8-10.3,7.2c-5.8,3.8-11.5,7.3-17.2,10.5C194.7,860.1,202.7,865.4,210.4,870
		 M161.3,862.6c6-2.6,12.1-5.6,18.4-8.9c-6.1-4.6-12.2-9.6-18.3-15c-6.2,2.1-12.2,4-18.1,5.5c3.5,3.9,7.2,7.8,11.1,11.6
		C156.7,858.2,159,860.4,161.3,862.6 M135.6,872.3c6.9-2.2,14.3-4.9,21.9-8.1c-2-1.9-3.9-3.7-5.8-5.7c-4.4-4.4-8.6-8.8-12.5-13.3
		c-6.6,1.6-12.9,2.9-18.9,3.8C124.8,856.7,129.9,864.5,135.6,872.3 M188.5,885.5c6.7-4.1,12.9-8.5,18.7-13
		c-7.9-4.8-16-10.2-24.3-16.3c-6.3,3.4-12.6,6.5-18.7,9.2C172.4,872.8,180.5,879.5,188.5,885.5 M159.8,900.6
		c8.2-3.6,16.6-7.9,25.2-13c-8.1-6.2-16.4-13-24.6-20.6c-7.8,3.3-15.4,6.1-22.5,8.5c5.8,7.6,12.2,15.2,19.4,22.6
		C158.2,898.9,159,899.8,159.8,900.6 M211.8,901.3c5.9-5.6,11.3-11.4,16.3-17.2c-5.5-2.8-11.3-6-17.3-9.5
		c-5.9,4.6-12.2,9.1-18.9,13.3C198.6,892.8,205.3,897.3,211.8,901.3 M184.9,923c8.7-6,16.7-12.3,24-19c-6.7-4.2-13.6-8.8-20.6-14
		c-8.7,5.3-17.3,9.7-25.6,13.4C170.1,910.7,177.6,917.2,184.9,923 M164.7,935.3c5.6-3,11.3-6.3,17-10c-7.5-6-15.1-12.7-22.7-20.2
		c-5,2.1-9.9,4-14.6,5.6C150.4,918.9,157.1,927.1,164.7,935.3 M205.7,937.8c7.2-7.9,13.7-16.1,19.4-24.3c-4.2-2.3-8.5-4.8-12.8-7.4
		c-7.3,6.8-15.4,13.3-24.2,19.4C194,930,199.9,934.1,205.7,937.8 M186.4,956.5c0.5-0.4,1-0.9,1.5-1.3c5.4-4.7,10.4-9.6,15.1-14.6
		c-6-3.9-12.1-8.2-18.3-12.9c-0.2,0.1-0.4,0.3-0.6,0.4c-5.7,3.7-11.3,7.1-16.9,10c3.5,3.7,7.2,7.5,11.1,11.1
		C181.1,951.8,183.7,954.2,186.4,956.5 M165.6,972.5c5.9-4,11.9-8.5,17.9-13.5c-2.6-2.3-5.1-4.6-7.7-7c-4.2-4-8.2-8-12-12.1
		c-5.5,2.8-10.9,5.3-16.2,7.5C152.7,955.6,158.7,964,165.6,972.5 M187.6,995.9c1.6-1.4,3.2-2.9,4.7-4.4c4.9-4.7,9.3-9.6,13.5-14.5
		c-6.4-4.6-12.9-9.8-19.5-15.4c-6.1,5.1-12.3,9.8-18.4,13.9c3.7,4.4,7.7,8.7,11.9,13.1C182.5,991.1,185.1,993.5,187.6,995.9
		 M187.9,1041.9c7.2-8.6,13.3-17.3,18.5-25.9c-6.1-4.4-12.4-9.4-18.8-15.1c-6.3,5.5-12.6,10.3-18.8,14.4c0.8,1.2,1.5,2.3,2.3,3.5
		C176.7,1027.1,182.3,1034.7,187.9,1041.9 M294.9,668.8h-3.1H287h-0.7l-0.5,0.6c-3.7,4.6-7.3,8.8-11.2,13.1c-4.9-0.8-9.8-2-14.5-3.4
		c2.7-2.5,5.4-5.1,8-7.6l2.6-2.6h-3.6h-5.4h-0.6l-0.4,0.4c-2.6,2.5-5.2,4.9-7.9,7.3c-5.4-2.1-10.7-4.6-15.7-7.5l-0.3-0.2h-0.4h-12.2
		h-0.5l-0.4,0.3c-4.4,3.1-8.7,6-13.1,8.7c-3.6-2.7-7.1-5.6-10.6-8.6l-0.4-0.4l0,0h-8.4h-11.3h-0.2l-0.2,0.1
		c-3.2,1.1-6.4,2.1-9.6,3.1c-0.5-0.8-1-1.6-1.6-2.5l-0.4-0.7h-0.8h-4.5h-2.7l1.4,2.3c0.6,1,1.2,1.9,1.8,2.8
		c-7.1,2-14.4,3.8-21.7,5.3c-2.1-3.1-4-6.3-6-9.7l-0.4-0.7h-0.9h-4.3h-2.6l1.3,2.2c1.9,3.4,3.8,6.6,5.8,9.7
		c-4.1,0.8-8.4,1.5-12.7,2.1c-1.9-4.2-3.7-8.6-5.3-13l-0.4-1h-1h-4h-2.1l0.7,2c1.6,4.4,3.3,8.8,5.2,13c-3.3,0.4-6.6,0.8-10.1,1.1
		c-1.7-4.9-3.2-10-4.6-15l-0.3-1.1H98h-3.9h-1.9l0.5,1.9c1.3,5,2.8,10,4.4,14.9c-4.1,0.3-8.2,0.6-12.4,0.7
		c-2.1-5.4-4.1-10.9-5.9-16.4l-0.3-1h-1.1h-4h-2l0.6,2c1.7,5.3,3.5,10.6,5.5,15.7c-0.9,0-1.9,0-2.8,0l-1.9,0l0.5,1.9l1,3.8l0.3,1.1
		l1.2,0c1.5,0,3-0.1,4.5-0.1c2.7,6.5,5.6,13,8.8,19.4c-0.7,0-1.3,0-2,0c-1.6,0-3.4,0-5.5-0.1l-2,0l0.5,1.9l1,3.8l0.3,1.1l1.1,0
		c1.8,0,3.2,0.1,4.6,0.1c1.8,0,3.6,0,5.5-0.1c3.8,7,7.8,14,12.2,20.7c-4.2,0.3-8.4,0.6-12.4,0.7c-1.6-3.2-3.2-6.5-4.9-10.1l-2.8,1
		l4.6,17.6l0,0.2l0.1,0.2c3.9,7.4,8.2,14.6,12.5,21.5c-1.6,0.2-3.2,0.3-5.1,0.5l-1.2,0.1l-1.2-2.2l2.1,8.3l0.2,0.6l0.8,3.2l3.7,14.1
		l0.1,0.2l0.1,0.2c2.1,3.5,4.3,7.1,6.5,10.5c-0.7,0.1-1.4,0.2-2,0.3l-1.6,0.3l0.4,1.6l0.9,3.7l0.3,1.3l1.3-0.2
		c1.7-0.3,3.2-0.5,4.7-0.8c6.7,9.8,14,19.4,21.8,28.5c-4.8,1.1-9.7,2-14.6,2.8c-1.5-2.6-3-5.4-4.4-8.2l-6.1-11.7l3.3,12.8l3.8,14.6
		l0.1,0.2l0.1,0.2c4.2,7.2,8.8,14.2,13.7,20.9c-2,0.6-4.1,1.2-6.3,1.8l-0.1,0l-2.7-4.8l1.3,5.2h0l0.4,1.4l0.9,3.7l0.4,1.5l3.2,12.3
		l0.1,0.2l0.1,0.2c2.9,4.7,6,9.4,9.2,13.8c-1.2,0.4-2.4,0.7-3.8,1.2l-1.4,0.4l0.4,1.4l0.9,3.6l0.4,1.5l3.3,12.8l3.9,15.2l0.1,0.2
		l0.1,0.2l0.2,0.3l-0.1,0.1l0.3,1.3l1,3.7l0.4,1.6l1.6-0.6c0.1-0.1,0.3-0.1,0.4-0.2c5.1,8.2,10.7,16.1,16.7,23.6
		c-3.2,2.1-6.6,4.1-10.1,6.1l-0.3,0.2l-1.4-2.6l0.8,3l0.3,1.1l0.6,2.2l1.3,5.1l3.5,13.7l0.1,0.2l0.1,0.2c2.2,3.7,4.4,7.1,6.4,10.4
		c-0.8,0.5-1.6,1-2.3,1.5l-0.9,0.6l0.3,1.1l1,3.8l0.5,2l1.7-1c1.2-0.8,2.4-1.5,3.5-2.2c0.5,0.8,1,1.5,1.5,2.3
		c5.2,7.8,10.9,15.5,16.7,23c-0.4,0.5-0.9,1-1.3,1.5c-2.4,2.7-4.8,5.2-7.4,7.8c-1.6-1.6-3.2-3.2-4.9-5l-4-4.2l1.5,5.6l1.9,7.3
		l0.1,0.4l0.3,0.3l0.3,0.3l-0.3,0.3l0.2,0.9l1.1,4.1l0.6,2.4l1.8-1.7c0.5-0.4,1-0.9,1.4-1.3c2.1,1.9,4.1,3.8,6.2,5.6
		c2.9,2.5,5.9,5,9.1,7.6l1.8,1.4l0.6-2.2l1-4l0.2-0.9l-0.8-0.6c-2.6-2.1-5.2-4.2-7.6-6.4c-1.9-1.7-3.9-3.5-5.8-5.3
		c2.6-2.7,5.2-5.3,7.6-8c0.2-0.2,0.4-0.4,0.6-0.7c2.2,2.7,4.4,5.4,6.8,8.2l1.9,2.2l0.7-2.8l1.2-4.5l0.2-0.7l-0.5-0.6
		c-1.9-2.3-3.9-4.7-5.8-7c4.4-5.3,8.6-10.8,12.4-16.5l0.1-0.2l0.1-0.3l4-15.4l0.3-1l-0.8-0.6c-5.4-4-10.7-8.2-15.7-12.6
		c1.2-1.1,2.3-2.2,3.4-3.2c4.5-4.4,8.9-9.1,13.1-14.1c1.6,1.1,3.3,2.3,4.9,3.4l1.8,1.2l0.5-2l1-3.9l0.3-1l-0.9-0.6
		c-1-0.7-2.1-1.5-3.3-2.3c2.6-3.3,5.1-6.7,7.5-10.2l0.1-0.2l0.1-0.3l3-11.7l2.6-10l-2.2,3.7c-4.5-2.4-9-5-13.4-7.7
		c6.3-7,12.2-14.5,17.7-22.3c0.7,0.4,1.5,0.8,2.2,1.1l0.3,0.2l1.7,0.9l0.5-1.8l1-3.7l0.3-1.2l-1.1-0.6l-0.8-0.4l-0.3-0.1
		c1.2-1.9,2.5-3.9,3.9-6.2l0.1-0.2l0.1-0.2l3.5-13.6l0.6-2.4l0.7-2.7l0.3-1.2l1.4-5.5l-2.7,4.9c-1.6-0.7-3-1.4-4.5-2.1
		c3.3-4.2,6.6-8.5,9.7-13l0.2-0.2l0.1-0.3l2.9-11.2l2.4-9.3l0-0.1l0.3-1.3l-1.3-0.5c-2.2-0.8-4.1-1.5-6-2.2c4-4.6,7.8-9.4,11.6-14.6
		l0.2-0.2l0.1-0.3l2.7-10.2l2.2-8.4l-4.9,7.2l-0.4,0.6c-0.4,0.6-0.8,1.2-1.2,1.7c-4.7-1.2-9.5-2.5-14.1-3.9c5-4.7,9.9-9.7,14.5-14.7
		c2.1,0.5,4.3,1,6.6,1.5l1.4,0.3l0.4-1.4l0.9-3.6l0.4-1.5l-1.5-0.3c-1.1-0.2-2.1-0.5-3.1-0.7c2.3-2.7,4.6-5.5,6.9-8.4l0.2-0.2
		l0.1-0.3l2.4-9.3l1.3-5.2l0.4-1.4l0.9-3.6l0.4-1.6l-1.6-0.3c-0.5-0.1-1-0.2-1.5-0.3c1.1-1.3,2.2-2.6,3.1-3.8
		c0.3-0.4,0.6-0.7,0.9-1.1l0.5-0.6l0.2-0.3l0.1-0.3l2.4-9.2l0.5-1.9l0.3-1.3l0.9-3.7l0.4-1.6l-1.6-0.3c-4-0.6-8-1.4-11.9-2.3
		c6.3-5.5,12.5-11.4,18.6-17.4l0.3-0.3l0.1-0.4l1.9-7.4l1.5-5.6l-4,4.2l-0.5,0.6c-0.2,0.2-0.3,0.3-0.5,0.5c-7.5-2-14.9-4.4-22.2-7.2
		c5.7-5.2,11.2-10.7,16.4-16.4c2.3,0.3,4.3,0.5,6.2,0.7c2.4,0.2,5,0.3,7.9,0.4l1.2,0l0.3-1.1l1-3.7l0.5-1.9l-1.9,0
		c-2.9,0-5.6-0.1-8.3-0.3c-0.4,0-0.8-0.1-1.1-0.1c3.5-4,6.8-8,10.2-12.3L294.9,668.8 M173.6,677.8c5.9-1.8,11.9-3.9,17.8-6.1
		l0.6-0.2c3.8,3.5,7.8,6.8,11.9,10c-6.2,3.5-12.7,6.9-19.2,9.9C180.8,687,177,682.5,173.6,677.8 M216.1,682.1
		c4.7-3,9.4-6.1,13.9-9.4c5.4,3.4,11.2,6.3,17.1,8.8c-4.7,3.9-9.5,7.6-14.4,11.2C227,689.4,221.5,685.8,216.1,682.1 M145.1,685.3
		c7.3-1.6,14.5-3.4,21.6-5.5c3.6,5,7.4,9.8,11.5,14.4c-6.6,2.8-13.3,5.3-20.2,7.4C153.4,696.4,149.1,690.9,145.1,685.3 M239.3,696.2
		c5.2-3.8,10.2-7.9,15.1-12c4.8,1.7,9.8,3,14.9,4.1c-4.9,5.2-10.1,10.1-15.3,14.9c-1-0.4-2-0.9-3-1.3
		C247,700.2,243.2,698.3,239.3,696.2 M189.6,696.5c6.9-3.2,13.6-6.8,20.2-10.6c5.4,3.9,11,7.6,16.8,11c-7,4.7-14.3,9.2-21.7,13.2
		C199.6,705.9,194.4,701.4,189.6,696.5 M124.1,689.2c4.7-0.7,9.4-1.5,13.8-2.4c4,5.8,8.4,11.5,13,16.9c-3.4,1-6.3,1.7-9.2,2.4
		c-2.3,0.5-4.7,1.1-7.2,1.6C130.7,701.8,127.2,695.6,124.1,689.2 M106.4,691.5c3.6-0.4,7.2-0.8,10.7-1.3c3.1,6.4,6.5,12.8,10.2,18.9
		c-4.2,0.7-8.3,1.3-12.4,1.8C111.8,704.7,109,698.1,106.4,691.5 M87.4,693c4-0.2,8.1-0.5,12.1-0.8c2.5,6.6,5.2,13.2,8.3,19.5
		c-3.8,0.3-7.6,0.6-11.3,0.7C93.2,706.1,90.2,699.5,87.4,693 M163,707.1c6.7-2.2,13.5-4.8,20-7.7c4.8,5,10,9.7,15.3,14.1
		c-6.3,3.2-12.8,6.1-19.3,8.8C173.5,717.6,168.1,712.5,163,707.1 M210.9,714.5c7.6-4.3,15.1-8.9,22.2-13.9c4.9,2.7,10,5.2,14.9,7.4
		l0.2,0.1c-6.8,5.8-13.9,11.3-21.2,16.4c-1.5-0.8-2.9-1.6-4.3-2.4C218.8,719.8,214.9,717.3,210.9,714.5 M138.4,713.9
		c1.7-0.4,3.3-0.7,4.8-1.1c3.9-0.9,8-2.1,12.6-3.4c5,5.5,10.4,10.8,16.1,15.7c-2.2,0.8-4.3,1.6-6.5,2.3c-4.3,1.5-8.8,2.8-13.5,4.2
		C147.2,725.9,142.6,720,138.4,713.9 M233.9,728c7.3-5.3,14.4-10.9,21.3-16.9c7.3,2.9,14.8,5.5,22.4,7.7
		c-6.4,6.4-13.1,12.5-19.8,18.2C249.5,734.6,241.5,731.6,233.9,728 M118.3,717.3c4.3-0.6,8.6-1.2,13-2c4.1,6.3,8.7,12.4,13.5,18.2
		c-4.8,1.2-9.7,2.2-14.6,3.1C125.9,730.4,121.9,724,118.3,717.3 M185.1,727.2c6.5-2.7,13-5.8,19.2-9c4.9,3.6,9.9,6.9,15.1,9.9
		c0.5,0.3,0.9,0.5,1.4,0.8c-5.8,3.8-11.7,7.4-17.7,10.7C196.8,735.7,190.8,731.6,185.1,727.2 M100,719c3.7-0.2,7.4-0.5,11.1-0.8
		c3.6,6.8,7.5,13.4,11.8,19.7c-3.5,0.5-7,1-10.6,1.4C107.9,732.7,103.8,725.9,100,719 M157,737.2c3.6-1.1,7.2-2.2,10.7-3.4
		c3.3-1.1,6.7-2.3,10.2-3.7l0.2,0.1c5.8,4.6,11.8,9,18.1,13c-7.2,3.7-14.6,7.1-22.1,10.1c-4-3.3-7.6-6.6-11.1-10.1
		C161,741.3,159,739.3,157,737.2 M209.8,743.5c6-3.4,11.9-7.1,17.7-11.1c7.7,3.9,15.7,7.1,23.9,9.8c-5.5,4.5-11.3,8.8-17.1,12.8
		C225.9,751.7,217.7,747.8,209.8,743.5 M134.5,742.7c5-1,10.1-2.2,15.1-3.5c2.8,3.1,5.6,6.1,8.5,8.9c2.8,2.7,5.7,5.4,8.6,8
		c-5.2,1.9-10.7,3.7-16.3,5.4c-2-2-3.8-4-5.6-6C141.4,751.4,137.9,747.1,134.5,742.7 M116.6,745.6c3.5-0.4,7-1,10.5-1.6
		c4,5.5,8.3,10.9,12.8,16c1,1.2,2.1,2.3,3.3,3.6c-3.6,1-7.1,1.8-10.6,2.6C126.9,759.5,121.6,752.6,116.6,745.6 M242.1,757.8
		c5.8-4.2,11.6-8.7,17.2-13.3c5.1,1.3,10.3,2.5,15.8,3.4l-0.7,1c-2.2,3-4.4,5.7-6.6,8.4c-1.6,2-3.4,4.1-5.4,6.4
		C255.5,762,248.7,760,242.1,757.8 M95.7,747.4c4.4-0.2,8.9-0.5,13.2-1c5,7.3,10.4,14.5,16.1,21.2c-5.3,1-10.6,1.9-15.8,2.5
		C104.4,762.8,99.9,755.2,95.7,747.4 M180,758.2c7.8-3.3,15.5-6.9,22.9-10.9c7.9,4.6,16.2,8.7,24.8,12.2c-7.8,5.1-15.8,10-24,14.4
		C195.4,769.2,187.4,763.9,180,758.2 M156,766.9c4.6-1.4,9-2.9,13.3-4.5c1.1-0.4,2.3-0.9,3.4-1.3l0.1,0c7.5,6.1,15.5,11.6,23.8,16.6
		c-5.8,2.9-11.7,5.7-17.7,8.2C170.8,780.1,163.1,773.7,156,766.9 M210.7,777.7c8.4-4.7,16.6-9.8,24.5-15.2
		c7.1,2.6,14.5,4.9,21.9,6.8c-6.5,7-13.3,13.6-20.3,19.6C227.9,785.8,219.1,782,210.7,777.7 M137.7,771.9c3.7-0.9,7.3-1.8,10.9-2.8
		c7.1,7.1,14.9,13.8,23,19.8c-1.6,0.6-3.1,1.2-4.7,1.8c-2.2,0.8-4.6,1.7-7.3,2.6c-5.7-5-11.1-10.1-16.2-15.4
		C141.5,776,139.6,774,137.7,771.9 M244.4,791.4c7.1-6.4,14-13.2,20.4-20.3c1.5,0.3,3.2,0.7,5.1,1l0.4,0.1l-3,4.1
		c-4.5,6.1-9.3,12-14.3,17.6C250.1,793.1,247.3,792.3,244.4,791.4 M113.4,776.5c5.6-0.8,11.2-1.8,16.7-2.9c2.9,3.2,5.6,6.2,8.4,9.1
		c4.3,4.5,8.9,8.9,13.6,13.2c-6.6,2.1-13.2,4-19.8,5.6C125.6,793.4,119.2,785,113.4,776.5 M99,778.1c2.4-0.2,4.7-0.4,6.9-0.7
		c6,8.9,12.4,17.6,19.1,25.8c-3.3,0.7-6.6,1.4-10,2c-5.3-8-10.3-16.3-14.8-24.8L99,778.1 M185.5,790.4c6.2-2.7,12.2-5.7,18.1-8.8
		c8.7,4.7,17.9,8.9,27.3,12.4c-5.4,4.4-10.9,8.5-16.5,12.2C204.3,801.7,194.6,796.3,185.5,790.4 M165.5,798.4
		c1.3-0.5,2.6-0.9,3.8-1.4c2.7-1,5.5-2.1,8.8-3.5c9.3,6.4,19.3,12.1,29.7,17c-4.6,2.9-9.4,5.7-14.1,8.2
		C183.8,812.6,174.4,805.8,165.5,798.4 M221.8,809.4c5.7-4,11.3-8.3,16.6-12.8c3.1,1,6.2,2,9.5,2.9c-4.6,4.9-9.4,9.7-14.4,14.3
		C229.5,812.4,225.6,810.9,221.8,809.4 M137.3,807.2c7-1.8,14-3.9,20.8-6.2c9,7.7,18.6,14.9,28.6,21.4c-2.3,1.2-4.4,2.1-6.4,3.1
		c-5.7,2.6-11.6,5-17.7,7.2c-4-3.6-7.9-7.3-11.7-11.1C146.3,817,141.7,812.2,137.3,807.2 M119.1,811.3c3.6-0.7,7.2-1.5,10.8-2.3
		c5.3,6.1,10.7,11.9,16.2,17.4c2.9,2.9,6,5.9,9.2,8.8c-4.6,1.5-9.4,2.9-14.3,4.2C133.2,830.5,125.9,821.1,119.1,811.3 M200.3,822.9
		c5-2.8,9.9-5.8,14.8-9c4.1,1.8,8.3,3.5,12.6,5c-4.6,4-9.3,7.8-14.1,11.4C209.1,828,204.6,825.5,200.3,822.9 M220.2,833.7
		c5.1-4,10.1-8.1,14.8-12.2l0.2,0.1c5,1.6,10.2,3.2,15.4,4.5c-4,5.4-8.2,10.6-12.7,15.6C232,839.2,226,836.5,220.2,833.7
		 M168.3,837.8c5-1.9,9.9-4,14.7-6.1c3.2-1.5,6.5-3.1,10.2-5c4.6,2.8,9.3,5.5,14.2,8.1c-2.3,1.7-4.5,3.2-6.6,4.5
		c-5.5,3.7-11.4,7.3-17.5,10.6C178.3,846,173.2,841.9,168.3,837.8 M189.4,854.3c5.4-3.1,10.4-6.1,15.2-9.4c3.2-2.1,6.3-4.3,9.6-6.7
		c6.1,3.1,12.5,6,18.9,8.7c-7.1,7.6-14.8,14.7-22.8,21.2C203.2,863.9,196.2,859.2,189.4,854.3 M146.1,845c5-1.4,10-2.9,15-4.6
		c5.1,4.5,10.4,8.9,15.8,13c-5,2.6-10.2,5.1-15.3,7.4c-2.3-2.1-4.3-4.1-6.2-6C152.3,851.7,149.2,848.5,146.1,845 M122.7,850.2
		c5.4-0.9,10.7-2,16-3.3c3.9,4.4,8,8.7,12,12.7c1.3,1.3,2.7,2.6,4.2,4.1c-6.1,2.5-12.3,4.8-18.6,6.8
		C131.4,864,126.8,857.1,122.7,850.2 M216.5,871.8c8.2-6.8,16.1-14.2,23.3-22.1c2.7,1.1,5.6,2.1,8.8,3.3l-2.2,3.5
		c-5,8-10.5,15.6-16.3,22.7C225.5,876.9,221,874.4,216.5,871.8 M167,865.8c5.3-2.4,10.6-5.1,15.9-7.9c7,5.2,14.3,10.1,21.8,14.7
		c-5.2,3.9-10.6,7.7-16,11.1C181.2,878.1,173.9,872.1,167,865.8 M140.5,876.2c6.6-2.2,13.2-4.7,19.7-7.5
		c7.1,6.5,14.5,12.8,22.2,18.7c-7.2,4.2-14.6,8-22.2,11.4c-0.6-0.6-1.1-1.2-1.7-1.8C152.2,890.5,146.2,883.5,140.5,876.2 M194.5,888
		c5.6-3.6,11.1-7.5,16.4-11.6c4.9,2.9,9.8,5.6,14.8,8.2c-4.5,5.2-9.2,10.2-14.1,14.9C205.8,895.8,200,892,194.5,888 M126.5,880.5
		c2.4-0.7,4.8-1.4,7.2-2.1c6.2,8.1,12.9,15.9,19.8,23.2c-3.6,1.5-7.3,2.8-10.9,4.1C136.9,897.7,131.5,889.2,126.5,880.5
		 M217.5,903.1c5-4.9,9.8-10.1,14.4-15.4c1.9,0.9,3.8,1.8,5.6,2.7c-3.4,6.3-7,12.3-10.8,17.9C223.7,906.7,220.6,904.9,217.5,903.1
		 M165.3,903.9c7.8-3.6,15.5-7.6,22.9-12.1c5.9,4.3,12,8.5,18.2,12.4c-6.8,6.1-14,11.8-21.5,16.9C178.2,915.7,171.6,910,165.3,903.9
		 M146.8,911.4c4-1.4,8-3,11.9-4.6c6.5,6.4,13.4,12.5,20.5,18.3c-4.6,2.9-9.3,5.7-14.1,8.3C158.6,926.4,152.5,919,146.8,911.4
		 M190.6,925.5c7.7-5.4,15-11.3,21.8-17.6c3.5,2.1,7,4.1,10.5,6.1c-5.4,7.7-11.3,15-17.5,21.9C200.4,932.6,195.4,929.1,190.6,925.5
		 M132.6,916l1.3-0.4c2.3-0.7,4.3-1.3,6.2-1.9c5.8,7.9,12.1,15.6,18.7,22.9c-4.1,2-8.2,3.9-12.4,5.7c-2.8-4.7-5.4-9.5-7.8-14.4
		L132.6,916 M169.8,938.5c5.1-2.8,10.2-5.8,15-9c5.2,4,10.6,7.8,16,11.4c-4.6,4.8-9.1,9.1-13.8,13.2c-0.2,0.2-0.4,0.3-0.5,0.5
		c-2.4-2.2-4.7-4.3-7-6.4C176.2,945.1,173,941.8,169.8,938.5 M149.9,948.1c4.6-2,9.2-4.1,13.6-6.3c3.7,3.9,7.5,7.7,11.3,11.3
		c2,1.9,4.1,3.9,6.4,5.9c-4.9,4.1-10.1,7.9-15.3,11.5C160.2,963.4,154.8,955.9,149.9,948.1 M191.6,959c5.1-4.5,10.1-9.3,15-14.5
		c4.7,2.9,9.6,5.8,14.5,8.4c-4,6.7-8.5,13-13.1,19C202.4,967.9,196.9,963.6,191.6,959 M170.3,975.7c5.6-3.8,11-8,16.1-12.2
		c5.6,4.8,11.4,9.4,17.3,13.7c-3.9,4.6-8.1,9.1-12.3,13.2c-1.1,1.1-2.3,2.2-3.7,3.5c-2.3-2.2-4.5-4.3-6.6-6.4
		C177.4,983.7,173.7,979.8,170.3,975.7 M153.2,986.5c3.9-2.2,7.7-4.6,11.4-7c3.7,4.4,7.7,8.6,11.6,12.7c2,2.1,4.1,4.1,6.3,6.2
		c-4.9,4.2-10.1,8.1-15.4,11.8c-4.5-7-8.9-14.3-13-21.8L153.2,986.5 M170.9,1015.8c5.8-4,11.4-8.3,16.7-12.8
		c5.3,4.7,11,9.3,16.8,13.5c-4.9,8.1-10.5,15.8-16.4,23.1c-5.4-7-10.6-14.2-15.6-21.5C171.9,1017.3,171.4,1016.5,170.9,1015.8"/>
	<path class="st3" d="M334,530.8c0,0-44,5-48,0s5-40,8-43s42-4,47,0S340,525.8,334,530.8z"/>
	<path class="st4" d="M83,657.9c-35.7-28.2-69.6-81.2-59.1-138C38.6,440,134.4,388.3,215.7,405.4c61.9,13,121.5,67.2,125.9,136.5
		c3.8,60.2-36.2,101.5-41.7,106.9c-13.7,13.7-32.6,10.8-52.4,7.9c-12.2-1.8-24.6-3.5-36.4-1.5C164.6,663.4,120.7,687.7,83,657.9"/>
	<path class="st5" d="M313.2,610.8c-20-1.9-25.3,3.4-50,4c-12.8,0.3-28.9,0.8-48-5c-20.7-6.3-27.1-14.4-53-20
		c-8.1-1.7-14.1-2.4-20-3c-18.6-1.9-31.2-1-40.9,0c-11,1.1-18.2,2.2-26.1-1c-26.5-10.9-29.9-58-30-60c-2.6-41.8,25.1-82,60.3-105.2
		c-41.1,20.1-73.6,55.5-81.7,99.3c-10.5,56.8,23.4,109.8,59.1,138c37.7,29.7,81.6,5.5,128-2.7c11.8-2.1,24.3-0.3,36.4,1.5
		c19.8,2.9,38.7,5.8,52.4-7.9c2.9-2.9,15.5-15.9,26.2-36.4C320.8,611.5,316.2,611.1,313.2,610.8"/>
	<path class="st3" d="M175.1,642.3c0,0,53.8-16.9,50.6-20c-3.2-3.2-25.3-40.1-31.6-38c-6.3,2.1-40.8,28.4-36.2,29
		C162.4,613.9,167.7,644.4,175.1,642.3z"/>
	<path class="st3" d="M178,504.8c0,0-23-32-29-31s-54,19-51,31s38,44,40,39S174,514.8,178,504.8z"/>
	<path class="st3" d="M51.7,593.9c0,0,24.9-8.6,25.4-14.8c0.5-6.2-16.6-48.8-21-49s-24.9,20.8-21.5,27.3
		C38,563.9,46.6,595.9,51.7,593.9z"/>
	<path class="st3" d="M299,570.8c0,0-44,5-48,0s5-40,8-43s42-4,47,0S305,565.8,299,570.8z"/>
	<path class="st4" d="M217.1,637.9c-9.8,1.6-31.8-4.8-53.7-11.2c-19.6-5.8-39.3-11.5-50-11.5c-23.6,0-60.5,0.1-68.1,18.2
		c-6.9,16.3,13.6,39.5,26.3,50c28.7,23.8,74.7,30.4,108.3,15.2c21-9.5,22.3-20.8,44.9-25.8c10.1-2.2,15.9-1.3,24.1-0.4
		c6.7,0.7,15,1.5,28.6,0.4c21.8-1.6,41.3-3.3,49.5-16.7c4.3-6.9,5.3-16.5,1.5-24.3c-6.4-13.1-23.8-14.9-26.3-15.2
		c-15.3-1.6-22.4,6.5-43.3,13.6C249.7,633.5,235.7,637.2,217.1,637.9"/>
	<path class="st6" d="M71.5,683.4C71.5,683.4,71.5,683.4,71.5,683.4C71.6,683.4,71.5,683.4,71.5,683.4 M71.3,683.1
		c0.1,0.1,0.2,0.1,0.3,0.2C71.4,683.3,71.4,683.2,71.3,683.1 M71.2,683.1C71.2,683.1,71.3,683.1,71.2,683.1
		C71.3,683.1,71.2,683.1,71.2,683.1 M71.2,683.1C71.2,683.1,71.2,683.1,71.2,683.1C71.2,683.1,71.2,683.1,71.2,683.1 M327,656.1
		C327,656.1,327,656.1,327,656.1C327,656.1,327,656.1,327,656.1 M327,656C327,656,327,656,327,656C327,656,327,656,327,656"/>
	<path class="st7" d="M330.8,640.8c-6.2,8.8-12.6,12.9-16.7,15c-8.6,4.5-16.8,5.7-28.5,5.7c-12.9,0-30.1-1.5-57.2-1.7
		c-2.2,0-4.3,0-6.1,0c-2.5,0-4.6,0-6.1,0c-1.2,0-3,0.2-5.1,1c-6.2,2.4-7.6,7.8-12.5,12.2c-1.5,1.3-4.2,2.6-13,5.8
		c-20.3,7.6-40.1,9.7-56.3,9.7c-13.7,0-24.8-1.6-31.4-2.7c-14.1-2.5-25.5-6.5-34.6-10.3c2.8,2.9,5.5,5.4,8,7.5c0,0,0,0,0,0
		c0,0,0,0,0,0c0,0,0,0,0,0c0,0,0,0,0,0c0.1,0.1,0.2,0.1,0.3,0.2c0,0,0,0,0,0c0,0,0,0,0,0c0,0,0,0,0,0c18.3,15.2,43.6,23.4,68.2,23.4
		c14.1,0,27.9-2.7,40.1-8.2c21-9.5,22.3-20.8,44.9-25.8c4.7-1,8.5-1.4,12-1.4c4,0,7.7,0.5,12.1,0.9c4.4,0.5,9.4,0.9,16,0.9
		c3.6,0,7.8-0.1,12.5-0.5c21.8-1.6,41.3-3.3,49.5-16.7c0,0,0,0,0,0c0,0,0,0,0,0c0,0,0,0,0,0c0,0,0,0,0,0
		C329.7,651.6,331.1,646.2,330.8,640.8"/>
	<path class="st3" d="M107,628.8c0,0,45,23,45,28s-12,9.3-15,16.6c-3,7.4-58-10.6-56-16.6S101,631.8,107,628.8z"/>
	<path class="st8" d="M282,438.9c35.7-28.2,69.6-81.2,59.1-138c-14.7-79.9-110.6-131.6-191.8-114.5c-61.9,13-121.5,67.2-125.9,136.5
		c-3.8,60.2,36.2,101.5,41.7,106.9c14.6,14.6,35.2,14.2,56.4,13.9c10.9-0.2,21.9-0.3,32.4,1.5C200.4,453.3,244.3,468.6,282,438.9"/>
	<path class="st9" d="M23.5,322.7C23.5,322.7,23.5,322.7,23.5,322.7C23.5,322.7,23.5,322.7,23.5,322.7 M23.5,322.5
		C23.5,322.5,23.5,322.5,23.5,322.5C23.5,322.5,23.5,322.5,23.5,322.5 M23.5,322.4C23.5,322.4,23.5,322.4,23.5,322.4
		C23.5,322.4,23.5,322.4,23.5,322.4 M23.5,322.2C23.5,322.2,23.5,322.2,23.5,322.2C23.5,322.2,23.5,322.2,23.5,322.2 M23.5,322
		C23.5,322,23.5,322,23.5,322C23.5,322,23.5,322,23.5,322 M23.5,321.9C23.5,321.9,23.5,321.9,23.5,321.9
		C23.5,321.9,23.5,321.9,23.5,321.9 M23.5,321.7C23.5,321.7,23.5,321.7,23.5,321.7C23.5,321.7,23.5,321.7,23.5,321.7 M23.6,321.5
		C23.6,321.5,23.6,321.5,23.6,321.5C23.6,321.5,23.6,321.5,23.6,321.5 M23.6,321.4C23.6,321.4,23.6,321.4,23.6,321.4
		C23.6,321.4,23.6,321.4,23.6,321.4 M23.6,321.2C23.6,321.2,23.6,321.2,23.6,321.2C23.6,321.2,23.6,321.2,23.6,321.2 M23.6,321
		L23.6,321L23.6,321 M23.6,320.9C23.6,320.9,23.6,320.9,23.6,320.9C23.6,320.9,23.6,320.9,23.6,320.9 M23.6,320.7
		C23.6,320.7,23.6,320.7,23.6,320.7C23.6,320.7,23.6,320.7,23.6,320.7 M23.7,320.4C23.6,320.4,23.6,320.4,23.7,320.4
		C23.6,320.4,23.6,320.4,23.7,320.4 M23.7,320.2L23.7,320.2L23.7,320.2 M23.7,320L23.7,320L23.7,320 M23.7,319.9
		C23.7,319.9,23.7,319.9,23.7,319.9L23.7,319.9 M23.7,319.4L23.7,319.4C23.7,319.4,23.7,319.4,23.7,319.4"/>
	<path class="st9" d="M71.6,227c-26,23.8-44.6,55.9-47.8,92.4c0,0,0,0,0,0c0,0.2,0,0.3,0,0.5l0,0c0,0.1,0,0.1,0,0.2l0,0
		c0,0.1,0,0.1,0,0.2l0,0c0,0.1,0,0.1,0,0.2c0,0,0,0,0,0c0,0.1,0,0.2,0,0.3c0,0,0,0,0,0c0,0,0,0.1,0,0.1c0,0,0,0,0,0
		c0,0.1,0,0.1,0,0.1l0,0c0,0,0,0.1,0,0.1c0,0,0,0,0,0c0,0,0,0.1,0,0.1c0,0,0,0,0,0c0,0,0,0.1,0,0.1c0,0,0,0,0,0c0,0,0,0.1,0,0.1
		c0,0,0,0,0,0c0,0.1,0,0.1,0,0.1c0,0,0,0,0,0c0,0,0,0.1,0,0.1c0,0,0,0,0,0c0,0,0,0.1,0,0.1c0,0,0,0,0,0c0,0.1,0,0.1,0,0.1
		c0,0,0,0,0,0c0,0,0,0.1,0,0.1c0,0,0,0,0,0c0,0,0,0.1,0,0.1c0,0,0,0,0,0c0,0,0,0.1,0,0.1l0,0c-0.2,2.7-0.3,5.4-0.2,8
		c0,30.6,11,55.8,21.9,73.2c7.8-6.1,18.2-7.2,20.2-7.4c1.4-0.1,2.6-0.2,3.9-0.2c12.9,0,20.6,7.3,39.8,13.9
		c9.3,3.2,23.4,6.9,42.1,7.6c1,0.2,2.2,0.2,3.5,0.2c11,0,30.8-5.7,50.6-11.5c19.8-5.7,39.5-11.5,50.4-11.5c0,0,0,0,0.1,0
		c18.4,0,45,0.1,59.5,8.5c0.7-1.1,1.5-2.1,2.2-3.2c-18.7-9.8-35.1-13.8-48.3-15.4c-5.3-0.6-10.3-0.9-15.1-0.9
		c-17.8,0-32.8,3.8-47.3,7.6c-14.5,3.8-28.5,7.6-44.2,7.6c-9,0-18.6-1.2-29.1-4.4c-8.5-2.6-35.4-11.1-54.6-36.4
		c-24.3-31.9-25.6-76-12.1-107.7c2.2-5.2,4.8-10,7.6-14.4C73.2,233.4,72.2,230.2,71.6,227"/>
	<path class="st10" d="M204.5,373.8c-11.4,3.7-21.8,15-21,26c1.5,21.3,43.8,28,46,24c1.6-2.9-17-11-16-23c1-11.6,19.4-15.6,18-22
		C230.4,373.5,216.1,370.1,204.5,373.8z"/>
	<path class="st10" d="M91.6,217.3c2.3,8.6,18.7,14.3,30.2,9.6c15.9-6.5,20.7-31.9,13.8-38c-5.3-4.7-18.2,1.3-26,5
		c-10.5,4.9-13.9,10.1-15,12C93,208.4,90.4,212.9,91.6,217.3z"/>
	<path class="st10" d="M239.5,218.4c-15.8-8.5-39.4,1.1-41,11.5c-1.4,9.1,13.9,19.8,27.1,22.9c1,0.2,22.1,4.9,28-5.2
		C258.5,239.1,250.4,224.2,239.5,218.4z"/>
	<path class="st10" d="M253.5,338.8c0.2,8,31.5,22.4,47,9c11.5-10,10.9-32.3,4-36c-3.2-1.7-6.4,1.3-22,10
		C259.3,334.8,253.5,335.4,253.5,338.8z"/>
	<path class="st10" d="M54.5,308.8c-9.6,7.2-8.5,26,0,37c9.9,12.8,31.2,17.2,40,8c7.5-7.9,3.8-23.7-3-33
		C83,309.3,64.7,301.2,54.5,308.8z"/>
	<path class="st8" d="M151.1,417.9c9.9,1.6,32-4.8,54.1-11.2c19.8-5.8,39.6-11.5,50.5-11.5c23.8,0,61,0.1,68.7,18.2
		c6.9,16.3-13.7,39.5-26.5,50c-29,23.8-75.4,22.4-109.3,7.2c-21.2-9.5-22.5-12.8-45.3-17.8c-10.1-2.2-16-1.3-24.3-0.4
		c-6.8,0.7-15.2,1.5-28.8,0.4c-22-1.6-41.6-3.3-50-16.7c-4.3-6.9-5.4-16.5-1.6-24.3c6.4-13.1,24-14.9,26.5-15.2
		c15.5-1.6,22.6,6.5,43.7,13.6C118.2,413.4,132.3,417.1,151.1,417.9"/>
	<path class="st11" d="M294.2,466.2c-11.6,8.3-25.6,13-40.2,14.8C268.6,479.2,282.6,474.5,294.2,466.2 M297.9,463.3
		C297.9,463.3,297.9,463.3,297.9,463.3C297.9,463.3,297.9,463.3,297.9,463.3 M298,463.3C298,463.3,298,463.3,298,463.3
		C298,463.3,298,463.3,298,463.3 M298,463.2C298,463.2,298,463.2,298,463.2C298,463.2,298,463.2,298,463.2 M298.1,463.2
		C298.1,463.2,298.1,463.2,298.1,463.2C298.1,463.2,298.1,463.2,298.1,463.2 M298.2,463.1C298.1,463.1,298.1,463.1,298.2,463.1
		C298.1,463.1,298.1,463.1,298.2,463.1 M298.2,463.1C298.2,463.1,298.2,463.1,298.2,463.1C298.2,463.1,298.2,463.1,298.2,463.1
		 M298.3,463C298.3,463,298.3,463,298.3,463C298.3,463,298.3,463,298.3,463 M298.3,463C298.3,463,298.3,463,298.3,463
		C298.3,463,298.3,463,298.3,463 M298.4,462.9C298.4,462.9,298.4,462.9,298.4,462.9C298.4,462.9,298.4,462.9,298.4,462.9"/>
	<path class="st9" d="M39.1,411.1c-0.1,0.2-0.3,0.5-0.4,0.7l0,0c-1.6,3.2-2.3,6.8-2.3,10.4c0,4.9,1.4,9.9,3.9,13.9
		c8.3,13.3,28,15.1,50,16.7c4.8,0.4,9,0.5,12.6,0.5c6.7,0,11.8-0.5,16.2-0.9c4.4-0.5,8.1-0.9,12.2-0.9c3.5,0,7.3,0.4,12.1,1.4
		c22.8,5,24.1,8.3,45.3,17.8c15.7,7.1,34.1,11.1,52.1,11.1c4.5,0,8.9-0.2,13.3-0.8c14.7-1.7,28.6-6.4,40.2-14.8
		c1.2-0.9,2.5-1.8,3.6-2.8c0,0,0,0,0.1,0c0,0,0,0,0,0c0,0,0,0,0,0c0,0,0,0,0,0c0,0,0,0,0,0c0,0,0,0,0,0c0,0,0,0,0,0c0,0,0,0,0,0
		c0,0,0,0,0,0c0,0,0,0,0,0c0,0,0,0,0,0c0,0,0,0,0,0c0,0,0,0,0,0c0,0,0,0,0,0c0,0,0,0,0,0c0,0,0,0,0,0c0,0,0,0,0.1,0c0,0,0,0,0,0
		c5-4.2,11-10.1,16.1-16.8c-17.3,10-32,13.7-32,13.7c-10.7,2.7-24.6,6.3-42.4,6.3c-2.8,0-5.6-0.1-8.6-0.3c-17.4-1.1-38.1-2.4-58-15
		c-8.4-5.3-17.4-13.1-29.6-13.1c-0.8,0-1.6,0-2.4,0.1c-5.6,0.5-8.8,2.3-13,4c-8.6,3.5-17.6,4.9-26.4,4.9c-18.9,0-36.7-6.5-46.6-12.9
		c-3.9-2.5-11.5-7.6-15-17C39.7,414.4,39.3,412.4,39.1,411.1"/>
	<path class="st10" d="M231.5,441.8c-9.8-9.4-34.3-5.9-38,4c-2.5,6.8,5.1,15.4,11,22c5.1,5.8,15.5,17.4,31,18
		c11.9,0.5,24.1-5.5,24-10c-0.1-4-10.2-3.1-18-12C233.9,455.2,237.8,447.9,231.5,441.8z"/>
	<path class="st10" d="M78.5,404c-4.3,3.7-6.4,11.6-3.3,16.7c4.2,7,15.6,5.4,18.4,5c8.1-1.1,18.6-6.3,18.4-11.7
		C111.6,406.1,88.3,395.5,78.5,404z"/>
	<path class="st4" d="M63.4,326.9c-4.4,0.9-7,5.8-6.8,10c0.3,4.8,4.3,9.8,9.4,9.5c5.1-0.3,8.7-5.8,8.1-10.8
		C73.5,330.5,68.4,325.9,63.4,326.9z"/>
	<path class="st4" d="M301.9,272.2c-1.7,2.8-0.8,6.5,0.8,8.7c3.5,4.8,12.4,5.4,15.1,1.6c2.4-3.4,0.2-10.4-4.8-12.7
		C309.5,268.1,304.1,268.6,301.9,272.2z"/>
	<path class="st4" d="M251,425c-0.5,5,5.4,10,11.2,10.5c6.7,0.7,14.1-4.5,13.8-9.8c-0.2-4.5-6.1-7.9-10.8-8.5
		C259.2,416.5,251.6,419.7,251,425z"/>
	<path class="st4" d="M228.5,244.8c2.4,3.7,8.4,5.7,13,3c4.2-2.5,5.4-7.8,4-12c-1.5-4.4-6-7.5-10-7
		C229.3,229.7,224.9,239.2,228.5,244.8z"/>
	<path class="st3" d="M92.8,191.8c-9,4.3-16.5,9.5-20,18c-6,14.8,3.3,31.8,9,42c11,19.9,17.5,16.9,25,32c13.1,26.4,1.9,53.4,10,56
		c4.7,1.5,11.3-6.8,13-9c10.9-13.9,3.9-25.8,13-38c8-10.6,21.6-12.5,25-13c13-1.8,29,2.5,38,13c21.4,24.8-8.6,69.5,12,86
		c4.2,3.4,10.6,5.6,16,4c9.5-2.8,12.6-16.7,16-30c16.6-65.5,26.3-66.3,22-88c-4.3-21.8-17-35.4-12-40c4.6-4.1,18.5,3.9,22,6
		c19.2,11.2,26,27.7,30,26c2.8-1.2,2.2-10.6,0-18c-6.5-22.4-28.4-33.7-35-37c-16.3-8.1-30.6-9.1-42-10
		C150.1,185.3,125.1,176.5,92.8,191.8"/>
	<path class="st0" d="M162.6,174.7c-17-10.1-19.3-11.6-24.3-12c-8.4-0.7-18.7,2.1-20.7,6.5c-0.9,2,0.1,3.9,1.3,6
		c0.2,0.3,0.4,0.6,0.5,0.9c-5.8,1.5-8.2,3.6-9.2,5.3c-1.5,2.5-0.5,4.6-2.3,9.3c-0.3,0.8-0.7,2.9-1,2.3c0,0,0,0.1,0.2,0.2
		c-3-0.1-6.5,0.9-8.3,2.6c-2.4,2.4-1.7,6.4,0,11.9c5.5,17.3,16,31.4,17.9,33.7c23.7,31.1,31.2,40.5,58.4,47.7
		c1.5,0.4,13.3,3.1,13.9-5.7c0.5-6.8-6-13.4-15.9-22.2c1.7,0,1.5-2.9,2.8-4.1c3.4-3.1,7.5-2.5,11.1-3.5c3.7-1.1,7.8-4.1,9.7-12.5
		l0,0c10.1,4.4,15.9,5.1,18.7,3c4.3-3.2,0.7-11.6-3.3-20.8c-3.5-8.1-7.6-17.4-17.3-27.3C189.8,190.8,186.7,189.1,162.6,174.7"/>
	<path class="st4" d="M188.9,283.4c-0.1-3.2-1.6-6.1-3.5-8.5c-1.9-2.4-4.2-4.6-6.5-6.7c-2.4-2.1-4.7-4.2-7.2-6.2l-7.2-6.2
		c-2.4-2.1-4.7-4.3-7.1-6.5c-2.3-2.2-4.6-4.5-6.7-6.8c-4.4-4.7-8.4-9.7-11.8-15.1c4.4,4.6,8.9,9.1,13.5,13.4c2.3,2.1,4.6,4.3,7,6.4
		c2.3,2.1,4.7,4.2,7.1,6.3c4.7,4.2,9.6,8.3,14.1,13c2.2,2.3,4.4,4.8,6.1,7.6c0.8,1.4,1.6,2.9,2,4.5
		C189.1,280.2,189.2,281.8,188.9,283.4z"/>
	<path class="st4" d="M111.6,194.5c-1.3-0.2-2.3-0.1-3.4,0c-1,0.1-2.1,0.2-3.1,0.3c-1,0.1-2.1,0.2-3.1,0.4c-1.1,0.2-2.1,0.3-3.3,0.6
		c0.4-1.3,1.4-2.2,2.5-2.9c1.1-0.6,2.3-1,3.6-1.2c1.3-0.1,2.5,0,3.8,0.4C109.8,192.5,111.1,193.3,111.6,194.5z"/>
	<path class="st4" d="M117.6,169.2c-0.5,1.3-0.2,2.7,0.4,3.8c0.6,1.2,1.4,2.3,2.2,3.4c1.5,2.2,3.1,4.4,4.7,6.5
		c3.2,4.3,6.7,8.4,10.4,12.1l5.9,5.4c2,1.8,4,3.6,6,5.3c4,3.5,8.1,7,12.3,10.4c4.2,3.4,8.4,6.7,12.8,9.7c4.3,3.1,8.8,6,13.5,8.6
		c2.3,1.3,4.7,2.6,7.1,3.8c2.4,1.2,4.8,2.4,7.3,3.4c2.4,1.1,5,2,7.5,2.7c1.3,0.3,2.6,0.6,3.9,0.6c1.3,0,2.7-0.2,3.8-0.9
		c-1.1,0.9-2.4,1.2-3.8,1.4c-1.4,0.1-2.8,0-4.1-0.2c-2.7-0.4-5.3-1.2-7.9-2.1c-5.1-1.8-10.1-4-14.9-6.5c-4.9-2.4-9.5-5.3-14-8.4
		c-4.5-3.1-8.8-6.4-13-9.8c-8.4-6.9-16.4-14.1-24-21.9c-3.7-4-7-8.4-10-12.9c-1.5-2.3-2.9-4.6-4.2-7c-0.6-1.2-1.3-2.3-1.9-3.6
		C117.1,172,116.9,170.4,117.6,169.2"/>
	<path class="st4" d="M133.2,172.2c4.7,2,9.1,4.4,13.4,7.1c2.2,1.3,4.2,2.8,6.3,4.2c2,1.5,4,3,6,4.6c1.9,1.6,3.9,3.2,5.7,4.9
		c1.8,1.7,3.7,3.4,5.5,5.2c3.5,3.6,6.9,7.4,9.9,11.4c-3.9-3.2-7.7-6.5-11.5-9.7c-1.9-1.6-3.8-3.2-5.7-4.8c-1.9-1.6-3.8-3.2-5.8-4.7
		c-1.9-1.6-3.9-3.1-5.8-4.7c-1.9-1.6-3.9-3-5.9-4.6L133.2,172.2"/>
	<path class="st4" d="M116.3,191c4.3,4.4,8.6,8.7,13,13c4.4,4.2,8.8,8.4,13.4,12.4c2.2,2.1,4.5,4.1,6.8,6.1c2.3,2,4.6,4,6.9,6
		c4.6,4,9.3,7.9,13.9,12.1c-5.3-3.1-10.4-6.6-15.3-10.2c-2.5-1.8-4.9-3.7-7.3-5.7c-2.4-2-4.7-4-7-6c-2.3-2.1-4.5-4.2-6.7-6.3
		c-2.2-2.2-4.3-4.4-6.4-6.7C123.5,201,119.7,196.2,116.3,191z"/>
	<path class="st4" d="M111.8,223.5c2.9,3.4,5.8,6.8,8.7,10.1c1.5,1.6,2.9,3.3,4.5,4.9c1.5,1.6,3,3.2,4.6,4.8
		c3.1,3.1,6.2,6.2,9.4,9.3c3.2,3.1,6.5,6.1,9.7,9.2c-3.9-2.1-7.7-4.7-11.2-7.4c-3.5-2.8-6.9-5.7-10-8.9c-3.1-3.2-6.1-6.6-8.7-10.3
		C116,231.4,113.7,227.6,111.8,223.5z"/>
	<path class="st12" d="M193,194.2c0.6,0.6,1.2,1.2,1.9,1.8c0.2,0.2,0.3,0.4,0.5,0.5c-0.2-0.2-0.3-0.4-0.5-0.5
		C194.2,195.4,193.6,194.7,193,194.2 M193,194.2C193,194.2,193,194.2,193,194.2C193,194.2,193,194.2,193,194.2"/>
	<path class="st13" d="M179.4,184.8c-3.3,5.3-5.9,10.2-7.4,15.6c2.8,3,5.5,6.1,7.9,9.4c-2.9-2.3-5.7-4.7-8.5-7.1
		c-0.3,1.4-0.5,2.8-0.6,4.2c-0.7,7,0.6,13.2,2.2,19.7c4.1,2.9,8.4,5.6,12.8,8.1c2.3,1.3,4.7,2.6,7.1,3.8c1.5,0.7,3,1.5,4.5,2.2
		c0.8-12.5,1.6-27.1,1.6-40c-1.1-1.3-2.3-2.7-3.6-4.1c-0.2-0.2-0.3-0.4-0.5-0.5c-0.6-0.7-1.3-1.3-1.9-1.8c0,0,0,0,0,0c0,0,0,0,0,0
		C190.2,191.5,187,189.4,179.4,184.8"/>
	<path class="st12" d="M186.7,253.7c-2.4,0.6-5,0.6-7.4,1.5c0,0,0,0,0,0C181.7,254.3,184.3,254.4,186.7,253.7 M186.7,253.7
		C186.7,253.7,186.7,253.7,186.7,253.7C186.7,253.7,186.7,253.7,186.7,253.7 M186.7,253.7C186.7,253.7,186.7,253.7,186.7,253.7
		C186.7,253.7,186.7,253.7,186.7,253.7 M186.8,253.7C186.8,253.7,186.7,253.7,186.8,253.7C186.7,253.7,186.8,253.7,186.8,253.7
		 M186.8,253.7C186.8,253.7,186.8,253.7,186.8,253.7C186.8,253.7,186.8,253.7,186.8,253.7 M186.8,253.7
		C186.8,253.7,186.8,253.7,186.8,253.7C186.8,253.7,186.8,253.7,186.8,253.7 M186.8,253.7C186.8,253.7,186.8,253.7,186.8,253.7
		C186.8,253.7,186.8,253.7,186.8,253.7 M186.9,253.7C186.9,253.7,186.9,253.7,186.9,253.7C186.9,253.7,186.9,253.7,186.9,253.7
		 M186.9,253.7C186.9,253.7,186.9,253.7,186.9,253.7C186.9,253.7,186.9,253.7,186.9,253.7 M186.9,253.7
		C186.9,253.7,186.9,253.7,186.9,253.7C186.9,253.7,186.9,253.7,186.9,253.7 M187,253.7C187,253.7,186.9,253.7,187,253.7
		C186.9,253.7,187,253.7,187,253.7"/>
	<path class="st13" d="M174,230.5c1.6,6.1,2.5,6.9,3.8,13.3c1.1,5.5,1.2,8.6,1.4,11.3c2.4-0.8,5-0.8,7.4-1.5c0,0,0,0,0,0
		c0,0,0,0,0,0c0,0,0,0,0,0c0,0,0,0,0,0c0,0,0,0,0,0c0,0,0,0,0,0c0,0,0,0,0,0c0,0,0,0,0,0c0,0,0,0,0,0c0,0,0,0,0,0c0,0,0,0,0,0
		c0,0,0,0,0,0c0,0,0,0,0,0c0,0,0,0,0,0c0,0,0,0,0,0c0,0,0,0,0,0c0,0,0,0,0,0c0,0,0,0,0,0c0,0,0,0,0,0c0,0,0,0,0,0c0,0,0,0,0,0
		c3.6-1,7.5-3.9,9.5-11.6c-4-1.6-7.9-3.4-11.8-5.3C181,234.9,177.5,232.8,174,230.5"/>
	<path class="st4" d="M173,226.5c0.3,1.1,0.6,2.2,0.8,3.3c0.1,0.2,0.1,0.5,0.2,0.7c3.5,2.2,7,4.3,10.7,6.2c3.9,2,7.8,3.7,11.8,5.3
		c0.1-0.3,0.1-0.5,0.2-0.8l0,0c0.2,0.1,0.4,0.2,0.6,0.3c0-0.3,0-0.6,0.1-0.9c-1.5-0.7-3-1.4-4.5-2.2c-2.4-1.2-4.8-2.4-7.1-3.8
		C181.4,232.1,177.1,229.4,173,226.5"/>
	<path class="st4" d="M172,200.3c-0.2,0.7-0.4,1.5-0.5,2.3c2.8,2.4,5.6,4.8,8.5,7.1C177.5,206.4,174.8,203.3,172,200.3"/>
	<path class="st0" d="M267.8,197.4c-1.4-24.1-1.5-27.8-5.2-32.7c-6.4-8.5-19-14.3-25.8-10.3c-3,1.8-4.1,5.1-5.2,8.6
		c-0.2,0.5-0.3,1-0.4,1.5c-6.6-3.2-10.7-2.7-13.3-1.5c-3.6,1.7-4.6,4.9-10.3,8.6c-1,0.6-3,2.6-2.8,1.6c0,0,0,0.1,0,0.3
		c-2.5-2.5-6.3-4.2-9.2-3.7c-3.9,0.7-6.2,5.4-8.6,12c-6.6,18.7-6.9,35.2-6.9,37.8c-0.2,28.8,0,36.1,12,49.8
		c0.6,0.7,5.7,6.1,10.3,3.4c3.8-2.2,3.7-7.2,2.9-15c1,0.7,2.5-0.6,4-0.5c3.8,0.2,5.9,2.3,8.6,3.4c2.8,1.2,7.1,1.7,13.7-1v0
		c2.8,6.4,5.5,9.2,8.6,9.6c4.7,0.6,8.9-4.4,13.8-10.3c4.6-5.6,10.4-12.7,13.8-24.1C269.7,228.7,269.4,225.6,267.8,197.4z"/>
	<path class="st4" d="M202.5,273c0.8-0.7,1.5-1.5,1.9-2.4c0.4-0.9,0.5-1.9,0.6-2.9c0.1-2-0.2-4.1-0.4-6.2l-0.9-6.3
		c-0.3-2.1-0.5-4.2-0.8-6.4c-0.4-4.3-0.6-8.6-0.4-12.9c0.2-4.3,0.7-8.6,1.8-12.8c0.2,4.3,0.3,8.5,0.6,12.7c0.3,4.2,0.6,8.4,1,12.6
		c0.4,4.2,0.9,8.4,1,12.8c0,2.2,0,4.4-0.5,6.6c-0.3,1.1-0.6,2.2-1.3,3.1C204.4,271.9,203.5,272.7,202.5,273z"/>
	<path class="st4" d="M207.6,178.5c-0.8-1.2-1.7-2.1-2.6-2.9c-0.9-0.8-1.9-1.5-2.8-2.2c-1-0.7-2-1.3-3.1-1.9
		c-1.1-0.6-2.2-1.1-3.6-1.5c1.2-0.8,2.9-0.9,4.3-0.7c1.5,0.3,2.8,0.9,4,1.7c1.2,0.9,2.2,1.9,3,3.2
		C207.6,175.5,208.1,177.1,207.6,178.5z"/>
	<path class="st4" d="M236.9,154.4c-2.2,1.4-3.3,3.8-4,6.2c-0.7,2.4-1.3,4.9-1.8,7.4c-1.2,4.9-2.2,9.9-3.1,14.9
		c-0.8,5-1.6,10-1.8,15c-0.1,5.1-0.2,10.2-0.2,15.2c0,5.1,0.1,10.1,0.4,15.2c0.2,5.1,0.7,10.1,1.4,15.1c0.8,5,2,9.8,3.8,14.6
		c0.9,2.4,1.8,4.7,3.1,6.9c0.6,1.1,1.4,2.1,2.3,2.9c0.9,0.9,2,1.5,3.3,1.8c-1.3-0.1-2.5-0.6-3.6-1.4c-1-0.8-1.9-1.8-2.7-2.8
		c-1.5-2.1-2.7-4.4-3.8-6.8c-1-2.3-2-4.7-2.8-7.2c-0.8-2.5-1.4-5-1.9-7.5c-2-10.1-2.4-20.4-2.5-30.7c0-5.1,0.1-10.2,0.3-15.3
		c0.1-2.7,0.5-5.2,0.9-7.7c0.4-2.5,0.9-5.1,1.4-7.6c1.1-5,2.4-10,3.9-14.9c0.4-1.2,0.8-2.4,1.2-3.6c0.4-1.2,0.8-2.4,1.3-3.6
		c0.5-1.2,1.1-2.4,1.8-3.4C234.7,155.9,235.7,155,236.9,154.4z"/>
	<path class="st4" d="M247.2,171.6c1.3,5.2,2.2,10.5,2.7,15.8c0.3,2.7,0.4,5.3,0.5,8c0.1,2.7,0.1,5.4,0,8c-0.1,2.7-0.2,5.4-0.5,8
		c-0.3,2.7-0.5,5.3-1,8c-0.8,5.3-1.9,10.6-3.5,15.7l1.2-15.9c0.1-2.6,0.4-5.3,0.5-7.9c0.1-2.6,0.2-5.3,0.3-7.9
		c0.1-2.6,0.1-5.3,0.1-7.9c0-2.6,0-5.3,0-7.9C247.4,182.3,247.3,177,247.2,171.6z"/>
	<path class="st4" d="M218.7,172.8c-0.9,2.9-1.8,5.8-2.7,8.7c-0.9,2.9-1.4,5.9-1.5,8.9c-0.2,5.9-0.3,10.6-0.3,13.8
		c0,3.7,0.1,7.8,0.1,8.6c0,2.9,0.2,5.7,0.3,8.6c0.1,2.9,0.3,5.7,0.4,8.6l1.1,17.2c-1.6-5.6-2.7-11.2-3.5-17
		c-0.4-2.9-0.7-5.7-0.9-8.6c-0.2-2.9-0.4-5.8-0.5-8.7c-0.1-3.2,0-5.5,0-8.7c0.2-9.5,0.3-14.2,0.3-14.5
		C212.2,185.7,213.7,179.8,218.7,172.8z"/>
	<path class="st4" d="M187,204.3c0.2,3.7,0.3,7.3,0.4,10.8c0.2,3.6,0.4,7.1,0.7,10.7c0.3,3.6,0.6,7.1,1.1,10.7
		c0.4,3.6,0.9,7.1,1.3,10.8c-1.6-3.3-2.7-6.8-3.6-10.4c-0.9-3.6-1.4-7.2-1.7-10.8c-0.3-3.7-0.3-7.3,0-11
		C185.4,211.4,186,207.8,187,204.3z"/>
	<circle class="st14" cx="185.4" cy="144.8" r="50"/>
	<path class="st15" d="M229.1,169.2c-3.6,3.8-10.8,10.3-21.7,13.6c-25.4,7.8-46.7-8.9-48-10c-22.5-18.3-19.6-47.1-19.3-49.1
		c-3,6.4-4.7,13.5-4.7,21.1c0,27.6,22.4,50,50,50C204.2,194.8,220.6,184.5,229.1,169.2z"/>
	<path class="st16" d="M195.9,115.5c-1.9-0.9-3.8-1.8-5.7-2.3c-1.9-0.5-4-0.7-5.3,0c-0.4,0.2-0.6,0.4-0.8,0.7
		c-0.3,0.3-0.6,0.8-0.9,1.2c-0.6,0.8-1.4,1.6-2.1,2.3c-0.8,0.7-1.6,1.3-2.5,1.9c-0.9,0.6-1.8,1.1-2.8,1.6l-0.2-0.2
		c0.9-2.1,2.1-3.7,3.4-5.3c0.7-0.8,1.4-1.5,2.1-2.2c0.4-0.3,0.8-0.7,1.2-1.1c0.5-0.4,1.1-0.8,1.7-1c1.2-0.5,2.5-0.5,3.7-0.3
		c1.1,0.2,2.2,0.6,3.2,1c2,1,3.7,2.1,5.4,3.4L195.9,115.5z"/>
	<path class="st17" d="M175.4,64.3L175.4,64.3c-4.5-8.9-10.3-17.3-17.9-23.8c-1.9-1.6-3.9-3.2-5.9-4.6c-2.1-1.4-4.2-2.8-6.3-4l0,0
		c-1.8-1-3.7-2-5.6-2.8c1.8,1.1,3.5,2.3,5.2,3.5l0,0c4,2.9,7.8,6,11.3,9.4l0,0c1.7,1.7,3.5,3.4,5.1,5.2l0,0l0,0l0,0l0,0
		c0.9,0.9,1.6,1.9,2.4,2.8l0,0l2.4,2.8l0,0c0.9,1,1.6,2,2.2,2.9l0,0l2.1,2.9l0,0c1.4,2.1,2.6,4.2,3.8,6.2l0,0
		c4.7,8.7,7.9,18.1,9.8,27.8l0,0l0,0l0,0C182.6,82.9,179.8,73.3,175.4,64.3z"/>
	<path class="st17" d="M186.1,92.5L186.1,92.5c-1.5-10-4.4-19.8-8.9-29l0,0c-4.6-9.1-10.5-17.7-18.3-24.5l0,0
		c-2-1.6-3.9-3.2-6.1-4.7l0,0c-2.1-1.4-4.2-2.8-6.5-4.1l0,0l0,0c-4.4-2.5-9.1-4.5-14-6c-0.5-0.1-1,0.1-1.2,0.6l-0.2,0.4
		c-0.2,0.5,0,1,0.4,1.3c4.3,2.5,8.4,5,12.4,7.9l0,0c3.9,2.8,7.6,5.9,11.1,9.2l0,0c1.7,1.7,3.4,3.4,5,5.1l0,0
		c0.8,0.8,1.5,1.7,2.3,2.7l0,0l2.4,2.8l0,0c0.7,0.8,1.4,1.8,2.1,2.8h0l2.1,2.9c1.3,2,2.5,4.1,3.8,6.1c4.6,8.4,7.7,17.7,9.5,27.2
		c0.9,4.8,1.5,9.6,1.8,14.5c0.1,2,0.2,4.1,0.2,6.1c0,2.9-0.1,5.7-0.3,8.6c0,0.5,0.3,1,0.9,1.1l0.4,0c0.5,0.1,1-0.3,1.1-0.8
		c0.7-4.8,1-9.6,1-14.5C187.2,102.8,186.8,97.6,186.1,92.5z M184.1,92.7L184.1,92.7c-1.9-9.7-5.1-19.2-9.8-27.8l0,0
		c-1.3-2-2.5-4.2-3.8-6.2l0,0l-2.1-2.9l0,0c-0.7-0.9-1.3-1.9-2.2-2.9l0,0l-2.4-2.8l0,0c-0.8-0.9-1.5-1.8-2.4-2.8l0,0l0,0l0,0l0,0
		c-1.6-1.8-3.4-3.5-5.1-5.2l0,0c-3.5-3.4-7.3-6.5-11.3-9.4l0,0c-1.7-1.2-3.4-2.4-5.2-3.5c1.9,0.9,3.8,1.8,5.6,2.8l0,0
		c2.2,1.2,4.2,2.5,6.3,4c2,1.4,4,3,5.9,4.6c7.6,6.5,13.4,14.9,17.9,23.8l0,0C179.8,73.3,182.6,82.9,184.1,92.7L184.1,92.7
		L184.1,92.7z"/>
	<path class="st16" d="M178.6,118.8c0.8,1.2,1.9,2,3.2,2.4c1.2,0.5,2.6,0.6,3.8,0.5c1.3-0.1,2.3-0.8,3.5-1.1
		c0.6-0.2,1.2-0.4,1.7-0.7c0.3-0.1,0.6-0.3,0.8-0.4c0.3-0.2,0.5-0.3,0.7-0.6l0.3-0.1c0.3,0.4,0.3,1,0.2,1.4
		c-0.1,0.5-0.3,0.9-0.6,1.2c-0.5,0.7-1.1,1.3-1.8,1.8c-0.7,0.5-1.5,0.8-2.3,0.9c-0.9,0.1-1.7,0.1-2.5,0c-1.6-0.2-3.2-0.7-4.5-1.6
		c-1.3-0.9-2.4-2.2-2.7-3.6L178.6,118.8z"/>
</g>
</svg>
