<?xml version="1.0" encoding="utf-8"?>
<!-- Generator: Adobe Illustrator 21.1.0, SVG Export Plug-In . SVG Version: 6.00 Build 0)  -->
<svg version="1.1" id="Layer_1" xmlns="http://www.w3.org/2000/svg" xmlns:xlink="http://www.w3.org/1999/xlink" x="0px" y="0px"
	 viewBox="0 0 365 325" style="enable-background:new 0 0 365 325;" xml:space="preserve">
<style type="text/css">
	.st0{fill:#4DBC9E;}
	.st1{fill:#D2EEE7;}
	.st2{fill:#3AB68F;}
	.st3{fill:#2D0E06;}
</style>
<g>
	<path class="st0" d="M83.6,268.8c-35.7-28.2-69.6-81.2-59.1-138C39.2,50.9,135.1-0.7,216.3,16.4c61.9,13,121.5,67.2,125.9,136.5
		c3.8,60.2-36.2,101.5-41.7,106.9c-14.6,14.6-35.2,14.2-56.4,13.9c-10.9-0.2-21.9-0.3-32.4,1.5C165.3,283.3,121.3,298.6,83.6,268.8"
		/>
	<path class="st1" d="M315.7,241.5c-1.5,2.1-2.9,4-4.3,5.8c0,0,0.1,0.1,0.1,0.1c1.7-2.1,3.2-4,4.4-5.5
		C315.8,241.7,315.7,241.6,315.7,241.5 M33,202.3c4.7,11.3,10.7,21.9,17.6,31.6h0C43.7,224.2,37.7,213.6,33,202.3 M27.9,117
		c-1.4,4.5-2.6,9.1-3.4,13.8c-1.3,7.1-1.9,14.2-1.9,21.2c0-7,0.6-14,1.9-21.2C25.4,126.1,26.5,121.5,27.9,117 M28,116.9
		c0,0,0,0.1,0,0.1C27.9,117,28,116.9,28,116.9 M28,116.9C28,116.9,28,116.9,28,116.9C28,116.9,28,116.9,28,116.9 M28,116.8
		C28,116.8,28,116.8,28,116.8C28,116.8,28,116.8,28,116.8 M28,116.7C28,116.7,28,116.7,28,116.7C28,116.7,28,116.7,28,116.7
		 M28,116.7C28,116.7,28,116.7,28,116.7C28,116.7,28,116.7,28,116.7 M28.1,116.6C28.1,116.6,28.1,116.6,28.1,116.6
		C28.1,116.6,28.1,116.6,28.1,116.6 M28.1,116.5C28.1,116.5,28.1,116.5,28.1,116.5C28.1,116.5,28.1,116.5,28.1,116.5"/>
	<path class="st2" d="M121.8,24.8c-43.5,16.5-80.2,49.4-93.7,91.8c0,0,0,0,0,0c0,0,0,0,0,0.1c0,0,0,0,0,0c0,0,0,0,0,0.1c0,0,0,0,0,0
		c0,0,0,0,0,0c0,0,0,0,0,0c0,0,0,0,0,0c0,0,0,0,0,0c0,0,0,0,0,0c0,0,0,0,0,0c0,0,0,0,0,0c0,0,0,0.1,0,0.1l0,0
		c-1.4,4.5-2.6,9.1-3.4,13.8c-1.3,7.1-1.9,14.2-1.9,21.2c0,17.6,3.9,34.6,10.4,50.3c4.7,11.3,10.7,21.9,17.6,31.6c0.3,0,0.7,0,1.1,0
		c9.4,0,21.2,4.2,32.7,6.2c9.8,1.7,18.3,2.2,25.8,2.2c4.9,0,9.4-0.2,13.5-0.4c3.5-0.2,6.4-0.4,9.2-0.7c13.8-1.6,23.8-3.9,27.3-4.7
		c22.3-5.4,48.5-11.8,77.7-11.8c3,0,6,0.1,9.1,0.2c10,0.5,17.3,0.8,27.1,3.6c10,2.9,26.2,9.4,37.4,18.8c1.4-1.8,2.8-3.7,4.3-5.8
		c-5.6-7.3-14.8-17.5-28.6-26c-14.1-8.7-28.9-12.2-45.7-15.1c-7.6-1.3-14.6-1.9-21.2-1.9c-15.3,0-28.1,3-41,6c-12.9,3-25.9,6-41.5,6
		c-9.6,0-20.2-1.1-32.4-4.1c-21.7-5.3-29.6-11.7-33.5-15.5c-25.2-24.4-20.8-71-10.5-98.5C71.9,64,94.2,40.7,121.8,24.8"/>
	<path class="st0" d="M323.7,268c-0.7-20.5-33.5-34.9-49.8-39.6c-9.8-2.8-17.1-3.2-27.1-3.6c-32.8-1.5-62.2,5.6-86.8,11.6
		c-3.4,0.8-13.4,3.1-27.3,4.7c-2.7,0.3-5.7,0.6-9.2,0.7c-10.5,0.5-23.1,1-39.4-1.8c-16.6-2.9-33.6-10.2-43.6-3.2
		c-0.6,0.5-1.2,1-1.2,1c-4.2,4.2-4.6,10-4.7,10.9c-0.3,5.9,3.1,10.4,4.5,12.2c6.3,8.4,34.3,25.4,87,27.2c15.6,0.5,26.3,0.3,34.9,0
		c15.9-0.5,24.8-0.9,45.1,3.6c30.4,6.8,34.5,21,56.9,20.1C292.4,310.6,324.5,288.4,323.7,268"/>
	<path class="st1" d="M263.3,311.9C263.3,311.9,263.3,311.9,263.3,311.9C263.3,311.9,263.3,311.9,263.3,311.9 M263.4,311.9
		C263.4,311.9,263.4,311.9,263.4,311.9C263.4,311.9,263.4,311.9,263.4,311.9 M263.4,311.9C263.4,311.9,263.4,311.9,263.4,311.9
		C263.4,311.9,263.4,311.9,263.4,311.9 M263.5,311.9C263.5,311.9,263.5,311.9,263.5,311.9C263.5,311.9,263.5,311.9,263.5,311.9
		 M263.5,311.8C263.5,311.8,263.5,311.8,263.5,311.8C263.5,311.8,263.5,311.8,263.5,311.8 M263.6,311.8
		C263.6,311.8,263.6,311.8,263.6,311.8C263.6,311.8,263.6,311.8,263.6,311.8 M263.7,311.8C263.6,311.8,263.6,311.8,263.7,311.8
		C263.6,311.8,263.6,311.8,263.7,311.8 M263.7,311.8C263.7,311.8,263.7,311.8,263.7,311.8C263.7,311.8,263.7,311.8,263.7,311.8
		 M263.7,311.8C263.7,311.8,263.7,311.8,263.7,311.8C263.7,311.8,263.7,311.8,263.7,311.8 M263.8,311.8
		C263.8,311.8,263.8,311.8,263.8,311.8C263.8,311.8,263.8,311.8,263.8,311.8 M263.8,311.8C263.8,311.8,263.8,311.8,263.8,311.8
		C263.8,311.8,263.8,311.8,263.8,311.8 M263.9,311.8C263.9,311.8,263.9,311.8,263.9,311.8C263.9,311.8,263.9,311.8,263.9,311.8
		 M264,311.8C263.9,311.8,263.9,311.8,264,311.8C263.9,311.8,263.9,311.8,264,311.8 M264,311.8C264,311.8,264,311.8,264,311.8
		C264,311.8,264,311.8,264,311.8 M264,311.8C264,311.8,264,311.8,264,311.8C264,311.8,264,311.8,264,311.8 M264.1,311.8
		C264.1,311.8,264.1,311.8,264.1,311.8C264.1,311.8,264.1,311.8,264.1,311.8 M264.2,311.8C264.1,311.8,264.1,311.8,264.2,311.8
		C264.1,311.8,264.1,311.8,264.2,311.8 M264.2,311.8C264.2,311.8,264.2,311.8,264.2,311.8C264.2,311.8,264.2,311.8,264.2,311.8
		 M264.3,311.8C264.2,311.8,264.2,311.8,264.3,311.8C264.2,311.8,264.2,311.8,264.3,311.8 M264.3,311.8
		C264.3,311.8,264.3,311.8,264.3,311.8C264.3,311.8,264.3,311.8,264.3,311.8 M264.3,311.8C264.3,311.8,264.3,311.8,264.3,311.8
		C264.3,311.8,264.3,311.8,264.3,311.8 M264.4,311.8C264.4,311.8,264.4,311.8,264.4,311.8C264.4,311.8,264.4,311.8,264.4,311.8
		 M264.4,311.8C264.4,311.8,264.4,311.8,264.4,311.8C264.4,311.8,264.4,311.8,264.4,311.8 M264.5,311.8
		C264.5,311.8,264.5,311.8,264.5,311.8C264.5,311.8,264.5,311.8,264.5,311.8 M264.5,311.8C264.5,311.8,264.5,311.8,264.5,311.8
		C264.5,311.8,264.5,311.8,264.5,311.8 M264.6,311.8C264.6,311.8,264.6,311.8,264.6,311.8C264.6,311.8,264.6,311.8,264.6,311.8
		 M264.6,311.8C264.6,311.8,264.6,311.8,264.6,311.8C264.6,311.8,264.6,311.8,264.6,311.8 M264.7,311.8L264.7,311.8L264.7,311.8
		 M264.8,311.8C264.8,311.8,264.8,311.8,264.8,311.8C264.8,311.8,264.8,311.8,264.8,311.8 M264.8,311.8
		C264.8,311.8,264.8,311.8,264.8,311.8C264.8,311.8,264.8,311.8,264.8,311.8 M39,260.5c0.1,0.2,0.2,0.3,0.4,0.5
		C39.2,260.8,39.1,260.6,39,260.5"/>
	<path class="st2" d="M36.2,255.6c0.9,2.1,2,3.8,2.8,4.8c0.1,0.2,0.2,0.3,0.4,0.5l0,0c6.3,8.4,34.3,25.4,87,27.2
		c6.8,0.2,12.7,0.3,17.9,0.3c6.7,0,12.2-0.1,17.1-0.3c4.9-0.1,9.1-0.3,13.1-0.3c9.3,0,17.9,0.7,32,3.9c29.4,6.6,34.2,20.1,54.8,20.1
		c0.7,0,1.4,0,2.1,0c0,0,0,0,0,0c0,0,0,0,0,0c0,0,0,0,0,0c0,0,0,0,0,0c0,0,0,0,0,0c0,0,0,0,0,0c0,0,0,0,0,0c0,0,0,0,0,0c0,0,0,0,0,0
		c0,0,0,0,0,0c0,0,0,0,0,0c0,0,0,0,0,0c0,0,0,0,0,0c0,0,0,0,0,0c0,0,0,0,0,0c0,0,0,0,0,0c0,0,0,0,0,0c0,0,0,0,0,0c0,0,0,0,0,0
		c0,0,0,0,0,0c0,0,0,0,0,0c0,0,0,0,0,0c0,0,0,0,0,0c0,0,0,0,0,0c0,0,0,0,0,0c0,0,0,0,0,0c0,0,0,0,0,0c0,0,0,0,0,0c0,0,0,0,0,0
		c0,0,0,0,0,0c0,0,0,0,0,0c0,0,0,0,0,0c0,0,0,0,0,0c0,0,0,0,0,0c0,0,0,0,0,0c0,0,0,0,0,0c0,0,0,0,0,0c0,0,0,0,0,0c0,0,0,0,0,0
		c0,0,0,0,0,0c0,0,0,0,0,0c0,0,0,0,0,0c0,0,0,0,0,0c0,0,0,0,0,0c0,0,0,0,0,0c0,0,0,0,0,0c0,0,0,0,0,0c0,0,0,0,0,0c0,0,0,0,0,0
		c0,0,0,0,0,0c0,0,0,0,0,0c0,0,0,0,0,0c0,0,0,0,0,0c0,0,0,0,0,0c0,0,0.1,0,0.1,0l0,0c0,0,0,0,0,0c0,0,0,0,0,0c0,0,0,0,0,0
		c0,0,0,0,0,0c16.7-1.1,34.1-9,45.6-19.3c-11.8-2.2-29.2-6.2-49.6-13.7c-21.3-7.9-27.9-13.1-42-15c-2.6-0.3-4.9-0.5-7.1-0.5
		c-15.5,0-21.8,8-46.9,12.5c-10.4,1.8-20.5,2.6-30.2,2.6c-35,0-64.2-10-77.8-14.6C48,260.7,40.8,257.7,36.2,255.6"/>
	<path class="st3" d="M177.4,44.8c0,0-11-4-12,0c-2.5,10.1,1,24,8,24c3.9,0,7-9,9.6-14.2C183.3,54,181.4,47.8,177.4,44.8z"/>
	<path class="st3" d="M249.4,104.8l-9,18c0,0,14,15,18,11s0-26,0-27S249.4,104.8,249.4,104.8z"/>
	<path class="st3" d="M24.2,148.2l4.8,6.6c0.8,1.1,2.4,1.4,3.5,0.6c3.9-2.6,11.7-8.1,10.9-9.6c-0.5-1-0.5-3.9-0.4-6.4
		c0.1-2-2-3.4-3.8-2.4l-14.2,7.4C23.7,145.1,23.2,146.9,24.2,148.2z"/>
	<path class="st3" d="M109.4,177.8c0,0-6,6-5,8s5,7,7,7s13-3,12-5S110.4,176.8,109.4,177.8z"/>
	<path class="st3" d="M336.4,200.8c0,0,6,7,4,7s-9,8-11,7s-8-5-8-7S334.4,198.8,336.4,200.8z"/>
	<path class="st3" d="M243.4,20.8c0,0-14,5-14,6s6,9,7,8s15-4,14-6S246.4,21.8,243.4,20.8z"/>
	<path class="st3" d="M110.4,236.8c0,0-14,1-14,3s1,5,3,6s13-6,13-7S111.4,236.8,110.4,236.8z"/>
	<path class="st3" d="M179.4,270.8c0,0-22,1.3-22,3.7c0,2.3,5,9.3,7,9.3s16-4,15-5S182.4,272.8,179.4,270.8z"/>
	<path class="st3" d="M269.4,241.8c0,0-11,7-11,9s11,8,11,8s3-7,3-9S272.4,242.8,269.4,241.8z"/>
</g>
</svg>
