<?xml version="1.0" encoding="utf-8"?>
<!-- Generator: Adobe Illustrator 21.1.0, SVG Export Plug-In . SVG Version: 6.00 Build 0)  -->
<svg version="1.1" id="Layer_1" xmlns="http://www.w3.org/2000/svg" xmlns:xlink="http://www.w3.org/1999/xlink" x="0px" y="0px"
	 viewBox="0 0 365 260" style="enable-background:new 0 0 365 260;" xml:space="preserve">
<style type="text/css">
	.st0{fill:#EFDFA3;}
	.st1{fill:#CBBE7A;}
	.st2{fill:#FF9200;}
	.st3{fill:#502012;}
	.st4{fill:#944000;}
	.st5{fill:#411307;}
	.st6{fill:#B26000;}
	.st7{fill:#D8AF80;}
	.st8{fill:#BE8F3A;}
</style>
<g>
	<path class="st0" d="M140.7,64.3c11.2-3.4,12.8-4.3,17.2-4.3c7.5,0,14.3,2.3,15.8,2.9c6.1,2.2,6.3,3.7,10,4.3
		c5.6,0.9,12.6-0.9,17.2-5.7c7-7.4,5-18.8,2.1-25.1c-4.3-9.6-13.5-13.4-20.8-16.5c-3.1-1.3-11.8-4.4-22.9-4.3
		c-23.5,0.2-49.2,21.4-48.7,40.1c0,1.1,0.3,9.7,5.7,12.9C118.8,70,121.8,70.1,140.7,64.3"/>
	<path class="st1" d="M114.3,56.3c2.8,1.6,5.5,2.9,8.3,3.3c1.4,0.2,2.8,0.3,4.1,0.1c1.3-0.2,2.7-0.6,4.1-1c2.9-0.9,6.1-1.6,9.1-2.6
		c3-1.1,5.9-2.3,8.7-3.7c1.4-0.7,2.9-1.4,4.4-2c1.5-0.6,3.1-1,4.7-1.4c1.6-0.4,3.3-0.6,5-0.7c1.7-0.1,3.3,0,4.9,0.2
		c1.6,0.2,3.3,0.4,4.9,0.9c1.6,0.5,3.3,1.1,4.8,2.3c2.9,2.4,4.2,5.7,4.4,9l-0.4,0.1c-0.7-1.4-1.6-2.7-2.6-3.8
		c-0.5-0.6-1-1.1-1.5-1.5c-0.6-0.5-1.1-0.9-1.7-1.1c-2.3-1.1-5.4-1.4-8.3-1.6c-1.5-0.1-3.1-0.2-4.5-0.2c-1.5,0-2.9,0-4.4,0.2
		c-1.5,0.2-2.9,0.5-4.5,0.8c-1.5,0.3-3,0.6-4.6,1c-3.1,0.7-6.1,1.6-9,2.9c-2.9,1.3-5.4,3.2-8.4,4.6c-1.5,0.7-3.1,1.3-4.9,1.4
		c-1.8,0.2-3.6-0.1-5.3-0.6c-3.3-1.1-6.1-3.3-7.8-6.1L114.3,56.3"/>
	<path class="st2" d="M149,50.8c10.7-1.6,21.1,3.1,23.4,4.1c4.7,2.1,19.3,8.7,20.6,19.3c2,15.7-26.6,29.2-31.6,31.6
		c-12.1,5.7-44,11-49.5,5.5C100.3,99.7,121.6,54.8,149,50.8"/>
	<path class="st3" d="M174.5,64c-3.2,4.5-6.9,8.5-10.8,12.3c-1.9,1.9-4,3.7-6,5.6c-2.1,1.8-4.2,3.5-6.3,5.2
		c-2.2,1.6-4.3,3.3-6.6,4.8c-2.3,1.5-4.5,3.1-6.8,4.5c-4.6,2.9-9.4,5.5-14.5,7.5l-0.2-0.2c9-5.9,17.7-12.3,26.2-19
		c8.5-6.6,16.8-13.6,24.7-20.9L174.5,64"/>
	<path class="st3" d="M164.2,66c-3.1,2.8-6.2,5.3-9.4,7.7c-1.6,1.3-3.2,2.4-4.7,3.6c-1.6,1.2-3.2,2.4-4.7,3.6
		c-1.6,1.1-3.2,2.4-4.8,3.5c-1.6,1.1-3.2,2.4-4.8,3.5c-3.2,2.4-6.5,4.7-10,6.9l-0.2-0.2c5.5-5.9,11.6-11.3,18-16.2
		c6.5-4.8,13.4-9.1,20.5-12.8L164.2,66"/>
	<path class="st3" d="M157.3,59.2c-2.2,2.6-4.6,4.9-6.9,7.1c-1.1,1.1-2.4,2.2-3.5,3.3c-1.2,1.1-2.4,2.1-3.5,3.2
		c-1.2,1-2.4,2.1-3.6,3.2c-1.2,1-2.4,2.1-3.6,3.2c-2.4,2.1-4.9,4.2-7.7,6.2l-0.2-0.2c1.9-2.6,4-5.2,6.2-7.6c2.2-2.4,4.5-4.7,6.9-7
		c4.9-4.4,10.1-8.3,15.8-11.6L157.3,59.2"/>
	<path class="st3" d="M151.8,57.8c-3.6,2.3-6.9,4.5-10.1,6.8c-1.6,1.2-3.2,2.4-4.6,3.7c-1.5,1.2-3,2.5-4.4,3.9
		c-2.8,2.7-5.4,5.6-7.9,8.7c-2.5,3.1-4.8,6.4-7.2,9.8l-0.3-0.1c1.4-3.9,3.3-7.6,5.5-11c2.2-3.5,4.9-6.7,7.8-9.6
		c3-2.8,6.3-5.4,9.9-7.4c3.6-2.1,7.3-3.8,11.3-5.1L151.8,57.8"/>
	<path class="st3" d="M182.1,72.9c-2,4.5-4.9,8.6-8.2,12.2c-1.6,1.9-3.4,3.5-5.3,5.2c-1.9,1.6-3.9,3.1-5.9,4.5
		c-2.1,1.4-4.2,2.6-6.4,3.8c-2.2,1.1-4.4,2.2-6.8,3c-4.6,1.7-9.5,2.8-14.4,3l-0.1-0.3c9.2-2.5,18-6.6,25.9-12
		c7.9-5.3,15-12,20.8-19.6L182.1,72.9"/>
	<path class="st4" d="M135.3,104.6l-0.1-0.3c9.2-2.5,18-6.6,25.9-12c7.9-5.3,15-12,20.8-19.6l0.2,0.2c-2,4.5-4.9,8.6-8.2,12.2
		c-1.6,1.9-3.4,3.5-5.3,5.2c-1.9,1.6-3.9,3.1-5.9,4.5c-2.1,1.4-4.2,2.6-6.4,3.8c-2.2,1.1-4.4,2.2-6.8,3
		C145,103.2,140.2,104.4,135.3,104.6 M125.7,94.9l-0.2-0.2c5.5-5.9,11.6-11.3,18-16.2c6.5-4.8,13.4-9.1,20.5-12.8l0.1,0.3
		c-3.1,2.8-6.2,5.3-9.4,7.7c-1.6,1.3-3.2,2.4-4.7,3.6c-1.6,1.2-3.2,2.4-4.7,3.6c-1.6,1.1-3.2,2.4-4.8,3.5c-1.6,1.1-3.2,2.4-4.8,3.5
		C132.5,90.4,129.3,92.7,125.7,94.9 M123.6,103.9l-0.2-0.2c9-5.9,17.7-12.3,26.2-19c8.5-6.6,16.8-13.6,24.7-20.9l0.2,0.2
		c-3.2,4.5-6.9,8.5-10.8,12.3c-1.9,1.9-4,3.7-6,5.6c-2.1,1.8-4.2,3.5-6.3,5.2c-2.2,1.6-4.3,3.3-6.6,4.8c-2.3,1.5-4.5,3.1-6.8,4.5
		C133.5,99.2,128.7,101.8,123.6,103.9 M128.5,85.3l-0.2-0.2c1.9-2.6,4-5.2,6.2-7.6c2.2-2.4,4.5-4.7,6.9-7
		c4.9-4.4,10.1-8.3,15.8-11.6l0.2,0.3c-2.2,2.6-4.6,4.9-6.9,7.1c-1.1,1.1-2.4,2.2-3.5,3.3c-1.2,1.1-2.4,2.1-3.5,3.2
		c-1.2,1-2.4,2.1-3.6,3.2c-1.2,1-2.4,2.1-3.6,3.2C133.8,81.2,131.3,83.3,128.5,85.3 M117.5,90.7l-0.3-0.1c1.4-3.9,3.3-7.6,5.5-11
		c2.2-3.5,4.9-6.7,7.8-9.6c3-2.8,6.3-5.4,9.9-7.4c3.6-2.1,7.3-3.8,11.3-5.1l0.1,0.3c-3.6,2.3-6.9,4.5-10.1,6.8
		c-1.6,1.2-3.2,2.4-4.6,3.7c-1.5,1.2-3,2.5-4.4,3.9c-2.8,2.7-5.4,5.6-7.9,8.7C122.2,84,119.9,87.3,117.5,90.7 M153.5,50.5
		c-1.5,0-3,0.1-4.6,0.3c-22.2,3.3-40.3,33.3-40.4,50.7c0,4.1,1,7.6,3.2,9.8c1.6,1.6,5.6,2.3,10.7,2.3c12,0,30.3-3.8,38.8-7.8
		c4.9-2.3,31.8-15.1,31.7-30.1c0-0.5,0-1-0.1-1.6c-0.8-6.2-6.1-11-11.4-14.4c-0.5-0.3-0.9-0.6-1.4-0.8c-3.2-1.9-6.2-3.3-7.9-4.1
		C170.5,54,162.5,50.5,153.5,50.5"/>
	<path class="st5" d="M174.3,63.7c-7.9,7.3-16.2,14.3-24.7,20.9c-8.5,6.7-17.2,13-26.2,19l0.2,0.2c5.1-2.1,9.9-4.7,14.5-7.5
		c2.3-1.4,4.6-3,6.8-4.5c2.2-1.6,4.4-3.2,6.6-4.8c2.1-1.7,4.2-3.4,6.3-5.2c2-1.8,4.1-3.6,6-5.6c3.9-3.8,7.6-7.8,10.8-12.3
		L174.3,63.7"/>
	<path class="st5" d="M164.1,65.8c-7.2,3.7-14.1,8-20.5,12.8c-6.4,4.9-12.5,10.3-18,16.2l0.2,0.2c3.5-2.2,6.8-4.5,10-6.9
		c1.6-1.1,3.2-2.4,4.8-3.5c1.6-1.2,3.2-2.4,4.8-3.5c1.6-1.2,3.2-2.4,4.7-3.6c1.6-1.2,3.2-2.4,4.7-3.6c3.2-2.4,6.3-4.9,9.4-7.7
		L164.1,65.8"/>
	<path class="st5" d="M157.2,58.9c-5.7,3.3-10.9,7.3-15.8,11.6c-2.4,2.2-4.7,4.5-6.9,7c-2.2,2.4-4.3,5-6.2,7.6l0.2,0.2
		c2.8-2,5.3-4.1,7.7-6.2c1.3-1,2.4-2.1,3.6-3.2c1.2-1.1,2.3-2.2,3.6-3.2c1.2-1.1,2.3-2.2,3.5-3.2c1.1-1.1,2.4-2.1,3.5-3.3
		c2.3-2.2,4.7-4.5,6.9-7.1L157.2,58.9"/>
	<path class="st5" d="M151.7,57.5c-3.9,1.3-7.7,3-11.3,5.1c-3.6,2.1-6.9,4.6-9.9,7.4c-3,2.9-5.6,6.1-7.8,9.6
		c-2.3,3.5-4.1,7.2-5.5,11l0.3,0.1c2.4-3.5,4.7-6.8,7.2-9.8c2.5-3.1,5.1-6,7.9-8.7c1.4-1.4,2.9-2.7,4.4-3.9c1.5-1.3,3.1-2.4,4.6-3.7
		c3.2-2.3,6.6-4.5,10.1-6.8L151.7,57.5"/>
	<path class="st5" d="M181.9,72.7c-5.8,7.6-12.8,14.3-20.8,19.6c-7.9,5.4-16.7,9.5-25.9,12l0.1,0.3c4.9-0.2,9.7-1.4,14.4-3
		c2.3-0.8,4.6-1.9,6.8-3c2.2-1.1,4.3-2.4,6.4-3.8c2-1.4,4-2.9,5.9-4.5c1.8-1.7,3.7-3.3,5.3-5.2c3.3-3.7,6.1-7.7,8.2-12.2L181.9,72.7
		"/>
	<path class="st6" d="M122.5,129.3c-17-10.1-19.3-11.6-24.3-12c-8.4-0.7-18.7,2.1-20.7,6.5c-0.9,2,0.1,3.9,1.3,6
		c0.2,0.3,0.4,0.6,0.5,0.9c-5.8,1.5-8.2,3.6-9.2,5.3c-1.5,2.5-0.5,4.6-2.3,9.3c-0.3,0.8-0.7,2.9-1,2.3c0,0,0,0.1,0.2,0.2
		c-3-0.1-6.5,0.8-8.3,2.6c-2.4,2.4-1.7,6.4,0,11.9c5.5,17.3,16,31.4,17.9,33.8c23.7,31.1,31.2,40.5,58.4,47.7
		c1.5,0.4,13.3,3.1,13.9-5.7c0.5-6.8-6-13.4-15.9-22.2c1.7,0,1.5-2.9,2.8-4.1c3.4-3.1,7.5-2.5,11.1-3.5c3.7-1.1,7.8-4.1,9.7-12.5
		l0,0c10.1,4.4,15.9,5.1,18.7,3c4.3-3.2,0.7-11.6-3.3-20.8c-3.5-8.1-7.6-17.4-17.3-27.3C149.7,145.4,146.7,143.7,122.5,129.3z"/>
	<path class="st3" d="M148.9,238c-0.1-3.2-1.6-6.1-3.5-8.5c-1.9-2.4-4.2-4.6-6.5-6.7c-2.4-2.1-4.7-4.2-7.2-6.2l-7.2-6.2
		c-2.4-2.1-4.8-4.3-7.1-6.5c-2.3-2.2-4.6-4.5-6.7-6.8c-4.4-4.7-8.4-9.7-11.8-15.1c4.4,4.6,8.9,9.1,13.5,13.4c2.3,2.1,4.6,4.3,7,6.4
		c2.3,2.1,4.7,4.2,7.1,6.3c4.7,4.2,9.6,8.3,14.1,13c2.2,2.3,4.4,4.8,6.1,7.6c0.8,1.4,1.6,2.9,2,4.5C149,234.8,149.2,236.5,148.9,238
		z"/>
	<path class="st3" d="M71.6,149.1c-1.3-0.2-2.3-0.1-3.4,0c-1,0.1-2.1,0.2-3.1,0.3c-1,0.1-2.1,0.2-3.1,0.4c-1.1,0.2-2.1,0.3-3.3,0.6
		c0.4-1.3,1.4-2.2,2.5-2.8c1.1-0.6,2.3-1,3.6-1.2c1.2-0.1,2.5,0,3.8,0.4C69.8,147.1,71,147.9,71.6,149.1z"/>
	<path class="st3" d="M77.5,123.8c-0.5,1.3-0.2,2.7,0.4,3.8c0.6,1.2,1.4,2.3,2.2,3.4c1.5,2.2,3.1,4.4,4.7,6.5
		c3.2,4.3,6.7,8.4,10.4,12.1l5.9,5.4c2,1.8,4,3.6,6,5.3c4,3.5,8.1,7,12.3,10.4c4.2,3.4,8.4,6.7,12.8,9.7c4.3,3.1,8.8,6,13.5,8.6
		c2.3,1.3,4.7,2.6,7.1,3.8c2.4,1.2,4.8,2.4,7.3,3.4c2.4,1.1,5,2,7.5,2.7c1.3,0.3,2.6,0.6,3.9,0.6c1.3,0,2.7-0.2,3.8-0.9
		c-1.1,0.9-2.4,1.2-3.8,1.4c-1.4,0.1-2.8,0-4.1-0.2c-2.7-0.4-5.3-1.2-7.9-2.1c-5.1-1.8-10.1-4-14.9-6.5c-4.9-2.4-9.5-5.3-14-8.4
		c-4.5-3.1-8.8-6.4-13-9.8c-8.4-6.9-16.4-14.1-24-21.9c-3.7-4-7-8.4-10-12.9c-1.5-2.3-2.9-4.6-4.2-7c-0.6-1.2-1.3-2.3-1.9-3.6
		C77,126.6,76.9,125,77.5,123.8z"/>
	<path class="st3" d="M93.2,126.8c4.7,2,9.1,4.4,13.4,7.1c2.2,1.3,4.2,2.8,6.3,4.2c2,1.5,4,3,6,4.6c1.9,1.6,3.9,3.2,5.7,4.9
		c1.8,1.7,3.7,3.4,5.5,5.2c3.5,3.6,6.9,7.4,9.9,11.4c-3.9-3.2-7.7-6.5-11.5-9.7c-1.9-1.6-3.8-3.2-5.7-4.8c-1.9-1.6-3.8-3.2-5.8-4.7
		c-1.9-1.6-3.9-3.1-5.8-4.7c-1.9-1.6-3.9-3-5.9-4.6L93.2,126.8z"/>
	<path class="st3" d="M76.3,145.6c4.3,4.4,8.6,8.7,13,13c4.4,4.2,8.8,8.4,13.4,12.4c2.2,2.1,4.5,4.1,6.8,6.1c2.3,2,4.6,4,6.9,6
		c4.6,4,9.3,7.9,13.9,12.1c-5.3-3.1-10.4-6.6-15.3-10.2c-2.5-1.8-4.9-3.7-7.3-5.7c-2.4-2-4.7-4-7-6c-2.3-2.1-4.5-4.2-6.7-6.3
		c-2.2-2.2-4.3-4.4-6.4-6.7C83.5,155.6,79.6,150.8,76.3,145.6z"/>
	<path class="st3" d="M71.7,178.1c2.9,3.4,5.8,6.8,8.7,10.1c1.5,1.6,2.9,3.3,4.5,4.9c1.5,1.6,3,3.2,4.6,4.8c3.1,3.1,6.2,6.2,9.4,9.3
		c3.2,3.1,6.5,6.1,9.7,9.2c-3.9-2.1-7.7-4.7-11.2-7.4c-3.5-2.8-6.9-5.7-10-8.9c-3.1-3.2-6.1-6.6-8.7-10.3
		C76,186,73.6,182.2,71.7,178.1z"/>
	<path class="st6" d="M256.7,70c-1.4-24.1-1.5-27.8-5.2-32.7c-6.4-8.5-19-14.3-25.8-10.3c-3,1.8-4.1,5.1-5.2,8.6
		c-0.2,0.5-0.3,1-0.4,1.5c-6.6-3.2-10.7-2.7-13.3-1.5c-3.6,1.7-4.6,4.9-10.3,8.6c-1,0.6-3,2.6-2.8,1.6c0,0,0,0.1,0,0.3
		c-2.5-2.5-6.3-4.2-9.2-3.7c-3.9,0.7-6.2,5.4-8.6,12c-6.6,18.7-6.9,35.2-6.9,37.8c-0.2,28.8,0,36.1,12,49.8
		c0.6,0.7,5.7,6.1,10.3,3.4c3.8-2.2,3.7-7.2,2.9-15c1,0.7,2.5-0.6,4-0.5c3.8,0.2,5.9,2.3,8.6,3.4c2.8,1.2,7.1,1.7,13.7-1v0
		c2.8,6.4,5.5,9.2,8.6,9.6c4.7,0.6,8.9-4.4,13.8-10.3c4.6-5.6,10.4-12.7,13.8-24.1C258.7,101.3,258.3,98.2,256.7,70z"/>
	<path class="st3" d="M191.4,145.7c0.8-0.7,1.5-1.5,1.9-2.4c0.4-0.9,0.5-1.9,0.6-2.9c0.1-2-0.2-4.1-0.4-6.2l-0.9-6.3
		c-0.3-2.1-0.5-4.2-0.8-6.4c-0.4-4.3-0.6-8.6-0.4-12.9c0.2-4.3,0.7-8.6,1.8-12.8c0.2,4.3,0.3,8.5,0.6,12.7c0.3,4.2,0.6,8.4,1,12.6
		c0.4,4.2,0.9,8.4,1,12.8c0,2.2,0,4.4-0.5,6.6c-0.3,1.1-0.6,2.2-1.3,3.1C193.4,144.6,192.4,145.3,191.4,145.7z"/>
	<path class="st3" d="M196.6,51.1c-0.8-1.2-1.7-2.1-2.6-2.9c-0.9-0.8-1.9-1.5-2.8-2.2c-1-0.7-2-1.3-3.1-1.9
		c-1.1-0.6-2.2-1.1-3.6-1.5c1.2-0.8,2.9-0.9,4.3-0.7c1.5,0.3,2.8,0.9,4,1.7c1.2,0.9,2.2,1.9,3,3.2C196.6,48.1,197,49.7,196.6,51.1z"
		/>
	<path class="st3" d="M225.8,27.1c-2.2,1.4-3.3,3.8-4,6.2c-0.7,2.4-1.3,4.9-1.8,7.4c-1.2,4.9-2.2,9.9-3.1,14.9c-0.8,5-1.6,10-1.8,15
		c-0.1,5.1-0.2,10.2-0.2,15.2c0,5.1,0.1,10.1,0.4,15.2c0.2,5.1,0.7,10.1,1.4,15.1c0.8,5,2,9.8,3.8,14.6c0.9,2.4,1.8,4.7,3.1,6.9
		c0.6,1.1,1.4,2.1,2.3,2.9c0.9,0.9,2,1.5,3.3,1.8c-1.3-0.1-2.5-0.6-3.6-1.4c-1-0.8-1.9-1.8-2.7-2.8c-1.5-2.1-2.7-4.4-3.8-6.8
		c-1-2.3-2-4.7-2.8-7.2c-0.8-2.5-1.4-5-1.9-7.5c-2-10.1-2.4-20.4-2.5-30.7c0-5.1,0.1-10.2,0.3-15.3c0.1-2.7,0.5-5.2,0.9-7.7
		c0.4-2.5,0.9-5.1,1.4-7.6c1.1-5,2.4-10,3.9-14.9c0.4-1.2,0.8-2.4,1.2-3.6c0.4-1.2,0.8-2.4,1.3-3.6c0.5-1.2,1.1-2.4,1.8-3.4
		C223.7,28.5,224.7,27.6,225.8,27.1z"/>
	<path class="st3" d="M236.1,44.2c1.3,5.2,2.2,10.5,2.7,15.8c0.3,2.7,0.4,5.3,0.5,8c0.1,2.7,0.1,5.4,0,8c-0.1,2.7-0.2,5.4-0.5,8
		c-0.3,2.7-0.5,5.3-1,8c-0.8,5.3-1.9,10.6-3.5,15.7l1.2-15.9c0.1-2.6,0.4-5.3,0.5-7.9c0.1-2.6,0.2-5.3,0.3-7.9
		c0.1-2.6,0.1-5.3,0.1-7.9c0-2.6,0-5.3,0-7.9C236.4,54.9,236.2,49.6,236.1,44.2z"/>
	<path class="st3" d="M207.6,45.5c-0.9,2.9-1.8,5.8-2.7,8.7c-0.9,2.9-1.4,5.9-1.5,8.9c-0.2,5.9-0.3,10.6-0.3,13.8
		c0,3.7,0.1,7.8,0.1,8.6c0,2.9,0.2,5.7,0.3,8.6c0.1,2.9,0.3,5.7,0.4,8.6l1.1,17.2c-1.6-5.6-2.7-11.2-3.5-17
		c-0.4-2.9-0.7-5.7-0.9-8.6c-0.2-2.9-0.4-5.8-0.5-8.7c-0.1-3.2,0-5.5,0-8.7c0.2-9.5,0.3-14.2,0.3-14.5
		C201.1,58.4,202.6,52.4,207.6,45.5z"/>
	<path class="st3" d="M176,76.9c0.2,3.7,0.3,7.3,0.4,10.8c0.2,3.6,0.4,7.1,0.7,10.7c0.3,3.6,0.6,7.1,1.1,10.7
		c0.4,3.6,0.9,7.1,1.3,10.8c-1.6-3.3-2.7-6.8-3.6-10.4c-0.9-3.6-1.4-7.2-1.7-10.8c-0.3-3.7-0.3-7.3,0-11
		C174.3,84.1,174.9,80.4,176,76.9z"/>
	<path class="st0" d="M230.3,106.2c-0.1,0.6-2.2,8.8,2.5,16.1c6.6,10.5,21.7,10.9,30.4,11.2c8.5,0.3,27.9,0.9,44.1-13.7
		c14.3-12.8,22.5-34.4,16.8-53.4c-3.3-11.1-11.9-23-23.6-26.7c-1.9-0.6-9.3-2.9-13,0.6c-2,1.8-2,4.4-1.9,11.8
		c0.2,17.8,0.5,20-0.6,23.6c-0.5,1.7-2.9,9.1-9.3,13c-9.8,5.9-17.7-3.1-30.4,1.9C244,91.1,233.1,95.6,230.3,106.2z"/>
	<path class="st1" d="M234.2,105.8c1.6-3.2,4.1-6,7.1-8.3c1.5-1.1,3.1-2,4.9-2.8c0.4-0.2,0.9-0.4,1.3-0.5c0.5-0.1,0.9-0.3,1.4-0.4
		c0.5-0.1,0.9-0.2,1.4-0.3c0.5-0.1,0.9-0.1,1.4-0.2c3.8-0.4,7.4,0.4,10.9,1.2c3.5,0.7,6.9,1.6,10.4,2c0.9,0.1,1.7,0.2,2.6,0.2
		l1.3,0.1l1.2,0c0.8,0,1.6-0.1,2.4-0.2c0.4-0.1,0.7-0.2,1.1-0.3c0.4-0.1,0.7-0.2,1.1-0.3c2.9-1,5-3.3,6.8-5.9
		c0.9-1.3,1.6-2.8,2.4-4.3c0.3-0.8,0.7-1.5,1-2.3c0.3-0.8,0.7-1.6,0.9-2.4c1.2-3.2,2.1-6.6,3.2-10l0.4,0c0.3,3.6,0,7.2-0.6,10.8
		c-0.6,3.6-1.7,7.2-3.7,10.5c-1,1.6-2.3,3.2-3.9,4.4c-0.8,0.6-1.6,1.2-2.5,1.7c-0.9,0.5-1.9,0.8-2.8,1.1c-0.5,0.2-1,0.2-1.5,0.3
		c-0.5,0.1-1,0.2-1.5,0.2c-1,0-2,0.1-2.9-0.1l-1.4-0.2l-1.4-0.3c-0.9-0.2-1.8-0.5-2.6-0.8c-3.4-1.2-6.7-2.4-10.2-2.9
		c-3.5-0.5-6.9,0-10.1,0.8c-0.4,0.1-0.8,0.2-1.2,0.3c-0.4,0.1-0.8,0.3-1.2,0.4c-0.4,0.1-0.8,0.2-1.2,0.3l-1.2,0.4
		c-1.5,0.6-3,1.3-4.5,2.1c-3,1.6-5.7,3.7-8.5,5.9L234.2,105.8z"/>
	<path class="st1" d="M217.6,167.9c7.3-9.5,19.7-10.7,30.9-11.6c6.9-0.6,34.8-2.9,38.7,7.7c2.5,6.9-6.3,15.9-9.7,19.3
		c-15.1,15.5-41.7,21.4-56.1,11.6c-1.8-1.2-6.1-4.2-7.7-9.7C211.2,177.1,216.5,169.3,217.6,167.9"/>
	<path class="st7" d="M213.7,185.3l-0.1,0.1c0.1,0.2,0.2,0.4,0.3,0.6C213.9,185.7,213.8,185.5,213.7,185.3 M287.3,164l-0.1,0
		c0.1,0.3,0.2,0.5,0.2,0.8C287.4,164.5,287.4,164.2,287.3,164"/>
	<path class="st8" d="M287.2,164l-0.1,0c0.2,1.7-0.7,3.2-1.8,4.5c-1.1,1.3-2.4,2.4-3.7,3.4c-1.4,1-2.8,2-4.2,3
		c-1.4,1-2.8,1.8-4.4,2.6c-3,1.5-6.2,2.7-9.5,3.7c-3.3,1-6.6,1.8-9.9,2.4c-6.7,1.3-13.5,1.8-20.3,2.7c-3.4,0.4-6.8,0.9-10.1,1.1
		c-0.7,0-1.5,0.1-2.2,0.1c-0.9,0-1.9-0.1-2.8-0.2c-1.6-0.2-3.1-0.9-4.3-2.1l-0.1,0.1c0.1,0.2,0.1,0.4,0.2,0.7
		c0.9,1.3,2.3,2.2,3.9,2.7c1.7,0.6,3.5,0.8,5.3,0.9c1,0.1,1.9,0.1,2.9,0.1c2.5,0,5.1-0.2,7.6-0.3c1.7-0.1,3.4-0.3,5.2-0.5l5.2-0.7
		c3.4-0.6,6.8-1.3,10.2-2.1c3.4-0.8,6.7-1.7,10-2.9c3.3-1.2,6.5-2.5,9.6-4.2c1.5-0.9,3-1.8,4.4-2.9c1.4-1.1,2.7-2.1,4-3.3
		c1.3-1.1,2.6-2.3,3.7-3.7c0.5-0.7,1-1.5,1.3-2.3c0.2-0.6,0.3-1.2,0.3-1.8C287.4,164.5,287.3,164.2,287.2,164"/>
	<path class="st8" d="M266.4,169.8L266.4,169.8L266.4,169.8L266.4,169.8 M255.9,164.4c-1.6,0-3.3,0.2-4.9,0.5c-4,0.8-7.7,2.6-11.2,4
		c-7.1,2.9-14.6,5.1-22.3,6.7c7.8-0.4,15.6-1.9,23.1-4.5c3.7-1.3,7.3-2.9,10.9-3.4c1.3-0.2,2.7-0.4,4-0.4c2.3,0,4.6,0.3,6.9,1
		c0.9,0.2,1.8,0.5,2.5,0.9c0.4,0.2,0.7,0.4,1,0.6c0.1,0.1,0.2,0.2,0.3,0.2l-0.1,0.1c-0.2,0.2-0.5,0.5-0.8,0.7
		c-0.7,0.5-1.5,0.9-2.3,1.3c-3.4,1.5-7.2,2.5-10.9,3.4c-5.6,1.3-11.3,1.9-17,1.9c-2,0-4-0.1-6-0.2c4.2,1,8.6,1.5,13,1.5
		c3.5,0,7-0.3,10.5-0.9c2-0.3,3.9-0.7,5.8-1.2c1.9-0.5,3.8-1.1,5.7-1.8c1-0.4,1.9-0.8,2.8-1.5c0.5-0.3,0.9-0.7,1.4-1.2
		c0.2-0.3,0.5-0.6,0.6-1c0.2-0.4,0.3-1,0.2-1.6c-0.3-1.1-0.9-1.6-1.4-2c-0.5-0.4-1-0.7-1.5-0.9c-1-0.5-2-0.8-3-1.1
		C260.9,164.7,258.4,164.4,255.9,164.4"/>
	<path class="st1" d="M76.8,76c-11.9,1.2-20.3,6.7-22,7.8c-7.7,5.2-15.2,10.3-15.7,18.8c-0.4,6.2,3.1,12.3,7.8,15.7
		c9.9,7,23.2,0.2,26.7-1.6c9.7-4.9,18.8-15.2,18.8-26.7c0-2,0-9-4.7-12.5C86.8,76.9,84.3,75.3,76.8,76"/>
	<path class="st8" d="M72.6,81.5c-2.9,0.4-5.7,1.3-8.3,2.5c-2.6,1.2-5.1,2.8-7.4,4.6c-2.3,1.8-4.3,3.9-6.1,6.3
		c-1.7,2.3-3.2,4.8-4.2,7.6c2-2.1,4-4.1,6-6c2-1.9,4.1-3.8,6.2-5.5c2.1-1.7,4.4-3.4,6.7-4.9C67.8,84.5,70.2,83,72.6,81.5"/>
</g>
</svg>
