<?xml version="1.0" encoding="utf-8"?>
<!-- Generator: Adobe Illustrator 21.1.0, SVG Export Plug-In . SVG Version: 6.00 Build 0)  -->
<svg version="1.1" id="Layer_1" xmlns="http://www.w3.org/2000/svg" xmlns:xlink="http://www.w3.org/1999/xlink" x="0px" y="0px"
	 viewBox="0 0 337 242" style="enable-background:new 0 0 337 242;" xml:space="preserve">
<style type="text/css">
	.st0{fill:#EFE0A3;}
	.st1{fill:#CBBF7A;}
	.st2{fill:#FE9000;}
	.st3{fill:#502419;}
	.st4{fill:#924000;}
	.st5{fill:#421810;}
	.st6{fill:#B05F00;}
	.st7{fill:#D7AF7F;}
	.st8{fill:#BD8F3D;}
</style>
<g>
	<path class="st0" d="M126.7,55.3c11.2-3.4,12.8-4.3,17.2-4.3c7.5,0,14.3,2.3,15.8,2.9c6.1,2.2,6.3,3.7,10,4.3
		c5.6,0.9,12.6-0.9,17.2-5.7c7-7.4,5-18.8,2.1-25.1c-4.3-9.6-13.5-13.4-20.8-16.5c-3.1-1.3-11.8-4.4-22.9-4.3
		C121.9,6.8,96.2,28,96.6,46.7c0,1.1,0.3,9.7,5.7,12.9C104.8,61,107.8,61.1,126.7,55.3"/>
	<path class="st1" d="M100.3,47.3c2.8,1.6,5.5,2.9,8.3,3.3c1.4,0.2,2.8,0.3,4.1,0.1c1.3-0.2,2.7-0.6,4.1-1c2.9-0.9,6.1-1.6,9.1-2.6
		c3-1.1,5.9-2.3,8.7-3.7c1.4-0.7,2.9-1.4,4.4-2c1.5-0.6,3.1-1,4.7-1.4c1.6-0.4,3.3-0.6,5-0.7c1.7-0.1,3.3,0,4.9,0.2
		c1.6,0.2,3.3,0.4,4.9,0.9c1.6,0.5,3.3,1.1,4.8,2.3c2.9,2.4,4.2,5.7,4.4,9l-0.4,0.1c-0.7-1.4-1.6-2.7-2.6-3.8
		c-0.5-0.6-1-1.1-1.5-1.5c-0.6-0.5-1.1-0.9-1.7-1.1c-2.3-1.1-5.4-1.4-8.3-1.6c-1.5-0.1-3.1-0.2-4.5-0.2c-1.5,0-2.9,0-4.4,0.2
		c-1.5,0.2-2.9,0.5-4.5,0.8c-1.5,0.3-3,0.6-4.6,1c-3.1,0.7-6.1,1.6-9,2.9c-2.9,1.3-5.4,3.2-8.4,4.6c-1.5,0.7-3.1,1.3-4.9,1.4
		c-1.8,0.2-3.6-0.1-5.3-0.6c-3.3-1.1-6.1-3.3-7.8-6.1L100.3,47.3"/>
	<path class="st2" d="M135,41.8c10.7-1.6,21.1,3.1,23.4,4.1c4.7,2.1,19.3,8.7,20.6,19.3c2,15.7-26.6,29.2-31.6,31.6
		c-12.1,5.7-44,11-49.5,5.5C86.3,90.7,107.6,45.8,135,41.8"/>
	<path class="st3" d="M160.5,55c-3.2,4.5-6.9,8.5-10.8,12.3c-1.9,1.9-4,3.7-6,5.6c-2.1,1.8-4.2,3.5-6.3,5.2
		c-2.2,1.6-4.3,3.3-6.6,4.8c-2.3,1.5-4.5,3.1-6.8,4.5c-4.6,2.9-9.4,5.5-14.5,7.5l-0.2-0.2c9-5.9,17.7-12.3,26.2-19
		c8.5-6.6,16.8-13.6,24.7-20.9L160.5,55"/>
	<path class="st3" d="M150.2,57c-3.1,2.8-6.2,5.3-9.4,7.7c-1.6,1.3-3.2,2.4-4.7,3.6c-1.6,1.2-3.2,2.4-4.7,3.6
		c-1.6,1.1-3.2,2.4-4.8,3.5c-1.6,1.1-3.2,2.4-4.8,3.5c-3.2,2.4-6.5,4.7-10,6.9l-0.2-0.2c5.5-5.9,11.6-11.3,18-16.2
		c6.5-4.8,13.4-9.1,20.5-12.8L150.2,57"/>
	<path class="st3" d="M143.3,50.2c-2.2,2.6-4.6,4.9-6.9,7.1c-1.1,1.1-2.4,2.2-3.5,3.3c-1.2,1.1-2.4,2.1-3.5,3.2
		c-1.2,1-2.4,2.1-3.6,3.2c-1.2,1-2.4,2.1-3.6,3.2c-2.4,2.1-4.9,4.2-7.7,6.2l-0.2-0.2c1.9-2.6,4-5.2,6.2-7.6c2.2-2.4,4.5-4.7,6.9-7
		c4.9-4.4,10.1-8.3,15.8-11.6L143.3,50.2"/>
	<path class="st3" d="M137.8,48.8c-3.6,2.3-6.9,4.5-10.1,6.8c-1.6,1.2-3.2,2.4-4.6,3.7c-1.5,1.2-3,2.5-4.4,3.9
		c-2.8,2.7-5.4,5.6-7.9,8.7c-2.5,3.1-4.8,6.4-7.2,9.8l-0.3-0.1c1.4-3.9,3.3-7.6,5.5-11c2.2-3.5,4.9-6.7,7.8-9.6
		c3-2.8,6.3-5.4,9.9-7.4c3.6-2.1,7.3-3.8,11.3-5.1L137.8,48.8"/>
	<path class="st3" d="M168.1,63.9c-2,4.5-4.9,8.6-8.2,12.2c-1.6,1.9-3.4,3.5-5.3,5.2c-1.9,1.6-3.9,3.1-5.9,4.5
		c-2.1,1.4-4.2,2.6-6.4,3.8c-2.2,1.1-4.4,2.2-6.8,3c-4.6,1.7-9.5,2.8-14.4,3l-0.1-0.3c9.2-2.5,18-6.6,25.9-12
		c7.9-5.3,15-12,20.8-19.6L168.1,63.9"/>
	<path class="st4" d="M121.3,95.6l-0.1-0.3c9.2-2.5,18-6.6,25.9-12c7.9-5.3,15-12,20.8-19.6l0.2,0.2c-2,4.5-4.9,8.6-8.2,12.2
		c-1.6,1.9-3.4,3.5-5.3,5.2c-1.9,1.6-3.9,3.1-5.9,4.5c-2.1,1.4-4.2,2.6-6.4,3.8c-2.2,1.1-4.4,2.2-6.8,3
		C131,94.2,126.2,95.4,121.3,95.6 M111.7,85.9l-0.2-0.2c5.5-5.9,11.6-11.3,18-16.2c6.5-4.8,13.4-9.1,20.5-12.8l0.1,0.3
		c-3.1,2.8-6.2,5.3-9.4,7.7c-1.6,1.3-3.2,2.4-4.7,3.6c-1.6,1.2-3.2,2.4-4.7,3.6c-1.6,1.1-3.2,2.4-4.8,3.5c-1.6,1.1-3.2,2.4-4.8,3.5
		C118.5,81.4,115.3,83.7,111.7,85.9 M109.6,94.9l-0.2-0.2c9-5.9,17.7-12.3,26.2-19c8.5-6.6,16.8-13.6,24.7-20.9l0.2,0.2
		c-3.2,4.5-6.9,8.5-10.8,12.3c-1.9,1.9-4,3.7-6,5.6c-2.1,1.8-4.2,3.5-6.3,5.2c-2.2,1.6-4.3,3.3-6.6,4.8c-2.3,1.5-4.5,3.1-6.8,4.5
		C119.5,90.2,114.7,92.8,109.6,94.9 M114.5,76.3l-0.2-0.2c1.9-2.6,4-5.2,6.2-7.6c2.2-2.4,4.5-4.7,6.9-7c4.9-4.4,10.1-8.3,15.8-11.6
		l0.2,0.3c-2.2,2.6-4.6,4.9-6.9,7.1c-1.1,1.1-2.4,2.2-3.5,3.3c-1.2,1.1-2.4,2.1-3.5,3.2c-1.2,1-2.4,2.1-3.6,3.2
		c-1.2,1-2.4,2.1-3.6,3.2C119.8,72.2,117.3,74.3,114.5,76.3 M103.5,81.7l-0.3-0.1c1.4-3.9,3.3-7.6,5.5-11c2.2-3.5,4.9-6.7,7.8-9.6
		c3-2.8,6.3-5.4,9.9-7.4c3.6-2.1,7.3-3.8,11.3-5.1l0.1,0.3c-3.6,2.3-6.9,4.5-10.1,6.8c-1.6,1.2-3.2,2.4-4.6,3.7
		c-1.5,1.2-3,2.5-4.4,3.9c-2.8,2.7-5.4,5.6-7.9,8.7C108.2,75,105.9,78.3,103.5,81.7 M139.5,41.5c-1.5,0-3,0.1-4.6,0.3
		C112.8,45.1,94.7,75,94.6,92.5c0,4.1,1,7.6,3.2,9.8c1.6,1.6,5.6,2.3,10.7,2.3c12,0,30.3-3.8,38.8-7.8c4.9-2.3,31.8-15.1,31.7-30.1
		c0-0.5,0-1-0.1-1.6c-0.8-6.2-6.1-11-11.4-14.4c-0.5-0.3-0.9-0.6-1.4-0.8c-3.2-1.9-6.2-3.3-7.9-4.1C156.5,45,148.5,41.5,139.5,41.5"
		/>
	<path class="st5" d="M160.3,54.7c-7.9,7.3-16.2,14.3-24.7,20.9c-8.5,6.7-17.2,13-26.2,19l0.2,0.2c5.1-2.1,9.9-4.7,14.5-7.5
		c2.3-1.4,4.6-3,6.8-4.5c2.2-1.6,4.4-3.2,6.6-4.8c2.1-1.7,4.2-3.4,6.3-5.2c2-1.8,4.1-3.6,6-5.6c3.9-3.8,7.6-7.8,10.8-12.3
		L160.3,54.7"/>
	<path class="st5" d="M150.1,56.8c-7.2,3.7-14.1,8-20.5,12.8c-6.4,4.9-12.5,10.3-18,16.2l0.2,0.2c3.5-2.2,6.8-4.5,10-6.9
		c1.6-1.1,3.2-2.4,4.8-3.5c1.6-1.2,3.2-2.4,4.8-3.5c1.6-1.2,3.2-2.4,4.7-3.6c1.6-1.2,3.2-2.4,4.7-3.6c3.2-2.4,6.3-4.9,9.4-7.7
		L150.1,56.8"/>
	<path class="st5" d="M143.2,49.9c-5.7,3.3-10.9,7.3-15.8,11.6c-2.4,2.2-4.7,4.5-6.9,7c-2.2,2.4-4.3,5-6.2,7.6l0.2,0.2
		c2.8-2,5.3-4.1,7.7-6.2c1.3-1,2.4-2.1,3.6-3.2c1.2-1.1,2.3-2.2,3.6-3.2c1.2-1.1,2.3-2.2,3.5-3.2c1.1-1.1,2.4-2.1,3.5-3.3
		c2.3-2.2,4.7-4.5,6.9-7.1L143.2,49.9"/>
	<path class="st5" d="M137.7,48.5c-3.9,1.3-7.7,3-11.3,5.1c-3.6,2.1-6.9,4.6-9.9,7.4c-3,2.9-5.6,6.1-7.8,9.6
		c-2.3,3.5-4.1,7.2-5.5,11l0.3,0.1c2.4-3.5,4.7-6.8,7.2-9.8c2.5-3.1,5.1-6,7.9-8.7c1.4-1.4,2.9-2.7,4.4-3.9c1.5-1.3,3.1-2.4,4.6-3.7
		c3.2-2.3,6.6-4.5,10.1-6.8L137.7,48.5"/>
	<path class="st5" d="M167.9,63.7c-5.8,7.6-12.8,14.3-20.8,19.6c-7.9,5.4-16.7,9.5-25.9,12l0.1,0.3c4.9-0.2,9.7-1.4,14.4-3
		c2.3-0.8,4.6-1.9,6.8-3c2.2-1.1,4.3-2.4,6.4-3.8c2-1.4,4-2.9,5.9-4.5c1.8-1.7,3.7-3.3,5.3-5.2c3.3-3.7,6.1-7.7,8.2-12.2L167.9,63.7
		"/>
	<path class="st6" d="M108.5,120.3c-17-10.1-19.3-11.6-24.3-12c-8.4-0.7-18.7,2.1-20.7,6.5c-0.9,2,0.1,3.9,1.3,6
		c0.2,0.3,0.4,0.6,0.5,0.9c-5.8,1.5-8.2,3.6-9.2,5.3c-1.5,2.5-0.5,4.6-2.3,9.3c-0.3,0.8-0.7,2.9-1,2.3c0,0,0,0.1,0.2,0.2
		c-3-0.1-6.5,0.8-8.3,2.6c-2.4,2.4-1.7,6.4,0,11.9c5.5,17.3,16,31.4,17.9,33.8c23.7,31.1,31.2,40.5,58.4,47.7
		c1.5,0.4,13.3,3.1,13.9-5.7c0.5-6.8-6-13.4-15.9-22.2c1.7,0,1.5-2.9,2.8-4.1c3.4-3.1,7.5-2.5,11.1-3.5c3.7-1.1,7.8-4.1,9.7-12.5
		l0,0c10.1,4.4,15.9,5.1,18.7,3c4.3-3.2,0.7-11.6-3.3-20.8c-3.5-8.1-7.6-17.4-17.3-27.3C135.7,136.4,132.7,134.7,108.5,120.3z"/>
	<path class="st3" d="M134.9,229c-0.1-3.2-1.6-6.1-3.5-8.5c-1.9-2.4-4.2-4.6-6.5-6.7c-2.4-2.1-4.7-4.2-7.2-6.2l-7.2-6.2
		c-2.4-2.1-4.8-4.3-7.1-6.5c-2.3-2.2-4.6-4.5-6.7-6.8c-4.4-4.7-8.4-9.7-11.8-15.1c4.4,4.6,8.9,9.1,13.5,13.4c2.3,2.1,4.6,4.3,7,6.4
		c2.3,2.1,4.7,4.2,7.1,6.3c4.7,4.2,9.6,8.3,14.1,13c2.2,2.3,4.4,4.8,6.1,7.6c0.8,1.4,1.6,2.9,2,4.5C135,225.8,135.2,227.5,134.9,229
		z"/>
	<path class="st3" d="M57.6,140.1c-1.3-0.2-2.3-0.1-3.4,0c-1,0.1-2.1,0.2-3.1,0.3c-1,0.1-2.1,0.2-3.1,0.4c-1.1,0.2-2.1,0.3-3.3,0.6
		c0.4-1.3,1.4-2.2,2.5-2.8c1.1-0.6,2.3-1,3.6-1.2c1.2-0.1,2.5,0,3.8,0.4C55.8,138.1,57,138.9,57.6,140.1z"/>
	<path class="st3" d="M63.5,114.8c-0.5,1.3-0.2,2.7,0.4,3.8c0.6,1.2,1.4,2.3,2.2,3.4c1.5,2.2,3.1,4.4,4.7,6.5
		c3.2,4.3,6.7,8.4,10.4,12.1l5.9,5.4c2,1.8,4,3.6,6,5.3c4,3.5,8.1,7,12.3,10.4c4.2,3.4,8.4,6.7,12.8,9.7c4.3,3.1,8.8,6,13.5,8.6
		c2.3,1.3,4.7,2.6,7.1,3.8c2.4,1.2,4.8,2.4,7.3,3.4c2.4,1.1,5,2,7.5,2.7c1.3,0.3,2.6,0.6,3.9,0.6c1.3,0,2.7-0.2,3.8-0.9
		c-1.1,0.9-2.4,1.2-3.8,1.4c-1.4,0.1-2.8,0-4.1-0.2c-2.7-0.4-5.3-1.2-7.9-2.1c-5.1-1.8-10.1-4-14.9-6.5c-4.9-2.4-9.5-5.3-14-8.4
		c-4.5-3.1-8.8-6.4-13-9.8c-8.4-6.9-16.4-14.1-24-21.9c-3.7-4-7-8.4-10-12.9c-1.5-2.3-2.9-4.6-4.2-7c-0.6-1.2-1.3-2.3-1.9-3.6
		C63,117.6,62.9,116,63.5,114.8z"/>
	<path class="st3" d="M79.2,117.8c4.7,2,9.1,4.4,13.4,7.1c2.2,1.3,4.2,2.8,6.3,4.2c2,1.5,4,3,6,4.6c1.9,1.6,3.9,3.2,5.7,4.9
		c1.8,1.7,3.7,3.4,5.5,5.2c3.5,3.6,6.9,7.4,9.9,11.4c-3.9-3.2-7.7-6.5-11.5-9.7c-1.9-1.6-3.8-3.2-5.7-4.8c-1.9-1.6-3.8-3.2-5.8-4.7
		c-1.9-1.6-3.9-3.1-5.8-4.7c-1.9-1.6-3.9-3-5.9-4.6L79.2,117.8z"/>
	<path class="st3" d="M62.3,136.6c4.3,4.4,8.6,8.7,13,13c4.4,4.2,8.8,8.4,13.4,12.4c2.2,2.1,4.5,4.1,6.8,6.1c2.3,2,4.6,4,6.9,6
		c4.6,4,9.3,7.9,13.9,12.1c-5.3-3.1-10.4-6.6-15.3-10.2c-2.5-1.8-4.9-3.7-7.3-5.7c-2.4-2-4.7-4-7-6c-2.3-2.1-4.5-4.2-6.7-6.3
		c-2.2-2.2-4.3-4.4-6.4-6.7C69.5,146.6,65.6,141.8,62.3,136.6z"/>
	<path class="st3" d="M57.7,169.1c2.9,3.4,5.8,6.8,8.7,10.1c1.5,1.6,2.9,3.3,4.5,4.9c1.5,1.6,3,3.2,4.6,4.8c3.1,3.1,6.2,6.2,9.4,9.3
		c3.2,3.1,6.5,6.1,9.7,9.2c-3.9-2.1-7.7-4.7-11.2-7.4c-3.5-2.8-6.9-5.7-10-8.9c-3.1-3.2-6.1-6.6-8.7-10.3
		C62,177,59.6,173.2,57.7,169.1z"/>
	<g>
		<path class="st6" d="M242.7,61c-1.4-24.1-1.5-27.8-5.2-32.7c-6.4-8.5-19-14.3-25.8-10.3c-3,1.8-4.1,5.1-5.2,8.6
			c-0.2,0.5-0.3,1-0.4,1.5c-6.6-3.2-10.7-2.7-13.3-1.5c-3.6,1.7-4.6,4.9-10.3,8.6c-1,0.6-3,2.6-2.8,1.6c0,0,0,0.1,0,0.3
			c-2.5-2.5-6.3-4.2-9.2-3.7c-3.9,0.7-6.2,5.4-8.6,12c-6.6,18.7-6.9,35.2-6.9,37.8c-0.2,28.8,0,36.1,12,49.8
			c0.6,0.7,5.7,6.1,10.3,3.4c3.8-2.2,3.7-7.2,2.9-15c1,0.7,2.5-0.6,4-0.5c3.8,0.2,5.9,2.3,8.6,3.4c2.8,1.2,7.1,1.7,13.7-1v0
			c2.8,6.4,5.5,9.2,8.6,9.6c4.7,0.6,8.9-4.4,13.8-10.3c4.6-5.6,10.4-12.7,13.8-24.1C244.7,92.3,244.3,89.2,242.7,61z"/>
		<path class="st3" d="M177.4,136.7c0.8-0.7,1.5-1.5,1.9-2.4c0.4-0.9,0.5-1.9,0.6-2.9c0.1-2-0.2-4.1-0.4-6.2l-0.9-6.3
			c-0.3-2.1-0.5-4.2-0.8-6.4c-0.4-4.3-0.6-8.6-0.4-12.9c0.2-4.3,0.7-8.6,1.8-12.8c0.2,4.3,0.3,8.5,0.6,12.7c0.3,4.2,0.6,8.4,1,12.6
			c0.4,4.2,0.9,8.4,1,12.8c0,2.2,0,4.4-0.5,6.6c-0.3,1.1-0.6,2.2-1.3,3.1C179.4,135.6,178.4,136.3,177.4,136.7z"/>
		<path class="st3" d="M182.6,42.1c-0.8-1.2-1.7-2.1-2.6-2.9c-0.9-0.8-1.9-1.5-2.8-2.2c-1-0.7-2-1.3-3.1-1.9
			c-1.1-0.6-2.2-1.1-3.6-1.5c1.2-0.8,2.9-0.9,4.3-0.7c1.5,0.3,2.8,0.9,4,1.7c1.2,0.9,2.2,1.9,3,3.2C182.6,39.1,183,40.7,182.6,42.1z
			"/>
		<path class="st3" d="M211.8,18.1c-2.2,1.4-3.3,3.8-4,6.2c-0.7,2.4-1.3,4.9-1.8,7.4c-1.2,4.9-2.2,9.9-3.1,14.9
			c-0.8,5-1.6,10-1.8,15c-0.1,5.1-0.2,10.2-0.2,15.2c0,5.1,0.1,10.1,0.4,15.2c0.2,5.1,0.7,10.1,1.4,15.1c0.8,5,2,9.8,3.8,14.6
			c0.9,2.4,1.8,4.7,3.1,6.9c0.6,1.1,1.4,2.1,2.3,2.9c0.9,0.9,2,1.5,3.3,1.8c-1.3-0.1-2.5-0.6-3.6-1.4c-1-0.8-1.9-1.8-2.7-2.8
			c-1.5-2.1-2.7-4.4-3.8-6.8c-1-2.3-2-4.7-2.8-7.2c-0.8-2.5-1.4-5-1.9-7.5c-2-10.1-2.4-20.4-2.5-30.7c0-5.1,0.1-10.2,0.3-15.3
			c0.1-2.7,0.5-5.2,0.9-7.7c0.4-2.5,0.9-5.1,1.4-7.6c1.1-5,2.4-10,3.9-14.9c0.4-1.2,0.8-2.4,1.2-3.6c0.4-1.2,0.8-2.4,1.3-3.6
			c0.5-1.2,1.1-2.4,1.8-3.4C209.7,19.5,210.7,18.6,211.8,18.1z"/>
		<path class="st3" d="M222.1,35.2c1.3,5.2,2.2,10.5,2.7,15.8c0.3,2.7,0.4,5.3,0.5,8c0.1,2.7,0.1,5.4,0,8c-0.1,2.7-0.2,5.4-0.5,8
			c-0.3,2.7-0.5,5.3-1,8c-0.8,5.3-1.9,10.6-3.5,15.7l1.2-15.9c0.1-2.6,0.4-5.3,0.5-7.9c0.1-2.6,0.2-5.3,0.3-7.9
			c0.1-2.6,0.1-5.3,0.1-7.9c0-2.6,0-5.3,0-7.9C222.4,45.9,222.2,40.6,222.1,35.2z"/>
		<path class="st3" d="M193.6,36.5c-0.9,2.9-1.8,5.8-2.7,8.7c-0.9,2.9-1.4,5.9-1.5,8.9c-0.2,5.9-0.3,10.6-0.3,13.8
			c0,3.7,0.1,7.8,0.1,8.6c0,2.9,0.2,5.7,0.3,8.6c0.1,2.9,0.3,5.7,0.4,8.6l1.1,17.2c-1.6-5.6-2.7-11.2-3.5-17
			c-0.4-2.9-0.7-5.7-0.9-8.6c-0.2-2.9-0.4-5.8-0.5-8.7c-0.1-3.2,0-5.5,0-8.7c0.2-9.5,0.3-14.2,0.3-14.5
			C187.1,49.4,188.6,43.4,193.6,36.5z"/>
		<path class="st3" d="M162,67.9c0.2,3.7,0.3,7.3,0.4,10.8c0.2,3.6,0.4,7.1,0.7,10.7c0.3,3.6,0.6,7.1,1.1,10.7
			c0.4,3.6,0.9,7.1,1.3,10.8c-1.6-3.3-2.7-6.8-3.6-10.4c-0.9-3.6-1.4-7.2-1.7-10.8c-0.3-3.7-0.3-7.3,0-11
			C160.3,75.1,160.9,71.4,162,67.9z"/>
	</g>
	<path class="st0" d="M216.3,97.2c-0.1,0.6-2.2,8.8,2.5,16.1c6.6,10.5,21.7,10.9,30.4,11.2c8.5,0.3,27.9,0.9,44.1-13.7
		c14.3-12.8,22.5-34.4,16.8-53.4c-3.3-11.1-11.9-23-23.6-26.7c-1.9-0.6-9.3-2.9-13,0.6c-2,1.8-2,4.4-1.9,11.8
		c0.2,17.8,0.5,20-0.6,23.6c-0.5,1.7-2.9,9.1-9.3,13c-9.8,5.9-17.7-3.1-30.4,1.9C230,82.1,219.1,86.6,216.3,97.2z"/>
	<path class="st1" d="M220.2,96.8c1.6-3.2,4.1-6,7.1-8.3c1.5-1.1,3.1-2,4.9-2.8c0.4-0.2,0.9-0.4,1.3-0.5c0.5-0.1,0.9-0.3,1.4-0.4
		c0.5-0.1,0.9-0.2,1.4-0.3c0.5-0.1,0.9-0.1,1.4-0.2c3.8-0.4,7.4,0.4,10.9,1.2c3.5,0.7,6.9,1.6,10.4,2c0.9,0.1,1.7,0.2,2.6,0.2
		l1.3,0.1l1.2,0c0.8,0,1.6-0.1,2.4-0.2c0.4-0.1,0.7-0.2,1.1-0.3c0.4-0.1,0.7-0.2,1.1-0.3c2.9-1,5-3.3,6.8-5.9
		c0.9-1.3,1.6-2.8,2.4-4.3c0.3-0.8,0.7-1.5,1-2.3c0.3-0.8,0.7-1.6,0.9-2.4c1.2-3.2,2.1-6.6,3.2-10l0.4,0c0.3,3.6,0,7.2-0.6,10.8
		c-0.6,3.6-1.7,7.2-3.7,10.5c-1,1.6-2.3,3.2-3.9,4.4c-0.8,0.6-1.6,1.2-2.5,1.7c-0.9,0.5-1.9,0.8-2.8,1.1c-0.5,0.2-1,0.2-1.5,0.3
		c-0.5,0.1-1,0.2-1.5,0.2c-1,0-2,0.1-2.9-0.1l-1.4-0.2l-1.4-0.3c-0.9-0.2-1.8-0.5-2.6-0.8c-3.4-1.2-6.7-2.4-10.2-2.9
		c-3.5-0.5-6.9,0-10.1,0.8c-0.4,0.1-0.8,0.2-1.2,0.3c-0.4,0.1-0.8,0.3-1.2,0.4c-0.4,0.1-0.8,0.2-1.2,0.3l-1.2,0.4
		c-1.5,0.6-3,1.3-4.5,2.1c-3,1.6-5.7,3.7-8.5,5.9L220.2,96.8z"/>
	<path class="st1" d="M203.6,158.9c7.3-9.5,19.7-10.7,30.9-11.6c6.9-0.6,34.8-2.9,38.7,7.7c2.5,6.9-6.3,15.9-9.7,19.3
		c-15.1,15.5-41.7,21.4-56.1,11.6c-1.8-1.2-6.1-4.2-7.7-9.7C197.2,168.1,202.5,160.3,203.6,158.9"/>
	<path class="st7" d="M199.7,176.3l-0.1,0.1c0.1,0.2,0.2,0.4,0.3,0.6C199.9,176.7,199.8,176.5,199.7,176.3 M273.3,155l-0.1,0
		c0.1,0.3,0.2,0.5,0.2,0.8C273.4,155.5,273.4,155.2,273.3,155"/>
	<path class="st8" d="M273.2,155l-0.1,0c0.2,1.7-0.7,3.2-1.8,4.5c-1.1,1.3-2.4,2.4-3.7,3.4c-1.4,1-2.8,2-4.2,3
		c-1.4,1-2.8,1.8-4.4,2.6c-3,1.5-6.2,2.7-9.5,3.7c-3.3,1-6.6,1.8-9.9,2.4c-6.7,1.3-13.5,1.8-20.3,2.7c-3.4,0.4-6.8,0.9-10.1,1.1
		c-0.7,0-1.5,0.1-2.2,0.1c-0.9,0-1.9-0.1-2.8-0.2c-1.6-0.2-3.1-0.9-4.3-2.1l-0.1,0.1c0.1,0.2,0.1,0.4,0.2,0.7
		c0.9,1.3,2.3,2.2,3.9,2.7c1.7,0.6,3.5,0.8,5.3,0.9c1,0.1,1.9,0.1,2.9,0.1c2.5,0,5.1-0.2,7.6-0.3c1.7-0.1,3.4-0.3,5.2-0.5l5.2-0.7
		c3.4-0.6,6.8-1.3,10.2-2.1c3.4-0.8,6.7-1.7,10-2.9c3.3-1.2,6.5-2.5,9.6-4.2c1.5-0.9,3-1.8,4.4-2.9c1.4-1.1,2.7-2.1,4-3.3
		c1.3-1.1,2.6-2.3,3.7-3.7c0.5-0.7,1-1.5,1.3-2.3c0.2-0.6,0.3-1.2,0.3-1.8C273.4,155.5,273.3,155.3,273.2,155"/>
	<path class="st8" d="M252.4,160.8C252.4,160.8,252.4,160.8,252.4,160.8L252.4,160.8C252.4,160.8,252.4,160.8,252.4,160.8
		 M241.9,155.4c-1.6,0-3.3,0.2-4.9,0.5c-4,0.8-7.7,2.6-11.2,4c-7.1,2.9-14.6,5.1-22.3,6.7c7.8-0.4,15.6-1.9,23.1-4.5
		c3.7-1.3,7.3-2.9,10.9-3.4c1.3-0.2,2.7-0.4,4-0.4c2.3,0,4.6,0.3,6.9,1c0.9,0.2,1.8,0.5,2.5,0.9c0.4,0.2,0.7,0.4,1,0.6
		c0.1,0.1,0.2,0.2,0.3,0.2c0,0,0,0.1-0.1,0.1c-0.2,0.2-0.5,0.5-0.8,0.7c-0.7,0.5-1.5,0.9-2.3,1.3c-3.4,1.5-7.2,2.5-10.9,3.4
		c-5.6,1.3-11.3,1.9-17,1.9c-2,0-4-0.1-6-0.2c4.2,1,8.6,1.5,13,1.5c3.5,0,7-0.3,10.5-0.9c2-0.3,3.9-0.7,5.8-1.2
		c1.9-0.5,3.8-1.1,5.7-1.8c1-0.4,1.9-0.8,2.8-1.5c0.5-0.3,0.9-0.7,1.4-1.2c0.2-0.3,0.5-0.6,0.6-1c0.2-0.4,0.3-1,0.2-1.6
		c-0.3-1.1-0.9-1.6-1.4-2c-0.5-0.4-1-0.7-1.5-0.9c-1-0.5-2-0.8-3-1.1C246.9,155.7,244.4,155.4,241.9,155.4"/>
	<path class="st1" d="M62.8,67c-11.9,1.2-20.3,6.7-22,7.8c-7.7,5.2-15.2,10.3-15.7,18.8c-0.4,6.2,3.1,12.3,7.8,15.7
		c9.9,7,23.2,0.2,26.7-1.6c9.7-4.9,18.8-15.2,18.8-26.7c0-2,0-9-4.7-12.5C72.8,67.9,70.3,66.3,62.8,67"/>
	<path class="st8" d="M58.6,72.5c-2.9,0.4-5.7,1.3-8.3,2.5c-2.6,1.2-5.1,2.8-7.4,4.6c-2.3,1.8-4.3,3.9-6.1,6.3
		c-1.7,2.3-3.2,4.8-4.2,7.6c2-2.1,4-4.1,6-6c2-1.9,4.1-3.8,6.2-5.5c2.1-1.7,4.4-3.4,6.7-4.9C53.8,75.5,56.2,74,58.6,72.5"/>
</g>
</svg>
