<?xml version="1.0" encoding="utf-8"?>
<!-- Generator: Adobe Illustrator 21.1.0, SVG Export Plug-In . SVG Version: 6.00 Build 0)  -->
<svg version="1.1" id="Layer_1" xmlns="http://www.w3.org/2000/svg" xmlns:xlink="http://www.w3.org/1999/xlink" x="0px" y="0px"
	 viewBox="0 0 262 563" style="enable-background:new 0 0 262 563;" xml:space="preserve">
<style type="text/css">
	.st0{fill:#FC4700;}
	.st1{fill:#FE9000;}
</style>
<g>
	<path class="st0" d="M135.2,233.3c-30.5,0-59.6-9.8-82.1-27.5c-15.3-12-28.4-28.4-37-45.9C6.1,139.3,2.8,117.6,6.5,97.2
		c4.8-25.8,20.8-49.5,45.2-66.8C74.9,14,104.3,4.5,132.4,4.5c8.6,0,17.1,0.9,25.2,2.6c24.7,5.2,48.3,18.4,66.6,37.2
		c19.7,20.2,30.9,44.5,32.6,70.3c2.9,46-26.8,78.2-32.8,84.1C201.9,220.7,169.6,233.3,135.2,233.3z"/>
	<path class="st1" d="M132.4,5.5c8.5,0,17,0.9,25,2.6c24.5,5.2,48,18.3,66.1,36.9c19.5,20.1,30.7,44.1,32.3,69.7
		c2.9,45.6-26.6,77.4-32.5,83.4c-21.9,21.8-54,34.3-88.1,34.3c-30.2,0-59.2-9.7-81.4-27.2c-15.2-12-28.2-28.1-36.7-45.6
		C7.1,139,3.8,117.6,7.5,97.4c4.7-25.5,20.6-49.1,44.8-66.2C75.3,14.9,104.5,5.5,132.4,5.5L132.4,5.5 M132.4,3.5
		C74.8,3.6,15.7,41.8,5.5,97.1c-8.3,45.1,18.6,87.2,47,109.6c23.5,18.5,53.2,27.7,82.7,27.7c33.3,0,66.3-11.7,89.5-34.9
		c4.3-4.3,36.1-37.1,33.1-84.9c-3.4-55-50.8-98-99.9-108.4C149.5,4.4,141,3.5,132.4,3.5z"/>
	<polygon class="st0" points="46.6,212.5 224.6,212.5 135.6,555.5 	"/>
	<path class="st1" d="M223.3,213.5l-87.7,338l-87.7-338H223.3 M225.9,211.5H45.3l90.3,348L225.9,211.5z"/>
	<path class="st0" d="M155.6,454.1c-5-3.6-10-7.6-15.2-12c0.3-0.3,0.6-0.5,0.9-0.8c4.5-4,8.8-8.1,12.7-12.3
		c4.6,2.9,9.1,5.4,13.3,7.7l0.8-3c-3.9-2.1-7.9-4.4-12-7c5.8-6.4,11-13,15.6-19.6c1,0.5,2,1,2.9,1.5l0.8-3c-0.7-0.3-1.3-0.7-2-1
		c1.3-2,2.6-4,3.8-6l2.8-10.9c-2.8,5.1-5.9,10.3-9.3,15.4c-3.2-1.7-6.4-3.6-9.7-5.6c4.7-4.6,9.1-9.2,13.1-14c2.1,1.1,4.2,2.1,6.2,3
		l0.8-3c-1.6-0.8-3.3-1.6-5-2.4c3.1-3.8,6-7.6,8.6-11.5l2.3-9c-4,6.3-8.5,12.7-13.7,19c-4.3-2.2-8.7-4.6-13.3-7.3
		c7.6-6.2,14.4-12.7,20.4-19.3c2.7,1.1,5.3,2,7.8,2.9l0.8-2.9c-2.1-0.7-4.2-1.5-6.4-2.4c3.8-4.3,7.2-8.6,10.3-12.8l2.1-8.2
		c-0.6,0.9-1.2,1.7-1.8,2.6c-4.5-1.1-9.2-2.4-14.1-4c4.9-4.5,9.3-9.1,13.5-13.6c2,0.5,4,1,5.9,1.4l0.8-2.9c-1.4-0.3-2.9-0.6-4.4-1
		c2.4-2.7,4.7-5.4,6.8-8.1l1.9-7.4c-3.6,4.8-7.6,9.8-12,14.7c-3.1-0.8-6.3-1.8-9.6-2.8c6.8-5.9,12.8-12,18.3-18.1
		c1.6,0.4,3.2,0.7,4.7,1l0.8-2.9c-1.1-0.2-2.1-0.4-3.2-0.6c1.3-1.5,2.6-3,3.8-4.5c0.4-0.4,0.7-0.9,1.1-1.3l1.9-7.3
		c-1.7,2.2-3.4,4.5-5.3,6.7c-1.5,1.9-3.2,3.8-4.9,5.7c-6.1-1.4-12.5-3.2-19.2-5.6c5.7-4,11-8.2,16-12.3c4.8,1.3,9.4,2.2,14,3
		l0.8-2.9c-3.9-0.6-7.9-1.4-11.9-2.4c6-5.2,11.5-10.3,16.5-15.4l1.5-5.9c-0.4,0.5-0.8,0.9-1.3,1.3c-6.5-1.7-13.3-3.9-20.3-6.7
		c5.5-5,10.5-10,14.9-14.8c1.8,0.3,3.6,0.5,5.5,0.6c2.1,0.2,4.2,0.2,6.2,0.3l0.8-3c-2.2,0-4.4-0.1-6.7-0.3c-1.1-0.1-2.2-0.2-3.2-0.3
		c3.6-4.1,6.8-7.9,9.6-11.5h-3.8c-2.8,3.4-5.9,7.1-9.4,11c-5.2-0.8-10-2.1-14.4-3.5c3-2.7,5.6-5.2,7.9-7.5h-4.3
		c-2,2-4.3,4.1-6.9,6.3c-5.2-2-9.7-4.2-13.4-6.3h-9.7c-3.4,2.4-7.1,4.9-11.3,7.4c-3.3-2.5-6.4-5-9.2-7.4h-4.5
		c3.2,2.9,6.8,6,10.9,9.1c-5.4,3.1-11.3,6.3-17.8,9.2c-4.2-4.5-7.6-8.9-10.5-12.9c5.6-1.7,10.8-3.5,15.8-5.3h-9
		c-2.8,0.9-5.6,1.8-8.5,2.7c-0.6-0.9-1.2-1.8-1.8-2.7h-3.6c0.7,1.1,1.5,2.3,2.3,3.6c-6.3,1.8-12.9,3.5-19.8,4.9
		c-2-3-3.7-5.8-5.3-8.5h-3.5c1.6,2.9,3.5,5.9,5.5,9.1c-4.2,0.8-8.4,1.5-12.8,2.2c-1.8-4.1-3.4-7.9-4.7-11.3h-3.2
		c1.3,3.6,2.9,7.5,4.8,11.8c-3.6,0.5-7.2,0.9-10.6,1.2c-1.6-4.7-2.9-9.1-4-13h-3.1c1,4,2.3,8.4,4,13.3c-4.2,0.4-8.4,0.6-12.4,0.7
		c-2-5.1-3.7-9.8-5-14h-3.2c1.3,4.2,3,8.9,5,14.1c-1.3,0-2.7,0.1-4,0.1l0.8,3c1.4,0,2.9-0.1,4.4-0.1c2.3,5.6,5,11.6,8.2,17.9
		c-1.2,0-2.4,0-3.5,0c-1.5,0-3,0-4.4-0.1l0.8,3c1.2,0,2.4,0,3.6,0c1.7,0,3.3,0,5.1-0.1c3.2,6.1,6.9,12.4,11.1,18.8
		c-4.5,0.4-8.8,0.7-12.8,0.8c-1.5-3-2.9-5.9-4.3-8.8l3.6,14c3.3,6.1,6.9,12.4,11,18.7c-2,0.2-4,0.4-6,0.6l0.8,3
		c2.3-0.2,4.7-0.4,7.1-0.7c5,7.5,10.5,15,16.9,22.6c-3.7,0.8-7.2,1.6-10.7,2.2c-4.7-7-8.8-14-12.3-20.6l2.9,11.3
		c1.9,3.2,4,6.5,6.2,9.9c-1.2,0.2-2.3,0.4-3.5,0.6l0.8,2.9c1.5-0.2,3-0.5,4.5-0.7c5.5,8.2,11.8,16.5,19,24.8
		c-5,1.2-9.9,2.1-14.5,2.8c-1.4-2.5-2.7-4.9-4-7.3l3,11.6c3.5,5.9,7.4,11.9,11.8,18c-2.3,0.7-4.5,1.3-6.7,1.9l0.8,2.9
		c2.5-0.7,5.1-1.4,7.8-2.3c4.9,6.4,10.3,12.9,16.3,19.2c0.4,0.4,0.8,0.8,1.2,1.2c-3.8,1.6-7.6,3-11.3,4.3
		c-5.3-7.4-9.9-14.7-13.9-21.7l2.7,10.4c2.5,4.1,5.3,8.2,8.2,12.3c-1.6,0.5-3.1,1-4.7,1.4l0.8,2.9c1.9-0.6,3.8-1.1,5.8-1.8
		c4.9,6.7,10.3,13.4,16.4,20c-4.2,2.1-8.3,4-12.4,5.7c-2.6-4.3-4.8-8.5-6.8-12.5l3.2,12.2c0.3,0.5,0.6,1,0.9,1.5
		c-0.1,0.1-0.3,0.1-0.4,0.2l0.8,2.9c0.4-0.2,0.8-0.3,1.2-0.5c4.1,6.7,9,13.6,14.6,20.6c-3.1,2-6.2,3.9-9.2,5.7l0.8,3
		c3.4-1.9,6.9-4,10.4-6.4c3.1,3.6,6.4,7.3,9.9,10.9c2,2,4,4,6,5.8c-4.8,4.2-9.7,7.9-14.4,11.1c-4-6.2-7.7-12.4-11.1-18.6l2.8,10.9
		c1.9,3.1,3.8,6.2,5.8,9.3c-1,0.6-1.9,1.2-2.9,1.8l0.8,3c1.2-0.8,2.5-1.5,3.8-2.3c0.6,0.9,1.2,1.9,1.9,2.8
		c4.6,6.8,9.2,13.1,13.9,19.1c-0.6,0.7-1.1,1.3-1.7,2c-2.3,2.5-4.6,4.9-6.8,7.1c-1.6-1.6-3.2-3.2-4.8-4.9l1.5,5.8
		c0.4,0.4,0.7,0.7,1.1,1.1c-0.2,0.2-0.4,0.4-0.7,0.6l0.9,3.3c0.7-0.6,1.3-1.2,2-1.8c1.9,1.8,3.8,3.5,5.8,5.3c2.4,2.1,4.8,4.1,7.3,6
		l0.8-3.2c-2-1.6-4.1-3.4-6.1-5.1c-1.9-1.7-3.8-3.4-5.6-5.1c2.3-2.3,4.6-4.7,6.9-7.2c0.5-0.5,0.9-1.1,1.4-1.6
		c2.1,2.6,4.2,5.2,6.3,7.7l0.9-3.6c-1.7-2.1-3.5-4.2-5.2-6.4c3.9-4.6,7.4-9.2,10.5-13.9l3.2-12.3c-4.4-3.3-9-6.9-13.6-11
		c1.2-1.1,2.4-2.2,3.6-3.4c4-3.9,7.7-7.9,11.1-12c1.6,1.1,3.2,2.3,4.8,3.3l0.8-3.1c-1.2-0.8-2.5-1.7-3.7-2.6c2.4-3,4.6-6.1,6.7-9.1
		l2.4-9.3C163.9,443,160,448.6,155.6,454.1z M139.4,439.1c-0.4,0.4-0.8,0.7-1.2,1.1c-2.1-1.9-4.3-3.8-6.4-5.8
		c-3.1-2.9-6.1-5.9-8.9-8.9c4.4-2.4,9-5,13.5-8c0.2-0.1,0.3-0.2,0.5-0.3c5,3.8,9.9,7.2,14.6,10.3
		C147.7,431.4,143.7,435.3,139.4,439.1z M165.1,256.5c0.9,0.5,1.9,1,2.8,1.6c-5.2,3.5-10.7,6.9-16.5,10.1
		c-5.6-3.4-11.2-7.2-16.6-11.6c6.3-2.6,12.3-5.4,17.8-8.3C156.4,251.1,160.6,253.9,165.1,256.5z M155.5,246.7
		c7.3-4,14-8.2,19.9-12.4c3.9,2.2,8.1,4.3,12.5,6.2c0.6,0.3,1.2,0.5,1.9,0.8c-5.8,5-12.1,10-19.1,14.9c-1.4-0.7-2.7-1.5-4.1-2.3
		C162.7,251.6,159,249.2,155.5,246.7z M124.1,283.9c1.2-0.4,2.3-0.9,3.4-1.3c7,5.7,14.2,10.6,21.3,14.7c-5.4,2.8-11,5.4-16.8,7.9
		c-7-4.9-13.8-10.6-20.4-17.1C115.7,286.8,119.8,285.5,124.1,283.9z M109.2,285.6c-1.7-1.7-3.3-3.5-5-5.4c-3.5-3.9-6.7-7.9-9.6-11.8
		c4.7-0.9,9.6-2,14.6-3.3c2.3,2.5,4.7,5.1,7.2,7.6c2.8,2.7,5.5,5.3,8.4,7.7c-0.6,0.2-1.2,0.5-1.8,0.7
		C118.3,282.8,113.7,284.3,109.2,285.6z M157.7,323.4c-4.4,2.8-9,5.6-13.8,8.1c-8.2-5.2-16.5-11.1-24.8-18.1c1.6-0.6,3.3-1.2,5-1.8
		c2.6-1,5.1-2,7.6-3C140.3,314.6,149.1,319.4,157.7,323.4z M157.3,342.7c-2.2,1.6-4.5,3.2-6.9,4.8c-4.9,3.3-9.9,6.2-14.7,8.9
		c-4.7-3.5-9.5-7.4-14.3-11.5c4.5-1.6,9-3.5,13.6-5.6c3-1.4,5.9-2.8,8.7-4.3C148.3,337.8,152.8,340.4,157.3,342.7z M146.9,333.3
		c4.9-2.7,9.6-5.5,14.1-8.5c4.2,1.8,8.4,3.5,12.5,4.9c-4.2,3.7-8.7,7.4-13.5,11C155.7,338.5,151.3,336,146.9,333.3z M160.7,321.4
		c-8.5-3.8-17.2-8.5-25.7-14.2c5.9-2.6,11.6-5.3,17-8.1c8.2,4.5,16.4,8.1,24.2,10.8C171.3,313.8,166.2,317.7,160.7,321.4z
		 M130.7,281.3c7.3-3,14.2-6.2,20.7-9.7c7.5,4.4,15,8,22.3,10.9c-6.8,4.6-14,9-21.7,13.1C144.8,291.6,137.7,286.9,130.7,281.3z
		 M148.4,269.8c-6.4,3.4-13.2,6.5-20.3,9.4c-3.2-2.7-6.4-5.5-9.5-8.6c-2.1-2.1-4.2-4.2-6.1-6.3c3.4-1,6.8-2,10.3-3.2
		c3-1,5.9-2.1,8.8-3.2c0.2,0.2,0.4,0.4,0.7,0.5C137.6,262.7,143,266.4,148.4,269.8z M121.9,258.2c-3.9,1.3-7.8,2.5-11.6,3.5
		c-4.7-5.4-8.8-10.9-12.4-16.3c1.8-0.4,3.7-0.8,5.6-1.2c3.7-0.9,7.2-1.9,10.7-2.9c4.4,4.8,9.3,9.6,14.8,14.3
		C126.6,256.5,124.3,257.4,121.9,258.2z M107,262.6c-4.9,1.3-9.7,2.3-14.3,3.1c-4.2-6-7.8-11.9-10.8-17.7c4.1-0.5,8.4-1.2,12.8-2
		C98.2,251.5,102.3,257.1,107,262.6z M101.9,282.3c1.3,1.5,2.6,2.9,3.9,4.3c-3.8,1-7.5,2-11.1,2.8c-5.4-6.2-10.2-12.5-14.5-18.7
		c3.6-0.4,7.3-0.9,11.1-1.6C94.5,273.5,98,277.9,101.9,282.3z M108.3,289c6.6,6.7,13.5,12.4,20.5,17.5c-1.9,0.8-3.8,1.5-5.8,2.3
		c-2.2,0.8-4.4,1.6-6.5,2.4c-4.6-4-9.1-8.2-13.5-12.8c-2.1-2.1-4-4.3-5.9-6.4C100.7,291.1,104.4,290.1,108.3,289z M140.8,333.1
		c-2.3,1.2-4.6,2.3-7,3.4c-5,2.3-10,4.3-14.9,6c-3.3-3-6.6-6.1-9.9-9.4c-4.3-4.3-8.4-8.7-12.2-13.1c6.2-1.5,12.5-3.4,19.1-5.6
		C124.1,321.7,132.5,327.8,140.8,333.1z M132.8,358c-5,2.7-9.9,5-14.7,7.1c-1.9-1.7-3.7-3.5-5.5-5.4c-3.1-3.1-6-6.2-8.8-9.3
		c4.7-1.2,9.5-2.7,14.4-4.4C123.1,350.3,127.9,354.3,132.8,358z M135.4,360c6.6,4.9,13.1,9.2,19.4,13c-4.7,3.6-9.6,7.1-15,10.4
		c-6.4-4.8-12.9-10.1-19.4-16.1C125.4,365.1,130.4,362.7,135.4,360z M156.2,398.2c-5.8,5.3-12.2,10.4-19.2,15.2
		c-5.9-4.6-11.9-9.8-17.8-15.6c6.6-3,13.5-6.5,20.5-10.7C145.3,391.1,150.8,394.8,156.2,398.2z M169.1,405.7
		c-4.6,6.6-9.7,13.1-15.5,19.4c-4.6-3-9.3-6.2-14.1-9.9c7-4.9,13.5-10.1,19.3-15.5C162.3,401.9,165.8,403.9,169.1,405.7z
		 M171.5,382.3c-4,4.7-8.3,9.3-13,13.8c-5.2-3.2-10.6-6.8-16-10.7c5.4-3.4,10.4-7,15.1-10.7C162.4,377.5,167,380,171.5,382.3z
		 M157.4,371c-6.2-3.7-12.5-7.9-19-12.7c4.5-2.5,9.1-5.3,13.7-8.4c2.8-1.9,5.5-3.8,8.2-5.7c6,3,11.8,5.7,17.3,7.9
		C171.6,358.6,164.9,364.9,157.4,371z M191.5,335.1c-3.5,4.8-7.4,9.7-11.8,14.6c-5.3-2.2-10.9-4.7-16.7-7.6
		c4.9-3.7,9.5-7.5,13.8-11.4c0.3,0.1,0.5,0.2,0.8,0.3C182.4,332.7,187.1,334,191.5,335.1z M189.5,314c-4.1,4.5-8.6,9-13.4,13.4
		c-3.9-1.4-8-2.9-12.1-4.6c5.5-3.8,10.7-7.7,15.5-11.8C182.9,312.2,186.2,313.2,189.5,314z M197,289.9c-5.4,6-11.5,12-18.2,17.7
		c-7.6-2.6-15.6-6-23.7-10.3c7.8-4.3,15.2-8.8,22-13.5C184,286.4,190.7,288.4,197,289.9z M176.7,280.4c-7.3-2.8-14.7-6.2-22.2-10.5
		c5.8-3.3,11.3-6.7,16.5-10.2c7.3,3.7,14.5,6.6,21.6,8.7C187.6,272.4,182.3,276.5,176.7,280.4z M213.3,249.5
		c-5.4,5.4-11.3,11-17.9,16.5c-7.1-2-14.4-4.7-21.6-8.3c7-4.9,13.3-10,19.1-15.1C199.9,245.5,206.7,247.8,213.3,249.5z M192.2,221.2
		c4.4,1.6,9.2,2.9,14.5,3.9c-4.3,4.6-9.1,9.3-14.4,14c-1-0.4-2.1-0.9-3.1-1.3c-3.9-1.7-7.5-3.6-11-5.4
		C183.4,228.5,188.1,224.7,192.2,221.2z M173,211.9c4.1,2.6,9.4,5.5,16,8.1c-4,3.4-8.6,7-13.7,10.7c-5.7-3.2-10.8-6.6-15.5-9.9
		C164.7,217.7,169.1,214.7,173,211.9z M156.9,222.5c4.7,3.4,9.9,6.9,15.6,10.2c-5.9,4.1-12.4,8.2-19.7,12.1
		c-5.4-4.1-10.1-8.4-14.2-12.7C145.4,229,151.5,225.7,156.9,222.5z M149.9,246.2c-5.6,2.9-11.5,5.6-17.8,8.2
		c-5.5-4.6-10.4-9.3-14.8-14.1c6.6-2.1,12.7-4.5,18.5-7C139.9,237.6,144.6,242,149.9,246.2z M122.9,217.7c2.9,4.1,6.4,8.7,10.7,13.3
		c-5.8,2.5-11.9,4.8-18.5,6.9c-4.6-5.2-8.6-10.3-12-15.2C110.1,221.2,116.7,219.5,122.9,217.7z M100,223.3c3.4,5,7.3,10.2,12,15.5
		c-3,0.9-6,1.7-9.2,2.5c-2.2,0.5-4.4,1-6.6,1.4c-3.8-5.9-6.9-11.7-9.5-17.1C91.2,224.9,95.6,224.2,100,223.3z M82.8,226.2
		c0.2,0,0.5-0.1,0.7-0.1c2.6,5.4,5.7,11.3,9.4,17.3c-4.3,0.8-8.5,1.4-12.5,1.9c-3.2-6.2-5.7-12.2-7.8-17.8
		C75.9,227,79.3,226.7,82.8,226.2z M57.3,228.4c4-0.2,8-0.4,12.2-0.8c2,5.6,4.6,11.6,7.7,17.9c-4,0.4-7.9,0.6-11.6,0.8
		C62.3,240,59.6,234,57.3,228.4z M67.2,249.3c3.7-0.2,7.5-0.4,11.5-0.8c3,5.8,6.6,11.8,10.8,17.9c-3.8,0.6-7.5,1.1-11.1,1.5
		C74.1,261.5,70.4,255.3,67.2,249.3z M63.7,271.9c4.1-0.2,8.5-0.4,13.1-0.9c4.3,6.3,9.1,12.7,14.5,19c-5.4,1.1-10.5,1.9-15.5,2.5
		C71.3,285.5,67.3,278.6,63.7,271.9z M77.7,295.4c5.1-0.7,10.4-1.6,15.9-2.7c2.3,2.6,4.7,5.2,7.1,7.8c4.1,4.2,8.2,8.2,12.4,11.9
		c-6.4,2.1-12.6,3.9-18.6,5.3C88.3,310.2,82.7,302.7,77.7,295.4z M82.4,323.3c3.6-0.7,7.3-1.5,11.1-2.4c4.2,4.8,8.6,9.6,13.3,14.4
		c2.9,2.9,5.9,5.7,8.8,8.4c-4.8,1.6-9.6,3-14.1,4.2C94.2,339.6,87.9,331.4,82.4,323.3z M85.3,354.3c4.8-0.8,9.9-1.8,15.1-3.1
		c3.2,3.5,6.5,7.1,10,10.6c1.6,1.6,3.1,3.1,4.7,4.5c-6.1,2.6-12,4.7-17.5,6.5C93,366.6,88.9,360.4,85.3,354.3z M99.5,375.4
		c5.7-1.9,11.7-4.1,18-6.8c6.5,6.1,13.1,11.5,19.6,16.4c-6.9,4.1-13.6,7.5-20.2,10.4c-0.7-0.7-1.3-1.3-2-2
		C109.3,387.5,104.2,381.4,99.5,375.4z M104.6,403.5c3.8-1.3,7.7-2.8,11.7-4.5c6,6,12.1,11.3,18.1,16.1c-4.6,3-9.1,5.6-13.6,8
		C114.8,416.6,109.4,410,104.6,403.5z M107.2,432.9c4.2-1.7,8.5-3.7,12.9-6c3,3.2,6.2,6.4,9.6,9.6c2,1.9,4.1,3.8,6.1,5.6
		c-4.8,4-9.6,7.6-14.3,10.8C116,446.2,111.3,439.4,107.2,432.9z M154.1,487.7c-4.1,6.8-9,13.8-14.7,20.7c-4.5-5.8-9-11.9-13.4-18.4
		c-0.6-0.9-1.2-1.9-1.9-2.8c4.9-3.3,10-7.1,15-11.5C144.2,480.2,149.3,484.2,154.1,487.7z M143,468.1c-1.3,1.2-2.5,2.4-3.8,3.5
		c-2-1.9-4.1-3.8-6.1-5.9c-3.4-3.5-6.6-6.9-9.5-10.4c4.9-3.3,9.8-7,14.7-11.1c5.2,4.5,10.5,8.6,15.6,12.3
		C150.4,460.4,146.9,464.3,143,468.1z"/>
	<path class="st1" d="M155.6,454.1l0.4-0.6c-5-3.6-10-7.6-15.1-11.9l-0.5,0.6l0.5,0.6c0.3-0.3,0.6-0.5,0.9-0.8
		c4.6-4,8.8-8.1,12.7-12.4l-0.5-0.5l-0.4,0.6c4.6,2.9,9.1,5.5,13.4,7.7l0.8,0.4l1.2-4.5l-0.5-0.3c-3.8-2.1-7.9-4.4-12-6.9l-0.4,0.6
		l0.6,0.5c5.8-6.4,11-13,15.6-19.7l-0.6-0.4l-0.4,0.7c1,0.5,2,1,3,1.5l0.8,0.4l1.2-4.5l-0.5-0.3c-0.7-0.3-1.3-0.7-2-1l-0.4,0.7
		l0.6,0.4c1.3-2,2.6-4,3.9-6l0.1-0.1l4.4-16.9l-2.9,5.4c-2.8,5.1-5.9,10.3-9.3,15.4l0.6,0.4l0.4-0.7c-3.2-1.7-6.4-3.6-9.7-5.6
		l-0.4,0.6l0.5,0.5c4.8-4.6,9.2-9.3,13.2-14.1l-0.6-0.5l-0.3,0.7c2.1,1.1,4.2,2.1,6.2,3l0.8,0.4l1.2-4.4l-0.6-0.3
		c-1.6-0.8-3.3-1.6-5-2.4l-0.3,0.7l0.6,0.5c3.1-3.8,6-7.7,8.6-11.5l0.1-0.1l3.6-13.8l-2.6,4.1c-4,6.3-8.5,12.7-13.6,19l0.6,0.5
		l0.3-0.7c-4.2-2.2-8.7-4.6-13.3-7.2l-0.4,0.6l0.5,0.6c7.7-6.2,14.5-12.8,20.5-19.3l-0.6-0.5l-0.3,0.7c2.7,1.1,5.3,2,7.8,2.9
		l0.8,0.3l1.1-4.4l-0.6-0.2c-2.1-0.7-4.2-1.5-6.4-2.4l-0.3,0.7l0.6,0.5c3.8-4.3,7.2-8.6,10.4-12.9l0.1-0.1l3.2-12.5l-2.4,3.6
		c-0.6,0.9-1.2,1.7-1.8,2.6l0.6,0.4l0.2-0.7c-4.4-1.1-9.2-2.4-14-4l-0.2,0.7l0.5,0.6c4.9-4.5,9.4-9.1,13.5-13.7l-0.6-0.5l-0.2,0.7
		c2,0.5,4,1,6,1.4l0.7,0.2l1.1-4.4l-0.8-0.2c-1.4-0.3-2.9-0.6-4.4-1l-0.2,0.7l0.6,0.5c2.4-2.7,4.7-5.5,6.8-8.2l0.1-0.1l2.9-11.3
		l-2.3,3.1c-3.6,4.8-7.6,9.7-12,14.7l0.6,0.5l0.2-0.7c-3.1-0.8-6.3-1.7-9.6-2.8l-0.2,0.7l0.5,0.6c6.8-5.9,12.9-12,18.3-18.1
		l-0.6-0.5l-0.2,0.7c1.6,0.4,3.2,0.7,4.7,1l0.7,0.1l1.1-4.4L206,288c-1.1-0.2-2.1-0.4-3.2-0.6l-0.2,0.7l0.6,0.5
		c1.3-1.5,2.6-3,3.8-4.5c0.4-0.4,0.7-0.9,1.1-1.3l0.1-0.1l2.9-11.1l-2.3,3c-1.7,2.2-3.4,4.5-5.3,6.7c-1.5,1.9-3.2,3.8-4.8,5.7
		l0.6,0.5l0.2-0.7c-6.1-1.4-12.5-3.2-19.1-5.6l-0.3,0.7l0.4,0.6c5.7-4.1,11.1-8.2,16.1-12.4l-0.5-0.6l-0.2,0.7
		c4.8,1.3,9.5,2.2,14.1,3l0.7,0.1l1.1-4.4l-0.8-0.1c-3.9-0.6-7.8-1.4-11.8-2.4l-0.2,0.7l0.5,0.6c6.1-5.2,11.6-10.4,16.6-15.4
		l0.1-0.1l2.3-8.9l-2,2.1c-0.4,0.5-0.8,0.9-1.3,1.3l0.5,0.5l0.2-0.7c-6.5-1.7-13.3-3.8-20.2-6.6l-0.3,0.7l0.5,0.6
		c5.6-5,10.5-10,14.9-14.8l-0.6-0.5l-0.1,0.7c1.8,0.3,3.6,0.5,5.5,0.6c2.1,0.2,4.2,0.3,6.3,0.3l0.6,0l1.2-4.5l-1,0
		c-2.2,0-4.4-0.1-6.7-0.3c-1.1-0.1-2.1-0.2-3.2-0.3l-0.1,0.7l0.6,0.5c3.6-4.1,6.9-7.9,9.7-11.5l1-1.2h-5.8L218,211
		c-2.8,3.4-5.9,7.1-9.4,10.9l0.6,0.5l0.1-0.7c-5.2-0.8-9.9-2-14.2-3.5l-0.2,0.7l0.5,0.6c3-2.7,5.7-5.2,8-7.5l1.3-1.3h-6.4l-0.2,0.2
		c-2,2-4.3,4.1-6.8,6.3l0.5,0.6l0.3-0.7c-5.2-2-9.6-4.2-13.3-6.3l-0.2-0.1h-10.2l-0.2,0.1c-3.4,2.4-7.1,4.9-11.2,7.4l0.4,0.6
		l0.5-0.6c-3.3-2.5-6.4-5-9.1-7.4l-0.2-0.2h-6.8l1.4,1.3c3.2,2.9,6.9,6,11,9.1l0.5-0.6l-0.4-0.6c-5.3,3.1-11.3,6.2-17.8,9.2l0.3,0.7
		l0.6-0.5c-4.1-4.5-7.6-8.9-10.5-12.9l-0.6,0.4l0.2,0.7c5.6-1.7,10.8-3.5,15.8-5.3l3.9-1.5h-13.4l-0.1,0c-2.8,0.9-5.6,1.8-8.5,2.7
		l0.2,0.7l0.6-0.4c-0.6-0.9-1.2-1.8-1.8-2.7l-0.2-0.3h-5.3l0.7,1.1c0.7,1.2,1.5,2.4,2.3,3.6l0.6-0.4l-0.2-0.7
		c-6.2,1.8-12.8,3.4-19.8,4.9l0.2,0.7l0.6-0.4c-2-2.9-3.7-5.8-5.2-8.5l-0.2-0.4h-5.2l0.6,1.1c1.6,2.9,3.5,6,5.6,9.2l0.6-0.4
		l-0.1-0.7c-4.2,0.8-8.4,1.5-12.8,2.2l0.1,0.7l0.7-0.3c-1.8-4-3.4-7.8-4.6-11.3l-0.2-0.5h-4.8l0.4,1c1.3,3.6,2.9,7.6,4.8,11.8
		l0.7-0.3l-0.1-0.7c-3.6,0.5-7.1,0.9-10.6,1.2l0.1,0.7l0.7-0.2c-1.6-4.7-2.9-9-4-12.9l-0.1-0.6h-4.7l0.2,0.9c1,4,2.4,8.5,4,13.3
		l0.7-0.2l-0.1-0.7c-4.2,0.4-8.3,0.6-12.3,0.7l0,0.7l0.7-0.3c-2-5.1-3.7-9.8-5-14l-0.2-0.5h-4.7l0.3,1c1.3,4.2,3,9,5,14.2l0.7-0.3
		l0-0.7c-1.3,0-2.6,0.1-4,0.1l-1,0l1.2,4.5l0.6,0c1.4,0,2.9-0.1,4.4-0.1l0-0.7l-0.7,0.3c2.3,5.6,5,11.6,8.2,17.9l0.7-0.3l0-0.7
		c-1.2,0-2.4,0-3.5,0c-1.5,0-3,0-4.4-0.1l-1,0l1.2,4.5l0.6,0c1.2,0,2.4,0,3.6,0c1.7,0,3.4,0,5.1-0.1l0-0.7l-0.7,0.4
		c3.2,6.1,6.9,12.4,11.2,18.8l0.6-0.4l-0.1-0.7c-4.5,0.4-8.7,0.7-12.7,0.8l0,0.7l0.7-0.3c-1.5-3-2.9-5.9-4.3-8.7l-1.4,0.5l3.7,14.1
		l0,0.1c3.3,6.1,6.9,12.4,11,18.8l0.6-0.4l-0.1-0.7c-2,0.2-4,0.4-6,0.6l-0.9,0.1l1.1,4.4l0.6-0.1c2.3-0.2,4.7-0.4,7.1-0.7l-0.1-0.7
		l-0.6,0.4c5,7.5,10.6,15.1,16.9,22.7l0.6-0.5l-0.2-0.7c-3.6,0.8-7.2,1.6-10.7,2.2l0.1,0.7l0.6-0.4c-4.7-7-8.7-13.9-12.3-20.5
		l-3-5.5l4.5,17.4l0.1,0.1c1.9,3.2,4,6.5,6.2,9.9l0.6-0.4l-0.1-0.7c-1.2,0.2-2.3,0.4-3.4,0.6l-0.8,0.1l1.1,4.4l0.7-0.1
		c1.5-0.2,3-0.5,4.5-0.7l-0.1-0.7l-0.6,0.4c5.5,8.2,11.9,16.5,19.1,24.9l0.6-0.5l-0.2-0.7c-5,1.2-9.8,2.1-14.4,2.8l0.1,0.7l0.7-0.4
		c-1.4-2.4-2.7-4.9-4-7.3l-3-5.8l4.7,18.1l0.1,0.1c3.5,5.9,7.5,12,11.9,18l0.6-0.4l-0.2-0.7c-2.3,0.7-4.5,1.3-6.7,1.9l-0.7,0.2
		l1.1,4.4l0.7-0.2c2.5-0.7,5.1-1.4,7.9-2.3l-0.2-0.7l-0.6,0.5c4.9,6.5,10.3,12.9,16.4,19.2c0.4,0.4,0.8,0.8,1.2,1.2l0.5-0.5
		l-0.3-0.7c-3.8,1.6-7.6,3-11.2,4.3l0.2,0.7l0.6-0.4c-5.3-7.4-9.9-14.7-13.9-21.7l-2.8-4.9l4.2,16l0.1,0.1c2.5,4.1,5.3,8.2,8.3,12.4
		l0.6-0.4l-0.2-0.7c-1.6,0.5-3.1,1-4.6,1.4l-0.7,0.2l1.1,4.4l0.7-0.2c1.9-0.6,3.8-1.1,5.8-1.8l-0.2-0.7L101,405
		c4.9,6.7,10.4,13.4,16.5,20.1l0.6-0.5l-0.3-0.7c-4.2,2.1-8.3,4-12.3,5.6l0.3,0.7l0.6-0.4c-2.6-4.3-4.8-8.4-6.8-12.4l-3.2-6.4
		l5,19.1l0.1,0.1c0.3,0.5,0.6,1,0.9,1.5l0.6-0.4l-0.3-0.7c-0.1,0.1-0.3,0.1-0.4,0.2l-0.6,0.2l1.1,4.4l0.8-0.3
		c0.4-0.2,0.8-0.3,1.3-0.5l-0.3-0.7l-0.6,0.4c4.1,6.7,9,13.7,14.7,20.7l0.6-0.5l-0.4-0.6c-3.1,2-6.2,3.9-9.2,5.6l-0.5,0.3l1.2,4.5
		l0.9-0.5c3.4-1.9,6.9-4.1,10.4-6.4l-0.4-0.6l-0.6,0.5c3.1,3.6,6.4,7.3,10,10.9c2,2,4,4,6,5.8l0.5-0.6l-0.5-0.6
		c-4.8,4.2-9.6,7.8-14.4,11l0.4,0.6l0.6-0.4c-4-6.2-7.7-12.4-11.1-18.5l-2.9-5.1l4.3,16.7l0.1,0.1c1.9,3.1,3.8,6.2,5.8,9.3l0.6-0.4
		l-0.4-0.6c-1,0.6-1.9,1.2-2.9,1.8l-0.5,0.3l1.2,4.6l0.9-0.5c1.2-0.8,2.5-1.5,3.8-2.4l-0.4-0.6l-0.6,0.4c0.6,0.9,1.2,1.9,1.9,2.8
		c4.6,6.8,9.2,13.1,13.9,19.1l0.6-0.5l-0.6-0.5c-0.6,0.7-1.1,1.3-1.7,2c-2.3,2.5-4.5,4.9-6.8,7.1l0.5,0.5l0.5-0.5
		c-1.6-1.6-3.2-3.2-4.8-4.8l-2-2.1l2.3,8.8l0.1,0.1c0.4,0.4,0.7,0.7,1.1,1.1l0.5-0.5l-0.5-0.5c-0.2,0.2-0.4,0.4-0.7,0.6l-0.3,0.3
		l1.3,5l0.9-0.8c0.7-0.6,1.3-1.2,2-1.8l-0.5-0.5l-0.5,0.5c1.9,1.8,3.8,3.5,5.8,5.3c2.4,2.1,4.8,4.1,7.3,6.1l0.9,0.7l1.2-4.8
		l-0.4-0.3c-2-1.6-4.1-3.3-6.1-5.1c-1.9-1.7-3.8-3.4-5.6-5.1l-0.5,0.5l0.5,0.5c2.3-2.3,4.6-4.7,6.9-7.3c0.5-0.5,0.9-1.1,1.4-1.6
		l-0.6-0.5l-0.6,0.5c2.1,2.6,4.2,5.2,6.3,7.7l0.9,1.1l1.4-5.3l-0.2-0.3c-1.7-2.1-3.5-4.2-5.2-6.4l-0.6,0.5l0.6,0.5
		c3.9-4.6,7.4-9.3,10.6-13.9l0.1-0.1l3.4-12.9l-0.4-0.3c-4.4-3.2-9-6.9-13.5-11l-0.5,0.6l0.5,0.6c1.2-1.1,2.4-2.2,3.7-3.4
		c4.1-3.9,7.8-8,11.2-12.1l-0.6-0.5l-0.4,0.6c1.6,1.2,3.2,2.3,4.8,3.3l0.9,0.6l1.2-4.6l-0.4-0.3c-1.2-0.8-2.5-1.7-3.7-2.5l-0.4,0.6
		l0.6,0.5c2.4-3,4.7-6.1,6.8-9.2l0.1-0.1l3.8-14.5l-2.7,4.4c-3.4,5.6-7.2,11.2-11.6,16.6L155.6,454.1l0.4-0.6L155.6,454.1l0.6,0.5
		c4.4-5.5,8.3-11.2,11.7-16.8l-0.6-0.4l-0.7-0.2l-2.4,9.3l0.7,0.2l-0.6-0.4c-2.1,3-4.3,6.1-6.7,9.1L157,456l0.7,0.5
		c1.3,0.9,2.5,1.7,3.7,2.6l0.4-0.6l-0.7-0.2l-0.8,3.1l0.7,0.2l0.4-0.6c-1.6-1.1-3.2-2.2-4.8-3.3l-0.6-0.4l-0.4,0.5
		c-3.4,4.1-7,8.1-11.1,11.9c-1.2,1.2-2.4,2.3-3.6,3.4l-0.6,0.6l0.6,0.6c4.6,4.1,9.2,7.8,13.6,11l0.4-0.6l-0.7-0.2l-3.2,12.3l0.7,0.2
		l-0.6-0.4c-3.1,4.6-6.6,9.2-10.5,13.8l-0.4,0.5l0.4,0.5c1.8,2.2,3.5,4.3,5.3,6.4l0.6-0.5l-0.7-0.2l-0.9,3.6l0.7,0.2l0.6-0.5
		c-2.1-2.5-4.2-5-6.3-7.6l-0.6-0.7l-0.6,0.7c-0.5,0.5-0.9,1.1-1.4,1.6c-2.3,2.5-4.6,4.9-6.9,7.2l-0.6,0.5l0.6,0.5
		c1.8,1.7,3.7,3.4,5.6,5.1c2,1.8,4.1,3.5,6.1,5.1l0.5-0.6l-0.7-0.2l-0.8,3.2l0.7,0.2l0.5-0.6c-2.4-1.9-4.8-3.9-7.2-6
		c-2-1.7-3.9-3.5-5.7-5.2l-0.5-0.5l-0.5,0.5c-0.7,0.6-1.3,1.2-2,1.8l0.5,0.6l0.7-0.2l-0.9-3.3l-0.7,0.2l0.5,0.5
		c0.2-0.2,0.4-0.4,0.7-0.6l0.6-0.5l-0.6-0.5c-0.4-0.4-0.7-0.7-1.1-1.1l-0.5,0.5l0.7-0.2l-1.5-5.8L124,515l-0.5,0.5
		c1.6,1.6,3.2,3.3,4.8,4.9l0.5,0.5l0.5-0.5c2.3-2.3,4.6-4.6,6.9-7.2c0.6-0.7,1.2-1.3,1.7-2l0.4-0.5l-0.4-0.5
		c-4.7-5.9-9.3-12.3-13.9-19c-0.6-0.9-1.3-1.9-1.9-2.8l-0.4-0.6l-0.6,0.4c-1.3,0.8-2.5,1.6-3.7,2.3l0.4,0.6l0.7-0.2l-0.8-3l-0.7,0.2
		l0.4,0.6c1-0.6,1.9-1.2,2.9-1.8l0.6-0.4l-0.4-0.6c-2-3.1-3.9-6.2-5.8-9.3l-0.6,0.4l0.7-0.2l-2.8-10.9l-0.7,0.2l-0.7,0.4
		c3.4,6.2,7.1,12.4,11.2,18.6l0.4,0.6l0.6-0.4c4.8-3.2,9.6-6.9,14.5-11.1l0.6-0.5l-0.6-0.6c-2-1.8-4-3.8-6-5.8
		c-3.5-3.6-6.8-7.2-9.9-10.8l-0.4-0.5l-0.6,0.4c-3.5,2.3-6.9,4.4-10.3,6.3l0.4,0.7l0.7-0.2l-0.8-3l-0.7,0.2l0.4,0.6
		c3-1.8,6.1-3.6,9.2-5.7l0.7-0.5l-0.5-0.6c-5.7-6.9-10.5-13.8-14.6-20.5l-0.3-0.5l-0.6,0.2c-0.4,0.2-0.8,0.3-1.2,0.5l0.3,0.7
		l0.7-0.2l-0.8-2.9l-0.7,0.2l0.3,0.7c0.1-0.1,0.3-0.1,0.4-0.2l0.8-0.3l-0.5-0.8c-0.3-0.5-0.6-1-0.8-1.5l-0.6,0.4l0.7-0.2l-3.2-12.2
		l-0.7,0.2l-0.7,0.3c2,4,4.3,8.2,6.9,12.5l0.3,0.6l0.6-0.2c4.1-1.7,8.2-3.6,12.4-5.7l0.9-0.4l-0.7-0.7c-6.1-6.6-11.5-13.4-16.4-20
		l-0.3-0.4l-0.5,0.2c-2,0.6-3.9,1.2-5.7,1.8l0.2,0.7l0.7-0.2l-0.8-2.9l-0.7,0.2l0.2,0.7c1.5-0.5,3.1-0.9,4.7-1.4l1-0.3l-0.6-0.8
		c-3-4.1-5.7-8.2-8.2-12.3l-0.6,0.4l0.7-0.2l-2.7-10.4l-0.7,0.2l-0.7,0.4c4,7,8.6,14.4,14,21.8l0.3,0.5l0.5-0.2
		c3.7-1.2,7.4-2.7,11.3-4.3l1-0.4l-0.8-0.8c-0.4-0.4-0.8-0.8-1.2-1.2c-6-6.3-11.4-12.7-16.3-19.1l-0.3-0.4l-0.5,0.2
		c-2.7,0.8-5.3,1.6-7.8,2.3l0.2,0.7l0.7-0.2l-0.8-2.9l-0.7,0.2l0.2,0.7c2.2-0.6,4.4-1.2,6.7-1.9l1-0.3l-0.6-0.9
		c-4.4-6-8.3-12-11.8-17.9l-0.6,0.4l0.7-0.2l-3-11.6l-0.7,0.2l-0.7,0.3c1.3,2.4,2.6,4.9,4,7.3l0.3,0.4l0.5-0.1
		c4.6-0.7,9.5-1.7,14.5-2.8l1.2-0.3l-0.8-0.9c-7.2-8.3-13.5-16.6-19-24.7l-0.3-0.4l-0.5,0.1c-1.5,0.3-3,0.5-4.5,0.7l0.1,0.7l0.7-0.2
		l-0.8-2.9l-0.7,0.2l0.1,0.7c1.1-0.2,2.3-0.4,3.5-0.6l1.1-0.2l-0.6-1c-2.2-3.3-4.2-6.6-6.1-9.8l-0.6,0.4l0.7-0.2L69,299.8l-0.7,0.2
		l-0.7,0.4c3.6,6.6,7.7,13.6,12.4,20.6l0.3,0.4l0.5-0.1c3.5-0.6,7.1-1.4,10.7-2.2l1.2-0.3l-0.8-0.9c-6.3-7.5-11.9-15.1-16.8-22.5
		l-0.3-0.4l-0.5,0.1c-2.4,0.3-4.8,0.5-7.1,0.7l0.1,0.7l0.7-0.2l-0.8-3l-0.7,0.2l0.1,0.7c2-0.2,4-0.3,6-0.6l1.2-0.1l-0.7-1
		c-4.1-6.3-7.7-12.6-11-18.7l-0.7,0.4l0.7-0.2l-3.6-14l-0.7,0.2l-0.7,0.3c1.3,2.9,2.8,5.8,4.3,8.8l0.2,0.4l0.5,0
		c4-0.1,8.3-0.4,12.8-0.8l1.2-0.1l-0.7-1c-4.2-6.4-7.9-12.7-11.1-18.7l-0.2-0.4l-0.5,0c-1.7,0-3.4,0.1-5.1,0.1c-1.2,0-2.4,0-3.6,0
		l0,0.7l0.7-0.2l-0.8-3l-0.7,0.2l0,0.7c1.4,0,2.9,0.1,4.4,0.1c1.2,0,2.4,0,3.5,0l1.2,0l-0.5-1.1c-3.2-6.3-5.9-12.3-8.2-17.8
		l-0.2-0.5l-0.5,0c-1.5,0-2.9,0.1-4.4,0.1l0,0.7l0.7-0.2l-0.8-3l-0.7,0.2l0,0.7c1.3,0,2.6,0,4-0.1l1.1,0l-0.4-1
		c-2-5.1-3.6-9.9-5-14.1l-0.7,0.2v0.7h3.2v-0.7l-0.7,0.2c1.4,4.2,3,8.9,5,14.1l0.2,0.5l0.5,0c4-0.1,8.1-0.4,12.4-0.7l1-0.1l-0.3-0.9
		c-1.7-4.8-3-9.2-4-13.2l-0.7,0.2v0.7h3.1v-0.7l-0.7,0.2c1,3.9,2.4,8.3,4,13l0.2,0.6l0.6-0.1c3.5-0.3,7-0.7,10.7-1.2l1-0.1l-0.4-0.9
		c-1.9-4.2-3.4-8.2-4.7-11.7l-0.7,0.3v0.7h3.2v-0.7l-0.7,0.3c1.3,3.5,2.8,7.3,4.7,11.4l0.2,0.5l0.6-0.1c4.4-0.6,8.7-1.4,12.9-2.2
		l1.1-0.2l-0.6-0.9c-2.1-3.2-3.9-6.2-5.5-9.1l-0.7,0.4v0.7h3.5v-0.7l-0.6,0.4c1.6,2.7,3.3,5.6,5.3,8.5l0.3,0.4l0.5-0.1
		c7-1.4,13.6-3.1,19.9-4.9l1-0.3l-0.6-0.9c-0.8-1.2-1.6-2.4-2.3-3.6l-0.6,0.4v0.7h3.6v-0.7l-0.6,0.4c0.6,0.9,1.2,1.8,1.8,2.7
		l0.3,0.5l0.5-0.2c2.9-0.9,5.8-1.8,8.6-2.7l-0.2-0.7v0.7h9v-0.7l-0.3-0.7c-5,1.8-10.2,3.6-15.7,5.3l-1,0.3l0.6,0.9
		c2.9,4,6.4,8.5,10.6,13l0.4,0.4l0.5-0.2c6.5-3,12.5-6.1,17.9-9.2l1-0.6l-0.9-0.7c-4-3.1-7.7-6.1-10.9-9l-0.5,0.6v0.7h4.5v-0.7
		l-0.5,0.6c2.8,2.4,5.9,4.9,9.2,7.4l0.4,0.3l0.4-0.3c4.2-2.5,7.9-5,11.3-7.4l-0.4-0.6v0.7h9.7v-0.7l-0.4,0.7
		c3.7,2.1,8.3,4.4,13.5,6.4l0.4,0.2l0.3-0.3c2.5-2.2,4.8-4.4,6.9-6.3l-0.5-0.5v0.7h4.3v-0.7l-0.5-0.5c-2.3,2.3-4.9,4.8-7.9,7.4
		l-1,0.9l1.2,0.4c4.4,1.5,9.2,2.7,14.5,3.5l0.4,0.1l0.3-0.3c3.5-3.9,6.6-7.6,9.4-11l-0.6-0.5v0.7h3.8v-0.7l-0.6-0.5
		c-2.8,3.6-6,7.4-9.6,11.4l-1,1.1l1.4,0.2c1.1,0.1,2.2,0.3,3.3,0.3c2.3,0.2,4.6,0.3,6.8,0.3l0-0.7l-0.7-0.2l-0.8,3l0.7,0.2l0-0.7
		c-2,0-4.1-0.1-6.2-0.3c-1.9-0.1-3.7-0.4-5.4-0.6l-0.4-0.1l-0.3,0.3c-4.4,4.7-9.3,9.7-14.8,14.7l-0.9,0.8l1.1,0.4
		c7,2.8,13.8,5,20.4,6.7l0.4,0.1l0.3-0.3c0.4-0.5,0.9-0.9,1.3-1.4l-0.5-0.5l-0.7-0.2l-1.5,5.9l0.7,0.2l-0.5-0.5
		c-5,5-10.5,10.2-16.5,15.4l-1.1,0.9l1.4,0.4c4.1,1,8.1,1.8,12,2.4l0.1-0.7l-0.7-0.2l-0.8,2.9l0.7,0.2l0.1-0.7
		c-4.5-0.7-9.2-1.7-13.9-2.9l-0.4-0.1l-0.3,0.2c-5,4.1-10.3,8.3-16,12.3l-1.2,0.8l1.4,0.5c6.7,2.4,13.2,4.2,19.3,5.6l0.4,0.1
		l0.3-0.3c1.7-1.9,3.3-3.8,4.9-5.7c1.9-2.3,3.6-4.5,5.3-6.8l-0.6-0.5l-0.7-0.2l-1.9,7.3l0.7,0.2l-0.6-0.5c-0.4,0.4-0.7,0.9-1.1,1.3
		c-1.2,1.5-2.5,3-3.8,4.5l-0.8,1l1.2,0.3c1.1,0.2,2.2,0.4,3.2,0.6l0.1-0.7l-0.7-0.2l-0.8,2.9l0.7,0.2l0.1-0.7
		c-1.5-0.3-3.1-0.6-4.7-1l-0.4-0.1l-0.3,0.3c-5.4,6-11.5,12.1-18.2,18l-1,0.9l1.3,0.4c3.3,1.1,6.5,2,9.7,2.8l0.4,0.1l0.3-0.3
		c4.4-5,8.4-9.9,12-14.8l-0.6-0.4l-0.7-0.2l-1.9,7.4l0.7,0.2l-0.6-0.5c-2.1,2.7-4.4,5.4-6.8,8.1l-0.8,0.9l1.2,0.3
		c1.5,0.4,3,0.7,4.4,1l0.2-0.7l-0.7-0.2l-0.8,2.9l0.7,0.2l0.2-0.7c-1.9-0.4-3.9-0.9-5.9-1.4l-0.4-0.1l-0.3,0.3
		c-4.1,4.5-8.6,9.1-13.4,13.6l-0.9,0.9l1.2,0.4c4.9,1.6,9.7,2.9,14.2,4l0.5,0.1l0.3-0.4c0.6-0.9,1.2-1.7,1.8-2.6l-0.6-0.4l-0.7-0.2
		l-2.1,8.2l0.7,0.2l-0.6-0.4c-3.1,4.2-6.5,8.5-10.3,12.8l-0.7,0.8l1,0.4c2.2,0.9,4.3,1.6,6.4,2.4l0.3-0.7l-0.7-0.2l-0.8,2.9l0.7,0.2
		l0.2-0.7c-2.5-0.9-5.1-1.8-7.8-2.9l-0.5-0.2l-0.3,0.4c-5.9,6.5-12.7,13-20.3,19.2l-0.8,0.7l0.9,0.5c4.6,2.7,9.1,5.1,13.3,7.3
		l0.5,0.3l0.4-0.5c5.2-6.3,9.8-12.8,13.8-19.1l-0.6-0.4l-0.7-0.2l-2.3,9l0.7,0.2l-0.6-0.4c-2.6,3.8-5.5,7.6-8.6,11.4l-0.6,0.7
		l0.8,0.4c1.7,0.8,3.4,1.6,5,2.4l0.3-0.7l-0.7-0.2l-0.8,3l0.7,0.2l0.3-0.7c-2-0.9-4.1-1.9-6.2-3l-0.5-0.3l-0.4,0.5
		c-4,4.7-8.3,9.4-13.1,13.9l-0.7,0.7l0.8,0.5c3.3,2,6.6,3.9,9.7,5.6l0.6,0.3l0.4-0.6c3.5-5.2,6.6-10.3,9.4-15.5l-0.7-0.4l-0.7-0.2
		l-2.8,10.9l0.7,0.2l-0.6-0.4c-1.2,2-2.5,4-3.8,6l-0.5,0.7l0.7,0.4c0.7,0.4,1.3,0.7,2,1l0.3-0.7l-0.7-0.2l-0.8,3l0.7,0.2l0.3-0.7
		c-1-0.5-2-1-2.9-1.5l-0.6-0.3l-0.4,0.5c-4.6,6.6-9.7,13.2-15.5,19.6L155,427l0.8,0.5c4.2,2.6,8.2,4.9,12.1,7l0.4-0.7l-0.7-0.2
		l-0.8,3l0.7,0.2l0.4-0.7c-4.2-2.3-8.7-4.8-13.3-7.7l-0.5-0.3l-0.4,0.4c-3.9,4.2-8.1,8.3-12.6,12.3c-0.3,0.3-0.6,0.5-0.9,0.8
		l-0.7,0.6l0.7,0.6c5.1,4.4,10.2,8.4,15.2,12l0.6,0.4l0.4-0.6L155.6,454.1z M139.4,439.1l-0.5-0.6c-0.4,0.4-0.8,0.7-1.2,1l0.5,0.6
		l0.5-0.6c-2.1-1.9-4.2-3.8-6.4-5.8c-3.1-2.9-6-5.9-8.8-8.9l-0.5,0.5l0.4,0.7c4.5-2.4,9-5.1,13.5-8c0.2-0.1,0.3-0.2,0.5-0.3
		l-0.4-0.6l-0.5,0.6c5,3.8,9.9,7.3,14.7,10.4l0.4-0.6l-0.5-0.5c-3.8,4-7.7,7.9-12,11.6L139.4,439.1l0.5,0.6
		c4.3-3.8,8.4-7.7,12.1-11.7l0.6-0.7l-0.8-0.5c-4.7-3.1-9.6-6.5-14.6-10.3l-0.4-0.3l-0.4,0.3c-0.2,0.1-0.3,0.2-0.5,0.3
		c-4.5,3-9,5.6-13.4,8l-0.9,0.5l0.7,0.7c2.8,3,5.8,6,8.9,8.9c2.1,2,4.3,4,6.4,5.8l0.5,0.4l0.5-0.4c0.4-0.3,0.8-0.7,1.2-1.1
		L139.4,439.1z M165.1,256.5l-0.4,0.6c1,0.6,1.9,1.1,2.8,1.6l0.4-0.7l-0.4-0.6c-5.2,3.5-10.7,6.8-16.5,10l0.4,0.7l0.4-0.6
		c-5.6-3.3-11.1-7.2-16.6-11.5l-0.5,0.6l0.3,0.7c6.3-2.6,12.3-5.4,17.9-8.3l-0.3-0.7l-0.4,0.6c3.9,2.9,8.1,5.7,12.6,8.3L165.1,256.5
		l0.4-0.6c-4.5-2.6-8.6-5.4-12.5-8.2l-0.4-0.3l-0.4,0.2c-5.5,2.9-11.4,5.7-17.7,8.3l-1.2,0.5l1,0.8c5.5,4.4,11.1,8.2,16.7,11.6
		l0.4,0.2l0.4-0.2c5.9-3.2,11.4-6.6,16.6-10.1l1-0.7l-1.1-0.6c-0.9-0.5-1.9-1-2.8-1.5L165.1,256.5z M155.5,246.7l0.4,0.7
		c7.4-4,14-8.2,20-12.4l-0.4-0.6l-0.4,0.7c3.9,2.2,8.1,4.3,12.6,6.3c0.6,0.3,1.3,0.5,1.9,0.8l0.3-0.7l-0.5-0.6
		c-5.7,5-12.1,10-19,14.8l0.4,0.6l0.4-0.7c-1.4-0.7-2.7-1.5-4.1-2.3c-4-2.3-7.6-4.7-11-7.2L155.5,246.7l0.4,0.7L155.5,246.7
		l-0.4,0.6c3.5,2.5,7.2,5,11.2,7.3c1.4,0.8,2.8,1.6,4.1,2.3l0.4,0.2l0.4-0.3c7-4.9,13.4-9.9,19.1-14.9l0.9-0.8l-1.1-0.5
		c-0.6-0.3-1.3-0.5-1.9-0.8c-4.4-2-8.5-4.1-12.4-6.2l-0.4-0.2l-0.4,0.3c-5.9,4.2-12.5,8.3-19.8,12.3l-1,0.6l1,0.7L155.5,246.7z
		 M124.1,283.9l0.3,0.7c1.2-0.4,2.3-0.9,3.4-1.3l-0.3-0.7l-0.5,0.6c7,5.7,14.2,10.6,21.4,14.7l0.4-0.6l-0.3-0.7
		c-5.3,2.8-10.9,5.4-16.7,7.9l0.3,0.7l0.4-0.6c-6.9-4.9-13.8-10.5-20.3-17l-0.5,0.5l0.2,0.7c4.1-1.2,8.3-2.6,12.5-4.2L124.1,283.9
		l-0.3-0.7c-4.2,1.6-8.4,2.9-12.4,4.1l-1.2,0.4l0.9,0.9c6.6,6.5,13.5,12.2,20.5,17.2l0.3,0.2l0.4-0.2c5.8-2.5,11.4-5.1,16.8-7.9
		l1.2-0.6l-1.2-0.7c-7.1-4.1-14.2-8.9-21.2-14.6l-0.3-0.3l-0.4,0.2c-1.1,0.4-2.3,0.9-3.4,1.3L124.1,283.9z M109.2,285.6l0.5-0.5
		c-1.7-1.7-3.3-3.5-5-5.3c-3.5-3.9-6.6-7.8-9.5-11.8l-0.6,0.4l0.1,0.7c4.7-0.9,9.6-2,14.7-3.3l-0.2-0.7l-0.6,0.5
		c2.3,2.6,4.7,5.1,7.3,7.6c2.8,2.7,5.6,5.3,8.4,7.7l0.5-0.6l-0.3-0.7c-0.6,0.2-1.2,0.5-1.8,0.7c-4.7,1.7-9.3,3.2-13.8,4.5
		L109.2,285.6l0.5-0.5L109.2,285.6l0.2,0.7c4.5-1.3,9.2-2.8,13.9-4.6c0.6-0.2,1.2-0.5,1.8-0.7l1.2-0.4l-1-0.8
		c-2.8-2.4-5.6-4.9-8.3-7.6c-2.5-2.5-4.9-5-7.2-7.6l-0.3-0.3l-0.4,0.1c-5,1.3-9.9,2.4-14.6,3.3l-1.2,0.2l0.7,1c2.9,4,6.1,8,9.6,11.9
		c1.6,1.9,3.3,3.6,5,5.4l0.3,0.3l0.4-0.1L109.2,285.6z M157.7,323.4l-0.4-0.6c-4.4,2.8-9,5.5-13.8,8.1l0.4,0.7l0.4-0.6
		c-8.2-5.1-16.5-11.1-24.7-18l-0.5,0.6l0.3,0.7c1.6-0.6,3.3-1.2,5-1.8c2.6-1,5.1-2,7.6-3l-0.3-0.7l-0.4,0.6
		c8.7,6,17.5,10.9,26.2,14.9L157.7,323.4l-0.4-0.6L157.7,323.4l0.3-0.7c-8.5-3.9-17.3-8.8-25.9-14.7l-0.3-0.2l-0.4,0.2
		c-2.5,1-5,2.1-7.6,3c-1.7,0.6-3.3,1.2-4.9,1.8l-1.2,0.4l1,0.8c8.3,7,16.6,13,24.9,18.2l0.4,0.2l0.4-0.2c4.9-2.6,9.5-5.3,13.9-8.2
		l1.1-0.7l-1.2-0.6L157.7,323.4z M157.3,342.7l-0.4-0.6c-2.2,1.6-4.5,3.2-6.8,4.8c-4.9,3.3-9.8,6.2-14.7,8.9l0.4,0.7l0.5-0.6
		c-4.7-3.5-9.5-7.4-14.2-11.5l-0.5,0.6l0.3,0.7c4.5-1.6,9-3.5,13.6-5.6c3-1.4,5.9-2.8,8.8-4.3l-0.3-0.7l-0.4,0.6
		c4.6,2.8,9.1,5.4,13.6,7.8L157.3,342.7l-0.4-0.6L157.3,342.7l0.3-0.7c-4.4-2.3-8.9-4.9-13.5-7.7l-0.4-0.2l-0.4,0.2
		c-2.8,1.5-5.7,2.9-8.7,4.3c-4.6,2.1-9.1,3.9-13.5,5.6l-1.2,0.4l1,0.8c4.8,4.2,9.6,8,14.3,11.6l0.4,0.3l0.4-0.2
		c4.9-2.7,9.8-5.6,14.8-8.9c2.4-1.6,4.7-3.2,6.9-4.8l1-0.7l-1.1-0.6L157.3,342.7z M146.9,333.3l0.4,0.7c5-2.7,9.7-5.6,14.2-8.5
		l-0.4-0.6l-0.3,0.7c4.3,1.9,8.4,3.5,12.5,4.9l0.2-0.7l-0.5-0.6c-4.2,3.7-8.7,7.4-13.4,10.9l0.4,0.6l0.3-0.7
		c-4.3-2.2-8.7-4.7-13.1-7.4L146.9,333.3l0.4,0.7L146.9,333.3l-0.4,0.6c4.5,2.7,8.9,5.2,13.2,7.4l0.4,0.2l0.4-0.3
		c4.8-3.6,9.3-7.3,13.5-11l1-0.8l-1.2-0.4c-4.1-1.4-8.2-3.1-12.4-4.9l-0.4-0.2l-0.3,0.2c-4.5,3-9.1,5.8-14.1,8.5l-1.1,0.6l1.1,0.7
		L146.9,333.3z M160.7,321.4l0.3-0.7c-8.4-3.8-17.1-8.4-25.6-14.2l-0.4,0.6l0.3,0.7c5.9-2.6,11.6-5.3,17-8.2l-0.4-0.7l-0.4,0.7
		c8.3,4.5,16.5,8.1,24.3,10.9l0.3-0.7l-0.5-0.6c-4.8,4-9.9,7.8-15.4,11.5L160.7,321.4l0.3-0.7L160.7,321.4l0.4,0.6
		c5.5-3.7,10.6-7.6,15.5-11.6l1-0.8l-1.2-0.4c-7.7-2.8-15.9-6.3-24.1-10.8l-0.4-0.2l-0.4,0.2c-5.4,2.9-11,5.6-16.9,8.1l-1.3,0.5
		l1.1,0.8c8.6,5.8,17.4,10.5,25.9,14.3l0.4,0.2l0.3-0.2L160.7,321.4z M130.7,281.3l0.3,0.7c7.3-3,14.2-6.3,20.7-9.8l-0.4-0.7
		l-0.4,0.6c7.5,4.4,15.1,8,22.4,11l0.3-0.7l-0.4-0.6c-6.7,4.6-14,8.9-21.7,13.1l0.4,0.7l0.4-0.7c-7.1-4-14.2-8.6-21.2-14.2
		L130.7,281.3l0.3,0.7L130.7,281.3l-0.5,0.6c7,5.6,14.2,10.4,21.4,14.3l0.4,0.2l0.4-0.2c7.7-4.2,15-8.6,21.8-13.2l1.2-0.8l-1.3-0.5
		c-7.3-2.9-14.7-6.5-22.2-10.9l-0.4-0.2l-0.4,0.2c-6.5,3.5-13.3,6.7-20.6,9.7l-1.2,0.5l1,0.8L130.7,281.3z M148.4,269.8l-0.3-0.7
		c-6.4,3.4-13.1,6.5-20.2,9.3l0.3,0.7l0.5-0.6c-3.2-2.7-6.3-5.5-9.4-8.5c-2.1-2.1-4.1-4.2-6.1-6.3l-0.6,0.5l0.2,0.7
		c3.4-1,6.9-2,10.4-3.2c3-1,5.9-2.1,8.8-3.2l-0.3-0.7l-0.5,0.6c0.2,0.2,0.4,0.4,0.7,0.5c5.3,4.3,10.8,8.1,16.2,11.5L148.4,269.8
		l-0.3-0.7L148.4,269.8l0.4-0.6c-5.4-3.3-10.8-7.1-16.1-11.4c-0.2-0.2-0.4-0.3-0.7-0.5l-0.3-0.3l-0.4,0.2c-2.8,1.1-5.7,2.2-8.7,3.2
		c-3.5,1.2-6.9,2.2-10.3,3.2l-1.2,0.3l0.8,0.9c1.9,2.1,4,4.3,6.1,6.4c3.1,3.1,6.3,5.9,9.5,8.6l0.3,0.3l0.4-0.2
		c7.2-2.9,14-6,20.4-9.4l1.2-0.6l-1.1-0.7L148.4,269.8z M121.9,258.2l-0.2-0.7c-3.9,1.3-7.8,2.5-11.5,3.5l0.2,0.7l0.6-0.5
		c-4.7-5.4-8.8-10.9-12.3-16.2l-0.6,0.4l0.2,0.7c1.8-0.4,3.7-0.8,5.6-1.2c3.7-0.9,7.3-1.9,10.7-2.9l-0.2-0.7l-0.6,0.5
		c4.4,4.8,9.3,9.7,14.9,14.4l0.5-0.6l-0.3-0.7c-2.3,0.9-4.7,1.7-7.1,2.5L121.9,258.2l0.2,0.7c2.4-0.8,4.8-1.7,7.1-2.6l1.2-0.5
		l-1-0.8c-5.5-4.7-10.4-9.5-14.7-14.3l-0.3-0.4l-0.5,0.1c-3.5,1-7,2-10.7,2.9c-1.9,0.4-3.7,0.8-5.5,1.2l-1.1,0.2l0.6,0.9
		c3.6,5.4,7.7,10.9,12.5,16.4l0.3,0.4l0.5-0.1c3.8-1,7.7-2.2,11.6-3.6L121.9,258.2z M107,262.6l-0.2-0.7c-4.9,1.3-9.7,2.3-14.3,3.1
		l0.1,0.7l0.6-0.4c-4.2-5.9-7.7-11.8-10.8-17.6l-0.7,0.4l0.1,0.7c4.1-0.5,8.4-1.2,12.9-2l-0.1-0.7l-0.6,0.4
		c3.6,5.5,7.7,11,12.4,16.6L107,262.6l-0.2-0.7L107,262.6l0.6-0.5c-4.7-5.5-8.8-11-12.3-16.4l-0.3-0.4l-0.5,0.1
		c-4.4,0.8-8.6,1.5-12.8,2l-1.1,0.1l0.5,1c3.1,5.8,6.7,11.8,10.9,17.8l0.3,0.4l0.5-0.1c4.6-0.8,9.4-1.9,14.4-3.1l1.2-0.3l-0.8-0.9
		L107,262.6z M101.9,282.3l-0.6,0.5c1.3,1.5,2.6,2.9,4,4.3l0.5-0.5l-0.2-0.7c-3.8,1-7.5,2-11.1,2.7l0.2,0.7l0.6-0.5
		c-5.4-6.2-10.2-12.5-14.4-18.6l-0.6,0.4l0.1,0.7c3.6-0.4,7.3-0.9,11.1-1.6l-0.1-0.7l-0.6,0.4c3.2,4.4,6.7,8.9,10.7,13.3
		L101.9,282.3l0.6-0.5c-3.9-4.4-7.4-8.8-10.6-13.2l-0.3-0.4l-0.5,0.1c-3.8,0.7-7.5,1.2-11,1.6l-1.2,0.1l0.7,1
		c4.3,6.2,9.1,12.5,14.5,18.8l0.3,0.3l0.4-0.1c3.6-0.8,7.4-1.7,11.2-2.8l1.2-0.3l-0.9-0.9c-1.3-1.4-2.6-2.8-3.9-4.3L101.9,282.3z
		 M108.3,289l-0.5,0.5c6.6,6.7,13.6,12.5,20.6,17.6l0.4-0.6l-0.3-0.7c-1.9,0.8-3.8,1.5-5.7,2.3c-2.2,0.8-4.4,1.6-6.5,2.3l0.2,0.7
		l0.5-0.6c-4.5-4-9-8.2-13.5-12.8c-2-2.1-4-4.2-5.9-6.4l-0.6,0.5l0.2,0.7c3.7-0.8,7.5-1.8,11.3-2.9L108.3,289l-0.5,0.5L108.3,289
		l-0.2-0.7c-3.8,1.1-7.6,2-11.2,2.9l-1.2,0.3l0.8,1c1.9,2.1,3.9,4.3,6,6.4c4.5,4.6,9,8.9,13.6,12.9l0.3,0.3l0.4-0.1
		c2.2-0.7,4.3-1.5,6.6-2.4c2-0.7,3.9-1.5,5.8-2.3l1.3-0.5l-1.1-0.8c-7-5-13.8-10.8-20.4-17.4l-0.3-0.3l-0.4,0.1L108.3,289z
		 M140.8,333.1l-0.3-0.7c-2.3,1.2-4.6,2.3-7,3.4c-5,2.3-10,4.3-14.8,6l0.3,0.7l0.5-0.6c-3.3-3-6.6-6.1-9.9-9.3
		c-4.3-4.3-8.4-8.7-12.2-13l-0.6,0.5l0.2,0.7c6.2-1.6,12.6-3.4,19.1-5.6l-0.2-0.7l-0.5,0.6c8.3,7.1,16.8,13.3,25,18.6L140.8,333.1
		l-0.3-0.7L140.8,333.1l0.4-0.6c-8.2-5.3-16.6-11.4-24.9-18.5l-0.3-0.3l-0.4,0.1c-6.5,2.2-12.9,4-19,5.6l-1.2,0.3l0.8,0.9
		c3.8,4.4,7.9,8.8,12.2,13.1c3.3,3.3,6.6,6.4,9.9,9.4l0.3,0.3l0.4-0.2c4.9-1.8,9.9-3.8,15-6.1c2.4-1.1,4.8-2.3,7.1-3.4l1.2-0.6
		l-1.1-0.7L140.8,333.1z M132.8,358l-0.4-0.7c-5,2.6-9.9,5-14.6,7.1l0.3,0.7l0.5-0.5c-1.8-1.7-3.7-3.5-5.5-5.4
		c-3.1-3.1-6-6.2-8.8-9.3l-0.6,0.5l0.2,0.7c4.7-1.2,9.6-2.7,14.5-4.4l-0.2-0.7l-0.5,0.6c4.9,4.3,9.8,8.3,14.6,12L132.8,358l-0.4-0.7
		L132.8,358l0.5-0.6c-4.8-3.7-9.7-7.6-14.6-11.9l-0.3-0.3l-0.4,0.1c-4.9,1.7-9.7,3.2-14.4,4.4l-1.2,0.3l0.8,0.9
		c2.8,3.1,5.8,6.2,8.9,9.3c1.9,1.9,3.7,3.6,5.6,5.4l0.4,0.3l0.5-0.2c4.8-2.1,9.7-4.5,14.7-7.1l1-0.6l-0.9-0.7L132.8,358z M135.4,360
		l-0.4,0.6c6.6,4.9,13.2,9.2,19.5,13.1l0.4-0.6l-0.5-0.6c-4.6,3.6-9.6,7.1-14.9,10.4l0.4,0.6l0.4-0.6c-6.4-4.8-12.9-10.1-19.3-16
		l-0.5,0.6l0.3,0.7c4.9-2.2,9.9-4.6,15-7.4L135.4,360l-0.4,0.6L135.4,360l-0.4-0.7c-5.1,2.7-10,5.2-14.9,7.3l-1,0.5l0.8,0.8
		c6.5,5.9,13,11.3,19.4,16.1l0.4,0.3l0.4-0.3c5.3-3.3,10.3-6.8,15-10.4l0.9-0.7l-0.9-0.6c-6.3-3.8-12.8-8.1-19.3-13l-0.4-0.3
		l-0.4,0.2L135.4,360z M156.2,398.2l-0.5-0.6c-5.8,5.3-12.1,10.4-19.1,15.1l0.4,0.6l0.5-0.6c-5.9-4.6-11.8-9.8-17.7-15.6l-0.5,0.5
		l0.3,0.7c6.7-3,13.6-6.5,20.6-10.8l-0.4-0.6l-0.4,0.6c5.6,4.1,11.1,7.8,16.5,11.2L156.2,398.2l-0.5-0.6L156.2,398.2l0.4-0.6
		c-5.3-3.3-10.8-7-16.4-11.1l-0.4-0.3l-0.4,0.3c-6.9,4.2-13.8,7.7-20.4,10.7l-1,0.4l0.8,0.8c5.9,5.8,11.9,11,17.8,15.7l0.4,0.3
		l0.5-0.3c7-4.8,13.4-9.9,19.3-15.3l0.7-0.7l-0.8-0.5L156.2,398.2z M169.1,405.7l-0.6-0.4c-4.6,6.6-9.7,13.1-15.4,19.4l0.6,0.5
		l0.4-0.6c-4.6-2.9-9.3-6.2-14-9.8l-0.5,0.6l0.4,0.6c7.1-4.9,13.5-10.1,19.4-15.6l-0.5-0.6l-0.4,0.6c3.5,2.1,6.9,4.1,10.3,5.9
		L169.1,405.7l-0.6-0.4L169.1,405.7l0.4-0.7c-3.3-1.8-6.7-3.8-10.2-5.9l-0.5-0.3l-0.4,0.4c-5.8,5.4-12.2,10.6-19.3,15.4l-0.9,0.6
		l0.8,0.6c4.8,3.7,9.5,7,14.1,9.9l0.5,0.3l0.4-0.5c5.8-6.4,11-12.9,15.6-19.5l0.5-0.7l-0.7-0.4L169.1,405.7z M171.5,382.3l-0.6-0.5
		c-4,4.7-8.3,9.3-12.9,13.7l0.5,0.5l0.4-0.6c-5.2-3.2-10.5-6.8-15.9-10.7l-0.4,0.6l0.4,0.6c5.4-3.4,10.5-7,15.2-10.7l-0.5-0.6
		l-0.4,0.6c4.8,2.8,9.4,5.4,13.9,7.6L171.5,382.3l-0.6-0.5L171.5,382.3l0.3-0.7c-4.4-2.3-9-4.8-13.8-7.6l-0.4-0.3l-0.4,0.3
		c-4.7,3.7-9.7,7.2-15.1,10.6l-0.9,0.6l0.9,0.7c5.4,4,10.8,7.5,16,10.8l0.5,0.3l0.4-0.4c4.7-4.5,9.1-9.1,13.1-13.8l0.6-0.7l-0.8-0.4
		L171.5,382.3z M157.4,371l0.4-0.6c-6.1-3.7-12.5-7.9-19-12.6l-0.4,0.6l0.4,0.7c4.5-2.5,9.1-5.3,13.8-8.4c2.8-1.9,5.6-3.8,8.2-5.7
		l-0.4-0.6l-0.3,0.7c6,3.1,11.8,5.7,17.3,7.9l0.3-0.7l-0.6-0.5c-5.9,6.4-12.6,12.7-20.1,18.8L157.4,371l0.4-0.6L157.4,371l0.5,0.6
		c7.6-6.1,14.3-12.5,20.3-18.9l0.7-0.8l-1-0.4c-5.5-2.3-11.3-4.9-17.2-7.9l-0.4-0.2l-0.4,0.3c-2.6,1.9-5.4,3.8-8.2,5.7
		c-4.6,3.1-9.2,5.8-13.7,8.3l-1,0.6l0.9,0.7c6.5,4.8,12.9,9,19.1,12.7l0.4,0.3l0.4-0.3L157.4,371z M191.5,335.1l-0.6-0.4
		c-3.5,4.8-7.4,9.7-11.8,14.6l0.6,0.5l0.3-0.7c-5.3-2.2-10.9-4.6-16.7-7.5l-0.3,0.7l0.5,0.6c4.9-3.7,9.5-7.5,13.8-11.4l-0.5-0.6
		l-0.2,0.7c0.3,0.1,0.5,0.2,0.8,0.3c4.9,1.6,9.6,2.9,14,4L191.5,335.1l-0.6-0.4L191.5,335.1l0.2-0.7c-4.4-1.1-9.1-2.4-13.9-4
		c-0.3-0.1-0.5-0.2-0.8-0.3l-0.4-0.1l-0.3,0.3c-4.3,3.8-8.9,7.6-13.7,11.3l-1,0.7l1.1,0.5c5.8,2.9,11.4,5.4,16.8,7.6l0.5,0.2
		l0.4-0.4c4.4-4.9,8.3-9.9,11.8-14.7l0.7-0.9l-1.1-0.3L191.5,335.1z M189.5,314l-0.6-0.5c-4.1,4.5-8.6,9-13.4,13.4l0.5,0.6l0.2-0.7
		c-3.9-1.3-7.9-2.9-12-4.6l-0.3,0.7l0.4,0.6c5.5-3.8,10.7-7.8,15.5-11.9l-0.5-0.6l-0.2,0.7c3.5,1.2,6.8,2.2,10.1,3L189.5,314
		l-0.6-0.5L189.5,314l0.2-0.7c-3.2-0.9-6.6-1.9-10-3l-0.4-0.1l-0.3,0.3c-4.8,4.1-9.9,8-15.4,11.8l-1.1,0.8l1.3,0.5
		c4.1,1.7,8.2,3.3,12.1,4.6l0.4,0.1l0.3-0.3c4.9-4.4,9.4-8.9,13.5-13.5l0.8-0.9l-1.2-0.3L189.5,314z M197,289.9l-0.6-0.5
		c-5.4,6-11.4,11.9-18.1,17.7l0.5,0.6l0.2-0.7c-7.6-2.6-15.5-6-23.6-10.3l-0.4,0.7l0.4,0.7c7.8-4.3,15.2-8.8,22-13.6l-0.4-0.6
		l-0.3,0.7c6.9,2.6,13.7,4.6,20,6.1L197,289.9l-0.6-0.5L197,289.9l0.2-0.7c-6.3-1.5-13-3.5-19.8-6L177,283l-0.3,0.2
		c-6.8,4.7-14.1,9.2-21.9,13.5l-1.2,0.7l1.2,0.7c8.1,4.3,16.2,7.7,23.8,10.3l0.4,0.1l0.3-0.3c6.8-5.8,12.8-11.8,18.3-17.8l0.9-0.9
		l-1.2-0.3L197,289.9z M176.7,280.4l0.3-0.7c-7.2-2.8-14.7-6.2-22.1-10.5l-0.4,0.7l0.4,0.7c5.9-3.3,11.4-6.7,16.6-10.3l-0.4-0.6
		l-0.3,0.7c7.3,3.7,14.6,6.6,21.8,8.7l0.2-0.7l-0.5-0.6c-5,4.1-10.3,8.1-15.9,12L176.7,280.4l0.3-0.7L176.7,280.4l0.4,0.6
		c5.7-4,11-8,16-12.1l1.1-0.9l-1.4-0.4c-7.1-2.1-14.3-5-21.5-8.6l-0.4-0.2l-0.4,0.3c-5.2,3.5-10.6,6.9-16.5,10.2l-1.2,0.6l1.2,0.7
		c7.5,4.3,15,7.8,22.3,10.6l0.4,0.1l0.3-0.2L176.7,280.4z M213.3,249.5l-0.5-0.5c-5.3,5.4-11.3,10.9-17.8,16.5l0.5,0.6l0.2-0.7
		c-7.1-2-14.3-4.7-21.5-8.3l-0.3,0.7l0.4,0.6c7-4.9,13.4-10,19.2-15.1l-0.5-0.6l-0.3,0.7c7,2.9,13.9,5.2,20.5,6.9L213.3,249.5
		l-0.5-0.5L213.3,249.5l0.2-0.7c-6.5-1.8-13.3-4-20.3-6.9l-0.4-0.2l-0.3,0.3c-5.7,5.1-12.1,10.1-19,15l-1,0.7l1.1,0.6
		c7.3,3.6,14.6,6.4,21.8,8.4l0.4,0.1l0.3-0.3c6.6-5.5,12.5-11.1,17.9-16.6l0.9-0.9l-1.2-0.3L213.3,249.5z M192.2,221.2l-0.3,0.7
		c4.4,1.6,9.3,2.9,14.6,3.9l0.1-0.7l-0.5-0.5c-4.3,4.5-9,9.3-14.3,14l0.5,0.6l0.3-0.7c-1.1-0.4-2.1-0.9-3.1-1.3
		c-3.8-1.7-7.5-3.5-11-5.4l-0.4,0.7l0.4,0.6c5.3-3.8,10-7.6,14.1-11.2L192.2,221.2l-0.3,0.7L192.2,221.2l-0.5-0.6
		c-4.1,3.5-8.7,7.3-14,11.1l-1,0.7l1,0.6c3.5,1.9,7.2,3.7,11.1,5.5c1.1,0.5,2.1,0.9,3.2,1.4l0.4,0.2l0.4-0.3
		c5.3-4.8,10.1-9.5,14.4-14.1l0.9-1l-1.4-0.2c-5.2-1-10.1-2.3-14.4-3.8l-0.4-0.1l-0.3,0.3L192.2,221.2z M173,211.9l-0.4,0.6
		c4.1,2.6,9.5,5.6,16.1,8.2l0.3-0.7l-0.5-0.6c-4,3.4-8.6,7-13.7,10.7l0.4,0.6l0.4-0.7c-5.7-3.2-10.8-6.6-15.4-9.9l-0.4,0.6l0.4,0.6
		c5-3.1,9.4-6.1,13.3-8.9L173,211.9l-0.4,0.6L173,211.9l-0.4-0.6c-3.8,2.8-8.2,5.8-13.2,8.9l-1,0.6l0.9,0.7c4.7,3.4,9.9,6.7,15.6,10
		l0.4,0.2l0.4-0.3c5.1-3.7,9.7-7.3,13.8-10.8l1-0.8l-1.2-0.5c-6.5-2.6-11.8-5.5-15.9-8.1l-0.4-0.3l-0.4,0.3L173,211.9z M156.9,222.5
		l-0.4,0.6c4.7,3.4,9.9,6.9,15.7,10.2l0.4-0.6l-0.4-0.6c-5.9,4.1-12.4,8.1-19.6,12l0.4,0.7l0.5-0.6c-5.3-4.1-10-8.4-14.1-12.6
		l-0.5,0.5l0.3,0.7c6.7-3.1,12.8-6.3,18.3-9.6L156.9,222.5l-0.4,0.6L156.9,222.5l-0.4-0.6c-5.5,3.2-11.5,6.5-18.2,9.5l-1,0.4
		l0.7,0.8c4.1,4.3,8.9,8.6,14.3,12.7l0.4,0.3l0.4-0.2c7.3-3.9,13.8-8,19.7-12.1l1-0.7l-1-0.6c-5.7-3.3-10.9-6.7-15.5-10.1l-0.4-0.3
		l-0.4,0.3L156.9,222.5z M149.9,246.2l-0.3-0.7c-5.5,2.9-11.4,5.6-17.7,8.1l0.3,0.7l0.5-0.6c-5.5-4.6-10.4-9.3-14.7-14l-0.6,0.5
		l0.2,0.7c6.6-2.1,12.8-4.5,18.5-7l-0.3-0.7l-0.5,0.5c4.1,4.3,8.8,8.7,14.2,13L149.9,246.2l-0.3-0.7L149.9,246.2l0.5-0.6
		c-5.3-4.2-10-8.5-14.1-12.8l-0.4-0.4l-0.5,0.2c-5.7,2.5-11.8,4.9-18.4,7L116,240l0.8,0.9c4.4,4.7,9.3,9.5,14.9,14.1l0.3,0.3
		l0.4-0.2c6.3-2.5,12.3-5.3,17.9-8.2l1-0.5l-0.9-0.7L149.9,246.2z M122.9,217.7l-0.6,0.4c2.9,4.1,6.5,8.7,10.7,13.4l0.6-0.5
		l-0.3-0.7c-5.7,2.5-11.9,4.8-18.4,6.8l0.2,0.7l0.6-0.5c-4.6-5.2-8.5-10.3-11.9-15.2l-0.6,0.4l0.2,0.7c7-1.5,13.6-3.2,19.8-5
		L122.9,217.7l-0.6,0.4L122.9,217.7l-0.2-0.7c-6.2,1.8-12.8,3.5-19.7,5l-1.1,0.2l0.6,0.9c3.4,4.9,7.4,10.1,12,15.3l0.3,0.4l0.5-0.1
		c6.6-2.1,12.8-4.4,18.6-6.9l1-0.4l-0.7-0.8c-4.2-4.7-7.7-9.2-10.6-13.3l-0.3-0.4l-0.5,0.1L122.9,217.7z M100,223.3l-0.6,0.4
		c3.4,5,7.4,10.2,12,15.6l0.6-0.5l-0.2-0.7c-3,0.9-6,1.7-9.2,2.5c-2.2,0.5-4.4,1-6.6,1.4l0.1,0.7l0.6-0.4c-3.8-5.9-6.9-11.7-9.4-17
		l-0.7,0.3l0.1,0.7c4.6-0.7,9-1.5,13.4-2.3L100,223.3l-0.6,0.4L100,223.3l-0.1-0.7c-4.3,0.9-8.7,1.6-13.3,2.3l-1,0.1l0.4,0.9
		c2.6,5.4,5.7,11.2,9.5,17.2l0.3,0.4l0.5-0.1c2.2-0.4,4.4-0.9,6.6-1.5c3.2-0.8,6.2-1.6,9.2-2.5l1.1-0.3l-0.8-0.9
		c-4.6-5.3-8.5-10.5-11.9-15.4l-0.3-0.4l-0.5,0.1L100,223.3z M82.8,226.2l0.1,0.7c0.3,0,0.5-0.1,0.7-0.1l-0.1-0.7l-0.7,0.3
		c2.6,5.5,5.7,11.3,9.5,17.3l0.6-0.4l-0.1-0.7c-4.3,0.8-8.5,1.4-12.5,1.9l0.1,0.7l0.7-0.3c-3.1-6.2-5.7-12.2-7.7-17.8l-0.7,0.3
		l0.1,0.7c3.3-0.3,6.7-0.7,10.2-1.2L82.8,226.2l-0.1-0.7c-3.5,0.5-6.8,0.9-10.2,1.2l-1,0.1l0.3,0.9c2.1,5.6,4.6,11.7,7.8,17.9
		L80,246l0.5-0.1c4.1-0.5,8.3-1.1,12.6-1.9l1.1-0.2l-0.6-0.9c-3.7-6-6.8-11.8-9.4-17.2l-0.2-0.5l-0.5,0.1c-0.3,0-0.5,0.1-0.7,0.1
		L82.8,226.2z M57.3,228.4l0,0.7c4-0.2,8-0.4,12.2-0.8l-0.1-0.7l-0.7,0.3c2.1,5.6,4.6,11.7,7.7,18l0.7-0.3l-0.1-0.7
		c-4,0.4-7.9,0.6-11.5,0.8l0,0.7l0.7-0.3c-3.3-6.3-6-12.3-8.3-17.8L57.3,228.4l0,0.7L57.3,228.4l-0.7,0.3c2.3,5.6,5.1,11.6,8.3,18
		l0.2,0.4l0.5,0c3.7-0.1,7.6-0.4,11.6-0.8l1.1-0.1l-0.5-1c-3.1-6.2-5.6-12.2-7.7-17.8l-0.2-0.5l-0.6,0c-4.2,0.4-8.2,0.6-12.2,0.8
		l-1.1,0l0.4,1L57.3,228.4z M67.2,249.3l0,0.7c3.7-0.2,7.5-0.4,11.5-0.8l-0.1-0.7l-0.7,0.3c3,5.9,6.6,11.9,10.8,18l0.6-0.4l-0.1-0.7
		c-3.8,0.6-7.5,1.1-11,1.5l0.1,0.7l0.6-0.4c-4.2-6.3-7.9-12.5-11.1-18.5L67.2,249.3l0,0.7L67.2,249.3l-0.7,0.4
		c3.2,6,6.9,12.3,11.2,18.6l0.3,0.4l0.5,0c3.6-0.4,7.3-0.9,11.1-1.5l1.2-0.2l-0.7-1c-4.2-6-7.7-12-10.7-17.8l-0.2-0.5l-0.5,0.1
		c-4,0.4-7.8,0.7-11.5,0.8l-1.2,0.1l0.6,1.1L67.2,249.3z M63.7,271.9l0,0.7c4.1-0.2,8.5-0.4,13.2-0.9l-0.1-0.7l-0.6,0.4
		c4.3,6.3,9.1,12.7,14.6,19.1l0.6-0.5l-0.1-0.7c-5.3,1.1-10.5,1.9-15.4,2.5l0.1,0.7l0.6-0.4c-4.6-7-8.6-13.9-12.1-20.6L63.7,271.9
		l0,0.7L63.7,271.9l-0.7,0.4c3.6,6.7,7.6,13.7,12.2,20.7l0.3,0.4l0.5-0.1c4.9-0.6,10.1-1.5,15.5-2.5l1.3-0.3l-0.8-1
		c-5.4-6.3-10.2-12.7-14.5-19l-0.3-0.4l-0.4,0c-4.6,0.5-9,0.7-13.1,0.9l-1.2,0l0.6,1.1L63.7,271.9z M77.7,295.4l0.1,0.7
		c5.1-0.7,10.4-1.6,15.9-2.7l-0.2-0.7l-0.6,0.5c2.3,2.6,4.7,5.2,7.2,7.8c4.1,4.2,8.3,8.2,12.4,11.9l0.5-0.6l-0.2-0.7
		c-6.4,2.1-12.5,3.9-18.6,5.3l0.2,0.7l0.6-0.5c-6.3-7.4-11.8-14.8-16.8-22.2L77.7,295.4l0.1,0.7L77.7,295.4l-0.6,0.4
		c5,7.4,10.6,14.9,16.9,22.3l0.3,0.4l0.5-0.1c6-1.5,12.3-3.2,18.7-5.4l1.2-0.4l-1-0.9c-4.2-3.7-8.3-7.6-12.4-11.8
		c-2.5-2.6-4.8-5.1-7.1-7.7l-0.3-0.3l-0.4,0.1c-5.5,1.1-10.8,2-15.8,2.7l-1.2,0.2l0.7,1L77.7,295.4z M82.4,323.3l0.1,0.7
		c3.6-0.7,7.3-1.5,11.1-2.4l-0.2-0.7l-0.6,0.5c4.2,4.8,8.6,9.7,13.4,14.4c2.9,2.9,5.9,5.7,8.8,8.4l0.5-0.6l-0.2-0.7
		c-4.8,1.6-9.5,3-14.1,4.1l0.2,0.7l0.6-0.5c-7.2-8.2-13.5-16.4-19-24.5L82.4,323.3l0.1,0.7L82.4,323.3l-0.6,0.4
		c5.5,8.1,11.9,16.4,19.1,24.6l0.3,0.3l0.4-0.1c4.6-1.2,9.3-2.5,14.2-4.2l1.2-0.4l-0.9-0.9c-2.9-2.7-5.9-5.4-8.8-8.3
		c-4.8-4.7-9.2-9.5-13.3-14.4l-0.3-0.3l-0.4,0.1c-3.8,0.9-7.5,1.7-11,2.3l-1.1,0.2l0.6,0.9L82.4,323.3z M85.3,354.3l0.1,0.7
		c4.8-0.8,9.9-1.8,15.2-3.1l-0.2-0.7l-0.6,0.5c3.2,3.6,6.5,7.1,10,10.6c1.6,1.6,3.1,3.1,4.7,4.6l0.5-0.5l-0.3-0.7
		c-6.1,2.6-11.9,4.7-17.4,6.5l0.2,0.7l0.6-0.4c-4.6-6.2-8.7-12.4-12.3-18.5L85.3,354.3l0.1,0.7L85.3,354.3l-0.6,0.4
		c3.6,6.1,7.7,12.4,12.3,18.6l0.3,0.4l0.5-0.2c5.5-1.8,11.4-3.9,17.6-6.5l1.1-0.4l-0.8-0.8c-1.6-1.5-3.1-3-4.7-4.5
		c-3.5-3.5-6.8-7-10-10.6l-0.3-0.3l-0.4,0.1c-5.2,1.3-10.3,2.3-15.1,3.1l-1.1,0.2l0.6,0.9L85.3,354.3z M99.5,375.4l0.2,0.7
		c5.7-1.9,11.7-4.1,18-6.8l-0.3-0.7l-0.5,0.6c6.6,6.1,13.2,11.6,19.7,16.5l0.5-0.6l-0.4-0.6c-6.8,4.1-13.6,7.5-20.1,10.3l0.3,0.7
		l0.5-0.5c-0.7-0.7-1.3-1.3-2-2c-5.7-5.9-10.8-12-15.4-18L99.5,375.4l0.2,0.7L99.5,375.4l-0.6,0.5c4.6,6.1,9.8,12.2,15.5,18.1
		c0.7,0.7,1.3,1.3,2,2l0.4,0.4l0.5-0.2c6.6-2.9,13.4-6.3,20.2-10.4l1-0.6l-0.9-0.7c-6.5-4.9-13-10.4-19.6-16.4l-0.4-0.3l-0.4,0.2
		c-6.2,2.7-12.2,4.9-17.9,6.7l-1,0.3l0.6,0.8L99.5,375.4z M104.6,403.5l0.2,0.7c3.8-1.3,7.7-2.8,11.7-4.5l-0.3-0.7l-0.5,0.5
		c6,6,12.1,11.4,18.2,16.2l0.5-0.6l-0.4-0.6c-4.5,3-9.1,5.6-13.5,8l0.4,0.7l0.6-0.5c-6-6.5-11.4-13.1-16.2-19.6L104.6,403.5l0.2,0.7
		L104.6,403.5L104,404c4.8,6.5,10.2,13.1,16.3,19.7l0.4,0.4l0.5-0.3c4.5-2.4,9.1-5,13.6-8l0.9-0.6l-0.8-0.6
		c-6-4.8-12.1-10.1-18.1-16.1l-0.4-0.4l-0.5,0.2c-4,1.7-7.9,3.2-11.6,4.5l-1,0.3l0.6,0.8L104.6,403.5z M107.2,432.9l0.3,0.7
		c4.2-1.8,8.6-3.7,13-6l-0.3-0.7l-0.5,0.5c3,3.2,6.2,6.5,9.6,9.7c2.1,1.9,4.1,3.8,6.2,5.6l0.5-0.6l-0.5-0.6
		c-4.8,4-9.5,7.5-14.2,10.7l0.4,0.6l0.6-0.5c-5.5-6.7-10.2-13.5-14.3-20L107.2,432.9l0.3,0.7L107.2,432.9l-0.6,0.4
		c4.1,6.6,8.8,13.4,14.4,20.1l0.4,0.5l0.6-0.4c4.8-3.2,9.6-6.8,14.4-10.8l0.7-0.6l-0.7-0.6c-2-1.8-4.1-3.7-6.1-5.6
		c-3.3-3.2-6.5-6.4-9.5-9.6l-0.4-0.4l-0.5,0.3c-4.4,2.2-8.7,4.2-12.9,5.9l-0.8,0.3l0.5,0.8L107.2,432.9z M154.1,487.7l-0.6-0.4
		c-4.1,6.8-8.9,13.7-14.7,20.6l0.6,0.5l0.6-0.5c-4.5-5.7-9-11.9-13.4-18.4c-0.6-0.9-1.2-1.9-1.9-2.8l-0.6,0.4l0.4,0.6
		c5-3.3,10-7.2,15.1-11.6l-0.5-0.6l-0.5,0.6c5.1,4.6,10.2,8.6,15,12.1L154.1,487.7l-0.6-0.4L154.1,487.7l0.4-0.6
		c-4.8-3.5-9.9-7.5-14.9-12l-0.5-0.4l-0.5,0.4c-5,4.4-10,8.2-14.9,11.5l-0.6,0.4l0.4,0.6c0.6,0.9,1.2,1.9,1.9,2.8
		c4.4,6.5,8.9,12.7,13.4,18.5l0.6,0.7l0.6-0.7c5.8-6.9,10.7-13.9,14.8-20.8l0.4-0.6l-0.6-0.4L154.1,487.7z M143,468.1l-0.5-0.5
		c-1.3,1.2-2.5,2.4-3.8,3.5l0.5,0.6l0.5-0.6c-2-1.9-4.1-3.8-6.1-5.9c-3.4-3.4-6.6-6.9-9.5-10.4l-0.6,0.5l0.4,0.6
		c4.9-3.3,9.8-7,14.7-11.2l-0.5-0.6l-0.5,0.6c5.3,4.5,10.5,8.7,15.6,12.4l0.4-0.6l-0.6-0.5c-3.3,3.9-6.8,7.8-10.7,11.5L143,468.1
		l0.5,0.5c3.9-3.8,7.5-7.7,10.8-11.6l0.5-0.6l-0.6-0.5c-5.1-3.7-10.3-7.8-15.5-12.3l-0.5-0.4l-0.5,0.4c-4.9,4.1-9.8,7.8-14.6,11.1
		l-0.7,0.5l0.5,0.6c3,3.5,6.2,7,9.6,10.5c2.1,2.1,4.1,4,6.2,5.9l0.5,0.5l0.5-0.5c1.3-1.1,2.5-2.3,3.8-3.5L143,468.1z"/>
	<path class="st0" d="M99,242.8c-19.6,0-38.7-6.7-52.4-18.3c-2.3-1.9-10.1-8.9-15.7-17.9c-3.6-5.7-7.2-13.9-4.4-20.7
		c5.6-13.7,34.7-13.8,52.1-13.8c8.3,0,23.6,4.6,38.5,9c15.1,4.5,30.8,9.2,39.5,9.2c1,0,2-0.1,2.8-0.2c11.5-0.5,22.6-2.5,32.7-6.1
		c5.8-2,10.2-4.1,14-6c6.1-2.9,10.5-5,16.4-5c0.9,0,1.9,0.1,2.9,0.2c4.5,0.5,15.4,2.6,19.7,11.5c2.6,5.5,2.2,12.8-1.2,18.3
		c-6.3,10.4-21.6,11.5-37.8,12.8c-3.5,0.3-6.6,0.4-9.7,0.4c-5.8,0-10-0.5-13.6-0.9c-2.9-0.3-5.5-0.6-8.3-0.6c-3.1,0-6.1,0.4-9.5,1.1
		c-10.3,2.3-15.1,6.4-20.2,10.7c-3.9,3.3-8,6.7-14.9,9.9C120.7,240.6,110,242.8,99,242.8z"/>
	<path class="st1" d="M78.4,171.1v2c8.1,0,23.4,4.6,38.1,9c15.9,4.8,31,9.3,39.8,9.3c1.1,0,2-0.1,2.9-0.2c11.6-0.5,22.7-2.5,33-6.1
		c5.8-2,10.2-4.1,14.1-6c5.9-2.8,10.2-4.9,15.9-4.9c0.9,0,1.8,0.1,2.8,0.2c13,1.4,17.5,8.1,18.9,10.9c2.5,5.2,2,12.2-1.1,17.4
		c-6,9.9-21.1,11.1-37,12.3c-3.4,0.3-6.6,0.4-9.6,0.4c-5.7,0-9.9-0.5-13.5-0.9c-2.8-0.3-5.5-0.6-8.4-0.6c-3.2,0-6.3,0.4-9.8,1.2
		c-10.5,2.4-15.4,6.5-20.7,10.9c-3.9,3.2-7.9,6.6-14.7,9.7c-8.9,4.1-19.4,6.3-30.4,6.3c-19.4,0-38.2-6.6-51.8-18.1
		c-10.5-8.9-24.5-26.2-19.9-37.4c5.4-13.1,34-13.2,51.1-13.2L78.4,171.1 M78.4,171.1L78.4,171.1c-18.4,0-47.1,0.1-53,14.5
		c-5.3,13,10.6,31.4,20.5,39.7c14.2,12.1,33.9,18.5,53.1,18.5c10.9,0,21.7-2.1,31.2-6.5c16.3-7.6,17.3-16.5,34.9-20.5
		c3.6-0.8,6.6-1.1,9.3-1.1c6.3,0,11.5,1.5,21.9,1.5c2.8,0,6-0.1,9.7-0.4c17-1.3,32.1-2.6,38.5-13.2c3.3-5.5,4.1-13.1,1.2-19.3
		c-5-10.4-18.5-11.8-20.5-12c-1-0.1-2-0.2-3-0.2c-10,0-15.9,5.8-30.7,11c-7.2,2.5-18,5.4-32.5,6c-0.8,0.1-1.7,0.2-2.7,0.2
		C139.3,189.4,95.2,171.1,78.4,171.1z"/>
</g>
</svg>
