<?xml version="1.0" encoding="utf-8"?>
<!-- Generator: Adobe Illustrator 21.1.0, SVG Export Plug-In . SVG Version: 6.00 Build 0)  -->
<svg version="1.1" id="Layer_1" xmlns="http://www.w3.org/2000/svg" xmlns:xlink="http://www.w3.org/1999/xlink" x="0px" y="0px"
	 viewBox="0 0 365 600" style="enable-background:new 0 0 365 600;" xml:space="preserve">
<style type="text/css">
	.st0{fill:#FF4E00;}
	.st1{fill:#FF9200;}
</style>
<g>
	<path class="st0" d="M186.7,251.3c-30.3,0-59.4-9.7-81.7-27.4c-15.2-12-28.3-28.2-36.8-45.7c-10-20.6-13.3-42.1-9.6-62.4
		c4.7-25.7,20.7-49.3,45-66.5c23.1-16.4,52.4-25.8,80.4-25.8c8.6,0,17,0.9,25.1,2.6c24.6,5.2,48.1,18.3,66.3,37
		c19.6,20.1,30.8,44.3,32.4,70c2.9,45.8-26.7,77.8-32.7,83.7C253.2,238.7,220.9,251.3,186.7,251.3z"/>
	<path class="st1" d="M183.9,25c8.5,0,16.8,0.9,24.8,2.5c24.3,5.1,47.6,18.1,65.6,36.6c19.3,19.9,30.4,43.8,32,69
		c2.8,45.2-26.4,76.7-32.2,82.6c-21.7,21.6-53.5,34-87.4,34c-30,0-58.7-9.6-80.8-27c-15-11.9-28-27.9-36.4-45.2
		c-9.9-20.3-13.2-41.5-9.5-61.5c4.7-25.3,20.4-48.6,44.4-65.6C127.3,34.3,156.2,25,183.9,25L183.9,25 M183.9,22
		c-57.7,0-116.7,38.2-126.9,93.5c-8.3,45.1,18.6,87.2,47,109.6c23.5,18.5,53.2,27.7,82.7,27.7c33.3,0,66.3-11.7,89.5-34.9
		c4.3-4.3,36.1-37.1,33.1-84.9c-3.4-55-50.8-98-99.9-108.4C201,22.9,192.5,22,183.9,22z"/>
	<polygon class="st0" points="98.7,231.5 275.5,231.5 187.1,572 	"/>
	<path class="st1" d="M273.5,233L187.1,566L100.6,233H273.5 M277.4,230H96.8l90.3,348L277.4,230z"/>
	<path class="st0" d="M192.7,554.6c-2.6-2.1-5-4.1-7.3-6.1c-1.7-1.5-3.4-3-5.1-4.6c-0.4,0.4-0.9,0.8-1.3,1.2l-1.2,1.1l-1.4-5.5
		l0.3-0.3l-0.6-0.6l-2.6-9.8l2.7,2.8c1.4,1.5,2.8,2.9,4.1,4.1c2.1-2.1,4.2-4.3,6.1-6.4c0.4-0.4,0.8-0.9,1.2-1.3
		c-4.7-6-9.2-12.2-13.4-18.5c-0.5-0.7-0.9-1.3-1.3-2c-1,0.6-2,1.2-2.9,1.8l-1.1,0.7l-1.3-5.1l0.6-0.4c0.7-0.4,1.4-0.8,2-1.3
		c-1.7-2.7-3.4-5.5-5.3-8.5l-0.1-0.1l-4.8-18.6l0.5,0.9l0.4-0.2c2.8-1.6,5.6-3.3,8.2-5c-4.9-6.1-9.5-12.5-13.6-19.1l-1.5,0.6
		l-1.3-4.9l0.2-0.1l-0.3-0.6l-5.6-21.5l4.2,8.5c2,4,4.1,7.9,6.4,11.7c3.5-1.5,6.9-3,10.3-4.7c-5.4-5.9-10.5-12.2-15.2-18.6
		c-1.5,0.5-3.2,1-5.1,1.6l-1,0.3l-1.3-4.8l0.9-0.3c1.1-0.3,2.2-0.7,3.3-1c-2.6-3.6-5.1-7.4-7.5-11.3l-0.1-0.1l-4.6-17.9l1.5,2.6
		l0.2-0.1c1.8-0.5,3.6-1,5.3-1.5c-3.9-5.4-7.6-11.1-11.1-16.9l-0.1-0.1l-5.3-20.3l4.1,7.8c1.2,2.3,2.4,4.5,3.6,6.7
		c4-0.6,8.1-1.4,12.1-2.3c-6.3-7.4-12.3-15.1-17.7-23.1c-1.3,0.2-2.6,0.4-3.9,0.6l-0.9,0.1l-1.3-4.9c0,0,2.4-0.4,3-0.5
		c-1.8-2.8-3.6-5.7-5.3-8.6l-0.1-0.1l-5.1-19.5l0.2,0.4l1.1-0.1c1.6-0.1,3-0.3,4.4-0.4c-3.5-5.6-7-11.4-10.2-17.4l-0.1-0.1
		l-3.7-14.1l1.9-0.7c1.4,2.9,2.7,5.6,4,8.2c3.4-0.1,6.9-0.3,10.4-0.6c-3.6-5.5-6.9-11.2-10-16.9c-1.5,0-3,0.1-4.5,0.1
		c-1.2,0-2.4,0-3.6,0l-0.8,0l-1.3-5l1.3,0c1.4,0,2.9,0.1,4.4,0.1c0.6,0,1.3,0,1.9,0c-2.6-5.2-5-10.5-7.2-15.9
		c-1.2,0-2.5,0.1-3.7,0.1l-0.8,0l-1.3-5l1.3,0c0.8,0,1.7,0,2.5,0c-1.6-4.2-3.1-8.5-4.5-12.8l-0.4-1.3h5.3l0.2,0.7
		c1.4,4.5,3,8.9,4.7,13.3c3.5-0.1,6.9-0.3,10.3-0.6c-1.3-4-2.6-8-3.6-12.1l-0.3-1.3h5.2l0.2,0.7c1.1,4.1,2.3,8.2,3.7,12.2
		c2.9-0.3,5.7-0.6,8.5-1c-1.5-3.5-2.9-7-4.2-10.6l-0.5-1.3h5.3l0.2,0.7c1.3,3.6,2.8,7.1,4.3,10.6c3.6-0.5,7.2-1.1,10.6-1.8
		c-1.6-2.5-3.2-5.2-4.8-8l-0.8-1.5h5.8l0.3,0.5c1.6,2.7,3.2,5.3,4.9,7.9c6-1.3,11.9-2.7,17.8-4.4c-0.6-0.9-1.1-1.7-1.6-2.5l-1-1.5
		h5.9l0.3,0.5c0.4,0.7,0.9,1.4,1.4,2.1c2.6-0.8,5.2-1.6,7.8-2.5l0.2-0.1h15.8l0.3,0.2c2.8,2.4,5.7,4.8,8.6,7c3.6-2.2,7.1-4.5,10.6-7
		l0.3-0.2h10.3l0.2,0.1c4.1,2.3,8.3,4.4,12.7,6c2.2-1.9,4.3-3.8,6.4-5.9l0.3-0.3h7.1l-1.7,1.7c-2.2,2.1-4.4,4.3-6.7,6.3
		c3.9,1.2,8,2.2,12,2.9c3.1-3.4,6-6.8,9-10.5l0.3-0.4h6.4l-1.3,1.6c-2.8,3.5-5.5,6.8-8.4,10.1c0.4,0,0.9,0.1,1.3,0.1
		c2.2,0.2,4.4,0.3,6.7,0.3l1.3,0l-1.3,5l-0.8,0c-2.3,0-4.3-0.1-6.3-0.3c-1.5-0.1-3.1-0.3-5-0.6c-4.3,4.6-8.8,9.1-13.4,13.3
		c5.9,2.3,12,4.3,18.1,5.9c0.1-0.1,3.5-3.7,3.5-3.7l-2.6,9.9l-0.2,0.2c-4.9,4.9-10,9.7-15.1,14.2c3.3,0.8,6.6,1.4,9.9,1.9l1.1,0.2
		l-1.3,4.9l-2.4,9.2c0,0-1,1.2-1.2,1.5c-0.8,1-1.7,2.1-2.7,3.3c0.5,0.1,2.6,0.5,2.6,0.5l-4.4,16.8l-0.1,0.2
		c-1.9,2.4-3.8,4.7-5.7,6.9c0.9,0.2,1.9,0.4,2.8,0.6l1,0.2l-1.3,4.9l-0.9-0.2c-1.9-0.4-3.6-0.8-5.4-1.2c-3.8,4.2-7.8,8.2-11.9,12.1
		c3.9,1.2,7.8,2.3,11.7,3.3c0.4-0.5,0.7-1.1,1.1-1.6l3.5-5.2l-3.6,14l-0.1,0.2c-3.1,4.2-6.2,8.1-9.5,11.8c1.6,0.6,3.2,1.2,5,1.8
		l0.9,0.3l-4.6,17.5l-0.1,0.1c-2.5,3.6-5.2,7.2-7.9,10.5c1.3,0.6,2.6,1.3,3.9,1.8l0.1,0l1.4-2.7l-0.8,3l-4.1,15.9l-0.1,0.1
		c-1.2,1.9-2.2,3.6-3.2,5.1c0.1,0.1,1.7,0.9,1.7,0.9l-1.3,5l-1.3-0.7c-0.7-0.3-1.3-0.7-2-1c-4.4,6.3-9.2,12.4-14.4,18.1
		c3.5,2.2,7.2,4.3,11,6.3l0.1,0.1l1.2-2l-0.6,2.3l-3.6,13.9l-0.1,0.1c-2,2.9-4,5.7-6.1,8.3c0.9,0.7,1.9,1.3,2.8,1.9l0.6,0.4
		l-1.3,5.1l-1.2-0.8c-1.4-0.9-2.7-1.9-4.1-2.8c-3.4,4-6.9,7.8-10.6,11.4c-0.9,0.8-1.8,1.7-2.8,2.7c4,3.5,8.3,7,12.7,10.2l0.5,0.4
		l-3.4,13.1l-0.1,0.1c-3.1,4.6-6.5,9.1-10,13.3c1.6,1.9,3.1,3.9,4.7,5.8l0.3,0.4l-1.5,5.9l-1.2-1.5c-2-2.3-3.8-4.6-5.6-6.7
		c-0.2,0.2-0.4,0.5-0.6,0.7c-2,2.2-4.1,4.4-6.2,6.5c1.6,1.5,3.2,2.9,4.8,4.4c1.9,1.7,4,3.4,6.1,5.1l0.5,0.4l-1.4,5.3L192.7,554.6z
		 M177,505.9c0.4,0.7,0.9,1.3,1.3,2c4,5.9,8.2,11.7,12.6,17.4c4.9-5.9,9.4-12.2,13.4-18.8c-4.7-3.5-9.3-7.2-13.7-11
		C186.3,499.2,181.8,502.7,177,505.9z M163.7,484.1c3.4,6.1,6.9,12,10.5,17.6c4.4-3,8.6-6.3,12.6-9.7c-1.8-1.7-3.6-3.4-5.2-5.1
		c-3.2-3.2-6.4-6.7-9.4-10.2c-3.1,2-6.2,3.9-9.4,5.8L163.7,484.1z M176.5,473.9c2.8,3.3,5.8,6.5,8.8,9.5c1.7,1.8,3.5,3.5,5.4,5.3
		c1.2-1.1,2.2-2,3.1-2.9c3.4-3.3,6.8-6.9,10-10.7c-4.8-3.5-9.5-7.3-14.1-11.2C185.4,467.4,181,470.8,176.5,473.9z M193.5,460.7
		c4.4,3.7,8.9,7.3,13.4,10.6c3.8-4.8,7.4-10.1,10.7-15.5c-4-2.2-8-4.5-11.9-6.9C201.8,453,197.7,457,193.5,460.7L193.5,460.7z
		 M160.2,451.8c4,6.3,8.4,12.5,13.1,18.3c4.3-3,8.5-6.1,12.6-9.5c-1.9-1.7-3.6-3.3-5.3-4.9c-3.1-2.9-6.2-6-9.1-9.1
		C167.8,448.5,164,450.2,160.2,451.8z M176,444.2c2.6,2.8,5.3,5.4,7.9,7.9c1.8,1.7,3.7,3.5,5.7,5.2c0.2-0.2,0.4-0.3,0.6-0.5
		c3.8-3.4,7.5-6.9,11.2-10.8c-4.5-2.9-8.9-6-13.1-9.3C184.4,439.4,180.3,441.9,176,444.2z M192.7,433.8c4,3,8.1,5.9,12.2,8.5
		c5-5.6,9.8-11.5,14.2-17.8c-2.9-1.6-5.8-3.3-8.7-5C204.9,424.7,198.9,429.5,192.7,433.8z M157.7,422.5c4.6,6.2,9.6,12.2,14.8,17.9
		c4-2.1,7.9-4.4,11.7-6.9c-5.8-4.6-11.4-9.6-16.6-14.8C164.3,420.1,161,421.3,157.7,422.5z M172.5,416.5c5.1,4.9,10.5,9.7,16.1,14.1
		c6.1-4.2,12-8.8,17.5-13.8c-5-3.2-10-6.6-14.8-10.1C185.1,410.3,178.8,413.6,172.5,416.5z M214.2,416c2.6,1.5,5.2,3,7.7,4.4
		c3.1-4.6,6-9.5,8.8-14.6l0-0.1c-1.6-0.8-3.2-1.5-4.8-2.3C222.3,407.8,218.4,412,214.2,416z M141.5,397.8c4,7.1,8.4,13.9,13.1,20.5
		c3-1.1,6.1-2.2,9.1-3.4l-0.1-0.1c-5.6-5.9-11-12.1-16-18.7C145.6,396.7,143.5,397.3,141.5,397.8z M195.8,403.9
		c4.6,3.3,9.3,6.5,14.1,9.4c4-3.8,7.9-7.9,11.6-12.2c-4.1-2.1-8.2-4.4-12.2-6.7C204.9,397.7,200.4,400.9,195.8,403.9z M152.7,394.4
		c4.6,5.9,9.5,11.6,14.5,16.9c0.5,0.5,1,1,1.5,1.5c6.2-2.7,12.3-5.9,18.1-9.3c-6.2-4.8-12.3-9.9-18-15.2
		C163.5,390.5,158.1,392.6,152.7,394.4z M173.8,386.1c5.7,5.1,11.6,10,17.6,14.6c4.5-2.8,8.9-5.8,13.1-9.1
		c-6.1-3.7-12-7.7-17.7-11.9C182.6,381.9,178.2,384.1,173.8,386.1z M213.4,391c3.7,2.1,7.5,4.2,11.3,6.1c4.7-5.7,9.1-11.9,13.1-18.3
		l1.9-3l-0.2-0.1c-2.7-0.9-5-1.8-7.2-2.7C226.4,379.5,220.1,385.5,213.4,391z M138.4,373.5c3.4,5.7,7.1,11.3,11.1,16.6
		c5.2-1.7,10.3-3.6,15.3-5.6c-1.3-1.3-2.5-2.4-3.6-3.5c-3.2-3.2-6.5-6.7-9.6-10.2C147.3,371.9,142.8,372.8,138.4,373.5z M191.7,377
		c5.6,4,11.3,7.8,17.1,11.3c6.5-5.3,12.8-11.1,18.5-17.2c-5.3-2.2-10.5-4.6-15.5-7.1c-2.6,1.9-5.2,3.7-7.7,5.4
		C200.1,371.9,196.1,374.5,191.7,377z M157.1,369.4c2.6,2.8,5.1,5.5,7.7,8.1c1.5,1.5,3.2,3.1,5,4.9c4.2-1.9,8.5-3.9,12.6-6.1
		c-4.4-3.4-8.8-7-13-10.7C165.3,367,161.2,368.3,157.1,369.4z M174.9,363.7c4,3.4,8.2,6.8,12.4,10c4.9-2.7,9.6-5.6,14.1-8.6
		c1.7-1.2,3.6-2.4,5.5-3.8c-4-2.1-7.9-4.4-11.7-6.7c-3.1,1.6-5.7,2.9-8.3,4.1C183,360.5,178.9,362.1,174.9,363.7z M216.3,360.6
		c4.8,2.3,9.7,4.5,14.6,6.5c3.6-4.1,7.1-8.4,10.4-12.8c-4.3-1.1-8.5-2.3-12.6-3.7l-0.2-0.1C224.6,353.9,220.6,357.3,216.3,360.6z
		 M135.6,342.5c5.5,7.9,11.4,15.6,17.7,22.8c4-1,8-2.2,11.9-3.5c-2.6-2.4-5.1-4.8-7.6-7.2c-4.4-4.4-8.8-9.1-13-14
		C141.6,341.3,138.6,341.9,135.6,342.5z M150.1,339.2c3.6,4.1,7.3,8,11.1,11.8c3,3,6.2,6,9.4,8.9c4.9-1.8,9.7-3.7,14.3-5.8
		c1.7-0.8,3.5-1.6,5.4-2.6c-8.1-5.3-15.8-11.1-23.2-17.3C161.6,336,155.8,337.7,150.1,339.2z M200.4,351.9c3.6,2.2,7.3,4.2,11,6.2
		c4-3,7.9-6.1,11.6-9.4c-3.5-1.3-7-2.7-10.4-4.2C208.5,347.1,204.4,349.6,200.4,351.9z M172.6,332.3c7.2,6,14.9,11.5,22.8,16.6
		c3.9-2.1,7.9-4.4,11.7-6.8c-8.5-4-16.6-8.6-24.1-13.8c-2.7,1.1-4.9,2-7.1,2.8C174.8,331.5,173.7,331.9,172.6,332.3z M217.5,341.1
		c3.2,1.3,6.5,2.6,9.8,3.7c4.1-3.7,8-7.7,11.8-11.7c-2.7-0.8-5.4-1.6-8-2.4C226.8,334.3,222.2,337.8,217.5,341.1z M188.5,325.9
		c7.4,4.9,15.3,9.2,23.6,12.9c4.5-3.1,9.1-6.5,13.5-10.1c-7.7-2.8-15.1-6.2-22.2-10C198.6,321.2,193.6,323.6,188.5,325.9z
		 M120.6,318c3.7,6.8,7.7,13.5,11.9,19.9c2.8-0.5,5.7-1.1,8.4-1.7c-5.5-6.6-10.7-13.7-15.5-20.9c-1.9,0.2-3.9,0.4-5.9,0.6L120.6,318
		z M131,314.6c4.8,7,10,13.8,15.5,20.3c5.4-1.3,10.9-2.9,16.3-4.6c-3.9-3.5-7.6-7.1-11.1-10.7c-2.3-2.3-4.5-4.8-6.8-7.4
		C140.2,313.2,135.6,314,131,314.6z M235.6,326.8c2.5,0.8,4.9,1.5,7.3,2.1c4-4.5,7.9-9.3,11.5-14.2l2.6-3.5l-0.6-0.1
		c-1.4-0.3-2.8-0.5-4.2-0.8C247,316.1,241.4,321.6,235.6,326.8z M150.4,311c1.6,1.8,3.2,3.5,4.8,5.1c4.1,4.2,8.5,8.4,13,12.4
		c2.2-0.8,4.1-1.5,6-2.2c1.3-0.5,2.7-1,4.1-1.6c-6.6-4.9-12.9-10.3-18.7-16.1C156.5,309.5,153.5,310.3,150.4,311z M208.7,315.8
		c6.8,3.5,14,6.6,21.4,9.2c5.7-4.9,11.3-10.3,16.5-16c-6.1-1.5-12.1-3.4-17.9-5.5C222.3,307.8,215.5,312,208.7,315.8z M165,307
		c5.8,5.6,12.1,10.8,18.7,15.5c4.9-2.1,9.8-4.4,14.6-6.8c-6.8-4-13.3-8.5-19.4-13.5l-0.2,0.1c-0.9,0.4-1.8,0.7-2.7,1.1
		C172.4,304.6,168.8,305.9,165,307z M184.1,300.1c6.1,4.7,12.5,9,19.3,12.9c6.7-3.6,13.3-7.6,19.6-11.8c-7-2.9-13.8-6.2-20.2-10
		C196.8,294.5,190.5,297.5,184.1,300.1z M116.9,291.4c3.4,6.3,7.1,12.6,11,18.6c4.3-0.6,8.7-1.3,13.1-2.1c-4.6-5.5-9-11.3-13.1-17.3
		C124.2,290.9,120.5,291.2,116.9,291.4z M133.5,289.9c4.1,5.8,8.5,11.4,13.1,16.8c2.9-0.6,5.9-1.4,8.9-2.2c-1-1.1-1.9-2.1-2.8-3.1
		c-3.6-4.1-7.1-8.4-10.3-12.8C139.5,289.1,136.5,289.6,133.5,289.9z M233.7,299.9c5.4,1.9,11,3.5,16.7,4.8c1.7-1.9,3.1-3.6,4.4-5.2
		c1.8-2.1,3.5-4.3,5.3-6.7l0.8-1c-4.6-0.7-8.9-1.6-13.1-2.8C243.3,292.8,238.5,296.5,233.7,299.9z M147.9,287.6
		c2.7,3.6,5.6,7.2,8.6,10.5c1.4,1.6,2.9,3.2,4.5,4.9c4.5-1.3,8.9-2.8,13.2-4.4l0.2-0.1c-2.5-2.1-4.9-4.4-7.1-6.6
		c-2.3-2.3-4.6-4.7-6.9-7.2C156.2,285.8,152,286.8,147.9,287.6z M208,288.4c6.4,3.6,13.1,6.7,20,9.4c4.8-3.3,9.5-6.9,14-10.5
		c-6.7-2.1-13.2-4.8-19.5-7.9C217.8,282.6,212.9,285.6,208,288.4z M165.8,283.3c1.6,1.8,3.3,3.5,5,5.1c2.8,2.8,5.7,5.4,9,8.1
		c6.1-2.5,12.2-5.3,18.1-8.3c-5.1-3.2-10.1-6.8-14.7-10.5l-0.2-0.2c-2.9,1.1-5.6,2.1-8.2,3C171.8,281.5,168.8,282.4,165.8,283.3z
		 M188.2,275.3c4.7,3.6,9.6,7,14.7,10.1c5-2.7,9.8-5.7,14.6-8.8c-0.5-0.3-0.9-0.5-1.4-0.8c-4.1-2.4-8.2-5.1-12.1-8
		C198.9,270.6,193.6,273.1,188.2,275.3z M120.3,268.7c3.1,5.6,6.5,11.2,10,16.6c3-0.3,6-0.7,8.9-1.2c-3.5-5.1-6.7-10.5-9.6-16.1
		C126.5,268.3,123.4,268.5,120.3,268.7z M227.2,276.1c6.2,3,12.8,5.5,19.4,7.4c5.5-4.7,11-9.7,16.2-14.9c-6.2-1.7-12.3-3.8-18.3-6.2
		C239,267.2,233.2,271.8,227.2,276.1z M134.9,267.4c2.9,5.4,6.2,10.7,9.7,15.8c4.1-0.8,8.1-1.6,12.1-2.6c-3.9-4.7-7.7-9.7-11-14.8
		C142.1,266.3,138.5,266.9,134.9,267.4z M151,264.6c3.4,5,7.1,9.9,11.1,14.5c3.8-1.1,7.4-2.2,10.9-3.4c1.8-0.6,3.6-1.3,5.5-1.9
		c-4.7-4-9.1-8.4-13.2-12.9c-3.7,1.1-7,2-10.2,2.8C153.9,264,152.5,264.3,151,264.6z M208.9,265.3c3.3,2.3,6.5,4.4,9.7,6.3
		c1.1,0.6,2.3,1.3,3.5,2c5.9-4.1,11.7-8.6,17.3-13.4c-0.1-0.1-0.3-0.1-0.4-0.2c-4-1.8-8.1-3.8-12-6
		C221.2,258,215.1,261.8,208.9,265.3z M170.6,259.3c4.1,4.4,8.6,8.6,13.2,12.4c5.3-2.2,10.6-4.6,15.8-7.2
		c-4.4-3.5-8.6-7.4-12.6-11.5C181.7,255.4,176.1,257.5,170.6,259.3z M110.3,247.9c2.3,5.4,4.8,10.7,7.4,15.9
		c3.1-0.1,6.3-0.3,9.4-0.6c-2.5-5.2-4.8-10.6-6.8-16C117,247.5,113.6,247.7,110.3,247.9z M125.5,246.7c2.1,5.4,4.4,10.8,7,15.9
		c3.4-0.4,6.8-0.9,10.3-1.5c-3-5-5.9-10.2-8.4-15.4C131.5,246.1,128.5,246.4,125.5,246.7z M191.9,250.8c3.9,4,8.2,7.7,12.6,11.2
		c6.1-3.3,12-6.9,17.7-10.8c-4.8-2.8-9.4-5.8-13.8-9C203,245.3,197.5,248.2,191.9,250.8z M139.6,244.9c2.6,5.2,5.4,10.3,8.5,15.2
		c2.1-0.4,4-0.9,5.9-1.3c2.4-0.6,4.8-1.2,7.7-2c-3.8-4.4-7.4-9.1-10.6-13.9C147.4,243.6,143.5,244.3,139.6,244.9z M231.5,250.7
		c3.2,1.7,6.4,3.2,9.5,4.7c0.8,0.4,1.6,0.7,2.4,1.1l0.1,0c4.3-3.9,8.5-8,12.6-12.2c-4.2-0.8-8.3-2-12.3-3.4
		C239.9,244.3,235.8,247.6,231.5,250.7z M156.3,241.8c3.3,4.6,6.8,9.1,10.6,13.4c5.6-1.8,11.1-3.8,16.5-6.1
		c-3.3-3.7-6.5-7.7-9.4-11.8C168.2,239,162.3,240.5,156.3,241.8z M213.1,239.3c4.4,3.1,9,6,13.6,8.7c4.1-2.9,8-6,11.9-9.2
		c-4.9-2-9.6-4.4-14-7.2C220.8,234.3,217,236.9,213.1,239.3z M179.1,235.8c2.8,3.9,5.9,7.6,9.1,11.2c5.4-2.5,10.7-5.2,15.8-8.1
		c-3.4-2.6-6.6-5.4-9.8-8.2l0,0l-0.6,0.2C188.8,232.7,183.9,234.3,179.1,235.8z"/>
	<path class="st1" d="M273.9,230c-2.8,3.6-6,7.4-9.6,11.5c1.1,0.1,2.1,0.3,3.2,0.3c2.3,0.2,4.5,0.3,6.7,0.3l-0.8,3
		c-2,0-4.1-0.1-6.2-0.3c-1.9-0.2-3.7-0.4-5.5-0.6c-4.4,4.8-9.4,9.7-14.9,14.8c7,2.8,13.8,5,20.3,6.7c0.4-0.5,0.9-0.9,1.3-1.3
		l-1.5,5.9c-5,5.1-10.5,10.2-16.5,15.4c4,1,8,1.8,11.9,2.4l-0.8,2.9c-4.6-0.7-9.2-1.7-14-3c-5,4.2-10.3,8.3-16,12.3
		c6.7,2.4,13.1,4.2,19.2,5.6c1.7-1.9,3.3-3.8,4.9-5.7c1.9-2.3,3.6-4.5,5.3-6.7l-1.9,7.3c-0.4,0.4-0.7,0.9-1.1,1.3
		c-1.2,1.5-2.5,3-3.8,4.5c1.1,0.2,2.1,0.4,3.2,0.6l-0.8,2.9c-1.5-0.3-3.1-0.6-4.7-1c-5.4,6.1-11.5,12.2-18.3,18.1
		c3.3,1.1,6.5,2,9.6,2.8c4.4-5,8.4-9.9,12-14.7l-1.9,7.4c-2.1,2.7-4.4,5.4-6.8,8.1c1.5,0.4,3,0.7,4.4,1l-0.8,2.9
		c-1.9-0.4-3.9-0.9-5.9-1.4c-4.1,4.6-8.6,9.1-13.5,13.6c4.9,1.6,9.6,2.9,14.1,4c0.6-0.9,1.2-1.7,1.8-2.6l-2.1,8.2
		c-3.1,4.2-6.6,8.5-10.3,12.8c2.2,0.8,4.3,1.6,6.4,2.4l-0.8,2.9c-2.5-0.9-5.1-1.8-7.8-2.9c-6,6.6-12.7,13.1-20.4,19.3
		c4.6,2.7,9,5.1,13.3,7.3c5.2-6.3,9.7-12.7,13.7-19l-2.3,9c-2.7,3.8-5.5,7.7-8.6,11.5c1.7,0.8,3.4,1.6,5,2.4l-0.8,3
		c-2-0.9-4.1-1.9-6.2-3c-4,4.8-8.4,9.4-13.1,14c3.3,2,6.5,3.8,9.7,5.6c3.4-5.1,6.5-10.3,9.3-15.4l-2.8,10.9c-1.2,2-2.5,4-3.8,6
		c0.7,0.4,1.3,0.7,2,1l-0.8,3c-1-0.5-2-1-2.9-1.5c-4.6,6.6-9.8,13.2-15.6,19.6c4.1,2.6,8.2,4.9,12,7l-0.8,3
		c-4.3-2.3-8.7-4.8-13.3-7.7c-3.9,4.2-8.2,8.3-12.7,12.3c-0.3,0.3-0.6,0.5-0.9,0.8c5.1,4.4,10.2,8.4,15.2,12
		c4.4-5.5,8.2-11.1,11.6-16.7l-2.4,9.3c-2.1,3.1-4.3,6.1-6.7,9.1c1.2,0.9,2.5,1.7,3.7,2.6l-0.8,3.1c-1.6-1.1-3.2-2.2-4.8-3.3
		c-3.4,4.1-7.1,8.1-11.1,12c-1.2,1.2-2.4,2.3-3.6,3.4c4.6,4.1,9.2,7.7,13.6,11l-3.2,12.3c-3.1,4.6-6.6,9.3-10.5,13.9
		c1.7,2.2,3.5,4.3,5.2,6.4l-0.9,3.6c-2.1-2.5-4.2-5-6.3-7.7c-0.5,0.5-0.9,1.1-1.4,1.6c-2.3,2.6-4.6,5-6.9,7.2
		c1.8,1.7,3.7,3.4,5.6,5.1c2,1.8,4.1,3.5,6.1,5.1l-0.8,3.2c-2.4-1.9-4.9-3.9-7.3-6c-2-1.7-3.9-3.5-5.8-5.3c-0.7,0.6-1.3,1.2-2,1.8
		l-0.9-3.3c0.2-0.2,0.4-0.4,0.7-0.6c-0.4-0.4-0.7-0.7-1.1-1.1l-1.5-5.8c1.6,1.6,3.2,3.3,4.8,4.9c2.3-2.2,4.6-4.6,6.8-7.1
		c0.6-0.7,1.2-1.3,1.7-2c-4.7-6-9.3-12.3-13.9-19.1c-0.6-0.9-1.3-1.9-1.9-2.8c-1.3,0.8-2.5,1.6-3.8,2.3l-0.8-3
		c1-0.6,1.9-1.2,2.9-1.8c-2-3.1-3.9-6.2-5.8-9.3l-2.8-10.9c3.4,6.1,7.1,12.3,11.1,18.6c4.7-3.2,9.6-6.9,14.4-11.1
		c-2-1.9-4-3.8-6-5.8c-3.6-3.6-6.8-7.2-9.9-10.9c-3.5,2.3-7,4.4-10.4,6.4l-0.8-3c3-1.7,6.1-3.6,9.2-5.7c-5.7-7-10.5-13.9-14.6-20.6
		c-0.4,0.2-0.8,0.3-1.2,0.5l-0.8-2.9c0.1-0.1,0.3-0.1,0.4-0.2c-0.3-0.5-0.6-1-0.9-1.5l-3.2-12.2c2,4,4.3,8.2,6.8,12.5
		c4-1.7,8.2-3.5,12.4-5.7c-6.1-6.7-11.6-13.4-16.4-20c-2,0.6-3.9,1.2-5.8,1.8l-0.8-2.9c1.5-0.5,3.1-0.9,4.7-1.4
		c-3-4.2-5.7-8.3-8.2-12.3l-2.7-10.4c4,7,8.6,14.3,13.9,21.7c3.6-1.2,7.4-2.7,11.3-4.3c-0.4-0.4-0.8-0.8-1.2-1.2
		c-6.1-6.3-11.5-12.7-16.3-19.2c-2.7,0.8-5.3,1.6-7.8,2.3l-0.8-2.9c2.2-0.6,4.4-1.2,6.7-1.9c-4.4-6-8.3-12-11.8-18l-3-11.6
		c1.3,2.4,2.6,4.8,4,7.3c4.6-0.7,9.4-1.7,14.5-2.8c-7.2-8.3-13.5-16.6-19-24.8c-1.5,0.3-3,0.5-4.5,0.7l-0.8-2.9
		c1.1-0.2,2.3-0.4,3.5-0.6c-2.2-3.3-4.2-6.6-6.2-9.9l-2.9-11.3c3.6,6.6,7.6,13.5,12.3,20.6c3.5-0.6,7.1-1.4,10.7-2.2
		c-6.3-7.5-11.9-15.1-16.9-22.6c-2.4,0.3-4.8,0.5-7.1,0.7l-0.8-3c2-0.2,3.9-0.3,6-0.6c-4.1-6.4-7.7-12.6-11-18.7l-3.6-14
		c1.3,2.9,2.7,5.8,4.3,8.8c4-0.1,8.3-0.4,12.8-0.8c-4.2-6.4-7.9-12.7-11.1-18.8c-1.7,0-3.4,0.1-5.1,0.1c-1.2,0-2.4,0-3.6,0l-0.8-3
		c1.4,0,2.9,0.1,4.4,0.1c1.1,0,2.3,0,3.5,0c-3.2-6.3-5.9-12.3-8.2-17.9c-1.5,0-2.9,0.1-4.4,0.1l-0.8-3c1.3,0,2.6,0,4-0.1
		c-2-5.2-3.6-9.9-5-14.1h3.2c1.3,4.2,3,8.9,5,14c4-0.1,8.1-0.4,12.4-0.7c-1.7-4.8-3-9.3-4-13.3h3.1c1,3.9,2.3,8.3,4,13
		c3.5-0.3,7-0.7,10.6-1.2c-1.9-4.2-3.5-8.2-4.8-11.8h3.2c1.3,3.5,2.8,7.3,4.7,11.3c4.4-0.6,8.7-1.4,12.8-2.2
		c-2.1-3.2-3.9-6.3-5.5-9.1h3.5c1.6,2.7,3.3,5.5,5.3,8.5c6.9-1.4,13.6-3.1,19.8-4.9c-0.8-1.3-1.6-2.5-2.3-3.6h3.6
		c0.6,0.9,1.2,1.8,1.8,2.7c2.9-0.9,5.8-1.8,8.5-2.7h9c-5,1.8-10.2,3.6-15.8,5.3c2.9,4,6.4,8.4,10.5,12.9c6.5-2.9,12.5-6.1,17.8-9.2
		c-4.1-3.1-7.7-6.2-10.9-9.1h4.5c2.8,2.4,5.8,4.9,9.2,7.4c4.1-2.5,7.9-5,11.3-7.4h9.7c3.7,2.1,8.2,4.3,13.4,6.3
		c2.5-2.2,4.8-4.3,6.9-6.3h4.3c-2.3,2.3-4.9,4.8-7.9,7.5c4.4,1.5,9.2,2.7,14.4,3.5c3.5-3.8,6.6-7.5,9.4-11H273.9 M226.8,249.2
		c5.1-3.7,9.7-7.3,13.7-10.7c-6.6-2.6-11.9-5.6-16-8.1c-3.9,2.8-8.3,5.8-13.2,8.9C215.9,242.6,221.1,246,226.8,249.2 M166.6,256.4
		c6.6-2.1,12.8-4.4,18.5-6.9c-4.2-4.7-7.8-9.2-10.7-13.3c-6.3,1.8-12.9,3.5-19.8,5C158,246,162,251.2,166.6,256.4 M243.8,257.6
		c5.3-4.8,10.1-9.5,14.4-14c-5.3-1-10.1-2.3-14.5-3.9c-4.1,3.5-8.8,7.3-14,11.1c3.5,1.9,7.1,3.7,11,5.4
		C241.7,256.7,242.8,257.2,243.8,257.6 M204.4,263.2c7.2-3.9,13.8-8,19.7-12.1c-5.7-3.3-10.9-6.7-15.6-10.2
		c-5.5,3.2-11.6,6.5-18.2,9.6C194.3,254.8,199,259.1,204.4,263.2 M147.6,261.2c2.2-0.4,4.4-0.9,6.6-1.4c3.2-0.8,6.2-1.6,9.2-2.5
		c-4.6-5.3-8.6-10.5-12-15.5c-4.3,0.9-8.8,1.6-13.3,2.3C140.7,249.5,143.8,255.3,147.6,261.2 M131.9,263.7c4-0.5,8.2-1.1,12.5-1.9
		c-3.8-6-6.9-11.8-9.4-17.3c-0.2,0-0.5,0.1-0.7,0.1c-3.5,0.5-6.9,0.9-10.2,1.2C126.2,251.5,128.7,257.5,131.9,263.7 M117.1,264.8
		c3.7-0.1,7.6-0.4,11.6-0.8c-3.1-6.3-5.6-12.3-7.7-17.9c-4.2,0.4-8.3,0.6-12.2,0.8C111.1,252.5,113.8,258.5,117.1,264.8
		 M183.6,272.9c6.3-2.5,12.3-5.3,17.8-8.2c-5.4-4.2-10.1-8.6-14.2-12.9c-5.7,2.5-11.9,4.9-18.5,7
		C173.2,263.6,178.1,268.3,183.6,272.9 M222.2,274.7c7-4.8,13.3-9.8,19.1-14.9c-0.6-0.3-1.2-0.5-1.9-0.8c-4.4-2-8.6-4.1-12.5-6.2
		c-5.9,4.2-12.6,8.4-19.9,12.4c3.5,2.5,7.1,5,11.1,7.3C219.5,273.2,220.9,274,222.2,274.7 M161.8,280.2c3.8-1,7.7-2.2,11.6-3.5
		c2.4-0.8,4.8-1.7,7.1-2.6c-5.5-4.7-10.5-9.5-14.8-14.3c-3.5,1-7,2-10.7,2.9c-1.9,0.4-3.7,0.9-5.6,1.2
		C152.9,269.3,157,274.8,161.8,280.2 M246.9,284.5c6.6-5.5,12.5-11.1,17.9-16.5c-6.6-1.8-13.4-4-20.4-6.9
		c-5.8,5.1-12.1,10.2-19.1,15.1C232.6,279.8,239.8,282.5,246.9,284.5 M144.2,284.2c4.6-0.8,9.4-1.9,14.3-3.1
		c-4.7-5.5-8.8-11.1-12.4-16.5c-4.4,0.8-8.7,1.5-12.8,2C136.4,272.3,140,278.3,144.2,284.2 M202.9,286.6c5.8-3.2,11.3-6.6,16.5-10.1
		c-0.9-0.5-1.9-1-2.8-1.6c-4.5-2.6-8.7-5.4-12.6-8.3c-5.5,2.9-11.5,5.7-17.8,8.3C191.8,279.4,197.3,283.3,202.9,286.6 M129.8,286.3
		c3.6-0.4,7.3-0.9,11.1-1.5c-4.2-6-7.7-12.1-10.8-17.9c-4,0.4-7.8,0.7-11.5,0.8C121.9,273.8,125.6,280,129.8,286.3 M179.5,297.7
		c7.2-2.9,13.9-6,20.3-9.4c-5.4-3.3-10.8-7.1-16.1-11.4c-0.2-0.2-0.4-0.4-0.7-0.5c-2.8,1.1-5.8,2.2-8.8,3.2
		c-3.5,1.2-6.9,2.2-10.3,3.2c1.9,2.1,4,4.2,6.1,6.3C173.2,292.1,176.3,295,179.5,297.7 M228.2,298.9c5.7-3.9,11-8,16-12.1
		c-7.1-2.1-14.4-5-21.6-8.7c-5.2,3.5-10.7,7-16.5,10.2C213.4,292.7,220.9,296.1,228.2,298.9 M160.7,304.1c4.5-1.3,9.1-2.8,13.8-4.6
		c0.6-0.2,1.2-0.5,1.8-0.7c-2.8-2.4-5.6-5-8.4-7.7c-2.6-2.5-5-5-7.2-7.6c-5,1.3-9.9,2.4-14.6,3.3c2.9,4,6.1,7.9,9.6,11.8
		C157.3,300.6,159,302.4,160.7,304.1 M146.2,307.8c3.6-0.8,7.4-1.7,11.1-2.8c-1.3-1.4-2.6-2.8-3.9-4.3c-3.9-4.4-7.4-8.8-10.6-13.3
		c-3.8,0.7-7.5,1.2-11.1,1.6C136,295.3,140.8,301.6,146.2,307.8 M127.4,311.1c4.9-0.6,10.1-1.5,15.5-2.5c-5.4-6.4-10.2-12.7-14.5-19
		c-4.6,0.5-9,0.8-13.1,0.9C118.8,297.1,122.8,304,127.4,311.1 M203.4,314.1c7.7-4.1,15-8.6,21.7-13.1c-7.3-2.9-14.8-6.5-22.3-10.9
		c-6.5,3.5-13.4,6.8-20.7,9.7C189.2,305.4,196.3,310.1,203.4,314.1 M183.5,323.6c5.8-2.5,11.4-5.1,16.8-7.9
		c-7.1-4.1-14.3-9-21.3-14.7c-1.1,0.4-2.3,0.9-3.4,1.3c-4.2,1.6-8.4,2.9-12.5,4.2C169.7,313.1,176.6,318.7,183.5,323.6 M230.3,326.1
		c6.7-5.8,12.8-11.8,18.2-17.7c-6.3-1.5-13-3.5-19.9-6.1c-6.8,4.7-14.2,9.2-22,13.5C214.7,320.1,222.7,323.5,230.3,326.1 M168,329.6
		c2.2-0.7,4.3-1.5,6.5-2.4c1.9-0.7,3.9-1.5,5.8-2.3c-7-5-13.9-10.8-20.5-17.5c-3.8,1.1-7.6,2-11.3,2.9c1.9,2.1,3.9,4.3,5.9,6.4
		C158.9,321.4,163.4,325.7,168,329.6 M146.1,336.1c6-1.5,12.2-3.2,18.6-5.3c-4.2-3.7-8.3-7.6-12.4-11.9c-2.5-2.6-4.9-5.2-7.1-7.8
		c-5.5,1.2-10.8,2-15.9,2.7C134.2,321.2,139.8,328.7,146.1,336.1 M212.2,339.9c5.5-3.7,10.6-7.6,15.4-11.6
		c-7.8-2.8-15.9-6.3-24.2-10.8c-5.4,2.9-11.1,5.6-17,8.1C195.1,331.5,203.7,336.1,212.2,339.9 M195.4,350c4.8-2.6,9.4-5.3,13.8-8.1
		c-8.6-3.9-17.4-8.8-26.1-14.8c-2.5,1-5,2.1-7.6,3c-1.7,0.6-3.3,1.2-5,1.8C178.9,338.9,187.2,344.8,195.4,350 M227.5,346
		c4.8-4.4,9.3-8.9,13.4-13.4c-3.2-0.9-6.6-1.9-10-3c-4.8,4.1-10,8-15.5,11.8C219.6,343.1,223.6,344.6,227.5,346 M170.3,361.1
		c4.9-1.7,9.9-3.7,14.9-6c2.4-1.1,4.7-2.2,7-3.4c-8.3-5.3-16.7-11.4-25-18.6c-6.5,2.2-12.9,4-19.1,5.6c3.8,4.4,7.9,8.7,12.2,13.1
		C163.7,355,167,358.1,170.3,361.1 M153,366.4c4.6-1.2,9.3-2.5,14.1-4.2c-2.9-2.7-5.9-5.4-8.8-8.4c-4.8-4.8-9.2-9.6-13.3-14.4
		c-3.8,0.9-7.5,1.7-11.1,2.4C139.4,349.9,145.7,358.1,153,366.4 M211.5,359.2c4.8-3.6,9.3-7.2,13.5-11c-4.1-1.4-8.2-3.1-12.5-4.9
		c-4.5,3-9.2,5.8-14.1,8.5C202.8,354.5,207.2,357,211.5,359.2 M231.2,368.3c4.4-4.9,8.3-9.8,11.8-14.6c-4.4-1.1-9.1-2.4-14-4
		c-0.3-0.1-0.5-0.2-0.8-0.3c-4.3,3.9-8.9,7.7-13.8,11.4C220.2,363.6,225.9,366.1,231.2,368.3 M187.2,374.9c4.8-2.7,9.8-5.6,14.7-8.9
		c2.4-1.6,4.6-3.2,6.9-4.8c-4.4-2.3-9-4.9-13.5-7.7c-2.8,1.5-5.7,2.9-8.7,4.3c-4.6,2.1-9.1,3.9-13.6,5.6
		C177.7,367.5,182.5,371.3,187.2,374.9 M208.9,389.5c7.6-6.1,14.3-12.4,20.2-18.8c-5.5-2.3-11.3-4.9-17.3-7.9
		c-2.6,1.9-5.4,3.9-8.2,5.7c-4.6,3.1-9.2,5.8-13.7,8.4C196.3,381.6,202.7,385.8,208.9,389.5 M169.6,383.6c4.8-2.1,9.7-4.5,14.7-7.1
		c-4.8-3.7-9.7-7.7-14.6-12c-4.9,1.7-9.8,3.2-14.4,4.4c2.8,3.1,5.7,6.2,8.8,9.3C165.9,380,167.8,381.8,169.6,383.6 M149.1,391.3
		c5.5-1.8,11.4-3.9,17.5-6.5c-1.6-1.5-3.1-3-4.7-4.5c-3.5-3.5-6.8-7.1-10-10.6c-5.3,1.3-10.3,2.3-15.1,3.1
		C140.4,378.9,144.5,385.1,149.1,391.3 M191.4,401.9c5.3-3.3,10.3-6.8,15-10.4c-6.3-3.8-12.8-8.1-19.4-13
		c-5.1,2.7-10.1,5.2-14.9,7.4C178.5,391.7,185,397.1,191.4,401.9 M168.4,413.9c6.5-2.9,13.3-6.3,20.2-10.4
		c-6.5-4.9-13.1-10.4-19.6-16.4c-6.3,2.7-12.3,4.9-18,6.8c4.6,6.1,9.8,12.1,15.5,18.1C167.1,412.6,167.8,413.3,168.4,413.9
		 M209.9,414.6c4.7-4.5,9-9.1,13-13.8c-4.4-2.3-9.1-4.8-13.8-7.6c-4.7,3.7-9.8,7.3-15.1,10.7C199.4,407.8,204.7,411.3,209.9,414.6
		 M188.5,431.9c7-4.8,13.4-9.9,19.2-15.2c-5.4-3.3-10.9-7.1-16.4-11.2c-7,4.2-13.8,7.8-20.5,10.7C176.6,422,182.6,427.2,188.5,431.9
		 M172.3,441.6c4.5-2.4,9-5,13.6-8c-6-4.8-12.1-10.1-18.1-16.1c-4,1.7-7.9,3.2-11.7,4.5C160.9,428.5,166.3,435.1,172.3,441.6
		 M205.1,443.7c5.8-6.3,10.9-12.9,15.5-19.4c-3.3-1.8-6.8-3.8-10.3-5.9c-5.9,5.4-12.3,10.6-19.3,15.5
		C195.8,437.4,200.5,440.7,205.1,443.7 M189.7,458.7c0.4-0.4,0.8-0.7,1.2-1.1c4.3-3.8,8.3-7.7,12.1-11.7c-4.8-3.1-9.7-6.5-14.6-10.3
		c-0.2,0.1-0.3,0.2-0.5,0.3c-4.5,3-9,5.6-13.5,8c2.8,3,5.8,6,8.9,8.9C185.4,454.9,187.6,456.8,189.7,458.7 M173.1,471.4
		c4.7-3.2,9.5-6.8,14.3-10.8c-2-1.8-4.1-3.7-6.1-5.6c-3.4-3.2-6.5-6.4-9.6-9.6c-4.4,2.3-8.7,4.2-12.9,6
		C162.8,457.9,167.5,464.7,173.1,471.4 M190.7,490.1c1.3-1.1,2.5-2.3,3.8-3.5c3.9-3.8,7.5-7.7,10.8-11.6
		c-5.1-3.7-10.3-7.8-15.6-12.3c-4.9,4.1-9.8,7.8-14.7,11.1c3,3.5,6.1,7,9.5,10.4C186.6,486.2,188.6,488.2,190.7,490.1 M190.9,526.9
		c5.8-6.9,10.6-13.9,14.7-20.7c-4.9-3.5-9.9-7.5-15-12.1c-5,4.4-10.1,8.2-15,11.5c0.6,0.9,1.2,1.9,1.9,2.8
		C181.9,515,186.4,521.1,190.9,526.9 M278,228h-4.1h-3.8h-1l-0.6,0.7c-2.8,3.5-5.7,6.8-8.6,10.1c-3.3-0.6-6.5-1.3-9.7-2.2
		c1.8-1.7,3.7-3.4,5.4-5.2l3.5-3.4h-4.9h-4.3h-0.8l-0.6,0.6c-2,1.9-3.9,3.7-5.9,5.5c-4.1-1.6-8.2-3.5-12-5.7l-0.5-0.3h-0.5h-9.7
		h-0.6l-0.5,0.4c-3.4,2.4-6.6,4.5-10,6.6c-2.5-1.9-4.9-3.9-7.3-5.9l2.9-1.1h-11.2h-9h-0.3l-0.3,0.1c-2.4,0.8-4.7,1.6-7.1,2.3
		c-0.3-0.5-0.6-0.9-1-1.5L175,228h-1.1h-3.6h-3.6l1.9,3.1c0.3,0.5,0.6,0.9,0.9,1.4c-5.2,1.4-10.4,2.7-15.7,3.8
		c-1.5-2.4-3-4.7-4.5-7.3l-0.6-1h-1.2h-3.5h-3.4l1.7,3c1.3,2.4,2.7,4.6,4,6.7c-2.7,0.5-5.5,1-8.4,1.4c-1.4-3.2-2.8-6.5-4-9.8
		l-0.5-1.3h-1.4h-3.2h-2.9l1,2.7c1.2,3.2,2.4,6.4,3.7,9.5c-2.1,0.3-4.2,0.5-6.4,0.7c-1.3-3.7-2.4-7.5-3.4-11.4l-0.4-1.5h-1.5H116
		h-2.6l0.7,2.5c1,3.7,2,7.4,3.2,11c-2.7,0.2-5.5,0.4-8.3,0.5c-1.6-4.1-3.1-8.3-4.5-12.6L104,228h-1.5h-3.2h-2.7l0.8,2.6
		c1.2,3.9,2.6,7.8,4,11.6c-0.4,0-0.7,0-1.1,0l-2.6,0l0.6,2.5l0.8,3l0.4,1.5l1.6,0c1,0,2,0,3-0.1c1.9,4.7,4,9.3,6.3,13.9
		c-0.1,0-0.2,0-0.3,0c-1.3,0-2.7,0-4.4-0.1l-2.6-0.1l0.7,2.6l0.8,3l0.4,1.5l1.5,0c1.4,0,2.6,0,3.7,0c1.3,0,2.6,0,3.9,0
		c2.7,5.1,5.7,10.1,8.8,15c-2.7,0.2-5.4,0.4-8.1,0.5c-1.2-2.4-2.4-4.9-3.7-7.6l-3.7,1.3l3.6,14l0.1,0.2l0.1,0.2
		c3,5.5,6.1,10.9,9.3,16.1c-0.9,0.1-1.8,0.2-2.7,0.2l-0.4,0l-3.9-7.2l3.3,12.6l0,0l0.4,1.6l0.5,1.9l2.9,11.3l0.1,0.3l0.1,0.2
		c1.5,2.5,3,4.9,4.5,7.3c-0.1,0-0.3,0-0.4,0.1l-2.2,0.3l0.6,2.1l0.8,2.9l0.5,1.8l1.8-0.3c1.1-0.2,2.2-0.4,3.3-0.5
		c5,7.3,10.5,14.5,16.3,21.4c-3.2,0.7-6.5,1.3-9.7,1.9c-1.1-2-2.2-4-3.3-6l-8.1-15.6l4.4,17l3,11.6l0.1,0.3l0.1,0.2
		c3.2,5.4,6.7,10.8,10.3,15.8c-1.1,0.3-2.2,0.6-3.4,1l-4.9-8.6l2.4,9.2h0l0.5,1.9l0.8,2.9l0.5,2h0l2.3,9l0.1,0.3l0.2,0.3
		c2.2,3.5,4.4,6.9,6.7,10.2c-0.6,0.2-1.3,0.4-2,0.6l-1.4,0.4l-1-2l0.6,2.1l0.5,1.9l0.8,2.9l0.5,2l2.5,9.5l3.2,12.2l0.1,0.2l0.4,1.4
		l0.8,2.9l0.6,2.2l1.8-0.7c3.8,6.1,8,12,12.5,17.7c-2.2,1.4-4.5,2.8-6.8,4.1l-3.8-6.8l2,7.9l0.4,1.5l0.4,1.7l1.1,4.2l2.8,10.9
		l0.1,0.3l0.1,0.2c1.6,2.7,3.2,5.2,4.7,7.7c-0.4,0.3-0.8,0.5-1.2,0.7l-1.3,0.8l0.4,1.4l0.8,3l0.7,2.6l2.3-1.4
		c0.7-0.5,1.5-0.9,2.1-1.3c0.3,0.4,0.5,0.8,0.8,1.2c4.1,6,8.4,12,13,17.9c-0.2,0.2-0.4,0.5-0.6,0.7c-1.7,1.9-3.5,3.8-5.4,5.7
		c-1.1-1.1-2.2-2.2-3.3-3.4l-5.3-5.6l1.9,7.5l1.5,5.8l0.1,0.5l0,0l0,0l0.3,1.1l0.9,3.3l0.8,3.2l2.5-2.3c0.2-0.2,0.4-0.4,0.6-0.6
		c1.5,1.4,3,2.7,4.4,4c2.3,2,4.7,4,7.3,6.1l2.4,1.9l0.8-3l0.8-3.2l0.3-1.2l-1-0.8c-2.1-1.7-4.1-3.4-6-5.1c-1.3-1.2-2.7-2.4-4-3.6
		c1.9-1.9,3.7-3.8,5.4-5.7c1.6,1.9,3.2,3.8,4.9,5.8l2.5,2.9l1-3.7l0.9-3.6l0.3-1l-0.7-0.8c-1.4-1.7-2.8-3.4-4.2-5.1
		c3.4-4.1,6.6-8.4,9.6-12.8l0.2-0.3l0.1-0.3l3.2-12.3l0.3-1.3l-1.1-0.8c-4.1-3-8-6.2-11.8-9.4c0.7-0.7,1.4-1.3,2-1.9
		c3.5-3.4,6.8-7,10.1-10.7c1.1,0.8,2.2,1.5,3.4,2.3l2.3,1.6l0.7-2.7l0.8-3.1l0.4-1.4l-1.2-0.8c-0.6-0.4-1.3-0.9-2-1.3
		c1.9-2.4,3.7-5,5.5-7.6l0.2-0.3l0.1-0.3l2.4-9.3l0.6-2.4l0.3-1.2l0.4-1.5l2.1-8.2l-4.2,7.1c-3.1-1.7-6.2-3.4-9.1-5.3
		c4.6-5.2,9-10.8,13.1-16.6c0.4,0.2,0.8,0.4,1.1,0.6l0.3,0.1l2.2,1.1l0.6-2.4l0.8-3l0.4-1.5l-1.4-0.7l0,0c0.8-1.3,1.7-2.7,2.7-4.2
		l0.2-0.3l0.1-0.3l2.8-10.9l0.5-2l0.5-2.1l0.4-1.6l2.6-10.1l-4.9,9c-0.7-0.3-1.3-0.6-2-0.9c2.5-3.1,4.8-6.3,7.1-9.6l0.2-0.3l0.1-0.3
		l2.3-9l3.2-12.5l-1.8,2.8l-0.8-0.3c-1.3-0.5-2.5-0.9-3.7-1.3c2.9-3.4,5.7-7,8.6-10.8l0.2-0.3l0.1-0.4l2.1-8.2l2.9-11.2l-6.5,9.5
		l-0.3,0.5c-0.2,0.3-0.4,0.6-0.6,0.9c-3.1-0.8-6.3-1.6-9.4-2.6c3.5-3.4,7-6.9,10.3-10.5c1.6,0.4,3.2,0.7,4.8,1.1l1.9,0.4l0.5-1.9
		l0.8-2.9l0.5-2l-2-0.4c-0.4-0.1-0.8-0.2-1.2-0.3c1.6-1.8,3.1-3.8,4.7-5.7l0.3-0.3l0.1-0.4l1.9-7.4l1-3.9l0.3-1.3l0.8-2.9l0.5-2.1
		l-1.9-0.4c0.6-0.7,1.1-1.3,1.6-2c0.2-0.3,0.5-0.6,0.7-0.9l0.4-0.4l0.3-0.3l0.1-0.4l1.9-7.3l0.2-0.8l0.5-1.8l0.8-2.9l0.6-2.1
		l0.6-2.1l-1.5,2l-1.2-0.2c-2.7-0.4-5.3-0.9-8-1.5c4.7-4.1,9.2-8.4,13.7-12.9l0.4-0.4l0.1-0.5l1.5-5.9l1.9-7.5l-5.3,5.6l-0.4,0.5
		l0,0c-5.4-1.4-10.7-3.1-16-5.1c4.1-3.8,8.1-7.8,11.9-11.9c1.7,0.2,3.1,0.4,4.6,0.5c2,0.2,4,0.3,6.3,0.3l1.6,0l0.4-1.5l0.8-3
		l0.6-2.5l-2.6,0c-2,0-4-0.1-5.9-0.2c2.4-2.8,4.8-5.6,7.1-8.6L278,228z M180.8,236.3c4.4-1.4,8.8-2.9,13.2-4.5l0,0
		c2.7,2.4,5.4,4.7,8.3,6.9c-4.5,2.5-9.1,4.9-13.7,7C185.8,242.8,183.2,239.6,180.8,236.3z M214.9,239.4c3.3-2.1,6.5-4.3,9.7-6.6
		c3.9,2.4,7.9,4.5,12.1,6.3c-3.3,2.7-6.6,5.3-10,7.8C222.6,244.5,218.7,242,214.9,239.4z M158,242.5c5.2-1.2,10.5-2.5,15.6-4
		c2.6,3.5,5.3,7,8.1,10.3c-4.7,2-9.6,3.8-14.5,5.3C164,250.3,160.9,246.4,158,242.5z M233.4,250.5c3.7-2.7,7.2-5.6,10.7-8.6
		c3.3,1.1,6.7,2.1,10.1,2.8c-3.5,3.6-7.1,7.1-10.8,10.5c-0.6-0.3-1.3-0.5-1.9-0.8C238.8,253.2,236.1,252,233.4,250.5z M193.6,251.1
		c5-2.4,9.9-5,14.7-7.8c3.8,2.8,7.9,5.4,12,7.9c-5.1,3.4-10.4,6.6-15.7,9.5C200.8,257.8,197.1,254.6,193.6,251.1z M141.1,245.7
		c3.2-0.5,6.4-1.1,9.4-1.7c2.9,4.2,6,8.3,9.3,12.2c-2.2,0.6-4.2,1.1-6.1,1.6c-1.7,0.4-3.4,0.8-5.2,1.2
		C145.9,254.7,143.4,250.3,141.1,245.7z M126.9,247.6c2.3-0.2,4.7-0.5,6.9-0.8c2.2,4.6,4.7,9.2,7.3,13.6c-2.7,0.5-5.5,0.9-8.1,1.2
		C130.8,257,128.7,252.3,126.9,247.6z M111.7,248.8c2.6-0.1,5.3-0.3,7.9-0.5c1.8,4.8,3.8,9.5,6,14c-2.5,0.2-4.9,0.4-7.3,0.5
		C116,258.2,113.8,253.5,111.7,248.8z M172.4,259.7c4.8-1.6,9.6-3.5,14.4-5.5c3.5,3.6,7.2,7,11,10.1c-4.5,2.3-9.1,4.3-13.8,6.2
		C180,267.2,176.1,263.5,172.4,259.7z M210.8,265.4c5.6-3.2,11-6.6,16.3-10.2c3.5,1.9,7,3.6,10.5,5.3c-5,4.2-10.2,8.2-15.5,12
		c-1-0.6-2-1.1-3-1.7C216.3,269.1,213.6,267.3,210.8,265.4z M152.7,265.3c0.9-0.2,1.8-0.4,2.7-0.6c3-0.7,6.2-1.6,9.6-2.6
		c3.6,3.9,7.5,7.8,11.6,11.4c-1.3,0.5-2.6,0.9-3.9,1.4c-3.3,1.1-6.7,2.2-10.3,3.2C159,273.9,155.7,269.7,152.7,265.3z M229.2,275.9
		c5.3-3.9,10.6-8.1,15.6-12.4c5.3,2.1,10.7,4,16.2,5.6c-4.7,4.6-9.6,9.1-14.5,13.3C240.5,280.6,234.8,278.4,229.2,275.9z
		 M136.5,268.2c2.9-0.4,5.8-0.9,8.7-1.4c3,4.5,6.3,8.9,9.7,13.1c-3.2,0.8-6.5,1.5-9.9,2.1C142,277.6,139.1,272.9,136.5,268.2z
		 M121.9,269.6c2.4-0.1,4.7-0.3,7.1-0.6c2.6,4.9,5.4,9.7,8.5,14.3c-2.2,0.3-4.4,0.6-6.7,0.9C127.7,279.5,124.7,274.6,121.9,269.6z
		 M190.2,275.6c4.6-2,9.2-4.2,13.7-6.5c3.8,2.8,7.7,5.3,11.7,7.6c-4.1,2.7-8.3,5.2-12.6,7.6C198.6,281.6,194.3,278.7,190.2,275.6z
		 M167.7,283.8c2.5-0.7,4.9-1.5,7.3-2.3c2.5-0.9,5.1-1.8,7.7-2.8c4.2,3.4,8.6,6.5,13.1,9.5c-5.2,2.6-10.5,5.1-15.9,7.2
		c-3-2.6-5.8-5.1-8.4-7.7C170.2,286.4,168.9,285.1,167.7,283.8z M210,288.4c4.2-2.5,8.5-5.1,12.6-7.9c5.6,2.8,11.4,5.2,17.3,7.2
		c-3.9,3.1-8,6.2-12.1,9C221.8,294.3,215.8,291.5,210,288.4z M149.6,288.3c3.5-0.7,6.9-1.5,10.4-2.4c2.1,2.3,4.3,4.6,6.5,6.8
		c1.9,1.9,3.9,3.7,5.9,5.5c-3.6,1.3-7.4,2.5-11.2,3.7c-1.4-1.5-2.8-3-4.1-4.4C154.6,294.5,152.1,291.5,149.6,288.3z M135.3,290.7
		c2.2-0.3,4.4-0.6,6.6-1c3.1,4.3,6.5,8.5,10,12.4c0.6,0.6,1.1,1.2,1.7,1.9c-2.3,0.6-4.5,1.1-6.7,1.6
		C142.9,300.8,139,295.8,135.3,290.7z M235.9,299.6c4.1-3,8.2-6.2,12.2-9.5c3.6,0.9,7.2,1.7,11,2.4c-1.7,2.3-3.4,4.4-5,6.4
		c-1.2,1.5-2.5,3-4,4.7C245.3,302.5,240.5,301.1,235.9,299.6z M118.5,292.3c3-0.2,5.9-0.4,8.9-0.7c3.7,5.4,7.6,10.6,11.8,15.6
		c-3.6,0.7-7.2,1.2-10.8,1.7C124.9,303.5,121.6,297.9,118.5,292.3z M186.1,300.4c5.7-2.4,11.3-5.1,16.7-8c5.8,3.4,11.9,6.4,18.1,9
		c-5.7,3.7-11.5,7.2-17.5,10.4C197.4,308.4,191.6,304.5,186.1,300.4z M166.9,307.5c3.2-1,6.3-2.1,9.3-3.2c0.8-0.3,1.6-0.6,2.4-0.9
		c5.5,4.5,11.4,8.6,17.5,12.3c-4.1,2-8.2,3.9-12.4,5.7C177.8,317.1,172.2,312.5,166.9,307.5z M210.8,315.8c6.2-3.5,12.2-7.2,18-11.2
		c5.2,1.9,10.5,3.6,15.9,5c-4.8,5.1-9.8,9.9-14.9,14.3C223.3,321.5,216.9,318.8,210.8,315.8z M152.3,311.6c2.3-0.6,4.7-1.2,6.9-1.8
		c5.3,5.3,11,10.2,17,14.7c-0.8,0.3-1.6,0.6-2.4,0.9c-1.7,0.6-3.4,1.3-5.4,2c-4.4-3.9-8.6-7.9-12.5-11.9
		C154.7,314.2,153.5,312.9,152.3,311.6z M237.6,326.4c5.2-4.7,10.3-9.8,15-15c0.8,0.2,1.7,0.4,2.7,0.5l-1.7,2.2
		c-3.5,4.7-7.2,9.3-11.1,13.7C240.9,327.4,239.3,326.9,237.6,326.4z M132.7,315.4c3.9-0.6,7.8-1.3,11.7-2.1c2.2,2.5,4.3,4.7,6.4,7
		c3.2,3.3,6.5,6.5,9.9,9.6c-4.6,1.5-9.3,2.8-14,3.9C141.8,327.9,137.1,321.7,132.7,315.4z M121.1,316.8c1.3-0.1,2.6-0.3,3.8-0.4
		c4.5,6.6,9.2,13.1,14.2,19.2c-2,0.4-4.1,0.9-6.2,1.2c-4.1-6.2-8-12.7-11.5-19.3L121.1,316.8z M190.6,326c4.3-2,8.6-4,12.8-6.2
		c6.5,3.5,13.3,6.6,20.2,9.2c-3.8,3.1-7.7,5.9-11.6,8.6C204.6,334.2,197.4,330.3,190.6,326z M174.6,332.6c0.6-0.2,1.1-0.4,1.7-0.6
		c2-0.8,4.2-1.6,6.6-2.6c7,4.7,14.4,9,22.1,12.8c-3.2,2-6.4,3.8-9.6,5.6C188.2,343.1,181.2,338,174.6,332.6z M219.6,340.9
		c4-2.9,8-5.9,11.8-9.1c1.9,0.6,3.9,1.2,5.9,1.8c-3.3,3.5-6.7,6.9-10.2,10.1C224.5,342.8,222.1,341.9,219.6,340.9z M151.9,339.8
		c5.1-1.3,10.1-2.8,15-4.5c6.8,5.8,14,11.2,21.4,16.1c-1.4,0.7-2.6,1.3-3.9,1.8c-4.4,2-8.9,3.9-13.6,5.6c-3.1-2.8-6.1-5.6-8.9-8.5
		C158.5,346.9,155.1,343.4,151.9,339.8z M137.3,343.2c2.3-0.5,4.7-1,7-1.5c4.1,4.7,8.4,9.3,12.7,13.6c2,2,4.2,4.1,6.3,6.1
		c-3.1,1-6.3,1.9-9.6,2.8C147.9,357.5,142.4,350.4,137.3,343.2z M202.4,351.9c3.4-2,6.9-4.1,10.3-6.3c2.8,1.2,5.6,2.3,8.4,3.4
		c-3.2,2.7-6.5,5.4-9.8,7.9C208.3,355.3,205.3,353.6,202.4,351.9z M218.2,360.4c3.6-2.8,7.2-5.8,10.5-8.7c3.6,1.2,7.2,2.2,10.9,3.2
		c-2.9,3.8-5.9,7.5-9,11.1C226.5,364.2,222.3,362.3,218.2,360.4z M176.8,364c3.6-1.4,7.1-2.9,10.5-4.4c2.4-1.1,5-2.3,7.8-3.8
		c3.2,1.9,6.5,3.8,9.8,5.7c-1.5,1-2.9,2-4.2,2.9c-4.3,2.8-8.8,5.6-13.4,8.2C183.8,369.8,180.2,366.9,176.8,364z M193.5,377
		c3.9-2.3,7.6-4.5,11.1-6.9c2.4-1.6,4.8-3.3,7.3-5.1c4.5,2.2,9,4.4,13.7,6.3c-5.3,5.6-11,10.8-16.9,15.7
		C203.6,383.9,198.5,380.6,193.5,377z M158.9,370c3.4-1,6.9-2,10.3-3.2c3.7,3.2,7.5,6.4,11.4,9.4c-3.5,1.8-7,3.5-10.6,5.1
		c-1.6-1.6-3.1-3-4.5-4.4C163.3,374.6,161.1,372.3,158.9,370z M140,374.3c3.8-0.7,7.5-1.4,11.2-2.3c3.1,3.4,6.2,6.7,9.3,9.8
		c0.8,0.8,1.6,1.6,2.5,2.4c-4.3,1.7-8.7,3.3-13.1,4.8C146.4,384.2,143.1,379.3,140,374.3z M215.1,390.8c6.1-5.1,12-10.7,17.4-16.6
		c1.8,0.7,3.6,1.4,5.6,2.1l-1.3,2c-3.9,6.1-8.1,12.1-12.5,17.6C221.3,394.3,218.2,392.6,215.1,390.8z M175.6,386.4
		c3.7-1.7,7.5-3.6,11.2-5.6c5.2,3.8,10.6,7.4,16,10.8c-3.7,2.8-7.5,5.4-11.3,7.8C186.1,395.3,180.7,391,175.6,386.4z M154.3,394.9
		c4.8-1.6,9.6-3.5,14.2-5.4c5.3,4.8,10.8,9.5,16.5,13.9c-5.2,3-10.6,5.8-16.1,8.2c-0.3-0.3-0.6-0.7-1-1
		C163.2,405.6,158.6,400.4,154.3,394.9z M197.5,403.9c4-2.6,8-5.4,11.7-8.3c3.5,2,7,4,10.5,5.8c-3.2,3.7-6.6,7.3-10.1,10.6
		C205.6,409.4,201.5,406.7,197.5,403.9z M143,398.4c1.4-0.4,2.8-0.8,4.2-1.2c4.6,6,9.6,11.8,14.8,17.3c-2.3,0.9-4.7,1.8-7,2.6
		C150.7,411.1,146.7,404.8,143,398.4z M215.9,415.8c3.6-3.6,7.1-7.3,10.4-11.1c1.1,0.5,2.1,1,3.2,1.5c-2.5,4.5-5.1,8.8-7.8,12.9
		C219.7,418,217.8,416.9,215.9,415.8z M174.2,416.8c5.7-2.7,11.4-5.7,16.9-8.9c4.3,3.1,8.8,6.2,13.3,9c-5,4.4-10.3,8.6-15.8,12.4
		C183.6,425.4,178.8,421.2,174.2,416.8z M159.3,423c2.7-1,5.4-2,8-3.1c4.8,4.7,9.9,9.3,15.2,13.6c-3.2,2-6.4,3.9-9.7,5.7
		C168,434,163.5,428.6,159.3,423z M194.4,433.9c5.7-4,11.1-8.4,16.2-13.1c2.4,1.4,4.7,2.8,7.1,4.1c-4,5.7-8.4,11.1-12.9,16.2
		C201.2,438.8,197.8,436.4,194.4,433.9z M147.8,426.8l0.1,0c1.6-0.5,3.1-0.9,4.4-1.4c4.4,5.9,9,11.6,13.9,17.1
		c-2.7,1.3-5.5,2.6-8.3,3.8c-2.1-3.5-4-7.2-5.9-10.9L147.8,426.8z M177.7,444.4c3.6-2,7.2-4.2,10.6-6.4c3.8,2.9,7.7,5.6,11.6,8.2
		c-3.4,3.5-6.7,6.7-10.2,9.7c-1.7-1.6-3.4-3.1-5-4.6C182.3,449.2,180,446.8,177.7,444.4z M161.7,452.3c3.2-1.4,6.4-2.9,9.6-4.4
		c2.8,3,5.7,5.8,8.6,8.6c1.4,1.3,2.9,2.7,4.4,4.1c-3.5,2.9-7.1,5.6-10.8,8.2C169.2,463.5,165.3,458,161.7,452.3z M195,460.6
		c3.7-3.3,7.3-6.8,10.9-10.5c3.4,2.1,6.9,4.1,10.4,6c-3,4.8-6.1,9.4-9.5,13.7C202.8,467,198.9,463.9,195,460.6z M178,474.1
		c4-2.8,7.9-5.8,11.7-8.9c4.1,3.5,8.4,6.9,12.7,10.1c-3,3.4-6.1,6.7-9.2,9.8c-0.7,0.7-1.5,1.4-2.4,2.2c-1.7-1.6-3.2-3.1-4.7-4.6
		C183.2,480,180.5,477.1,178,474.1z M164.2,482.9c2.7-1.6,5.3-3.2,7.9-4.8c2.9,3.3,5.8,6.6,8.9,9.6c1.4,1.5,2.9,2.9,4.4,4.3
		c-3.5,2.9-7.1,5.7-10.9,8.3c-3.4-5.4-6.8-11-9.9-16.7L164.2,482.9z M178.4,506.2c4.2-2.9,8.4-6.1,12.2-9.4c3.9,3.5,8.1,6.8,12.3,10
		c-3.7,5.9-7.7,11.6-12,16.9c-4.1-5.3-8.1-10.8-11.8-16.3C178.9,507,178.6,506.6,178.4,506.2z"/>
	<path class="st0" d="M150.5,260.8c-19.5,0-38.5-6.6-52.1-18.2c-2.2-1.9-10-8.8-15.6-17.8c-3.5-5.6-7.1-13.6-4.4-20.2
		c5.5-13.4,34.4-13.5,51.6-13.5c8.2,0,23.5,4.6,38.3,9c15.2,4.5,30.9,9.2,39.6,9.2c1.1,0,2-0.1,2.9-0.2c11.6-0.5,22.6-2.5,32.9-6.1
		c5.8-2,10.2-4.1,14.1-6c6-2.9,10.3-4.9,16.1-4.9c0.9,0,1.9,0.1,2.8,0.2c4.4,0.5,15.1,2.5,19.3,11.2c2.6,5.3,2.1,12.5-1.1,17.8
		c-6.2,10.2-21.3,11.3-37.4,12.5c-3.4,0.3-6.6,0.4-9.6,0.4c-5.8,0-9.9-0.5-13.6-0.9c-2.9-0.3-5.5-0.6-8.3-0.6
		c-3.1,0-6.2,0.4-9.6,1.1c-10.4,2.3-15.3,6.4-20.5,10.8c-3.9,3.3-7.9,6.6-14.8,9.8C172,258.6,161.5,260.8,150.5,260.8z"/>
	<path class="st1" d="M129.9,189.6v3c7.9,0,23.1,4.6,37.9,9c16,4.8,31.1,9.3,40.1,9.3c1.1,0,2.1-0.1,3-0.2
		c11.7-0.5,22.9-2.6,33.2-6.2c5.9-2.1,10.3-4.2,14.2-6c5.8-2.8,10-4.8,15.5-4.8c0.9,0,1.8,0,2.7,0.1c3.2,0.4,14.2,2.1,18.1,10.4
		c2.3,4.9,1.9,11.5-1.1,16.4c-5.8,9.5-20.5,10.6-36.2,11.8c-3.4,0.3-6.5,0.4-9.5,0.4c-5.7,0-9.8-0.5-13.4-0.9
		c-2.9-0.3-5.6-0.6-8.5-0.6c-3.2,0-6.4,0.4-10,1.2c-10.7,2.4-15.8,6.6-21.1,11.1c-3.8,3.2-7.8,6.5-14.4,9.6
		c-8.8,4.1-19.2,6.2-29.9,6.2c-19.1,0-37.8-6.5-51.2-17.8c-10.3-8.7-24-25.6-19.6-36.3c5.1-12.5,33.4-12.6,50.2-12.6L129.9,189.6
		 M129.9,189.6L129.9,189.6c-18.4,0-47.1,0.1-53,14.5c-5.3,13,10.6,31.4,20.5,39.7c14.2,12.1,33.9,18.5,53.1,18.5
		c10.9,0,21.7-2.1,31.2-6.5c16.3-7.6,17.3-16.5,34.9-20.5c3.6-0.8,6.6-1.1,9.3-1.1c6.3,0,11.5,1.5,21.9,1.5c2.8,0,6-0.1,9.7-0.4
		c17-1.3,32.1-2.6,38.5-13.2c3.3-5.5,4.1-13.1,1.2-19.3c-5-10.4-18.5-11.8-20.5-12c-1-0.1-2-0.2-3-0.2c-10,0-15.9,5.8-30.7,11
		c-7.2,2.5-18,5.4-32.5,6c-0.8,0.1-1.7,0.2-2.7,0.2C190.8,207.9,146.7,189.6,129.9,189.6z"/>
</g>
</svg>
