<?xml version="1.0" encoding="utf-8"?>
<!-- Generator: Adobe Illustrator 21.1.0, SVG Export Plug-In . SVG Version: 6.00 Build 0)  -->
<svg version="1.1" id="Layer_1" xmlns="http://www.w3.org/2000/svg" xmlns:xlink="http://www.w3.org/1999/xlink" x="0px" y="0px"
	 viewBox="0 0 275 396" style="enable-background:new 0 0 275 396;" xml:space="preserve">
<style type="text/css">
	.st0{fill:#6BC4AE;}
	.st1{fill:#FF9200;}
</style>
<g>
	<line class="st0" x1="126.5" y1="68.5" x2="147.5" y2="89.5"/>
	<polyline class="st1" points="124.7,70.3 145.7,91.3 149.3,87.7 128.3,66.7 	"/>
	<polyline class="st1" points="118.1,102.9 113.1,121.9 117.9,123.1 122.9,104.1 	"/>
	<polyline class="st1" points="161.6,124.1 178.6,145.1 182.4,141.9 165.4,120.9 	"/>
	<polyline class="st1" points="144.5,144 134.5,157 138.5,160 148.5,147 	"/>
	<polyline class="st1" points="89.5,111 68.5,111 68.5,116 89.5,116 	"/>
	<polyline class="st1" points="194.2,172.5 205.2,197.5 209.8,195.5 198.8,170.5 	"/>
	<polyline class="st1" points="171.5,181 147.5,181 147.5,186 171.5,186 	"/>
	<polyline class="st1" points="195.5,154 210.5,134 206.5,131 191.5,151 	"/>
	<polyline class="st1" points="180.1,96.4 191.1,87.4 187.9,83.6 176.9,92.6 	"/>
	<polyline class="st1" points="79.6,130.8 70.6,140.8 74.4,144.2 83.4,134.2 	"/>
	<polyline class="st1" points="107.7,194.7 98.7,203.7 102.3,207.3 111.3,198.3 	"/>
	<polyline class="st1" points="40.5,202.1 59.5,226.1 63.5,222.9 44.5,198.9 	"/>
	<polyline class="st1" points="135.5,211 116.5,237 120.5,240 139.5,214 	"/>
	<polyline class="st1" points="157.4,207.8 169.4,226.8 173.6,224.2 161.6,205.2 	"/>
	<polyline class="st1" points="182,270.5 164,284.5 167,288.5 185,274.5 	"/>
	<polyline class="st1" points="199.5,281 214.5,300 218.5,297 203.5,278 	"/>
	<polyline class="st1" points="206.5,227 221.5,246 225.5,243 210.5,224 	"/>
	<polyline class="st1" points="236.4,163.2 224.4,182.2 228.6,184.8 240.6,165.8 	"/>
	<polyline class="st1" points="57.3,70.7 75.3,80.7 77.7,76.3 59.7,66.3 	"/>
	<polyline class="st1" points="140.7,269.1 116.7,277.1 118.3,281.9 142.3,273.9 	"/>
	<polyline class="st1" points="79.2,267.6 90.2,290.6 94.8,288.4 83.8,265.4 	"/>
	<polyline class="st1" points="183.4,302.2 164.4,311.2 166.6,315.8 185.6,306.8 	"/>
	<polyline class="st1" points="32,132.1 29,152.1 34,152.9 37,132.9 	"/>
	<polyline class="st1" points="29.4,173.1 11.4,199.1 15.6,201.9 33.6,175.9 	"/>
	<polyline class="st1" points="52.9,273.4 34.9,261.4 32.1,265.6 50.1,277.6 	"/>
	<polyline class="st1" points="24.7,60.7 33.7,44.7 29.3,42.3 20.3,58.3 	"/>
	<polyline class="st1" points="75.4,29.9 90.4,52.9 94.6,50.1 79.6,27.1 	"/>
	<polyline class="st1" points="130,49 160,43 159,38 129,44 	"/>
	<polyline class="st1" points="200.6,53.1 214.6,70.1 218.4,66.9 204.4,49.9 	"/>
	<polyline class="st1" points="249.5,87 223.5,87 223.5,92 249.5,92 	"/>
	<polyline class="st1" points="259.2,120.4 235.2,135.4 237.8,139.6 261.8,124.6 	"/>
	<polyline class="st1" points="246.3,188.7 259.3,213.7 263.7,211.3 250.7,186.3 	"/>
	<polyline class="st1" points="262.1,287.6 238.1,267.6 234.9,271.4 258.9,291.4 	"/>
	<polyline class="st1" points="214.6,330.9 199.6,348.9 203.4,352.1 218.4,334.1 	"/>
	<polyline class="st1" points="146.1,353.6 130.1,339.6 126.9,343.4 142.9,357.4 	"/>
	<polyline class="st1" points="66,311.5 88,328.5 91,324.5 69,307.5 	"/>
	<polyline class="st1" points="54.1,354.6 36.1,339.6 32.9,343.4 50.9,358.4 	"/>
	<polyline class="st1" points="94.1,384.1 119,372.4 116.9,367.9 92,379.6 	"/>
	<polyline class="st1" points="175.3,387.9 202.3,378.9 200.7,374.1 173.7,383.1 	"/>
	<polyline class="st1" points="176.6,25.7 202.6,12.7 200.4,8.3 174.4,21.3 	"/>
</g>
</svg>
