<?xml version="1.0" encoding="utf-8"?>
<!-- Generator: Adobe Illustrator 21.1.0, SVG Export Plug-In . SVG Version: 6.00 Build 0)  -->
<svg version="1.1" id="Layer_1" xmlns="http://www.w3.org/2000/svg" xmlns:xlink="http://www.w3.org/1999/xlink" x="0px" y="0px"
	 viewBox="0 0 350 450" style="enable-background:new 0 0 350 450;" xml:space="preserve">
<style type="text/css">
	.st0{fill:none;}
	.st1{fill:#FF9200;}
</style>
<g>
	<line class="st0" x1="163.9" y1="95.4" x2="184.9" y2="116.4"/>
	<polyline class="st1" points="162.1,97.2 183.1,118.2 186.8,114.6 165.8,93.6 	"/>
	<polyline class="st1" points="155.5,129.8 150.5,148.8 155.3,150 160.3,131 	"/>
	<polyline class="st1" points="199.1,151 216.1,172 219.8,168.8 202.8,147.8 	"/>
	<polyline class="st1" points="181.9,170.9 171.9,183.9 175.9,186.9 185.9,173.9 	"/>
	<polyline class="st1" points="126.9,137.9 105.9,137.9 105.9,142.9 126.9,142.9 	"/>
	<polyline class="st1" points="231.6,199.4 242.6,224.4 247.2,222.4 236.2,197.4 	"/>
	<polyline class="st1" points="208.9,207.9 184.9,207.9 184.9,212.9 208.9,212.9 	"/>
	<polyline class="st1" points="232.9,180.9 247.9,160.9 243.9,157.9 228.9,177.9 	"/>
	<polyline class="st1" points="217.6,123.3 228.6,114.3 225.3,110.5 214.3,119.5 	"/>
	<polyline class="st1" points="117,157.7 108,167.7 111.8,171.1 120.8,161.1 	"/>
	<polyline class="st1" points="145.1,221.6 136.1,230.6 139.8,234.2 148.8,225.2 	"/>
	<polyline class="st1" points="77.9,229 96.9,253 100.9,249.8 81.9,225.8 	"/>
	<polyline class="st1" points="172.9,237.9 153.9,263.9 157.9,266.9 176.9,240.9 	"/>
	<polyline class="st1" points="194.8,234.7 206.8,253.7 211.1,251.1 199.1,232.1 	"/>
	<polyline class="st1" points="219.4,297.4 201.4,311.4 204.4,315.4 222.4,301.4 	"/>
	<polyline class="st1" points="236.9,307.9 251.9,326.9 255.9,323.9 240.9,304.9 	"/>
	<polyline class="st1" points="243.9,253.9 258.9,272.9 262.9,269.9 247.9,250.9 	"/>
	<polyline class="st1" points="273.8,190.1 261.8,209.1 266,211.7 278,192.7 	"/>
	<polyline class="st1" points="94.7,97.6 112.8,107.6 115.1,103.2 97.1,93.2 	"/>
	<polyline class="st1" points="178.1,296 154.1,304 155.8,308.8 179.8,300.8 	"/>
	<polyline class="st1" points="116.6,294.5 127.6,317.5 132.2,315.3 121.2,292.3 	"/>
	<polyline class="st1" points="220.8,329.1 201.8,338.1 204.1,342.7 223.1,333.7 	"/>
	<polyline class="st1" points="69.4,159 66.4,179 71.4,179.8 74.4,159.8 	"/>
	<polyline class="st1" points="66.8,200 48.8,226 53,228.8 71,202.8 	"/>
	<polyline class="st1" points="90.3,300.3 72.3,288.3 69.5,292.5 87.5,304.5 	"/>
	<polyline class="st1" points="62.1,87.6 71.1,71.6 66.7,69.2 57.7,85.2 	"/>
	<polyline class="st1" points="112.8,56.8 127.8,79.8 132,77 117,54 	"/>
	<polyline class="st1" points="167.4,75.9 197.4,69.9 196.4,64.9 166.4,70.9 	"/>
	<polyline class="st1" points="238.1,80 252.1,97 255.8,93.8 241.8,76.8 	"/>
	<polyline class="st1" points="286.9,113.9 260.9,113.9 260.9,118.9 286.9,118.9 	"/>
	<polyline class="st1" points="296.6,147.3 272.6,162.3 275.2,166.5 299.2,151.5 	"/>
	<polyline class="st1" points="283.8,215.6 296.7,240.6 301.1,238.2 288.1,213.2 	"/>
	<polyline class="st1" points="299.5,314.5 275.5,294.5 272.3,298.3 296.3,318.3 	"/>
	<polyline class="st1" points="252.1,357.8 237.1,375.8 240.8,379 255.8,361 	"/>
	<polyline class="st1" points="183.6,380.5 167.6,366.5 164.3,370.3 180.3,384.3 	"/>
	<polyline class="st1" points="103.4,338.4 125.4,355.4 128.4,351.4 106.4,334.4 	"/>
	<polyline class="st1" points="91.5,381.5 73.5,366.5 70.3,370.3 88.3,385.3 	"/>
	<polyline class="st1" points="131.5,411 156.4,399.3 154.3,394.8 129.4,406.5 	"/>
	<polyline class="st1" points="212.8,414.8 239.8,405.8 238.1,401 211.1,410 	"/>
	<polyline class="st1" points="214.1,52.6 240.1,39.6 237.8,35.2 211.8,48.2 	"/>
</g>
</svg>
