<?xml version="1.0" encoding="utf-8"?>
<!-- Generator: Adobe Illustrator 21.1.0, SVG Export Plug-In . SVG Version: 6.00 Build 0)  -->
<svg version="1.1" id="Layer_1" xmlns="http://www.w3.org/2000/svg" xmlns:xlink="http://www.w3.org/1999/xlink" x="0px" y="0px"
	 viewBox="0 0 365 325" style="enable-background:new 0 0 365 325;" xml:space="preserve">
<style type="text/css">
	.st0{fill:#F7C2BB;}
	.st1{fill:#F7B5AA;}
</style>
<g>
	<path class="st0" d="M83.6,272.3c-35.7-28.2-69.6-81.2-59.1-138C39.2,54.3,135.1,2.7,216.3,19.8c61.9,13,121.5,67.2,125.9,136.5
		c3.8,60.2-36.2,101.5-41.7,106.9c-13.7,13.7-32.6,10.8-52.4,7.9c-12.2-1.8-24.6-3.5-36.4-1.5C165.3,277.7,121.3,302,83.6,272.3"/>
	<path class="st1" d="M106.2,34.9C77.2,49.1,52.6,70.8,37.7,97.7l0,0c0,0,0,0,0,0.1l0,0c0,0,0,0.1-0.1,0.1c0,0,0,0,0,0c0,0,0,0,0,0
		c0,0,0,0,0,0c0,0,0,0,0,0c0,0,0,0,0,0c0,0,0,0,0,0c0,0,0,0.1-0.1,0.1c0,0,0,0,0,0c-6.1,11.2-10.6,23.3-12.9,36.1
		c-1.3,7.1-1.9,14.2-1.9,21.2c0,16.8,3.6,33,9.5,48c6.7,16.8,16.3,32.1,27.3,45.2c10-6.1,21.5-11.1,29.9-13.9
		c3.1-1.1,5.4-1.6,7.3-2.2c6.4-1.7,24.4-6.5,46.7-6.5c13.7,0,29.1,1.8,44.6,7.1c14.1,4.9,26.4,12,47,13c0.8,0,2.7,0.2,5.6,0.2
		c1.6,0,3.4-0.1,5.4-0.2c15.2-1.2,27.7-4.2,40.4-7.4c0,0,21.4-5.2,35.3-5.2c0.4,0,0.9,0,1.3,0c0.8-1.3,1.6-2.7,2.3-4.1c0,0,0,0,0,0
		c0,0,0,0,0,0c0,0,0,0,0,0c0,0,0,0,0,0c0.5-0.9,0.9-1.7,1.4-2.6c-5.2-0.9-9.8-1.3-12.8-1.6c-3-0.3-5.7-0.4-8.1-0.4
		c-13.9,0-20.9,3.8-41.9,4.4c-3.1,0.1-6.5,0.2-10,0.2c-10.9,0-23.6-0.8-38-5.2c-20.7-6.3-27.1-14.4-53-20c-8.1-1.7-14.1-2.4-20-3
		c-7.8-0.8-14.6-1.1-20.6-1.1c-8.2,0-14.7,0.6-20.3,1.1c-5.6,0.6-10.2,1.1-14.4,1.1c-4.1,0-7.8-0.5-11.7-2.1
		c-26.5-10.9-29.9-58-30-60C43.3,98.3,71,58.2,106.2,34.9"/>
	<path class="st0" d="M37.4,274.4c-0.2-17,33.3-33.4,51.8-39.8c3.1-1.1,5.4-1.6,7.3-2.2c10.4-2.8,50.6-13.4,91.3,0.7
		c14.1,4.9,26.4,12,47,13c1.2,0.1,5.3,0.5,11,0c15.2-1.2,27.7-4.2,40.4-7.4c0,0,36.9-9,45.3-3.3c0.5,0.3,0.9,0.7,1.2,1
		c3,3,4.6,5.7,5.1,8.5c1.3,6.9-4.2,15.4-5,16.5c-8,11.4-47.5,47.1-95.1,37.6c-16.8-3.3-23.8-10.2-48-12c-14.8-1.1-26.4,0.3-31,1
		c-32.4,4.7-38.2,17.7-59,20C71.2,311.3,37.7,291.3,37.4,274.4"/>
	<path class="st1" d="M336.9,253.6c-10,6.5-30.4,27.6-65.1,34.6c-5.2,1-13.5,2.7-22.9,2.7c-9.7,0-20.8-1.7-31.1-7.7
		c-13.4-7.8-12-14.9-25-21c-7.1-3.3-14.5-4.6-21.6-4.6c-17.2,0-32.4,7.2-35.4,8.6c-17.1,8.1-15.5,14.8-38,27
		c-12.6,6.8-21.7,9.4-26.4,11.6c7.1,2.4,14.8,3.8,22.3,3.8c2,0,4.1-0.1,6.1-0.3c20.8-2.3,26.6-15.3,59-20c0.1,0,0.1,0,0.2,0
		c0,0,0,0,0,0c0,0,0,0,0,0c0,0,0,0,0,0c0,0,0,0,0,0c0,0,0,0,0,0c0,0,0,0,0,0c3.5-0.5,10.6-1.4,19.7-1.4c0,0,0,0,0,0l0,0l0,0
		c0,0,0,0,0,0c3.3,0,6.9,0.1,10.7,0.4c0,0,0.1,0,0.1,0c0,0,0.1,0,0.1,0c24.2,1.8,31.2,8.7,48,12l0,0c0,0,0,0,0.1,0
		c5.4,1.1,10.8,1.6,16,1.6h0h0c40.1,0,71.8-29,79-39.1c0,0,0,0,0,0c0,0,0,0,0,0c0,0,0,0,0,0l0,0c0,0,0,0,0,0c0,0,0,0,0,0
		c0,0,0,0,0,0c0,0,0,0,0,0c0,0,0,0,0,0C333.5,260.9,335.6,257.6,336.9,253.6"/>
</g>
</svg>
