<?xml version="1.0" encoding="utf-8"?>
<!-- Generator: Adobe Illustrator 21.1.0, SVG Export Plug-In . SVG Version: 6.00 Build 0)  -->
<svg version="1.1" id="Layer_1" xmlns="http://www.w3.org/2000/svg" xmlns:xlink="http://www.w3.org/1999/xlink" x="0px" y="0px"
	 viewBox="0 0 365 325" style="enable-background:new 0 0 365 325;" xml:space="preserve">
<style type="text/css">
	.st0{fill:#F7C2BB;}
	.st1{fill:#F8B6AA;}
	.st2{fill:#EDE5A4;}
	.st3{fill:#CBBE7A;}
</style>
<g>
	<path class="st0" d="M84.5,265.4c-35.7-28.2-69.6-81.2-59.1-138C40.1,47.5,136-4.1,217.2,13c61.9,13,121.5,67.2,125.9,136.5
		c3.8,60.2-36.2,101.5-41.7,106.9c-22.1,22.1-57.9,10-88.9,15.4C166.1,279.9,122.2,295.2,84.5,265.4z"/>
	<path class="st1" d="M283.6,215.1c-22.1-0.8-38.1,5.1-43.6,6.7C184.9,238,64,184.1,59.8,121.4c-1.3-20,9.2-40.6,13-48
		c11.9-23.2,28.8-37.5,37-44c1.5-1.2,4.3-3.4,7.9-6c-46,19-83.5,56.6-92.3,104.1c-10.5,56.8,23.4,109.8,59.1,138
		c37.7,29.7,81.6,14.5,128,6.3c31-5.4,66.7,6.6,88.9-15.4c2.7-2.7,14.1-14.4,24.3-32.9C312.7,218.2,295.7,215.6,283.6,215.1z"/>
	<path class="st0" d="M214.7,246.5c-18.2,3-79.3-22.8-101.6-22.7c-23.1,0-59.3,0.1-66.7,18.2c-6.7,16.3,13.3,39.5,25.8,50
		c28.2,23.8,73.2,30.4,106.1,15.2c20.6-9.5,21.8-20.8,44-25.8c18-4,22.2,2.2,51.6,0c21.3-1.6,40.4-3.3,48.5-16.7
		c4.2-6.9,5.2-16.5,1.5-24.3c-6.2-13.1-23.3-14.9-25.8-15.2c-15-1.6-22,6.5-42.5,13.6C246.6,242,232.9,245.7,214.7,246.5z"/>
	<path class="st1" d="M273.9,281.3c21.3-1.6,40.4-3.3,48.5-16.7c2.7-4.4,4-9.9,3.7-15.3c-6.1,8.8-12.4,12.9-16.3,15
		c-17.7,9.3-33.3,4.4-84,4c-5.2,0-9.4,0-12,0c-1.1,0-3,0.2-5,1c-6.1,2.4-7.4,7.8-12.3,12.2c-1.5,1.3-4.1,2.6-12.7,5.8
		c-36.7,14-71.9,9.6-86,7c-13.8-2.5-24.9-6.5-33.9-10.3c2.9,3,5.7,5.7,8.3,7.8c28.2,23.8,73.2,30.4,106.1,15.2
		c20.6-9.5,21.8-20.8,44-25.8C240.3,277.3,244.5,283.6,273.9,281.3z"/>
	<path class="st2" d="M165.1,84.4c0,0,30,26,34,24c2-1,7.9-13.9,17-21c9.5-7.4,22-9,21-11c-2-4-4-21-7-24s-51,6-56,8
		S161.1,81.4,165.1,84.4z"/>
	<path class="st3" d="M185.6,103.4c5,3.7,9.5,7,13.4,7.2c9.9,0.3,10.1-19.6,27.1-27.3c6.3-2.8,12.1-2.7,13.9-7.3
		c1.3-3.2,0.3-8.2-2.7-10.1c-3.8-2.5-8.6,1.6-40.2,23.4c-5,3.4-13.8,9.5-12.5,12.9C184.8,102.9,185.3,103.2,185.6,103.4z"/>
	<path class="st2" d="M43.1,153.4c-3.3,1.4-21,26-21,30c0,1.9,14,2,26,6c13.7,4.6,25.9,13.1,28,12c4-2,19-33,15-37
		S50.1,150.4,43.1,153.4z"/>
	<path class="st3" d="M80.5,195.7c0,0-51.1-23.2-53.9-22.3c-3.6,1.2-5.8,7.1-4.7,10.6c1.8,5.6,11.7,3.1,26.1,9.3
		c14.2,6.1,18.4,14.4,24.9,12c4.4-1.6,8.9-7.8,7.9-9.3C80.9,195.9,80.8,195.7,80.5,195.7z"/>
	<path class="st1" d="M91.1,174.4c-18,7.7-27.4,18.4-32,25c-3,4.2-10.2,14.5-7,19c4.6,6.5,27.7-3.4,29-4"/>
	<path class="st2" d="M165.6,169.9c0,0-13,16-13,20s50,17,53,16s12-30,7-32S172.6,166.9,165.6,169.9z"/>
	<path class="st0" d="M145.1,196.4c0.9-3,10.3-2.5,21-2c5.5,0.3,22.6,1.5,48,11c12.1,4.5,18.2,6.8,18,9c-0.4,4.8-26.6,9.3-51,3
		C162.1,212.5,143.8,200.9,145.1,196.4z"/>
	<path class="st3" d="M280.1,106.4c0,0-2-2-1-6s15-18,18-18c9.4,0,12.9,9.1,12,15c-1.4,9.3-19.4,17.4-28,10
		C280.7,107,280.4,106.7,280.1,106.4z"/>
	<path class="st2" d="M304.1,88.4c0,0-22,14-21,20s27,22,32,19c5-3,10-17,7-23S307.1,88.4,304.1,88.4z"/>
	<path class="st2" d="M96.1,27.4c0,0,36-4,40,0c3.5,3.5-2.3,13.8-9,17c-3.3,1.6-6.1,1.1-9,1c-17.6-0.6-28.5,12.9-32,10
		C84.3,53.8,84.7,47.9,96.1,27.4z"/>
	<path class="st2" d="M236.1,254.4c1.7,1,20,8,26,8s24-8,27-10s-4-29-9-29S231.1,251.4,236.1,254.4z"/>
	<path class="st3" d="M253.1,261.4c0.1,1.4,33.8,4.5,39-7c1.8-3.9,0.9-11-1.3-11.8c-0.5-0.2-1.1,0-1.8,0.3c-3,1.1-4.5,3.9-4.9,4.5
		c-3.3,5.5-13.6,8.6-28,13C253.6,261.1,253.1,261.2,253.1,261.4z"/>
	<path class="st0" d="M289.1,262.4c-4.8-1.9-12.1-3.9-21-4c-14.8-0.1-29.4,5.5-29,8c0.3,1.8,8.7,3.1,43,1"/>
	<path class="st2" d="M96.1,249.4c0,0,25-10,28-7s13,15,8,20S96.1,252.4,96.1,249.4z"/>
</g>
</svg>
