<?xml version="1.0" encoding="utf-8"?>
<!-- Generator: Adobe Illustrator 21.1.0, SVG Export Plug-In . SVG Version: 6.00 Build 0)  -->
<svg version="1.1" id="Layer_1" xmlns="http://www.w3.org/2000/svg" xmlns:xlink="http://www.w3.org/1999/xlink" x="0px" y="0px"
	 viewBox="0 0 337 316" style="enable-background:new 0 0 337 316;" xml:space="preserve">
<style type="text/css">
	.st0{fill:#F7C2BB;}
	.st1{fill:#F9D4CF;}
	.st2{fill:#F7B5AA;}
</style>
<g>
	<path class="st0" d="M69.6,267.8c-35.7-28.2-69.6-81.2-59.1-138C25.2,49.8,121.1-1.8,202.3,15.3c61.9,13,121.5,67.2,125.9,136.5
		c3.8,60.2-36.2,101.5-41.7,106.9c-13.7,13.7-32.6,10.8-52.4,7.9c-12.2-1.8-24.6-3.5-36.4-1.5C151.3,273.2,107.3,297.5,69.6,267.8"
		/>
	<path class="st1" d="M309.7,227.7L309.7,227.7L309.7,227.7 M309.8,227.6L309.8,227.6L309.8,227.6 M309.8,227.5L309.8,227.5
		L309.8,227.5 M312.7,222.3c-0.9,1.8-1.9,3.6-2.9,5.3C310.8,225.8,311.7,224.1,312.7,222.3 M10.5,129.7L10.5,129.7L10.5,129.7
		 M10.5,129.6L10.5,129.6L10.5,129.6 M10.5,129.6L10.5,129.6L10.5,129.6 M10.6,129.4L10.6,129.4L10.6,129.4 M10.6,129.4L10.6,129.4
		L10.6,129.4 M10.6,129.3L10.6,129.3L10.6,129.3 M10.6,129.2L10.6,129.2L10.6,129.2 M10.6,129.1L10.6,129.1L10.6,129.1 M10.6,129.1
		L10.6,129.1L10.6,129.1 M10.6,129L10.6,129L10.6,129 M10.7,128.9L10.7,128.9L10.7,128.9 M10.7,128.9L10.7,128.9L10.7,128.9
		 M10.7,128.7L10.7,128.7L10.7,128.7 M10.7,128.6L10.7,128.6L10.7,128.6 M10.7,128.5L10.7,128.5L10.7,128.5 M10.8,128.4L10.8,128.4
		L10.8,128.4 M10.8,128.4L10.8,128.4L10.8,128.4 M10.8,128.2L10.8,128.2L10.8,128.2 M10.8,128.2L10.8,128.2L10.8,128.2 M10.8,128.1
		L10.8,128.1L10.8,128.1 M10.8,128L10.8,128L10.8,128 M10.9,127.9L10.9,127.9L10.9,127.9 M10.9,127.7L10.9,127.7L10.9,127.7
		 M10.9,127.6L10.9,127.6L10.9,127.6 M10.9,127.5L10.9,127.5L10.9,127.5 M11,127.4L11,127.4L11,127.4 M11,127.2L11,127.2L11,127.2
		 M11,127.1L11,127.1L11,127.1 M11.1,126.9L11.1,126.9L11.1,126.9 M11.1,126.9L11.1,126.9L11.1,126.9 M11.1,126.7L11.1,126.7
		L11.1,126.7 M11.1,126.5L11.1,126.5L11.1,126.5 M11.2,126.4L11.2,126.4L11.2,126.4 M11.2,126.4L11.2,126.4L11.2,126.4 M11.2,126.2
		L11.2,126.2L11.2,126.2 M11.2,126.2L11.2,126.2L11.2,126.2 M11.3,126L11.3,126L11.3,126 M11.3,125.9L11.3,125.9L11.3,125.9
		 M11.3,125.7L11.3,125.7L11.3,125.7 M11.4,125.5L11.4,125.5L11.4,125.5 M11.4,125.4L11.4,125.4L11.4,125.4 M11.4,125.2L11.4,125.2
		L11.4,125.2 M11.4,125.2L11.4,125.2L11.4,125.2 M11.5,125L11.5,125L11.5,125 M11.5,125L11.5,125L11.5,125 M11.5,124.9L11.5,124.9
		L11.5,124.9 M11.5,124.8L11.5,124.8L11.5,124.8 M11.5,124.7L11.5,124.7L11.5,124.7 M11.6,124.5L11.6,124.5L11.6,124.5 M11.6,124.5
		L11.6,124.5L11.6,124.5 M11.6,124.3L11.6,124.3L11.6,124.3 M11.7,124.2L11.7,124.2L11.7,124.2 M11.7,124.1L11.7,124.1L11.7,124.1
		 M11.7,124L11.7,124L11.7,124 M11.7,124L11.7,124L11.7,124 M11.7,123.8L11.7,123.8L11.7,123.8 M11.8,123.8L11.8,123.8L11.8,123.8
		 M11.8,123.7L11.8,123.7L11.8,123.7 M11.8,123.6L11.8,123.6L11.8,123.6 M11.8,123.5L11.8,123.5L11.8,123.5 M11.8,123.5L11.8,123.5
		L11.8,123.5 M11.9,123.3L11.9,123.3L11.9,123.3 M11.9,123.3L11.9,123.3L11.9,123.3 M11.9,123.2L11.9,123.2L11.9,123.2 M11.9,123.1
		L11.9,123.1L11.9,123.1 M11.9,123L11.9,123L11.9,123 M12,123L12,123L12,123 M12,122.9L12,122.9L12,122.9 M12,122.8L12,122.8
		L12,122.8 M12,122.8L12,122.8L12,122.8 M12,122.7L12,122.7L12,122.7 M12,122.6L12,122.6L12,122.6 M12.1,122.6L12.1,122.6
		L12.1,122.6 M12.1,122.5L12.1,122.5L12.1,122.5 M12.1,122.5L12.1,122.5L12.1,122.5 M12.1,122.4L12.1,122.4L12.1,122.4 M12.1,122.3
		L12.1,122.3L12.1,122.3 M12.1,122.3L12.1,122.3L12.1,122.3 M12.1,122.2L12.1,122.2L12.1,122.2 M12.2,122.1L12.2,122.1L12.2,122.1
		 M12.2,122.1L12.2,122.1L12.2,122.1 M12.2,122L12.2,122L12.2,122 M12.2,121.9L12.2,121.9L12.2,121.9 M12.2,121.8L12.2,121.8
		L12.2,121.8 M12.3,121.8L12.3,121.8L12.3,121.8 M12.3,121.7L12.3,121.7L12.3,121.7 M12.3,121.6L12.3,121.6L12.3,121.6 M12.3,121.6
		L12.3,121.6L12.3,121.6 M12.3,121.5L12.3,121.5L12.3,121.5 M12.3,121.4L12.3,121.4L12.3,121.4 M12.4,121.4L12.4,121.4L12.4,121.4
		 M12.4,121.3L12.4,121.3L12.4,121.3 M12.4,121.3L12.4,121.3L12.4,121.3 M12.4,121.2L12.4,121.2L12.4,121.2 M12.4,121.1L12.4,121.1
		L12.4,121.1 M12.4,121.1L12.4,121.1L12.4,121.1 M12.5,121L12.5,121L12.5,121 M12.5,120.9L12.5,120.9L12.5,120.9 M12.5,120.9
		L12.5,120.9L12.5,120.9 M12.5,120.8L12.5,120.8L12.5,120.8 M12.5,120.8L12.5,120.8L12.5,120.8 M12.5,120.7L12.5,120.7L12.5,120.7
		 M12.6,120.6L12.6,120.6L12.6,120.6 M12.6,120.6L12.6,120.6L12.6,120.6 M12.6,120.5L12.6,120.5L12.6,120.5 M12.6,120.4L12.6,120.4
		L12.6,120.4 M12.6,120.4L12.6,120.4L12.6,120.4 M12.6,120.3L12.6,120.3L12.6,120.3 M12.7,120.2L12.7,120.2L12.7,120.2 M12.7,120.2
		L12.7,120.2L12.7,120.2 M12.7,120.1L12.7,120.1L12.7,120.1 M12.7,120.1L12.7,120.1L12.7,120.1 M12.7,120L12.7,120L12.7,120
		 M12.7,119.9L12.7,119.9L12.7,119.9 M12.8,119.9L12.8,119.9L12.8,119.9 M12.8,119.8L12.8,119.8L12.8,119.8 M12.8,119.7L12.8,119.7
		L12.8,119.7 M12.8,119.7L12.8,119.7L12.8,119.7 M12.8,119.6L12.8,119.6L12.8,119.6 M12.9,119.5l0,0.1L12.9,119.5 M12.9,119.4
		L12.9,119.4L12.9,119.4 M12.9,119.4L12.9,119.4L12.9,119.4 M12.9,119.2l0,0.1L12.9,119.2 M13,119.2L13,119.2L13,119.2 M13,119.1
		L13,119.1L13,119.1 M13,119l0,0.1L13,119 M13,118.9L13,118.9L13,118.9 M13,118.9L13,118.9L13,118.9 M13.1,118.8L13.1,118.8
		L13.1,118.8 M13.1,118.7L13.1,118.7L13.1,118.7 M13.1,118.7L13.1,118.7L13.1,118.7 M13.1,118.6L13.1,118.6L13.1,118.6 M13.2,118.5
		l0,0.1L13.2,118.5 M13.2,118.4L13.2,118.4L13.2,118.4 M13.2,118.3l0,0.1L13.2,118.3 M13.2,118.3L13.2,118.3L13.2,118.3 M13.2,118.2
		L13.2,118.2L13.2,118.2 M13.3,118.1l0,0.1L13.3,118.1 M13.3,118L13.3,118L13.3,118 M13.3,118L13.3,118L13.3,118 M13.4,117.8l0,0.1
		L13.4,117.8 M13.4,117.8L13.4,117.8L13.4,117.8 M13.4,117.7L13.4,117.7L13.4,117.7 M13.4,117.6l0,0.1L13.4,117.6 M13.4,117.5
		L13.4,117.5L13.4,117.5 M13.5,117.3l-0.1,0.2L13.5,117.3 M14,115.7c-0.2,0.5-0.3,1.1-0.5,1.6C13.7,116.7,13.8,116.2,14,115.7
		 M15.6,111c-0.6,1.5-1.1,3.1-1.6,4.7C14.5,114.1,15,112.5,15.6,111 M15.6,110.9L15.6,110.9L15.6,110.9 M15.7,110.7l-0.1,0.2
		L15.7,110.7 M15.7,110.7L15.7,110.7L15.7,110.7 M15.8,110.5l-0.1,0.2L15.8,110.5 M15.8,110.4L15.8,110.4L15.8,110.4 M15.8,110.3
		l0,0.1L15.8,110.3 M15.9,110.3L15.9,110.3L15.9,110.3 M15.9,110.2L15.9,110.2L15.9,110.2 M15.9,110.1l0,0.1L15.9,110.1 M16,110
		L16,110L16,110 M16,110L16,110L16,110 M16,109.9L16,109.9L16,109.9 M16,109.8L16,109.8L16,109.8 M16,109.8L16,109.8L16,109.8
		 M16.1,109.7L16.1,109.7L16.1,109.7 M16.1,109.6L16.1,109.6L16.1,109.6 M16.1,109.6L16.1,109.6L16.1,109.6 M16.1,109.5L16.1,109.5
		L16.1,109.5 M16.1,109.5L16.1,109.5L16.1,109.5 M16.2,109.4L16.2,109.4L16.2,109.4 M16.2,109.4L16.2,109.4L16.2,109.4 M16.2,109.3
		L16.2,109.3L16.2,109.3 M16.2,109.2L16.2,109.2L16.2,109.2 M16.3,109.2L16.3,109.2L16.3,109.2 M16.3,109.1L16.3,109.1L16.3,109.1
		 M16.3,109.1L16.3,109.1L16.3,109.1 M16.3,109L16.3,109L16.3,109 M16.4,108.9L16.4,108.9L16.4,108.9 M16.4,108.9L16.4,108.9
		L16.4,108.9 M16.4,108.8L16.4,108.8L16.4,108.8 M16.4,108.8L16.4,108.8L16.4,108.8 M16.4,108.7L16.4,108.7L16.4,108.7 M16.5,108.6
		L16.5,108.6L16.5,108.6 M16.5,108.6L16.5,108.6L16.5,108.6 M16.5,108.5L16.5,108.5L16.5,108.5 M16.5,108.5L16.5,108.5L16.5,108.5
		 M16.6,108.4L16.6,108.4L16.6,108.4 M16.6,108.4L16.6,108.4L16.6,108.4 M16.6,108.3L16.6,108.3L16.6,108.3 M16.6,108.2L16.6,108.2
		L16.6,108.2 M16.7,108.2L16.7,108.2L16.7,108.2 M16.7,108.1L16.7,108.1L16.7,108.1 M16.7,108L16.7,108L16.7,108 M16.7,107.9
		L16.7,107.9L16.7,107.9 M16.8,107.9L16.8,107.9L16.8,107.9 M16.8,107.8L16.8,107.8L16.8,107.8 M16.8,107.7L16.8,107.7L16.8,107.7"
		/>
	<path class="st2" d="M92.2,30.4c-34,16.6-62,43.7-75.3,77.3l0,0l0,0.1l0,0l0,0.1l0,0l0,0.1l0,0l0,0.1l0,0l0,0.1l0,0l0,0l0,0l0,0
		l0,0l0,0.1l0,0l0,0.1l0,0l0,0l0,0l0,0l0,0l0,0.1l0,0l0,0l0,0l0,0l0,0l0,0l0,0l0,0.1l0,0l0,0l0,0l0,0l0,0l0,0l0,0l0,0.1l0,0l0,0l0,0
		l0,0l0,0l0,0l0,0.1l0,0l0,0l0,0l0,0l0,0l0,0l0,0l0,0.1l0,0l0,0l0,0l0,0l0,0l0,0l0,0l0,0.1l0,0l0,0l0,0l0,0l0,0l0,0l0,0l0,0.1l0,0
		l0,0l0,0l0,0l0,0l0,0.1l0,0l0,0l0,0l0,0l0,0l0,0.1l0,0l0,0l0,0l-0.1,0.2l0,0l0,0l0,0l-0.1,0.2l0,0l0,0h0c-0.6,1.5-1.1,3.1-1.6,4.7
		l0,0c-0.2,0.5-0.3,1.1-0.5,1.6v0l-0.1,0.2l0,0l0,0l0,0l0,0.1l0,0l0,0l0,0l0,0l0,0l0,0.1l0,0l0,0l0,0l0,0l0,0l0,0.1l0,0l0,0l0,0l0,0
		l0,0l0,0.1l0,0l0,0l0,0l0,0.1h0l0,0l0,0l0,0l0,0l0,0l0,0l0,0.1l0,0l0,0l0,0l0,0l0,0l0,0.1l0,0l0,0l0,0l0,0l0,0l0,0.1l0,0l0,0l0,0
		l0,0l0,0l0,0.1l0,0l0,0l0,0l0,0l0,0l0,0.1l0,0l0,0l0,0l0,0l0,0l0,0l0,0l0,0.1l0,0l0,0l0,0l0,0l0,0l0,0l0,0l0,0.1l0,0l0,0l0,0l0,0
		l0,0l0,0l0,0l0,0l0,0l0,0l0,0l0,0l0,0l0,0l0,0.1l0,0l0,0l0,0l0,0l0,0l0,0l0,0l0,0.1l0,0l0,0l0,0l0,0l0,0l0,0l0,0l0,0.1l0,0l0,0l0,0
		l0,0l0,0l0,0l0,0l0,0.1l0,0l0,0l0,0l0,0l0,0l0,0l0,0l0,0.1l0,0l0,0l0,0l0,0l0,0l0,0.1l0,0l0,0l0,0l0,0l0,0l0,0.1l0,0l0,0.1l0,0l0,0
		l0,0l0,0l0,0l0,0.1l0,0l0,0l0,0l0,0l0,0l0,0.1l0,0l0,0.1l0,0l0,0l0,0l0,0l0,0l0,0.1l0,0l0,0.1l0,0l0,0l0,0l0,0l0,0l0,0.1l0,0l0,0
		l0,0l0,0l0,0l0,0.1l0,0l0,0l0,0l0,0.1l0,0l0,0.1l0,0l0,0l0,0l0,0.1l0,0l0,0.1l0,0l0,0l0,0l0,0.1l0,0l0,0.1l0,0l0,0.1l0,0l0,0.2l0,0
		l0,0.1l0,0l0,0.2l0,0l0,0.1l0,0l0,0.1l0,0l0,0.1l0,0l0,0.1l0,0l0,0.1l0,0l0,0.1l0,0l0,0.2l0,0l0,0.1v0l-0.1,0.3l0,0l0,0.2v0l0,0.1
		l0,0l0,0.2l0,0l0,0.1l0,0l0,0.1l0,0l0,0.1l0,0l0,0.1l0,0l0,0.2l0,0l0,0.2l0,0l0,0.1l0,0l0,0.2l0,0l0,0.1l0,0l0,0.2l0,0l0,0.1l0,0
		l0,0.2l0,0l0,0.1l0,0l0,0.2l0,0l0,0.1l0,0l0,0.1v0l0,0.1l0,0l0,0.1l0,0l0,0.1l0,0l0,0.1l0,0l0,0.1l0,0l0,0.1l0,0l0,0.1l0,0l0,0.2
		l0,0l0,0l0,0l0,0.1v0l0,0.1l0,0l0,0.1l0,0l0,0l0,0l0,0.1l0,0l0,0l0,0l0,0l0,0l0,0.1l0,0l0,0l0,0l0,0l0,0l0,0.1
		c-1.3,7.1-1.9,14.2-1.9,21.2c0,35.5,16,68.4,36.8,93.2c10-6.1,21.5-11.1,29.9-13.9c3.1-1.1,5.4-1.6,7.3-2.2
		c6.4-1.7,24.4-6.5,46.7-6.5c13.7,0,29.1,1.8,44.6,7.1c14.1,4.9,26.4,12,47,13c0.8,0,2.7,0.2,5.6,0.2c1.6,0,3.4-0.1,5.4-0.2
		c15.2-1.2,27.7-4.2,40.4-7.4c0,0,21.4-5.2,35.3-5.2c0.4,0,0.9,0,1.3,0c0.3-0.5,0.6-1,0.8-1.4l0,0l0,0l0,0l0,0l0,0l0,0
		c1-1.7,1.9-3.4,2.9-5.3c-5.2-0.9-9.8-1.3-12.8-1.6c-3-0.3-5.7-0.4-8.1-0.4c-13.9,0-20.9,3.8-41.9,4.4c-3.1,0.1-6.5,0.2-10,0.2
		c-10.9,0-23.6-0.8-38-5.2c-20.7-6.3-27.1-14.4-53-20c-8.1-1.7-14.1-2.4-20-3c-7.8-0.8-14.6-1.1-20.6-1.1c-8.2,0-14.7,0.6-20.3,1.1
		c-5.6,0.6-10.2,1.1-14.4,1.1c-4.1,0-7.8-0.5-11.7-2.1c-26.5-10.9-29.9-58-30-60C29.3,93.8,57,53.7,92.2,30.4"/>
	<path class="st0" d="M23.4,269.9c-0.2-17,33.3-33.4,51.8-39.8c3.1-1.1,5.4-1.6,7.3-2.2c10.4-2.8,50.6-13.4,91.3,0.7
		c14.1,4.9,26.4,12,47,13c1.2,0.1,5.3,0.5,11,0c15.2-1.2,27.7-4.2,40.4-7.4c0,0,36.9-9,45.3-3.3c0.5,0.3,0.9,0.7,1.2,1
		c3,3,4.6,5.7,5.1,8.5c1.3,6.9-4.2,15.4-5,16.5c-8,11.4-47.5,47.1-95.1,37.6c-16.8-3.3-23.8-10.2-48-12c-14.8-1.1-26.4,0.3-31,1
		c-32.4,4.7-38.2,17.7-59,20C57.2,306.8,23.7,286.8,23.4,269.9"/>
	<path class="st1" d="M239.9,296.2L239.9,296.2L239.9,296.2 M223.9,294.7L223.9,294.7L223.9,294.7 M145,283.7L145,283.7L145,283.7
		 M145,283.7L145,283.7L145,283.7 M175.7,282.7l0.1,0L175.7,282.7 M165,282.3c-9.3,0-16.4,0.9-19.9,1.4
		C148.5,283.1,155.6,282.3,165,282.3 M165,282.3L165,282.3L165,282.3L165,282.3 M318.9,257.2c-7.3,10.2-38.9,39-78.9,39
		C280,296.3,311.6,267.4,318.9,257.2 M318.9,257.1L318.9,257.1L318.9,257.1"/>
	<path class="st2" d="M322.9,249.1c-10,6.5-30.4,27.6-65.1,34.6c-5.2,1-13.5,2.7-22.9,2.7c-9.7,0-20.8-1.7-31.1-7.7
		c-13.4-7.8-12-14.9-25-21c-7.1-3.3-14.5-4.6-21.6-4.6c-17.2,0-32.4,7.2-35.4,8.6c-17.1,8.1-15.5,14.8-38,27
		c-12.6,6.8-21.7,9.4-26.4,11.6c7.1,2.4,14.8,3.8,22.3,3.8c2,0,4.1-0.1,6.1-0.3c20.8-2.3,26.6-15.3,59-20l0,0l0,0l0.1,0l0,0l0,0
		c3.5-0.5,10.6-1.4,19.9-1.4h0h0c3.3,0,6.9,0.1,10.7,0.4l0.1,0l0.1,0c24.2,1.8,31.2,8.7,48,12l0.1,0c5.4,1.1,10.8,1.6,16,1.6h0h0
		c40,0,71.6-28.8,78.9-39l0,0l0.1-0.1l0-0.1C319.5,256.4,321.6,253.1,322.9,249.1"/>
</g>
</svg>
