<?xml version="1.0" encoding="utf-8"?>
<!-- Generator: Adobe Illustrator 21.1.0, SVG Export Plug-In . SVG Version: 6.00 Build 0)  -->
<svg version="1.1" id="Layer_1" xmlns="http://www.w3.org/2000/svg" xmlns:xlink="http://www.w3.org/1999/xlink" x="0px" y="0px"
	 viewBox="0 0 238 452" style="enable-background:new 0 0 238 452;" xml:space="preserve">
<style type="text/css">
	.st0{fill:#FE9000;}
	.st1{fill:#FC4700;}
</style>
<g>
	<polygon class="st0" points="7,8.7 231,8.7 119,440.4 	"/>
	<path class="st1" d="M229.7,9.7L119,436.4L8.3,9.7H229.7 M232.3,7.7H5.7L119,444.3L232.3,7.7z"/>
	<path class="st0" d="M144.2,312.2c-6.2-4.5-12.6-9.5-19-15c0.4-0.3,0.8-0.6,1.1-1c5.7-5,11-10.2,15.9-15.4
		c5.8,3.6,11.4,6.8,16.7,9.7l1-3.8c-4.8-2.6-9.9-5.5-15.1-8.7c7.3-8,13.8-16.3,19.6-24.6c1.2,0.7,2.5,1.3,3.7,1.9l1-3.7
		c-0.8-0.4-1.7-0.9-2.5-1.3c1.7-2.5,3.3-5,4.8-7.5l3.5-13.6c-3.5,6.4-7.4,12.9-11.7,19.4c-4-2.2-8-4.5-12.2-7
		c6-5.7,11.4-11.6,16.5-17.6c2.7,1.3,5.3,2.6,7.8,3.7l1-3.7c-2.1-1-4.1-2-6.3-3c3.9-4.8,7.5-9.6,10.8-14.4l2.9-11.2
		c-5,7.9-10.7,16-17.2,23.9c-5.3-2.7-10.9-5.7-16.7-9.1c9.6-7.8,18.1-16,25.6-24.2c3.4,1.3,6.6,2.5,9.8,3.6l1-3.7
		c-2.6-0.9-5.3-1.9-8-3c4.8-5.4,9-10.8,13-16.1l2.7-10.3c-0.7,1.1-1.4,2.1-2.2,3.2c-5.6-1.4-11.5-3-17.7-5
		c6.1-5.7,11.7-11.4,16.9-17.1c2.5,0.6,5,1.2,7.4,1.7l0.9-3.7c-1.8-0.4-3.7-0.8-5.6-1.3c3-3.4,5.8-6.8,8.5-10.2l2.4-9.3
		c-4.5,6.1-9.5,12.3-15.1,18.5c-3.9-1-7.9-2.2-12.1-3.5c8.5-7.4,16.1-15.1,22.9-22.7c2,0.4,4,0.8,5.9,1.2l0.9-3.7
		c-1.3-0.3-2.7-0.5-4-0.8c1.6-1.9,3.3-3.8,4.8-5.7c0.5-0.6,0.9-1.1,1.3-1.7l2.4-9.2c-2.1,2.8-4.3,5.6-6.6,8.5
		c-1.9,2.4-4,4.8-6.1,7.2c-7.6-1.8-15.7-4.1-24.1-7.1c7.1-5.1,13.8-10.3,20.1-15.5c6,1.6,11.8,2.8,17.5,3.7l1-3.7
		c-4.9-0.8-9.9-1.8-14.9-3c7.6-6.5,14.5-13,20.7-19.3l1.9-7.4c-0.5,0.6-1.1,1.1-1.6,1.7c-8.2-2.1-16.7-4.8-25.5-8.3
		c7-6.3,13.2-12.5,18.7-18.5c2.2,0.3,4.5,0.6,6.9,0.8c2.7,0.2,5.2,0.3,7.8,0.3l1-3.8c-2.8,0-5.6-0.1-8.5-0.4
		c-1.4-0.1-2.7-0.3-4.1-0.4c4.6-5.1,8.6-9.9,12.1-14.4h-4.8c-3.5,4.3-7.4,8.9-11.8,13.8c-6.5-1-12.6-2.6-18-4.4
		c3.8-3.4,7.1-6.5,10-9.4h-5.4c-2.6,2.5-5.4,5.1-8.6,7.9c-6.6-2.5-12.2-5.3-16.8-7.9h-12.2c-4.3,3-8.9,6.1-14.1,9.3
		c-4.2-3.2-8-6.3-11.5-9.3h-5.7c4,3.6,8.6,7.5,13.7,11.4c-6.7,3.9-14.2,7.8-22.4,11.5c-5.2-5.7-9.6-11.2-13.2-16.2
		c7-2.1,13.6-4.4,19.8-6.7h-11.3c-3.5,1.2-7,2.3-10.7,3.4c-0.8-1.2-1.5-2.3-2.3-3.4h-4.5c0.9,1.4,1.9,2.9,2.9,4.5
		C93,14.4,84.7,16.5,76,18.3c-2.5-3.7-4.6-7.3-6.6-10.7h-4.3c2,3.6,4.3,7.4,7,11.5c-5.2,1-10.6,1.9-16.1,2.7
		c-2.3-5.1-4.2-9.9-5.8-14.2h-4c1.6,4.5,3.6,9.5,6,14.8c-4.5,0.6-9,1.1-13.4,1.5c-2.1-5.9-3.7-11.4-5-16.3h-3.9
		c1.3,5,2.9,10.6,5,16.6c-5.3,0.4-10.5,0.7-15.5,0.9c-2.5-6.4-4.6-12.3-6.3-17.6H9c1.7,5.3,3.7,11.2,6.2,17.7c-1.7,0-3.3,0.1-5,0.1
		l1,3.8c1.8,0,3.6-0.1,5.5-0.1c2.8,7,6.2,14.5,10.3,22.4c-1.5,0-3,0.1-4.4,0.1c-1.9,0-3.7,0-5.5-0.1l1,3.8c1.5,0,3,0.1,4.5,0.1
		c2.1,0,4.2,0,6.4-0.1c4,7.6,8.6,15.5,14,23.5c-5.6,0.5-11,0.8-16,1c-1.9-3.7-3.7-7.4-5.4-11l4.6,17.6c4.1,7.6,8.6,15.5,13.8,23.5
		c-2.6,0.3-5.1,0.5-7.5,0.7l1,3.7c2.9-0.2,5.8-0.5,8.9-0.9c6.2,9.4,13.2,18.9,21.2,28.4c-4.6,1.1-9.1,2-13.4,2.8
		c-5.9-8.8-11-17.5-15.5-25.8l3.7,14.2c2.4,4.1,5,8.2,7.7,12.4c-1.5,0.2-2.9,0.5-4.3,0.7l1,3.7c1.9-0.3,3.7-0.6,5.7-0.9
		c6.9,10.2,14.8,20.7,23.9,31.1c-6.3,1.5-12.4,2.7-18.2,3.6c-1.8-3.1-3.4-6.1-5-9.2l3.8,14.6c4.4,7.4,9.3,15,14.9,22.5
		c-2.9,0.9-5.7,1.7-8.4,2.4l1,3.7c3.2-0.9,6.4-1.8,9.8-2.9c6.1,8.1,12.9,16.1,20.5,24c0.5,0.5,1,1,1.5,1.5c-4.8,2-9.6,3.8-14.1,5.4
		c-6.7-9.3-12.5-18.5-17.5-27.3l3.4,13.1c3.2,5.1,6.6,10.2,10.3,15.5c-2,0.6-3.9,1.2-5.8,1.8l0.9,3.7c2.4-0.7,4.8-1.4,7.2-2.2
		c6.1,8.3,13,16.8,20.6,25.2c-5.3,2.7-10.5,5-15.5,7.1c-3.2-5.4-6.1-10.6-8.6-15.7l4,15.2c0.4,0.6,0.7,1.2,1.1,1.8
		c-0.2,0.1-0.4,0.1-0.5,0.2l1,3.7c0.5-0.2,1-0.4,1.6-0.6c5.2,8.4,11.3,17.1,18.4,25.8c-3.9,2.6-7.8,4.9-11.6,7.1l1,3.8
		c4.3-2.4,8.6-5.1,13-8c3.9,4.6,8,9.1,12.4,13.6c2.5,2.5,5,5,7.5,7.3c-6.1,5.3-12.2,9.9-18.1,13.9c-5-7.8-9.7-15.6-14-23.3l3.6,13.7
		c2.3,3.9,4.7,7.8,7.3,11.7c-1.2,0.8-2.4,1.5-3.6,2.3l1,3.8c1.6-0.9,3.1-1.9,4.7-2.9c0.8,1.2,1.6,2.4,2.4,3.6
		c5.7,8.5,11.6,16.5,17.4,23.9c-0.7,0.8-1.4,1.6-2.2,2.5c-2.9,3.2-5.7,6.2-8.6,9c-2.1-2-4-4-6-6.1l1.9,7.3c0.5,0.5,0.9,0.9,1.4,1.4
		c-0.3,0.3-0.6,0.5-0.8,0.8l1.1,4.2c0.8-0.8,1.6-1.5,2.5-2.3c2.3,2.2,4.8,4.4,7.2,6.6c3,2.6,6,5.2,9.1,7.6l1-4
		c-2.6-2.1-5.1-4.2-7.7-6.4c-2.4-2.1-4.7-4.2-7-6.4c2.9-2.9,5.8-5.9,8.7-9.1c0.6-0.7,1.2-1.3,1.8-2c2.6,3.3,5.3,6.5,7.9,9.6l1.2-4.5
		c-2.2-2.6-4.4-5.3-6.6-8c4.9-5.8,9.3-11.6,13.2-17.4l4-15.4c-5.6-4.1-11.3-8.7-17.1-13.8c1.5-1.4,3.1-2.8,4.6-4.3
		c5.1-4.9,9.7-9.9,13.9-15.1c2,1.4,4.1,2.8,6,4.2l1-3.9c-1.5-1-3.1-2.1-4.7-3.2c3-3.8,5.8-7.6,8.5-11.4l3-11.7
		C154.5,298.2,149.7,305.3,144.2,312.2z M123.8,293.3c-0.5,0.4-1,0.9-1.5,1.3c-2.7-2.4-5.3-4.8-8-7.3c-3.9-3.7-7.6-7.4-11.1-11.2
		c5.6-3,11.2-6.3,16.9-10.1c0.2-0.1,0.4-0.3,0.6-0.4c6.2,4.8,12.4,9.1,18.3,13C134.2,283.7,129.2,288.6,123.8,293.3z M156.1,64.2
		c1.2,0.7,2.4,1.3,3.5,2c-6.5,4.4-13.4,8.6-20.7,12.6c-7-4.2-14-9-20.9-14.5c7.9-3.3,15.4-6.8,22.3-10.4
		C145.2,57.4,150.4,60.9,156.1,64.2z M144,51.8c9.2-5,17.5-10.3,25-15.5c4.9,2.7,10.2,5.4,15.7,7.8c0.8,0.4,1.6,0.7,2.4,1
		c-7.2,6.3-15.2,12.6-23.9,18.6c-1.7-0.9-3.4-1.9-5.1-2.8C153,58.1,148.4,55,144,51.8z M104.5,98.6c1.5-0.5,2.9-1.1,4.3-1.7
		c8.8,7.2,17.8,13.3,26.7,18.4c-6.7,3.5-13.7,6.8-21,9.9c-8.7-6.2-17.4-13.3-25.6-21.4C94,102.3,99.2,100.5,104.5,98.6z M85.9,100.8
		c-2.1-2.2-4.2-4.4-6.3-6.7c-4.4-4.9-8.3-9.9-12-14.9c5.9-1.1,12-2.5,18.3-4.2c2.8,3.2,5.9,6.4,9.1,9.5c3.5,3.4,7,6.6,10.5,9.6
		c-0.8,0.3-1.5,0.6-2.3,0.9C97.3,97.2,91.5,99.1,85.9,100.8z M146.8,148.1c-5.5,3.6-11.3,7-17.4,10.2c-10.3-6.5-20.7-14-31.1-22.7
		c2.1-0.7,4.1-1.5,6.2-2.3c3.2-1.2,6.4-2.5,9.5-3.8C125,137,136,143.1,146.8,148.1z M146.2,172.3c-2.8,2-5.7,4-8.6,6
		c-6.2,4.1-12.4,7.8-18.5,11.2c-5.9-4.5-11.9-9.3-17.9-14.5c5.6-2.1,11.3-4.4,17-7c3.8-1.7,7.4-3.5,11-5.4
		C135,166.2,140.6,169.4,146.2,172.3z M133.1,160.6c6.2-3.4,12.1-6.9,17.7-10.7c5.3,2.3,10.6,4.4,15.7,6.2
		c-5.3,4.7-10.9,9.3-16.9,13.8C144.2,167.1,138.7,164,133.1,160.6z M150.5,145.6c-10.6-4.8-21.5-10.6-32.3-17.9
		c7.4-3.2,14.5-6.6,21.3-10.2c10.4,5.7,20.6,10.1,30.3,13.6C163.8,136.1,157.4,141,150.5,145.6z M112.9,95.3
		c9.2-3.7,17.8-7.8,25.9-12.2c9.4,5.5,18.8,10,28,13.7c-8.5,5.7-17.6,11.3-27.3,16.5C130.6,108.3,121.6,102.4,112.9,95.3z M135,80.9
		c-8,4.2-16.5,8.2-25.5,11.8c-4-3.3-8-6.9-11.9-10.7c-2.7-2.6-5.2-5.3-7.6-8c4.3-1.2,8.6-2.5,13-4c3.8-1.3,7.4-2.6,11-4
		c0.3,0.2,0.5,0.5,0.8,0.7C121.5,71.9,128.2,76.7,135,80.9z M101.8,66.3c-4.9,1.7-9.8,3.1-14.5,4.4c-5.9-6.8-11.1-13.7-15.6-20.4
		c2.3-0.5,4.6-1,7-1.5c4.6-1.1,9.1-2.3,13.4-3.7c5.5,6,11.7,12.1,18.6,18C107.8,64.2,104.8,65.3,101.8,66.3z M83.2,71.8
		c-6.2,1.6-12.2,2.9-18,3.9c-5.3-7.5-9.7-14.9-13.6-22.2c5.2-0.6,10.5-1.4,16.1-2.5C72.1,57.9,77.3,64.9,83.2,71.8z M76.8,96.6
		c1.6,1.8,3.3,3.6,5,5.4c-4.8,1.3-9.4,2.5-14,3.5C61,97.6,54.9,89.7,49.6,81.9c4.5-0.5,9.1-1.2,13.9-2C67.5,85.5,71.9,91,76.8,96.6z
		 M84.7,105c8.3,8.3,16.9,15.6,25.7,21.9c-2.4,1-4.8,1.9-7.2,2.8c-2.8,1-5.5,2-8.2,3c-5.7-5-11.4-10.3-17-16.1
		c-2.6-2.7-5.1-5.3-7.5-8C75.2,107.6,79.9,106.4,84.7,105z M125.5,160.3c-2.9,1.5-5.8,2.9-8.8,4.3c-6.3,2.9-12.6,5.4-18.7,7.6
		c-4.2-3.7-8.3-7.6-12.4-11.7c-5.4-5.4-10.5-10.9-15.3-16.4c7.7-1.9,15.7-4.3,23.9-7C104.6,146,115.2,153.7,125.5,160.3z
		 M115.5,191.5c-6.3,3.3-12.4,6.3-18.4,8.9c-2.3-2.2-4.6-4.4-7-6.7c-3.9-3.9-7.5-7.8-11.1-11.7c5.9-1.5,11.9-3.4,18.1-5.5
		C103.3,181.9,109.4,186.9,115.5,191.5z M118.8,194c8.3,6.1,16.5,11.6,24.3,16.4c-5.9,4.5-12.1,8.9-18.8,13
		c-8-6-16.2-12.7-24.3-20.2C106.2,200.5,112.5,197.4,118.8,194z M144.8,242c-7.3,6.7-15.3,13.1-24.1,19.1
		c-7.4-5.8-14.9-12.3-22.3-19.6c8.3-3.7,17-8.2,25.7-13.5C131.2,233.1,138.1,237.8,144.8,242z M161,251.5
		c-5.7,8.3-12.2,16.5-19.4,24.4c-5.8-3.7-11.7-7.8-17.7-12.4c8.8-6.1,16.9-12.6,24.3-19.4C152.6,246.7,156.9,249.2,161,251.5z
		 M164,222c-5,5.9-10.4,11.7-16.3,17.3c-6.5-4.1-13.2-8.5-20-13.5c6.8-4.3,13.1-8.7,19-13.4C152.6,216,158.5,219.2,164,222z
		 M146.3,207.9c-7.7-4.7-15.7-9.9-23.9-15.9c5.7-3.2,11.4-6.7,17.2-10.5c3.5-2.3,7-4.8,10.3-7.2c7.5,3.8,14.8,7.1,21.7,9.9
		C164.2,192.3,155.8,200.3,146.3,207.9z M189.2,162.9c-4.4,6.1-9.3,12.2-14.8,18.4c-6.7-2.7-13.7-5.8-21-9.5
		c6.1-4.6,11.9-9.4,17.3-14.3c0.3,0.1,0.7,0.2,1,0.3C177.7,159.8,183.6,161.5,189.2,162.9z M186.6,136.4
		c-5.2,5.6-10.8,11.3-16.9,16.8c-4.9-1.7-10-3.6-15.1-5.8c6.9-4.8,13.4-9.7,19.4-14.8C178.3,134,182.5,135.3,186.6,136.4z
		 M196.1,106.1c-6.8,7.5-14.4,15-22.8,22.3c-9.5-3.3-19.6-7.5-29.8-12.9c9.8-5.4,19-11.1,27.6-17
		C179.7,101.7,188.1,104.2,196.1,106.1z M170.5,94.2c-9.1-3.5-18.5-7.8-27.9-13.2c7.3-4.1,14.2-8.4,20.7-12.8
		c9.1,4.7,18.2,8.2,27.2,10.9C184.3,84.2,177.6,89.3,170.5,94.2z M216.5,55.4c-6.7,6.8-14.2,13.8-22.4,20.7
		c-8.9-2.5-18-5.9-27.1-10.5c8.8-6.2,16.7-12.6,24-18.9C199.7,50.4,208.3,53.2,216.5,55.4z M190,19.9c5.5,2,11.6,3.6,18.2,4.8
		c-5.4,5.7-11.4,11.7-18.1,17.6c-1.3-0.6-2.6-1.1-3.9-1.7c-4.9-2.2-9.4-4.5-13.8-6.8C179,29.1,184.9,24.3,190,19.9z M165.9,8.2
		c5.1,3.2,11.8,6.9,20.1,10.2c-5,4.3-10.8,8.8-17.2,13.4c-7.1-4-13.6-8.3-19.5-12.5C155.6,15.5,161.1,11.7,165.9,8.2z M145.8,21.5
		c5.9,4.3,12.4,8.6,19.6,12.8c-7.4,5.1-15.6,10.2-24.7,15.1c-6.7-5.2-12.6-10.6-17.8-15.9C131.3,29.6,138.9,25.6,145.8,21.5z
		 M137,51.3c-7,3.6-14.4,7.1-22.3,10.2c-6.9-5.8-13.1-11.7-18.6-17.6c8.2-2.6,16-5.6,23.2-8.8C124.4,40.5,130.3,46,137,51.3z
		 M103.1,15.5c3.6,5.2,8.1,10.9,13.4,16.7c-7.2,3.1-15,6-23.2,8.6c-5.8-6.5-10.8-13-15-19.1C87,19.9,95.3,17.7,103.1,15.5z
		 M74.3,22.5c4.2,6.2,9.2,12.8,15,19.5c-3.8,1.1-7.6,2.2-11.5,3.1c-2.8,0.7-5.6,1.3-8.3,1.8c-4.7-7.5-8.6-14.7-11.9-21.5
		C63.3,24.6,68.9,23.6,74.3,22.5z M52.8,26.2c0.3,0,0.6-0.1,0.9-0.1c3.2,6.8,7.1,14.1,11.8,21.7c-5.4,1-10.7,1.8-15.7,2.4
		c-4-7.8-7.2-15.4-9.8-22.4C44.2,27.2,48.4,26.7,52.8,26.2z M20.8,29c5-0.2,10.1-0.5,15.3-1c2.6,7,5.7,14.6,9.6,22.5
		c-5,0.5-9.9,0.8-14.5,1C27.1,43.5,23.7,36,20.8,29z M33.2,55.1c4.6-0.2,9.4-0.5,14.4-1.1c3.8,7.3,8.3,14.9,13.5,22.4
		c-4.8,0.8-9.4,1.4-13.9,1.9C41.8,70.5,37.2,62.6,33.2,55.1z M28.8,83.5c5.2-0.2,10.7-0.6,16.5-1.1c5.4,7.9,11.4,15.9,18.2,23.9
		c-6.7,1.4-13.2,2.4-19.4,3.2C38.3,100.6,33.3,91.9,28.8,83.5z M46.4,112.9c6.4-0.8,13-2,19.9-3.4c2.9,3.3,5.8,6.5,9,9.7
		c5.1,5.3,10.3,10.2,15.6,14.9c-8,2.6-15.8,4.9-23.3,6.7C59.7,131.5,52.6,122.2,46.4,112.9z M52.3,148c4.5-0.9,9.2-1.8,13.9-3
		c5.2,6.1,10.8,12.1,16.7,18.1c3.7,3.7,7.3,7.1,11,10.5c-6.1,2-12,3.8-17.8,5.2C67.1,168.5,59.2,158.2,52.3,148z M55.9,186.9
		c6-1,12.4-2.2,19-3.8c4,4.5,8.1,8.9,12.6,13.3c1.9,1.9,3.9,3.8,5.9,5.7c-7.7,3.2-15,5.9-21.9,8.1C65.6,202.4,60.5,194.6,55.9,186.9
		z M73.8,213.4c7.1-2.3,14.7-5.1,22.5-8.5c8.2,7.6,16.5,14.5,24.6,20.6c-8.6,5.1-17.1,9.4-25.3,13c-0.8-0.8-1.6-1.7-2.5-2.5
		C86,228.6,79.6,221,73.8,213.4z M80.1,248.7c4.7-1.6,9.6-3.5,14.7-5.6c7.6,7.5,15.2,14.2,22.7,20.2c-5.7,3.7-11.4,7.1-17,10.1
		C92.9,265.1,86.2,256.9,80.1,248.7z M83.4,285.5c5.3-2.2,10.7-4.7,16.2-7.5c3.8,4.1,7.8,8.1,12,12.1c2.6,2.4,5.1,4.8,7.7,7
		c-6,5-12,9.5-18,13.5C94.4,302.2,88.5,293.7,83.4,285.5z M142.3,354.3c-5.2,8.5-11.3,17.3-18.5,25.9c-5.7-7.2-11.3-14.9-16.8-23.1
		c-0.8-1.2-1.6-2.3-2.3-3.5c6.2-4.2,12.5-9,18.8-14.5C129.9,344.9,136.2,349.9,142.3,354.3z M128.3,329.7c-1.6,1.5-3.2,3-4.8,4.4
		c-2.6-2.4-5.1-4.8-7.7-7.4c-4.3-4.3-8.3-8.7-12-13.1c6.1-4.2,12.3-8.8,18.4-13.9c6.6,5.7,13.1,10.8,19.5,15.5
		C137.6,320.1,133.2,324.9,128.3,329.7z"/>
	<path class="st1" d="M144.2,312.2l0.4-0.6c-6.2-4.5-12.6-9.5-19-15l-0.5,0.6l0.5,0.6c0.4-0.3,0.8-0.6,1.1-1c5.7-5,11-10.2,16-15.5
		l-0.5-0.5l-0.4,0.6c5.8,3.6,11.4,6.9,16.8,9.7l0.8,0.4l1.4-5.3l-0.5-0.3c-4.8-2.6-9.9-5.5-15-8.7l-0.4,0.6l0.6,0.5
		c7.3-8.1,13.8-16.4,19.6-24.7l-0.6-0.4l-0.4,0.7c1.3,0.7,2.5,1.3,3.7,1.9l0.8,0.4l1.4-5.2l-0.5-0.3c-0.8-0.4-1.7-0.9-2.5-1.3
		l-0.4,0.7l0.6,0.4c1.7-2.5,3.3-5,4.8-7.6l0.1-0.1l5.1-19.7l-2.9,5.4c-3.5,6.4-7.4,12.9-11.7,19.3l0.6,0.4l0.4-0.7
		c-4-2.2-8-4.5-12.1-7l-0.4,0.6l0.5,0.5c6-5.7,11.5-11.6,16.5-17.6l-0.6-0.5l-0.3,0.7c2.7,1.3,5.3,2.6,7.8,3.8l0.8,0.4l1.3-5.2
		l-0.6-0.3c-2.1-1-4.1-2-6.3-3l-0.3,0.7l0.6,0.5c3.9-4.8,7.5-9.6,10.8-14.4l0.1-0.1l4.2-16l-2.6,4.1c-5,7.9-10.7,15.9-17.1,23.8
		l0.6,0.5l0.3-0.7c-5.3-2.7-10.9-5.7-16.6-9.1l-0.4,0.6l0.5,0.6c9.6-7.8,18.1-16,25.7-24.3l-0.6-0.5l-0.3,0.7
		c3.4,1.3,6.6,2.5,9.8,3.6l0.8,0.3l1.3-5.1l-0.6-0.2c-2.6-0.9-5.3-1.9-8-3l-0.3,0.7l0.6,0.5c4.8-5.4,9.1-10.8,13-16.2l0.1-0.1
		l3.8-14.6l-2.4,3.6c-0.7,1.1-1.4,2.1-2.2,3.2l0.6,0.4l0.2-0.7c-5.6-1.3-11.5-3-17.6-5l-0.2,0.7l0.5,0.6c6.1-5.7,11.8-11.4,17-17.2
		l-0.6-0.5l-0.2,0.7c2.6,0.6,5,1.2,7.5,1.7l0.7,0.2l1.3-5.1l-0.8-0.2c-1.8-0.4-3.6-0.8-5.5-1.3l-0.2,0.7l0.6,0.5
		c3-3.4,5.9-6.8,8.6-10.2l0.1-0.1l3.4-13.2l-2.3,3.1c-4.5,6-9.5,12.2-15,18.4l0.6,0.5l0.2-0.7c-3.9-1-7.9-2.2-12-3.5l-0.2,0.7
		l0.5,0.6c8.5-7.4,16.1-15.1,23-22.7l-0.6-0.5l-0.2,0.7c2,0.4,4,0.8,5.9,1.2l0.7,0.1l1.3-5.1l-0.8-0.1c-1.3-0.3-2.7-0.5-4-0.8
		l-0.2,0.7l0.6,0.5c1.6-1.9,3.3-3.8,4.8-5.7l0,0c0.5-0.6,0.9-1.1,1.3-1.7l0.1-0.1l3.4-13l-2.3,3c-2.1,2.8-4.3,5.6-6.6,8.4
		c-1.9,2.4-4,4.7-6.1,7.1l0.6,0.5l0.2-0.7c-7.6-1.8-15.7-4-24-7l-0.3,0.7l0.4,0.6c7.2-5.1,13.9-10.3,20.2-15.5l-0.5-0.6l-0.2,0.7
		c6,1.6,11.9,2.8,17.6,3.7l0.7,0.1l1.3-5.1l-0.8-0.1c-4.9-0.8-9.8-1.8-14.9-3l-0.2,0.7l0.5,0.6c7.6-6.5,14.5-13,20.8-19.4l0.1-0.1
		l2.7-10.4l-2,2.1c-0.5,0.6-1.1,1.1-1.6,1.7l0.5,0.5l0.2-0.7c-8.2-2.1-16.7-4.8-25.4-8.3l-0.3,0.7l0.5,0.6
		c7-6.3,13.2-12.6,18.7-18.6l-0.6-0.5l-0.1,0.7c2.2,0.3,4.5,0.6,6.9,0.8c2.7,0.2,5.3,0.3,7.8,0.3l0.6,0l1.4-5.3l-1,0
		c-2.7,0-5.5-0.1-8.4-0.4c-1.4-0.1-2.7-0.3-4-0.4l-0.1,0.7l0.6,0.5c4.6-5.1,8.6-10,12.1-14.4l1-1.2h-6.7l-0.2,0.3
		c-3.5,4.3-7.4,8.9-11.8,13.7l0.6,0.5l0.1-0.7c-6.5-1-12.5-2.6-17.9-4.4l-0.2,0.7l0.5,0.6c3.8-3.4,7.1-6.5,10-9.4l1.3-1.3h-7.5
		l-0.2,0.2c-2.6,2.5-5.4,5.1-8.6,7.9l0.5,0.6l0.3-0.7c-6.5-2.5-12.1-5.2-16.7-7.9l-0.2-0.1h-12.6L159.8,7c-4.2,3-8.9,6.1-14.1,9.3
		l0.4,0.6l0.5-0.6c-4.2-3.1-8-6.2-11.5-9.3l-0.2-0.2h-7.9l1.4,1.3c4.1,3.7,8.6,7.5,13.7,11.4l0.5-0.6l-0.4-0.6
		c-6.7,3.9-14.2,7.8-22.3,11.5l0.3,0.7l0.6-0.5c-5.2-5.6-9.6-11.1-13.1-16.2l-0.6,0.4l0.2,0.7c7-2.1,13.6-4.4,19.8-6.7l3.9-1.5
		h-15.7l-0.1,0c-3.5,1.2-7,2.3-10.7,3.4l0.2,0.7l0.6-0.4c-0.8-1.2-1.5-2.3-2.2-3.4l-0.2-0.3h-6.2l0.7,1.1c0.9,1.4,1.9,3,2.9,4.5
		l0.6-0.4l-0.2-0.7c-7.8,2.3-16.1,4.3-24.8,6.1l0.2,0.7l0.6-0.4c-2.5-3.7-4.6-7.3-6.6-10.6l-0.2-0.4h-6.1L64.4,8
		c2,3.6,4.3,7.5,7,11.5l0.6-0.4l-0.1-0.7c-5.2,1-10.6,1.9-16.1,2.7l0.1,0.7l0.7-0.3c-2.3-5.1-4.2-9.8-5.8-14.2l-0.2-0.5H45l0.4,1
		c1.6,4.5,3.6,9.5,6,14.8l0.7-0.3l-0.1-0.7c-4.5,0.6-9,1.1-13.3,1.5l0.1,0.7l0.7-0.2c-2.1-5.9-3.7-11.3-5-16.2l-0.1-0.6h-5.4L29,7.9
		c1.3,5,3,10.6,5,16.7l0.7-0.2l-0.1-0.7c-5.3,0.4-10.5,0.7-15.5,0.9l0,0.7L20,25c-2.5-6.4-4.6-12.3-6.3-17.5l-0.2-0.5H8l0.3,1
		c1.7,5.3,3.7,11.3,6.3,17.7l0.7-0.3l0-0.7c-1.7,0-3.3,0.1-5,0.1l-1,0l1.4,5.3l0.6,0c1.8,0,3.6-0.1,5.5-0.1l0-0.7l-0.7,0.3
		c2.9,7,6.2,14.6,10.3,22.5l0.7-0.3l0-0.7c-1.5,0-3,0.1-4.4,0.1c-1.9,0-3.7,0-5.5-0.1l-1,0l1.4,5.3l0.6,0c1.5,0,3,0.1,4.6,0.1
		c2.1,0,4.2,0,6.4-0.1l0-0.7l-0.7,0.4c4,7.6,8.7,15.5,14,23.6l0.6-0.4l-0.1-0.7c-5.6,0.5-11,0.8-16,1l0,0.7l0.7-0.3
		c-1.9-3.7-3.7-7.4-5.3-11L20.8,69l4.6,17.7l0,0.1c4.1,7.7,8.7,15.5,13.8,23.6l0.6-0.4l-0.1-0.7c-2.6,0.3-5.1,0.5-7.5,0.7l-0.9,0.1
		l1.3,5.2l0.6-0.1c2.9-0.2,5.9-0.5,8.9-0.9l-0.1-0.7l-0.6,0.4c6.2,9.4,13.3,18.9,21.2,28.4l0.6-0.5l-0.2-0.7c-4.6,1-9,2-13.4,2.8
		l0.1,0.7l0.6-0.4c-5.9-8.8-11-17.5-15.4-25.7l-3-5.5l5.3,20.3l0.1,0.1c2.4,4.1,5,8.2,7.7,12.4l0.6-0.4l-0.1-0.7
		c-1.5,0.2-2.9,0.5-4.3,0.7l-0.8,0.1l1.3,5.1l0.7-0.1c1.9-0.3,3.8-0.6,5.7-0.9l-0.1-0.7l-0.6,0.4c6.9,10.3,14.9,20.7,23.9,31.2
		l0.6-0.5l-0.2-0.7c-6.3,1.5-12.4,2.6-18.1,3.5l0.1,0.7l0.7-0.4c-1.8-3.1-3.4-6.1-5-9.1l-3-5.8l5.5,21.1l0.1,0.1
		c4.4,7.5,9.3,15,14.9,22.6l0.6-0.4l-0.2-0.7c-2.9,0.9-5.7,1.7-8.4,2.4l-0.7,0.2l1.3,5.1l0.7-0.2c3.2-0.9,6.5-1.8,9.9-2.9l-0.2-0.7
		l-0.6,0.5c6.1,8.1,12.9,16.2,20.6,24.1c0.5,0.5,1,1,1.5,1.5l0.5-0.5l-0.3-0.7c-4.8,2-9.5,3.8-14.1,5.3l0.2,0.7l0.6-0.4
		c-6.7-9.3-12.4-18.4-17.4-27.2l-2.8-4.9l4.8,18.7l0.1,0.1c3.2,5.1,6.6,10.3,10.4,15.5l0.6-0.4l-0.2-0.7c-2,0.6-3.9,1.2-5.8,1.8
		l-0.7,0.2l1.3,5.1l0.7-0.2c2.4-0.7,4.8-1.4,7.2-2.2l-0.2-0.7l-0.6,0.4c6.1,8.4,13,16.8,20.7,25.2l0.6-0.5l-0.3-0.7
		c-5.3,2.7-10.4,5-15.5,7.1l0.3,0.7l0.6-0.4c-3.2-5.4-6-10.6-8.5-15.6l-3.2-6.4l5.8,22.2l0.1,0.1c0.4,0.6,0.7,1.2,1.1,1.8l0.6-0.4
		l-0.3-0.7c-0.2,0.1-0.3,0.1-0.5,0.2l-0.6,0.2l1.3,5.1l0.8-0.3c0.5-0.2,1-0.4,1.6-0.6l-0.3-0.7l-0.6,0.4
		c5.2,8.4,11.3,17.2,18.4,25.9l0.6-0.5l-0.4-0.6c-3.9,2.5-7.7,4.9-11.5,7.1l-0.5,0.3l1.4,5.3l0.9-0.5c4.3-2.4,8.6-5.1,13-8l-0.4-0.6
		l-0.6,0.5c3.9,4.6,8,9.1,12.5,13.7c2.5,2.5,5,5,7.6,7.3l0.5-0.6l-0.5-0.6c-6,5.2-12.1,9.8-18,13.8l0.4,0.6l0.6-0.4
		c-5-7.8-9.7-15.5-13.9-23.2l-2.9-5.1l5.1,19.5l0.1,0.1c2.3,3.9,4.7,7.8,7.3,11.7l0.6-0.4l-0.4-0.6c-1.2,0.8-2.4,1.5-3.6,2.3
		l-0.5,0.3l1.4,5.3l0.9-0.5c1.6-0.9,3.1-1.9,4.7-3l-0.4-0.6l-0.6,0.4c0.8,1.2,1.6,2.4,2.4,3.6c5.7,8.5,11.6,16.5,17.5,24l0.6-0.5
		l-0.6-0.5c-0.7,0.8-1.4,1.6-2.2,2.5c-2.8,3.2-5.7,6.1-8.5,8.9l0.5,0.5l0.5-0.5c-2-2-4-4-6-6.1l-2-2.1l2.7,10.3l0.1,0.1
		c0.5,0.5,0.9,0.9,1.4,1.4l0.5-0.5l-0.5-0.5c-0.3,0.3-0.5,0.5-0.8,0.8l-0.3,0.3l1.5,5.8l0.9-0.8c0.8-0.8,1.6-1.5,2.5-2.3l-0.5-0.5
		l-0.5,0.5c2.4,2.2,4.8,4.4,7.2,6.6c3,2.6,6.1,5.2,9.1,7.6l0.9,0.7l1.4-5.6l-0.4-0.3c-2.6-2.1-5.1-4.2-7.6-6.4
		c-2.4-2.1-4.7-4.2-7-6.4l-0.5,0.5l0.5,0.5c2.9-2.9,5.8-5.9,8.7-9.1c0.6-0.7,1.2-1.3,1.8-2l-0.6-0.5l-0.6,0.5
		c2.6,3.3,5.3,6.5,7.9,9.6l0.9,1.1l1.6-6.2l-0.2-0.3c-2.2-2.6-4.4-5.3-6.6-8l-0.6,0.5l0.6,0.5c4.9-5.8,9.3-11.6,13.2-17.5l0.1-0.1
		l4.2-16.1l-0.4-0.3c-5.5-4.1-11.2-8.6-17-13.8l-0.5,0.6l0.5,0.6c1.5-1.4,3.1-2.8,4.6-4.3c5.1-4.9,9.7-10,14-15.1l-0.6-0.5l-0.4,0.6
		c2,1.4,4.1,2.8,6.1,4.2l0.9,0.6l1.4-5.4l-0.4-0.3c-1.5-1-3.1-2.1-4.6-3.2l-0.4,0.6l0.6,0.5c3-3.8,5.9-7.6,8.5-11.5l0.1-0.1
		l4.4-16.9l-2.7,4.4c-4.2,7-9,14-14.5,20.9L144.2,312.2l0.4-0.6L144.2,312.2l0.6,0.5c5.6-6.9,10.4-14,14.6-21.1l-0.6-0.4L158,291
		l-3,11.7l0.7,0.2l-0.6-0.4c-2.6,3.8-5.4,7.6-8.4,11.4l-0.5,0.6l0.7,0.5c1.6,1.1,3.1,2.2,4.7,3.2l0.4-0.6l-0.7-0.2l-1,3.9l0.7,0.2
		l0.4-0.6c-2-1.3-4-2.7-6-4.2l-0.6-0.4l-0.4,0.5c-4.2,5.1-8.8,10.1-13.9,15c-1.5,1.5-3,2.9-4.6,4.3l-0.6,0.6l0.6,0.6
		c5.8,5.2,11.5,9.8,17.1,13.9l0.4-0.6l-0.7-0.2l-4,15.4l0.7,0.2l-0.6-0.4c-3.9,5.8-8.3,11.6-13.1,17.3l-0.4,0.5l0.4,0.5
		c2.2,2.8,4.4,5.4,6.6,8.1l0.6-0.5l-0.7-0.2l-1.2,4.5l0.7,0.2l0.6-0.5c-2.6-3.1-5.3-6.3-7.9-9.6l-0.6-0.7l-0.6,0.7
		c-0.6,0.7-1.2,1.3-1.8,2c-2.9,3.2-5.8,6.2-8.6,9l-0.6,0.5l0.6,0.5c2.3,2.2,4.6,4.3,7,6.4c2.5,2.2,5.1,4.4,7.7,6.5l0.5-0.6l-0.7-0.2
		l-1,4l0.7,0.2l0.5-0.6c-3-2.4-6.1-4.9-9.1-7.6c-2.5-2.2-4.9-4.4-7.2-6.6l-0.5-0.5l-0.5,0.5c-0.8,0.8-1.6,1.5-2.5,2.3l0.5,0.6
		l0.7-0.2l-1.1-4.2L107,398l0.5,0.5c0.3-0.3,0.5-0.5,0.8-0.8l0.6-0.5l-0.6-0.5c-0.5-0.4-0.9-0.9-1.4-1.4l-0.5,0.5l0.7-0.2l-1.9-7.3
		l-0.7,0.2l-0.5,0.5c2,2.1,4,4.1,6,6.1l0.5,0.5l0.5-0.5c2.9-2.8,5.7-5.8,8.6-9c0.7-0.8,1.5-1.6,2.2-2.5l0.4-0.5l-0.4-0.5
		c-5.9-7.5-11.7-15.4-17.4-23.9c-0.8-1.2-1.6-2.4-2.4-3.5l-0.4-0.6l-0.6,0.4c-1.6,1-3.1,2-4.7,2.9l0.4,0.6l0.7-0.2l-1-3.8l-0.7,0.2
		l0.4,0.6c1.2-0.7,2.4-1.5,3.7-2.3l0.6-0.4l-0.4-0.6c-2.5-3.9-4.9-7.8-7.2-11.6l-0.6,0.4l0.7-0.2L89.3,327l-0.7,0.2l-0.7,0.4
		c4.3,7.7,8.9,15.5,14,23.3l0.4,0.6l0.6-0.4c6-4,12.1-8.6,18.2-13.9l0.6-0.5l-0.6-0.6c-2.5-2.3-5-4.7-7.5-7.3
		c-4.4-4.5-8.6-9-12.4-13.6l-0.4-0.5l-0.6,0.4c-4.4,2.9-8.7,5.5-13,7.9l0.4,0.7l0.7-0.2l-1-3.8l-0.7,0.2l0.4,0.6
		c3.8-2.2,7.7-4.6,11.6-7.1l0.7-0.5l-0.5-0.6c-7.1-8.7-13.2-17.4-18.3-25.8l-0.3-0.5l-0.6,0.2c-0.5,0.2-1,0.4-1.6,0.6l0.3,0.7
		l0.7-0.2l-1-3.7l-0.7,0.2l0.3,0.7c0.2-0.1,0.3-0.1,0.5-0.2L79,284l-0.5-0.8c-0.4-0.6-0.7-1.2-1.1-1.8l-0.6,0.4l0.7-0.2l-4-15.2
		l-0.7,0.2l-0.7,0.3c2.5,5,5.4,10.3,8.6,15.7l0.3,0.6l0.6-0.2c5.1-2.1,10.3-4.5,15.6-7.1l0.9-0.4l-0.7-0.7
		c-7.6-8.3-14.5-16.8-20.6-25.1l-0.3-0.4l-0.5,0.2c-2.5,0.8-4.8,1.5-7.2,2.2l0.2,0.7l0.7-0.2l-0.9-3.7l-0.7,0.2l0.2,0.7
		c1.9-0.6,3.9-1.2,5.9-1.8l1-0.3l-0.6-0.8c-3.7-5.2-7.1-10.4-10.3-15.4l-0.6,0.4l0.7-0.2L61,218l-0.7,0.2l-0.7,0.4
		c5,8.8,10.8,18,17.5,27.3l0.3,0.5l0.5-0.2c4.6-1.6,9.3-3.4,14.2-5.4l1-0.4l-0.8-0.8c-0.5-0.5-1-1-1.5-1.5
		c-7.6-7.9-14.4-15.9-20.4-24l-0.3-0.4l-0.5,0.2c-3.4,1.1-6.6,2-9.8,2.9l0.2,0.7l0.7-0.2l-1-3.7l-0.7,0.2l0.2,0.7
		c2.7-0.7,5.5-1.5,8.4-2.4l1-0.3l-0.6-0.9c-5.5-7.5-10.4-15.1-14.8-22.5l-0.6,0.4l0.7-0.2L49.6,174l-0.7,0.2l-0.7,0.3
		c1.6,3,3.2,6.1,5,9.2l0.3,0.4l0.5-0.1c5.8-0.9,11.9-2.1,18.2-3.6l1.2-0.3l-0.8-0.9c-9-10.4-16.9-20.8-23.8-31l-0.3-0.4l-0.5,0.1
		c-1.9,0.3-3.8,0.6-5.6,0.9l0.1,0.7l0.7-0.2l-1-3.7l-0.7,0.2l0.1,0.7c1.4-0.2,2.9-0.5,4.3-0.7l1.1-0.2l-0.6-1
		c-2.7-4.2-5.3-8.3-7.7-12.3l-0.6,0.4l0.7-0.2l-3.7-14.2l-0.7,0.2l-0.7,0.4c4.5,8.3,9.6,17,15.5,25.9l0.3,0.4l0.5-0.1
		c4.4-0.8,8.9-1.7,13.5-2.8l1.2-0.3l-0.8-0.9c-7.9-9.4-14.9-18.9-21.1-28.3l-0.3-0.4l-0.5,0.1c-3,0.4-6,0.6-8.9,0.9l0.1,0.7l0.7-0.2
		l-1-3.7l-0.7,0.2l0.1,0.7c2.5-0.2,5-0.4,7.5-0.7l1.2-0.1l-0.7-1c-5.1-8-9.7-15.8-13.8-23.4l-0.7,0.4l0.7-0.2l-4.6-17.6l-0.7,0.2
		l-0.7,0.3c1.7,3.6,3.5,7.3,5.4,11l0.2,0.4l0.5,0c5-0.2,10.4-0.5,16.1-1l1.2-0.1l-0.7-1c-5.3-8-9.9-15.9-13.9-23.5l-0.2-0.4l-0.5,0
		c-2.2,0.1-4.3,0.1-6.4,0.1c-1.5,0-3,0-4.5-0.1l0,0.7l0.7-0.2l-1-3.8l-0.7,0.2l0,0.7c1.8,0,3.6,0.1,5.5,0.1c1.5,0,3,0,4.4-0.1l1.2,0
		l-0.5-1.1c-4-7.9-7.4-15.4-10.2-22.4l-0.2-0.5l-0.5,0c-1.8,0.1-3.7,0.1-5.5,0.1l0,0.7L12,29l-1-3.8l-0.7,0.2l0,0.7
		c1.6,0,3.3-0.1,5-0.1l1.1,0l-0.4-1c-2.5-6.5-4.6-12.4-6.2-17.7L9,7.7v0.7h4V7.7l-0.7,0.2c1.7,5.3,3.8,11.2,6.3,17.6l0.2,0.5l0.5,0
		c5-0.2,10.2-0.5,15.6-0.9l1-0.1l-0.3-0.9c-2.1-6-3.7-11.6-5-16.6l-0.7,0.2v0.7h3.9V7.7l-0.7,0.2c1.3,4.9,2.9,10.4,5,16.4l0.2,0.6
		l0.6-0.1c4.4-0.4,8.8-0.9,13.4-1.5l1-0.1l-0.4-0.9c-2.4-5.3-4.3-10.2-6-14.7L46,7.7v0.7h4V7.7l-0.7,0.3c1.6,4.4,3.5,9.2,5.9,14.3
		l0.2,0.5l0.6-0.1c5.5-0.8,10.9-1.7,16.2-2.7l1.1-0.2l-0.6-0.9c-2.6-4-4.9-7.8-6.9-11.4l-0.7,0.4v0.7h4.3V7.7L68.8,8
		c2,3.4,4.2,7,6.6,10.7l0.3,0.4l0.5-0.1c8.7-1.8,17-3.9,24.9-6.2l1-0.3l-0.6-0.9c-1.1-1.6-2-3.1-2.9-4.5l-0.6,0.4v0.7h4.5V7.7
		l-0.6,0.4c0.7,1.1,1.5,2.2,2.3,3.4l0.3,0.5l0.5-0.2c3.7-1.1,7.3-2.2,10.7-3.4l-0.2-0.7v0.7h11.3V7.7L126.5,7
		c-6.2,2.3-12.8,4.5-19.7,6.7l-1,0.3l0.6,0.9c3.6,5.1,8,10.6,13.3,16.3l0.4,0.4l0.5-0.2c8.2-3.7,15.7-7.6,22.4-11.6l1-0.6l-0.9-0.7
		c-5.1-3.9-9.6-7.7-13.7-11.3l-0.5,0.6v0.7h5.7V7.7l-0.5,0.6c3.5,3,7.3,6.2,11.5,9.3l0.4,0.3l0.4-0.3c5.2-3.2,9.9-6.3,14.2-9.3
		l-0.4-0.6v0.7h12.2V7.7L172,8.3c4.7,2.7,10.3,5.5,17,8l0.4,0.2l0.3-0.3c3.2-2.8,6.1-5.5,8.6-7.9l-0.5-0.5v0.7h5.4V7.7l-0.5-0.5
		c-2.9,2.8-6.2,6-9.9,9.3l-1,0.9l1.2,0.4c5.5,1.8,11.6,3.4,18.1,4.4l0.4,0.1l0.3-0.3c4.4-4.8,8.3-9.5,11.8-13.8l-0.6-0.5v0.7h4.8
		V7.7l-0.6-0.5c-3.5,4.5-7.5,9.3-12.1,14.4l-1,1.1l1.4,0.2c1.3,0.2,2.7,0.3,4.1,0.4c2.9,0.2,5.7,0.3,8.5,0.4l0-0.7l-0.7-0.2l-1,3.8
		l0.7,0.2l0-0.7c-2.5,0-5.1-0.1-7.7-0.3c-2.3-0.2-4.6-0.5-6.8-0.8l-0.4-0.1l-0.3,0.3c-5.5,6-11.7,12.2-18.6,18.5l-0.9,0.8l1.1,0.4
		c8.8,3.5,17.4,6.3,25.6,8.4l0.4,0.1l0.3-0.3c0.6-0.6,1.1-1.1,1.6-1.7l-0.5-0.5l-0.7-0.2l-1.9,7.4l0.7,0.2l-0.5-0.5
		c-6.3,6.3-13.1,12.8-20.7,19.3l-1.1,0.9l1.4,0.4c5.1,1.3,10.1,2.3,15,3.1l0.1-0.7l-0.7-0.2l-1,3.7l0.7,0.2l0.1-0.7
		c-5.7-0.9-11.5-2.1-17.5-3.7l-0.4-0.1l-0.3,0.2c-6.3,5.2-12.9,10.4-20.1,15.4l-1.2,0.8l1.4,0.5c8.4,3,16.5,5.3,24.2,7.1l0.4,0.1
		l0.3-0.3c2.1-2.4,4.2-4.8,6.1-7.2c2.3-2.9,4.6-5.7,6.7-8.5l-0.6-0.5l-0.7-0.2l-2.4,9.2l0.7,0.2l-0.6-0.5c-0.4,0.6-0.9,1.1-1.3,1.6
		l0,0c-1.5,1.9-3.1,3.8-4.8,5.7l-0.8,1l1.2,0.3c1.4,0.3,2.7,0.6,4,0.8l0.1-0.7l-0.7-0.2l-0.9,3.7l0.7,0.2l0.1-0.7
		c-1.9-0.4-3.9-0.8-5.9-1.2l-0.4-0.1l-0.3,0.3c-6.8,7.6-14.4,15.2-22.8,22.6l-1,0.9l1.3,0.4c4.2,1.3,8.2,2.5,12.1,3.6l0.4,0.1
		l0.3-0.3c5.5-6.2,10.6-12.4,15.1-18.5l-0.6-0.4l-0.7-0.2l-2.4,9.3l0.7,0.2l-0.6-0.5c-2.7,3.4-5.5,6.8-8.5,10.2l-0.8,0.9l1.2,0.3
		c1.9,0.5,3.8,0.9,5.6,1.3l0.2-0.7l-0.7-0.2l-0.9,3.7l0.7,0.2l0.2-0.7c-2.4-0.5-4.9-1.1-7.4-1.7l-0.4-0.1l-0.3,0.3
		c-5.2,5.7-10.8,11.4-16.9,17.1l-0.9,0.9l1.2,0.4c6.2,2,12.1,3.6,17.7,5l0.5,0.1l0.3-0.4c0.8-1.1,1.5-2.2,2.2-3.2l-0.6-0.4l-0.7-0.2
		l-2.7,10.3l0.7,0.2l-0.6-0.4c-3.9,5.3-8.2,10.7-12.9,16.1l-0.7,0.8l1,0.4c2.8,1.1,5.4,2,8,3l0.3-0.7l-0.7-0.2l-1,3.7l0.7,0.2
		l0.2-0.7c-3.2-1.1-6.4-2.3-9.8-3.6l-0.5-0.2l-0.3,0.4c-7.5,8.2-15.9,16.3-25.5,24.1l-0.8,0.7l0.9,0.5c5.8,3.4,11.4,6.4,16.7,9.1
		l0.5,0.3l0.4-0.5c6.5-8,12.2-16,17.2-24l-0.6-0.4l-0.7-0.2l-2.9,11.2l0.7,0.2l-0.6-0.4c-3.3,4.8-6.9,9.6-10.8,14.3l-0.6,0.7
		l0.8,0.4c2.1,1.1,4.2,2.1,6.3,3l0.3-0.7l-0.7-0.2l-1,3.7l0.7,0.2l0.3-0.7c-2.5-1.2-5.1-2.4-7.8-3.7l-0.5-0.3l-0.4,0.5
		c-5,5.9-10.5,11.8-16.4,17.5l-0.7,0.7l0.8,0.5c4.2,2.5,8.2,4.8,12.2,7l0.6,0.3l0.4-0.6c4.3-6.5,8.2-13,11.7-19.4l-0.7-0.4l-0.7-0.2
		l-3.5,13.6l0.7,0.2l-0.6-0.4c-1.5,2.5-3.1,5-4.8,7.5l-0.5,0.7l0.7,0.4c0.9,0.5,1.7,0.9,2.5,1.3l0.3-0.7l-0.7-0.2l-1,3.7l0.7,0.2
		l0.3-0.7c-1.2-0.6-2.4-1.3-3.7-1.9l-0.6-0.3l-0.4,0.5c-5.7,8.3-12.2,16.6-19.5,24.6l-0.6,0.7l0.8,0.5c5.2,3.3,10.3,6.2,15.1,8.8
		l0.4-0.7l-0.7-0.2l-1,3.8l0.7,0.2l0.4-0.7c-5.3-2.8-10.9-6-16.7-9.7l-0.5-0.3l-0.4,0.4c-4.9,5.3-10.2,10.4-15.9,15.4
		c-0.4,0.3-0.8,0.6-1.1,1l-0.7,0.6l0.7,0.6c6.4,5.5,12.8,10.5,19.1,15.1l0.6,0.4l0.4-0.6L144.2,312.2z M123.8,293.3l-0.5-0.6
		c-0.5,0.4-1,0.9-1.5,1.3l0.5,0.6l0.5-0.6c-2.7-2.3-5.3-4.8-8-7.3c-3.9-3.7-7.6-7.4-11.1-11.1l-0.5,0.5l0.4,0.7
		c5.6-3,11.3-6.3,17-10.1l0,0c0.2-0.1,0.4-0.3,0.6-0.4l-0.4-0.6l-0.5,0.6c6.2,4.8,12.4,9.1,18.4,13l0.4-0.6l-0.5-0.5
		c-4.7,5-9.7,9.9-15.1,14.6L123.8,293.3l0.5,0.6c5.4-4.8,10.5-9.7,15.2-14.7l0.6-0.7l-0.8-0.5c-6-3.9-12.1-8.2-18.3-12.9l-0.4-0.3
		l-0.4,0.3c-0.2,0.1-0.4,0.3-0.6,0.4l0,0c-5.7,3.7-11.3,7-16.9,10l-0.9,0.5l0.7,0.7c3.6,3.8,7.3,7.5,11.2,11.2c2.7,2.5,5.4,5,8,7.3
		l0.5,0.4l0.5-0.4c0.5-0.4,1-0.9,1.5-1.3L123.8,293.3z M156.1,64.2l-0.4,0.6c1.2,0.7,2.4,1.3,3.5,2l0.4-0.7l-0.4-0.6
		c-6.5,4.4-13.4,8.6-20.7,12.6l0.4,0.7l0.4-0.6c-7-4.2-13.9-9-20.8-14.5l-0.5,0.6l0.3,0.7c8-3.3,15.4-6.8,22.4-10.5l-0.3-0.7
		l-0.4,0.6c4.9,3.6,10.1,7.1,15.8,10.4L156.1,64.2l0.4-0.6c-5.7-3.3-10.9-6.7-15.7-10.3l-0.4-0.3l-0.4,0.2
		c-6.9,3.7-14.4,7.2-22.3,10.4l-1.2,0.5l1,0.8c6.9,5.5,13.9,10.3,21,14.6l0.4,0.2l0.4-0.2c7.3-4,14.3-8.3,20.8-12.6l1-0.7l-1.1-0.6
		c-1.2-0.6-2.4-1.3-3.5-1.9L156.1,64.2z M144,51.8l0.4,0.7c9.2-5.1,17.6-10.3,25-15.6l-0.4-0.6l-0.4,0.7c5,2.7,10.2,5.4,15.7,7.9
		c0.8,0.4,1.6,0.7,2.4,1l0.3-0.7l-0.5-0.6c-7.2,6.3-15.2,12.5-23.9,18.6l0.4,0.6l0.4-0.7c-1.7-0.9-3.4-1.8-5.1-2.8
		c-5-2.9-9.6-5.9-13.9-9.1L144,51.8l0.4,0.7L144,51.8l-0.4,0.6c4.3,3.2,9,6.2,14,9.1c1.7,1,3.5,1.9,5.2,2.9l0.4,0.2l0.4-0.3
		c8.8-6.1,16.7-12.4,24-18.7l0.9-0.8l-1.1-0.5c-0.8-0.3-1.6-0.7-2.3-1c-5.5-2.5-10.7-5.1-15.6-7.8l-0.4-0.2l-0.4,0.3
		c-7.4,5.2-15.7,10.5-24.9,15.5l-1,0.6l1,0.7L144,51.8z M104.5,98.6l0.3,0.7c1.5-0.5,2.9-1.1,4.3-1.7l-0.3-0.7l-0.5,0.6
		c8.8,7.2,17.9,13.3,26.8,18.5l0.4-0.6l-0.3-0.7c-6.7,3.5-13.7,6.8-21,9.9l0.3,0.7l0.4-0.6c-8.7-6.1-17.3-13.2-25.6-21.4l-0.5,0.5
		l0.2,0.7c5.1-1.5,10.4-3.3,15.7-5.2L104.5,98.6l-0.3-0.7c-5.3,2-10.5,3.7-15.6,5.2l-1.2,0.4l0.9,0.9c8.3,8.2,17,15.3,25.7,21.5
		l0.3,0.2l0.4-0.2c7.3-3.1,14.4-6.4,21.1-9.9l1.2-0.6l-1.2-0.7c-8.9-5.1-17.9-11.2-26.6-18.3l-0.3-0.3l-0.4,0.2
		c-1.4,0.6-2.8,1.1-4.3,1.7L104.5,98.6z M85.9,100.8l0.5-0.5c-2.1-2.2-4.2-4.4-6.2-6.7c-4.4-4.9-8.3-9.9-11.9-14.8l-0.6,0.4l0.1,0.7
		c5.9-1.1,12.1-2.5,18.4-4.2L85.9,75l-0.6,0.5c2.9,3.2,5.9,6.4,9.1,9.6c3.5,3.4,7,6.6,10.5,9.6l0.5-0.6l-0.3-0.7
		c-0.8,0.3-1.5,0.6-2.3,0.9c-5.9,2.2-11.7,4.1-17.3,5.7L85.9,100.8l0.5-0.5L85.9,100.8l0.2,0.7c5.7-1.7,11.5-3.6,17.4-5.7
		c0.8-0.3,1.5-0.6,2.3-0.9l1.2-0.4l-1-0.8c-3.5-3-7-6.2-10.5-9.6c-3.2-3.1-6.2-6.3-9-9.5l-0.3-0.3l-0.4,0.1
		c-6.3,1.7-12.4,3-18.3,4.1l-1.2,0.2l0.7,1c3.7,5,7.6,10,12,14.9c2.1,2.3,4.2,4.6,6.3,6.7l0.3,0.3l0.4-0.1L85.9,100.8z M146.8,148.1
		l-0.4-0.6c-5.5,3.6-11.3,7-17.3,10.2l0.4,0.7l0.4-0.6c-10.2-6.4-20.7-13.9-31-22.6l-0.5,0.6l0.3,0.7c2.1-0.7,4.1-1.5,6.2-2.3
		c3.2-1.2,6.4-2.5,9.5-3.8l-0.3-0.7l-0.4,0.6c10.9,7.5,22,13.7,32.8,18.6L146.8,148.1l-0.4-0.6L146.8,148.1l0.3-0.7
		c-10.7-4.9-21.7-11-32.6-18.5l-0.3-0.2l-0.4,0.2c-3.1,1.3-6.3,2.6-9.5,3.8c-2.1,0.8-4.1,1.5-6.2,2.3l-1.2,0.4l1,0.8
		c10.4,8.8,20.9,16.3,31.2,22.8l0.4,0.2l0.4-0.2c6.1-3.2,11.9-6.7,17.4-10.2l1.1-0.7l-1.2-0.6L146.8,148.1z M146.2,172.3l-0.4-0.6
		c-2.8,2-5.6,4-8.6,6c-6.2,4.1-12.3,7.8-18.4,11.2l0.4,0.7l0.5-0.6c-5.9-4.4-11.9-9.2-17.9-14.5l-0.5,0.6l0.3,0.7
		c5.6-2.1,11.3-4.4,17.1-7c3.8-1.7,7.4-3.5,11-5.4l-0.3-0.7l-0.4,0.6c5.8,3.6,11.4,6.8,17,9.7L146.2,172.3l-0.4-0.6L146.2,172.3
		l0.3-0.7c-5.6-2.9-11.2-6.1-16.9-9.7l-0.4-0.2l-0.4,0.2c-3.6,1.9-7.2,3.7-10.9,5.4c-5.7,2.6-11.4,4.9-17,7l-1.2,0.4l1,0.8
		c6,5.2,12,10.1,17.9,14.5l0.4,0.3l0.4-0.2c6.1-3.4,12.3-7.1,18.5-11.2c3-2,5.8-4,8.6-6l1-0.7l-1.1-0.6L146.2,172.3z M133.1,160.6
		l0.4,0.7c6.2-3.4,12.1-7,17.8-10.7l-0.4-0.6l-0.3,0.7c5.3,2.3,10.6,4.4,15.7,6.2l0.2-0.7l-0.5-0.6c-5.3,4.7-10.9,9.3-16.9,13.7
		l0.4,0.6l0.3-0.7c-5.4-2.8-10.9-5.9-16.4-9.2L133.1,160.6l0.4,0.7L133.1,160.6l-0.4,0.6c5.6,3.4,11.1,6.5,16.5,9.3l0.4,0.2l0.4-0.3
		c6-4.5,11.7-9.1,17-13.8l1-0.8l-1.2-0.4c-5.1-1.8-10.3-3.8-15.6-6.2l-0.4-0.2l-0.3,0.2c-5.6,3.7-11.5,7.3-17.7,10.6l-1.1,0.6
		l1.1,0.7L133.1,160.6z M150.5,145.6l0.3-0.7c-10.6-4.7-21.5-10.6-32.2-17.8l-0.4,0.6l0.3,0.7c7.4-3.2,14.5-6.6,21.4-10.2l-0.4-0.7
		l-0.4,0.7c10.4,5.7,20.7,10.1,30.4,13.6l0.3-0.7l-0.5-0.6c-6,5-12.4,9.8-19.3,14.5L150.5,145.6l0.3-0.7L150.5,145.6l0.4,0.6
		c6.9-4.6,13.4-9.5,19.4-14.5l1-0.8l-1.2-0.4c-9.7-3.5-19.9-7.9-30.2-13.5l-0.4-0.2l-0.4,0.2c-6.8,3.6-13.9,7-21.3,10.2l-1.3,0.5
		l1.1,0.8c10.8,7.3,21.8,13.2,32.4,17.9l0.4,0.2l0.3-0.2L150.5,145.6z M112.9,95.3l0.3,0.7c9.2-3.7,17.9-7.9,26-12.3l-0.4-0.7
		l-0.4,0.6c9.5,5.6,18.9,10.1,28.1,13.7l0.3-0.7l-0.4-0.6c-8.5,5.7-17.5,11.2-27.2,16.4l0.4,0.7l0.4-0.7c-8.9-5-17.8-10.9-26.6-17.9
		L112.9,95.3l0.3,0.7L112.9,95.3l-0.5,0.6c8.8,7,17.8,13,26.8,18l0.4,0.2l0.4-0.2c9.7-5.2,18.8-10.8,27.3-16.5l1.2-0.8l-1.3-0.5
		c-9.1-3.6-18.5-8.1-27.9-13.6l-0.4-0.2l-0.4,0.2c-8.1,4.4-16.7,8.5-25.9,12.2l-1.2,0.5l1,0.8L112.9,95.3z M135,80.9l-0.3-0.7
		c-8,4.2-16.5,8.1-25.4,11.7l0.3,0.7L110,92c-4-3.3-8-6.9-11.8-10.7c-2.7-2.6-5.2-5.3-7.6-7.9L90,73.9l0.2,0.7c4.3-1.2,8.6-2.5,13-4
		c3.8-1.3,7.4-2.6,11-4l-0.3-0.7l-0.5,0.6c0.3,0.2,0.5,0.4,0.8,0.7c6.7,5.4,13.5,10.2,20.3,14.4L135,80.9l-0.3-0.7L135,80.9l0.4-0.6
		c-6.8-4.2-13.5-8.9-20.2-14.3c-0.3-0.2-0.5-0.4-0.8-0.7l-0.3-0.3l-0.4,0.2c-3.6,1.4-7.2,2.7-11,4c-4.4,1.5-8.7,2.8-12.9,4l-1.2,0.3
		l0.8,0.9c2.4,2.7,5,5.3,7.7,8c3.9,3.9,7.9,7.4,11.9,10.8l0.3,0.3l0.4-0.2c9-3.6,17.5-7.6,25.6-11.8l1.2-0.6l-1.1-0.7L135,80.9z
		 M101.8,66.3l-0.2-0.7c-4.9,1.7-9.8,3.1-14.5,4.4l0.2,0.7l0.6-0.5c-5.9-6.8-11-13.6-15.5-20.4l-0.6,0.4l0.2,0.7
		c2.3-0.5,4.6-1,7-1.5c4.6-1.1,9.1-2.4,13.5-3.7l-0.2-0.7l-0.6,0.5c5.5,6.1,11.7,12.1,18.7,18.1l0.5-0.6l-0.3-0.7
		c-2.9,1.1-5.8,2.2-8.9,3.2L101.8,66.3L102,67c3-1,6-2.1,8.9-3.2l1.2-0.5l-1-0.8c-6.9-5.9-13.1-11.9-18.5-17.9l-0.3-0.4l-0.5,0.1
		c-4.3,1.3-8.8,2.5-13.4,3.6c-2.3,0.6-4.7,1.1-7,1.5l-1.1,0.2l0.6,0.9c4.5,6.8,9.7,13.7,15.6,20.5l0.3,0.4l0.5-0.1
		c4.8-1.3,9.6-2.8,14.6-4.5L101.8,66.3z M83.2,71.8L83,71.1C76.8,72.7,70.8,74,65,75l0.1,0.7l0.6-0.4c-5.2-7.5-9.7-14.9-13.5-22.1
		l-0.7,0.4l0.1,0.7c5.2-0.6,10.6-1.5,16.1-2.5l-0.1-0.7L67,51.5c4.5,6.9,9.6,13.9,15.6,20.8L83.2,71.8L83,71.1L83.2,71.8l0.6-0.5
		c-5.9-6.9-11-13.9-15.5-20.7L68,50.3l-0.5,0.1c-5.5,1-10.8,1.9-16,2.5L50.4,53l0.5,1c3.8,7.3,8.4,14.7,13.6,22.3l0.3,0.4l0.5-0.1
		c5.8-1.1,11.8-2.4,18-3.9l1.2-0.3l-0.8-0.9L83.2,71.8z M76.8,96.6L76.2,97c1.6,1.8,3.3,3.6,5,5.4l0.5-0.5l-0.2-0.7
		c-4.7,1.3-9.4,2.5-14,3.4l0.2,0.7l0.6-0.5c-6.8-7.8-12.8-15.6-18.1-23.4l-0.6,0.4l0.1,0.7c4.5-0.5,9.1-1.2,14-2l-0.1-0.7l-0.6,0.4
		c4,5.6,8.4,11.2,13.4,16.7L76.8,96.6l0.6-0.5c-4.9-5.5-9.3-11-13.3-16.6l-0.3-0.4l-0.5,0.1c-4.8,0.8-9.4,1.5-13.9,2l-1.2,0.1l0.7,1
		c5.4,7.8,11.4,15.7,18.2,23.5l0.3,0.3l0.4-0.1c4.6-1,9.3-2.2,14-3.5l1.2-0.3l-0.9-0.9c-1.7-1.7-3.3-3.5-4.9-5.4L76.8,96.6z
		 M84.7,105l-0.5,0.5c8.3,8.4,17,15.7,25.8,22l0.4-0.6l-0.3-0.7c-2.4,1-4.8,1.9-7.2,2.8c-2.7,1-5.5,2-8.2,2.9l0.2,0.7l0.5-0.6
		c-5.7-5-11.4-10.3-16.9-16.1c-2.6-2.7-5.1-5.3-7.4-8l-0.6,0.5l0.2,0.7c4.6-1,9.4-2.2,14.2-3.6L84.7,105l-0.5,0.5L84.7,105l-0.2-0.7
		c-4.8,1.4-9.5,2.5-14.1,3.6l-1.2,0.3l0.8,1c2.4,2.7,4.9,5.4,7.5,8.1c5.6,5.8,11.3,11.1,17,16.1l0.3,0.3l0.4-0.1
		c2.7-0.9,5.5-1.9,8.2-3c2.4-0.9,4.9-1.9,7.2-2.8l1.3-0.5l-1.1-0.8c-8.7-6.3-17.3-13.5-25.6-21.9l-0.3-0.3l-0.4,0.1L84.7,105z
		 M125.5,160.3l-0.3-0.7c-2.9,1.5-5.8,2.9-8.8,4.3c-6.3,2.9-12.5,5.4-18.6,7.6l0.3,0.7l0.5-0.6c-4.1-3.7-8.3-7.6-12.4-11.7
		c-5.4-5.4-10.5-10.9-15.3-16.4l-0.6,0.5l0.2,0.7c7.8-1.9,15.8-4.3,24-7l-0.2-0.7l-0.5,0.6c10.4,9,21,16.7,31.4,23.3L125.5,160.3
		l-0.3-0.7L125.5,160.3l0.4-0.6c-10.3-6.6-20.9-14.3-31.2-23.2l-0.3-0.3l-0.4,0.1c-8.2,2.8-16.1,5.1-23.9,7l-1.2,0.3l0.8,0.9
		c4.8,5.5,9.9,11,15.3,16.4c4.1,4.1,8.3,8,12.5,11.8l0.3,0.3l0.4-0.2c6.1-2.2,12.4-4.7,18.8-7.6c3-1.4,6-2.8,8.9-4.3l1.2-0.6
		l-1.1-0.7L125.5,160.3z M115.5,191.5l-0.4-0.7c-6.2,3.3-12.4,6.3-18.4,8.9l0.3,0.7l0.5-0.5c-2.3-2.2-4.6-4.4-6.9-6.7
		c-3.9-3.9-7.5-7.8-11.1-11.7L79,182l0.2,0.7c5.9-1.5,12-3.4,18.2-5.5l-0.2-0.7l-0.5,0.6c6.1,5.4,12.3,10.4,18.4,15.1L115.5,191.5
		l-0.4-0.7L115.5,191.5l0.5-0.6c-6.1-4.6-12.2-9.6-18.3-15l-0.3-0.3l-0.4,0.1c-6.2,2.1-12.2,4-18.1,5.5l-1.2,0.3l0.8,0.9
		c3.5,3.9,7.2,7.8,11.1,11.7c2.3,2.3,4.6,4.6,7,6.8l0.4,0.3l0.5-0.2c6-2.6,12.2-5.6,18.5-9l1-0.6l-0.9-0.7L115.5,191.5z M118.8,194
		l-0.4,0.6c8.3,6.1,16.5,11.6,24.4,16.4l0.4-0.6l-0.5-0.6c-5.8,4.5-12.1,8.9-18.7,13l0.4,0.6l0.4-0.6c-8-6-16.2-12.7-24.3-20.1
		l-0.5,0.6l0.3,0.7c6.1-2.7,12.4-5.8,18.8-9.3L118.8,194l-0.4,0.6L118.8,194l-0.4-0.7c-6.3,3.4-12.6,6.5-18.7,9.2l-1,0.5l0.8,0.8
		c8.1,7.5,16.3,14.2,24.4,20.2l0.4,0.3l0.4-0.3c6.7-4.2,13-8.6,18.8-13.1l0.9-0.7l-0.9-0.6c-7.9-4.8-16-10.2-24.3-16.3l-0.4-0.3
		l-0.4,0.2L118.8,194z M144.8,242l-0.5-0.6c-7.3,6.7-15.2,13-24,19l0.4,0.6l0.5-0.6c-7.4-5.8-14.8-12.3-22.2-19.6l-0.5,0.5l0.3,0.7
		c8.4-3.7,17-8.2,25.8-13.5l-0.4-0.6l-0.4,0.6c7,5.2,13.9,9.8,20.7,14L144.8,242l-0.5-0.6L144.8,242l0.4-0.6
		c-6.7-4.2-13.6-8.8-20.6-14l-0.4-0.3l-0.4,0.3c-8.7,5.3-17.3,9.7-25.6,13.4l-1,0.4l0.8,0.8c7.4,7.3,14.9,13.8,22.3,19.7l0.4,0.3
		l0.5-0.3c8.8-6,16.8-12.4,24.1-19.1l0.7-0.7l-0.8-0.5L144.8,242z M161,251.5l-0.6-0.4c-5.7,8.2-12.1,16.4-19.4,24.3l0.6,0.5
		l0.4-0.6c-5.7-3.7-11.7-7.8-17.6-12.4l-0.5,0.6l0.4,0.6c8.9-6.1,17-12.7,24.3-19.5l-0.5-0.6l-0.4,0.6c4.4,2.7,8.7,5.1,12.9,7.4
		L161,251.5l-0.6-0.4L161,251.5l0.4-0.7c-4.2-2.3-8.5-4.8-12.8-7.4l-0.5-0.3l-0.4,0.4c-7.3,6.8-15.4,13.3-24.2,19.4l-0.9,0.6
		l0.8,0.6c6,4.6,12,8.7,17.7,12.4l0.5,0.3l0.4-0.5c7.3-8,13.8-16.2,19.5-24.5l0.5-0.7l-0.7-0.4L161,251.5z M164,222l-0.6-0.5
		c-5,5.9-10.4,11.6-16.3,17.2l0.5,0.5l0.4-0.6c-6.5-4-13.2-8.5-20-13.5l-0.4,0.6l0.4,0.6c6.8-4.3,13.1-8.8,19.1-13.4l-0.5-0.6
		l-0.4,0.6c6,3.5,11.8,6.7,17.4,9.6L164,222l-0.6-0.5L164,222l0.3-0.7c-5.5-2.8-11.3-6-17.3-9.5l-0.4-0.3l-0.4,0.3
		c-5.9,4.6-12.2,9.1-18.9,13.3l-0.9,0.6l0.9,0.7c6.8,5,13.5,9.5,20.1,13.5l0.5,0.3l0.4-0.4c5.9-5.6,11.4-11.5,16.4-17.3l0.6-0.7
		l-0.8-0.4L164,222z M146.3,207.9l0.4-0.6c-7.7-4.6-15.7-9.9-23.8-15.8l-0.4,0.6l0.4,0.7c5.7-3.2,11.5-6.7,17.3-10.5
		c3.5-2.4,7-4.8,10.3-7.2l-0.4-0.6l-0.3,0.7c7.5,3.8,14.8,7.1,21.8,10l0.3-0.7l-0.6-0.5c-7.4,8-15.8,16-25.2,23.6L146.3,207.9
		l0.4-0.6L146.3,207.9l0.5,0.6c9.5-7.6,17.9-15.6,25.4-23.7l0.7-0.8l-1-0.4c-6.9-2.8-14.2-6.1-21.6-9.9l-0.4-0.2l-0.4,0.3
		c-3.3,2.4-6.7,4.8-10.3,7.2c-5.8,3.8-11.5,7.3-17.2,10.5l-1,0.6l0.9,0.7c8.2,6,16.2,11.3,23.9,15.9l0.4,0.3l0.4-0.3L146.3,207.9z
		 M189.2,162.9l-0.6-0.4c-4.4,6-9.3,12.2-14.8,18.3l0.6,0.5l0.3-0.7c-6.7-2.7-13.7-5.8-20.9-9.5l-0.3,0.7l0.5,0.6
		c6.1-4.7,11.9-9.4,17.4-14.3l-0.5-0.6l-0.2,0.7c0.3,0.1,0.6,0.2,1,0.3c6.1,2,12,3.7,17.6,5L189.2,162.9l-0.6-0.4L189.2,162.9
		l0.2-0.7c-5.6-1.4-11.4-3-17.5-5c-0.3-0.1-0.6-0.2-1-0.3l-0.4-0.1l-0.3,0.3c-5.4,4.8-11.1,9.6-17.3,14.2l-1,0.7l1.1,0.5
		c7.3,3.6,14.3,6.8,21.1,9.5l0.5,0.2l0.4-0.4c5.5-6.2,10.4-12.4,14.9-18.4l0.7-0.9l-1.1-0.3L189.2,162.9z M186.6,136.4l-0.6-0.5
		c-5.2,5.6-10.8,11.2-16.8,16.8l0.5,0.6l0.2-0.7c-4.9-1.7-10-3.6-15.1-5.8l-0.3,0.7l0.4,0.6c6.9-4.8,13.4-9.7,19.5-14.9l-0.5-0.6
		l-0.2,0.7c4.3,1.5,8.5,2.7,12.6,3.8L186.6,136.4l-0.6-0.5L186.6,136.4l0.2-0.7c-4.1-1.1-8.2-2.3-12.5-3.8l-0.4-0.1l-0.3,0.3
		c-6,5.1-12.5,10-19.4,14.8l-1.1,0.8l1.3,0.5c5.2,2.2,10.2,4.1,15.2,5.8l0.4,0.1l0.3-0.3c6.1-5.6,11.7-11.2,16.9-16.9l0.8-0.9
		l-1.2-0.3L186.6,136.4z M196.1,106.1l-0.6-0.5c-6.8,7.5-14.3,15-22.8,22.2l0.5,0.6l0.2-0.7c-9.5-3.3-19.5-7.5-29.7-12.9l-0.4,0.7
		l0.4,0.7c9.8-5.4,19.1-11.1,27.6-17l-0.4-0.6l-0.3,0.7c8.7,3.2,17.1,5.7,25.1,7.7L196.1,106.1l-0.6-0.5L196.1,106.1l0.2-0.7
		c-7.9-1.9-16.3-4.4-24.9-7.6l-0.4-0.1l-0.3,0.2c-8.5,5.9-17.7,11.6-27.5,16.9l-1.2,0.7l1.2,0.7c10.2,5.4,20.3,9.7,29.9,13l0.4,0.1
		l0.3-0.3c8.5-7.3,16.1-14.8,22.9-22.3l0.9-0.9l-1.2-0.3L196.1,106.1z M170.5,94.2l0.3-0.7c-9.1-3.5-18.4-7.8-27.8-13.2l-0.4,0.7
		l0.4,0.7c7.4-4.1,14.3-8.4,20.8-12.9l-0.4-0.6l-0.3,0.7c9.2,4.7,18.3,8.3,27.3,11l0.2-0.7l-0.5-0.6c-6.2,5.1-12.9,10.2-20,15.1
		L170.5,94.2l0.3-0.7L170.5,94.2l0.4,0.6c7.1-5,13.8-10.1,20.1-15.2l1.1-0.9l-1.4-0.4c-8.9-2.7-18-6.2-27-10.9l-0.4-0.2l-0.4,0.3
		c-6.5,4.4-13.4,8.7-20.7,12.8l-1.2,0.6l1.2,0.7c9.4,5.4,18.8,9.8,28,13.3l0.4,0.1l0.3-0.2L170.5,94.2z M216.5,55.4l-0.5-0.5
		c-6.7,6.8-14.2,13.7-22.4,20.7l0.5,0.6l0.2-0.7c-8.9-2.5-17.9-5.9-27-10.4l-0.3,0.7l0.4,0.6c8.8-6.2,16.8-12.6,24-19l-0.5-0.6
		l-0.3,0.7c8.8,3.6,17.4,6.5,25.7,8.7L216.5,55.4l-0.5-0.5L216.5,55.4l0.2-0.7c-8.2-2.2-16.8-5-25.5-8.6l-0.4-0.2l-0.3,0.3
		c-7.2,6.3-15.2,12.7-23.9,18.9l-1,0.7l1.1,0.6c9.2,4.5,18.3,8,27.3,10.5l0.4,0.1l0.3-0.3c8.3-7,15.7-14,22.5-20.8l0.9-0.9l-1.2-0.3
		L216.5,55.4z M190,19.9l-0.3,0.7c5.5,2,11.7,3.7,18.3,4.9l0.1-0.7l-0.5-0.5c-5.4,5.7-11.3,11.6-18,17.6l0.5,0.6l0.3-0.7
		c-1.3-0.6-2.6-1.1-3.9-1.7c-4.8-2.2-9.4-4.5-13.8-6.8l-0.4,0.7l0.4,0.6c6.6-4.8,12.5-9.5,17.6-14L190,19.9l-0.3,0.7L190,19.9
		l-0.5-0.6c-5.1,4.4-11,9.1-17.5,13.9l-1,0.7l1,0.6c4.4,2.4,9,4.7,13.9,6.9c1.3,0.6,2.7,1.1,4,1.7l0.4,0.2l0.4-0.3
		c6.7-6,12.7-11.9,18.1-17.7l0.9-1l-1.4-0.2c-6.6-1.2-12.6-2.9-18.1-4.8l-0.4-0.1l-0.3,0.3L190,19.9z M165.9,8.2l-0.4,0.6
		c5.1,3.2,11.9,7,20.2,10.3l0.3-0.7l-0.5-0.6c-5,4.3-10.8,8.8-17.2,13.4l0.4,0.6l0.4-0.7c-7.1-4-13.6-8.2-19.4-12.4l-0.4,0.6
		l0.4,0.6c6.2-3.8,11.8-7.6,16.6-11.2L165.9,8.2l-0.4,0.6L165.9,8.2l-0.4-0.6c-4.8,3.5-10.3,7.3-16.5,11.1l-1,0.6l0.9,0.7
		c5.9,4.2,12.4,8.5,19.5,12.5l0.4,0.2l0.4-0.3c6.4-4.6,12.2-9.2,17.3-13.5l1-0.8l-1.2-0.5c-8.2-3.2-14.9-6.9-19.9-10.1l-0.4-0.3
		l-0.4,0.3L165.9,8.2z M145.8,21.5l-0.4,0.6c5.9,4.3,12.4,8.6,19.6,12.8l0.4-0.6l-0.4-0.6c-7.4,5.1-15.6,10.2-24.6,15.1l0.4,0.7
		l0.5-0.6c-6.7-5.1-12.6-10.5-17.7-15.8l-0.5,0.5l0.3,0.7c8.4-3.9,16.1-7.9,23-12L145.8,21.5l-0.4,0.6L145.8,21.5l-0.4-0.6
		c-6.9,4.1-14.5,8.1-22.8,12l-1,0.4l0.7,0.8c5.2,5.3,11.1,10.8,17.9,15.9l0.4,0.3L141,50c9.1-4.9,17.4-10,24.8-15.2l1-0.7l-1-0.6
		c-7.2-4.1-13.7-8.4-19.5-12.7l-0.4-0.3l-0.4,0.3L145.8,21.5z M137,51.3l-0.3-0.7c-6.9,3.6-14.4,7-22.3,10.2l0.3,0.7l0.5-0.6
		c-6.9-5.7-13.1-11.7-18.5-17.6l-0.6,0.5l0.2,0.7c8.3-2.7,16-5.6,23.2-8.8l-0.3-0.7l-0.5,0.5c5.2,5.4,11.1,10.9,17.9,16.2L137,51.3
		l-0.3-0.7L137,51.3l0.5-0.6c-6.7-5.3-12.6-10.7-17.7-16.1l-0.4-0.4l-0.5,0.2c-7.2,3.1-14.9,6.1-23.1,8.7l-1.1,0.4l0.8,0.9
		c5.5,6,11.7,11.9,18.7,17.7l0.3,0.3l0.4-0.2c8-3.2,15.4-6.7,22.4-10.3l1-0.5l-0.9-0.7L137,51.3z M103.1,15.5l-0.6,0.4
		c3.7,5.2,8.1,10.9,13.5,16.8l0.6-0.5l-0.3-0.7c-7.2,3.1-14.9,6-23.2,8.6l0.2,0.7l0.6-0.5c-5.8-6.5-10.7-12.9-14.9-19l-0.6,0.4
		l0.2,0.7c8.7-1.9,17-4,24.9-6.3L103.1,15.5l-0.6,0.4L103.1,15.5l-0.2-0.7C95.1,17,86.8,19.1,78.1,21L77,21.2l0.6,0.9
		c4.3,6.2,9.3,12.6,15.1,19.2l0.3,0.4l0.5-0.1c8.3-2.6,16.1-5.5,23.3-8.6l1-0.4l-0.7-0.8c-5.3-5.8-9.7-11.5-13.3-16.7l-0.3-0.4
		l-0.5,0.1L103.1,15.5z M74.3,22.5L73.7,23c4.3,6.3,9.3,12.9,15.1,19.5l0.6-0.5l-0.2-0.7c-3.8,1.1-7.6,2.2-11.5,3.1
		c-2.8,0.7-5.6,1.3-8.3,1.8l0.1,0.7l0.6-0.4c-4.7-7.4-8.6-14.6-11.8-21.4l-0.7,0.3l0.1,0.7c5.7-0.9,11.3-1.8,16.8-2.9L74.3,22.5
		L73.7,23L74.3,22.5l-0.1-0.7c-5.4,1.1-11,2-16.7,2.9l-1,0.2l0.4,0.9c3.3,6.8,7.2,14.1,11.9,21.6l0.3,0.4l0.5-0.1
		c2.7-0.6,5.5-1.2,8.3-1.8c4-1,7.8-2,11.6-3.1l1.1-0.3l-0.8-0.9c-5.8-6.6-10.7-13.2-15-19.4l-0.3-0.4l-0.5,0.1L74.3,22.5z
		 M52.8,26.2l0.1,0.7c0.3,0,0.6-0.1,0.9-0.1L53.7,26L53,26.3c3.2,6.8,7.1,14.2,11.9,21.7l0.6-0.4l-0.1-0.7c-5.4,1-10.6,1.8-15.7,2.3
		l0.1,0.7l0.7-0.3c-3.9-7.8-7.1-15.3-9.7-22.3L40,27.6l0.1,0.7c4.2-0.4,8.5-0.9,12.8-1.5l0,0L52.8,26.2l-0.1-0.7
		c-4.3,0.6-8.6,1.1-12.8,1.5l-1,0.1l0.3,0.9c2.6,7,5.8,14.6,9.8,22.5l0.2,0.5l0.5-0.1c5.1-0.6,10.4-1.4,15.8-2.4l1.1-0.2l-0.6-0.9
		c-4.7-7.5-8.6-14.8-11.8-21.6l-0.2-0.5l-0.5,0.1c-0.3,0-0.6,0.1-0.9,0.1l0,0L52.8,26.2z M20.8,29l0,0.7c5-0.2,10.1-0.5,15.4-1
		L36.1,28l-0.7,0.3c2.6,7.1,5.8,14.6,9.7,22.5l0.7-0.3l-0.1-0.7c-5,0.5-9.9,0.8-14.5,1l0,0.7l0.7-0.3c-4.1-7.9-7.5-15.4-10.4-22.4
		L20.8,29l0,0.7L20.8,29l-0.7,0.3c2.9,7,6.4,14.6,10.5,22.5l0.2,0.4l0.5,0c4.6-0.2,9.5-0.5,14.6-1l1.1-0.1l-0.5-1
		c-3.9-7.8-7.1-15.4-9.6-22.4l-0.2-0.5l-0.6,0c-5.2,0.4-10.3,0.8-15.3,1l-1.1,0l0.4,1L20.8,29z M33.2,55.1l0,0.7
		c4.6-0.2,9.4-0.5,14.5-1.1l-0.1-0.7l-0.7,0.3c3.8,7.3,8.3,14.9,13.5,22.5l0.6-0.4L61,75.8c-4.8,0.8-9.4,1.4-13.9,1.9l0.1,0.7
		l0.6-0.4c-5.3-7.9-9.9-15.7-14-23.2L33.2,55.1l0,0.7L33.2,55.1l-0.7,0.4c4.1,7.5,8.7,15.4,14,23.3l0.3,0.4l0.5,0
		c4.5-0.5,9.1-1.1,14-1.9l1.2-0.2l-0.7-1C56.5,68.5,52,61,48.2,53.7L48,53.3l-0.5,0.1c-5,0.5-9.8,0.9-14.4,1.1l-1.2,0.1l0.6,1.1
		L33.2,55.1z M28.8,83.5l0,0.7c5.2-0.2,10.7-0.6,16.5-1.1l-0.1-0.7l-0.6,0.4c5.4,7.9,11.4,15.9,18.3,23.9l0.6-0.5l-0.1-0.7
		c-6.7,1.3-13.2,2.4-19.3,3.2l0.1,0.7l0.6-0.4c-5.8-8.8-10.8-17.5-15.2-25.8L28.8,83.5l0,0.7L28.8,83.5l-0.7,0.4
		c4.5,8.4,9.5,17.1,15.3,26l0.3,0.4l0.5-0.1c6.2-0.8,12.7-1.8,19.5-3.2l1.3-0.3l-0.8-1c-6.8-8-12.8-15.9-18.2-23.8l-0.3-0.4l-0.4,0
		c-5.8,0.6-11.3,0.9-16.4,1.1l-1.2,0l0.6,1.1L28.8,83.5z M46.4,112.9l0.1,0.7c6.4-0.9,13.1-2,20-3.4l-0.2-0.7l-0.6,0.5
		c2.9,3.3,5.9,6.5,9,9.8c5.1,5.3,10.3,10.3,15.6,14.9l0.5-0.6l-0.2-0.7c-8,2.6-15.8,4.8-23.3,6.7l0.2,0.7l0.6-0.5
		c-7.9-9.3-14.9-18.6-21.1-27.8L46.4,112.9l0.1,0.7L46.4,112.9l-0.6,0.4c6.2,9.3,13.3,18.6,21.2,28l0.3,0.4l0.5-0.1
		c7.6-1.8,15.4-4.1,23.4-6.7l1.2-0.4l-1-0.9C86.2,129,81,124,75.9,118.8c-3.1-3.2-6.1-6.5-8.9-9.7l-0.3-0.3l-0.4,0.1
		c-6.9,1.4-13.5,2.6-19.9,3.4l-1.2,0.2l0.7,1L46.4,112.9z M52.3,148l0.1,0.7c4.5-0.9,9.2-1.8,13.9-3l-0.2-0.7l-0.6,0.5
		c5.2,6.1,10.8,12.1,16.8,18.1c3.7,3.7,7.4,7.2,11.1,10.5l0.5-0.6l-0.2-0.7c-6.1,2-12,3.8-17.7,5.2l0.2,0.7l0.6-0.5
		c-9.1-10.3-17-20.6-23.9-30.8L52.3,148l0.1,0.7L52.3,148l-0.6,0.4c6.9,10.2,14.9,20.6,24,30.9l0.3,0.3l0.4-0.1
		c5.8-1.5,11.7-3.2,17.8-5.2l1.2-0.4l-0.9-0.9c-3.7-3.3-7.3-6.8-11-10.5c-6-6-11.5-12-16.7-18l-0.3-0.3l-0.4,0.1
		c-4.7,1.1-9.4,2.1-13.9,2.9l-1.1,0.2l0.6,0.9L52.3,148z M55.9,186.9l0.1,0.7c6.1-1,12.4-2.2,19-3.9l-0.2-0.7l-0.6,0.5
		c4,4.5,8.2,8.9,12.6,13.3c2,2,3.9,3.8,5.9,5.7l0.5-0.5l-0.3-0.7c-7.6,3.2-15,5.9-21.9,8.1l0.2,0.7l0.6-0.4
		c-5.8-7.8-10.9-15.6-15.4-23.2L55.9,186.9l0.1,0.7L55.9,186.9l-0.6,0.4c4.5,7.7,9.7,15.5,15.5,23.3l0.3,0.4l0.5-0.2
		c7-2.2,14.3-4.9,22-8.1l1.1-0.4l-0.8-0.8c-2-1.9-3.9-3.7-5.8-5.7c-4.4-4.4-8.6-8.8-12.5-13.3l-0.3-0.3l-0.4,0.1
		c-6.6,1.6-12.9,2.9-18.9,3.8l-1.1,0.2l0.6,0.9L55.9,186.9z M73.8,213.4l0.2,0.7c7.2-2.3,14.7-5.1,22.6-8.5l-0.3-0.7l-0.5,0.6
		c8.2,7.6,16.5,14.5,24.7,20.7l0.5-0.6l-0.4-0.6c-8.6,5.1-17,9.4-25.2,13l0.3,0.7l0.5-0.5c-0.8-0.8-1.6-1.7-2.4-2.5
		c-7.1-7.4-13.6-15-19.3-22.6L73.8,213.4l0.2,0.7L73.8,213.4l-0.6,0.5c5.8,7.6,12.3,15.2,19.5,22.7c0.8,0.9,1.6,1.7,2.5,2.5l0.4,0.4
		l0.5-0.2c8.2-3.6,16.7-7.9,25.4-13.1l1-0.6l-0.9-0.7c-8.1-6.2-16.4-13-24.6-20.6l-0.4-0.3l-0.4,0.2c-7.8,3.3-15.4,6.1-22.5,8.5
		l-1,0.3l0.6,0.8L73.8,213.4z M80.1,248.7l0.2,0.7c4.8-1.7,9.7-3.5,14.7-5.7l-0.3-0.7l-0.5,0.5c7.6,7.5,15.2,14.3,22.8,20.3l0.5-0.6
		l-0.4-0.6c-5.7,3.7-11.4,7.1-17,10l0.4,0.7l0.6-0.5c-7.5-8.2-14.3-16.4-20.3-24.6L80.1,248.7l0.2,0.7L80.1,248.7l-0.6,0.4
		c6.1,8.2,12.8,16.5,20.4,24.7l0.4,0.4l0.5-0.3c5.6-3,11.4-6.3,17.1-10.1l0.9-0.6l-0.8-0.6c-7.5-6-15.1-12.7-22.7-20.2l-0.4-0.4
		l-0.5,0.2c-5,2.1-9.9,4-14.6,5.6l-1,0.3l0.6,0.8L80.1,248.7z M83.4,285.5l0.3,0.7c5.3-2.2,10.7-4.7,16.3-7.5l-0.3-0.7l-0.5,0.5
		c3.8,4.1,7.8,8.1,12,12.1c2.6,2.4,5.2,4.8,7.7,7.1l0.5-0.6l-0.5-0.6c-6,5-12,9.5-17.9,13.5l0.4,0.6l0.6-0.5
		c-6.9-8.5-12.9-16.9-17.9-25.1L83.4,285.5l0.3,0.7L83.4,285.5l-0.6,0.4c5.1,8.2,11.1,16.7,18,25.3l0.4,0.5l0.6-0.4
		c6-4.1,12-8.6,18-13.6l0.7-0.6l-0.7-0.6c-2.6-2.3-5.1-4.6-7.7-7c-4.2-4-8.2-8-12-12.1l-0.4-0.4l-0.5,0.3
		c-5.5,2.8-10.9,5.3-16.2,7.5l-0.8,0.3l0.5,0.8L83.4,285.5z M142.3,354.3l-0.6-0.4c-5.1,8.5-11.2,17.2-18.4,25.8l0.6,0.5l0.6-0.5
		c-5.6-7.2-11.3-14.9-16.8-23.1c-0.8-1.2-1.6-2.3-2.3-3.5l-0.6,0.4l0.4,0.6c6.2-4.2,12.6-9,18.9-14.5l-0.5-0.6l-0.5,0.6
		c6.4,5.7,12.7,10.8,18.9,15.2L142.3,354.3l-0.6-0.4L142.3,354.3l0.4-0.6c-6.1-4.4-12.4-9.4-18.7-15.1l-0.5-0.4l-0.5,0.4
		c-6.3,5.5-12.6,10.2-18.8,14.4l-0.6,0.4l0.4,0.6c0.8,1.2,1.5,2.3,2.3,3.5c5.5,8.2,11.2,15.9,16.8,23.2l0.6,0.7l0.6-0.7
		c7.3-8.7,13.4-17.4,18.6-26l0.4-0.6l-0.6-0.4L142.3,354.3z M128.3,329.7l-0.5-0.5c-1.6,1.5-3.2,3-4.7,4.4l0.5,0.6l0.5-0.6
		c-2.6-2.4-5.1-4.8-7.7-7.4c-4.3-4.3-8.2-8.7-11.9-13l-0.6,0.5l0.4,0.6c6.1-4.2,12.3-8.8,18.5-14l-0.5-0.6l-0.5,0.6
		c6.6,5.7,13.2,10.9,19.6,15.5l0.4-0.6l-0.6-0.5c-4.1,4.9-8.6,9.8-13.4,14.5L128.3,329.7l0.5,0.5c4.9-4.8,9.4-9.6,13.5-14.6l0.5-0.6
		l-0.6-0.5c-6.4-4.6-12.9-9.8-19.5-15.4l-0.5-0.4l-0.5,0.4c-6.1,5.1-12.3,9.7-18.3,13.9l-0.7,0.5l0.5,0.6c3.7,4.4,7.7,8.8,12,13.1
		c2.6,2.6,5.1,5.1,7.7,7.4l0.5,0.5l0.5-0.5c1.6-1.4,3.2-2.9,4.8-4.4L128.3,329.7z"/>
</g>
</svg>
