<?xml version="1.0" encoding="utf-8"?>
<!-- Generator: Adobe Illustrator 21.1.0, SVG Export Plug-In . SVG Version: 6.00 Build 0)  -->
<svg version="1.1" id="Layer_1" xmlns="http://www.w3.org/2000/svg" xmlns:xlink="http://www.w3.org/1999/xlink" x="0px" y="0px"
	 viewBox="0 0 365 460" style="enable-background:new 0 0 365 460;" xml:space="preserve">
<style type="text/css">
	.st0{fill:#FF9200;}
	.st1{fill:#FF4E00;}
</style>
<g>
	<polygon class="st0" points="70.8,13.9 294.2,13.9 182.5,444.4 	"/>
	<path class="st1" d="M292.6,15.2L182.5,439.4L72.4,15.2H292.6 M295.8,12.7H69.2l113.3,436.7L295.8,12.7z"/>
	<path class="st0" d="M189.7,419.8c-3.3-2.6-6.3-5.1-9.1-7.6c-2.2-1.9-4.4-3.9-6.6-6c-0.6,0.6-1.2,1.1-1.8,1.7l-1.2,1.1l-1.6-6.3
		l0.5-0.5l-0.8-0.8l-2.9-11.3l2.7,2.8c1.9,2,3.6,3.7,5.3,5.4c2.8-2.8,5.3-5.5,7.8-8.2c0.5-0.6,1.1-1.2,1.6-1.8
		c-5.9-7.6-11.6-15.4-17-23.3c-0.6-0.9-1.2-1.8-1.8-2.7c-1.2,0.8-2.5,1.6-3.9,2.4l-1.1,0.7l-1.5-5.8l0.6-0.4
		c0.9-0.6,1.8-1.1,2.8-1.7c-2.2-3.4-4.4-7-6.7-10.8l-0.1-0.1l-5.6-21.4l-0.1-0.5l0.7-0.4c3.6-2.1,7.2-4.3,10.6-6.5
		c-6.2-7.7-12.1-15.9-17.3-24.4l-1.8,0.7l-1.5-5.6l0.3-0.1l-0.5-0.9l-6.4-24.6l4.2,8.5c2.5,5.1,5.2,10,8.1,14.9
		c4.5-1.9,9.1-4,13.5-6.2c-6.8-7.5-13.3-15.5-19.4-23.7c-2,0.6-4.1,1.3-6.6,2l-1,0.3l-1.4-5.6l0.9-0.3c1.7-0.5,3.1-0.9,4.5-1.4
		c-3.3-4.6-6.5-9.5-9.6-14.4l-0.1-0.1l-5.3-20.5l1,1.8l0.4-0.1c2.4-0.7,4.7-1.3,7-2c-5-6.9-9.7-14.1-14.1-21.5l-0.1-0.1l-6-23.2
		l4.1,7.8c1.5,2.9,3.1,5.8,4.6,8.5c5.3-0.8,10.6-1.9,15.8-3.1c-8.1-9.4-15.6-19.3-22.5-29.4c-1.7,0.3-3.4,0.6-5,0.8l-0.9,0.1
		l-1.5-5.6l1.1-0.2c0.9-0.1,1.9-0.3,2.8-0.5c-2.3-3.6-4.7-7.3-6.9-11.1l-0.1-0.1l-6.1-23.6l1.2-0.1c2.2-0.2,4.1-0.4,5.9-0.5
		c-4.5-7.1-8.9-14.6-13-22.2l-0.1-0.1l-4.6-17.7l1.9-0.7c1.7,3.7,3.4,7.1,5.1,10.4c4.5-0.1,9-0.4,13.7-0.8
		c-4.6-7-8.9-14.3-12.8-21.7c-2,0-3.9,0.1-5.8,0.1c-1.6,0-3.1,0-4.6-0.1l-0.8,0l-1.5-5.8l1.3,0c1.8,0,3.6,0.1,5.5,0.1
		c0.9,0,1.9,0,2.8,0c-3.4-6.7-6.5-13.5-9.3-20.4c-1.6,0-3.2,0.1-4.8,0.1l-0.8,0l-1.5-5.8l1.3,0c1.2,0,2.3,0,3.5-0.1
		c-2.1-5.4-4-10.9-5.8-16.4l-0.4-1.3h6.1l0.2,0.7c1.8,5.7,3.8,11.3,6,16.9c4.5-0.2,9.1-0.4,13.5-0.8c-1.7-5.1-3.3-10.3-4.6-15.5
		L92,11.7h6l0.2,0.7c1.4,5.2,3,10.4,4.7,15.5c3.9-0.4,7.5-0.8,11.2-1.3c-2-4.4-3.8-9-5.5-13.6l-0.5-1.3h6.1l0.2,0.7
		c1.7,4.6,3.5,9.1,5.5,13.5c4.7-0.7,9.4-1.5,13.9-2.3c-2.1-3.3-4.1-6.7-6.2-10.3l-0.8-1.5h6.6l0.3,0.5c2,3.5,4.1,6.8,6.2,10
		c7.7-1.6,15.3-3.5,22.8-5.6c-0.7-1.1-1.5-2.2-2.2-3.4l-1-1.5h6.8l0.3,0.5c0.6,0.9,1.2,1.8,1.8,2.8c3.3-1,6.6-2.1,10-3.2l0.2-0.1
		h19.7l0.3,0.2c3.5,3.1,7.2,6,10.9,8.8c4.5-2.8,9-5.7,13.5-8.9l0.3-0.2h12.8l0.2,0.1c5.2,3,10.6,5.5,16.1,7.6
		c2.7-2.4,5.4-4.9,8.1-7.5l0.3-0.3h8.2l-1.7,1.7c-2.8,2.8-5.7,5.5-8.7,8.2c5.1,1.6,10.4,2.9,15.7,3.7c3.9-4.3,7.6-8.7,11.4-13.3
		l0.3-0.4h7.4l-1.3,1.6c-3.6,4.5-7.1,8.8-10.9,13c0.7,0.1,1.4,0.1,2.1,0.2c2.7,0.2,5.5,0.3,8.4,0.4l1.3,0l-1.5,5.8l-0.8,0
		c-2.8,0-5.4-0.2-7.9-0.4c-2-0.2-4-0.4-6.4-0.7c-5.5,5.9-11.3,11.7-17.2,17.1c7.6,3,15.4,5.5,23.3,7.6c0.2-0.2,3.9-4.1,3.9-4.1
		l-3,11.4l-0.2,0.2c-6.3,6.3-12.8,12.4-19.3,18.1c4.2,1,8.6,1.9,13,2.6l1.1,0.2l-0.8,3.1l-3.7,14.3l-0.6,0.7
		c-0.3,0.4-0.6,0.7-0.9,1.1c-1.1,1.4-2.3,2.8-3.7,4.4c0.8,0.2,1.6,0.3,2.3,0.5l1,0.2l-1.5,5.6l-0.9-0.2c-2-0.4-3.7-0.7-5.4-1.1
		c-6.7,7.5-13.8,14.6-21.3,21.2c3.3,1,6.6,2,9.7,2.8c5.1-5.7,10-11.8,14.6-17.9l3.1-4.1l-3.7,14.4l-0.1,0.2c-2.5,3.1-5,6.1-7.5,9
		c1.2,0.3,2.5,0.6,3.9,0.9l1,0.2l-1.5,5.6l-0.9-0.2c-2.4-0.5-4.6-1-6.9-1.6c-4.9,5.4-10,10.6-15.3,15.6c5.1,1.6,10.2,3,15.3,4.3
		c0.5-0.7,0.9-1.4,1.4-2.1l3.7-5.4l-4.2,16l-0.1,0.2c-4,5.4-7.9,10.3-12.1,15.1c2.1,0.8,4.2,1.6,6.7,2.4l0.9,0.3l-5.6,21.7l-0.1,0.1
		c-3.2,4.6-6.6,9.2-10.1,13.5c1.6,0.8,3.3,1.6,5.2,2.5l0.3,0.1l0.9-1.7l-5.6,21.7l-0.1,0.1c-1.6,2.5-2.9,4.7-4.2,6.6
		c0.3,0.1,2.2,1.2,2.2,1.2l-1.5,5.7l-1.5-0.8c-0.9-0.4-1.7-0.9-2.6-1.3c-5.6,8.1-11.8,15.9-18.3,23.1c4.5,2.8,9.3,5.5,14,8.1
		l0.3,0.2l0.7-1.2l-4.8,18.6l-0.1,0.1c-2.5,3.7-5.2,7.3-7.8,10.7c1.3,0.9,2.5,1.7,3.8,2.6l0.6,0.4l-1.5,5.9l-1.2-0.8
		c-1.8-1.2-3.6-2.4-5.3-3.7c-4.3,5.1-8.8,9.9-13.4,14.4c-1.2,1.1-2.4,2.3-3.8,3.5c5.1,4.5,10.5,8.9,16.1,13l0.5,0.4l-4.2,16.3
		l-0.1,0.1c-4,5.8-8.2,11.5-12.7,16.8c2,2.5,4,4.9,6.1,7.4l0.3,0.4l-1.8,6.8l-1.2-1.5c-2.5-3-4.9-5.9-7.2-8.7
		c-0.3,0.4-0.6,0.7-1,1.1c-2.5,2.8-5.2,5.6-8,8.4c2.1,1.9,4.1,3.8,6.2,5.6c2.4,2.1,5,4.3,7.6,6.4l0.5,0.4l-1.6,6.1L189.7,419.8z
		 M169.5,358.9c0.6,0.9,1.2,1.8,1.8,2.7c5.1,7.5,10.4,14.9,16,22.1c6.2-7.5,12-15.6,17.1-24.1c-6.1-4.4-11.9-9.2-17.5-14.1
		C181.5,350.3,175.6,354.8,169.5,358.9z M153,331.7c4.3,7.7,8.8,15.2,13.4,22.4c5.7-3.9,11.1-8.1,16.3-12.5
		c-2.4-2.2-4.6-4.4-6.8-6.6c-4.1-4.1-8.1-8.5-11.9-13c-3.9,2.6-8.1,5.1-12.2,7.5L153,331.7z M168.8,318.8c3.6,4.2,7.4,8.3,11.2,12.2
		c2.2,2.2,4.5,4.5,7,6.8c1.5-1.4,2.8-2.6,4.1-3.8c4.4-4.3,8.7-8.8,12.7-13.6c-6.1-4.5-12.2-9.3-18.1-14.3
		C180.3,310.4,174.7,314.7,168.8,318.8z M190.2,302.2c5.6,4.8,11.4,9.4,17.3,13.7c4.9-6.2,9.6-12.9,13.8-19.9
		c-5.2-2.8-10.4-5.8-15.4-8.9c-5,5.3-10.2,10.3-15.4,14.9L190.2,302.2z M148.4,291c5.1,8.1,10.7,16,16.7,23.4
		c5.6-3.8,11-7.9,16.2-12.2c-2.4-2.2-4.7-4.2-6.9-6.3c-3.9-3.7-7.8-7.6-11.5-11.6C158.2,286.6,153.3,288.9,148.4,291z M168.2,281.4
		c3.4,3.5,6.8,7,10.2,10.2c2.4,2.2,4.8,4.4,7.3,6.7c0.3-0.2,0.6-0.5,0.9-0.7c4.9-4.3,9.6-8.8,14.3-13.7c-5.7-3.7-11.4-7.7-16.8-11.9
		l0,0C179,275.3,173.7,278.5,168.2,281.4z M189.1,268.5c5.1,3.9,10.4,7.6,15.8,11.1c6.4-7.1,12.5-14.8,18.2-22.8
		c-3.8-2.1-7.5-4.3-11.3-6.5C204.7,256.8,197.1,262.9,189.1,268.5z M145.2,254.2c5.9,7.9,12.3,15.6,18.9,22.9
		c5.2-2.8,10.2-5.7,15.1-8.9c-7.4-5.9-14.5-12.3-21.3-19C153.8,251,149.5,252.6,145.2,254.2z M163.7,246.7
		c6.5,6.4,13.4,12.4,20.6,18.1c7.8-5.4,15.3-11.3,22.4-17.7c-6.5-4.1-12.9-8.4-19-13C179.9,238.8,171.9,243,163.7,246.7z
		 M216.2,246.1c3.4,2,6.8,4,10.2,5.9c3.9-5.8,7.6-12.1,11.1-18.5l0.2-0.3c-2.1-1-4.3-2-6.5-3.1C226.5,235.6,221.5,241,216.2,246.1z
		 M124.9,223.1c5.1,9,10.8,17.8,16.7,26.2c4-1.4,8-2.9,12-4.5c-0.1-0.1-0.3-0.3-0.4-0.4c-7.1-7.4-13.9-15.3-20.1-23.6
		C130.4,221.6,127.6,222.4,124.9,223.1z M192.9,230.9c5.9,4.2,12,8.3,18.1,12.2c5.2-4.9,10.2-10.2,14.9-15.7
		c-5.3-2.7-10.6-5.6-15.7-8.7C204.7,222.9,198.9,227.1,192.9,230.9z M138.9,218.9c5.8,7.5,12,14.7,18.5,21.5c0.7,0.7,1.3,1.3,2,2
		c7.9-3.5,15.8-7.5,23.3-11.9c-8-6.1-15.7-12.6-23-19.4C152.8,213.9,145.9,216.6,138.9,218.9z M165.4,208.5
		c7.2,6.6,14.8,12.8,22.6,18.7c5.7-3.6,11.4-7.5,16.9-11.7c-7.8-4.8-15.4-9.9-22.7-15.3C176.7,203.2,171,206,165.4,208.5z
		 M215.1,214.8c4.8,2.8,9.7,5.5,14.7,8c5.9-7.3,11.5-15.1,16.6-23.2l2.6-4.1l-0.6-0.2c-3.3-1.2-6.3-2.3-9.2-3.4
		C231.7,200.1,223.6,207.8,215.1,214.8z M121,192.6c4.4,7.3,9.1,14.5,14.2,21.4c6.7-2.2,13.3-4.6,19.8-7.3c-1.8-1.7-3.3-3.2-4.8-4.7
		c-4.1-4.1-8.2-8.4-12.2-12.9C132.5,190.5,126.7,191.7,121,192.6z M187.8,197.1c7.1,5.2,14.5,10,22,14.6c8.4-6.7,16.3-14.2,23.7-22
		c-6.8-2.8-13.4-5.9-19.9-9.1c-3.3,2.4-6.6,4.7-9.8,6.8C198.7,190.7,193.4,193.9,187.8,197.1z M144.4,187.6
		c3.4,3.7,6.6,7.1,9.9,10.4c2,2,4.1,4,6.5,6.3c5.5-2.4,11-5.1,16.4-7.9c-5.7-4.4-11.3-9-16.7-13.7
		C155.1,184.5,149.7,186.1,144.4,187.6z M166.7,180.4c5.2,4.4,10.6,8.8,16.1,12.9c6.2-3.4,12.2-7.1,17.8-10.8c2.3-1.5,4.7-3.2,7.3-5
		c-5.2-2.8-10.3-5.7-15.1-8.7c-3.9,2-7.2,3.7-10.5,5.1C177.1,176.3,171.9,178.4,166.7,180.4z M218.7,176.6c6.1,3,12.5,5.9,18.8,8.5
		c4.7-5.3,9.2-10.9,13.4-16.6c-5.5-1.4-10.9-3-16.2-4.7l-0.4-0.1C229.4,168.1,224.2,172.4,218.7,176.6z M117.5,153.7
		c7,10.1,14.5,19.8,22.6,29c5.3-1.3,10.5-2.9,15.5-4.5c-3.4-3.1-6.7-6.2-9.8-9.4c-5.6-5.5-11.1-11.5-16.4-17.7
		C125.4,152.1,121.4,152.9,117.5,153.7z M135.6,149.6c4.6,5.2,9.4,10.3,14.2,15.1c3.8,3.8,7.8,7.6,11.9,11.3
		c6.2-2.2,12.3-4.7,18.1-7.3c2.3-1,4.6-2.2,7.2-3.5c-10.3-6.7-20.2-14.1-29.5-22C150.4,145.6,143,147.7,135.6,149.6z M198.7,165.6
		c4.7,2.8,9.5,5.5,14.4,8c5.1-3.9,10.2-8,15.1-12.2c-4.6-1.7-9.2-3.5-13.6-5.4C209.2,159.5,203.9,162.7,198.7,165.6z M163.8,140.9
		c9.2,7.6,19,14.8,29.1,21.2c5.1-2.8,10.3-5.7,15.2-8.9c-10.8-5.1-21.1-11-30.7-17.6c-3.4,1.4-6.3,2.6-9.1,3.6
		C167,139.8,165.5,140.4,163.8,140.9z M220.2,152.2c4.2,1.7,8.5,3.4,12.8,4.9c5.3-4.8,10.4-9.9,15.3-15.2c-3.6-1-7.1-2.1-10.5-3.2
		C232.1,143.5,226.2,148,220.2,152.2z M183.8,133c9.5,6.2,19.6,11.8,30.1,16.6c5.9-4,11.7-8.3,17.4-13c-9.8-3.6-19.3-7.9-28.4-12.8
		C196.8,127,190.3,130.1,183.8,133z M98.9,123.3c4.6,8.6,9.7,17.1,15,25.2c3.7-0.7,7.5-1.5,11.2-2.3c-7-8.5-13.7-17.4-19.8-26.7
		c-2.6,0.3-5.2,0.6-8,0.8L98.9,123.3z M111.7,118.7c6.1,8.9,12.7,17.7,19.7,26c7-1.7,14.1-3.7,21-6c-5-4.4-9.8-9.1-14.3-13.8
		c-2.9-3-5.7-6-8.6-9.3C123.6,116.9,117.6,117.9,111.7,118.7z M136,114.2c2.1,2.3,4.2,4.6,6.3,6.7c5.2,5.4,10.7,10.6,16.5,15.7
		c2.8-1,5.3-1.9,7.6-2.8c1.8-0.7,3.7-1.4,5.5-2.2c-8.5-6.2-16.5-13.2-23.9-20.6C144.1,112.2,140,113.3,136,114.2z M209.1,120.4
		c8.7,4.5,18,8.5,27.4,11.8c7.3-6.3,14.4-13.2,21.2-20.6c-7.8-1.9-15.5-4.3-23-7.1C226.5,110.2,217.9,115.5,209.1,120.4z
		 M154.3,109.3c7.4,7.2,15.4,13.9,23.9,19.8c6.4-2.7,12.7-5.7,18.8-8.8c-8.7-5.1-17-10.9-24.8-17.2l-0.4,0.2
		c-1.1,0.4-2.2,0.9-3.4,1.3C163.8,106.2,159.2,107.8,154.3,109.3z M178.3,100.6c7.7,6.1,16.1,11.6,24.7,16.5
		c8.6-4.6,17-9.7,25.1-15.1c-9-3.7-17.7-7.9-25.9-12.8C194.5,93.4,186.4,97.2,178.3,100.6z M94,89.5c4.4,8.1,9.1,16.2,14.1,23.9
		c5.6-0.7,11.4-1.7,17-2.8c-5.9-7.1-11.6-14.5-16.8-22.2C103.6,88.9,98.8,89.3,94,89.5z M114.8,87.7c5.2,7.4,10.9,14.7,16.8,21.6
		c3.8-0.8,7.8-1.8,11.7-2.9c-1.3-1.4-2.6-2.8-3.8-4.2c-4.6-5.1-8.9-10.6-13-16.2C122.7,86.7,118.7,87.2,114.8,87.7z M240.5,100.5
		c7,2.4,14.3,4.5,21.6,6.2c2.1-2.4,4-4.6,5.7-6.7c2.2-2.7,4.4-5.5,6.6-8.4l1.2-1.7c-5.9-0.9-11.5-2.1-16.9-3.6
		C252.8,91.3,246.7,96.1,240.5,100.5z M132.9,84.9c3.5,4.7,7.2,9.2,11,13.5c1.8,2.1,3.7,4.1,5.8,6.3c5.7-1.7,11.3-3.5,16.7-5.5
		c0.2-0.1,0.5-0.2,0.7-0.3c-3.2-2.8-6.3-5.6-9.3-8.6c-2.9-2.9-5.9-6-8.7-9.1C143.7,82.6,138.2,83.8,132.9,84.9z M208.2,86
		c8.2,4.6,16.8,8.7,25.7,12.1c6.2-4.3,12.2-8.9,18.1-13.6c-8.6-2.7-17-6.1-25-10.2C220.8,78.5,214.5,82.4,208.2,86z M155.4,79.4
		c2.2,2.3,4.3,4.6,6.5,6.7c3.6,3.5,7.3,6.9,11.4,10.3c7.9-3.2,15.7-6.8,23.3-10.7c-6.5-4.1-12.9-8.6-18.9-13.5
		c-0.1-0.1-0.3-0.2-0.4-0.3c-3.6,1.4-7.1,2.7-10.5,3.8C163.1,77.1,159.3,78.3,155.4,79.4z M183.5,69.5c6,4.7,12.4,9.1,19,13.1
		c6.4-3.5,12.7-7.3,18.8-11.4c-0.7-0.4-1.4-0.8-2.1-1.2c-5.2-3-10.4-6.4-15.3-10.1C197.1,63.4,190.3,66.6,183.5,69.5z M98.3,61
		c4,7.3,8.3,14.4,12.9,21.3c4-0.4,7.9-1,11.7-1.6c-4.5-6.6-8.6-13.5-12.4-20.6C106.5,60.5,102.4,60.8,98.3,61z M232.4,70.5
		c8,3.9,16.4,7.1,25,9.5c7.1-6,14.1-12.4,20.7-19.1c-8-2.2-15.9-4.9-23.5-8C247.5,59.2,240,65.1,232.4,70.5z M116.7,59.4
		c3.8,7,7.9,13.8,12.5,20.3c5.3-1,10.6-2.1,15.7-3.4c-5.1-6-9.8-12.4-14.2-19.1C126,58.1,121.3,58.8,116.7,59.4z M136.8,56
		c4.4,6.5,9.2,12.7,14.2,18.6c4.9-1.3,9.4-2.7,13.9-4.3c2.4-0.8,4.8-1.7,7.3-2.6c-6-5.2-11.7-10.7-17-16.5
		c-4.6,1.4-8.9,2.5-12.9,3.5C140.7,55.2,138.9,55.6,136.8,56z M209.4,56.9c4.2,3,8.3,5.7,12.6,8.1c1.5,0.8,3,1.7,4.6,2.5
		c7.6-5.3,15-11,22.1-17.2c-0.3-0.1-0.6-0.3-0.9-0.4c-5.1-2.3-10.2-4.8-15.2-7.6C225.1,47.7,217.4,52.5,209.4,56.9z M161.4,49.4
		c5.3,5.6,11,11,17,16c6.9-2.8,13.7-5.9,20.3-9.3c-5.7-4.5-11.1-9.5-16.2-14.8C175.6,44.3,168.5,47,161.4,49.4z M85.7,34.9
		c2.9,6.9,6.1,13.8,9.6,20.5c4.1-0.2,8.3-0.4,12.4-0.8c-3.3-6.7-6.2-13.6-8.8-20.5C94.5,34.4,90.1,34.7,85.7,34.9z M104.9,33.5
		c2.6,7,5.6,13.8,8.9,20.5c4.4-0.5,9-1.2,13.5-2c-3.9-6.4-7.5-13-10.8-19.8l-0.2,0C112.6,32.6,108.8,33.1,104.9,33.5z M188.1,38.8
		c5.1,5.1,10.5,10,16.2,14.4c7.8-4.2,15.4-8.9,22.7-13.9c-6.1-3.6-12.1-7.5-17.8-11.6C202.4,31.7,195.3,35.4,188.1,38.8z
		 M122.6,31.2c3.3,6.7,6.9,13.3,10.9,19.6c2.7-0.6,5.2-1.1,7.6-1.7c3.1-0.7,6.3-1.6,10-2.7c-4.9-5.7-9.5-11.7-13.7-17.8
		C132.6,29.6,127.7,30.5,122.6,31.2z M237.8,38.7c4.2,2.2,8.3,4.2,12.4,6.1c1,0.5,2,0.9,3.1,1.3l0.3,0.1c5.6-5,11-10.3,16.3-15.8
		c-5.4-1.1-10.8-2.5-16-4.4C248.6,30.4,243.3,34.7,237.8,38.7z M143.5,27.4c4.2,6,8.8,11.8,13.6,17.3c7.2-2.3,14.3-4.9,21.2-7.8
		c-4.3-4.8-8.4-9.9-12.1-15.2C158.8,23.8,151.1,25.7,143.5,27.4z M214.6,24.4c5.7,4,11.6,7.8,17.6,11.2c5.3-3.8,10.4-7.8,15.4-11.9
		c-6.3-2.6-12.4-5.7-18.1-9.3C224.7,17.9,219.7,21.3,214.6,24.4z M172.1,19.9c3.7,5,7.6,9.9,11.8,14.5c7-3.2,13.8-6.7,20.3-10.4
		c-4.3-3.3-8.5-6.9-12.6-10.5l-0.2-0.1l-0.9,0.3C184.4,15.9,178.2,18,172.1,19.9z"/>
	<path class="st1" d="M291.5,12.7c-3.5,4.5-7.5,9.3-12.1,14.4c1.3,0.2,2.7,0.3,4.1,0.4c2.9,0.2,5.7,0.3,8.5,0.4l-1,3.8
		c-2.5,0-5.1-0.1-7.8-0.3c-2.4-0.2-4.6-0.5-6.9-0.8c-5.5,6-11.7,12.2-18.7,18.5c8.8,3.5,17.3,6.2,25.5,8.3c0.5-0.6,1.1-1.1,1.6-1.7
		l-1.9,7.4c-6.3,6.3-13.2,12.8-20.7,19.3c5.1,1.3,10.1,2.3,14.9,3l-1,3.7c-5.7-0.9-11.6-2.1-17.5-3.7c-6.3,5.2-13,10.4-20.1,15.5
		c8.4,3,16.4,5.3,24.1,7.1c2.1-2.4,4.1-4.8,6.1-7.2c2.3-2.8,4.5-5.7,6.6-8.5l-2.4,9.2c-0.4,0.6-0.9,1.1-1.3,1.7
		c-1.5,1.9-3.2,3.8-4.8,5.7c1.4,0.3,2.7,0.6,4,0.8l-0.9,3.7c-1.9-0.4-3.9-0.8-5.9-1.2c-6.8,7.6-14.4,15.3-22.9,22.7
		c4.1,1.3,8.2,2.5,12.1,3.5c5.5-6.2,10.5-12.4,15.1-18.5l-2.4,9.3c-2.7,3.4-5.5,6.8-8.5,10.2c1.9,0.5,3.7,0.9,5.6,1.3l-0.9,3.7
		c-2.4-0.5-4.9-1.1-7.4-1.7c-5.2,5.7-10.8,11.5-16.9,17.1c6.2,2,12.1,3.6,17.7,5c0.8-1.1,1.5-2.2,2.2-3.2l-2.7,10.3
		c-3.9,5.3-8.2,10.7-13,16.1c2.7,1.1,5.4,2,8,3l-1,3.7c-3.2-1.1-6.4-2.3-9.8-3.6c-7.5,8.2-16,16.4-25.6,24.2
		c5.8,3.4,11.3,6.4,16.7,9.1c6.5-7.9,12.2-16,17.2-23.9l-2.9,11.2c-3.3,4.8-6.9,9.6-10.8,14.4c2.1,1.1,4.2,2.1,6.3,3l-1,3.7
		c-2.5-1.2-5.1-2.4-7.8-3.7c-5,6-10.5,11.8-16.5,17.6c4.1,2.5,8.2,4.8,12.2,7c4.3-6.5,8.2-12.9,11.7-19.4l-3.5,13.6
		c-1.5,2.5-3.1,5-4.8,7.5c0.8,0.5,1.7,0.9,2.5,1.3l-1,3.7c-1.2-0.6-2.5-1.3-3.7-1.9c-5.8,8.3-12.2,16.6-19.6,24.6
		c5.2,3.2,10.2,6.1,15.1,8.7l-1,3.8c-5.3-2.8-10.9-6.1-16.7-9.7c-5,5.3-10.2,10.4-15.9,15.4c-0.4,0.3-0.8,0.7-1.1,1
		c6.4,5.5,12.8,10.5,19,15c5.5-6.9,10.4-13.9,14.6-21l-3,11.7c-2.6,3.8-5.4,7.7-8.5,11.4c1.6,1.1,3.1,2.2,4.7,3.2l-1,3.9
		c-2-1.3-4-2.7-6-4.2c-4.3,5.1-8.9,10.2-13.9,15.1c-1.5,1.5-3,2.9-4.6,4.3c5.8,5.2,11.5,9.7,17.1,13.8l-4,15.4
		c-3.9,5.8-8.3,11.6-13.2,17.4c2.2,2.8,4.4,5.4,6.6,8l-1.2,4.5c-2.6-3.1-5.3-6.3-7.9-9.6c-0.6,0.7-1.2,1.3-1.8,2
		c-2.9,3.2-5.8,6.2-8.7,9.1c2.3,2.2,4.6,4.3,7,6.4c2.5,2.2,5.1,4.4,7.7,6.4l-1,4c-3.1-2.4-6.1-5-9.1-7.6c-2.5-2.2-4.9-4.4-7.2-6.6
		c-0.8,0.8-1.6,1.6-2.5,2.3l-1.1-4.2c0.3-0.3,0.6-0.5,0.8-0.8c-0.5-0.5-0.9-0.9-1.4-1.4l-1.9-7.3c2,2.1,4,4.1,6,6.1
		c2.9-2.8,5.7-5.8,8.6-9c0.7-0.8,1.5-1.6,2.2-2.5c-5.9-7.5-11.7-15.4-17.4-23.9c-0.8-1.2-1.6-2.4-2.4-3.6c-1.6,1-3.2,2-4.7,2.9
		l-1-3.8c1.2-0.7,2.4-1.5,3.6-2.3c-2.5-3.9-4.9-7.8-7.3-11.7l-3.6-13.7c4.3,7.7,8.9,15.5,14,23.3c5.9-4,12-8.6,18.1-13.9
		c-2.5-2.3-5-4.7-7.5-7.3c-4.5-4.5-8.6-9.1-12.4-13.6c-4.4,2.9-8.7,5.5-13,8l-1-3.8c3.8-2.2,7.7-4.5,11.6-7.1
		c-7.1-8.7-13.2-17.4-18.4-25.8c-0.5,0.2-1,0.4-1.6,0.6l-1-3.7c0.2-0.1,0.4-0.1,0.5-0.2c-0.4-0.6-0.7-1.2-1.1-1.8l-4-15.2
		c2.5,5,5.4,10.3,8.6,15.7c5.1-2.1,10.3-4.4,15.5-7.1c-7.7-8.4-14.5-16.8-20.6-25.2c-2.5,0.8-4.9,1.5-7.2,2.2l-0.9-3.7
		c1.9-0.6,3.9-1.2,5.8-1.8c-3.7-5.2-7.1-10.4-10.3-15.5l-3.4-13.1c5,8.8,10.8,18,17.5,27.3c4.6-1.6,9.3-3.3,14.1-5.4
		c-0.5-0.5-1-1-1.5-1.5c-7.6-7.9-14.4-16-20.5-24c-3.4,1.1-6.7,2-9.8,2.9l-1-3.7c2.7-0.7,5.5-1.5,8.4-2.4
		c-5.5-7.6-10.5-15.1-14.9-22.5l-3.8-14.6c1.6,3,3.2,6.1,5,9.2c5.8-0.9,11.9-2.1,18.2-3.6c-9.1-10.4-17-20.9-23.9-31.1
		c-1.9,0.3-3.8,0.6-5.7,0.9l-1-3.7c1.4-0.2,2.9-0.5,4.3-0.7c-2.7-4.2-5.3-8.3-7.7-12.4L98,123.8c4.5,8.3,9.6,17,15.5,25.8
		c4.4-0.8,8.9-1.7,13.4-2.8c-7.9-9.5-14.9-19-21.2-28.4c-3,0.4-6,0.6-8.9,0.9l-1-3.7c2.5-0.2,5-0.4,7.5-0.7
		c-5.2-8-9.7-15.9-13.8-23.5l-4.6-17.6c1.7,3.6,3.4,7.3,5.4,11c5-0.2,10.4-0.5,16-1c-5.3-8-9.9-15.9-14-23.5
		c-2.2,0.1-4.3,0.1-6.4,0.1c-1.6,0-3.1,0-4.5-0.1l-1-3.8c1.8,0,3.6,0.1,5.5,0.1c1.4,0,2.9,0,4.4-0.1c-4-7.9-7.4-15.4-10.3-22.4
		c-1.8,0.1-3.7,0.1-5.5,0.1l-1-3.8c1.6,0,3.3-0.1,5-0.1c-2.5-6.5-4.6-12.4-6.2-17.7h4c1.7,5.3,3.8,11.2,6.3,17.6
		c5-0.2,10.2-0.5,15.5-0.9c-2.1-6.1-3.7-11.6-5-16.6h3.9c1.3,4.9,2.9,10.4,5,16.3c4.4-0.4,8.8-0.9,13.4-1.5
		c-2.4-5.3-4.3-10.3-6-14.8h4c1.6,4.4,3.5,9.1,5.8,14.2c5.5-0.8,10.9-1.7,16.1-2.7c-2.6-4-4.9-7.9-7-11.5h4.3
		c2,3.4,4.1,6.9,6.6,10.7c8.7-1.8,17-3.9,24.9-6.1c-1.1-1.6-2-3.1-2.9-4.5h4.5c0.7,1.1,1.5,2.2,2.3,3.4c3.7-1.1,7.3-2.2,10.7-3.4
		h11.3c-6.2,2.3-12.8,4.6-19.8,6.7c3.6,5,8,10.6,13.2,16.2c8.2-3.7,15.6-7.6,22.4-11.5c-5.1-3.9-9.7-7.7-13.7-11.4h5.7
		c3.5,3,7.3,6.1,11.5,9.3c5.2-3.2,9.9-6.3,14.1-9.3h12.2c4.6,2.7,10.3,5.5,16.8,7.9c3.2-2.8,6-5.5,8.6-7.9h5.4
		c-2.9,2.8-6.2,6-10,9.4c5.5,1.8,11.5,3.4,18,4.4c4.4-4.8,8.3-9.4,11.8-13.8H291.5 M232.3,36.8c6.4-4.6,12.2-9.1,17.2-13.4
		c-8.2-3.3-15-7-20.1-10.2c-4.8,3.6-10.4,7.3-16.6,11.2C218.7,28.6,225.1,32.8,232.3,36.8 M156.8,45.8c8.3-2.6,16-5.5,23.2-8.6
		c-5.3-5.9-9.8-11.6-13.4-16.7c-7.8,2.3-16.1,4.4-24.8,6.2C146,32.8,151,39.3,156.8,45.8 M253.7,47.4c6.7-6,12.7-11.9,18.1-17.6
		c-6.6-1.2-12.7-2.9-18.2-4.8c-5.1,4.4-11,9.1-17.6,13.9c4.4,2.4,9,4.7,13.8,6.8C251.1,46.3,252.4,46.8,253.7,47.4 M204.2,54.4
		c9.1-4.9,17.3-10,24.7-15.1c-7.2-4.1-13.7-8.5-19.6-12.8c-6.9,4.1-14.5,8.1-22.9,12C191.6,43.8,197.5,49.2,204.2,54.4 M133,51.9
		c2.7-0.6,5.5-1.1,8.3-1.8c4-0.9,7.8-2,11.5-3.1c-5.8-6.7-10.8-13.2-15-19.5c-5.4,1.1-11,2.1-16.7,2.9
		C124.3,37.2,128.2,44.5,133,51.9 M113.2,55c5.1-0.6,10.3-1.4,15.7-2.4c-4.7-7.5-8.6-14.8-11.8-21.7c-0.3,0-0.6,0.1-0.9,0.1
		c-4.3,0.6-8.6,1.1-12.8,1.5C106.1,39.7,109.3,47.2,113.2,55 M94.7,56.4c4.6-0.2,9.5-0.5,14.5-1c-3.9-7.9-7.1-15.4-9.6-22.5
		c-5.2,0.5-10.4,0.8-15.3,1C87.2,41,90.6,48.5,94.7,56.4 M178.2,66.5c7.9-3.2,15.4-6.6,22.3-10.2c-6.7-5.3-12.6-10.8-17.8-16.2
		c-7.2,3.2-14.9,6.1-23.2,8.8C165.1,54.8,171.2,60.8,178.2,66.5 M226.6,68.8c8.7-6.1,16.7-12.4,23.9-18.6c-0.8-0.3-1.6-0.7-2.4-1
		c-5.5-2.5-10.8-5.1-15.7-7.8c-7.4,5.2-15.8,10.5-25,15.5c4.3,3.2,8.9,6.2,13.9,9.1C223.2,66.9,224.9,67.9,226.6,68.8 M150.7,75.8
		c4.8-1.3,9.6-2.8,14.5-4.4c3-1,6-2.1,8.9-3.2c-6.9-5.9-13.1-12-18.6-18c-4.4,1.3-8.8,2.6-13.4,3.7c-2.4,0.6-4.7,1.1-7,1.5
		C139.6,62.1,144.8,68.9,150.7,75.8 M257.6,81.2c8.2-6.9,15.7-13.9,22.4-20.7c-8.2-2.2-16.8-5-25.6-8.7c-7.2,6.4-15.2,12.7-24,18.9
		C239.6,75.2,248.7,78.6,257.6,81.2 M128.7,80.8c5.8-1.1,11.8-2.3,18-3.9c-5.9-6.9-11.1-13.9-15.5-20.7c-5.5,1-10.9,1.9-16.1,2.5
		C118.9,65.8,123.4,73.3,128.7,80.8 M202.4,83.8c7.3-4,14.2-8.2,20.7-12.6c-1.2-0.6-2.4-1.3-3.5-2c-5.7-3.3-10.9-6.8-15.8-10.4
		c-7,3.7-14.4,7.2-22.3,10.4C188.4,74.7,195.4,79.6,202.4,83.8 M110.7,83.4c4.5-0.5,9.1-1.1,13.9-1.9c-5.2-7.6-9.7-15.1-13.5-22.4
		c-5,0.5-9.8,0.9-14.4,1.1C100.7,67.6,105.3,75.5,110.7,83.4 M173,97.6c9-3.6,17.5-7.5,25.5-11.8c-6.8-4.2-13.6-8.9-20.2-14.3
		c-0.3-0.2-0.5-0.5-0.8-0.7c-3.6,1.4-7.2,2.7-11,4c-4.4,1.5-8.7,2.8-13,4c2.4,2.7,5,5.3,7.6,8C165.1,90.7,169,94.3,173,97.6
		 M234,99.2c7.1-5,13.8-10,20-15.1c-8.9-2.7-18-6.2-27.2-10.9c-6.5,4.4-13.4,8.7-20.7,12.8C215.6,91.4,224.9,95.7,234,99.2
		 M149.4,105.8c5.7-1.7,11.5-3.5,17.4-5.7c0.8-0.3,1.5-0.6,2.3-0.9c-3.5-3-7-6.2-10.5-9.6c-3.2-3.2-6.2-6.3-9.1-9.5
		c-6.3,1.7-12.4,3-18.3,4.2c3.6,5,7.6,9.9,12,14.9C145.2,101.4,147.3,103.6,149.4,105.8 M131.3,110.4c4.6-1,9.2-2.1,14-3.5
		c-1.7-1.7-3.3-3.5-5-5.4C135.4,96,131,90.5,127,84.9c-4.8,0.8-9.4,1.5-13.9,2C118.4,94.7,124.5,102.6,131.3,110.4 M107.6,114.4
		c6.2-0.8,12.7-1.8,19.4-3.2c-6.8-8-12.8-16-18.2-23.9c-5.8,0.6-11.3,0.9-16.5,1.1C96.8,96.9,101.8,105.6,107.6,114.4 M203,118.3
		c9.7-5.2,18.8-10.7,27.3-16.5c-9.2-3.6-18.6-8.1-28-13.7c-8.1,4.4-16.8,8.5-25.9,12.2C185.1,107.4,194.1,113.3,203,118.3
		 M178,130.2c7.3-3.1,14.3-6.4,21-9.9c-8.9-5.1-17.9-11.2-26.7-18.4c-1.4,0.6-2.8,1.1-4.3,1.7c-5.3,2-10.5,3.7-15.7,5.2
		C160.7,117,169.3,124.1,178,130.2 M236.7,133.3c8.4-7.3,16-14.8,22.8-22.3c-8-1.9-16.4-4.4-25-7.6c-8.6,5.9-17.8,11.6-27.6,17
		C217.2,125.8,227.2,130,236.7,133.3 M158.5,137.7c2.7-0.9,5.4-1.9,8.2-3c2.4-0.9,4.8-1.9,7.2-2.8c-8.8-6.3-17.4-13.6-25.7-21.9
		c-4.8,1.4-9.5,2.6-14.2,3.6c2.4,2.7,4.9,5.4,7.5,8C147.1,127.4,152.8,132.8,158.5,137.7 M131,145.8c7.6-1.8,15.4-4.1,23.3-6.7
		c-5.2-4.6-10.4-9.6-15.6-14.9c-3.1-3.2-6.1-6.5-9-9.7c-6.9,1.4-13.6,2.6-19.9,3.4C116.1,127.2,123.2,136.5,131,145.8 M214,150.6
		c6.9-4.6,13.3-9.5,19.3-14.5c-9.8-3.5-20-7.9-30.3-13.6c-6.8,3.6-13.9,7-21.3,10.2C192.5,140,203.4,145.9,214,150.6 M192.9,163.3
		c6.1-3.2,11.8-6.6,17.4-10.2c-10.8-5-21.8-11.1-32.7-18.6c-3.1,1.3-6.3,2.6-9.5,3.8c-2.1,0.8-4.2,1.5-6.2,2.3
		C172.2,149.3,182.6,156.8,192.9,163.3 M233.2,158.2c6.1-5.6,11.7-11.2,16.9-16.8c-4.1-1.1-8.3-2.4-12.6-3.8
		c-6,5.1-12.5,10.1-19.4,14.8C223.2,154.6,228.3,156.5,233.2,158.2 M161.5,177.2c6.1-2.2,12.4-4.7,18.7-7.6c3-1.4,5.9-2.8,8.8-4.3
		c-10.4-6.6-20.9-14.3-31.3-23.3c-8.2,2.8-16.2,5.1-23.9,7c4.8,5.5,9.9,11,15.3,16.4C153.2,169.6,157.4,173.5,161.5,177.2
		 M139.7,183.8c5.8-1.5,11.7-3.2,17.8-5.2c-3.7-3.3-7.4-6.8-11-10.5c-6-6-11.5-12-16.7-18.1c-4.7,1.1-9.4,2.1-13.9,3
		C122.7,163.2,130.6,173.5,139.7,183.8 M213.1,174.9c6-4.5,11.6-9.1,16.9-13.8c-5.1-1.8-10.3-3.8-15.7-6.2
		c-5.6,3.7-11.5,7.3-17.7,10.7C202.2,169,207.7,172.1,213.1,174.9 M237.9,186.2c5.5-6.2,10.4-12.3,14.8-18.4c-5.6-1.4-11.4-3-17.5-5
		c-0.3-0.1-0.7-0.2-1-0.3c-5.4,4.8-11.2,9.6-17.3,14.3C224.1,180.4,231.1,183.5,237.9,186.2 M182.6,194.5
		c6.1-3.4,12.2-7.1,18.5-11.2c3-2,5.8-4,8.6-6c-5.6-2.9-11.2-6.2-17-9.7c-3.6,1.9-7.2,3.7-11,5.4c-5.8,2.6-11.4,5-17,7
		C170.7,185.3,176.7,190.1,182.6,194.5 M209.8,212.9c9.5-7.6,17.9-15.6,25.3-23.6c-6.9-2.8-14.2-6.1-21.7-9.9
		c-3.3,2.4-6.7,4.8-10.3,7.2c-5.8,3.8-11.5,7.3-17.2,10.5C194.1,202.9,202.1,208.2,209.8,212.9 M160.6,205.4
		c6-2.6,12.1-5.6,18.4-8.9c-6.1-4.6-12.2-9.6-18.3-15c-6.2,2.1-12.3,4-18.1,5.5c3.5,3.9,7.2,7.8,11.1,11.7
		C155.9,201,158.3,203.2,160.6,205.4 M134.9,215.2c6.9-2.2,14.3-4.9,21.9-8.1c-2-1.9-3.9-3.7-5.9-5.7c-4.4-4.4-8.6-8.9-12.6-13.3
		c-6.6,1.6-12.9,2.9-19,3.8C124,199.6,129.1,207.4,134.9,215.2 M187.9,228.4c6.7-4.1,12.9-8.5,18.8-13c-7.9-4.8-16.1-10.2-24.3-16.4
		c-6.4,3.4-12.6,6.5-18.7,9.2C171.7,215.7,179.9,222.4,187.9,228.4 M159.1,243.5c8.2-3.6,16.7-7.9,25.3-13
		c-8.2-6.2-16.4-13-24.6-20.6c-7.9,3.4-15.4,6.2-22.5,8.5c5.8,7.6,12.2,15.2,19.4,22.7C157.5,241.9,158.3,242.7,159.1,243.5
		 M211.2,244.3c5.9-5.6,11.3-11.4,16.3-17.3c-5.6-2.8-11.4-6-17.4-9.6c-5.9,4.6-12.2,9.1-19,13.4C198,235.8,204.7,240.2,211.2,244.3
		 M184.3,266c8.8-6,16.8-12.4,24.1-19.1c-6.7-4.2-13.6-8.9-20.6-14c-8.7,5.3-17.4,9.7-25.7,13.5C169.4,253.7,176.9,260.2,184.3,266
		 M164,278.3c5.6-3,11.3-6.3,17-10.1c-7.6-6-15.2-12.7-22.7-20.2c-5,2.1-9.9,4-14.7,5.6C149.7,261.9,156.4,270.1,164,278.3
		 M205.1,280.9c7.3-8,13.7-16.1,19.4-24.4c-4.2-2.3-8.5-4.8-12.9-7.4c-7.3,6.8-15.4,13.3-24.3,19.4
		C193.4,273,199.3,277.1,205.1,280.9 M185.8,299.7c0.5-0.4,1-0.9,1.5-1.3c5.4-4.8,10.4-9.7,15.2-14.7c-6-3.9-12.1-8.2-18.3-13
		c-0.2,0.1-0.4,0.3-0.6,0.4c-5.7,3.7-11.3,7.1-16.9,10.1c3.5,3.7,7.2,7.5,11.1,11.2C180.4,294.9,183.1,297.3,185.8,299.7
		 M164.9,315.7c5.9-4,12-8.5,18-13.5c-2.6-2.3-5.1-4.6-7.7-7c-4.2-4-8.2-8-12-12.1c-5.5,2.8-10.9,5.3-16.2,7.5
		C152,298.7,157.9,307.2,164.9,315.7 M187,339.1c1.6-1.4,3.2-2.9,4.8-4.4c4.9-4.7,9.4-9.6,13.5-14.5c-6.4-4.6-12.9-9.8-19.5-15.5
		c-6.1,5.2-12.3,9.8-18.4,13.9c3.7,4.4,7.7,8.8,12,13.1C181.9,334.3,184.4,336.7,187,339.1 M187.3,385.3
		c7.2-8.6,13.3-17.4,18.5-25.9c-6.1-4.4-12.4-9.5-18.8-15.2c-6.3,5.5-12.7,10.3-18.8,14.5c0.8,1.2,1.5,2.3,2.3,3.5
		C176,370.3,181.6,378,187.3,385.3 M295.6,10.7h-4.1h-4.8h-1l-0.6,0.7c-3.6,4.5-7.2,8.7-11,12.9c-4.5-0.8-9-1.8-13.4-3.1
		c2.5-2.3,5-4.7,7.4-7.1l3.5-3.4h-4.9h-5.4h-0.8l-0.6,0.6c-2.5,2.4-5.1,4.8-7.6,7.1c-5.3-2.1-10.5-4.5-15.4-7.4l-0.5-0.3h-0.5h-12.2
		H223l-0.5,0.4c-4.3,3.1-8.5,5.8-12.9,8.5c-3.4-2.6-6.8-5.3-10.1-8.2l1.8-0.7h-11.2h-11.3h-0.3l-0.3,0.1c-3.1,1-6.2,2-9.2,3
		c-0.4-0.7-0.9-1.4-1.4-2.2l-0.6-0.9h-1.1h-4.5h-3.6l1.9,3.1c0.5,0.8,1,1.5,1.5,2.3c-6.8,1.9-13.8,3.6-20.8,5.1
		c-2-3.1-3.9-6.2-5.8-9.4l-0.6-1h-1.2h-4.3h-3.4l1.7,3c1.8,3.2,3.6,6.2,5.4,9.1c-3.8,0.7-7.7,1.4-11.6,2c-1.8-4.1-3.6-8.4-5.2-12.7
		l-0.5-1.3h-1.4h-4h-2.8l1,2.7c1.5,4.2,3.2,8.4,4.9,12.5c-3,0.4-6,0.7-9.1,1c-1.6-4.8-3.1-9.7-4.4-14.7l-0.4-1.5h-1.5h-3.9h-2.6
		l0.7,2.5c1.3,4.8,2.7,9.6,4.2,14.3c-3.8,0.3-7.6,0.5-11.5,0.7c-2.1-5.3-4-10.7-5.7-16.1l-0.4-1.4h-1.5h-4h-2.7l0.8,2.6
		c1.6,5.1,3.4,10.2,5.3,15.2c-0.7,0-1.4,0-2.1,0l-2.6,0l0.6,2.5l1,3.8l0.4,1.5l1.6,0c1.4,0,2.8,0,4.1-0.1c2.6,6.2,5.4,12.4,8.4,18.4
		c-0.4,0-0.8,0-1.2,0c-1.7,0-3.4,0-5.5-0.1L78,54.5l0.7,2.6l1,3.8l0.4,1.5l1.5,0c1.8,0,3.2,0.1,4.6,0.1c1.7,0,3.4,0,5.2-0.1
		c3.6,6.7,7.5,13.4,11.6,19.8c-3.8,0.3-7.6,0.5-11.3,0.7c-1.6-3.1-3.1-6.3-4.8-9.8l-3.7,1.3l4.6,17.6l0.1,0.2l0.1,0.2
		c3.8,7.2,7.9,14.2,12.1,20.9c-1.3,0.1-2.7,0.3-4.3,0.4l-0.9,0.1l-3-5.6l3.4,13.1l0.1,0.2l0.7,2.8l3.7,14.2l0.1,0.3l0.1,0.2
		c2,3.3,4,6.6,6.1,9.9c-0.4,0.1-0.9,0.1-1.3,0.2l-2.2,0.3l0.6,2.1l1,3.7l0.5,1.8l1.8-0.3c1.6-0.2,3-0.5,4.4-0.7
		c6.5,9.5,13.6,18.8,21.1,27.7c-4.5,1-9,1.8-13.4,2.6c-1.4-2.5-2.9-5.2-4.3-7.9l-8.1-15.6l4.4,17l3.8,14.6l0.1,0.3l0.1,0.2
		c4.1,7,8.6,13.9,13.3,20.4c-1.7,0.5-3.5,1-5.3,1.5l-4.4-7.7l2.2,8.3h0l0.5,1.9l1,3.7l0.5,2h0l3.1,11.9l0.1,0.3l0.2,0.3
		c2.8,4.5,5.8,9,8.8,13.3c-1,0.3-2,0.6-3.2,1l-1.9,0.5l0.5,1.9l0.9,3.7l0.5,2h0l3.2,12.4l4,15.2l0.1,0.3l0,0l0,0l0.4,1.7l1,3.7
		l0.6,2.2l2.1-0.8l0,0c5,7.9,10.4,15.6,16.3,22.9c-3.1,2-6.2,3.9-9.5,5.8l-3.1-5.6l1.7,6.4h0l0.4,1.5l0.2,0.9l1.7,6.4l3.6,13.7
		l0.1,0.3l0.1,0.2c2.1,3.6,4.2,6.9,6.2,10c-0.7,0.4-1.3,0.8-1.9,1.2l-1.3,0.8l0.4,1.4l1,3.8l0.7,2.6l2.3-1.4
		c1.1-0.7,2.1-1.3,3.1-1.9c0.4,0.6,0.9,1.3,1.3,1.9c5.2,7.7,10.7,15.3,16.5,22.7c-0.4,0.4-0.7,0.8-1.1,1.2c-2.3,2.5-4.6,5-7.1,7.5
		c-1.5-1.5-3-3-4.6-4.7l-5.3-5.6l1.9,7.5l1.9,7.3l0.1,0.5l0.3,0.3l-0.2,0.2l0.3,1.1l1.1,4.2l0.8,3.2l2.5-2.3c0.4-0.3,0.7-0.7,1.1-1
		c2,1.8,3.9,3.6,5.9,5.4c2.9,2.5,5.9,5,9.2,7.7l2.4,1.9l0.8-3l1-4l0.3-1.2l-1-0.8c-2.6-2.1-5.2-4.2-7.6-6.4
		c-1.8-1.6-3.6-3.2-5.4-4.9c2.5-2.5,5-5.1,7.3-7.7l0.2-0.2c2.1,2.5,4.2,5.1,6.5,7.8l2.5,2.9l1-3.7l1.2-4.5l0.3-1l-0.7-0.8
		c-1.9-2.2-3.7-4.5-5.5-6.7c4.3-5.2,8.4-10.7,12.3-16.3l0.2-0.3l0.1-0.3l4-15.4l0.3-1.3l-1.1-0.8c-5.3-3.9-10.4-8-15.2-12.2
		c1.1-1,2-1.9,3-2.8c4.4-4.3,8.8-8.9,12.9-13.8c1.5,1.1,3,2.1,4.6,3.1l2.3,1.6l0.7-2.7l1-3.9l0.4-1.4l-1.2-0.8
		c-0.9-0.6-1.9-1.3-2.9-2c2.5-3.2,4.9-6.5,7.2-9.9l0.2-0.3l0.1-0.3l3-11.7l3.5-13.4l-3.8,6.3c-4.2-2.3-8.4-4.7-12.5-7.2
		c6.1-6.8,11.8-14.1,17.1-21.6c0.6,0.3,1.2,0.6,1.8,0.9l0.3,0.2l2.2,1.1l0.6-2.4l1-3.7l0.4-1.5l-1.4-0.7l-0.6-0.3
		c1.1-1.7,2.3-3.6,3.6-5.7l0.2-0.3l0.1-0.3l3.5-13.6l0.7-2.6l0.7-2.6l0.4-1.6h0l2.3-9l-4.4,8.1c-1.2-0.6-2.4-1.1-3.5-1.7
		c3.2-4,6.3-8.2,9.3-12.5l0.2-0.3l0.1-0.3l2.9-11.2l3.2-12.5l-0.7,1.1l-1.4-0.5c-1.9-0.7-3.7-1.3-5.3-1.9c3.8-4.4,7.5-9.1,11.2-14.1
		l0.2-0.3l0.1-0.4l2.7-10.3l2.9-11.2l-6.5,9.5l-0.4,0.6c-0.3,0.5-0.7,1-1,1.5c-4.3-1.1-8.7-2.3-13-3.6c4.7-4.5,9.3-9.2,13.7-14
		c2.1,0.5,4.1,1,6.3,1.5l1.9,0.4l0.5-1.9l0.9-3.7l0.5-2l-2-0.4c-0.8-0.2-1.6-0.3-2.3-0.5c2.2-2.5,4.3-5.1,6.4-7.8l0.3-0.3l0.1-0.4
		l2.4-9.3l1.2-4.7l0.5-1.8l0.9-3.7l0.5-2.1l-2.1-0.4c-0.2,0-0.4-0.1-0.7-0.1c0.9-1.1,1.8-2.1,2.6-3.1c0.3-0.4,0.6-0.7,0.9-1.1
		l0.4-0.6l0.3-0.3l0.1-0.4l2.4-9.2l0.4-1.4h0l0.5-1.8l1-3.7l0.6-2.1l0.2-0.8l-0.5,0.7l-1.8-0.3c-3.7-0.6-7.4-1.3-11-2.1
		c6.1-5.3,12.1-11,17.9-16.9l0.4-0.4l0.1-0.5l1.9-7.4l1.9-7.5l-5.3,5.6l-0.5,0.6l-0.2,0.3c-7.1-1.9-14.2-4.2-21.1-6.8
		c5.4-5,10.7-10.3,15.7-15.7c2.2,0.3,4.1,0.5,5.9,0.7c2.5,0.2,5.1,0.3,7.9,0.4l1.6,0l0.4-1.5l1-3.8l0.6-2.5l-2.6,0
		c-2.9,0-5.6-0.1-8.3-0.3l-0.2,0c3.3-3.7,6.4-7.6,9.6-11.6L295.6,10.7z M173.7,20.4c5.7-1.8,11.5-3.8,17.2-5.9l0.3-0.1
		c3.6,3.2,7.3,6.4,11.2,9.4c-5.9,3.4-12,6.5-18.3,9.4C180.5,29.1,177,24.8,173.7,20.4z M216.4,24.5c4.4-2.8,8.8-5.8,13.1-8.9
		c5.2,3.2,10.6,6,16.2,8.4c-4.4,3.6-8.9,7.1-13.5,10.5C226.8,31.4,221.5,28,216.4,24.5z M145.2,28c6.9-1.5,13.9-3.3,20.7-5.2
		c3.4,4.7,7,9.3,10.9,13.7c-6.3,2.6-12.7,5-19.2,7.1C153.1,38.5,149,33.3,145.2,28z M239.7,38.6c4.9-3.6,9.7-7.5,14.3-11.4
		c4.5,1.6,9.2,2.8,13.8,3.8c-4.7,4.9-9.5,9.6-14.5,14c-0.9-0.4-1.8-0.8-2.7-1.2C247,42.2,243.4,40.5,239.7,38.6z M189.8,39.1
		c6.6-3.1,13.1-6.5,19.4-10.2c5.1,3.7,10.5,7.2,16,10.5c-6.7,4.5-13.7,8.8-20.8,12.6C199.3,48,194.4,43.7,189.8,39.1z M124.1,32
		c4.4-0.7,8.7-1.4,12.8-2.3c3.8,5.6,8,11,12.4,16.2c-3.1,0.9-5.8,1.6-8.5,2.2c-2.2,0.5-4.5,1-6.9,1.5C130.4,44,127.1,38.1,124.1,32z
		 M106.3,34.4c3.3-0.3,6.5-0.7,9.7-1.2c2.9,6.1,6.2,12.2,9.7,18c-3.8,0.7-7.6,1.2-11.3,1.7C111.4,46.9,108.7,40.7,106.3,34.4z
		 M87.2,35.8c3.7-0.2,7.4-0.4,11-0.7c2.4,6.3,5,12.5,7.9,18.6c-3.4,0.3-6.9,0.5-10.3,0.7C92.8,48.3,89.9,42.1,87.2,35.8z
		 M163.2,49.8c6.4-2.2,12.8-4.6,19.1-7.3c4.6,4.8,9.5,9.3,14.6,13.4c-6,3-12.1,5.8-18.3,8.3C173.2,59.7,168,54.9,163.2,49.8z
		 M211.3,57c7.3-4.1,14.5-8.6,21.4-13.4c4.7,2.6,9.5,4.9,14.2,7.1c-6.6,5.6-13.4,10.9-20.3,15.7c-1.4-0.8-2.7-1.5-4-2.2
		C218.7,62,215,59.7,211.3,57z M138.5,56.7c1.5-0.3,2.8-0.6,4.1-0.9c3.9-0.9,7.9-2,12.3-3.3c4.8,5.2,10,10.3,15.4,15
		c-1.9,0.7-3.8,1.4-5.7,2c-4.3,1.4-8.6,2.8-13.2,4.1C146.8,68.1,142.5,62.5,138.5,56.7z M234.4,70.4c7-5.1,13.9-10.5,20.4-16.3
		c7,2.8,14.1,5.3,21.4,7.3c-6.2,6.1-12.6,12-19.1,17.5C249.3,76.7,241.7,73.8,234.4,70.4z M118.2,60.2c4-0.5,8-1.2,12-1.9
		c4,6,8.3,11.8,12.9,17.4c-4.4,1.1-9,2.1-13.5,2.9C125.5,72.7,121.7,66.5,118.2,60.2z M185.4,69.8c6.2-2.6,12.3-5.5,18.2-8.6
		c4.8,3.5,9.8,6.8,14.9,9.8c0.2,0.1,0.4,0.3,0.7,0.4c-5.5,3.6-11.1,7-16.8,10.1C196.6,77.9,190.9,74,185.4,69.8z M99.9,62
		c3.4-0.2,6.7-0.4,10-0.8c3.4,6.5,7.2,12.8,11.2,18.8c-3.1,0.5-6.3,0.9-9.5,1.3C107.5,75,103.6,68.5,99.9,62z M157.2,79.9
		c3.4-1,6.7-2.1,9.9-3.1c3.3-1.1,6.5-2.3,10-3.6c5.5,4.5,11.4,8.7,17.4,12.5c-6.9,3.5-14,6.7-21.1,9.6c-3.9-3.3-7.4-6.5-10.9-9.9
		C160.8,83.7,159,81.8,157.2,79.9z M210.2,86c5.7-3.3,11.3-6.8,16.8-10.5c7.4,3.7,15,6.8,22.8,9.4c-5.2,4.2-10.7,8.3-16.1,12.1
		C225.7,93.8,217.8,90.1,210.2,86z M134.6,85.5c4.7-0.9,9.4-2,14.1-3.3c2.7,3,5.5,5.9,8.3,8.7c2.6,2.6,5.3,5.1,8.1,7.5
		c-4.9,1.8-10,3.5-15.2,5c-1.9-2-3.6-3.9-5.4-5.8C141.2,93.8,137.8,89.8,134.6,85.5z M116.6,88.5c3.2-0.4,6.3-0.9,9.5-1.4
		c4,5.5,8.3,10.8,12.7,15.8c0.9,1,1.8,2,2.7,3c-3.2,0.8-6.4,1.6-9.5,2.3C126.6,101.9,121.4,95.3,116.6,88.5z M242.6,100.2
		c5.5-4,11-8.3,16.3-12.7c4.8,1.3,9.7,2.3,14.9,3.2l-0.2,0.3c-2.2,3-4.4,5.7-6.6,8.4c-1.6,1.9-3.3,3.9-5.3,6.2
		C255.3,104.1,248.9,102.3,242.6,100.2z M95.6,90.4c4.1-0.2,8.2-0.5,12.2-0.9c4.8,7,10,13.9,15.5,20.4c-4.9,0.9-9.8,1.7-14.7,2.3
		C104,105.2,99.6,97.8,95.6,90.4z M180.3,100.9c7.5-3.1,14.8-6.7,22-10.5c7.6,4.4,15.6,8.4,23.8,11.8c-7.4,4.9-15.2,9.5-23,13.8
		C195.1,111.5,187.5,106.4,180.3,100.9z M156.2,109.7c4.3-1.4,8.5-2.8,12.5-4.3c1.1-0.4,2.2-0.8,3.3-1.2c7.2,5.8,14.9,11.2,22.9,16
		c-5.4,2.7-11,5.3-16.6,7.7C170.5,122.4,163.1,116.3,156.2,109.7z M211.2,120.4c8.1-4.5,16-9.5,23.6-14.7c6.8,2.5,13.9,4.7,21,6.5
		c-6.2,6.7-12.8,13-19.5,18.9C227.7,128,219.2,124.4,211.2,120.4z M137.8,114.8c3.3-0.8,6.6-1.6,9.8-2.5
		c6.9,6.9,14.4,13.3,22.2,19.2c-1.3,0.5-2.6,1-3.9,1.5c-2.2,0.8-4.5,1.7-7,2.6c-5.6-4.9-11-10-16-15.2
		C141.3,118.5,139.6,116.7,137.8,114.8z M244.9,133.9c6.9-6.2,13.5-12.7,19.7-19.6c1.4,0.3,2.8,0.6,4.5,0.9l-2.6,3.4
		c-4.5,6-9.2,11.8-14.1,17.4C249.9,135.4,247.4,134.6,244.9,133.9z M113.4,119.5c5.3-0.8,10.5-1.7,15.7-2.8c2.8,3.2,5.5,6.1,8.3,8.9
		c4.2,4.3,8.6,8.6,13.1,12.6c-6.2,2-12.5,3.7-18.7,5.3C125.3,135.8,119.1,127.7,113.4,119.5z M98.9,121.2c2-0.2,4-0.4,5.9-0.6
		c5.8,8.6,12,17,18.5,25c-2.9,0.6-5.9,1.2-8.9,1.8c-5.2-7.9-10.1-16.2-14.6-24.5L98.9,121.2z M185.9,133.1
		c5.8-2.6,11.6-5.4,17.1-8.3c8.4,4.6,17.3,8.6,26.4,12c-5.1,4.1-10.3,8-15.6,11.5C204.1,143.9,194.7,138.8,185.9,133.1z
		 M165.8,141.3c1-0.4,2-0.7,3-1.1c2.6-1,5.4-2.1,8.6-3.4c9,6.2,18.7,11.7,28.8,16.6c-4.3,2.7-8.7,5.2-13.1,7.6
		C183.5,155,174.4,148.4,165.8,141.3z M222.2,152c5.4-3.8,10.7-7.9,15.7-12.1c2.8,0.9,5.6,1.8,8.5,2.6c-4.4,4.7-9,9.2-13.6,13.5
		C229.2,154.7,225.7,153.4,222.2,152z M137.4,150.2c6.7-1.8,13.4-3.7,19.8-5.9c8.8,7.5,18.1,14.5,27.7,20.8c-2,1-3.9,1.9-5.7,2.7
		c-5.6,2.6-11.4,4.9-17.4,7.1c-4-3.6-7.8-7.2-11.5-10.9C146.1,159.6,141.7,155,137.4,150.2z M119.1,154.4c3.3-0.7,6.5-1.4,9.8-2.1
		c5.2,6,10.6,11.8,16.1,17.3c2.8,2.7,5.6,5.5,8.6,8.2c-4.3,1.4-8.7,2.7-13.2,3.8C132.9,173,125.7,163.8,119.1,154.4z M200.7,165.7
		c4.7-2.6,9.3-5.5,13.9-8.5c3.8,1.6,7.7,3.2,11.6,4.6c-4.3,3.7-8.7,7.3-13.2,10.7C208.8,170.3,204.7,168,200.7,165.7z M220.6,176.4
		c4.9-3.8,9.6-7.7,14-11.6c4.8,1.6,9.7,3,14.7,4.3c-3.8,5.1-7.8,10-12,14.8C231.7,181.6,226.1,179.1,220.6,176.4z M168.6,180.7
		c4.7-1.8,9.4-3.8,14-5.9c3.1-1.4,6.4-3,10-4.9c4.3,2.6,8.7,5.2,13.3,7.7c-2.1,1.5-4.1,2.8-5.9,4.1c-5.5,3.6-11.2,7.1-17.2,10.5
		C177.9,188.5,173.2,184.6,168.6,180.7z M189.7,197.2c5.1-2.9,9.9-5.9,14.6-9c3.1-2.1,6.2-4.2,9.4-6.5c5.9,3,11.9,5.8,18.1,8.3
		c-6.9,7.3-14.3,14.2-22,20.5C202.9,206.3,196.2,201.9,189.7,197.2z M146.2,188.1c4.6-1.3,9.3-2.7,14-4.3c4.9,4.3,9.9,8.5,15.1,12.4
		c-4.7,2.4-9.5,4.8-14.3,6.9c-2.2-2-4.1-3.9-6-5.8C152.1,194.3,149.2,191.3,146.2,188.1z M122.6,193.4c5.1-0.9,10.1-1.9,15.1-3.1
		c3.9,4.3,7.9,8.5,11.8,12.5c1.1,1.1,2.3,2.3,3.7,3.6c-5.7,2.3-11.6,4.5-17.6,6.5C131,206.5,126.7,200,122.6,193.4z M216.8,214.6
		c8-6.6,15.6-13.9,22.6-21.5c2.5,1,5.1,1.9,8,2.9l-1.9,3c-4.9,7.8-10.3,15.4-16,22.4C225.2,219.3,220.9,217,216.8,214.6z
		 M167.2,208.8c5-2.3,10-4.8,15-7.4c6.8,5,13.8,9.7,21,14.2c-4.9,3.7-10,7.2-15.1,10.4C180.9,220.6,173.9,214.8,167.2,208.8z
		 M140.6,219.4c6.3-2.1,12.6-4.5,18.8-7.2c6.9,6.3,14.1,12.4,21.5,18.1c-6.9,4-14,7.6-21.3,10.9c-0.5-0.5-1-1-1.5-1.5
		C152,233.3,146.1,226.5,140.6,219.4z M194.7,230.9c5.4-3.5,10.6-7.2,15.6-11.1c4.6,2.7,9.3,5.3,14,7.8c-4.3,4.9-8.8,9.7-13.4,14.2
		C205.4,238.3,200,234.7,194.7,230.9z M126.4,223.8c2.1-0.6,4.2-1.2,6.3-1.8c6,7.9,12.5,15.4,19.2,22.5c-3.3,1.3-6.6,2.6-9.9,3.7
		C136.5,240.3,131.3,232.1,126.4,223.8z M217.8,246c4.8-4.7,9.4-9.6,13.7-14.7c1.6,0.8,3.2,1.6,4.8,2.3c-3.3,5.9-6.7,11.7-10.3,17.1
		C223.3,249.2,220.5,247.6,217.8,246z M165.5,247c7.5-3.5,14.9-7.4,22.1-11.7c5.7,4.1,11.5,8.1,17.4,11.9
		c-6.5,5.8-13.5,11.3-20.7,16.3C177.8,258.4,171.5,252.8,165.5,247z M146.8,254.7c3.7-1.3,7.4-2.8,11-4.3
		c6.3,6.2,12.9,12.1,19.8,17.7c-4.3,2.7-8.7,5.3-13.2,7.7C158.2,269.1,152.3,262,146.8,254.7z M190.8,268.5
		c7.4-5.2,14.5-10.9,21.1-17c3.2,1.9,6.5,3.8,9.7,5.6c-5.2,7.4-10.9,14.5-16.9,21.1C200,275.2,195.4,271.9,190.8,268.5z
		 M132.5,259.3l0.7-0.2c2.2-0.6,4.1-1.2,5.9-1.8c5.7,7.7,11.8,15.1,18.1,22.2c-3.8,1.8-7.6,3.6-11.4,5.2c-2.7-4.6-5.2-9.3-7.6-14
		L132.5,259.3z M169.9,281.7c4.9-2.7,9.6-5.5,14.2-8.5c5,3.8,10.1,7.4,15.3,10.9c-4.4,4.6-8.8,8.8-13.4,12.8l-0.2,0.2
		c-2.3-2.1-4.5-4.1-6.6-6.1C176.1,288,172.9,284.9,169.9,281.7z M149.9,291.4c4.4-1.9,8.7-3.9,12.8-6c3.6,3.8,7.3,7.5,11.1,11.1
		c1.9,1.8,3.9,3.6,6,5.5c-4.7,3.8-9.5,7.5-14.5,10.9C159.8,306.1,154.6,298.9,149.9,291.4z M191.7,302.1c4.9-4.3,9.7-9,14.3-13.9
		c4.5,2.8,9.1,5.5,13.8,8c-3.9,6.4-8.1,12.4-12.6,18.1C202,310.6,196.8,306.4,191.7,302.1z M170.3,319c5.3-3.7,10.5-7.6,15.4-11.7
		c5.4,4.6,11,9.1,16.6,13.2c-3.8,4.5-7.9,8.8-12,12.8c-1,1-2.1,2-3.4,3.1c-2.2-2.1-4.3-4.1-6.3-6.1
		C177.2,326.7,173.7,322.9,170.3,319z M153.1,329.9c3.6-2.1,7.2-4.3,10.7-6.5c3.7,4.3,7.5,8.5,11.4,12.4c1.9,1.9,3.9,3.9,6,5.8
		c-4.6,3.9-9.5,7.6-14.5,11.1c-4.4-6.9-8.7-14.1-12.8-21.4L153.1,329.9z M170.9,359.2c5.6-3.8,11-8,16.1-12.3
		c5.1,4.5,10.6,8.9,16.2,13c-4.8,7.8-10.1,15.2-15.8,22.2c-5.3-6.8-10.4-13.9-15.2-21C171.7,360.4,171.3,359.8,170.9,359.2z"/>
</g>
</svg>
