<?xml version="1.0" encoding="utf-8"?>
<!-- Generator: Adobe Illustrator 21.1.0, SVG Export Plug-In . SVG Version: 6.00 Build 0)  -->
<svg version="1.1" id="Layer_1" xmlns="http://www.w3.org/2000/svg" xmlns:xlink="http://www.w3.org/1999/xlink" x="0px" y="0px"
	 viewBox="0 0 350 500" style="enable-background:new 0 0 350 500;" xml:space="preserve">
<style type="text/css">
	.st0{fill:#69CCB0;}
	.st1{display:none;}
	.st2{display:inline;}
</style>
<g>
	<g>
		<polygon class="st0" points="175,470.6 293,29.4 57,29.4 		"/>
	</g>
	<g class="st1">
		<g class="st2">
			<path class="st0" d="M201.2,337.1c-6.5-4.6-13.1-9.6-19.8-15.2c0.4-0.3,0.8-0.7,1.2-1c5.9-5.1,11.4-10.3,16.6-15.6
				c6,3.7,11.9,6.9,17.4,9.8l1-3.8c-5-2.6-10.3-5.6-15.7-8.8c7.6-8.1,14.4-16.5,20.4-24.9c1.3,0.7,2.6,1.3,3.9,1.9l1-3.8
				c-0.9-0.4-1.7-0.9-2.6-1.3c1.7-2.5,3.4-5.1,5-7.6l3.7-13.8c-3.7,6.5-7.7,13.1-12.2,19.6c-4.1-2.2-8.4-4.5-12.7-7.1
				c6.2-5.8,11.9-11.7,17.1-17.8c2.8,1.3,5.5,2.6,8.1,3.8l1-3.8c-2.1-1-4.3-2-6.6-3.1c4-4.8,7.8-9.7,11.3-14.5l3-11.4
				c-5.2,8-11.1,16.1-17.9,24.2c-5.6-2.7-11.4-5.8-17.4-9.2c10-7.9,18.8-16.1,26.6-24.4c3.5,1.3,6.9,2.5,10.2,3.7l1-3.7
				c-2.7-0.9-5.5-1.9-8.4-3c4.9-5.5,9.4-10.9,13.5-16.3l2.8-10.4c-0.8,1.1-1.5,2.2-2.3,3.3c-5.8-1.4-12-3-18.4-5
				c6.4-5.7,12.2-11.5,17.6-17.3c2.7,0.6,5.2,1.2,7.7,1.7l1-3.7c-1.9-0.4-3.8-0.8-5.8-1.3c3.1-3.5,6.1-6.9,8.9-10.3l2.5-9.4
				c-4.7,6.1-9.9,12.4-15.7,18.7c-4.1-1-8.3-2.2-12.6-3.6c8.8-7.5,16.8-15.2,23.9-22.9c2.1,0.4,4.1,0.8,6.2,1.2l1-3.7
				c-1.4-0.3-2.8-0.5-4.2-0.8c1.7-1.9,3.4-3.8,5-5.7c0.5-0.6,0.9-1.1,1.4-1.7l2.5-9.3c-2.2,2.8-4.5,5.7-6.9,8.6
				c-2,2.4-4.2,4.8-6.3,7.2c-8-1.8-16.4-4.1-25.1-7.1c7.4-5.1,14.4-10.4,20.9-15.6c6.2,1.6,12.3,2.8,18.3,3.7l1-3.7
				c-5.1-0.8-10.3-1.8-15.6-3.1c7.9-6.6,15.1-13.1,21.6-19.5l2-7.5c-0.6,0.6-1.1,1.1-1.7,1.7c-8.5-2.1-17.4-4.9-26.5-8.4
				c7.2-6.4,13.7-12.7,19.5-18.7c2.3,0.3,4.7,0.6,7.1,0.8c2.8,0.2,5.5,0.3,8.1,0.4l1-3.8c-2.9,0-5.8-0.1-8.8-0.4
				c-1.4-0.1-2.8-0.3-4.2-0.4c4.7-5.1,8.9-10,12.6-14.6h-5c-3.6,4.4-7.7,9-12.3,13.9c-6.8-1.1-13.1-2.6-18.8-4.5
				c3.9-3.4,7.4-6.6,10.4-9.5h-5.6c-2.7,2.5-5.7,5.2-9,8c-6.8-2.5-12.7-5.3-17.5-8h-12.7c-4.4,3-9.3,6.2-14.7,9.4
				c-4.4-3.2-8.3-6.3-12-9.4h-5.9c4.2,3.7,8.9,7.6,14.3,11.5c-7,4-14.8,7.9-23.3,11.7c-5.4-5.7-10-11.3-13.8-16.4
				c7.3-2.1,14.1-4.4,20.6-6.7h-11.8c-3.6,1.2-7.3,2.3-11.2,3.4c-0.8-1.2-1.6-2.3-2.3-3.4h-4.7c0.9,1.5,2,3,3.1,4.6
				c-8.2,2.3-16.8,4.4-25.9,6.2c-2.6-3.8-4.8-7.4-6.9-10.8h-4.5c2.1,3.7,4.5,7.5,7.2,11.6c-5.4,1-11,2-16.8,2.8
				c-2.4-5.1-4.4-10-6.1-14.4H99c1.7,4.5,3.7,9.6,6.2,14.9c-4.7,0.6-9.4,1.1-13.9,1.5c-2.2-6-3.9-11.5-5.2-16.5H82
				c1.4,5.1,3.1,10.7,5.2,16.8C81.7,46.5,76.3,46.8,71,47c-2.6-6.5-4.8-12.4-6.5-17.8h-4c1.7,5.3,3.9,11.3,6.5,17.9
				c-1.7,0-3.5,0.1-5.2,0.1l1,3.8c1.9,0,3.8-0.1,5.7-0.1c3,7.1,6.5,14.7,10.7,22.7c-1.6,0-3.1,0.1-4.6,0.1c-2,0-3.9,0-5.8-0.1l1,3.8
				c1.5,0,3.1,0.1,4.7,0.1c2.2,0,4.4,0,6.6-0.1c4.2,7.7,9,15.7,14.5,23.8c-5.9,0.5-11.5,0.9-16.7,1c-2-3.8-3.8-7.5-5.6-11.1l5,17.9
				c4.3,7.7,9,15.7,14.4,23.7c-2.7,0.3-5.3,0.5-7.8,0.7l1,3.7c3-0.2,6.1-0.5,9.2-0.9c6.5,9.5,13.8,19.1,22,28.7
				c-4.8,1.1-9.4,2-14,2.8C97,158.8,91.7,150,87,141.6l3.8,14.3c2.5,4.1,5.2,8.3,8,12.5c-1.5,0.3-3,0.5-4.5,0.7l1,3.7
				c1.9-0.3,3.9-0.6,5.9-0.9c7.2,10.3,15.4,20.9,24.9,31.4c-6.6,1.5-12.9,2.7-18.9,3.6c-1.8-3.1-3.6-6.2-5.2-9.3l3.9,14.7
				c4.6,7.5,9.7,15.1,15.5,22.8c-3,0.9-5.9,1.7-8.7,2.4l1,3.7c3.3-0.9,6.7-1.8,10.2-2.9c6.4,8.2,13.4,16.3,21.3,24.3
				c0.5,0.5,1,1,1.5,1.5c-5,2-9.9,3.8-14.7,5.4c-7-9.4-13-18.7-18.2-27.6l3.5,13.2c3.3,5.1,6.9,10.4,10.8,15.6
				c-2.1,0.6-4.1,1.2-6.1,1.8l1,3.7c2.5-0.7,5-1.4,7.5-2.3c6.4,8.4,13.5,17,21.5,25.4c-5.5,2.7-10.9,5.1-16.2,7.2
				c-3.3-5.4-6.3-10.7-8.9-15.8l4.1,15.4c0.4,0.6,0.7,1.2,1.1,1.9c-0.2,0.1-0.4,0.1-0.6,0.2l1,3.7c0.5-0.2,1.1-0.4,1.6-0.6
				c5.4,8.5,11.7,17.3,19.1,26.1c-4.1,2.6-8.1,5-12,7.2l1,3.8c4.4-2.5,9-5.1,13.5-8.1c4,4.6,8.3,9.2,13,13.8c2.6,2.6,5.2,5,7.9,7.4
				c-6.3,5.3-12.7,10-18.9,14c-5.3-7.9-10.1-15.7-14.5-23.5l3.7,13.8c2.4,3.9,4.9,7.8,7.6,11.8c-1.3,0.8-2.5,1.6-3.8,2.3l1,3.9
				c1.6-1,3.3-1.9,4.9-3c0.8,1.2,1.6,2.4,2.5,3.6c6,8.6,12.1,16.6,18.2,24.2c-0.7,0.8-1.5,1.7-2.3,2.5c-3,3.2-6,6.2-8.9,9.1
				c-2.1-2-4.2-4.1-6.3-6.2l2,7.4c0.5,0.5,1,0.9,1.4,1.4c-0.3,0.3-0.6,0.5-0.9,0.8l1.1,4.2c0.9-0.8,1.7-1.5,2.6-2.3
				c2.4,2.3,5,4.5,7.5,6.7c3.1,2.7,6.3,5.2,9.5,7.7l1.1-4c-2.7-2.1-5.3-4.3-8-6.5c-2.5-2.1-4.9-4.3-7.3-6.4c3-2.9,6-5.9,9-9.2
				c0.6-0.7,1.2-1.3,1.8-2c2.8,3.3,5.5,6.6,8.3,9.7l1.2-4.5c-2.3-2.6-4.6-5.4-6.9-8.1c5.1-5.8,9.6-11.7,13.7-17.6l4.2-15.6
				c-5.8-4.1-11.7-8.7-17.8-14c1.6-1.4,3.2-2.8,4.8-4.3c5.3-5,10.1-10,14.5-15.2c2.1,1.5,4.2,2.9,6.3,4.2l1.1-3.9
				c-1.6-1.1-3.2-2.1-4.9-3.2c3.2-3.8,6.1-7.7,8.8-11.6l3.2-11.9C212,323,207,330.1,201.2,337.1z M180,318c-0.5,0.5-1.1,0.9-1.6,1.3
				c-2.8-2.4-5.6-4.8-8.3-7.4c-4.1-3.7-7.9-7.5-11.6-11.3c5.8-3,11.7-6.4,17.6-10.2c0.2-0.1,0.4-0.3,0.6-0.4
				c6.5,4.8,12.9,9.2,19.1,13.1C190.9,308.3,185.6,313.2,180,318z M213.6,86.5c1.2,0.7,2.5,1.3,3.7,2c-6.8,4.4-14,8.7-21.6,12.7
				c-7.3-4.3-14.6-9.1-21.8-14.7c8.3-3.3,16-6.8,23.3-10.5C202.3,79.7,207.7,83.2,213.6,86.5z M201.1,74c9.6-5.1,18.3-10.4,26-15.7
				c5.1,2.7,10.6,5.4,16.3,7.9c0.8,0.4,1.6,0.7,2.4,1c-7.5,6.4-15.8,12.7-24.9,18.8c-1.8-0.9-3.6-1.9-5.4-2.9
				C210.4,80.3,205.6,77.2,201.1,74z M159.9,121.2c1.5-0.5,3-1.1,4.5-1.7c9.2,7.3,18.5,13.4,27.8,18.6c-7,3.5-14.3,6.9-21.9,10
				c-9.1-6.2-18.1-13.4-26.7-21.7C149,124.9,154.4,123.2,159.9,121.2z M140.5,123.4c-2.2-2.2-4.4-4.4-6.5-6.8c-4.6-5-8.7-10-12.5-15
				c6.2-1.1,12.5-2.5,19.1-4.2c3,3.2,6.1,6.5,9.4,9.6c3.6,3.4,7.2,6.7,10.9,9.7c-0.8,0.3-1.6,0.6-2.4,0.9
				C152.4,119.9,146.4,121.8,140.5,123.4z M203.9,171.3c-5.7,3.6-11.8,7.1-18.1,10.3c-10.7-6.5-21.6-14.1-32.4-22.9
				c2.1-0.7,4.3-1.5,6.5-2.3c3.4-1.2,6.7-2.5,9.9-3.8C181.2,160.1,192.7,166.3,203.9,171.3z M203.3,195.8c-2.9,2-5.9,4.1-9,6.1
				c-6.5,4.2-12.9,7.9-19.2,11.3c-6.2-4.5-12.4-9.4-18.6-14.6c5.8-2.1,11.7-4.4,17.7-7.1c3.9-1.7,7.7-3.6,11.4-5.4
				C191.6,189.6,197.5,192.8,203.3,195.8z M189.7,183.9c6.5-3.4,12.6-7,18.5-10.8c5.5,2.3,11,4.4,16.3,6.2
				c-5.5,4.7-11.4,9.4-17.6,13.9C201.3,190.4,195.5,187.3,189.7,183.9z M207.8,168.8c-11.1-4.8-22.4-10.7-33.6-18.1
				c7.7-3.2,15.1-6.7,22.2-10.3c10.8,5.7,21.4,10.2,31.6,13.7C221.7,159.2,215,164.1,207.8,168.8z M168.6,118
				c9.5-3.8,18.5-7.9,27-12.3c9.8,5.6,19.6,10.1,29.1,13.8c-8.8,5.8-18.3,11.4-28.4,16.6C187.1,131,177.8,125.1,168.6,118z
				 M191.7,103.3c-8.3,4.3-17.2,8.3-26.5,11.9c-4.2-3.4-8.3-7-12.4-10.9c-2.8-2.7-5.4-5.3-7.9-8c4.4-1.2,8.9-2.6,13.5-4.1
				c3.9-1.3,7.7-2.7,11.4-4.1c0.3,0.2,0.6,0.5,0.9,0.7C177.6,94.3,184.6,99.1,191.7,103.3z M157.1,88.6c-5.1,1.7-10.2,3.2-15.1,4.5
				c-6.2-6.9-11.5-13.8-16.2-20.6c2.4-0.5,4.8-1,7.3-1.6c4.8-1.1,9.5-2.4,14-3.7c5.7,6.1,12.1,12.2,19.4,18.2
				C163.3,86.5,160.2,87.6,157.1,88.6z M137.7,94.2c-6.4,1.6-12.7,2.9-18.7,4c-5.5-7.6-10.2-15.1-14.2-22.4c5.4-0.6,11-1.5,16.7-2.5
				C126.2,80.2,131.5,87.2,137.7,94.2z M131,119.2c1.7,1.9,3.4,3.7,5.2,5.4c-5,1.3-9.8,2.5-14.6,3.5c-7.1-7.9-13.3-15.9-18.9-23.7
				c4.7-0.5,9.5-1.2,14.5-2C121.4,108,126,113.6,131,119.2z M139.3,127.7c8.6,8.4,17.6,15.8,26.8,22.2c-2.5,1-5,1.9-7.5,2.9
				c-2.9,1.1-5.7,2-8.5,3c-6-5-11.9-10.4-17.7-16.3c-2.7-2.7-5.3-5.4-7.8-8.1C129.4,130.3,134.3,129.1,139.3,127.7z M181.8,183.6
				c-3,1.5-6.1,2.9-9.2,4.3c-6.6,2.9-13.1,5.4-19.5,7.7c-4.3-3.8-8.6-7.7-12.9-11.9c-5.7-5.5-11-11-15.9-16.6
				c8.1-2,16.4-4.3,24.9-7.1C160,169.1,171,176.9,181.8,183.6z M171.3,215.1c-6.5,3.4-12.9,6.4-19.2,9c-2.4-2.2-4.8-4.5-7.2-6.8
				c-4-3.9-7.9-7.9-11.5-11.8c6.1-1.6,12.4-3.4,18.9-5.6C158.6,205.4,165,210.5,171.3,215.1z M174.8,217.7
				c8.6,6.2,17.1,11.7,25.4,16.5c-6.1,4.6-12.6,9-19.5,13.2c-8.4-6.1-16.9-12.9-25.3-20.4C161.7,224.2,168.2,221.1,174.8,217.7z
				 M201.9,266.1c-7.6,6.8-15.9,13.2-25,19.3c-7.7-5.9-15.5-12.5-23.2-19.8c8.7-3.8,17.7-8.2,26.8-13.6
				C187.7,257.2,194.9,261.9,201.9,266.1z M218.8,275.7c-6,8.4-12.7,16.6-20.2,24.7c-6-3.7-12.2-7.9-18.4-12.5
				c9.2-6.2,17.6-12.8,25.3-19.6C209.9,270.9,214.4,273.4,218.8,275.7z M221.9,246c-5.2,5.9-10.8,11.8-17,17.5
				c-6.8-4.1-13.8-8.6-20.9-13.6c7-4.3,13.6-8.8,19.8-13.5C210,239.9,216.1,243.1,221.9,246z M203.5,231.7c-8-4.7-16.4-10-24.9-16.1
				c5.9-3.2,11.9-6.7,17.9-10.6c3.7-2.4,7.2-4.8,10.7-7.3c7.8,3.9,15.4,7.2,22.6,10C222.1,215.9,213.3,224,203.5,231.7z M248,186.2
				c-4.6,6.1-9.7,12.4-15.4,18.6c-7-2.7-14.3-5.9-21.9-9.6c6.4-4.7,12.4-9.5,18-14.4c0.3,0.1,0.7,0.2,1,0.3
				C236.1,183.1,242.3,184.8,248,186.2z M245.4,159.5c-5.4,5.7-11.2,11.4-17.6,17c-5.1-1.7-10.4-3.7-15.8-5.9
				c7.2-4.8,13.9-9.8,20.2-15C236.8,157.1,241.2,158.3,245.4,159.5z M255.3,128.8c-7.1,7.6-15,15.2-23.8,22.5
				c-9.9-3.3-20.4-7.6-31-13.1c10.2-5.4,19.8-11.2,28.7-17.1C238.2,124.4,247,126.9,255.3,128.8z M228.7,116.8
				c-9.5-3.5-19.2-7.9-29-13.4c7.6-4.1,14.8-8.5,21.6-13c9.5,4.7,19,8.3,28.3,11C243,106.7,236.1,111.8,228.7,116.8z M276.5,77.6
				c-7,6.9-14.8,13.9-23.3,20.9c-9.3-2.5-18.8-6-28.3-10.6c9.1-6.2,17.4-12.7,25-19.1C259,72.5,267.9,75.4,276.5,77.6z M249,41.7
				c5.7,2,12.1,3.7,19,4.9c-5.6,5.8-11.8,11.8-18.8,17.8c-1.4-0.6-2.7-1.1-4.1-1.7c-5.1-2.2-9.8-4.5-14.4-6.9
				C237.5,51,243.6,46.2,249,41.7z M223.9,29.9c5.3,3.3,12.3,7,20.9,10.3c-5.3,4.3-11.2,8.9-17.9,13.6c-7.4-4.1-14.2-8.3-20.3-12.6
				C213.1,37.3,218.8,33.5,223.9,29.9z M202.9,43.3c6.1,4.3,12.9,8.7,20.4,12.9c-7.7,5.2-16.2,10.3-25.7,15.3
				c-7-5.2-13.2-10.7-18.5-16C187.8,51.6,195.8,47.4,202.9,43.3z M193.8,73.4c-7.3,3.6-15,7.1-23.3,10.3C163.3,78,156.9,72,151.1,66
				c8.6-2.7,16.6-5.7,24.1-8.9C180.6,62.6,186.8,68.1,193.8,73.4z M158.5,37.2c3.8,5.2,8.4,11,14,16.9c-7.5,3.2-15.6,6.1-24.2,8.7
				c-6-6.6-11.2-13.1-15.6-19.3C141.7,41.7,150.3,39.5,158.5,37.2z M128.4,44.4c4.4,6.3,9.6,12.9,15.6,19.7c-3.9,1.1-7.9,2.2-12,3.1
				c-2.9,0.7-5.8,1.3-8.7,1.8c-4.9-7.5-9-14.9-12.4-21.7C117,46.5,122.8,45.5,128.4,44.4z M106,48c0.3,0,0.6-0.1,0.9-0.1
				c3.3,6.9,7.4,14.3,12.3,21.9c-5.6,1-11.1,1.8-16.4,2.4c-4.1-7.9-7.5-15.5-10.2-22.6C97.1,49.1,101.5,48.6,106,48z M72.7,50.9
				c5.2-0.2,10.5-0.5,15.9-1c2.7,7.1,6,14.8,10,22.7c-5.3,0.5-10.3,0.8-15.1,1C79.3,65.6,75.7,58,72.7,50.9z M85.6,77.3
				c4.8-0.2,9.8-0.5,15-1.1c4,7.4,8.6,15,14.1,22.7c-5,0.8-9.8,1.4-14.5,1.9C94.7,92.8,89.8,84.9,85.6,77.3z M81.1,106
				c5.4-0.2,11.1-0.6,17.1-1.1c5.6,8,11.9,16.1,19,24.1c-7,1.4-13.8,2.4-20.2,3.2C91,123.3,85.7,114.5,81.1,106z M99.4,135.8
				c6.6-0.9,13.6-2,20.8-3.4c3,3.3,6.1,6.6,9.3,9.8c5.3,5.3,10.7,10.3,16.2,15c-8.3,2.7-16.4,4.9-24.3,6.8
				C113.2,154.5,105.9,145.1,99.4,135.8z M105.5,171.2c4.7-0.9,9.5-1.9,14.5-3c5.4,6.1,11.2,12.2,17.4,18.3
				c3.8,3.7,7.6,7.2,11.5,10.6c-6.3,2.1-12.5,3.8-18.5,5.3C121,191.9,112.7,181.4,105.5,171.2z M109.3,210.5
				c6.3-1,12.9-2.3,19.7-3.9c4.1,4.5,8.5,9,13.1,13.4c2,2,4.1,3.9,6.1,5.8c-8,3.3-15.6,5.9-22.9,8.2
				C119.4,226.1,114,218.2,109.3,210.5z M127.9,237.2c7.4-2.4,15.3-5.2,23.5-8.6c8.6,7.7,17.2,14.6,25.6,20.9
				c-9,5.2-17.8,9.5-26.3,13.2c-0.9-0.8-1.7-1.7-2.6-2.5C140.6,252.6,133.9,244.9,127.9,237.2z M134.5,272.9
				c4.9-1.7,10-3.6,15.3-5.7c7.9,7.6,15.8,14.4,23.7,20.4c-6,3.8-11.9,7.2-17.7,10.2C147.8,289.5,140.8,281.2,134.5,272.9z
				 M138,310.1c5.5-2.2,11.1-4.7,16.9-7.6c4,4.1,8.1,8.2,12.5,12.2c2.7,2.5,5.3,4.8,8,7.1c-6.2,5.1-12.5,9.6-18.7,13.7
				C149.4,327,143.2,318.4,138,310.1z M199.2,379.7c-5.4,8.6-11.7,17.5-19.3,26.2c-5.9-7.3-11.7-15.1-17.5-23.4
				c-0.8-1.2-1.6-2.4-2.4-3.6c6.4-4.2,13-9,19.6-14.6C186.3,370.1,192.9,375.2,199.2,379.7z M184.6,354.7c-1.6,1.5-3.3,3-5,4.5
				c-2.7-2.4-5.3-4.9-8-7.5c-4.5-4.4-8.6-8.8-12.5-13.2c6.3-4.2,12.8-8.9,19.2-14.1c6.9,5.7,13.7,10.9,20.3,15.6
				C194.4,345,189.7,350,184.6,354.7z"/>
		</g>
	</g>
</g>
</svg>
