<?xml version="1.0" encoding="utf-8"?>
<!-- Generator: Adobe Illustrator 21.1.0, SVG Export Plug-In . SVG Version: 6.00 Build 0)  -->
<svg version="1.1" id="Layer_1" xmlns="http://www.w3.org/2000/svg" xmlns:xlink="http://www.w3.org/1999/xlink" x="0px" y="0px"
	 viewBox="0 0 365 325" style="enable-background:new 0 0 365 325;" xml:space="preserve">
<style type="text/css">
	.st0{fill:#FFFFFF;}
	.st1{fill:#F9F4DF;}
</style>
<g>
	<path class="st0" d="M83.6,268.8c-35.7-28.2-69.6-81.2-59.1-138C39.2,50.9,135.1-0.7,216.3,16.4c61.9,13,121.5,67.2,125.9,136.5
		c3.8,60.2-36.2,101.5-41.7,106.9c-14.6,14.6-35.2,14.2-56.4,13.9c-10.9-0.2-21.9-0.3-32.4,1.5C165.3,283.3,121.3,298.6,83.6,268.8"
		/>
	<path class="st1" d="M315.7,241.5c-1.5,2.1-2.9,4-4.3,5.8c0,0,0.1,0.1,0.1,0.1c1.7-2.1,3.2-4,4.4-5.5
		C315.8,241.7,315.7,241.6,315.7,241.5 M33,202.3c4.7,11.3,10.8,22,17.6,31.7l0,0C43.7,224.2,37.7,213.6,33,202.3 M27.7,117.7
		c-1.3,4.3-2.4,8.7-3.2,13.2c-1.3,7.1-1.9,14.2-1.9,21.2c0-7,0.6-14,1.9-21.2C25.3,126.4,26.4,122,27.7,117.7 M27.7,117.6
		C27.7,117.6,27.7,117.6,27.7,117.6C27.7,117.6,27.7,117.6,27.7,117.6 M27.8,117.5C27.8,117.6,27.8,117.6,27.8,117.5
		C27.8,117.6,27.8,117.6,27.8,117.5 M27.8,117.5C27.8,117.5,27.8,117.5,27.8,117.5C27.8,117.5,27.8,117.5,27.8,117.5 M27.8,117.4
		C27.8,117.4,27.8,117.4,27.8,117.4C27.8,117.4,27.8,117.4,27.8,117.4 M27.8,117.3C27.8,117.4,27.8,117.4,27.8,117.3
		C27.8,117.4,27.8,117.4,27.8,117.3"/>
	<path class="st1" d="M121.8,24.8c-43.8,16.6-80.7,49.8-94,92.6c0,0,0,0,0,0c0,0,0,0,0,0.1c0,0,0,0,0,0c0,0,0,0,0,0.1c0,0,0,0,0,0
		c0,0,0,0,0,0c0,0,0,0,0,0c0,0,0,0,0,0c0,0,0,0,0,0.1c0,0,0,0,0,0c-1.3,4.3-2.4,8.7-3.2,13.2c-1.3,7.1-1.9,14.2-1.9,21.2
		c0,17.6,3.9,34.6,10.4,50.2c4.7,11.3,10.8,22,17.6,31.7c0.3,0,0.7,0,1.1,0c9.4,0,21.2,4.2,32.7,6.2c9.8,1.7,18.3,2.2,25.8,2.2
		c4.9,0,9.4-0.2,13.5-0.4c3.5-0.2,6.4-0.4,9.2-0.7c13.8-1.6,23.8-3.9,27.3-4.7c22.3-5.4,48.5-11.8,77.7-11.8c3,0,6,0.1,9.1,0.2
		c10,0.5,17.3,0.8,27.1,3.6c10,2.9,26.2,9.4,37.4,18.8c1.4-1.8,2.8-3.7,4.3-5.8c-5.6-7.3-14.8-17.5-28.6-26
		c-14.1-8.7-28.9-12.2-45.7-15.1c-7.6-1.3-14.6-1.9-21.2-1.9c-15.3,0-28.1,3-41,6c-12.9,3-25.9,6-41.5,6c-9.6,0-20.2-1.1-32.4-4.1
		c-21.7-5.3-29.6-11.7-33.5-15.5c-25.2-24.4-20.8-71-10.5-98.5C71.9,64,94.2,40.7,121.8,24.8"/>
	<path class="st0" d="M323.7,268c-0.7-20.5-33.5-34.9-49.8-39.6c-9.8-2.8-17.1-3.2-27.1-3.6c-32.8-1.5-62.2,5.6-86.8,11.6
		c-3.4,0.8-13.4,3.1-27.3,4.7c-2.7,0.3-5.7,0.6-9.2,0.7c-10.5,0.5-23.1,1-39.4-1.8c-16.6-2.9-33.6-10.2-43.6-3.2
		c-0.6,0.5-1.2,1-1.2,1c-4.2,4.2-4.6,10-4.7,10.9c-0.3,5.9,3.1,10.4,4.5,12.2c6.3,8.4,34.3,25.4,87,27.2c15.6,0.5,26.3,0.3,34.9,0
		c15.9-0.5,24.8-0.9,45.1,3.6c30.4,6.8,34.5,21,56.9,20.1C292.4,310.6,324.5,288.4,323.7,268"/>
	<path class="st1" d="M263.4,311.9C263.3,311.9,263.3,311.9,263.4,311.9C263.3,311.9,263.3,311.9,263.4,311.9 M263.4,311.9
		C263.4,311.9,263.4,311.9,263.4,311.9C263.4,311.9,263.4,311.9,263.4,311.9 M263.5,311.9C263.4,311.9,263.4,311.9,263.5,311.9
		C263.4,311.9,263.4,311.9,263.5,311.9 M269.6,311.3c-2,0.3-4.1,0.5-6.1,0.6C265.5,311.8,267.5,311.6,269.6,311.3 M269.6,311.3
		C269.6,311.3,269.6,311.3,269.6,311.3C269.6,311.3,269.6,311.3,269.6,311.3 M269.7,311.3C269.7,311.3,269.6,311.3,269.7,311.3
		C269.6,311.3,269.7,311.3,269.7,311.3 M269.7,311.3C269.7,311.3,269.7,311.3,269.7,311.3C269.7,311.3,269.7,311.3,269.7,311.3
		 M269.7,311.3L269.7,311.3L269.7,311.3 M38.8,260.1c0.2,0.3,0.4,0.6,0.6,0.8C39.2,260.7,39,260.5,38.8,260.1"/>
	<path class="st1" d="M36.2,255.6c0.8,1.9,1.8,3.4,2.6,4.5c0.2,0.3,0.4,0.6,0.6,0.8l0,0c6.3,8.4,34.3,25.4,87,27.2
		c6.8,0.2,12.7,0.3,17.9,0.3c6.7,0,12.2-0.1,17.1-0.3c4.9-0.1,9.1-0.3,13.1-0.3c9.3,0,17.9,0.7,32,3.9c29.4,6.6,34.2,20.1,54.8,20.1
		c0.7,0,1.4,0,2.1,0c0,0,0,0,0,0c0,0,0,0,0,0c0,0,0,0,0,0c0,0,0,0,0,0c0,0,0,0,0,0c0,0,0,0,0,0l0,0c2-0.1,4.1-0.3,6.1-0.6
		c0,0,0,0,0,0c0,0,0,0,0,0c0,0,0,0,0,0c0,0,0,0,0,0c0,0,0,0,0,0c0,0,0,0,0,0c0,0,0,0,0,0l0,0c15.1-2.2,30.3-9.5,40.7-18.8
		c-11.8-2.2-29.2-6.2-49.6-13.7c-21.3-7.9-27.9-13.1-42-15c-2.6-0.3-4.9-0.5-7.1-0.5c-15.5,0-21.8,8-46.9,12.5
		c-10.4,1.8-20.5,2.6-30.2,2.6c-35,0-64.2-10-77.8-14.6C48,260.7,40.8,257.7,36.2,255.6"/>
</g>
</svg>
