<?xml version="1.0" encoding="utf-8"?>
<!-- Generator: Adobe Illustrator 21.1.0, SVG Export Plug-In . SVG Version: 6.00 Build 0)  -->
<svg version="1.1" id="Layer_1" xmlns="http://www.w3.org/2000/svg" xmlns:xlink="http://www.w3.org/1999/xlink" x="0px" y="0px"
	 viewBox="0 0 337 316" style="enable-background:new 0 0 337 316;" xml:space="preserve">
<style type="text/css">
	.st0{fill:#FFFFFF;}
	.st1{opacity:0.35;}
	.st2{fill:#EFE0A3;}
</style>
<g>
	<g>
		<path class="st0" d="M69.6,264.3c-35.7-28.2-69.6-81.2-59.1-138C25.2,46.4,121.1-5.2,202.3,11.9c61.9,13,121.5,67.2,125.9,136.5
			c3.8,60.2-36.2,101.5-41.7,106.9c-22.1,22.1-57.9,10-88.9,15.4C151.3,278.8,107.3,294.1,69.6,264.3z"/>
	</g>
	<g class="st1">
		<path class="st2" d="M286.5,255.2c3.8-3.8,7.3-8,7.3-8c3.4-4,6.2-7.4,8.2-10c-5.5-7.3-14.8-17.7-28.8-26.4
			c-14.1-8.7-28.9-12.2-45.7-15.1c-54.2-9.5-75.9,20.7-136,6c-21.7-5.3-29.6-11.7-33.5-15.5c-25.2-24.4-20.8-71-10.5-98.5
			c10.5-28.3,32.8-51.6,60.4-67.5C59.5,38.6,19.6,77.1,10.5,126.4C0,183.2,33.9,236.2,69.6,264.3c37.7,29.7,81.6,14.5,128,6.3
			C228.6,265.2,264.4,277.3,286.5,255.2z"/>
	</g>
	<g>
		<path class="st0" d="M309.7,263.5c-0.7-20.5-33.5-34.9-49.8-39.6c-9.8-2.8-17.1-3.2-27.1-3.6c-32.8-1.5-62.2,5.6-86.8,11.6
			c-3.4,0.8-13.4,3.1-27.3,4.7c-2.7,0.3-5.7,0.6-9.2,0.7c-10.5,0.5-23.1,1-39.4-1.8c-16.6-2.9-33.6-10.2-43.6-3.2
			c-0.6,0.5-1.2,1-1.2,1c-4.2,4.2-4.6,10-4.7,10.9c-0.3,5.9,3.1,10.4,4.5,12.2c6.3,8.4,34.3,25.4,87,27.2c44.6,1.5,48.7-3.4,80,3.7
			c30.4,6.8,34.5,21,56.9,20.1C278.4,306.1,310.5,283.9,309.7,263.5z"/>
	</g>
	<g class="st1">
		<path class="st2" d="M246.9,274.3c-21.3-7.9-27.9-13.1-42-15c-21.2-2.8-25.4,6.9-54,12c-47.8,8.5-90.6-6.1-108-12
			c-8.9-3-16.1-6.1-20.7-8.1c1,2.5,2.4,4.3,3.2,5.3c6.3,8.4,34.3,25.4,87,27.2c44.6,1.5,48.7-3.4,80,3.7c30.4,6.8,34.5,21,56.9,20.1
			c17.1-0.7,35.3-8.7,47.2-19.4C284.7,285.8,267.3,281.8,246.9,274.3z"/>
	</g>
</g>
</svg>
