<?xml version="1.0" encoding="utf-8"?>
<!-- Generator: Adobe Illustrator 21.1.0, SVG Export Plug-In . SVG Version: 6.00 Build 0)  -->
<svg version="1.1" id="Layer_1" xmlns="http://www.w3.org/2000/svg" xmlns:xlink="http://www.w3.org/1999/xlink" x="0px" y="0px"
	 viewBox="0 0 365 535" style="enable-background:new 0 0 365 535;" xml:space="preserve">
<style type="text/css">
	.st0{fill:#FF9200;}
	.st1{fill:#FF4E00;}
</style>
<g>
	<path class="st0" d="M82.3,121.2c-2.4-7.5-3.6-13.3-3.6-17.8c0-38.8,50.1-88,106.4-88c25.9,0,51.3,11.1,71.5,31.2
		c18.5,18.5,29.6,42,29.6,62.9c0,0.2,0,0.4,0,0.5c0,0.2,0,0.6,0,0.6c-0.1,7.4-1.1,14.7-3,21.8l0,0.1l-0.1,0.5l-98.3,383.1
		L82.3,121.2z"/>
	<path class="st1" d="M185.1,16.6c13.2,0,26.2,2.9,38.8,8.6c11.5,5.2,22.5,12.9,31.8,22.2C274,65.8,285,89,285,109.5
		c0,0.2,0,0.3,0,0.5c0,0.2,0,0.3,0,0.5l0,0l0,0.2c-0.1,7.3-1.1,14.5-3,21.5l0,0.2l0,0.2l0,0.3l-97,378.3L83.5,120.9l0-0.1l0-0.1
		c-2.3-7.3-3.5-12.9-3.5-17.3c0-18.7,11.9-40.2,31.8-57.6C133,27.2,159.7,16.6,185.1,16.6 M185.1,14.1
		c-56.5,0-107.6,49.6-107.6,89.3c0,5.3,1.5,11.7,3.6,18.1l103.7,399.6l99.5-387.9l0.1-0.5c1.9-7.1,3-14.5,3.1-22.1l0-0.2l0,0.1
		c0-0.4,0-0.7,0-1.1C287.5,66.6,241.7,14.1,185.1,14.1z"/>
	<path class="st0" d="M249.5,268.9l-1.9,7.3c1.7-2.9,3.1-5.5,4.2-7.6C251.1,268.7,250.3,268.8,249.5,268.9z"/>
	<path class="st1" d="M249.5,268.9l-0.7-0.2l-3.2,12.3l2.7-4.5c1.7-2.9,3.1-5.5,4.2-7.7l0.7-1.3l-1.4,0.2c-0.7,0.1-1.5,0.2-2.3,0.3
		l-0.5,0.1l-0.1,0.5L249.5,268.9l0.1,0.7c0.8-0.1,1.6-0.2,2.4-0.3l-0.1-0.7l-0.7-0.3c-1.1,2.1-2.5,4.7-4.2,7.6l0.6,0.4l0.7,0.2
		l1.9-7.3L249.5,268.9l0.1,0.7L249.5,268.9z"/>
	<path class="st0" d="M232.2,336.4l-1.3,5.2c1.3-2.1,2.2-4,2.9-5.4C233.3,336.3,232.7,336.3,232.2,336.4z"/>
	<path class="st1" d="M232.2,336.4l-0.7-0.2l-2.6,10.3l2.7-4.5c1.3-2.2,2.3-4,3-5.4l0.6-1.3l-1.4,0.2c-0.5,0.1-1.1,0.1-1.6,0.2
		l-0.5,0.1l-0.1,0.5L232.2,336.4l0.1,0.7c0.5-0.1,1.1-0.1,1.6-0.2l-0.1-0.7l-0.7-0.3c-0.7,1.4-1.7,3.2-2.9,5.3l0.6,0.4l0.7,0.2
		l1.3-5.2L232.2,336.4l0.1,0.7L232.2,336.4z"/>
	<path class="st0" d="M191.8,492.9c-4.1-2.3-8-4.9-11.7-7.7c-2.3-1.8-4.7-3.7-6.9-5.7l-0.2-0.2L170,468l2.6,2.7c0,0,0.7,0.7,0.8,0.8
		c3.8-1.1,7.5-2.6,11-4.5c0.9-0.5,1.8-1,2.7-1.5c-1.8-0.7-3.6-1.5-5.3-2.4c-4.9-2.4-9.6-5.4-13.9-8.8l-0.5,0.1l-0.9,0.1l-3.2-12.4
		l2.6,2.5c1.2,1.2,2.5,2.3,3.8,3.4c5.7-1,11.2-2.7,16.5-5c-1.7-0.6-3.4-1.2-5-1.9c-6-2.5-11.8-5.7-17.2-9.5c-0.8,0-1.7,0.1-2.5,0.1
		l-0.8,0l-3.5-13.4l2.5,2.3c2,1.8,3.9,3.4,6,5c8.7-0.6,17-2.8,24.6-6.4c-1.2-0.2-2.5-0.4-3.7-0.7c-7.5-1.5-14.9-3.8-22-6.8
		c-2.6,0.4-5.3,0.8-8,1l-0.8,0.1l-1.5-5.9l0.3,0l-0.4-0.2l-2.1-8.1l2.1,1.2c3.6,2.1,7.4,4,11.2,5.7c6.9-1.3,13.7-3.3,20.2-6.1
		c0.2-0.1,0.5-0.2,0.7-0.3c-0.8-0.2-1.5-0.3-2.3-0.5c-7.5-1.7-15-4-22.3-6.9c-3.5,0.4-7,0.6-10.4,0.6h-0.8l-1.6-6l0.8,0
		c-0.2-0.1-0.9-0.5-0.9-0.5l-2-7.9l2,1.1c4.5,2.4,9.1,4.6,13.8,6.6c8.7-1.1,17.2-3.4,25.2-6.8c-2.2-0.4-4.3-0.8-6.5-1.3
		c-8.1-1.8-16.2-4.4-23.9-7.8c-3.6,0.3-7.2,0.5-10.7,0.5c-0.3,0-2,0-2,0l-1.6-6l1.3,0c0.6,0,1.1,0,1.7,0c-1-0.6-2.1-1.2-3.1-1.8
		l-0.4-0.2l-2.1-8.3l2.1,1.3c5,3.1,10.3,5.9,15.7,8.3c8.4-0.9,16.6-2.8,24.4-5.6c-0.5-0.1-1-0.2-1.5-0.4
		c-11.5-2.8-22.7-7.1-33.3-12.6c-2.9,0.3-5.8,0.5-8.8,0.5l-0.8,0l-1.5-5.9c0,0,1.6,0,1.8,0c-0.6-0.4-1.3-0.8-1.9-1.2l-0.3-0.2
		l-2.3-8.8l2.2,1.5c4.1,2.9,8.4,5.5,12.8,7.9c8.6-0.9,17.1-2.7,25.2-5.3c-2.7-0.7-5.4-1.6-8-2.5c-9.5-3.2-18.7-7.5-27.4-12.8
		c-2.1,0.3-4.3,0.7-6.6,0.9l-0.9,0.1l-1.5-5.8l1.4-0.2c-0.5-0.3-1.8-1.2-1.8-1.2l-2.4-9.2l2.3,1.8c3.5,2.6,7,5.1,10.7,7.4
		c7.2-1.2,14.3-2.9,21.2-5c-11.6-3.9-22.9-8.9-33.7-14.8c-0.7,0.1-1.4,0.2-2.1,0.3l-1,0.1l-2.8-10.8l2.1,1.3c1.8,1.1,3.4,2,5,2.9
		c7.9-1.2,15.9-2.9,23.7-5.1c-11-4.8-21.7-10.7-31.8-17.5c-1,0-2,0.1-2.9,0.1l-0.8,0l-3.2-12.4l2.3,1.7c2.2,1.6,4.3,3.1,6.4,4.6
		c7.5-0.3,15.1-1,22.6-2.2c-12.5-5.6-24.3-12.6-35.3-20.7l-0.3-0.2l-2.4-9.4l2.3,1.8c0.5,0.4,1,0.8,1.6,1.2c6.7,0.7,13.4,1.1,20,1.1
		c1.5,0,3.1,0,4.6-0.1c-7.5-4.1-14.7-8.8-21.6-13.9c-2.8,0.1-5.7,0.1-8.7,0.2l-0.8,0l-1.5-6l1.3,0c4.1,0,8.2-0.1,12.2-0.3
		c-6.4-6.6-12.2-13.7-17.3-21c-0.6-0.5-1.3-1-1.9-1.5l-0.3-0.2l-6.3-24.4l3.9,7.4c2.7,5,5.7,9.9,8.9,14.6
		c5.9,4.4,12.3,8.2,18.9,11.2c1.2,0.5,2.4,1,3.6,1.5c-2.9-3.8-5.6-7.8-8.1-11.8c-4.5-7.2-8.5-14.7-11.8-22.5l0-0.1
		c-8.9-8.9-16.7-19.2-23.3-30.6l-0.1-0.1l-2.5-9.7c-1.2-3.6-2.1-7-2.7-10l1.9-0.6c6.4,15.7,21.8,44.8,52.6,64.1
		c11.1,7,24.4,12.1,39.3,15.1c12.4,2.5,23.1,2.9,28.5,3c2.3-0.8,4.3-1.6,6.2-2.3c28.1-11.1,50.4-26.5,64.4-44.5
		c9.2-11.7,14.4-24,15.4-36.3c0-0.5,0.1-1.1,0.1-1.7v-3.6l2.6,4.4v0.3c0,0.2,0,0.4,0,0.6c0,0.1,0,0.3,0,0.5l-0.3,0l0.3,0.1l0,0.1
		c-0.1,7.5-1.1,15-3.1,22.2l-0.1,0.5l-0.2,0.9l0,0.1c-0.5,0.9-0.9,1.9-1.4,2.8l1.4-2.5l-6.5,25.4c0,0-1.7,0-1.9,0
		c-2.5,3.6-5.1,7-7.8,10.3c-0.9,1.1-1.9,2.3-3,3.6c2.5,0.3,5.1,0.6,7.7,0.7l1.2,0.1l-4.7,18.4l-0.2,0.2c-0.6,0.7-1.3,1.4-1.9,2.1
		l1.4,0.2l-1.5,5.8l-0.9-0.1c-1.3-0.1-2.7-0.3-4.1-0.5c-3.8,3.9-7.8,7.7-11.9,11.3c2.8,0.2,5.7,0.4,8.6,0.6c1.6-1.9,3.3-3.8,4.9-5.7
		l2.8-3.4l-3.9,15.3l-1.3-0.1c-2.7,3-5.6,6-8.5,8.9c2.1-0.1,4.1-0.3,6.2-0.5l1.4-0.1l-5.4,21l-0.1,0.2c-4.6,5.9-9.5,11.5-14.6,16.7
		c3.1-0.3,6.2-0.7,9.2-1.2l1.5-0.2l-8,31.1l-0.7,0.1c-0.9,0.1-1.8,0.2-2.7,0.3c-4.9,6.1-10.4,11.8-16.2,17c1.3,0,2.5,0,3.8,0
		c3.2,0,6.5-0.1,10.1-0.3l1.4-0.1l-3.6,14l-0.1,0.2c-1.5,2-3.1,3.9-4.7,5.7c0.6-0.1,1.3-0.2,2-0.3l1.5-0.2l-5.8,22.4l-0.1,0.2
		c-0.4,0.5-0.8,1-1.2,1.6l0.9-0.1l-1.6,6.1l-0.7,0.1c-1.5,0.1-2.8,0.2-4.1,0.3c-4.6,4.9-9.7,9.3-15.2,13.2c1.4,0,2.7,0.1,4,0.1
		c3.4,0,6.8-0.1,10.3-0.4l3.1-3.2l-2.9,11.5l-0.2,0.2c-5.1,4.8-10.6,9.2-16.4,12.9c3.8,0.3,7.6,0.5,11.4,0.5l1.7,0l-3,11.5l-0.2,0.2
		c-2.2,2.5-4.5,4.7-7,6.8c0.6,0,1.2,0,1.8,0c0.7,0,1.3,0,2,0l1.6,0l-1.5,6l-1.3,0c-0.3,0-0.5,0-0.8,0c-3,0-6.2-0.1-9.4-0.4
		c-2.2,1.4-4.3,2.6-6.5,3.7c-6.4,3.2-13.3,5.4-20.4,6.6c3.2,1.9,6.6,3.6,10,5c3.4,1.4,6.9,2.5,10.5,3.5c4.9-2.9,9.6-6.3,13.8-10.3
		l2.5-2.4l-2.7,10.4l-0.3,0.2c-1.6,1.3-3.2,2.5-4.9,3.7c0.9,0.1,1.9,0.2,2.9,0.4l1.1,0.1l-1.5,5.9l-0.9-0.1
		c-3.2-0.4-6.3-0.9-9.3-1.6l-0.1,0c-0.3,0.2-0.6,0.3-0.8,0.5c-5.7,3-11.7,5.2-17.9,6.8c2.8,1.9,5.7,3.6,8.6,5.1
		c2.8,1.4,5.7,2.6,8.7,3.6c2.8-2.2,5.5-4.7,8-7.4l2.7-3l-3,11.7c0,0-0.6,0.5-0.8,0.7l0.6,0.1l-1.5,5.8l-1-0.2
		c-1.4-0.4-2.7-0.7-4-1.1c-2.3,1.6-4.6,3-7,4.3c-2.8,1.5-5.8,2.8-8.8,3.9c1.8,1.5,3.5,3,5.3,4.3c3.2,2.4,6.6,4.7,10.2,6.8l0.7,0.4
		l-1.5,6L191.8,492.9z M175.2,409.3c4.1,1.4,8.3,2.5,12.5,3.3c3.6,0.7,7.3,1.3,10.9,1.6c5-3.4,9.4-7.5,13.2-12.1
		c-5.2-0.2-10.5-0.6-15.7-1.3c-2.8,1.5-5.7,2.9-8.5,4.1C183.6,406.6,179.4,408.1,175.2,409.3z M173.6,389.7
		c3.8,1.2,7.7,2.3,11.5,3.1c3.2,0.7,6.5,1.3,10,1.9c6.9-3.8,13.5-8.5,19.6-13.9c-1.3,0-2.5,0.1-3.8,0.1c-4.1,0-8.4-0.2-12.7-0.6
		c-1.6,0.9-3,1.6-4.5,2.4C187.3,385.6,180.6,388,173.6,389.7z M169.3,367.9c4.4,1.5,8.8,2.7,13.2,3.7c4.7,1.1,9.6,1.9,14.4,2.4
		c6-3.5,11.5-7.6,16.5-12.3c-6.7-0.1-13.4-0.6-20.1-1.7c-2.3,1.1-4.5,2-6.5,2.8C181.2,365,175.3,366.7,169.3,367.9z M202.7,355.2
		c4.1,0.4,8.3,0.6,12.5,0.6c1.3,0,2.7,0,4.1-0.1c4-4.5,7.6-9.5,10.7-14.6l2.2-3.7c-2.6,0.3-5,0.6-7.3,0.8
		C218.2,344.8,210.7,350.5,202.7,355.2z M158.5,343.6c7.8,3.5,15.8,6.3,24,8.3c3.2,0.8,6.5,1.4,10,2c8.3-4,16-9.1,23.1-15.2
		c-1.1,0-2.2,0-3.2,0c-9.2,0-18.4-0.9-27.4-2.6C176.5,339.5,167.6,342,158.5,343.6z M195,331.7c5.7,0.7,11.6,1.1,17.4,1.1
		c3.2,0,6.5-0.1,9.8-0.3c3.4-3.5,6.7-7.3,9.6-11.2c0.8-1.1,1.7-2.2,2.5-3.4c-2.1,0.1-4.2,0.1-6.2,0.1c-3.5,0-7.1-0.1-10.7-0.3
		C210.5,323.1,202.9,327.8,195,331.7z M148,316.7c6.5,3.5,13.3,6.5,20.3,8.9c5.2,1.8,10.7,3.3,16.2,4.4c2.4-1,4.6-1.9,6.7-3
		c5.9-2.8,11.7-6.2,17.1-9.9c-12.6-1.2-25.1-3.5-37.1-6.9C163.7,312.8,155.9,315,148,316.7z M180.6,306.5
		c11.4,2.7,23.1,4.5,34.9,5.2c6-4.8,11.6-10.2,16.7-16c-3.1,0.2-6.1,0.3-9.1,0.3c-2.8,0-5.7-0.1-8.5-0.2c-3.6-0.2-7.2-0.5-11.1-0.9
		c-7.1,4.2-14.4,8-21.9,11.2C181.3,306.2,181,306.3,180.6,306.5z M137.4,290.6c9.9,5,20.3,9.2,30.8,12.4c0.9,0.3,1.8,0.5,2.7,0.8
		c3-1.1,5.8-2.2,8.4-3.3c5-2.1,9.9-4.5,14.7-7.1c-11.1-1.9-22-4.9-32.7-8.9C153.4,287,145.4,289.1,137.4,290.6z M211.8,289.5
		c1.1,0.1,2.2,0.1,3.2,0.2c2.7,0.1,5.4,0.2,8.2,0.2c4.7,0,9.4-0.2,14.3-0.6c3.4-4.3,6.5-8.9,9.3-13.6l3.5-5.9l-0.6,0.1
		c-5.2,0.7-10.1,1.3-15.2,1.6C227.4,278.1,219.8,284.2,211.8,289.5z M170.5,281.4c10.4,3.4,21.1,5.8,31.8,7.2
		c8-4.9,15.6-10.6,22.9-16.8c-1,0-1.9,0-2.8,0c-8.7,0-17.5-0.6-26.1-1.8C187.9,274.4,179.2,278.2,170.5,281.4z M130.8,262.9
		c9.9,6.1,20.2,11.3,30.7,15.4c8.4-2.7,16.7-6.1,24.7-9.9c-0.8-0.2-1.6-0.3-2.3-0.5c-9.7-2-19.4-4.9-28.7-8.4
		C147.2,261.1,139,262.2,130.8,262.9z M205.2,265.1c5.7,0.5,11.5,0.8,17.1,0.8c3.2,0,6.4-0.1,9.6-0.3c5.4-5.1,10.5-10.6,15.3-16.4
		c-6.8,0.9-13.7,1.5-20.6,1.7C219.8,256.1,212.6,260.8,205.2,265.1z M166.1,257c6.2,2,12.6,3.7,19,5c3.3,0.7,6.6,1.3,10.1,1.8
		l0.2-0.1c0.3-0.2,0.6-0.3,0.9-0.5c6.8-3.7,13.5-7.8,20.2-12.3c-8.2-0.2-16.4-1.1-24.4-2.4C183.6,251.9,174.9,254.8,166.1,257z
		 M120.2,234.6c11.2,7.5,23.1,13.8,35.5,18.6c8.5-1.8,17-4.1,25.2-7c-5.8-1.4-11.6-3-17.2-4.9c-5.9-2-11.8-4.4-17.6-7.1
		c-5.1,0.4-10.3,0.6-15.3,0.6C127.3,235,123.8,234.8,120.2,234.6z M202.5,244c6.5,0.7,13,1.1,19.5,1.1c0.9,0,1.8,0,2.6,0
		c4.6-3.5,9.1-7.1,13.4-10.9c-5.3,0-10.6-0.3-15.9-0.7c-5.3,3.2-10.7,6.2-16.1,8.9C204.8,242.9,203.6,243.4,202.5,244z M247.1,234
		c-3.9,3.6-8,7.2-12.2,10.6c6-0.4,12-1.2,17.8-2.2c1.4-1.8,2.8-3.7,4.1-5.6l2.5-3.5l-0.3,0C255,233.6,251,233.9,247.1,234z M158,233
		c2.5,1,5.1,1.9,7.6,2.8c8.3,2.9,17,5.1,25.7,6.6c4.1-1.7,8.2-3.5,12-5.4c2.9-1.4,5.9-3,8.8-4.6c-9.2-1.2-18.2-3.1-27-5.6
		C176.3,229.5,167.2,231.6,158,233z M123.5,214.6c7.6,5.2,15.5,9.8,23.7,13.7c9.3-0.8,18.5-2.4,27.5-4.7c-9.2-3.1-18.1-7-26.6-11.5
		C140.1,213.2,131.8,214,123.5,214.6z M230.5,228c3,0.1,6.1,0.2,9.1,0.2c1.6,0,3.3,0,5-0.1c3.3-3.1,6.6-6.4,9.7-9.7
		c-3.3-0.2-6.6-0.5-9.8-0.8C240,221.3,235.3,224.7,230.5,228z M195.4,223.3c8.2,1.9,16.7,3.3,25.2,4.1c5.2-3.3,10.4-6.8,15.4-10.6
		c-6.7-0.8-13.3-1.8-19.6-3.1c-4.6,2.5-9.1,4.6-13.6,6.6C200.4,221.3,198,222.3,195.4,223.3z M158.3,210.4c8.6,4,17.6,7.4,26.8,10.1
		c5.3-1.7,10.5-3.6,15.4-5.8c2.2-0.9,4.4-2,6.7-3.1c-8.2-1.9-16.2-4.2-23.9-6.9c-6.5,1.8-13.4,3.4-20.3,4.8l0,0.3l-1.4,0
		C160.5,210,159.4,210.2,158.3,210.4z M224.5,209c5.8,1,11.9,1.8,18.2,2.4c4.5-3.7,8.9-7.7,13-11.8c-4.8-0.9-9.2-1.9-13.4-3
		C236.6,201.1,230.6,205.3,224.5,209z M113.9,197.4c3.3,3.8,6.8,7.6,10.4,11.1c3.6-0.2,7.2-0.5,10.8-0.9c-0.7-0.8-1.4-1.5-2.1-2.4
		c-4.5-1.4-9-3-13.2-4.9C117.9,199.5,115.9,198.5,113.9,197.4z M193.3,201.8c7.1,2.2,14.6,4.1,22.1,5.6c6.8-3.8,13.5-8.1,19.7-12.8
		c-4-1.3-7.9-2.9-11.9-4.7C214,194.4,203.9,198.4,193.3,201.8z M136.5,200.1c7.9,2.2,16.1,3.5,24.3,3.8c-4.6-4.2-8.9-8.9-12.6-13.9
		c-7-2.7-13.5-5.9-19.4-9.6c-3.8-2.4-7.6-5-11.2-7.9c1.7,3.1,3.4,6.1,5.3,9.1C126.9,187.9,131.5,194.1,136.5,200.1z M158.8,193.5
		c2.9,3.2,6.1,6.2,9.4,8.9c5.5-1.2,10.8-2.6,16-4c-4.8-0.5-9.5-1.2-14.1-2.2C166.3,195.4,162.5,194.5,158.8,193.5z M247.8,192
		c4,1,8.2,1.8,12.8,2.5l0.1,0c3.4-3.6,6.7-7.4,9.9-11.3l2.1-2.6l-0.3,0c-3.9-0.2-7.5-0.6-11.2-1.2l-0.2,0
		C256.8,183.8,252.4,188,247.8,192z M230.1,186.3c3.5,1.4,7,2.7,10.7,3.7c4.7-3.8,9.1-7.9,13.3-12.2c-2.3-0.6-4.4-1.2-6.7-2.1
		c-3.9,2.7-7.9,5.3-12.1,7.7C233.7,184.4,232,185.4,230.1,186.3z M253.3,171.5c1.7,0.5,3.5,1,5.5,1.4c1.9-2.1,3.7-4.2,5.3-6.2
		c1.8-2.2,3.6-4.5,5.3-6.9c-0.8-0.1-1.7-0.2-2.5-0.3C262.9,163.6,258.3,167.6,253.3,171.5z M272,153.9c0.5,0,1,0.1,1.5,0.1
		c2.7-4.1,5.3-8.3,7.7-12.5l1.2-2.2c-2.1,3.7-4.6,7.3-7.3,10.8C274.1,151.4,273.1,152.7,272,153.9z"/>
	<path class="st1" d="M286.9,108.5l0.6,1c0,0.4,0,0.7,0,1.1l0-0.1l0,0.2c-0.1,7.6-1.2,15-3.1,22.1l-0.1,0.5l-0.2,0.7
		c-2.6,5.3-5.9,10.6-9.8,15.6c-1.4,1.7-2.8,3.5-4.3,5.2c1.3,0.1,2.7,0.2,4.1,0.3c3.2-4.8,5.9-9.2,8-13l-4.4,17.1c-0.5,0-1.1,0-1.6,0
		c-2.4,3.4-5,7-8,10.6c-1.3,1.6-2.8,3.3-4.2,5c3.3,0.5,6.5,0.8,9.6,1l-1,3.9c-3.6-0.2-7.3-0.6-11.1-1.2c-0.3,0-0.5-0.1-0.7-0.1
		c-4.4,4.8-9.4,9.6-14.9,14.3c4.4,1.1,9.2,2.1,14.7,3c0.2,0,0.4,0.1,0.6,0.1c4-4.2,7.4-8.1,10.3-11.7l-2.3,8.8
		c-1,1.2-2.1,2.4-3.2,3.6c0.8,0.1,1.5,0.2,2.2,0.2l-1,3.9c-1.5-0.2-3-0.3-4.6-0.6c-4.1,4.3-8.8,8.7-14,13.2
		c3.8,0.3,7.6,0.6,11.5,0.8c1.9-2.1,3.6-4.1,5.3-6.1l-2.6,10.2c-0.3,0-0.6,0-1,0c-3.2,3.5-6.7,7.3-10.6,11.1
		c3.2-0.2,6.2-0.4,8.9-0.7l-1,4.1c-3.7,0.3-7.8,0.6-12.3,0.8c-4.5,4.2-9.5,8.5-14.9,12.7c8.2-0.4,15.4-1.4,21.5-2.5
		c1.6-2.1,3-4.1,4.3-6l-2.6,10.2c-4.5,5.8-10,12.2-16.4,18.6c4.3-0.4,8.3-0.9,12-1.5l-1.1,4.2c-4.7,0.7-9.9,1.3-15.4,1.6
		c-7.3,6.8-15.6,13.5-25.2,19.8c2,0.2,4,0.3,6.1,0.4c2.8,0.1,5.5,0.2,8.2,0.2c5.2,0,10.1-0.3,14.9-0.7c4-5.1,7.1-9.9,9.6-14.1
		l-3.1,11.9c-0.4,0.5-0.8,1.1-1.2,1.6c0.3,0,0.5-0.1,0.8-0.1l-1.1,4.1c-1,0.1-2,0.2-3.1,0.3c-4.9,6.2-11,12.7-18.3,18.9
		c2.2,0.1,4.3,0.1,6.4,0.1c3.5,0,6.8-0.1,10.1-0.3l-3.2,12.4c-2,2.5-4.1,5.1-6.4,7.7c1.6-0.2,3.1-0.4,4.6-0.6l-1.1,4.1
		c-2.5,0.3-5,0.6-7.7,0.8c-6.8,6.7-15.1,13.2-25,18.6c5.6,0.6,10.8,0.9,15.7,0.9c1.6,0,3.1,0,4.6-0.1c5-5.6,8.6-10.9,11.1-15.1
		l-2.9,11.5c-0.8,1.1-1.7,2.2-2.6,3.3c0.6,0,1.2-0.1,1.8-0.1l-1,4.1c-1.4,0.1-2.9,0.2-4.4,0.3c-4.7,5.1-10.6,10.3-17.8,15
		c2.4,0.1,4.8,0.2,7.1,0.2c3.9,0,7.5-0.2,10.8-0.5c0.2-0.2,0.5-0.5,0.7-0.7l-1.9,7.5c-5,4.7-11.2,9.8-18.7,14.4
		c5.1,0.5,10,0.7,14.4,0.7c0.2,0,0.3,0,0.5,0l-2.6,10c-2.5,2.8-5.4,5.7-9,8.4c1.5,0.1,3,0.1,4.5,0.1c0.8,0,1.5,0,2.3,0l-1,4
		c-0.4,0-0.8,0-1.3,0h0c-3,0-6.2-0.1-9.6-0.4c-2.1,1.3-4.3,2.6-6.7,3.8c-8.1,4-15.9,6-22.9,6.9c3.7,2.3,7.9,4.6,12.6,6.5
		c3.8,1.5,7.5,2.7,11,3.6c5.8-3.3,10.5-7,14.3-10.6l-1.7,6.8c-2.1,1.7-4.4,3.4-7,5.1c1.9,0.3,3.7,0.6,5.5,0.8l-1,3.9
		c-3.1-0.3-6.3-0.9-9.6-1.6c-0.4,0.2-0.8,0.4-1.2,0.7c-6.8,3.6-13.6,5.8-19.9,7.2c3.1,2.2,6.6,4.4,10.6,6.4c3.2,1.6,6.3,2.8,9.3,3.9
		c3.5-2.6,6.3-5.4,8.6-7.9l-1.9,7.5c-0.7,0.6-1.3,1.2-2,1.8c0.5,0.1,1,0.3,1.5,0.4l-1,3.8c-1.4-0.4-2.9-0.8-4.4-1.2
		c-2.2,1.6-4.6,3.1-7.3,4.5c-3.5,1.9-7,3.3-10.3,4.4c2,1.8,4.2,3.7,6.6,5.5c3.5,2.6,6.9,4.9,10.3,6.8l-1,4
		c-3.8-2.1-7.7-4.6-11.6-7.6c-2.5-1.9-4.7-3.8-6.8-5.7l-1.9-7.3c0.4,0.4,0.8,0.8,1.2,1.2c3.8-1.1,7.8-2.6,11.8-4.7
		c1.6-0.8,3.1-1.7,4.5-2.6c-2.3-0.9-4.7-1.9-7.1-3.1c-5.5-2.8-10.2-5.9-14.1-9c-0.3,0-0.6,0.1-1,0.1l-2.1-8.1
		c1.3,1.2,2.6,2.5,4.2,3.7c6.1-1.1,12.7-3,19.5-6.2c-2.4-0.7-4.9-1.6-7.4-2.6c-6.8-2.8-12.5-6.1-17.3-9.6c-1,0-1.9,0.1-2.8,0.1
		l-2.4-9.4c1.9,1.7,4,3.5,6.4,5.3c7.6-0.5,16.8-2.3,26.2-7c0.6-0.3,1.2-0.7,1.9-1c-2.2-0.3-4.4-0.7-6.6-1.1
		c-8.4-1.7-15.8-4.2-22.1-6.9c-2.9,0.5-5.6,0.8-8.2,1l-1-3.9c0.8-0.1,1.7-0.1,2.5-0.2c-1-0.5-2-1-3-1.6l-1.4-5.3
		c3.3,1.9,7.1,3.9,11.6,5.9c6.4-1.2,13.4-3.1,20.7-6.2c1.2-0.5,2.4-1.1,3.6-1.6c-1.8-0.3-3.5-0.7-5.3-1.1c-8.3-1.9-15.7-4.3-22.3-7
		c-3.8,0.4-7.3,0.6-10.6,0.6h0l-1-4c0.3,0,0.7,0,1,0c0.9,0,1.8,0,2.7,0c-1.5-0.7-2.9-1.4-4.3-2.1l-1.3-5.2c4.1,2.2,8.8,4.5,14.1,6.7
		c8.7-1,18.6-3.4,28.8-8.3c-3.1-0.5-6.4-1-9.7-1.8c-9-2-17-4.8-23.9-7.8c-3.8,0.4-7.4,0.5-10.9,0.5c-0.4,0-0.8,0-1.2,0l-1-4
		c0.7,0,1.5,0,2.3,0c1.1,0,2.2,0,3.4-0.1c-2.4-1.2-4.5-2.4-6.6-3.6l-1.4-5.5c4.4,2.7,9.8,5.7,16.1,8.5c8.4-0.9,17.5-2.8,27-6.5
		c0.4-0.1,0.7-0.3,1.1-0.4c-1.6-0.3-3.2-0.7-4.8-1.1c-13.1-3.2-24.2-7.8-33.3-12.7c-3.2,0.3-6.2,0.5-9.1,0.6l-1-3.9
		c1.3,0,2.6-0.1,3.9-0.1c-1.6-1-3.2-2-4.7-2.9l-1.5-5.8c3.7,2.6,8.1,5.4,13.2,8.1c8.9-0.9,18.7-2.9,28.9-6.4
		c-3.7-0.9-7.4-2-11.1-3.3c-10.6-3.6-19.8-8.2-27.5-12.9c-2.4,0.4-4.7,0.7-7,1l-1-3.9c0.9-0.1,1.9-0.2,2.9-0.4
		c-1.3-0.8-2.5-1.7-3.6-2.5l-1.6-6.1c3.3,2.5,6.9,5.1,11.1,7.7c7.7-1.3,16-3.2,24.7-6.1c-14.1-4.5-26.3-10.1-36.8-15.9
		c-0.9,0.1-1.7,0.2-2.6,0.4l-2-7.6c1.7,1,3.5,2.1,5.3,3.1c8.2-1.2,17.2-3.1,26.9-6c-13.8-5.8-25.4-12.6-34.5-18.7
		c-1.1,0-2.2,0.1-3.2,0.1l-2.3-8.9c2,1.5,4.3,3.2,6.7,4.8c7.8-0.3,16.7-1.1,26.4-2.7c-16.1-6.9-28.9-15.1-38.3-22l-1.6-6.2
		c0.6,0.5,1.2,0.9,1.8,1.4c6.1,0.7,12.9,1.1,20.4,1.1c2.7,0,5.5-0.1,8.4-0.2c-9.5-5-17.8-10.4-25-15.8c-3,0.1-6,0.2-9,0.2l-1-4
		c4.9,0,9.7-0.1,14.5-0.4c-6.2-6.3-12.7-13.8-18.8-22.6c-0.7-0.5-1.4-1-2-1.6l-4.2-16c2.6,4.8,5.6,9.7,9,14.8
		c5.5,4.1,11.9,8.1,19.3,11.4c2.4,1.1,4.7,2,7,2.8c-3.4-4.4-6.9-9.2-10.2-14.5c-4.9-7.8-8.7-15.3-11.7-22.3l0.1,0
		c-10.4-10.3-18-21.2-23.5-30.8l-2.5-9.5c-1.1-3.4-2-6.7-2.7-10c5.9,14.4,21,44.6,53,64.6c13,8.1,27.2,12.7,39.6,15.2
		c12.2,2.5,22.7,3,28.8,3c2.2-0.8,4.3-1.6,6.4-2.4c28.7-11.4,51.1-27.2,64.8-44.8c9.2-11.7,14.6-24.3,15.7-36.8
		C286.9,109.9,286.9,109.3,286.9,108.5 M259.2,173.9c2-2.2,4-4.5,5.8-6.7c2.3-2.9,4.5-5.7,6.4-8.4c-1.7-0.1-3.2-0.3-4.8-0.5
		c-4.6,4.7-9.7,9.2-15.5,13.5C253.5,172.6,256,173.3,259.2,173.9 M161.2,204.9c0.6-0.1,1.2-0.2,1.8-0.4c-4.4-3.8-9.4-8.9-14.2-15.4
		l0,0c-6.5-2.5-13.1-5.6-19.5-9.6c-5.4-3.4-10.3-7.1-14.8-10.9c2.2,4.4,4.7,8.9,7.6,13.5c4.5,7.2,9.2,13.4,13.8,18.9
		C145.9,203.8,154.7,204.7,161.2,204.9 M241,191.2c5.5-4.6,10.5-9.2,15-13.9c-3.4-0.8-6.1-1.6-8.8-2.6c-3.9,2.8-8.1,5.4-12.4,7.9
		c-2.3,1.3-4.6,2.6-7,3.8C231.8,188.2,236.1,189.8,241,191.2 M215.6,208.4c8-4.4,15.2-9.2,21.7-14.2c-5.2-1.7-9.8-3.5-14.1-5.4
		c-10.2,5-21.3,9.4-33.2,13C198.3,204.5,206.8,206.7,215.6,208.4 M167.9,203.5c7.4-1.6,14.6-3.5,21.5-5.6c-5.5-0.4-12-1.2-19.1-2.6
		c-4.6-0.9-9.5-2.2-14.5-3.7C160,196.6,164.3,200.5,167.9,203.5 M123.9,209.6c4.5-0.3,8.9-0.7,13.3-1.1c-1.2-1.3-2.4-2.6-3.6-4
		c-4.3-1.3-8.7-2.9-13.3-5c-3.8-1.7-7.3-3.6-10.6-5.5C114.5,199.9,119.3,205.1,123.9,209.6 M242.9,212.5c5.5-4.5,10.4-9.1,14.7-13.4
		c-5.9-1-11.1-2.2-15.7-3.5c-6.1,4.9-12.9,9.6-20.3,14C228.5,210.8,235.6,211.8,242.9,212.5 M162,208.9c-0.2,0-0.4,0-0.5,0
		c-2.1,0.4-4.3,0.8-6.4,1.1c10.2,5,20.3,8.8,30.1,11.6c5.2-1.7,10.5-3.6,15.8-5.9c3.2-1.4,6.3-2.9,9.3-4.4c-9.2-2-18.1-4.5-26.8-7.6
		c-6.9,1.9-14,3.6-21.4,5L162,208.9 M142.1,207.9c1.4-0.2,2.8-0.3,4.2-0.5c-1.8-0.3-3.7-0.7-5.7-1.1
		C141.1,206.8,141.6,207.3,142.1,207.9 M147,229.3c9.8-0.9,20.3-2.6,31.2-5.6c-9.8-3.2-19.8-7.3-29.8-12.6l-0.1,0
		c-9,1.3-18.3,2.2-27.8,2.7C128.1,219.1,137,224.5,147,229.3 M220.9,228.3c6.4-4,12.3-8.1,17.7-12.3c-7.7-0.9-15.1-2-22.3-3.4
		c-4.4,2.4-9,4.6-13.8,6.7c-3.5,1.5-7,2.9-10.5,4.1C202.1,226,211.8,227.5,220.9,228.3 M239.6,229.2c1.8,0,3.6,0,5.4-0.1
		c4.2-4,8-7.8,11.5-11.6c-4.2-0.3-8.3-0.6-12.3-1c-5.1,4.1-10.7,8.2-16.7,12.2C231.7,229.1,235.8,229.2,239.6,229.2 M191.4,243.4
		c4.1-1.7,8.2-3.5,12.4-5.6c4-2,7.8-4,11.4-6.1c-9.5-1.1-19.6-3-30.1-6c-10.7,3.4-21.1,5.5-30.9,6.7c3.6,1.5,7.3,2.9,11.1,4.2
		C174.3,239.8,183.1,241.9,191.4,243.4 M222,246.1c1,0,2,0,3,0c5.7-4.3,10.9-8.6,15.7-12.9c-0.3,0-0.7,0-1,0
		c-5.5,0-11.5-0.2-17.8-0.8c-5.1,3.1-10.5,6.1-16.3,9c-2.2,1.1-4.5,2.2-6.7,3.2C207,245.6,214.8,246.1,222,246.1 M130.8,234
		c-5,0-9.8-0.2-14.2-0.5c9.9,6.9,22.9,14.6,39,20.9c9.1-1.9,18.8-4.5,28.9-8.2c-6.6-1.4-13.5-3.3-20.5-5.7
		c-6.3-2.1-12.2-4.6-17.7-7.1C140.9,233.8,135.7,234,130.8,234 M195.3,264.9c0.5-0.2,0.9-0.5,1.4-0.7c8.2-4.4,15.8-9.2,22.8-14.1
		c-8.5-0.1-17.8-0.8-27.6-2.5c-10.2,4.1-20,7.1-29.4,9.4c6.9,2.4,14.4,4.5,22.4,6.2C188.4,263.8,191.9,264.4,195.3,264.9
		 M222.4,266.9c3.5,0,6.8-0.1,10-0.3c6.7-6.4,12.4-12.8,17.2-18.7c-6.7,1-14.5,1.8-23.3,2c-7.4,5.5-15.5,10.8-24.3,15.8
		C209.2,266.6,216,266.9,222.4,266.9 M161.5,279.3c8.9-2.9,18.3-6.6,27.9-11.3c-1.8-0.3-3.5-0.7-5.3-1c-10.4-2.2-20-5.1-28.8-8.5
		c-10.1,2-19.4,3.1-27.6,3.6C136.9,268,148.2,274.2,161.5,279.3 M202.5,289.6c9.6-5.9,18-12.3,25.4-18.9c-1.8,0.1-3.6,0.1-5.5,0.1h0
		c-8.2,0-17-0.5-26.3-1.9c-9.9,5.2-19.5,9.2-28.6,12.5C178,285.1,189.8,288.1,202.5,289.6 M170.9,304.9c2.9-1.1,5.8-2.2,8.8-3.5
		c6.1-2.6,11.9-5.5,17.3-8.6c-13-2-25-5.4-35.7-9.4c-9.6,3.1-18.8,5.2-27.1,6.7c9.7,5.1,20.9,9.9,33.6,13.8
		C168.9,304.3,169.9,304.6,170.9,304.9 M215.9,312.7c7.4-5.9,13.6-12.1,18.7-18.2c-3.7,0.2-7.5,0.4-11.4,0.4h0
		c-2.7,0-5.5-0.1-8.4-0.2c-3.9-0.2-7.6-0.5-11.3-0.9c-6.8,4.1-14.2,7.9-22.1,11.3c-1.3,0.6-2.6,1.1-3.9,1.6
		C190.9,310.1,203.8,312,215.9,312.7 M184.5,331c2.3-0.9,4.7-2,7-3.1c7.2-3.5,13.7-7.4,19.5-11.6c-12.6-1-26-3.2-40-7.2
		c-9.1,3.3-17.8,5.5-26,7.1c6.7,3.7,14.2,7.3,22.8,10.2C173.6,328.4,179.2,329.9,184.5,331 M212.4,333.8c3.6,0,7-0.1,10.3-0.4
		c3.8-3.8,7.1-7.7,10-11.5c1.3-1.7,2.5-3.4,3.6-5.1c-2.7,0.1-5.4,0.2-8.1,0.2c-3.6,0-7.2-0.1-11-0.3c-6.9,5.4-14.8,10.4-23.9,14.8
		c-0.6,0.3-1.1,0.5-1.7,0.8C198.9,333.3,205.9,333.8,212.4,333.8 M192.7,354.9c10.1-4.8,18.6-10.9,25.6-17.3
		c-1.9,0.1-3.9,0.1-5.9,0.1h0c-8.5,0-17.7-0.7-27.4-2.6c-10.4,4.2-20.5,6.6-29.8,8c7.8,3.7,16.8,7.2,27.1,9.7
		C185.8,353.7,189.3,354.4,192.7,354.9 M197.2,375.1c7.5-4.3,13.8-9.3,18.8-14.4c-0.3,0-0.5,0-0.8,0h0c-6.7,0-14.1-0.5-21.9-1.7
		c-2.2,1-4.4,2-6.7,2.9c-7.2,2.8-14.3,4.6-21,5.8c5.1,1.9,10.7,3.6,16.8,5C187.5,373.8,192.4,374.6,197.2,375.1 M195.3,395.7
		c9-4.9,16.3-10.7,22.1-16.1c-2.1,0.1-4.2,0.2-6.4,0.2h0c-4,0-8.3-0.2-12.9-0.6c-1.5,0.9-3.1,1.7-4.8,2.5c-8.2,4-16.1,6.4-23.5,7.8
		c4.7,1.6,9.7,3.1,15.1,4.3C188.5,394.6,191.9,395.2,195.3,395.7 M198.9,415.2c6.7-4.5,11.5-9.6,15-14.1c-5.5-0.1-11.5-0.5-17.9-1.4
		c-2.8,1.5-5.6,2.9-8.7,4.2c-5.4,2.3-10.6,4-15.6,5.2c4.8,1.7,10,3.3,15.8,4.4C191.5,414.4,195.3,414.9,198.9,415.2 M284.9,101.3
		v7.3c0,0.8,0,1.3-0.1,1.6c-1,12.1-6.2,24.2-15.2,35.8c-14,17.8-36.1,33.1-64,44.1c-1.8,0.7-3.8,1.5-6,2.3c-5.4,0-15.9-0.5-28.1-2.9
		c-14.8-3-27.9-8-39-14.9c-30.5-19.1-45.8-48.1-52.2-63.7l-3.8,1.2c0.6,3,1.5,6.4,2.7,10.1l2.5,9.5l0.1,0.3l0.1,0.2
		c6.6,11.4,14.4,21.8,23.3,30.7c3.3,7.7,7.3,15.3,11.8,22.5c1.9,3,3.9,6,6,8.9l-0.3-0.1c-6.5-2.9-12.8-6.6-18.6-11
		c-3.2-4.6-6.1-9.5-8.7-14.3L87.5,154l4.2,16.1l4.2,16l0.2,0.6l0.5,0.4c0.6,0.5,1.2,0.9,1.8,1.4c4.7,6.7,10,13.2,15.8,19.4
		c-3.3,0.1-6.6,0.2-10,0.2l-2.6,0l0.6,2.5l1,4l0.4,1.5l1.6,0c2.9,0,5.7-0.1,8.4-0.2c5.8,4.3,11.9,8.3,18.2,12c-0.3,0-0.6,0-0.9,0
		c-6.5,0-13.1-0.4-19.6-1.1c-0.5-0.3-0.9-0.7-1.3-1l-4.7-3.6l1.5,5.7l1.6,6.2l0.2,0.7l0.6,0.4c10.2,7.5,21,14.1,32.4,19.4
		c-6.2,0.8-12.5,1.4-18.8,1.7c-2.1-1.4-4.1-2.9-6.1-4.4l-4.6-3.4l1.4,5.5l2.3,8.9l0.4,1.5l1.6,0c0.9,0,1.7,0,2.6-0.1
		c9.3,6.3,19.1,11.8,29.1,16.3c-6.8,1.8-13.7,3.2-20.5,4.3c-1.4-0.8-2.9-1.7-4.7-2.7l-4.2-2.5l1.2,4.7l2,7.6l0.4,1.7l1.8-0.2l0.2,0
		c0.6-0.1,1.2-0.2,1.8-0.2c9.8,5.4,20.1,10,30.6,13.7c-5.8,1.6-11.7,3-17.7,4.1c-3.5-2.2-6.9-4.6-10.3-7.1l-4.6-3.5l1.5,5.6l1.6,6.1
		l0.2,0.7l0.6,2.2l1,3.9l0.4,1.7l1.7-0.2c2.2-0.3,4.3-0.6,6.3-0.9c8.7,5.2,17.8,9.5,27.3,12.7c1.6,0.5,3.1,1,4.8,1.5
		c-7,2-14.2,3.4-21.5,4.2c-4.3-2.3-8.4-4.9-12.5-7.7l-4.4-3.1l1.4,5.2l1.5,5.8l0.2,0.6l0.6,2.4l1,3.9l0.4,1.5l1.6,0
		c3-0.1,5.8-0.3,8.6-0.5c10,5.3,20.6,9.3,31.4,12.1c-6.7,2.2-13.6,3.6-20.7,4.4c-5.3-2.4-10.5-5.1-15.4-8.1l-4.2-2.6l1.3,4.8
		l1.4,5.5l0.2,0.8l0.4,0.3l-0.4,0l0.7,2.6l1,4l0.4,1.5l1.5,0l0.4,0c0.3,0,0.5,0,0.8,0c3.5,0,7-0.2,10.5-0.5
		c7.7,3.3,15.7,5.9,23.8,7.7c1,0.2,2.1,0.5,3.2,0.7c-6.9,2.7-14.1,4.5-21.6,5.5c-4.5-1.9-9.1-4-13.4-6.4l-4-2.2l1.2,4.5l1.2,4.8
		l0.7,2.5l1,4l0.4,1.5h1.5c3.4,0,6.9-0.2,10.3-0.5c6.9,2.8,14.1,5,21.3,6.7c-5.7,2.2-11.5,3.9-17.4,5c-3.7-1.6-7.3-3.5-10.8-5.5
		l-4.1-2.4l1.2,4.6l1.2,4.8l0.6,2.3l1,3.9l0.4,1.6l1.7-0.1c2.7-0.2,5.2-0.5,7.8-0.9c7.1,3,14.5,5.2,22,6.8c0.2,0,0.4,0.1,0.5,0.1
		c-6.6,2.8-13.6,4.5-21,5c-1.9-1.5-3.8-3-5.7-4.7l-5-4.5l1.7,6.5l2.4,9.4l0.4,1.5l1.6,0c0.8,0,1.5,0,2.2,0
		c5.4,3.8,11.2,6.9,17.2,9.4c0.8,0.3,1.7,0.7,2.6,1c-4.3,1.7-8.8,3-13.4,3.8c-1.1-1-2.3-2-3.4-3l-5.1-4.9l1.8,6.9l2.1,8.1l0.4,1.7
		l1.8-0.3l0.1,0c4.3,3.3,8.9,6.3,13.8,8.7c1.1,0.6,2.3,1.1,3.5,1.6c-0.3,0.2-0.6,0.4-1,0.5c-3.3,1.7-6.7,3.2-10.3,4.2
		c-0.1-0.1-0.2-0.2-0.3-0.4l-5.3-5.4l1.9,7.3l1.9,7.3l0.2,0.6l0.4,0.4c2.3,2,4.6,4,7,5.8c3.7,2.8,7.7,5.4,11.8,7.8l2.3,1.3l0.6-2.5
		l1-4l0.4-1.5l-1.3-0.8c-3.5-2-6.9-4.3-10-6.7c-1.3-1-2.7-2.1-4-3.2c2.5-1,5-2.1,7.4-3.3c2.3-1.2,4.5-2.6,6.7-4.1
		c1.1,0.3,2.3,0.6,3.6,1l1.9,0.5l0.5-1.9l1-3.8l0.4-1.6l0.1-0.6l1.9-7.5l1.8-7l0.4-1.7l1-3.9l0.6-2.2l-2.3-0.2c-0.1,0-0.2,0-0.3,0
		c1-0.7,1.9-1.5,2.9-2.2l0.5-0.4l0.2-0.6l1.7-6.8l1.7-6.7l-5,4.7c-4.1,3.8-8.5,7.2-13.3,9.9c-3.4-0.9-6.7-2-10-3.3
		c-2.6-1-5.1-2.2-7.5-3.6c6.3-1.3,12.3-3.4,18-6.2c2.1-1.1,4.2-2.2,6.3-3.5c3.1,0.2,6.1,0.4,9.1,0.4c0.3,0,0.6,0,0.8,0l0.5,0l1.5,0
		l0.4-1.5l1-4l0.7-2.6l-2.6,0.1l-0.3,0c-0.4,0-0.7,0-1.1,0c1.8-1.6,3.5-3.4,5.1-5.2l0.3-0.4l0.1-0.5l2.6-10l0.6-2.5l-2.6,0l-0.1,0
		l-0.3,0c-2.8,0-5.6-0.1-8.4-0.3c4.9-3.4,9.6-7.2,14.1-11.4l0.4-0.4l0.1-0.6l1.9-7.5l1.9-7.4l-5.3,5.6l-0.2,0.2
		c-3.4,0.3-6.6,0.4-9.9,0.4c-0.3,0-0.7,0-1,0c4.5-3.4,8.7-7.1,12.6-11.3c1.1-0.1,2.3-0.1,3.7-0.2l1.4-0.1l0.4-1.4l1-4.1l0.7-2.7l0,0
		l0.1-0.1l0.1-0.4l2.9-11.5l1-3.9l0.3-1.3l1.1-4.1l0.2-0.9l0.9-3.5l-0.9,1.5l-1.8,0.3c1-1.2,2-2.5,3-3.8l0.3-0.3l0.1-0.4l3.2-12.4
		l0.7-2.6l-2.7,0.1c-3.6,0.2-6.9,0.3-10,0.3c-0.4,0-0.8,0-1.2,0c5.1-4.6,9.8-9.7,14.2-15.1c0.8-0.1,1.5-0.2,2.3-0.3l1.4-0.2l0.3-1.3
		l1.1-4.1l0.3-1.2l0.1-0.4l3.1-11.9l1.5-6l0.3-1.3l1.1-4.2l0.8-2.9l-3,0.5c-2.1,0.3-4.3,0.6-6.4,0.9c4.5-4.7,8.7-9.7,12.7-14.8
		l0.3-0.3l0.1-0.4l2.6-10.2l2.7-10.6l0.3-1.3l-2.8,0.3c-1.2,0.1-2.4,0.2-3.5,0.3c2.1-2.2,4.2-4.4,6.3-6.7l0,0l1.6,0.1l0.4-1.6
		l2.6-10.2l1.4-5.6l0.4-1.7l1-3.9l0.6-2.2l-0.6-0.1c0.2-0.2,0.4-0.5,0.6-0.7l0.3-0.4l0.1-0.5l2.3-8.8l0.7-2.7l0.4-1.6l1-3.9l0.6-2.4
		l-2.4-0.1c-2-0.1-3.9-0.3-5.8-0.5c0.6-0.8,1.3-1.5,1.8-2.2c2.6-3.2,5.1-6.4,7.5-9.9l0.1,0l0.5,0l1.6,0l0.4-1.5l4.4-17.1l2-7.9
		l0.1-0.2l0.2-0.6l1.6-6.4l-0.3,0.5c1.2-5.6,1.8-11.4,1.9-17.2l0-0.1l0,0v0l-0.2,0l-0.6-0.1l0.8,0c0-0.1,0-0.3,0-0.4
		c0-0.2,0-0.4,0-0.7V109l-0.3-0.5l-0.6-1L284.9,101.3z M255.5,171c4.3-3.4,8.3-6.9,11.9-10.6c0.1,0,0.2,0,0.3,0
		c-1.4,1.9-2.8,3.7-4.3,5.5c-1.6,1.9-3.2,3.8-4.9,5.8C257.4,171.5,256.4,171.3,255.5,171z M137,199.2c-4.9-5.8-9.3-11.9-13.3-18.2
		c-1-1.6-2-3.2-2.9-4.8c2.4,1.8,4.9,3.5,7.4,5c5.9,3.7,12.3,6.9,19.3,9.6c3.2,4.2,6.7,8.3,10.6,12C151,202.3,143.9,201.1,137,199.2z
		 M232.5,186.2c1.2-0.6,2.2-1.2,3.3-1.9c4-2.3,8-4.8,11.7-7.4c1.6,0.6,3.1,1.1,4.6,1.5c-3.7,3.7-7.5,7.2-11.6,10.6
		C237.8,188.1,235.2,187.2,232.5,186.2z M250,191.4c3.9-3.5,7.7-7.2,11.4-11.1c3.1,0.5,6.1,0.9,9.4,1.1l-0.9,1.1
		c-3,3.7-6.2,7.4-9.5,10.8C256.6,192.9,253.2,192.2,250,191.4z M196.7,201.8c9.4-3.1,18.3-6.8,26.6-10.8c3.3,1.5,6.5,2.8,9.8,3.9
		c-5.7,4.2-11.6,8-17.8,11.4C209,205,202.7,203.5,196.7,201.8z M168.4,201.3c-2.2-1.9-4.4-3.9-6.4-5.9c2.6,0.7,5.2,1.3,7.9,1.8
		c3,0.6,6.1,1.1,9.2,1.6C175.6,199.7,172,200.5,168.4,201.3z M227.3,208.5c5.3-3.3,10.3-6.9,15.1-10.7c3.5,1,7.2,1.8,11.1,2.5
		c-3.6,3.5-7.4,6.9-11.2,10.1C237.2,209.9,232.2,209.2,227.3,208.5z M124.7,207.5c-2.3-2.2-4.5-4.5-6.6-6.9c0.5,0.2,0.9,0.4,1.4,0.6
		c4.2,1.9,8.6,3.5,13,4.9c0.2,0.2,0.4,0.5,0.6,0.7C130.3,207.1,127.5,207.3,124.7,207.5z M253.4,211.4c3.4-3.1,6.7-6.2,9.9-9.5
		c1.2,0.2,2.4,0.3,3.6,0.4l0.2,0l-3.4,4c-1.5,1.8-3,3.6-4.6,5.3C257.2,211.6,255.3,211.5,253.4,211.4z M164,210.4
		c6.6-1.3,13.1-2.8,19.3-4.5c6.7,2.3,13.8,4.4,20.9,6.1c-1.4,0.7-2.8,1.3-4.1,1.9c-4.8,2.1-9.9,4-15,5.6c-8-2.3-15.9-5.2-23.5-8.7
		l0,0l0.3,0l2,0L164,210.4z M126.5,215.4c7.3-0.5,14.5-1.3,21.5-2.3c7.5,3.9,15.3,7.4,23.3,10.3c-7.8,1.8-15.8,3.1-23.8,3.9
		C140.2,223.8,133.2,219.8,126.5,215.4z M198.9,223c1.5-0.6,2.9-1.2,4.4-1.8c4.5-1.9,8.8-4,13.4-6.5c5.5,1,11.1,2,16.9,2.7
		c-4.2,3.1-8.6,6.1-13,8.9C213.1,225.6,205.9,224.5,198.9,223z M233.6,227.1c3.9-2.7,7.6-5.5,11.2-8.4c2.4,0.2,4.9,0.4,7.3,0.6
		c-2.6,2.7-5.2,5.3-7.9,7.9c-1.6,0-3.1,0.1-4.6,0.1C237.6,227.2,235.6,227.2,233.6,227.1z M161.9,233.4c7.9-1.3,15.7-3.2,23.3-5.5
		c7.8,2.2,15.8,3.9,23.8,5.1c-2,1.1-4.1,2.1-6.1,3.1c-3.8,1.9-7.7,3.6-11.7,5.3c-8.5-1.5-17-3.7-25.2-6.5
		C164.6,234.3,163.2,233.9,161.9,233.4z M247.5,235c3.2-0.1,6.5-0.3,9.7-0.6l-1.3,1.8c-1.2,1.8-2.5,3.5-3.8,5.3
		c-4.6,0.8-9.4,1.4-14.1,1.8C241.2,240.7,244.4,237.9,247.5,235z M206.1,243.3c0.1-0.1,0.2-0.1,0.3-0.2c5.4-2.6,10.7-5.6,15.9-8.7
		c4.3,0.4,8.7,0.6,13,0.7c-3.6,3.1-7.3,6.1-11.1,8.9c-0.8,0-1.5,0-2.3,0C216.7,244.1,211.4,243.8,206.1,243.3z M130.8,236
		c5,0,10.1-0.2,15.1-0.6c5.7,2.6,11.6,5,17.4,7c4.6,1.6,9.2,2.9,14,4.1c-7,2.3-14.3,4.3-21.5,5.8c-11.2-4.4-21.9-9.9-32-16.4
		C126.2,235.9,128.5,236,130.8,236z M169.7,257.1c7.6-2.1,15.1-4.6,22.4-7.5c7,1.2,14.1,1.9,21.2,2.2c-5.8,3.9-11.7,7.4-17.5,10.6
		c-0.3,0.1-0.5,0.3-0.8,0.4c-3.3-0.5-6.5-1.1-9.7-1.7C180.1,260,174.9,258.7,169.7,257.1z M227,252c5.9-0.2,11.9-0.6,17.8-1.3
		c-4.2,4.9-8.6,9.6-13.3,14.1c-3.1,0.2-6.2,0.2-9.2,0.2c-4.6,0-9.3-0.2-13.9-0.5C214.8,260.6,221,256.4,227,252z M133.9,263.6
		c7.1-0.7,14.2-1.7,21.2-3.1c9.1,3.4,18.4,6.2,27.9,8.2c-7,3.2-14.2,6-21.5,8.4C152.1,273.5,142.8,268.9,133.9,263.6z M173.5,281.3
		c7.8-3,15.5-6.4,22.9-10.3c8.6,1.2,17.4,1.8,25.9,1.8h0.1c-6.5,5.4-13.3,10.3-20.3,14.7C192.5,286.3,182.9,284.3,173.5,281.3z
		 M234.9,272.4c4.5-0.3,8.9-0.7,13.4-1.4l-2.4,4.1c-2.7,4.6-5.7,9-8.9,13.2c-4.8,0.4-9.3,0.6-13.8,0.6c-2.7,0-5.5-0.1-8.1-0.2
		l-0.3,0C221.8,283.8,228.6,278.3,234.9,272.4z M140.4,291c7-1.5,14-3.3,20.9-5.4c9.7,3.6,19.7,6.4,29.7,8.3c-4,2.1-8,4-12.1,5.7
		c-2.5,1.1-5.2,2.1-8.1,3.2c-0.8-0.2-1.6-0.5-2.4-0.7C158.9,299.2,149.5,295.4,140.4,291z M183.8,306.2c6.9-3,13.6-6.5,20-10.4
		c3.7,0.4,7.3,0.7,10.8,0.9c2.8,0.1,5.7,0.2,8.5,0.2c2.3,0,4.5,0,6.8-0.1c-4.6,5-9.5,9.7-14.7,13.9
		C204.6,310,194.1,308.5,183.8,306.2z M150.9,317.1c6.9-1.6,13.7-3.5,20.3-5.9c11.1,3.1,22.6,5.3,34.2,6.6
		c-4.7,3.1-9.6,5.9-14.7,8.3c-2,1-4.1,1.9-6.3,2.8c-5.3-1.1-10.6-2.6-15.7-4.3C162.6,322.5,156.6,320,150.9,317.1z M198.5,331.1
		c6.8-3.6,13.2-7.7,19.3-12.4c3.5,0.2,6.9,0.3,10.4,0.3c1.4,0,2.8,0,4.2,0c-0.4,0.6-0.9,1.2-1.3,1.7c-2.8,3.8-6,7.4-9.3,10.8
		c-3.1,0.2-6.3,0.3-9.4,0.3C207.7,331.8,203.1,331.6,198.5,331.1z M161.9,344c7.9-1.6,15.7-3.9,23.2-6.8c8.9,1.7,18.1,2.6,27.2,2.6
		c0.1,0,0.3,0,0.4,0c-6.3,5.2-13.2,9.6-20.4,13.1c-3.4-0.6-6.5-1.2-9.6-2C175.7,349.2,168.7,346.9,161.9,344z M225.4,339.2
		c1.6-0.1,3.2-0.3,4.9-0.5l-1.1,1.9c-3,5-6.4,9.8-10.3,14.2c-1.3,0-2.5,0.1-3.7,0.1c-3.1,0-6.2-0.1-9.3-0.3
		C212.9,350.1,219.4,345,225.4,339.2z M173.1,368.1c4.8-1.1,9.5-2.6,14.1-4.4c2-0.8,4-1.6,6.3-2.7c5.8,0.9,11.7,1.4,17.5,1.6
		c-4.4,3.9-9.2,7.4-14.2,10.3c-4.7-0.5-9.4-1.3-14-2.3C179.5,370,176.3,369.1,173.1,368.1z M177.3,389.7c5.8-1.6,11.4-3.7,16.8-6.3
		c1.4-0.7,2.8-1.4,4.3-2.2c4.2,0.4,8.4,0.6,12.4,0.6c0.3,0,0.7,0,1,0c-5.4,4.5-11.1,8.5-17,11.8c-3.3-0.5-6.5-1.1-9.6-1.8
		C182.7,391.2,180,390.5,177.3,389.7z M178.6,409.3c3.2-1,6.4-2.2,9.5-3.5c2.7-1.2,5.5-2.5,8.3-3.9c4.4,0.6,8.9,1,13.4,1.2
		c-3.4,3.8-7.2,7.2-11.4,10.1c-3.5-0.4-7-0.9-10.5-1.6C184.8,411,181.7,410.2,178.6,409.3z M178.3,453.1c5.6-1.5,10.9-3.7,16-6.3
		c0.2-0.1,0.4-0.2,0.6-0.3c2.9,0.6,6,1.1,9,1.5l1.2,0.1l-4.7,5.2c-2.3,2.5-4.8,4.9-7.4,7c-2.8-1-5.5-2.1-8-3.4
		C182.7,455.7,180.4,454.4,178.3,453.1z"/>
	<path class="st0" d="M194.1,194.7c-4.1-0.6-4.2-0.8-4.5-1.3c-1.9-3.8-3.8-7.7-5.7-11.7c-0.7,0-1.4,0-2.1,0c-2.7,0-5.5,0.2-8.2,0.5
		c1.5,2.7,3,5.3,4.5,7.9l0.7,1.3l-1.5,0.2c-0.1,0-1.3,0.2-2.3,0.2c-0.9,0-1.8-0.1-2.2-0.8c-1.5-2.6-3-5.3-4.5-7.9
		c-4.5,0.9-8.9,2.3-13.1,4.1l-0.2,0.1l-0.3,0c-0.2,0-0.7,0-1.9-1c-1.2-0.2-2.9-0.7-3.6-1.6c-3.4-4.9-6.7-10-10-15.1
		c-3.4,1.6-6.6,3.3-9.7,5.2l-0.2,0.2l-0.3,0c-0.3,0-0.9,0-3.2-2.2l-0.9-0.9l1.1-0.7c3.4-2.2,7-4.2,10.7-5.9c-3-4.9-6-9.9-8.9-14.8
		c-4.3,3.1-8.1,6.6-11.2,10.3l-0.1,0.2c-0.3,0.6-1,0.7-2,0.7c-1.4,0-3.1-0.2-3.5-1l-0.3-0.5c-1.7-2.7-3.3-5.5-4.9-8.2
		c-1.2-2.1-2.5-4.3-3.7-6.6c-0.3,0.4-0.6,0.9-0.9,1.3l-0.6,0.9l-0.8-0.7c-2.6-2.1-3-2.5-2.4-3.4c0.7-1,1.4-2,2.2-3
		c-2.9-5.6-5.7-11.3-8.4-17c-1,1.4-2,2.7-2.9,4.1l-0.7,1l-0.9-0.8c-2.3-2.1-2.8-2.8-2.2-3.6c1.4-2,2.8-3.9,4.3-5.9
		c-1.2-2.6-2.3-5.2-3.4-7.8c-1.1,1.7-2.1,3.4-3.1,5.1l-0.2,0.3l-0.3,0.1c-0.1,0-0.3,0.1-0.4,0.1c-0.4,0-0.8-0.4-2.1-1.9
		c-0.4-0.5-1.1-1.4-0.7-2.1c1.5-2.5,2.9-4.9,4.5-7.3c-1.7-4.2-3.3-8.5-4.8-12.8l-0.3-0.9l4.7-1.7l0.3,0.9c1.1,3.1,2.3,6.3,3.5,9.4
		c3-4.4,6.3-8.6,9.6-12.6c-2.6-6.2-5.2-12.6-7.6-18.8l-0.4-0.9l4.7-1.8l0.4,0.9c2.1,5.4,4.3,10.9,6.6,16.3c2.3-2.6,4.6-5.1,7-7.4
		c2.5-2.5,5.1-5,7.8-7.3c-2.9-7.4-5.7-15-8.3-22.5l-0.3-0.9l4.7-1.7l0.3,0.9c2.4,6.9,5,13.8,7.7,20.7c5.1-4.1,10.4-7.8,15.8-10.9
		c-2.4-8-4.7-16-6.9-23.8l-0.3-1l4.8-1.3l0.3,1c2,7.5,4.2,15.1,6.5,22.7c5.2-2.7,10.5-5,15.9-6.7c-2.4-7.9-4.8-16-7.1-23.9l-0.3-1
		l4.8-1.4l0.3,1c2.3,7.9,4.7,16,7.1,23.8c3.1-0.9,6.3-1.6,9.4-2.1c2.3-0.4,4.8-0.8,7.7-1.1c-3.1-8.1-6.4-16.1-9.6-23.9l-0.4-0.9
		l4.6-1.9l0.4,0.9c3.4,8.3,6.9,16.8,10.2,25.4c1.4-0.1,2.7-0.1,3.9-0.1c6,0,12,0.6,17.8,1.9c-3.8-8.8-7.8-17.5-12.1-26l-0.5-0.9
		l4.5-2.3l0.5,0.9c4.9,9.6,9.5,19.7,13.8,29.8c0.8,0.2,1.5,0.4,2.3,0.7c6.6,2.2,13.1,5.2,19.2,9c-3.4-10.1-7.2-20.1-11.3-29.9
		l-0.4-0.9l4.6-1.9l0.4,0.9c5,11.9,9.5,24.2,13.4,36.5c2.1,1.6,4.1,3.2,6.1,4.9c5.1,4.5,10,9.6,14.6,15.3c-0.7-2.8-1.5-5.6-2.2-8.3
		c-2.9-10.2-6.5-20.4-10.5-30.3l-0.4-0.9l4.6-1.9l0.4,0.9c4.1,10,7.7,20.4,10.7,30.8c1.8,6.5,3.5,13.2,5,20l0,0.1
		c9,13.5,14.7,26.6,17.9,35.2c0.3,0.9-1.7,4.9-1.7,4.9c-0.3,0.4-0.6,0.5-0.9,0.5l-0.7,0l-0.2-0.7c-2-5.7-5.5-14.7-11-24.8
		c-0.2-0.4-0.5-0.9-0.7-1.4c1.5,9,2.5,18.2,3.1,27.2c1.9,4,3.2,7.3,4,9.3c0.1,0.4,0.6,1.5-2.5,3.8l-0.8,0.6c0,0.4,0,0.9,0,1.3
		c0,0.4,0,1.4-3.5,3.2l-1.4,0.7l0-1.6c0-5.3-0.2-10.7-0.6-16.1c-1.6-3.3-3.3-6.5-5.1-9.6c-3.6-6.1-7.5-11.8-11.8-17
		c2.8,13.6,4.9,27.4,6.4,41.1c2.5,3.3,4.8,6.7,6.9,10.2c0.2,0.3,0.3,0.8-0.1,1.6c-0.3,0.6-1.8,2.3-2.8,2.3h-0.6l-0.3-0.5
		c-0.7-1.1-1.4-2.3-2.1-3.4c0.2,2,0.3,3.9,0.5,5.8c0,0.4,0.1,1.4-3.4,3.3l-1.4,0.8l-0.1-1.6c-0.4-5.5-0.8-11.1-1.4-16.6
		c-4.7-6.1-10-11.8-15.8-16.8c1.4,7.6,2.7,15.3,3.7,23c6.5,5.7,10.3,10.6,11.6,12.6l0.6,0.8l-4.1,2.9l-0.6-0.8
		c-0.8-1.2-3-4.1-6.6-7.7c0.5,4.1,0.9,8.3,1.2,12.3c0.1,0.7-0.1,0.9-3.4,2.7l-1.3,0.7l-0.1-1.5c-0.5-6.3-1.2-12.9-2.1-19.3
		c-1.2-1-2.3-1.9-3.5-2.8c-4.4-3.3-9.2-6.2-14.2-8.6c2.4,8.4,4.8,16.9,7,25.3c3.6,1.9,7.1,4.1,10.4,6.4l1,0.7l-0.9,0.8
		c-2.4,2.2-2.8,2.2-3.2,2.2h-0.3l-0.3-0.2c-1.6-1.1-3.2-2.2-4.9-3.2c0.4,1.6,0.8,3.2,1.2,4.8c0.3,1-0.5,1.3-3.4,2.5l-1.1,0.4
		l-0.3-1.1c-0.8-3.3-1.7-6.6-2.6-10c-4.2-2.1-8.5-4-13-5.6c-1.6-0.6-3.4-1.2-5.5-1.8c2,5.2,4,10.5,6.1,15.7c2.7,1,5.3,2.2,7.8,3.5
		l1.1,0.6l-0.8,0.9c-2.1,2.6-2.6,2.6-3,2.6h-0.2l-0.2-0.1c-0.7-0.3-1.3-0.7-2-1l0.5,1.3l-0.3,0.5c-0.4,0.6-3.1,1.6-3.5,1.6h-0.7
		l-0.3-0.6c-0.7-1.8-1.4-3.6-2.1-5.3c-4.6-1.6-9.4-2.7-14.3-3.3c1.8,3.8,3.6,7.5,5.4,11.1l0.8,1.7L194.1,194.7z M144.2,167.5
		c3.2,5,6.5,10,9.8,14.8c3.8-1.6,7.9-2.9,12-3.8c-2.7-5-5.5-10.1-8.1-15.1C153.2,164.4,148.6,165.8,144.2,167.5z M187.3,176.9
		c4.9,0.4,9.8,1.2,14.5,2.5c-2-5-3.9-10.2-5.9-15.3c-5.1-1.2-10.4-2-15.5-2.3C182.6,166.8,184.9,171.9,187.3,176.9z M163.1,162.5
		c2.7,5.1,5.4,10.1,8.1,15c3.5-0.5,7-0.8,10.5-0.8c-2.3-5-4.7-10.1-6.9-15.1c-1.3,0-2.7,0-4,0.1
		C168.2,161.9,165.7,162.1,163.1,162.5z M199.6,159.9c4.1,1.1,7.5,2.3,9.4,2.9c3.3,1.1,6.5,2.4,9.6,3.9c-2.3-8.4-4.6-16.8-7-24.9
		c-6.6-2.6-13.5-4.3-20.7-5.3C193.7,144.4,196.7,152.2,199.6,159.9z M132.2,147.7c3,5.2,6.1,10.4,9.3,15.5c4.5-1.8,9.2-3.3,14-4.4
		c-2.9-5.6-5.7-11.2-8.4-16.6l-0.7-1.3C141.3,142.7,136.5,145,132.2,147.7z M178,156.7c5.2,0.2,10.5,0.8,15.7,1.9
		c-2.8-7.4-5.6-15-8.3-22.5c-2.4-0.2-4.8-0.3-7.2-0.3c-2.9,0-5.9,0.1-9,0.4C172.1,143,175,149.9,178,156.7z M151.6,140
		c2.9,5.8,5.9,11.8,9,17.8c3.3-0.6,6.6-0.9,9.8-1.1c0.7,0,1.4-0.1,2.1-0.1c-2.9-6.6-5.7-13.3-8.5-19.9c-5.4,0.8-9.8,1.8-12.8,2.6
		L151.6,140z M105.8,141.1c1.6,2.9,3.1,5.7,4.7,8.4c1.2,2.1,2.5,4.3,3.8,6.5c3.2-3.6,7-6.9,11.2-9.9c-3-5.3-6-10.7-8.8-16.1
		l-0.1-0.2C112.7,133.3,109.1,137.1,105.8,141.1z M215.7,138.1c6.6,2.8,12.8,6.3,18.5,10.5c-1.1-7.8-2.5-15.6-4.1-23.2
		c-2-1.5-3.9-2.8-5.8-4.1c-4.6-3-10.1-6.6-16.8-9.8c0.3,0.8,0.5,1.6,0.8,2.4C210.8,121.8,213.3,129.9,215.7,138.1z M121.1,127.7
		c2.7,5.2,5.6,10.5,8.6,15.7c4.5-2.7,9.4-5.1,14.6-7c-3.1-6.5-6.2-13.1-9.2-19.6c-1,0.6-2,1.1-2.8,1.6c-4.1,2.4-8.1,5.1-11.8,8.1
		L121.1,127.7z M234.6,122.6c5.9,4.6,11.3,9.7,16.3,15.3c-1.7-13.8-4.2-27.6-7.2-41.2c-3.1-3.1-6.2-5.9-9.4-8.3
		c-3.3-2.5-6.7-4.8-10.3-6.7c0.7,2.1,1.2,3.9,1.8,5.8C229.2,98.9,232.2,110.7,234.6,122.6z M94.9,119c2.6,5.8,5.4,11.6,8.4,17.2
		c3.3-3.9,7-7.6,11-11c-3-5.9-6-11.8-8.8-17.8C101.7,111.1,98.2,115,94.9,119z M189,131.3c0.3,0,0.6,0.1,0.9,0.1
		c6.8,0.8,13.5,2.3,19.9,4.5c-2.1-7.1-4.2-13.8-6.2-20.3c-0.7-2.2-1.4-4.3-2.1-6.5c-6.6-2.4-13.2-3.9-20.1-4.3
		c-0.5,0-1.1-0.1-1.7-0.1c2.2,6.5,4.1,12,6,17.3C186.8,125.1,187.9,128.2,189,131.3z M139.5,114.4c3.1,6.8,6.3,13.7,9.6,20.4
		c3-0.9,7.5-2,13.1-2.8c-1.1-2.8-2.3-5.7-3.4-8.6c-1.9-4.8-3.7-9.7-5.7-14.8C148.6,110.1,144.1,112,139.5,114.4z M157.9,107.1
		c1.9,5,3.7,9.8,5.5,14.5c1.2,3.2,2.5,6.4,3.9,9.7c3.6-0.4,7.3-0.6,11-0.6c1.7,0,3.5,0,5.3,0.1c-0.9-2.4-1.7-4.9-2.6-7.3
		c-2-5.7-4.1-11.8-6.6-18.9C168.9,104.8,163.3,105.7,157.9,107.1z M109.3,103.8c2.8,6.1,5.8,12.2,8.9,18.2c3.7-2.9,7.6-5.6,11.6-7.9
		c1-0.6,2.1-1.2,3.3-1.9c-3-6.7-5.9-13.4-8.7-20.1C119.1,95.6,114,99.5,109.3,103.8z M205.5,105.2c8.8,3.6,15.9,8.2,21.6,11.9
		c0.5,0.3,1,0.7,1.5,1c-2.2-9.9-4.8-19.7-7.6-29.3c-1-3.4-2.1-6.9-3.2-10.3c-4.4-2-9-3.5-13.7-4.6c-3.2-0.7-6.5-1.3-9.8-1.6
		C198.2,83.2,201.9,94.3,205.5,105.2z M248.3,94.2c3.9,4,7.5,8.3,10.8,12.9c2.5,3.4,4.9,7.1,7.1,10.8c-1-9.3-2.5-18.6-4.4-27.8
		c-6.3-9.3-13.2-17.3-20.7-23.8l-0.2-0.1c1.9,6.4,3.7,12.8,5.3,19.3C246.9,88.2,247.6,91,248.3,94.2z M89.1,105.4
		c1.2,2.8,2.3,5.7,3.6,8.5c3.3-4,6.9-7.8,10.6-11.3c-1.6-3.4-3.1-6.8-4.6-10.2C95.3,96.6,92.1,100.9,89.1,105.4z M128.7,89.4
		c2.8,6.8,5.8,13.6,8.8,20.4c4.7-2.4,9.2-4.4,13.9-5.9c-2.7-7.3-5.3-14.7-7.7-22C138.5,84,133.5,86.5,128.7,89.4z M177.9,99.6
		c1.3,0,2.5,0.1,3.7,0.1c6.1,0.4,12,1.5,17.8,3.3c-3.4-10.4-7-20.8-10.7-31c-0.7,0-1.5,0-2.2,0c-5.6,0-11.4,0.6-17.3,1.7
		C172.1,82.3,175,91,177.9,99.6z M148.2,80c2.5,7.5,5.2,15,7.9,22.4c5.5-1.5,11-2.4,16.6-2.7c-2.8-8.3-5.6-16.7-8.2-24.9
		c-6.3,1.6-11.6,3.5-15.1,4.7C149,79.7,148.6,79.9,148.2,80z M102.2,88.1c1.6,3.7,3.2,7.3,4.9,10.9c4.9-4.3,10-8.2,15.4-11.7
		c-1.9-4.7-3.8-9.4-5.7-14.1c-2.1,1.9-4.2,3.8-6.2,5.8C107.7,81.9,105,84.9,102.2,88.1z M221.9,74.9c5.4,2.6,10.6,5.8,15.5,9.5
		c1.4,1.1,2.9,2.3,4.3,3.5c-0.1-0.4-0.2-0.9-0.3-1.3c-2.2-8.7-4.6-17.4-7.3-26c-6.8-4.9-14-8.7-21.5-11.4
		C215.9,57.7,219,66.3,221.9,74.9z M120.8,69.8c1.9,5,3.9,10,6,14.9c4.9-2.9,10-5.5,15.3-7.6c-2-6.1-4-12.2-5.8-18.2
		C131,62.1,125.8,65.7,120.8,69.8z M140.7,56.4c1.9,6.2,3.9,12.5,6,18.8c0.3-0.1,0.7-0.2,1-0.4c3.6-1.3,8.9-3.2,15.3-4.8
		c-2.1-6.5-4.2-13.2-6.4-20.5C151.2,51.4,145.8,53.7,140.7,56.4z M192.5,67.2c4.3,0.3,8.6,0.9,12.8,1.9c3.5,0.8,7,1.9,10.5,3.2
		c-2.9-8.4-6-16.7-9.4-24.9c-6.6-1.7-13.4-2.6-20.2-2.6c-0.6,0-1.3,0-2,0C186.9,52.2,189.7,59.7,192.5,67.2z M161.3,48.2
		c2.2,7.3,4.4,14.1,6.5,20.8c6.4-1.3,12.7-2,18.8-2c0.1,0,0.3,0,0.4,0c-2.7-7.4-5.4-14.7-8.2-22c-3.4,0.3-6.3,0.8-8.8,1.2
		C167.2,46.7,164.2,47.4,161.3,48.2z"/>
	<path class="st1" d="M195.4,13.9c4.6,8.9,9.3,19,13.9,30.2c0.9,0.3,1.8,0.5,2.7,0.8c7.8,2.6,14.9,6.2,21.3,10.5
		c-3.9-11.9-8.1-22.9-12.2-32.7v0l2.8-1.2c4.6,10.9,9.2,23.2,13.5,36.7c2.2,1.6,4.3,3.3,6.3,5.1c6.7,5.8,12.4,12.3,17.3,18.9
		c-1-4.2-2.1-8.5-3.4-12.9c-3.2-11.2-6.8-21.3-10.5-30.4l2.8-1.1c3.8,9.2,7.4,19.5,10.6,30.7c2,6.9,3.6,13.6,5,20.1l0.1,0.2
		c9.4,14.2,15.1,27.8,17.8,35c0.1,0.2-1.5,4.1-1.7,4.1l0,0c-1.4-4.1-5-13.7-11.1-24.9c-1.1-2-2.3-4.1-3.6-6.2
		c2.2,12,3.4,23,4.1,32.9c2,4.1,3.3,7.4,4,9.4c0.3,0.8-2.2,2.7-2.2,2.7c-0.2-0.6-0.7-1.9-1.4-3.6c0.1,2.2,0.1,4.3,0.2,6.4
		c0,0.8-3,2.3-3,2.3c0-5-0.2-10.5-0.6-16.4c-1.4-2.9-3.1-6.3-5.2-9.8c-3.7-6.3-8.5-13.4-14.5-20.1c3.5,16.3,5.7,31.4,7.2,45
		c2.8,3.7,5.1,7.2,7,10.3c0.3,0.5-1.7,2.4-2,2.4l-0.1,0c-1.2-2.1-2.7-4.3-4.3-6.7c0.3,3.3,0.6,6.6,0.8,9.8c0.1,0.7-2.8,2.3-2.8,2.3
		c-0.3-5.3-0.8-11-1.4-16.9c-4.6-6.1-10.6-12.7-18.3-19c1.8,9.2,3.2,17.9,4.3,26c6.9,6,10.8,11.2,11.8,12.6l-2.4,1.7
		c-0.8-1.1-3.7-5-8.7-9.8c0.6,5.3,1.2,10.3,1.6,15c0,0.1-2.9,1.7-2.9,1.7c-0.5-6.1-1.2-12.7-2.1-19.8c-1.2-1-2.5-2-3.9-3.1
		c-4.5-3.4-9.9-6.7-16.3-9.6c2.7,9.5,5.3,18.7,7.7,27.9c4.3,2.3,7.9,4.6,10.7,6.6c0,0-2.1,1.9-2.5,1.9l0,0c-2-1.4-4.4-2.9-7.1-4.4
		c0.6,2.4,1.2,4.8,1.9,7.2c0,0.2-2.8,1.3-2.8,1.3c-0.9-3.4-1.8-6.9-2.7-10.4c-3.9-2-8.4-4.1-13.5-5.8c-2-0.7-4.5-1.6-7.5-2.4
		c2.3,6.1,4.6,12.1,7,18c3.4,1.3,6.1,2.6,8.1,3.6c0,0-1.8,2.2-2.2,2.2l0,0c-1.2-0.6-2.7-1.3-4.3-2c0.4,1,0.8,2.1,1.2,3.1
		c0.1,0.2-2.3,1.2-2.7,1.2l0,0c-0.8-1.9-1.5-3.8-2.3-5.8c-4.5-1.6-10.2-3.1-16.7-3.7c2.1,4.3,4.1,8.6,6.2,12.7c0,0-3.6-0.5-3.7-0.7
		c-2-4-3.9-8.1-5.9-12.2l-0.2,0c-0.8,0-1.7,0-2.5,0c-3.5,0-6.8,0.3-9.8,0.7c1.7,3.1,3.5,6.2,5.2,9.2c0,0-1.2,0.2-2.2,0.2
		c-0.6,0-1.2-0.1-1.3-0.3c-1.6-2.8-3.2-5.7-4.8-8.6c-6,1.2-10.8,2.9-14,4.3l-0.1,0c-0.4,0-1.5-1-1.5-1s-2.7-0.4-3.2-1.2
		c-3.4-5-6.9-10.3-10.4-15.8c-4.4,2-8,4-10.6,5.7l-0.1,0c-0.5,0-2.5-1.9-2.5-1.9c2.7-1.8,6.7-4.1,11.6-6.3
		c-3.3-5.3-6.7-10.9-10-16.7c-6,4.2-10.1,8.4-12.5,11.4c0.1,0.2-0.4,0.3-1.1,0.3c-1.2,0-2.8-0.2-2.6-0.5c-1.7-2.8-3.4-5.7-5.2-8.7
		c-1.5-2.7-3-5.3-4.4-7.9c-0.7,0.9-1.3,1.8-1.9,2.6c0,0-2.3-1.9-2.2-2c0.8-1.1,1.6-2.2,2.6-3.4c-3.4-6.5-6.6-12.9-9.4-19.1
		c-1.6,2.1-2.9,3.9-3.9,5.5c0,0-2.2-2.1-2.1-2.3c1.2-1.8,2.8-3.9,4.6-6.3c-1.5-3.4-3-6.8-4.3-10.1c-1.8,2.7-3.1,5.1-4.1,6.8v0
		c0,0-2.2-2.2-2-2.5c1.2-2,2.8-4.6,4.8-7.7c-1.8-4.6-3.5-9-5-13.2v0l2.8-1c1.3,3.6,2.7,7.4,4.2,11.2c3-4.3,6.6-9.3,11-14.5
		c-2.8-6.7-5.4-13.1-7.8-19.3l2.8-1.1c2.2,5.7,4.6,11.7,7.2,17.8c2.5-2.8,5.1-5.7,8-8.6c2.6-2.6,5.4-5.2,8.3-7.7
		c-3-7.9-5.9-15.6-8.6-23.1v0l2.8-1c2.5,7.2,5.3,14.5,8.2,22c5.3-4.4,11.1-8.5,17.4-12.1c-2.5-8.4-4.9-16.6-7.1-24.6v0l2.9-0.8
		c2.1,7.7,4.4,15.7,6.9,23.9c5.5-3,11.5-5.5,17.8-7.5c-2.5-8.4-5-16.6-7.4-24.8l2.9-0.8c2.4,8.2,4.8,16.4,7.4,24.8
		c3.3-0.9,6.7-1.7,10.2-2.3c2.2-0.4,5.3-0.9,9-1.2c-3.4-8.6-6.7-17-10.1-25.2l2.8-1.1c3.5,8.4,7,17.1,10.5,26.1
		c1.5-0.1,3-0.1,4.6-0.1h0h0c5.7,0,12.3,0.6,19.5,2.3c-4.3-10.2-8.7-19.5-12.9-27.8L195.4,13.9 M217.3,74
		c-3.3-9.8-6.7-18.9-10.3-27.5c-7.8-2.1-14.9-2.8-21-2.8c-1.2,0-2.3,0-3.5,0.1c3.1,7.9,6.1,16,9.1,24.4c4.3,0.3,8.7,0.8,13.3,1.9
		C209.3,71.1,213.4,72.4,217.3,74 M167.2,70.1c5.8-1.2,12.4-2.1,19.5-2.1c0.6,0,1.2,0,1.8,0c-3-8.2-6-16.2-9-24
		c-4,0.3-7.3,0.8-9.6,1.2c-3.4,0.6-6.6,1.3-9.8,2.2C162.4,55,164.7,62.5,167.2,70.1 M243.4,90.8c-0.3-1.5-0.7-2.9-1.1-4.4
		c-2.3-9.2-4.8-18-7.4-26.3c-7-5.1-14.9-9.4-23.8-12.3c-0.1,0-0.2-0.1-0.3-0.1c3.5,8.7,7,18.1,10.3,28c5.7,2.7,10.9,6,15.7,9.6
		C239.1,87,241.3,88.9,243.4,90.8 M146,76.6c0.6-0.2,1.3-0.5,1.9-0.7c3.9-1.4,9.5-3.4,16.2-5c-2.4-7.6-4.7-15-7-22.5
		c-6.3,2-12.2,4.6-17.7,7.6C141.5,62.7,143.7,69.6,146,76.6 M126.3,86.2c5.2-3.1,10.8-6,17-8.5c-2.3-6.9-4.4-13.6-6.5-20.2
		c-6.2,3.6-12,7.7-17.2,12.1C121.7,75,123.9,80.6,126.3,86.2 M267.7,122.6c-0.9-10-2.5-21-5-32.8c-5.6-8.4-12.6-16.8-21-24.2
		c-0.9-0.8-1.8-1.6-2.7-2.3c2.2,7.1,4.3,14.6,6.2,22.4c0.8,3,1.5,6.1,2.1,9c4.1,4.2,7.8,8.6,10.9,13
		C262.1,112.9,265.2,118,267.7,122.6 M201.1,104.7c-3.8-11.5-7.6-22.7-11.5-33.6c-1,0-2-0.1-2.9-0.1c-6.7,0-13,0.8-18.6,2
		c2.9,9.1,6,18.3,9.1,27.6c1.4,0,2.9,0.1,4.4,0.1C188.9,101.2,195.3,102.7,201.1,104.7 M230.1,120.4c-2.2-10.1-4.9-20.8-8.2-31.9
		c-1.1-3.7-2.2-7.2-3.3-10.7c-4.4-2-9.2-3.6-14.3-4.8c-3.9-0.9-7.8-1.5-11.5-1.7c4,11.2,8,22.8,11.9,34.7c8.9,3.6,16.1,8.2,21.8,12
		C227.7,118.8,228.9,119.6,230.1,120.4 M106.7,100.7c4.9-4.4,10.5-8.8,16.9-12.9c-2.3-5.5-4.4-10.9-6.5-16.2c-2.6,2.2-5,4.5-7.3,6.8
		c-3.2,3.2-6.1,6.4-8.8,9.5C102.9,92.1,104.8,96.4,106.7,100.7 M155.5,103.6c5.6-1.6,11.8-2.7,18.6-3c-3.1-9.1-6.1-18.1-8.9-27
		c-6.7,1.6-12.2,3.6-16.1,5c-0.7,0.2-1.3,0.5-2,0.8C149.7,87.3,152.5,95.4,155.5,103.6 M252.3,141c-1.6-13.7-4.1-28.7-7.7-44.8
		c-3-3-6.2-5.9-9.7-8.6c-3.9-3-8-5.7-12.6-8c0.8,2.7,1.7,5.3,2.5,8.1c3.7,12.4,6.6,24.3,8.9,35.5C241.3,129,247.4,135.2,252.3,141
		 M137,111.2c4.2-2.2,9.5-4.7,15.6-6.7c-3-8.1-5.8-16.1-8.4-24c-6.1,2.5-11.7,5.4-16.8,8.5C130.5,96.3,133.6,103.7,137,111.2
		 M92.4,115.8c3.2-4,7.2-8.4,12-13c-1.9-4.2-3.8-8.3-5.5-12.3c-4.4,5.4-8.1,10.4-11,14.8C89.3,108.7,90.8,112.2,92.4,115.8
		 M117.8,123.5c3.7-2.9,7.8-5.9,12.4-8.6c1.2-0.7,2.5-1.5,4.1-2.3c-3.3-7.4-6.5-14.8-9.5-22c-6.4,4.1-12,8.6-16.8,12.9
		C111.1,110.1,114.3,116.7,117.8,123.5 M211.3,137.5c-2.2-7.3-4.4-14.7-6.8-22.2c-0.7-2.3-1.5-4.7-2.2-7c-6.1-2.3-13-4-20.8-4.5
		c-1.1-0.1-2.1-0.1-3.2-0.1c2.1,6.2,4.2,12.4,6.5,18.6c1.2,3.4,2.4,6.7,3.6,10c0.5,0.1,1,0.1,1.5,0.2
		C197.8,133.3,205,135.1,211.3,137.5 M166.6,132.4c3.5-0.4,7.4-0.6,11.6-0.6c2.2,0,4.4,0.1,6.8,0.2c-1-2.9-2.1-5.8-3.1-8.7
		c-2.3-6.6-4.6-13.1-6.8-19.6c-6.8,0.2-13,1.2-18.5,2.8c1.9,5.1,3.9,10.3,5.9,15.5C163.8,125.5,165.2,128.9,166.6,132.4
		 M103.1,138.1c3.2-3.9,7.3-8.2,12.4-12.6c-3.5-6.7-6.7-13.3-9.7-19.8c-4.9,4.7-8.9,9.2-12,13.2C96.5,125.1,99.6,131.5,103.1,138.1
		 M148.6,136c2.9-0.9,8.1-2.3,15-3.2c-1.3-3.2-2.6-6.5-3.9-9.7c-2.1-5.3-4.1-10.5-6-15.7c-6.1,1.9-11.3,4.4-15.5,6.6
		C141.5,121.2,144.9,128.5,148.6,136 M235.6,150.9c-1.2-8.2-2.6-16.9-4.5-26.1c-2-1.5-4-2.9-6.2-4.4c-5.2-3.4-11.4-7.5-19-10.8
		c0.5,1.5,1,3,1.5,4.6c2.6,8.3,5.1,16.5,7.5,24.5c7.7,3.2,14.1,7.1,19.2,11C234.6,150.2,235.1,150.6,235.6,150.9 M129.3,144.7
		c4.5-2.8,9.9-5.5,16.4-7.8c-3.5-7.3-6.9-14.5-10.1-21.6c-1.4,0.8-2.7,1.5-3.8,2.2c-4.7,2.8-8.9,5.7-12.6,8.7c0.3,0.6,0.6,1.2,1,1.9
		C123.2,133.9,126.3,139.4,129.3,144.7 M114.2,157.7c2.6-3.1,6.7-7.2,12.6-11.3c-3.1-5.4-6.2-11-9.2-16.8c-0.2-0.4-0.4-0.9-0.7-1.3
		c-5.1,4.5-9.2,8.9-12.3,12.7c1.6,3,3.3,6,5,9C111.1,152.6,112.6,155.2,114.2,157.7 M195.3,159.9c-3.1-8.2-6.1-16.4-9.2-24.8
		c-2.7-0.2-5.3-0.3-7.9-0.3c-3.7,0-7.2,0.2-10.4,0.5c3.2,7.7,6.3,15.1,9.5,22.4C184.1,157.8,190.2,158.7,195.3,159.9 M220.1,168.6
		c-2.4-9-5-18.2-7.7-27.5c-6.7-2.6-14.3-4.7-22.9-5.7l0,0c3.1,8.6,6.2,17.1,9.4,25.4c4,1.1,7.3,2.2,9.8,3.1
		C212.8,165.3,216.7,166.9,220.1,168.6 M160.1,158.9c3.3-0.6,6.8-1,10.4-1.2c1.2-0.1,2.4-0.1,3.6-0.1c-3.1-7.1-6.3-14.5-9.3-22
		c-6.7,0.9-11.9,2.2-14.8,3.1c0.3,0.6,0.6,1.2,0.9,1.8C153.8,146.8,156.9,152.9,160.1,158.9 M141.1,164.4c4.6-1.9,9.9-3.7,15.9-4.9
		c-3-5.8-6-11.7-9-17.7c-0.4-0.7-0.7-1.4-1-2.1c-6.4,2.2-11.8,4.9-16.2,7.7C134.2,153.3,137.7,159,141.1,164.4 M170.6,178.6
		c3.5-0.6,7.2-0.9,11.3-0.9c0.4,0,0.8,0,1.3,0c-2.6-5.6-5.2-11.2-7.8-17.1l-0.2,0c-1.5,0-3,0-4.5,0.1c-3.2,0.2-6.2,0.5-9.1,1
		C164.6,167.5,167.6,173.1,170.6,178.6 M203.4,181c-2.3-5.8-4.6-11.7-6.8-17.7c-5-1.2-11-2.3-17.8-2.6c2.6,5.9,5.3,11.6,7.9,17.2
		C193,178.3,198.7,179.5,203.4,181 M153.6,183.6c3.2-1.4,7.9-3.1,13.9-4.4c-3-5.5-6.1-11.1-9.1-16.9c-5.9,1.2-11.2,2.9-15.7,4.7
		C146.4,172.8,150,178.3,153.6,183.6 M196.3,11.2l-1.8,0.9l-2.7,1.4l-1.8,0.9l0.9,1.8c4,7.9,7.8,16,11.4,24.1
		c-5.3-1-10.7-1.6-16.2-1.6c-1.1,0-2.1,0-3.3,0.1c-3.3-8.4-6.6-16.7-10-24.8l-0.8-1.8l-1.8,0.8l-2.8,1.1l-1.8,0.8l0.8,1.8
		c3.1,7.4,6.1,15,9.1,22.7c-2.4,0.3-4.5,0.6-6.5,1c-2.8,0.5-5.7,1.1-8.5,1.8c-2.3-7.6-4.6-15.3-6.8-22.9l-0.6-1.9l-1.9,0.6l-2.9,0.8
		l-1.9,0.6l0.6,1.9c2.2,7.6,4.5,15.3,6.8,23c-4.7,1.6-9.5,3.6-14,5.9c-2.2-7.2-4.2-14.4-6.2-21.5l-0.5-1.9l-1.9,0.5l-2.9,0.8
		l-1.9,0.5l0.5,1.9c2.1,7.6,4.3,15.4,6.6,23.1c-4.8,2.8-9.6,6.1-14.2,9.7c-2.5-6.5-4.9-13-7.2-19.4l-0.7-1.9l-1.9,0.7l-2.8,1
		l-1.9,0.7l0.7,1.9c2.6,7.2,5.3,14.6,8.1,21.8c-2.5,2.2-4.9,4.5-7.3,6.8c-2,2-4,4.1-6,6.3c-2-4.9-4-9.9-5.9-14.8l-0.7-1.9l-1.9,0.7
		l-2.8,1.1L87.2,67l0.7,1.9c2.3,6,4.8,12.2,7.4,18.2c-2.8,3.4-5.5,7-8.1,10.6c-1-2.6-1.9-5.2-2.8-7.7l-0.7-1.9l-1.9,0.7l-2.8,1
		L77,90.5l0.7,1.9c1.5,4.1,3,8.3,4.6,12.4c-1.5,2.3-2.9,4.5-4.2,6.9c-0.9,1.6,0.4,3.1,2.3,5l1.8,1.8l1.3-2.2
		c0.7-1.1,1.4-2.3,2.1-3.4c0.8,1.8,1.6,3.7,2.4,5.5c-1.4,1.8-2.7,3.6-3.9,5.4c-1.1,1.6,0.3,3,2.3,4.9l1.7,1.6l1.3-1.9
		c0.6-0.9,1.2-1.8,1.9-2.7c2.4,5,4.8,10,7.4,14.9c-0.6,0.8-1.3,1.7-1.8,2.5c-1.1,1.5,0.2,2.7,1.4,3.7c0.6,0.5,1.2,1,1.2,1l1.7,1.4
		l1.2-1.8c1,1.8,1.9,3.5,2.9,5.2c1.6,2.8,3.3,5.6,5,8.4c0,0.1,0.1,0.2,0.1,0.3c0.2,0.4,0.8,1.6,4.4,1.6c0.7,0,2.2,0,2.9-1.2l0.1-0.2
		c2.8-3.4,6.2-6.5,10-9.4c2.5,4.3,5.1,8.6,7.7,12.9c-3.4,1.6-6.7,3.5-9.8,5.5l-2.2,1.4l1.9,1.8c2.6,2.5,3.4,2.5,3.9,2.5
		c0.4,0,0.8-0.1,1.1-0.3c2.8-1.8,5.8-3.4,8.8-4.8c3.1,4.9,6.3,9.7,9.5,14.4c0.6,0.9,1.9,1.5,3.9,1.9c1.3,1.1,2,1.1,2.4,1.1
		c0.3,0,0.6-0.1,0.9-0.2c3.9-1.7,8-3,12.2-3.9c1.4,2.6,2.8,5,4.1,7.3c0.7,1.3,2.3,1.3,3.1,1.3c1.1,0,2.4-0.2,2.4-0.2l3-0.4l-1.5-2.6
		c-1.2-2-2.4-4.2-3.7-6.6c2.2-0.2,4.4-0.3,6.6-0.3c0.5,0,0.9,0,1.4,0c1.8,3.8,3.6,7.5,5.4,11.2c0.5,1,1.2,1.3,5.2,1.8l3.7,0.5
		l-1.7-3.4c-1.5-3.1-3.1-6.3-4.6-9.4c4,0.6,8,1.5,11.8,2.8c0.6,1.6,1.3,3.3,1.9,4.9l0.5,1.3l1.4,0c0.7,0,3.7-1,4.4-2l0.4-0.6
		l0.1,0.1l0.4,0.2l0.5,0c0.8,0,1.5-0.2,3.8-2.9l1.6-1.9l-2.2-1.2c-2.4-1.3-4.9-2.4-7.5-3.4c-1.7-4.4-3.5-8.9-5.2-13.4
		c1.3,0.4,2.4,0.8,3.5,1.2c4.3,1.5,8.5,3.3,12.5,5.3c1,3.6,1.7,6.7,2.5,9.5l0.6,2.2l2.1-0.8c2.8-1.1,4.5-1.7,4-3.6
		c-0.2-0.8-0.4-1.6-0.6-2.4c0.9,0.6,1.9,1.2,2.8,1.8l0.5,0.4l0.7,0c0.6,0,1.2,0,3.8-2.4l0.8-0.7l0,0.5l2.7-1.5
		c3.1-1.7,4-2.2,3.9-3.6c-0.3-3.1-0.6-6.2-0.9-9.3c2.3,2.5,3.8,4.5,4.4,5.4l1.2,1.6l1.6-1.2l2.4-1.7l1.6-1.2l-0.3-0.4l2.1-1.2
		c3.5-2,3.9-3.2,3.9-4.2c0-0.6-0.1-1.1-0.1-1.7c0.4,0.5,1,0.9,1.7,0.9c1.7,0,3.4-2.4,3.7-2.8c0.7-1.2,0.3-2.1,0.1-2.6
		c-2.1-3.4-4.3-6.8-6.8-10c-1.3-12.3-3.2-24.6-5.6-36.9c3.3,4.3,6.4,8.8,9.2,13.7c1.8,3,3.4,6.2,5,9.3c0.3,5.3,0.5,10.6,0.6,15.9
		l0,3.2l2.9-1.5c4.1-2.1,4.1-3.4,4.1-4.1c0-0.3,0-0.5,0-0.8l0.4-0.3c3.3-2.5,3.2-4.1,2.9-5c-0.8-2-2.1-5.3-3.9-9.2
		c-0.5-7.1-1.2-14.2-2.3-21.3c4.3,8.5,7.2,15.8,8.9,20.8l0.5,1.3l1.4,0c0.3,0,1.1-0.1,1.7-0.9c0,0,2.4-4.3,1.8-5.9
		c-3.2-8.7-9-21.8-18-35.3c-1.4-6.8-3.1-13.4-4.9-19.9c-3-10.5-6.6-20.9-10.7-30.9l-0.8-1.9l-1.9,0.8l-2.8,1.1l-1.9,0.8l0.8,1.9
		c4,9.8,7.5,20,10.4,30.2c0.4,1.3,0.7,2.6,1.1,3.9c-3.8-4.4-7.7-8.4-11.8-12c-1.9-1.7-3.9-3.3-5.9-4.8c-3.9-12.3-8.4-24.5-13.4-36.3
		l-0.8-1.8l-1.8,0.8l-2.8,1.2l-1.8,0.8l0.8,1.8c3.7,8.9,7.2,18.1,10.4,27.3c-5.5-3.2-11.2-5.8-17.1-7.7c-0.6-0.2-1.2-0.4-1.8-0.6
		c-4.2-10-8.8-19.9-13.6-29.4L196.3,11.2z M185.5,45.7c0.2,0,0.4,0,0.6,0c6.6,0,13.1,0.8,19.5,2.5c3,7.3,5.8,14.9,8.5,22.4
		c-2.8-1-5.7-1.8-8.6-2.5c-4-0.9-8.1-1.5-12.3-1.9C190.7,59.4,188.1,52.5,185.5,45.7z M162.6,48.9c2.5-0.7,5.1-1.2,7.6-1.6
		c2.2-0.4,4.9-0.8,7.9-1.1c2.5,6.6,5,13.2,7.5,19.9c-5.6,0.1-11.3,0.7-17.1,1.8C166.6,61.7,164.6,55.5,162.6,48.9z M141.9,56.9
		c4.6-2.4,9.3-4.4,14-6c2,6.5,3.9,12.6,5.8,18.5c-6,1.6-10.9,3.3-14.4,4.6l0,0C145.4,68.2,143.6,62.5,141.9,56.9z M222.7,74.2
		c-2.6-7.8-5.4-15.6-8.4-23.2c6.6,2.5,12.9,6,18.9,10.3c2.5,7.9,4.8,15.9,6.8,23.9c-0.7-0.5-1.4-1.1-2-1.6
		C233.1,79.9,228,76.7,222.7,74.2z M122,70.1c4.4-3.6,9-6.9,13.6-9.7c1.6,5.3,3.4,10.7,5.1,16.1c-4.6,2-9.2,4.2-13.5,6.8
		C125.5,78.9,123.7,74.5,122,70.1z M249.2,93.7c-0.7-3.1-1.4-5.9-2-8.5c-1.3-5.3-2.8-10.6-4.3-15.9c6.4,6,12.4,13.1,18,21.3
		c1.6,7.6,2.9,15.3,3.8,23c-1.5-2.4-3.1-4.8-4.8-7C256.6,102,253,97.7,249.2,93.7z M170.7,74.5c5.4-1,10.8-1.5,16-1.5
		c0.5,0,1,0,1.5,0c3.4,9.4,6.7,19,9.8,28.5c-5.3-1.5-10.7-2.5-16.2-2.8c-1-0.1-2-0.1-3.1-0.1C175.9,90.5,173.3,82.5,170.7,74.5z
		 M206.3,104.5c-3.4-10.3-6.9-20.7-10.5-30.9c2.7,0.3,5.5,0.8,8.1,1.4c4.5,1,8.9,2.5,13.1,4.3c1.1,3.3,2.1,6.6,3,9.8
		c2.6,8.8,5,17.8,7,26.9C221.5,112.3,214.7,107.9,206.3,104.5z M103.4,88.3c2.6-3,5.2-5.8,7.9-8.5c1.7-1.7,3.4-3.3,5.1-4.8
		c1.6,4,3.2,8.1,4.8,12c-4.8,3.1-9.4,6.6-13.8,10.4C106.1,94.4,104.7,91.3,103.4,88.3z M149.5,80.6l0.2-0.1c3.3-1.2,8.3-3,14.1-4.5
		c2.4,7.5,4.9,15.1,7.5,22.8c-4.9,0.3-9.8,1.1-14.6,2.4C154.3,94.4,151.8,87.5,149.5,80.6z M129.9,89.8c4.2-2.5,8.6-4.7,13.1-6.6
		c2.3,6.7,4.6,13.4,7,20.1c-4,1.4-8,3.1-12.1,5.2C135.2,102.3,132.5,96,129.9,89.8z M235.6,122c-2.5-11.7-5.4-23.5-8.8-34.9
		c-0.3-1.1-0.7-2.2-1-3.3c2.7,1.6,5.4,3.4,8,5.4c3.1,2.4,6.2,5.1,9.1,8c2.8,12.4,5,25,6.7,37.6C245.2,130.2,240.5,125.9,235.6,122z
		 M110.5,104.1c4.2-3.8,8.8-7.3,13.4-10.4c2.5,6,5.2,12.1,7.8,18.2c-0.9,0.5-1.7,1-2.5,1.5c-3.7,2.2-7.3,4.6-10.8,7.2
		C115.8,115.1,113.1,109.5,110.5,104.1z M90.2,105.5c2.6-3.8,5.3-7.6,8.2-11.2c1.2,2.7,2.4,5.4,3.6,8.1c-3.2,3.1-6.2,6.3-9.1,9.7
		C92,109.9,91.1,107.7,90.2,105.5z M159.2,107.8c4.8-1.2,9.6-1.9,14.5-2.1c2.3,6.8,4.4,12.7,6.3,18.2c0.7,2,1.4,4,2.1,5.9
		c-1.3-0.1-2.6-0.1-3.9-0.1c-3.4,0-6.9,0.2-10.3,0.5c-1.2-3.1-2.4-6.1-3.6-9C162.6,116.9,160.9,112.5,159.2,107.8z M189.7,130.4
		c-1-2.9-2.1-5.9-3.1-8.8c-1.7-4.8-3.5-9.9-5.5-15.8l0.2,0c6.7,0.4,13,1.8,19.4,4.1c0.6,2,1.3,4,1.9,6c1.9,6,3.8,12.1,5.7,18.5
		c-5.9-1.9-12-3.2-18.3-3.9C189.9,130.4,189.8,130.4,189.7,130.4z M96.1,119.2c2.8-3.5,5.9-6.9,9.1-10.1c2.5,5.3,5.2,10.7,7.8,15.9
		c-3.4,3-6.6,6.2-9.5,9.5C100.9,129.5,98.4,124.4,96.1,119.2z M140.8,114.8c3.9-2,7.8-3.7,11.7-5c1.8,4.8,3.6,9.4,5.3,13.9
		c1,2.4,1.9,4.9,2.9,7.4c-4.6,0.7-8.4,1.7-11.1,2.4C146.6,127.4,143.7,121.1,140.8,114.8z M216.5,137.4c-2.4-8-4.8-16-7.2-23.7
		l-0.1-0.2c5.7,2.8,10.5,6,14.6,8.7c1.8,1.2,3.6,2.4,5.5,3.8c1.4,6.8,2.6,13.6,3.6,20.5C227.8,142.9,222.3,139.8,216.5,137.4z
		 M121.8,126.8c3.5-2.8,7.2-5.3,11-7.5c0.6-0.3,1.2-0.7,1.8-1.1c2.7,5.9,5.4,11.8,8.2,17.6c-4.6,1.7-8.9,3.8-12.9,6.1
		c-2.8-4.9-5.5-9.8-8-14.7C121.9,127.1,121.9,126.9,121.8,126.8z M107,141.2c2.9-3.4,6-6.7,9.3-9.8c2.5,4.8,5.2,9.6,7.9,14.4
		c-3.6,2.6-6.8,5.5-9.7,8.5c-1.1-1.8-2.1-3.6-3.1-5.3C109.9,146.5,108.5,143.9,107,141.2z M240.9,152.7c-0.9-6.6-1.9-13.2-3.1-19.8
		c4.8,4.4,9.3,9.2,13.3,14.5c0.6,5.4,1,10.9,1.4,16.3l0.1,1.7l-0.2-0.2C251,163.3,247.2,158.4,240.9,152.7z M170.7,137
		c2.5-0.2,5.1-0.3,7.5-0.3c2.1,0,4.3,0.1,6.4,0.2c2.5,6.8,5,13.6,7.5,20.2c-4.5-0.8-9-1.3-13.4-1.5C176,149.5,173.3,143.3,170.7,137
		z M200.3,159.1c-2.7-7.1-5.3-14.2-7.9-21.3c6.3,1,12.5,2.6,18.3,4.8c2.1,7.3,4.3,14.8,6.3,22.4c-2.6-1.1-5.2-2.1-7.8-3.1
		C206.6,161,203.7,160,200.3,159.1z M152.7,140c2.7-0.7,6.4-1.5,10.7-2.2c2.5,6,5,12,7.6,17.9c-0.2,0-0.4,0-0.7,0
		c-3.1,0.2-6.1,0.5-9.2,1C158.3,151.1,155.4,145.5,152.7,140z M133.5,148c3.8-2.3,8-4.2,12.5-5.9c0.1,0.2,0.2,0.4,0.3,0.5
		c2.5,5,5.1,10.2,7.8,15.5c-4.1,1-8.2,2.3-12.1,3.8C139,157.4,136.2,152.7,133.5,148z M225.4,169.1c-2-7.6-4.1-15.2-6.3-22.8
		c4.2,2.2,8.2,4.7,12,7.5c1.1,0.8,2.1,1.6,3.2,2.5c0.8,6.4,1.5,12.7,2,18.9l0.1,0.7l-0.8-0.6C232.3,173.1,228.9,171,225.4,169.1z
		 M164.6,163.3c2.1-0.3,4.1-0.5,6.1-0.6c1.1-0.1,2.2-0.1,3.4-0.1c1.9,4.3,3.9,8.7,6,13.1c-2.8,0.1-5.6,0.3-8.4,0.7
		C169.3,172.2,167,167.8,164.6,163.3z M187.9,175.9c-2-4.3-4-8.7-6-13c4.4,0.4,8.8,1,13.2,2.1c1.7,4.4,3.3,8.7,5,13
		C196.1,177,192,176.3,187.9,175.9z M145.7,168c3.8-1.4,7.7-2.6,11.6-3.4c2.3,4.4,4.7,8.9,7.1,13.3c-3.5,0.8-6.9,1.9-10.1,3.3
		C151.4,176.8,148.5,172.4,145.7,168z"/>
	<path class="st1" d="M79,95.7c-0.9,7.1,0.8,14.1,3.7,20.4c2.4,6.5,6,12.6,10,18.3c4,5.7,8.6,11.1,13.4,16.3
		c4.8,5.1,9.9,10,15.3,14.7c1.3,1.2,2.7,2.3,4,3.4c0.7,0.6,1.4,1.1,2.1,1.6c0.4,0.3,0.7,0.5,1,0.7l1.1,0.7c2.9,1.9,5.9,3.7,9,5.4
		c6.2,3.3,12.7,6,19.4,8.2c6.7,2.2,13.5,3.8,20.5,4.8c6.9,1.6,13.9,2.4,21,3c-3.6,0.3-7.1,0.5-10.7,0.4c-3.6,0-7.2-0.2-10.8-0.5
		c-7.1-1.1-14.1-2.7-21-4.9c-6.8-2.2-13.5-5-19.8-8.4c-3.2-1.7-6.3-3.5-9.3-5.5l-1.1-0.7c-0.4-0.3-0.8-0.6-1.1-0.8
		c-0.7-0.6-1.4-1.1-2.1-1.7c-1.4-1.1-2.8-2.3-4.1-3.5c-5.4-4.7-10.6-9.6-15.5-14.9c-4.9-5.2-9.5-10.7-13.7-16.6
		c-4.1-5.9-7.8-12.2-10.4-19c-1.1-3.5-1.8-7.1-2-10.7C77.6,102.8,78,99.2,79,95.7z"/>
	<path class="st1" d="M104,210.7c3.2-0.1,6.3-0.4,9.5-0.7c3.1-0.3,6.3-0.8,9.4-1.2c6.3-0.9,12.5-1.9,18.8-3c3.1-0.5,6.3-0.7,9.4-1.2
		c3.1-0.4,6.2-0.9,9.3-1.5c6.2-1.1,12.4-2.5,18.5-4.1c12.2-3.2,24.1-7.6,35.5-12.9c11.5-5.4,22.9-10.8,33-18.2
		c5.1-3.7,9.8-7.8,14.1-12.3c4.3-4.5,8.1-9.5,11.7-14.7c3.6-5.1,6.7-10.6,8.9-16.4c2.2-5.8,3.3-11.9,3.5-18.1
		c0.1-6.2-0.8-12.4-2.5-18.3c-1.7-6-4.4-11.7-7.5-17.1c-5.9-11.1-14-21-23.1-29.8c5,4,9.6,8.3,13.9,13c4.3,4.7,8.3,9.8,11.7,15.2
		c3.3,5.6,5.9,11.5,7.7,17.7c1.8,6.2,2.8,12.7,2.7,19.2c-0.1,6.5-1.4,13-3.7,19.1c-2.3,6.1-5.5,11.8-9.2,17
		c-3.7,5.2-7.5,10.4-12,15.1c-4.4,4.7-9.3,8.9-14.5,12.7c-10.4,7.6-22.1,13.1-33.5,18.5c-11.6,5.4-23.6,9.8-36,13.1
		c-6.2,1.6-12.4,3-18.7,4.1c-3.1,0.6-6.3,1.1-9.4,1.5c-3.2,0.4-6.3,1-9.5,1.2c-6.3,0.5-12.7,1.1-19,1.5
		C116.7,210.8,110.3,211.1,104,210.7z"/>
</g>
</svg>
